<svg width="167" height="85" fill="none" xmlns="http://www.w3.org/2000/svg"><g clip-path="url(#clip0_333_278)"><path d="M22.273 85C12.69 82.248 4.316 28.634 31.998 7.5 46.729-3.745 63.67 18.826 89 16.258c22.276-2.259 32.21-14.21 53.514 0C152.839 27 163.726 35.859 163.726 57.68c0 21.82-10.887 27.32-10.887 27.32H22.273z" fill="#EBF3FA"/><path d="M163.871 84H7.129c-.071 0-.129.224-.129.5s.058.5.129.5H163.87c.071 0 .129-.224.129-.5s-.058-.5-.129-.5z" fill="#2E3552"/><path d="M73.67 7.063c-.887.68-1.373.596-1.636.25-.27-.345-.216-.828.671-1.508 1.618-1.234 2.89-1.204 2.89-1.204s-.283 1.21-1.925 2.462zm.834 7.167c-.624.923-1.103 1.007-1.469.762-.365-.244-.473-.715.144-1.64 1.133-1.686 2.344-2.068 2.344-2.068s.132 1.234-1.02 2.945zm1.862 18.707l-.21.006c0-.03-.137-3.303-1.816-7.911-1.552-4.25-4.771-10.546-11.305-16.383l.144-.155c6.57 5.872 9.806 12.204 11.365 16.478 1.684 4.633 1.822 7.93 1.822 7.965z" fill="#CAE9FB"/><path d="M69.834 16.053l-.192-.089c3.333-6.904-.114-14.374-.15-14.445l.192-.09c.036.072 3.525 7.631.15 14.624zm-3.592-3.004c-2.14.262-3.884-.608-3.902-.614l.096-.19c.024.011 2.26 1.12 4.735.399l.06.202a6.738 6.738 0 01-.989.203zm9.183 15.214c-4.382.042-8.146-1.627-11.18-4.96-.107-.113-.203-.227-.233-.244 0 0 .006.006.024.006l.042-.209c.06.012.102.06.323.298 2.997 3.285 6.702 4.924 11.024 4.889v.22z" fill="#CAE9FB"/><path d="M69.035 26.755l-.21-.03c.408-2.832-1.93-6.641-1.954-6.677l.18-.113c.006.012.605.983 1.15 2.3.504 1.223 1.056 3 .834 4.52zM62.747 7.498c1.235.865 1.403 1.407 1.151 1.765-.251.358-.827.394-2.062-.47-2.253-1.575-2.883-2.982-2.883-2.982s1.51.09 3.794 1.687zm.073 4.186c1.438.453 1.762.924 1.63 1.341-.132.418-.665.62-2.11.167-2.625-.823-3.656-1.973-3.656-1.973s1.474-.37 4.136.465z" fill="#CAE9FB"/><path d="M67.419 19.29c.63.919.521 1.396.162 1.64-.366.245-.846.173-1.475-.751-1.15-1.675-1.049-2.933-1.049-2.933s1.199.34 2.362 2.045zm.566-9.842c.383 1.043.168 1.479-.246 1.627-.413.15-.863-.035-1.247-1.085-.701-1.907-.3-3.1-.3-3.1s1.08.626 1.793 2.558zm3.699 15.858c.078 1.11-.258 1.467-.695 1.497-.438.03-.816-.28-.893-1.39-.138-2.026.587-3.058.587-3.058s.863.9 1.001 2.951zm-6.509-2.307c.815.763.81 1.252.51 1.568-.3.316-.786.346-1.6-.417-1.481-1.395-1.655-2.641-1.655-2.641s1.24.077 2.745 1.49zM70.025.53c.528 1.406.354 1.949-.06 2.104-.413.155-.899-.143-1.432-1.55-.96-2.57-.684-4.084-.684-4.084s1.2.924 2.176 3.53z" fill="#CAE9FB"/><g opacity=".4"><path opacity=".4" d="M76.184 23.28S83.676-3.544 92.212-1.499c8.53 2.051-9.734 17.003-11.623 24.873l-4.405-.096z" fill="#D5F3FB"/><path opacity=".4" d="M78.469 23.315c.671-3.029 2.403-8.025 6.881-14.624 2.674-3.947 5.095-6.63 5.12-6.653l.107.095c-.024.024-2.44 2.707-5.107 6.641-4.466 6.582-6.192 11.554-6.857 14.57l-.144-.03z" fill="#fff"/></g><g opacity=".5"><path opacity=".5" d="M80.617 24.018S100.854-6.637 110.732-.657s-19.08 17.438-24.624 26.56l-5.49-1.884z" fill="#D5F3FB"/><path opacity=".5" d="M83.469 24.978c2.062-3.529 6.258-9.103 14.536-15.595 4.951-3.881 9.069-6.278 9.111-6.302l.096.167c-.042.024-4.154 2.42-9.094 6.29-8.253 6.468-12.431 12.018-14.487 15.536l-.162-.096z" fill="#fff"/></g><path d="M65.699 28.49S50.593-4.24 40.115.112C29.638 4.47 56.054 19.845 60.088 29.51l5.61-1.02z" fill="#CAE9FB"/><path d="M62.569 29.086c-2.668-6.725-7.865-13.062-11.755-17.2-4.22-4.483-7.852-7.404-7.888-7.434l.18-.226c.036.03 3.686 2.969 7.918 7.464 3.908 4.149 9.13 10.522 11.815 17.289l-.27.107z" fill="#fff"/><path d="M87.682 78.443V66.62H63.705v11.822c0 3.07-2.056 5.562-4.591 5.562h-.966v1.526h35.096v-1.526h-.97c-2.536 0-4.592-2.492-4.592-5.562z" fill="#175CFF"/><path d="M93.048 85.531H58.342a.763.763 0 110-1.526h34.706a.763.763 0 110 1.526z" fill="#0B1151"/><path d="M116.547 73.876l-81.096-.924a3.16 3.16 0 01-3.135-3.154V20.573c0-1.723 1.391-3.124 3.123-3.154l80.047-1.216c1.744-.024 3.183 1.353 3.219 3.088l1.049 51.372a3.17 3.17 0 01-3.207 3.213z" fill="#52C4FF"/><path d="M113.933 64.111H37.021a1.561 1.561 0 01-1.564-1.556V22.713c0-.858.701-1.556 1.565-1.556h76.911c.863 0 1.564.698 1.564 1.556v39.842c0 .858-.701 1.556-1.564 1.556z" fill="#fff"/><path d="M61.917 38.696v13.605c0 .87-.713 1.58-1.588 1.58H40.092c-.377 0-.725-.131-.995-.352a1.576 1.576 0 01-.593-1.234V38.696c0-.87.713-1.58 1.588-1.58H60.33c.875 0 1.588.71 1.588 1.58z" fill="#3A69D0"/><path d="M86.69 38.696v13.605c0 .596-.335 1.12-.827 1.389a1.571 1.571 0 01-.76.197H64.871a1.586 1.586 0 01-1.594-1.58v-13.61c0-.871.713-1.58 1.588-1.58h20.236c.875 0 1.589.709 1.589 1.58zm24.78 0v13.605c0 .596-.336 1.12-.827 1.389a1.573 1.573 0 01-.761.197H89.645a1.586 1.586 0 01-1.594-1.58v-13.61c0-.871.713-1.58 1.588-1.58h20.237c.881 0 1.594.709 1.594 1.58zm-51.141 17.14H40.092c-.875 0-1.588.71-1.588 1.58v6.695h23.413v-6.695c0-.87-.713-1.58-1.588-1.58zm24.775 0h-20.23c-.875 0-1.589.71-1.589 1.58v6.695h23.413v-6.695a1.596 1.596 0 00-1.594-1.58zm24.772 0H89.639c-.875 0-1.588.71-1.588 1.58v6.695h23.413v-6.695a1.579 1.579 0 00-1.588-1.58z" fill="#4A83FF"/><path d="M67.161 49.88c-.97-1.485-2.997-2.397-3.153-4.162-.06-.656.162-1.377-.18-1.937-.377-.62-1.234-.716-1.954-.644-.797.077-1.636.322-2.122.948-.617.793-.48 1.901-.67 2.885-.468 2.367-2.812 3.822-4.952 4.954-1.109.59-2.278 1.217-2.95 2.272-1.144 1.788-.509 4.113-.605 6.23a8.796 8.796 0 01-1.63 4.698 31.459 31.459 0 01-1.822 2.343c-1.151 1.323-.66 3.088 1.007 3.338.935.143 1.846-.215 2.224-.829 1.18-1.907 4.651-2.068 5.94-2.253 1.289-.185 2.643-.823 3.135-2.027.461-1.133.03-2.427.216-3.637.257-1.675 1.63-2.933 2.913-4.042 1.103-.954 2.212-1.908 3.315-2.861.509-.442 1.03-.895 1.384-1.467.707-1.133.642-2.683-.096-3.81zm-3.285 3.94c-1.174 1.3-3.033 1.419-4.567 2.039-1.193.483-2.224 1.067-3.567 1.008-.869-.042-1.936-.304-1.96-1.336-.048-1.782 2.392-2.098 3.663-2.176.785-.048 1.6-.107 2.307-.453a3.006 3.006 0 001.26-1.169c.203-.34.34-.733.623-1.013.186-.185.425-.316.683-.381.743-.203 1.606.143 2.002.804.492.829.21 1.956-.443 2.677z" fill="#D5F3FB"/><path d="M40.802 72.528s1.804 12.621 3.13 12.734c1.318.12 6.27.382 7.774 0 1.51-.381 2.343-12.919 1.924-13.217-.414-.304-13.38-.954-12.828.483z" fill="#CC6860"/><path d="M53.24 80.159l-.587-1.15c1.625-.823 4.005-2.427 4.22-3.417a.355.355 0 00-.078-.334c-.641-.798-1.708-.536-2.056-.447a5.892 5.892 0 00-1.45.596l-.684-1.097c.036-.017.828-.5 1.823-.75 1.834-.454 2.847.238 3.38.894.33.405.444.894.33 1.412-.192.9-1.073 1.872-2.685 2.97a20.933 20.933 0 01-2.212 1.323z" fill="#4A83FF"/><path d="M45.013 78.68c-.432-2.337 1.744-3.267 3.416-3.267 1.667 0 2.92 1.205 2.92 2.862s-1.643 3.41-3.31 3.41c-1.672 0-2.727-1.371-3.026-3.005z" fill="#C45446"/><path d="M47.675 81.28a2.788 2.788 0 01-2.08-.912c-.504-.543-.857-1.288-1.02-2.153-.155-.852.013-1.574.498-2.158.738-.882 2.032-1.198 2.992-1.198 1.732 0 2.99 1.234 2.99 2.933 0 1.729-1.702 3.488-3.38 3.488zm.396-6.272c-.93 0-2.176.304-2.884 1.145-.455.548-.611 1.234-.461 2.038.156.835.491 1.556.983 2.081.527.566 1.21.87 1.972.87 1.606 0 3.237-1.687 3.237-3.338-.006-1.622-1.2-2.796-2.847-2.796z" fill="#fff"/><path fill="#5AA3FF" d="M39 26h72v7H39z"/><path d="M132.787 15.46s4.914-2.168 5.736 2.916c.396 2.448-1.734 4.906-1.209 6.174.535 1.27 2.556 3.986 1.259 5.255 0 0 .099-1.219-.674-2.138 0 0 1.03 3.357-1.12 3.796-2.16.43-5.726-1.508-5.478-4.915.227-3.406 1.486-11.089 1.486-11.089z" fill="#0B0754"/><path d="M129.271 16.239s1.06-1.459 3.854-.97c2.794.49 1.932 6.314-.456 7.313l-3.398-6.343z" fill="#0B0754"/><path d="M117.697 84.29c.059.18.396.54 1.268.71h2.219c.466-.08.604-.18 1.387-.08 1.189.15 2.239.15 2.298-.6.02-.26-.029-.529-.069-.779-.089-.47-.466-.829-.396-1.368.158-1.199 1.674-4.845 1.674-4.845l-2.606-.49s-.663 4.256-1.387 5.195a4.384 4.384 0 01-2.457 1.598c-.109.03-.218.05-.326.08-.872.19-1.675.37-1.605.58z" fill="#FFB27D"/><path d="M117.698 84.29c.059.18.396.54 1.268.71h2.219c.466-.08.604-.18 1.387-.08 1.189.15 2.239.15 2.298-.6.02-.26-.029-.529-.069-.779-.773.08-1.922.54-3.041.65a4.64 4.64 0 01-2.448-.46l-.009-.02c-.872.19-1.675.37-1.605.58zm4.836-4.395s.683.46 1.327.57c.961.18 1.407-.02 1.407-.02s4.637-11.729 4.369-15.695c-.01-.1-.01-.2-.01-.3-.01-.689.089-1.608.258-2.657.059-.39.139-.789.218-1.209.188-.979.416-2.028.664-3.107.109-.469.228-.948.346-1.428 1.169-4.695 2.586-9.31 2.586-9.31s-8.362-2.758-8.837-.18c-.178.989-.783 4.945-.515 10.989.218 4.865.079 8.66-.337 13.066-.367 3.856-.991 7.183-1.476 9.281z" fill="#2B276A"/><path d="M129.627 64.45c-.01-.689.089-1.608.258-2.657.059-.39.138-.789.218-1.209a88.966 88.966 0 011.01-4.535 213.851 213.851 0 00-.297-2.418s-3.468 4.746-1.189 10.82z" fill="#1C1860"/><path d="M128.25 84.29c.06.18.397.54 1.269.71h2.209c.466-.08.604-.18 1.387-.08 1.189.15 2.239.15 2.298-.6.02-.26-.029-.529-.069-.779-.089-.47-.396-.829-.396-1.368 0-1.609.366-4.536.366-4.536l-2.457.88s.555 2.906-.237 3.506c-.833.63-1.487 1.359-2.457 1.598-.109.03-.218.05-.327.08-.852.2-1.655.38-1.586.59z" fill="#FFB27D"/><path d="M128.25 84.29c.06.18.397.54 1.269.71h2.209c.466-.08.604-.18 1.387-.08 1.189.15 2.239.15 2.298-.6.02-.26-.029-.529-.069-.779-.773.08-1.922.54-3.041.65a4.645 4.645 0 01-2.448-.46l-.009-.02c-.862.19-1.665.37-1.596.58zm.415-38.481s2.724 13.676 3.18 21.119a482.232 482.232 0 001.03 13.606s.595.22 1.278.18a4.438 4.438 0 001.288-.27s2.695-11.198 1.803-15.684c-.891-4.485-.148-8.611.278-12.338.614-5.334-1.754-7.812-3.399-9.5-1.674-1.708-5.458 2.887-5.458 2.887z" fill="#2B276A"/><path d="M128.069 27.907l1.308 1.978 2.625-.13 1.209-3.167s-.377-.07-.545-4.016l-3.279 1.01s.178 1.028-.06 2.147c-.158.78-.515 1.619-1.258 2.178z" fill="#FFB27D"/><path d="M127.706 26.518c.169 0 3.26-1.038 7.668.77 0 0-2.09 12.078-1.198 14.375.901 2.308 1.238 4.346 1.238 4.346l-9.759.12s.139-7.912-.317-10.71c-.436-2.787 2.368-8.9 2.368-8.9z" fill="#FFB27D"/><path d="M111.508 34.64c.029-.34.138-.42.138-.42 3.121.46 5.182.44 6.202.64.793.16 1.12.18 1.258-.02 4.31-6.104 7.362-8.022 7.362-8.022s.327-.2 1.595-.37c0 0 .178 2.318 1.367 2.518 2.051.34 3.695-1.549 4.181-2.308 0 0 2.348.6 3.041 1.389.496.57.436 1.938.288 2.787-.05.27-.099.49-.149.62-.149.39-.693 3.236-.951 4.365-.01.03-.01.06-.02.08-.02.08-.03.14-.049.2-.01.06-.03.11-.04.14-.01.02-.01.04-.02.06-.366 1.169-.584 2.357-.456 3.816.02.17.05.38.109.61.327 1.697 1.685 5.034 1.972 6.563-.159.35-.535.619-.981.839-.584.29-1.308.48-1.882.61-.446.1-1.13.219-1.912.309-.416.05-.862.09-1.318.11-.06 0-.129.01-.188.01-2.943.15-6.232.07-6.658-1.339-.208-.68.614-4.735.723-5.944.188-2.118-.119-5.025-.257-7.273-2.408 2.678-4.905 3.647-4.905 3.647-.594-.03-1.278-.14-2.001-.3-.773-.17-1.575-.4-2.348-.65-2.179-.699-4.24-1.668-4.24-1.668s.069-.24.139-.999z" fill="#6D89CF"/><path d="M128.964 44.63c.555 1.908.882 3.467 2.279 4.526.456-.03.902-.07 1.318-.11.782-.09 1.466-.2 1.912-.31.574-.13 1.298-.32 1.882-.61.446-.219.822-.489.981-.838-.287-1.529-1.645-4.875-1.972-6.564-.029-.17-.049-.31-.069-.44-.119-1.518.069-2.767.406-3.975.02-.06.04-.13.05-.19.01-.04.029-.11.049-.2.01-.02.01-.05.02-.08.228-1.079.813-4.445.961-4.885.05-.14.099-.38.149-.67l-1.179-1.138s-6.737 2.897-8.223 6.903c-1.476 3.986.634 5.844 1.436 8.581zm-13.356-7.332c1.496.48 3.111.899 4.349.959 0 0 2.477-.92 4.905-3.647.099-.46.247-1.288-.308-1.069-.782.31-3.655 4.047-4.745 4.126-.793.06-3.012-.21-4.201-.37z" fill="#3662C1"/><path d="M120.927 36.239s3.319 1.678 6.202 2.377c.832.2 1.625.34 2.308.37 0 0 3.121-.95 5.459-4.296 4.33-6.194 1.04-7.143 1.04-7.143s-3.051 1.918-7.361 8.022c-.148.21-.525.17-1.506-.03-1.05-.21-3.13-.19-6.003-.609 0 0-.05.11-.08.45-.069.759-.059.859-.059.859z" fill="#6D89CF"/><path d="M111.366 35.63s2.051.978 4.24 1.667c.773.25 1.586.48 2.348.65.308-1.389.099-2.468-.118-3.097-1.011-.2-3.181-.21-6.292-.67l-.178 1.45z" fill="#E75755"/><path d="M112.328 34.38s-.792-.15-1.446-.489c-.654-.33-2.408-.55-2.784-.2-.377.35.396 1.789 1.991 1.838 1.595.04 2.061.31 2.061.31l.178-1.458z" fill="#FDA970"/><path d="M109.476 29.485l8.916 1.749c.387.08.713.46.713.859v6.214c0 .39-.317.649-.713.579l-8.916-1.748c-.387-.08-.714-.46-.714-.86v-6.213c.01-.4.327-.66.714-.58z" fill="#2B478B"/><path d="M109.128 29.485l8.916 1.749c.387.08.714.46.714.859v6.214c0 .39-.317.649-.714.579l-8.916-1.748c-.386-.08-.713-.46-.713-.86v-6.213c0-.4.317-.66.713-.58z" fill="#2B478B"/><path d="M117.896 31.723c.159.03.288.19.288.35 0 .16-.129.27-.288.24a.372.372 0 01-.287-.35c-.01-.17.129-.28.287-.24z" fill="#2B478B"/><path d="M116.895 34.17c.396-.379 2.268-.14 2.972.21.406.21.872.35 1.179.43 2.873.43 4.973.52 6.023.73-.326.709-.574 1.818.06 3.076-2.754-.669-5.974-2.148-6.262-2.277-.326-.08-.891-.18-1.842-.21-1.704-.05-2.527-1.579-2.13-1.958z" fill="#FFB27D"/><path d="M129.329 25.73c1.358-.11 3.339-3.158 3.339-3.158l-3.279 1.01s.168 1.028-.06 2.147z" fill="#ED975D"/><path d="M128.528 23.811s3.923.8 4.379-1.678c.455-2.478 1.268-4.036-1.219-4.645-2.487-.61-3.15.24-3.497 1.029-.357.779-.674 5.015.337 5.294z" fill="#FFB27D"/><path d="M130.448 16.868s-.07.84 1.218 2.258c1.288 1.418.555 3.656.555 3.656s2.606-3.816 1.447-5.135c-1.16-1.318-3.22-.779-3.22-.779z" fill="#0B0754"/><path d="M132.023 15.77s-1.951-.66-3.883 1.268c-.832.83-.704 2.457-.258 3.407 0 0 .684-2.029 1.932-2.468 1.248-.44 2.209-2.208 2.209-2.208z" fill="#0B0754"/><path d="M129.754 22.592s-.109.29-.842.16c0 0-.624-.11-.565-.44 0 0 .634-.17 1.407.28z" fill="#fff"/></g><defs><clipPath id="clip0_333_278"><path fill="#fff" d="M0 0h167v85H0z"/></clipPath></defs></svg>