<svg width="167" height="85" fill="none" xmlns="http://www.w3.org/2000/svg"><g clip-path="url(#clip0_333_216)"><path d="M22.273 85C12.69 82.248-15.924 45.824 11.76 24.69c27.683-21.133 85.228-38.799 130.756-8.432 45.528 30.366 9.743 23.654 21.212 41.422C175.196 75.447 152.839 85 152.839 85H22.273z" fill="#EBF3FA"/><path d="M121.183 16.266H89.956c-2.463 0-4.46 2.007-4.46 4.482V80.11c0 2.475 1.997 4.481 4.46 4.481h31.227c2.463 0 4.46-2.006 4.46-4.481V20.748c0-2.476-1.997-4.482-4.46-4.482z" fill="#2B478B"/><path d="M123.655 21.5v57.402c0 1.948-1.75 3.54-3.887 3.54H91.375c-2.138 0-3.887-1.592-3.887-3.54V21.5c0-1.947 1.75-3.54 3.887-3.54h28.393c2.137 0 3.887 1.593 3.887 3.54z" fill="#C0D8FB"/><path d="M119.764 17.96L91.722 82.442h-.351c-2.138 0-3.887-1.593-3.887-3.54V21.5c0-1.948 1.75-3.54 3.887-3.54h28.393z" fill="#CBE1FD"/><path d="M111.778 16.666H99.361c-.819 0-1.482.667-1.482 1.49v.449c0 .822.663 1.49 1.482 1.49h12.417c.819 0 1.483-.668 1.483-1.49v-.45c0-.822-.664-1.489-1.483-1.489z" fill="#2B478B"/><g clip-path="url(#clip1_333_216)"><path d="M101.076 26.07l-3.752 7.153-1.922-.704.625 1.909-3.762 11.386s-2.083-14.467 8.811-19.744z" fill="#233862"/><path d="M94.818 32.394s-4.15 15.37-4.549 30.035c0 0 3.442 1.205 8.848.25 5.434-.958-4.299-30.285-4.299-30.285z" fill="#233862"/><path d="M74.635 54.753c1.113-.021 2.68.117 3.199-.452.587-.646 1.28-.551 1.28-.551l-.139-.738-.168-.881s-.063-.08-.292-.077c0 0-.806.035-1.191-.103-.938-.337-4.67 1.91-4.544 2.533.047.23 1.38.275 1.855.269z" fill="#E2915A"/><path d="M95.286 32.093s-6.302 13.08-8.253 14.484c-1.951 1.405-8.794 5.336-8.794 5.336s-.097.696.071 1.334c.176.663.523.85.523.85s9.526-2.03 11.785-3.443c2.258-1.413 7.244-7.047 7.244-7.047l-2.576-11.514z" fill="#233862"/><path d="M93.71 57.588s.443 5.545.963 12.21c.707 9.055 1.557 20.178 1.64 22.285.145 3.658 3.686 2.117 6.456 1.531 0 0 .891.43 1.596-8.41l.032-.436c.656-9 1.675-27.948 1.675-27.948l-12.361.768z" fill="#68CCFF"/><path d="M93.71 57.588s.443 5.545.963 12.21l9.69 15.406.033-.436c.655-9 1.674-27.948 1.674-27.948l-12.36.768z" fill="#41A5FF"/><path d="M95.73 58.246s7.973 20.083 13.216 29.52c5.243 9.438 8.53 4.47 8.804 3.647 0 0-.652-11.826-4.162-16.268-1.984-2.51-4.315-10.039-4.424-12.675-.109-2.636-.709-7.846-.709-7.846l-12.724 3.622z" fill="#68CCFF"/><path d="M97.715 28.97c3.116.988 8.505-1.678 8.505-1.678s-2.871-2.166-2.722-6.671l-2.408 1.95-1.637 1.325s.007.78.186 2.15c.034.25.073.518.116.807a.582.582 0 01-.262.584c-1.135.707-1.778 1.533-1.778 1.533z" fill="#FFB27D"/><path d="M93.368 58.048c.09.08.206.124.327.125 1.17-.016 4.582.637 7.469.34 2.434-.235 4.588-.96 6.901-2.002.307-.138 1.014-.517.998-.862-.01-.378-.048-.927-.095-1.615-.164-2.4-.449-6.526-.171-11.287.051-.886.076-1.766.079-2.63.025-6.453-1.249-12.128-3.807-14.049 0 0-1.785 1.006-3.019 1.403-1.21.388-1.834.309-2.46-.108 0 0-1.222.61-1.742 1.184-1.209 1.324-2.152 3.082-2.777 5.606-.53 2.147-1.028 5.279-1.2 9.292-.08 1.817-.581 14.541-.503 14.603z" fill="#fff"/><path d="M108.5 36.73l-3.43-10.66s-8.234 3.12-8.615 14.802c-.15 2.662-.786 13.571.364 22.612 0 0 6.415 2.511 14.28-2.444L108.5 36.73z" fill="#2B478B"/><path d="M99.453 23.897s.007.781.186 2.15c1.813-.312 3.87-3.257 3.87-3.257-.923-.268-1.732-.316-2.419-.218l-1.637 1.325z" fill="#ED975D"/><path d="M98.106 23.812s5.612.937 6.139-2.583c.527-3.521 1.606-5.771-1.955-6.518-3.56-.747-4.457.491-4.919 1.623-.46 1.132-.71 7.145.735 7.478z" fill="#FFB27D"/><path d="M122.727 69.355l-11.458 1.64a2.736 2.736 0 01-2.028-.526 2.762 2.762 0 01-1.07-1.81l-.707-4.989c-.1-.722.088-1.455.523-2.038a2.747 2.747 0 011.802-1.074l11.458-1.64a2.73 2.73 0 012.028.525c.58.438.965 1.089 1.069 1.81l.708 4.99a2.77 2.77 0 01-.523 2.037 2.748 2.748 0 01-1.802 1.075z" fill="#3A69D0"/><path d="M108.976 63.453l.717 5.045c.067.465.251.906.534 1.28a2.751 2.751 0 002.573 1.066l11.438-1.638a2.753 2.753 0 001.807-1.079c.438-.585.626-1.32.526-2.045l-.717-5.045a2.775 2.775 0 00-1.074-1.816 2.749 2.749 0 00-2.036-.528l-3.938.566-.154-1.077a.908.908 0 00-1.025-.772l-.431.062-2.396.343-.593.078a.906.906 0 00-.596.355.918.918 0 00-.173.675l.154 1.076-2.282.327a2.8 2.8 0 00-.264.051h-.002a2.76 2.76 0 00-1.896 1.666 2.75 2.75 0 00-.172 1.41zm9.27-4.118l-4.09.584-.154-1.076a.343.343 0 01.287-.385l1.028-.147 1.886-.27.509-.073a.337.337 0 01.289.098.337.337 0 01.094.19l.151 1.079z" fill="#243C62"/><path d="M114.016 54.5s.601.805.625 1.127c.162 2.18-.83 2.482 1.738 3.694 0 0 1.097.42 1.115-.435.019-.855-.761-.87-.618-2.067.164-1.38.148-1.393-.755-2.114l-.597-.993-1.508.787z" fill="#FFB27D"/><path d="M115.547 55.117c-.968.19-2.016.112-2.016.112s-2.872-8.914-3.242-9.73c-.37-.815-8.531-10.45-8.531-10.45l3.31-8.978s1.942 1.142 3.997 4.7c2.535 4.396 5.323 11.475 5.818 12.626 1.481 3.44 1.995 11.153 1.995 11.153a3.686 3.686 0 01-1.331.567z" fill="#2B478B"/><path d="M104.249 20.891s-.576-.096-.483-.893c.093-.797.092-1.84-.553-1.645-.645.195-.677.713-.942.412-.266-.301-.27-1.58-2.189-1.668-1.92-.088-2.699.582-3.591.188-.893-.394-.94-1.75-.94-1.75s.256.484.637.639c0 0-1.489-2.046.235-3.45 1.723-1.403 3.48-.484 4.478-.423 2.198.133 3.618.266 4.336 1.717.717 1.451.422 5.477-.988 6.873z" fill="#243C62"/><path d="M114.966 55.459s-.579.606-.615.859c-.117.81-.387 1.16-.251 1.249.28.183.652-.417.829-.955.177-.538.037-1.154.037-1.154z" fill="#FFB27D"/><path d="M105.07 26.07l-3.752 7.153-1.924-.704.625 1.909-3.762 11.386s-2.082-14.467 8.813-19.744z" fill="#233862"/><path d="M97.715 21.816s.219.58.765.596c.546.016.968-.517.968-.517s-1.186-.277-1.733-.08z" fill="#fff"/><path d="M76.864 52.346s-1.384-.349-1.782-.432c-.46-.099-.887-.45-1.024-.284-.252.309.808.846 1.227 1.793.205.463.618.718 1.446.376.42-.172.751-1.04.133-1.453z" fill="#E2915A"/></g><path d="M67.379 77.486l11.776-2.742a2.87 2.87 0 001.779-1.28 2.895 2.895 0 00.362-2.169l-1.182-5.128a2.882 2.882 0 00-1.275-1.787 2.858 2.858 0 00-2.158-.364l-11.776 2.741a2.87 2.87 0 00-1.779 1.28 2.895 2.895 0 00-.362 2.17l1.182 5.127a2.882 2.882 0 001.275 1.787 2.858 2.858 0 002.158.365z" fill="#4A83FF"/><path d="M77.873 65.22a2.88 2.88 0 00-2.475-.904h-.003a2.545 2.545 0 00-.277.052l-2.345.547-.256-1.107a.944.944 0 00-1.137-.712l-.61.142-2.463.573-.444.103a.956.956 0 00-.71 1.142l.257 1.106-4.048.942a2.881 2.881 0 00-1.785 1.286 2.906 2.906 0 00-.364 2.176l1.195 5.186a2.893 2.893 0 001.279 1.793 2.867 2.867 0 002.165.366l11.756-2.736a2.828 2.828 0 001.373-.764 2.894 2.894 0 00.774-2.696l-1.196-5.187a2.865 2.865 0 00-.686-1.308zm-10.14-.302a.357.357 0 01.266-.427l.522-.122 1.939-.45 1.056-.246a.353.353 0 01.422.267l.256 1.106-4.207.978-.254-1.106z" fill="#3A69D0"/><path d="M70.15 58.546s-.357 1.267-.235 1.671c.827 2.736 2.258 4.527-1.588 4.067 0 0 .159-.158-.577-1.55-.849-1.607-.835-1.63-.074-2.935l.263-1.493 2.21.24zm4.836-3.258c-1.16-.071-2.575-.376-3.091-.993-.585-.7-1.168-.887-1.168-.887l.178-.764.213-.912s.07-.08.308-.068c0 0 .91.206 1.249-.055.338-.262.956-.103 1.336.151.485.323 1.138.27 1.122.429 0 0-.96.474-.871.554.879.784 3.193 1.095 3.043 1.708-.06.24-1.824.867-2.319.837zm-16.18-29.805l-.003.635s.172 1.983-2.259 2.273c-2.43.29-4.423.252-4.355-1.279.219-1.184.611-3.024.627-4.004a6.925 6.925 0 00-.086-1.188l4.705-.092 1.387.228-.016 3.427z" fill="#FFB27D"/><path d="M58.827 22.056l-.018 3.43a3.966 3.966 0 01-1.697.376c-2.165 0-3.564-1.596-4.295-2.752a6.946 6.946 0 00-.087-1.188l4.708-.094 1.39.228z" fill="#E2915A"/><path d="M52.368 21.159c.546 2.954 4.34 2.858 5.98 2.672.462-.052.752-.11.752-.11.52-.14.81-.964.945-2.043.268-2.135-.07-5.268-.429-6.07-.54-1.206-1.557-2.51-5.38-1.569-3.822.942-2.57 3.336-1.868 7.12z" fill="#FFB27D"/><path d="M58.622 85H68c-.617-7.343-.945-14.47-1.12-19.759-.174-5.277-1.052-8.923-1.052-8.923s-12.752-3.513-12.827.931c-.067 3.932 4.224 19.355 5.36 25.84.12.632.206 1.27.261 1.911z" fill="#2B478B"/><path d="M58.436 82.74l8.494-17.32c-.174-5.12-1.05-8.658-1.05-8.658s-12.714-3.408-12.79.904c-.066 3.815 4.212 18.78 5.346 25.073z" fill="#233862"/><path d="M47.481 74.664c-.05 1.982.1 5.887.332 10.336h9.56L61 57.586s-11.426-2.447-13.166-1.262c-1.74 1.185-.192 11.928-.353 18.34z" fill="#2B478B"/><path d="M59.763 16.073c-1.05.332-3.27-.007-4.199.747-.928.755-.044 2-1.105 2.443h-.004a.52.52 0 01-.61-.154c-.293-.369-.7-.736-1.071-.584-.305.126-.32.521-.186.905a1.076 1.076 0 01-.114.968c-.084.121-.14.257-.115.39.088.487.329 1.121.417 1.446l.025.34s-1.778-1.93-2.526-3.556c-.512-1.117-.503-5.288 2.009-6.507a.084.084 0 01-.024-.027c-.054-.098-.205-.076-.205-.076.216-.098.551-.036.551-.036s.006-.02.037-.044c.044-.295.339-.505.339-.505a.991.991 0 00-.161.398c.66-.35 2.69-1.124 4.301-.42a13.35 13.35 0 002.767.862 1.162 1.162 0 01.934 1.18c-.03.802-.308 1.954-1.06 2.23z" fill="#233862"/><path d="M51.613 27.965l1.548 33.363s12.915.212 12.547-2.725c-.368-2.937-4.655-29.619-4.655-29.619l-2.068-1.515-1.619.927-2.744-.263-3.009-.168z" fill="#E9F3FE"/><path d="M55.873 48.864s-.656 8.91-1.915 14.505c0 0-7.538.402-9.325-2.523 0 0 1.416-12.037 1.416-14.479 0-.858-.066-2.025-.17-3.33-.157-1.975-.4-4.263-.63-6.257a330.275 330.275 0 00-.616-4.983l6.213-5.073 5.027 22.14zm14.955 10.542s-1.407.885-3.621.588c-.806 1.986-2.708 2.661-2.708 2.482a4367.48 4367.48 0 00-1.084-9.48l-.014-.115-.256-2.222c-.606-5.293-1.189-10.367-1.189-10.367-1.321-8.13-2.44-13.502-2.44-13.502 2.818.295 4.722 1.304 5.482 2.626 2.25 3.92 3.88 13.722 4.835 21.06 0 .019.004.038.007.056.164 1.267.307 2.46.432 3.535l.022.199c.354 3.075.534 5.14.534 5.14z" fill="#4A83FF"/><path d="M57.754 21.647s.123.38 1.08.242c0 0 .804-.117.744-.542 0 0-.808-.24-1.824.3z" fill="#fff"/><path d="M51.25 26.684c-.016-.318 1.486-.758 1.486-.758s1.718 2.393 4.548 2.435c0 0-.806 1.577-1.757 1.985 0 0-4.184-1.771-4.277-3.662zm6.031 1.62s1.5-.893 1.505-1.861c0 0 .968-.122 1.392.35 0 0 .355 1.66-.116 2.626-.001-.003-2.16-.332-2.78-1.115z" fill="#D9E9F9"/><path d="M61 55.871c-.078.957-.442 1.853-1.024 2.509l-.91 1.033c-.23.258-.585.228-.773-.067l-1.099-1.733c-.295-.463-.43-1.055-.379-1.647.118-1.323.337-3.871.516-6.33.146-1.992.266-3.927.285-5.104.06-3.758-.43-15.73-.43-15.73l.73.039s1.772 4.629 2.662 10.944c.22 1.555.385 3.21.458 4.927.003-.003.318 6.835-.035 11.16z" fill="#243C62"/><path d="M56.265 28.16l2.033-.49s.266.024.256.356c-.009.333-.573 1.305-.823 1.383-.25.078-1.947-.575-1.466-1.249z" fill="#3A69D0"/><path d="M51.485 26.52c-.016-.319 1-.975 1-.975s1.966 2.309 4.797 2.35c0 0-.807 1.578-1.757 1.986 0 0-3.947-1.47-4.04-3.361z" fill="#E9F3FE"/><path d="M57.281 27.896s1.517-.808 1.522-1.776c0 0 .915.404 1.338.875 0 0 .392 1.047-.08 2.011 0 .002-2.16-.33-2.78-1.11z" fill="#E9F3FE"/><path d="M61 55.871c-.078.957-.442 1.854-1.024 2.509l-.91 1.033c-.23.258-.585.228-.773-.067l-1.099-1.733c-.295-.463-.43-1.055-.379-1.647.118-1.322.337-3.87.516-6.33 2.05-2.82 2.903-6.692 3.248-9.85.22 1.554.385 3.21.458 4.926.002-.002.317 6.835-.036 11.16z" fill="#2B478B"/><path d="M52.484 25.545s4.026 16.94 3.385 23.322c0 0-1.48-6.82-5.041-12.407 0 0 1.3-1.15 1.23-1.573 0 0-.966-.287-1.902-.093 0 0 .103-7.303.687-8.074.585-.772 1.641-1.175 1.641-1.175zm6.321.575c-.604.051 3.989 16.553 4.33 21.844 0 0-.404-9.44-.365-12.161 0 0-1.672-.89-1.672-1.202 0-.312 1.784-1.156 1.784-1.156s-1.127-5.813-1.746-6.454c-.618-.641-2.331-.871-2.331-.871z" fill="#3A69D0"/><path d="M67.212 60.666s-.279.38-.103 1.331c.177.952.08 1.478.325 1.314.244-.164.751-1.308.751-1.308l-.973-1.337z" fill="#FFB27D"/><path d="M55.38 51.474c-4.686-.703-7.82-5.104-9.503-8.435a185.92 185.92 0 00-.63-6.258l1.096-3.143 9.037 17.836zm14.917 2.792c-.933.218-3.764.749-6.728.064l-.153-1.334-.014-.115.293-1.146c1.677.604 5.425 1.925 6.578 2.332.01.067.018.134.024.2z" fill="#3A69D0"/><path d="M50.843 26.722s-4.116.523-5.997 3.16c-1.882 2.636 2.157 16.993 10.534 21.591 4.03 2.214 15.657 2.71 15.657 2.71s.64.065.893-1.229c.089-.45 0-1.22 0-1.22s-13.236-4.986-14.398-5.946c-1.161-.96-6.689-19.066-6.689-19.066z" fill="#4A83FF"/><path d="M163.871 84H7.129c-.071 0-.129.224-.129.5s.058.5.129.5H163.87c.071 0 .129-.224.129-.5s-.058-.5-.129-.5z" fill="#2E3552"/></g><defs><clipPath id="clip0_333_216"><path fill="#fff" d="M0 0h167v85H0z"/></clipPath><clipPath id="clip1_333_216"><path fill="#fff" transform="translate(73 11.44)" d="M0 0h54v71H0z"/></clipPath></defs></svg>