<svg width="13" height="16" fill="none" xmlns="http://www.w3.org/2000/svg"><path d="M6.75 4.815c-.585 0-1.489-.664-2.44-.64-1.257.016-2.409.728-3.057 1.856-1.304 2.264-.336 5.608.936 7.448.624.896 1.36 1.904 2.336 1.872.936-.04 1.288-.608 2.424-.608 1.128 0 1.448.608 2.44.584 1.008-.016 1.648-.912 2.264-1.816a8.04 8.04 0 001.024-2.104c-.024-.008-1.96-.752-1.984-2.992-.016-1.872 1.528-2.768 1.6-2.808-.88-1.288-2.232-1.432-2.704-1.464-1.232-.096-2.264.672-2.84.672zm2.08-1.888c.52-.624.863-1.496.767-2.36-.744.032-1.64.496-2.176 1.12-.48.552-.896 1.44-.784 2.288.824.064 1.672-.424 2.192-1.048z" fill="#97A2AC"/></svg>