<svg width="40" height="40" fill="none" xmlns="http://www.w3.org/2000/svg"><g clip-path="url(#clip0)" fill="#175CFF"><path d="M30.994 32.473H26.4a2.015 2.015 0 00-1.815-2.882h-2.37a4.598 4.598 0 01-1.665-.31l-1.815-.702a5.734 5.734 0 00-2.076-.388h-3.636v-.13c0-.736-.598-1.334-1.333-1.334H4.103a.953.953 0 00-.952.952v2.241a.571.571 0 101.142 0v-2.05h7.397a.19.19 0 01.19.19v9.607a.19.19 0 01-.19.19H4.293v-4.993a.571.571 0 10-1.142 0v5.184c0 .525.427.952.952.952h7.587c.735 0 1.333-.598 1.333-1.333v-.984h17.971c1.16 0 2.105-.944 2.105-2.105 0-1.16-.944-2.105-2.105-2.105zm0 3.067H13.023v-6.206h3.636c.571 0 1.131.104 1.664.31l1.814.702a5.736 5.736 0 002.077.387h2.372a.87.87 0 010 1.74h-3.34a.571.571 0 100 1.143h9.748a.963.963 0 010 1.924zM22.65 11.02a.74.74 0 01.74.74.571.571 0 101.143 0c0-.84-.551-1.552-1.31-1.795v-.693a.571.571 0 10-1.143 0v.693a1.886 1.886 0 00-1.312 1.794 1.885 1.885 0 001.925 1.881.74.74 0 11-.782.739.571.571 0 10-1.143 0c0 .839.552 1.551 1.312 1.794v.693a.571.571 0 101.142 0v-.693a1.886 1.886 0 001.311-1.794 1.885 1.885 0 00-1.924-1.881.74.74 0 01.042-1.479z"/><path d="M25.908 8.268a.571.571 0 00-.229-.775 6.354 6.354 0 00-3.028-.768 6.352 6.352 0 00-6.345 6.344 6.352 6.352 0 006.345 6.344 6.352 6.352 0 006.344-6.344 6.304 6.304 0 00-1.167-3.668.571.571 0 00-.932.662 5.16 5.16 0 01.957 3.006 5.208 5.208 0 01-5.202 5.202 5.208 5.208 0 01-5.202-5.202 5.208 5.208 0 017.684-4.573.571.571 0 00.775-.228zM11 8.5a.57.57 0 00.755-.286 12.022 12.022 0 0111.03-7.071c2.74.018 5.31.925 7.43 2.622a.571.571 0 10.715-.892C28.607 1.013 25.793.02 22.791 0h-.088a13.166 13.166 0 00-11.99 7.744.571.571 0 00.285.756z"/><path d="M13.304 21.07c.767 0 1.447-.4 1.819-1.07a2.064 2.064 0 00-.053-2.118 8.962 8.962 0 01-1.347-4.546c-.05-2.397.86-4.682 2.563-6.432 1.702-1.75 3.957-2.721 6.352-2.738a8.931 8.931 0 016.393 2.608 8.92 8.92 0 012.653 6.373 8.939 8.939 0 01-8.41 8.963v-.526a.867.867 0 00-.506-.793.868.868 0 00-.933.122l-3.064 2.568a.95.95 0 000 1.46l3.064 2.568a.87.87 0 00.933.122.868.868 0 00.506-.794v-.555a13.071 13.071 0 008.797-3.912 13.076 13.076 0 003.778-9.135 13.192 13.192 0 00-2.944-8.403.571.571 0 00-.886.721 12.047 12.047 0 012.687 7.674 11.943 11.943 0 01-11.722 11.92.88.88 0 00-.853.876v.243L19.68 24.21l2.451-2.055v.234a.88.88 0 00.904.875 10.068 10.068 0 006.935-3.07 10.071 10.071 0 002.856-7.048c0-2.718-1.062-5.27-2.99-7.184a10.05 10.05 0 00-7.206-2.94c-2.703.019-5.247 1.114-7.163 3.084-1.917 1.971-2.942 4.547-2.886 7.253a10.106 10.106 0 001.518 5.125.935.935 0 01.025.96.926.926 0 01-.82.481.933.933 0 01-.797-.44 11.971 11.971 0 01-1.81-6.34c0-.818.084-1.635.247-2.429a.571.571 0 10-1.12-.23c-.178.87-.269 1.764-.269 2.66 0 2.461.686 4.862 1.982 6.943a2.07 2.07 0 001.767.98z"/></g><defs><clipPath id="clip0"><path fill="#fff" d="M0 0h40v40H0z"/></clipPath></defs></svg>