<svg width="40" height="38" fill="none" xmlns="http://www.w3.org/2000/svg"><path d="M0 8.891V7.509a.64.64 0 011.283 0V8.89A.64.64 0 010 8.89zm4.513 21.65h5.517a.64.64 0 100-1.28H4.513a.64.64 0 100 1.28zm0-2.602a.64.64 0 00.641-.64v-2.513a.64.64 0 00-1.282 0V27.3c0 .354.286.64.64.64zm3.4-.64v-2.513a.64.64 0 00-1.283 0V27.3a.64.64 0 001.282 0zm2.758 0v-2.513a.64.64 0 00-1.283 0V27.3a.64.64 0 001.283 0zm28.687-6.34a1.836 1.836 0 01-1.472-.532c-.544-.646-.361-1.723-.36-1.731a.638.638 0 00-.551-.751l-2.633-.325V.64A.64.64 0 0033.7 0H.642A.64.64 0 000 .64v4.44a.64.64 0 001.283 0v-3.8h10.286v9.466a.638.638 0 00.965.552l4.637-2.707 4.636 2.707a.642.642 0 00.966-.552V6.488a.64.64 0 00-1.283 0v3.144l-3.994-2.333a.642.642 0 00-.648 0l-3.994 2.333V1.279h8.636v3.016a.64.64 0 001.283 0V1.28h10.286v16.183l-1.575-.194a.632.632 0 00-.157 0l-1.608.198a.64.64 0 10.157 1.27l1.53-.189 4.808.592c-.02.758.22 1.5.682 2.102a2.784 2.784 0 001.82.953v3.915c0 1.715-.208 4.272-2.008 6.66a.642.642 0 001.026.767c2.03-2.693 2.266-5.53 2.266-7.428v-4.51a.64.64 0 00-.642-.639zm-3.046 13.273a.643.643 0 00-.905-.041 11.47 11.47 0 01-.658.554.639.639 0 00-.11.898.643.643 0 00.901.11c.257-.2.501-.407.731-.617a.638.638 0 00.041-.904zm-5.147 3.72a.638.638 0 00.484 0c.79-.318 1.558-.693 2.295-1.121a.64.64 0 10-.649-1.104 16.39 16.39 0 01-1.888.94c-2.3-.974-4.082-2.284-5.3-3.899-1.802-2.39-2.01-4.945-2.01-6.659v-3.914a2.792 2.792 0 001.821-.954 3.318 3.318 0 00.684-2.1l1.026-.127a.64.64 0 10-.157-1.27l-1.627.2a.645.645 0 00-.552.749c.001.01.183 1.087-.362 1.734a1.836 1.836 0 01-1.475.532.64.64 0 00-.641.64v4.51a12.248 12.248 0 001.583 6.404H1.283V11.498a.64.64 0 00-1.283 0v21.655c0 .353.287.64.641.64h24.65c1.392 1.737 3.362 3.138 5.873 4.16zm5.24-11.794h-.002l-5.405 5.391a1.736 1.736 0 01-2.455-.004l-2.136-2.127a1.733 1.733 0 012.453-2.447l.91.907 4.177-4.167a1.738 1.738 0 012.44.011c.673.67.68 1.756.015 2.434l.002.002zm-.911-1.543a.455.455 0 00-.64.004l-4.628 4.618a.643.643 0 01-.907 0l-1.363-1.36a.453.453 0 00-.638.64l2.137 2.128c.179.17.46.17.637 0l5.404-5.39a.456.456 0 000-.64h-.002z" fill="#175CFF"/></svg>