<svg width="39" height="39" fill="none" xmlns="http://www.w3.org/2000/svg"><path d="M32.289 15.133a.62.62 0 01-.478-.047.633.633 0 01-.306-.376l-.421-1.402a.644.644 0 01.14-.623.624.624 0 011.061.253l.422 1.4a.643.643 0 01-.418.795zm-8.646 10.085l.686 2.281a.645.645 0 01-.047.485.63.63 0 01-.37.31l-4.632 1.43a.627.627 0 01-.784-.425l-.684-2.281a.644.644 0 01.046-.486.632.632 0 01.371-.309l4.63-1.428a.627.627 0 01.784.423zm-.699 2.044l-.317-1.064-3.43 1.059.32 1.063 3.427-1.058zm6.666-2.059a.633.633 0 00-.432.465.643.643 0 00.183.611c.165.156.4.21.615.142l2.743-.847a.639.639 0 00.414-.793.627.627 0 00-.78-.425l-2.743.847zm2.219-2.59l-2.744.847a.633.633 0 00-.432.465.642.642 0 00.184.61c.165.156.4.21.614.142l2.743-.846a.641.641 0 00.248-1.076.622.622 0 00-.614-.142zm5.681 6.96l-16.674 5.15c-.232 2.145-1.846 3.869-3.947 4.215-2.1.346-4.171-.773-5.06-2.733a4.843 4.843 0 011.25-5.672L6.925 10.057a.638.638 0 01.419-.791c.33-.102.68.086.782.42l6.054 20.141c.018-.008.036-.013.055-.02.332-.15.679-.26 1.036-.326.06-.011.119-.016.179-.025.114-.017.228-.036.342-.043.01 0 .022-.003.033-.004l-.308-1.026-4.454-14.805c0-.005 0-.01-.002-.015L8.348 4.536l-5.85-3.16a.823.823 0 00-.641-.065.856.856 0 00-.596.74.861.861 0 00.446.84l4.997 2.698c.148.08.258.215.306.377l.466 1.558a.643.643 0 01-.14.623.623.623 0 01-1.06-.252L5.882 6.59l-4.77-2.575A2.138 2.138 0 01.01 1.926 2.125 2.125 0 011.492.093a2.057 2.057 0 011.6.16L9.17 3.537c.147.08.257.215.305.376l2.61 8.684 6.375-1.969c.004 0 .008-.003.011-.004l4.375-1.351.039-.014 6.99-2.157a.627.627 0 01.783.423l1.107 3.682a.638.638 0 01-.418.79.626.626 0 01-.783-.42l-.924-3.072-5.788 1.786 1.59 5.288c.065.22.01.459-.147.625a.623.623 0 01-.61.177l-2.245-.58-1.546 1.751a.624.624 0 01-1.069-.24l-1.588-5.284-5.788 1.787 4.041 13.447.679 2.255h.005l.072.019c.098.024.194.05.29.08a4.598 4.598 0 01.363.132l.128.053c.103.045.203.094.302.146l.06.033c.1.055.197.114.292.175l.1.068a4.782 4.782 0 01.579.466l.022.02.005.005 15.492-4.786-2.591-8.621a.643.643 0 01.14-.623.623.623 0 011.06.252l2.592 8.62.208-.063a2.096 2.096 0 012.62 1.417c.338 1.125-.288 2.315-1.398 2.657v.006zM23.916 14.87l-1.264-4.204-3.213.992 1.264 4.204 1.056-1.196a.62.62 0 01.622-.192l1.535.396zM19.61 34.238a3.6 3.6 0 00-.444-1.758c-.036-.065-.078-.126-.118-.188a3.447 3.447 0 00-2.89-1.614l-.109.002a3.325 3.325 0 00-.355.028c-.041.005-.083.01-.124.017a3.446 3.446 0 00-.452.103c-1.705.527-2.742 2.277-2.398 4.05.343 1.775 1.955 2.998 3.73 2.833 1.777-.166 3.141-1.666 3.16-3.474zm18.097-6.95a.843.843 0 00-1.053-.569l-.807.247-15.624 4.827.015.03c.06.106.11.215.162.324.024.053.053.103.076.156.066.157.124.317.174.48l.008.022v.006c.051.175.093.354.124.534l.014.06 16.347-5.048a.86.86 0 00.564-1.068zm-22.381 4.241c-.55.17-1.032.51-1.382.972-.2.28-.145.67.125.88.27.21.656.163.87-.105a1.488 1.488 0 011.689-.515 1.52 1.52 0 011.004 1.47 1.517 1.517 0 01-1.067 1.421c-.38.118-.79.077-1.14-.112a1.51 1.51 0 01-.726-.898.626.626 0 00-.784-.424.638.638 0 00-.418.795 2.77 2.77 0 001.336 1.653 2.71 2.71 0 002.099.204c1.455-.45 2.275-2.01 1.832-3.486-.444-1.475-1.983-2.307-3.439-1.857v.002z" fill="#175CFF"/></svg>