<svg width="337" height="180" fill="none" xmlns="http://www.w3.org/2000/svg"><g clip-path="url(#clip0_120_3816)"><path d="M26.225 179.547s-35.348-37.883-5.978-78.898c26.057-36.387 56.436-33.904 78.725-19.136 9.493 6.29 36.863.77 60.158-36.254 31.768-50.497 141.887-19.87 121.809 57.824-9.717 37.596 29.57 38.963 9.552 76.545l-264.266-.081z" fill="#EBF3FA"/><path d="M312.844 129.267c-2.489-9.174-17.996-6.307-17.996-6.307s-10.529 16.05-13.592 16.436c-3.062.386 6.318-15.48 6.318-15.48-5.936-.573-21.059 6.689-21.059 6.689s.957 18.729-2.106 18.347c-3.062-.381 0-16.627 0-16.627-5.744 1.72-11.104 8.409-11.104 8.409-6.7 10.894 7.657 18.92 7.657 18.92s.192 6.498-3.828 13.951c0 0-.908 1.375-1.83 3.715h1.566c.128-.419.269-.825.425-1.209v-.007l.008-.017c.11-.241.261-.585.453-1.003.478-.935.801-1.625 1.006-2.124 1.432-2.935 3.499-6.759 4.875-7.56a3.065 3.065 0 01-.33-.717l.33.717c2.68 5.733 16.078 6.689 23.548 5.16 7.471-1.529 4.212-3.628.192-7.043-4.021-3.416-12.444-2.513-14.934-3.848-2.489-1.334 1.15-2.675 6.127-2.293 4.978.383 7.466 5.352 15.507 6.116 8.041.764 14.166-14.333 14.166-14.333-5.551 1.719-15.506-1.338-15.889-3.25-.383-1.911 14.358-1.72 16.656-2.293 2.297-.572 6.323-5.181 3.834-14.349z" fill="#DFEBFD"/><path d="M101.514 131.765s.683 5.449-.34 5.514c-1.023.065-.323-6.128-.323-6.128s-4.869-2.715-6.849-2.646c0 0 2.788 5.452 1.78 5.263-1.009-.19-4.173-5.728-4.173-5.728s-5.084-1.266-6.096 1.726c-1.012 2.992.227 4.594.977 4.837.75.243 5.644.473 5.477 1.099-.166.627-3.53 1.437-5.336.754 0 0 1.724 5.132 4.405 5.042 2.68-.09 3.608-1.688 5.268-1.713 1.66-.025 2.837.492 1.982.88-.855.388-3.627-.077-5.03.972-1.403 1.05-2.525 1.681-.08 2.341 2.444.659 6.908.614 7.914-1.234l.125-.23a.968.968 0 01-.125.23c.44.295 1.047 1.605 1.462 2.608.058.169.151.406.291.727.056.144.101.262.131.345.739 2.234.045 5.97.045 5.97l.526.178c1.405-3.722-.459-6.965-.459-6.965-1.182-2.554-.991-4.705-.991-4.705s4.926-2.37 2.926-6.119c.003-.004-1.638-2.328-3.507-3.018z" fill="#AFCDFB"/><path d="M64.68 156.09c-.44-6.721 10.617-8.354 10.617-8.354s10.752 8.354 12.894 7.905c2.142-.45-7.796-8.932-7.796-8.932 3.847-1.745 15.66-.342 15.66-.342s3.665 12.778 5.631 11.821c1.967-.958-3.824-11.15-3.824-11.15 4.247-.163 9.38 3.094 9.38 3.094 6.998 5.768-.783 14.442-.783 14.442s1.365 4.397 5.776 8.478c0 0 .925.714 2.081 2.072l-1.05.358c-.182-.252-.37-.49-.563-.716l-.008-.009c-.128-.138-.311-.33-.535-.569a20.63 20.63 0 01-1.163-1.194c-1.636-1.639-3.901-3.73-5.008-3.957.044-.182.064-.37.059-.558l-.059.558c-.479 4.46-9.245 8.172-14.603 8.858-5.359.686-3.66-1.47-1.749-4.68 1.91-3.21 7.767-4.537 9.128-6.004 1.361-1.468-1.385-1.53-4.635-.133s-3.776 5.3-8.992 7.654c-5.217 2.355-12.796-6.364-12.796-6.364 4.118-.118 10.09-4.451 9.91-5.826-.179-1.375-10.02 2.138-11.695 2.28-1.675.142-5.436-2.013-5.876-8.732z" fill="#CDE0FB"/><path d="M271.766 35.53s-1.179-.889-1.483-2.216c-.22-.989.34-2.221.387-2.277l-1.58-.315s-.468 2.089.331 3.484c.242.425.946 1.012 1.399 1.232.295.143.63.175.946.091z" fill="#6BB7BF"/><path d="M274.511 34.57l1.431 1.642s-4.062 1.076-6.387-1.792c.009 0 3.428 1.154 4.956.15z" fill="#86D1CD"/><path d="M200.45 13.97s1.466-2.428 4.051-.942l1.418-1.54s-1.48-.977-4.61 1.15c-2.044 1.391-.859 1.332-.859 1.332z" fill="#F99746"/><path d="M199.006 16.352s-.493-2.648 3.873-4.601c0 0-1.566.887-1.893 3.579l-1.98 1.022z" fill="#F99746"/><path d="M110.023 92.795s-2.4-.944-1.458-3.48l-1.594-1.034s-.654 1.47 1.728 3.947c1.563 1.622 1.324.567 1.324.567z" fill="#5685D8"/><path d="M112.379 93.73s-2.301.84-4.713-2.768c0 0 1.032 1.266 3.496 1.152l1.217 1.617z" fill="#739AF0"/><path d="M116.94 59.571s1.321-.835 1.465-1.844c0 0 1.29.069 1.569.487 0 0-.593 1.67-1.291 1.979 0 0-1.568.105-1.743-.622zm-86.961 60.371s-1.414-.891-1.563-1.968c0 0-1.377.075-1.674.52 0 0 .632 1.782 1.377 2.116 0 0 1.674.112 1.86-.668z" fill="#F1A34F"/><path d="M188.348 41.271s-1.975-1.245-2.182-2.748c0 0-1.922.11-2.337.726 0 0 .881 2.49 1.921 2.956 0-.003 2.338.154 2.598-.934z" fill="#86D1CD"/><path d="M309.553 35.483l12.272 38.357c.259.816.184 1.7-.208 2.461a3.245 3.245 0 01-1.884 1.6l-67.404 21.492a3.251 3.251 0 01-4.068-2.09L235.984 58.94a3.233 3.233 0 01.208-2.46 3.243 3.243 0 011.884-1.6l67.404-21.492a3.252 3.252 0 014.073 2.095z" fill="#CDE0FB"/><path d="M270.79 84.24l-17.964 5.73a1.46 1.46 0 01-1.824-.94l-.055-.172a1.45 1.45 0 01.94-1.82l17.965-5.728a1.458 1.458 0 011.824.939l.055.171a1.451 1.451 0 01-.941 1.82zm23.674-7.547l-17.965 5.727a1.46 1.46 0 01-1.824-.939l-.055-.172a1.45 1.45 0 01.941-1.82l17.964-5.728a1.46 1.46 0 011.824.939l.055.172a1.45 1.45 0 01-.94 1.82zm-21.382-12.959c.209.655.267 1.227.172 1.716a1.584 1.584 0 01-1.077 1.213 1.588 1.588 0 01-1.581-.364c-.361-.344-.647-.843-.856-1.497-.209-.655-.268-1.224-.176-1.709a1.597 1.597 0 011.929-1.252 1.6 1.6 0 01.745.4c.353.342.635.84.844 1.493zm-.826.26a3.463 3.463 0 00-.469-.99c-.278-.372-.579-.508-.905-.403-.326.104-.503.39-.511.848.002.37.066.736.187 1.086.357 1.116.821 1.583 1.391 1.4.33-.105.497-.392.501-.858a3.446 3.446 0 00-.194-1.083zm4.514-1.436c.209.654.266 1.226.171 1.716a1.579 1.579 0 01-1.077 1.215 1.594 1.594 0 01-1.584-.366c-.362-.344-.648-.843-.857-1.498-.209-.654-.268-1.224-.176-1.708a1.596 1.596 0 011.084-1.217 1.607 1.607 0 011.591.364c.357.343.639.84.848 1.494zm-.825.26a3.462 3.462 0 00-.47-.99c-.278-.373-.579-.508-.904-.404-.326.105-.496.387-.511.848.002.37.065.737.187 1.086.357 1.116.82 1.582 1.391 1.4.329-.105.496-.391.5-.858a3.445 3.445 0 00-.193-1.083zm6.415-2.038c.209.654.266 1.226.172 1.717a1.588 1.588 0 01-2.662.848c-.361-.345-.647-.844-.856-1.498-.209-.654-.268-1.223-.177-1.707a1.596 1.596 0 011.084-1.217 1.602 1.602 0 011.591.364c.357.336.64.834.848 1.494zm-.825.26a3.522 3.522 0 00-.469-.99c-.279-.372-.58-.506-.906-.402-.326.105-.503.388-.511.848.002.37.066.737.188 1.086.356 1.115.82 1.582 1.39 1.4.329-.105.496-.391.502-.858a3.48 3.48 0 00-.194-1.088v.004zm4.514-1.44c.209.654.266 1.226.171 1.716a1.58 1.58 0 01-1.077 1.215 1.592 1.592 0 01-1.584-.367c-.362-.344-.648-.843-.857-1.497-.209-.654-.268-1.223-.176-1.708a1.596 1.596 0 011.084-1.217 1.603 1.603 0 011.591.364c.356.342.639.84.848 1.494zm-.825.26a3.459 3.459 0 00-.47-.99c-.278-.372-.579-.507-.905-.404-.325.104-.495.386-.51.848.001.37.065.737.187 1.086.356 1.116.82 1.583 1.391 1.4.328-.105.495-.391.499-.858a3.416 3.416 0 00-.192-1.083zm4.514-1.437c.209.655.266 1.227.171 1.716a1.58 1.58 0 01-1.077 1.216 1.592 1.592 0 01-1.584-.367c-.362-.344-.648-.843-.857-1.497-.209-.654-.268-1.223-.176-1.708a1.596 1.596 0 011.084-1.218 1.604 1.604 0 011.591.365c.357.343.64.84.848 1.493zm-.825.26a3.463 3.463 0 00-.47-.99c-.278-.372-.579-.506-.905-.403-.33.11-.504.39-.512.848.003.37.066.736.188 1.086.356 1.116.82 1.583 1.39 1.4.331-.105.498-.391.502-.858a3.503 3.503 0 00-.193-1.083zm4.513-1.436c.209.654.266 1.226.172 1.716a1.58 1.58 0 01-1.078 1.216 1.589 1.589 0 01-1.584-.366c-.361-.345-.647-.845-.857-1.498-.21-.654-.269-1.223-.176-1.709a1.596 1.596 0 011.084-1.217 1.604 1.604 0 011.591.364c.356.347.639.845.848 1.494zm-.825.26a3.437 3.437 0 00-.471-.99c-.277-.373-.578-.507-.904-.403-.325.104-.495.387-.511.848.003.37.066.736.188 1.086.356 1.116.82 1.583 1.39 1.4.33-.104.497-.39.502-.858a3.475 3.475 0 00-.194-1.083zm6.415-2.042c.21.655.267 1.227.172 1.716a1.588 1.588 0 01-2.661.85c-.362-.346-.648-.846-.857-1.5-.209-.653-.268-1.222-.176-1.706a1.605 1.605 0 012.674-.853c.356.341.638.839.848 1.493zm-.824.259a3.5 3.5 0 00-.471-.99c-.277-.373-.579-.507-.904-.403-.33.11-.504.39-.512.847.003.37.066.737.187 1.087.357 1.115.821 1.582 1.391 1.4.331-.105.498-.392.501-.858a3.474 3.474 0 00-.192-1.083zm4.512-1.429c.21.653.267 1.225.172 1.716a1.58 1.58 0 01-1.077 1.216 1.591 1.591 0 01-1.584-.368c-.362-.343-.647-.843-.857-1.497-.21-.654-.269-1.224-.176-1.708a1.605 1.605 0 012.674-.853c.357.336.64.834.848 1.494zm-.824.259a3.435 3.435 0 00-.471-.99c-.277-.372-.579-.507-.904-.403-.325.104-.495.387-.511.848.002.37.065.737.187 1.086.357 1.115.821 1.582 1.391 1.4.329-.105.496-.391.501-.858a3.478 3.478 0 00-.193-1.088v.005zm4.513-1.441c.209.654.267 1.226.172 1.716a1.588 1.588 0 01-2.662.849c-.361-.345-.647-.844-.856-1.498-.209-.653-.268-1.223-.176-1.708a1.6 1.6 0 012.674-.853c.356.343.639.84.848 1.494zm-.825.26a3.466 3.466 0 00-.47-.99c-.277-.372-.579-.507-.904-.404-.325.104-.495.386-.511.848.002.37.065.737.186 1.086.359 1.116.823 1.583 1.392 1.4.329-.105.496-.391.5-.858a3.445 3.445 0 00-.193-1.083zm4.514-1.436c.209.654.267 1.226.172 1.716a1.589 1.589 0 01-2.663.85c-.361-.346-.646-.845-.855-1.499-.21-.654-.268-1.223-.176-1.708a1.6 1.6 0 012.674-.853c.356.343.639.84.848 1.494zm-.826.26a3.467 3.467 0 00-.469-.99c-.277-.373-.579-.507-.904-.404-.33.11-.504.39-.512.848.002.37.066.737.187 1.086.357 1.116.821 1.583 1.391 1.4.33-.11.497-.39.501-.857a3.453 3.453 0 00-.194-1.084zM260.73 54.12l-17.581 5.606a1.459 1.459 0 01-1.823-.94 1.45 1.45 0 01.94-1.819l17.581-5.606a1.459 1.459 0 011.823.94 1.451 1.451 0 01-.94 1.82zm42.701-10.379a2.222 2.222 0 00-.89-1.176.24.24 0 00-.282.013.24.24 0 00-.063.078l-.055.11a.233.233 0 00.077.3 1.63 1.63 0 01.617 1.926.237.237 0 00.11.29l.11.058a.242.242 0 00.193.01.241.241 0 00.138-.135c.183-.471.199-.992.045-1.474z" fill="#AFCDFB"/><path d="M304.571 43.379a3.41 3.41 0 00-1.503-1.891.238.238 0 00-.331.099l-.032.063a.236.236 0 00-.014.173.236.236 0 00.107.136 2.873 2.873 0 011.152 3.602.235.235 0 00.11.306l.062.032a.233.233 0 00.189.018.244.244 0 00.084-.05.248.248 0 00.057-.078c.334-.762.376-1.62.119-2.41z" fill="#AFCDFB"/><path d="M305.568 43.06a4.451 4.451 0 00-2.029-2.507.237.237 0 00-.346.273.237.237 0 00.109.137 3.975 3.975 0 011.638 5.12.235.235 0 00-.009.174.239.239 0 00.443.023 4.445 4.445 0 00.194-3.22z" fill="#AFCDFB"/><path d="M306.65 42.715a5.58 5.58 0 00-2.6-3.176.233.233 0 00-.187-.022.242.242 0 00-.144.122l-.055.11a.237.237 0 00.096.312 4.993 4.993 0 012.077 6.492.236.236 0 00-.011.175.24.24 0 00.114.134l.111.056a.231.231 0 00.189.017.244.244 0 00.084-.048.249.249 0 00.057-.079 5.571 5.571 0 00.269-4.093z" fill="#AFCDFB"/><path d="M261.289 68.788h-38.375v110.347h38.375V68.788z" fill="#FFA412"/><path d="M222.914 68.788H121.531v110.347h101.383V68.788z" fill="#FFB93E"/><path d="M222.914 130.492v-7.724H121.531v7.724h101.383z" fill="#FFA412"/><path d="M261.29 130.492v-7.724h-38.376v7.724h38.376z" fill="#FA9712"/><path d="M191.431 69.97s22.905-14.857 38.475-10.083l-3.213 2.994 1.448 5.033s-17.314-5.628-37.183 2.903l.473-.846zm-1.281-3.363s-4.041-.488-10.065-1.32c-15.99-2.198-45.941-6.789-51.315-11.04-8.447-6.678 11.57-35.039 20.234-38.976 8.664-3.936 41.146 51.336 41.146 51.336zm63.371-35.319c1.443 7.027-63.965 37.377-63.965 37.377s1.19-3.213 3.125-8.245v-.008C199.753 42.041 216.789-.59 222.387 0c.562.058 1.22.258 1.955.58 8.604 3.783 27.848 24.238 29.179 30.708z" fill="#F99746"/><path d="M223.795 6.834c-3.995 6.926-30.691 52.868-31.11 53.585C199.757 42.047 216.793-.584 222.391.006c0 0 1.109-.031 1.955.58 1.021.743 1.651 2.424-.551 6.248zm-43.698 58.454h-.011c-15.991-2.199-45.942-6.79-51.316-11.04-2.422-6.827 3.871-7.382 8.455-7.863 4.584-.48 42.872 18.903 42.872 18.903z" fill="#ED7D2B"/><path d="M177.951 68.78s3.667-8.327 10.883-8.789c7.538-.481 11.818 8.79 11.818 8.79h-22.701z" fill="#ED7D2B"/><path d="M224.541 68.788H118.458v15.177h106.083V68.788z" fill="#FFC261"/><path d="M264.525 68.788h-39.984v15.177h39.984V68.788z" fill="#FA9712"/><path d="M181.667 67.517s-20.778-6.57-34.798-2.226c-16.161 5.007-15.203 24.913-15.203 24.913l3.8-1.56 5.132 2.404s.865-21.08 14.041-24.03c11.393-2.552 27.028.499 27.028.499z" fill="#F99746"/><path d="M171.008 68.788h-7.737v110.335h7.737V68.788z" fill="#FFA412"/><path d="M99.984 35.66l-7.103 2.377L99.74 58.46l7.102-2.377-6.857-20.423z" fill="#ED7D2B"/><path d="M92.881 38.037l-18.764 6.279 6.857 20.423 18.764-6.279-6.857-20.423z" fill="#F99746"/><path d="M96.823 49.772l-.484-1.431-18.8 6.322.482 1.432 18.802-6.323z" fill="#FFB93E"/><path d="M103.95 47.424l-.483-1.432-7.117 2.393.484 1.432 7.116-2.393z" fill="#F69B34"/><path d="M87.699 39.423s4.877-4.53 9.22-4.882l-.621.803.72.809s-4.85.33-9.383 3.463l.064-.193zm-1.019.241s-.777.16-1.943.38c-3.097.584-8.926 1.589-10.185 1.135-1.983-.714-.037-7.202 1.321-8.465 1.358-1.263 10.807 6.95 10.807 6.95zm9.536-10.461c.703 1.21-9.517 10.883-9.517 10.883s.021-.668.066-1.72c.168-3.837.67-12.782 1.743-13.02.132-.024.266-.03.4-.014 1.826.16 6.66 2.755 7.308 3.87z" fill="#FFB93E"/><path d="M89.194 26.518c-.31 1.529-2.396 11.685-2.422 11.843.167-3.837.67-12.782 1.743-13.02a.7.7 0 01.398-.014c.23.075.45.346.281 1.19zm-4.456 13.525c-3.097.584-8.925 1.589-10.185 1.135-.873-1.114.258-1.606 1.076-1.98.818-.372 9.109.845 9.109.845z" fill="#F69B34"/><path d="M84.558 40.822s.16-1.768 1.468-2.3c1.365-.556 2.733.894 2.733.894l-4.2 1.406z" fill="#F69B34"/><path d="M93.18 37.936l-19.634 6.57.944 2.809 19.634-6.57-.943-2.809z" fill="#FFA15A"/><path d="M100.582 35.46l-7.4 2.476.942 2.809 7.401-2.476-.943-2.81z" fill="#F78639"/><path d="M85.167 40.358s-4.254.071-6.578 1.743c-2.68 1.927-1.267 5.553-1.267 5.553l.607-.525 1.101.128s-1.15-3.958 1.102-5.317c1.952-1.179 5.035-1.582 5.035-1.582z" fill="#FFBE55"/><path d="M83.273 41.253l-1.431.48 6.916 20.598 1.431-.479-6.916-20.599z" fill="#FFB93E"/><path d="M223.716 80.495s-2.809 1.648-1.085 4.852c0 0-2.46-.449-2.991-1.182.032.159.083.313.154.46 0 0-2.261-.513-3-1.454-.739-.94 2.887-12.224 8.764-9.302 0 0 5.374.996 3.269 6.952-2.106 5.956-.116 6.486-.116 6.486s-.626.125-.892.055c0 0-.351-.252-.371-.487 0 0-.012.358.059.492 0 0-2.202-.364-3.059-1.456-.856-1.093-1.371-4.244-.732-5.416z" fill="#233862"/><path d="M219.66 90.084zm6.828-1.963c.082.739.18 1.4.22 1.716.099.708-6.624.247-7.048.246.299-.13 1.211-3.017 1.5-4.119.349-1.335.624-2.779.624-2.779l4.747.3.283.018a16.642 16.642 0 00-.419 2.05c-.086.629-.01 1.657.093 2.568z" fill="#FFB27D"/><path d="M221.13 82.708s-.771-2.436-.614-4.305c.11-1.333 2.013-5.883 6.586-3.947.921.385 1.745.97 2.41 1.715.847.968 1.938 2.864-.82 6.545l-.802 1.277-6.76-1.285z" fill="#233862"/><path d="M226.487 88.121c-3.321-.97-4.729-4.8-4.729-4.8 1.404.041 3.234 1.014 4.669 2.004l-.032.228c-.086.63-.01 1.657.092 2.568z" fill="#ED975D"/><path d="M226.722 86.776s-5.998-1.481-5.019-5.194c.979-3.714.867-6.41 4.735-5.621 3.867.788 4.238 2.4 4.213 3.72-.025 1.319-2.341 7.385-3.929 7.095z" fill="#FFB27D"/><path d="M229.191 76.588s-2.792 3.926-5.472 3.906c-2.68-.02-3.591-.977-3.591-.977s2.33-1.018 3.436-3.577c-.004 0 4.94-1.748 5.627.648z" fill="#233862"/><path d="M228.688 76.836s.963 1.295 1.01 2.32c.048 1.024-.335 3.006.25 3.09 0 0 2.018-2.638 1.077-4.677-.996-2.168-2.337-.733-2.337-.733z" fill="#233862"/><path d="M228.876 77.043s-2.376 4.255-5.93 4.88c0 0 3.91-1.967 4.978-4.909 1.068-2.942.952.029.952.029z" fill="#233862"/><path d="M225.786 84.395s.075.565.441.699c.365.134 1.321.376 1.418.317a4.9 4.9 0 00.456-.502s-1.515-.58-2.315-.514z" fill="#fff"/><path d="M223.546 141.223c-.076.319-.153.633-.228.944-.451 1.877-.873 3.616-1.137 5.073-.345 1.894-.426 3.298.026 3.896 1.862 2.438 0 21.789 0 21.789l-2.121 2.183s-3.685-19.105-4.685-22.096c-.455-1.361-1.117-7.173-1.701-13.107a529.151 529.151 0 01-.38-3.968c-.525-5.615-.918-10.422-.918-10.422s3.91-2.748 7.462-3.049c2.092-.183 4.061.482 5.032 3.049 1.417 3.727-.018 10.175-1.35 15.708z" fill="#FFB27D"/><path d="M223.546 141.223c-2.905-2.089-6.991-5.826-8.479-11.93-.284-3.037 2.115-5.924 4.792-6.835 2.093-.183 4.061.483 5.033 3.049 1.42 3.735-.015 10.183-1.346 15.716z" fill="#ED975D"/><path d="M234.14 104.324l14.275 3.681v1.664s-14.205-.166-15.122-1.746c-.918-1.58.847-3.599.847-3.599zm14.274 54.85l-.667 2.748s-19.311-9.957-21.804-11.873c-1.003-.769-2.329-4.94-3.558-9.659-1.829-7.036-3.44-15.28-3.44-15.28s2.707-10.394 9.954-4.033c4.336 3.807 3.663 11.142 3.193 16.847-.316 3.828-.544 6.926.895 7.725 2.804 1.562 11.036 8.761 13.641 13.715l1.786-.19zm-32.758-46.203c-5.043-1.28-10.587-9.091-10.587-9.091l1.42-1.23c1.47 1.73 7.584 4.71 7.584 4.71a44.298 44.298 0 01.11-4.342c.678-8.935 4.052-11.912 4.974-12.565a2.1 2.1 0 01.233-.15 102.663 102.663 0 01.072 1.726c.185 5.468.408 22.014-3.806 20.942z" fill="#FFB27D"/><path d="M219.65 102.248c-.262 6.376-1.217 12.686-3.996 12.28-3.414-.496-4.295-3.671-4.476-6.031a13.525 13.525 0 01.049-2.623s1.677-.008 1.949-.257c1.288-1.188.905-12.836 1.542-14.045.636-1.21 4.775-1.99 4.775-1.99s.417 6.366.157 12.666z" fill="#fff"/><path d="M219.65 102.249c-.262 6.376-1.217 12.686-3.996 12.279-3.414-.496-4.295-3.671-4.476-6.031.837-.042 2.312-.246 2.895-1.137.837-1.276 3.451-9.487 3.451-9.487s1.028 1.844 2.126 4.376z" fill="#DFEBFD"/><path d="M241.145 104.324c.923 1.309.414 3.847-1.523 5.892-1.202 1.27-2.831 2.021-5.482 1.63-1.157-.17-4.385-1.991-4.726-4.209l-.094-.638s-1.47 1.47-1.526 1.747c-.025.126-.151 1.236-.171 1.388-.023.183.11.857.11.857s-7.024 3.067-12.831-.425c0 0-1.652-14.165-.466-16.522.59-1.17 3.905-3.45 5.059-4.457.26-.228.523-.91.451-1.35-.058-.372.37-.999.729-.88.694.22 2.659 1.193 4.041.822.688-.182 1.56-.977 2.227-.794.816.22-.045 2.18.417 2.207.637.03 4.074.718 4.366 1.272.1.192 1.088 2.806 2.328 6.266v.009c2.324 6.48 5.736 5.263 7.091 7.185z" fill="#fff"/><path d="M229.32 107s-.171-5.403-.609-5.337c-.439.066-6.746 6.128-5.247 8.553 1.498 2.425 5.856-3.216 5.856-3.216z" fill="#DFEBFD"/><path d="M234.14 129.157s-2.433.75-6.015 1.245c-4.436.612-10.636.833-16.174-1.245 0 0-.456-8.227.855-12.514 1.312-4.288 1.926-6.342 1.926-6.342s5.257 1.319 10.596.295a17.12 17.12 0 002.24-.577s3.293 6.98 4.199 9.971c.905 2.991 2.373 9.167 2.373 9.167z" fill="#1C468A"/><path d="M234.139 129.157s-2.432.75-6.014 1.245c-6.569-3.719-3.367-19.368-3.367-19.368.195-.157.386-.303.57-.439a17.326 17.326 0 002.24-.578s3.293 6.98 4.198 9.971c.906 2.991 2.373 9.169 2.373 9.169z" fill="#233862"/><path d="M220.315 111.847c-3.894 0-5.505-1.338-5.616-1.43l-.252-1.831c.038.029 5.263 3.16 13.35.16l-.172 1.388c-3.112 1.153-5.287 1.713-7.31 1.713z" fill="#B64C41"/><path d="M248.416 108.006s2.618-1.289 3.66-1.413c1.042-.124 2.79-.167 2.79 0s-1.872 1.328-2.374 1.413c-.502.084-1.458.79-1.166.879.292.089 1.832-.27 1.853 0 .021.27-.937.44-1.101.644-.164.205-.75.458-1.687.33a30.041 30.041 0 00-1.973-.187l-.002-1.666zm-41.929-5.361l-1.424 1.24s-2.533-1.844-2.651-2.601v-.075c0-.786 1.606-2.419 2.938-2.48a.72.72 0 01.364.09c.71.44.795 2.292.788 3.247.004.35-.015.579-.015.579z" fill="#FFB27D"/><path d="M248.415 159.174l-.668 2.748s-19.31-9.957-21.803-11.873c-1.003-.769-2.329-4.94-3.558-9.659 1.652.337 5.208.518 9.701-2.471-.316 3.827-.544 6.925.894 7.724 2.805 1.562 11.037 8.762 13.642 13.715l1.792-.184z" fill="#2B478B"/><path d="M252.232 160.241h-.017c-.086-.022-.484-.153-.747-.783-.174-.415-.226-.756-.384-1.167l-.653-1.124c-.682-.896-.921-.686-.921-.686s-.178.228-.44.529c-.441.497-1.101 1.19-1.575 1.368a1.378 1.378 0 00-.875.989s1.399.243 1.278.932c-.238 1.334-.182 1.576-.157 1.62l.007.008s2.389 1.248 3.153 1.493c1.359.434 2.068 1.357 2.509 1.778a.791.791 0 00.668.211c.359-.057.824-.172.925-.391l-2.771-4.777zm-30.025-9.105c1.862 2.438 0 21.789 0 21.789l-2.121 2.183s-3.686-19.105-4.685-22.096c-.455-1.361-1.117-7.173-1.702-13.107 1.762.787 6.078 2.501 9.619 2.268-.451 1.877-.873 3.616-1.137 5.072-.345 1.889-.427 3.298.026 3.891z" fill="#233862"/><path d="M224.338 176.074l-1.144.619c-.416.146-.759.189-1.18.35-.639.244-1.089.725-1.11.811-.323 1.31-.781 1.227-.781 1.227l-4.596.043c-.22-.11.151-1.035.331-1.209.434-.428 1.734-.213 2.209-1.556.267-.755 1.585-3.102 1.585-3.102l.01-.008c.044-.023.289-.072 1.617.203.686.142.97-1.248.97-1.248.165.042.321.117.457.22.238.169.417.41.509.688.164.476.838 1.162 1.321 1.61.294.272.518.456.518.456s.201.242-.716.896z" fill="#233862"/><path d="M178.141 123.156h-19.516v56.118h19.516v-56.118z" fill="#4A75CB"/><path d="M158.624 123.156h-51.56v56.118h51.56v-56.118z" fill="#739AF0"/><path d="M158.625 154.536v-3.928h-51.56v3.928h51.56z" fill="#AFCDFB"/><path d="M178.141 154.536v-3.928h-19.517v3.928h19.517z" fill="#88B3FF"/><path d="M144.677 122.293s15.806-7.162 26.825-4.44l-2.203 1.47 1.109 2.594s-12.258-3.188-26.051.8l.32-.424z" fill="#4A75CB"/><path d="M141.969 122.018s-2.055-.248-5.118-.668c-8.133-1.117-23.366-3.453-26.099-5.616-4.294-3.395 5.884-17.82 10.29-19.821 4.406-2.002 20.927 26.105 20.927 26.105zm32.227-17.96c.735 3.573-32.53 19.01-32.53 19.01s.606-1.633 1.59-4.192c3.597-9.344 12.261-31.023 15.107-30.723.344.048.678.148.991.295 4.379 1.917 14.166 12.319 14.842 15.61z" fill="#72A9F7"/><path d="M159.079 91.622a33346.56 33346.56 0 01-15.821 27.25c3.597-9.344 12.261-31.023 15.108-30.723.352 0 .696.102.991.294.522.379.844 1.233-.278 3.179zm-22.223 29.73c-8.132-1.117-23.365-3.453-26.098-5.615-1.234-3.471 1.968-3.754 4.295-3.998 2.326-.244 21.803 9.613 21.803 9.613z" fill="#4A75CB"/><path d="M135.765 123.124s1.864-4.234 5.534-4.469c3.833-.245 6.011 4.469 6.011 4.469h-11.545z" fill="#4A75CB"/><path d="M159.452 123.156h-53.95v7.718h53.95v-7.718z" fill="#88B3FF"/><path d="M179.786 123.156h-20.335v7.718h20.335v-7.718z" fill="#3969B7"/><path d="M137.648 122.51s-10.572-3.341-17.698-1.132c-8.218 2.547-7.731 12.67-7.731 12.67l1.934-.792 2.608 1.221s.441-10.719 7.141-12.221c5.795-1.297 13.746.254 13.746.254z" fill="#4A75CB"/><path d="M132.227 123.156h-3.935v56.602h3.935v-56.602z" fill="#AFCDFB"/><path d="M44.631 100.114s14.536 10.632 18.088 10.376c3.553-.256 16.145-8.012 16.145-8.012l-2.664-3.16s-11.401 4.217-13.49 3.054c-2.087-1.163-10.24-11.032-13.663-10.505-3.422.526-6.804 4.421-4.416 8.247zM36.057 180h-4.344c-.55-.297-1.035-.975-1.188-1.986-.212-1.399-1.782-2.159-2.12-3.298-.34-1.139 1.399-2.748 1.399-2.748l.292-.378.302-.388 2.883.678s.072.686.116 1.559c.03.63.047 1.358.012 1.997-.085 1.523.427 3.165 1.783 3.461 1.002.215.96.808.865 1.103zm25.213 0h-9.935c-.478-.582-.301-2.73-.23-3.431l.026-.22s3.392-2.709 3.854-.634c.014.064.032.128.05.191.587 1.94 3.22 2.822 4.74 3.068.994.155 1.36.668 1.495 1.026z" fill="#233862"/><path d="M59.442 124.56s-.515 6.416-1.12 14.129c-.824 10.477-1.813 23.347-1.911 25.785-.17 4.234-.848 11.005-.848 11.005s-1.611 1.609-4.835.931c0 0-2.872-9.667-3.692-19.897l-.038-.505c-.764-10.412-1.95-32.338-1.95-32.338l14.394.89z" fill="#1C468A"/><path d="M59.377 124.638s-.515 6.416-1.12 14.129L46.97 156.592l-.038-.504c-.764-10.413-1.95-32.338-1.95-32.338l14.394.888z" fill="#163560"/><path d="M57.089 125.322s-9.285 23.238-15.391 34.158c-6.106 10.921-8.014 13.968-8.014 13.968s-3.497-1.397-3.815-2.349c0 0 2.334-21.083 6.423-26.222 2.312-2.904 5.025-11.618 5.151-14.667.127-3.048.827-9.078.827-9.078l14.819 4.19z" fill="#1C468A"/><path d="M50.908 92.314c-3.465 1.567-10.068-.745-10.068-.745s3.02-2.888 2.218-8.042l3.055 1.906 2.076 1.29c.074.83.102 1.664.084 2.497 0 .42-.017.89-.042 1.404a8.676 8.676 0 012.677 1.69z" fill="#FFB27D"/><path d="M48.19 86.724c.073.83.101 1.663.083 2.497-2.14-.11-4.927-3.204-4.927-3.204 1.03-.44 1.96-.604 2.768-.587l2.075 1.294z" fill="#ED975D"/><path d="M49.28 86.51s-5.836 1.702-6.837-1.939c-1-3.64-2.436-5.872 1.245-7.115 3.681-1.244 4.79-.052 5.422 1.082.632 1.135 1.662 7.435.17 7.972z" fill="#FFB27D"/><path d="M59.738 122.35c.183 1.678.267 2.723.227 2.765a.595.595 0 01-.358.195c-1.354.144-5.208 1.367-8.589 1.429-2.847.069-5.438-.463-8.259-1.339-.374-.117-1.245-.454-1.274-.852a46.82 46.82 0 01-.11-1.869c-.143-2.779-.386-7.559-1.369-12.989a59.778 59.778 0 01-.456-3.013c-.923-7.408-.237-14.104 2.455-16.667.231-.211 1.872.36 3.384.89 1.395.49 2.72.404 3.934 0l1.378.948c1.685 1.222 3.575 2.932 4.646 5.745.913 2.393 1.809 6.798 2.564 11.383.342 2.08.67 4.177.929 6.174l.009.072c.041.196.068.414.091.612l.14 1.046c.275 2.129.502 4.032.658 5.47zM42.396 84.216s.598-.176.397-1.004c-.2-.828-.33-1.925.378-1.803.708.122.808.66 1.052.311.243-.348.084-1.702 2.107-2.031 2.023-.33 2.936.268 3.833-.26.896-.53.77-1.965.77-1.965s-.207.543-.593.754c0 0 1.321-2.346-.688-3.604-2.01-1.257-3.753-.067-4.803.124-2.312.423-3.802.743-4.38 2.363-.576 1.62.253 5.823 1.927 7.115z" fill="#2B478B"/><path d="M59.739 122.351c-.286.051-5.259.943-8.64-1.28-3.481-2.289-7.559-15.86-7.559-15.86s7.819 8.685 7.97 9.022c.127.289 5.766 2.078 7.565 2.639.28 2.138.507 4.041.663 5.479z" fill="#233862"/><path d="M100.269 78.786l-38.677.552.554 38.611 38.676-.553-.553-38.61z" fill="#ED7D2B"/><path d="M92.013 78.904l-38.676.552.553 38.61 38.677-.552-.554-38.61z" fill="#F99746"/><path d="M58.396 91.318c-.052-3.644 2.451-6.625 6.212-6.678 3.724-.054 6.277 2.82 6.326 6.5.052 3.608-2.45 6.626-6.211 6.68-3.722.052-6.272-2.82-6.327-6.502zm21.336-6.596l4.388-.062-18.475 26.029-4.388.063 18.475-26.03zm-12.664 6.476c-.025-1.73-1.005-3.225-2.48-3.204-1.55.022-2.339 1.506-2.312 3.272.025 1.73 1.005 3.227 2.48 3.206 1.543-.025 2.333-1.547 2.309-3.277l.003.003zm7.378 13.082c-.052-3.644 2.451-6.626 6.212-6.68 3.725-.052 6.277 2.82 6.326 6.502.052 3.607-2.45 6.625-6.212 6.678-3.727.046-6.276-2.826-6.33-6.508l.004.008zm8.666-.123c-.025-1.73-1.005-3.227-2.48-3.206-1.549.022-2.338 1.506-2.312 3.274.026 1.73 1.006 3.225 2.481 3.204 1.543-.029 2.332-1.55 2.308-3.28l.004.008z" fill="#fff"/><path d="M72.81 119.295c-1.305-.025-2.98-.585-3.516-.852a6.09 6.09 0 01-1.37-.887l.137-.857.166-1.026s.101-.015.268-.033a8.69 8.69 0 01.668-.041.872.872 0 00.785-.186c.354-.317 1.009-.531 1.504-.413.496.119 1.558.008 1.591.181.084.417-1.465.341-1.652.603a.31.31 0 00.016.427h.007c.907.913 4.03 1.245 3.905 1.971-.043.275-1.956 1.123-2.508 1.113z" fill="#FFB27D"/><path d="M41.16 100.011s7.157 16.509 10.35 18.082c3.194 1.573 17.785.351 17.785.351l.096-2.818s-12.564-2.484-13.776-4.541c-1.213-2.057-3.25-14.687-6.469-15.959-3.218-1.272-8.109.384-7.986 4.885z" fill="#2B478B"/><path d="M294.146 144.205c-.159.096-.32.189-.483.279-.056.031-.11.061-.166.09a12.877 12.877 0 01-10.06.876 12.847 12.847 0 01-7.396-6.269 12.815 12.815 0 015.713-17.426 12.832 12.832 0 0112.627.686 12.821 12.821 0 015.153 15.187 12.826 12.826 0 01-5.392 6.575l.004.002z" fill="#FFB93E"/><path d="M287.543 145.073a11.725 11.725 0 01-7.75-2.912 11.685 11.685 0 01-1.962-15.341 11.724 11.724 0 0115-3.866 11.702 11.702 0 015.582 6.106 11.674 11.674 0 01.141 8.265 11.697 11.697 0 01-5.369 6.294 11.74 11.74 0 01-5.642 1.454zm-.02-22.683a11.022 11.022 0 00-6.68 2.259 10.99 10.99 0 00-3.937 5.841 10.973 10.973 0 00.421 7.028 10.998 10.998 0 004.605 5.332 11.028 11.028 0 0013.269-1.58 10.975 10.975 0 00-2.075-17.352 11.028 11.028 0 00-5.603-1.528z" fill="#FFA412"/><path d="M287.533 124.776l2.581 5.223 5.774.838-4.178 4.065.987 5.741-5.164-2.711-5.164 2.711.986-5.741-4.178-4.065 5.774-.838 2.582-5.223z" fill="#FFA412"/><path d="M301.846 112.986c-.089.054-.18.11-.271.158l-.095.05a7.264 7.264 0 01-5.465.554 7.254 7.254 0 01-4.165-3.22 7.23 7.23 0 012.722-10.065 5 5 0 01.281-.147 7.228 7.228 0 012.453-.714 7.264 7.264 0 014.676 1.102 7.24 7.24 0 012.96 3.776 7.235 7.235 0 01-3.096 8.506z" fill="#FFB93E"/><path d="M298.125 113.476a6.616 6.616 0 01-4.37-1.644 6.59 6.59 0 01-1.104-8.654 6.606 6.606 0 013.818-2.685 6.61 6.61 0 017.791 3.951 6.586 6.586 0 01.079 4.662 6.6 6.6 0 01-6.214 4.37zm-.012-12.802a6.212 6.212 0 00-5.992 4.572 6.198 6.198 0 002.837 6.976 6.222 6.222 0 007.489-.892 6.193 6.193 0 001.817-3.535 6.19 6.19 0 00-2.99-6.26 6.227 6.227 0 00-3.166-.861h.005z" fill="#FFA412"/><path d="M298.114 102.021l1.457 2.947 3.259.473-2.358 2.294.556 3.24-2.914-1.529-2.915 1.529.557-3.24-2.358-2.294 3.258-.473 1.458-2.947z" fill="#FFA412"/><path d="M177.451 19.172c-.052.065-.11.128-.163.191-.018.022-.038.043-.057.064a5.816 5.816 0 01-10.032-3.136 5.797 5.797 0 01.979-4.094c.135-.193.282-.376.441-.55.056-.064.11-.125.173-.186.062-.06.11-.116.174-.171a5.716 5.716 0 011.488-1.021 5.82 5.82 0 017.073 1.653 5.791 5.791 0 01-.069 7.251l-.007-.001z" fill="#CDE0FB"/><path d="M172.995 20.835a5.301 5.301 0 01-3.715-1.525 5.283 5.283 0 013.571-9.044 5.3 5.3 0 013.758 1.416 5.282 5.282 0 01-3.614 9.153zm.013-10.254a4.96 4.96 0 00-3.681 1.636 4.943 4.943 0 00.312 6.937 4.96 4.96 0 006.952-.208 4.938 4.938 0 00-.105-6.943 4.958 4.958 0 00-3.478-1.422z" fill="#AFCDFB"/><path d="M171.704 11.882l1.888 1.839 2.587-.51-1.168 2.36 1.286 2.3-2.611-.38-1.792 1.93-.445-2.595-2.394-1.106 2.335-1.224.314-2.614z" fill="#AFCDFB"/><path d="M160.463 175.328a8.566 8.566 0 01-.293.343l-.102.11a10.388 10.388 0 01-14.733.56 10.353 10.353 0 01-.663-14.458c.102-.11.205-.219.31-.329a10.318 10.318 0 012.97-2.13 10.39 10.39 0 0112.633 2.952 10.353 10.353 0 01-.122 12.952z" fill="#CDE0FB"/><path d="M152.501 178.296a9.496 9.496 0 01-6.661-2.724 9.467 9.467 0 01-2.83-6.607 9.464 9.464 0 012.631-6.689 9.496 9.496 0 0113.314-.394 9.466 9.466 0 013.023 6.522 9.466 9.466 0 01-2.432 6.763 9.5 9.5 0 01-6.488 3.113c-.186.016-.372.016-.557.016zm.024-18.316c-.174 0-.348 0-.523.015a8.867 8.867 0 00-6.059 2.907 8.837 8.837 0 00.55 12.407 8.87 8.87 0 0012.435-.366 8.84 8.84 0 00-.183-12.418 8.869 8.869 0 00-6.22-2.545z" fill="#AFCDFB"/><path d="M150.197 162.301l3.372 3.286 4.622-.911-2.087 4.217 2.297 4.107-4.663-.679-3.203 3.449-.795-4.636-4.276-1.975 4.172-2.187.561-4.671z" fill="#AFCDFB"/><path d="M4.894 179.124h303.059a.342.342 0 01.343.343v.117a.341.341 0 01-.343.343H4.895a.346.346 0 01-.345-.343v-.117a.345.345 0 01.344-.343z" fill="#2E3552"/><path d="M192.979 108.531s-1.431.978-3.033.818c-1.188-.12-2.356-1.216-2.401-1.288l-.945 1.64s2.162 1.309 4.015.951c.567-.11 1.488-.673 1.904-1.1a1.6 1.6 0 00.46-1.021z" fill="#6BB7BF"/><path d="M192.941 105.113l2.375-.982s-.331 4.929-4.405 6.435c-.001 0 2.577-3.374 2.03-5.453z" fill="#86D1CD"/><path d="M209.606 164.027s1.038 1.173 2.058 1.15c0 0 .136 1.283-.233 1.624 0 0-1.745-.319-2.167-.956-.005 0-.353-1.53.342-1.818z" fill="#F99746"/><path d="M193.333 147.902s-.939-1.138-.926-2.499c.011-1.012.85-2.082.907-2.126l-1.462-.672s-.943 1.926-.497 3.463c.137.47.685 1.209 1.074 1.524.254.208.575.318.904.31z" fill="#CDE0FB"/><path d="M196.226 147.607l1.014 1.929s-4.2.103-5.79-3.225c0-.005 3.053 1.917 4.776 1.296z" fill="#CDE0FB"/></g><defs><clipPath id="clip0_120_3816"><rect width="337" height="180" rx="12" fill="#fff"/></clipPath></defs></svg>