<svg width="28" height="39" fill="none" xmlns="http://www.w3.org/2000/svg"><path d="M8.72 30.683a.61.61 0 01.854.163l.602.889c.13.182.152.421.058.624a.613.613 0 01-1.07.076c-.252-.369-.346-.509-.605-.891a.624.624 0 01.162-.861zm4.778 8.054a.612.612 0 001.004 0c.083-.12 8.374-11.998 11.34-17.07A14.82 14.82 0 0028 14.133C28 6.329 21.732 0 14 0S0 6.328 0 14.133a14.82 14.82 0 002.157 7.534c1.058 1.809 2.883 4.645 5.425 8.429a.61.61 0 00.854.166.624.624 0 00.164-.862c-2.528-3.764-4.34-6.577-5.385-8.364a13.59 13.59 0 01-1.987-6.904C1.228 7.011 6.946 1.238 14 1.238s12.773 5.773 12.773 12.894a13.594 13.594 0 01-1.988 6.904c-2.519 4.307-8.94 13.61-10.785 16.266-.574-.827-1.59-2.296-2.786-4.045a.61.61 0 00-.854-.158.623.623 0 00-.156.862 635.857 635.857 0 003.294 4.776zM17.603 5.43a.612.612 0 00.803-.333.622.622 0 00-.329-.811 10.474 10.474 0 00-2.013-.62.62.62 0 00-.239 1.216 9.21 9.21 0 011.78.548h-.002zM14 3.462c-5.22.001-9.658 3.851-10.444 9.062-.786 5.21 2.315 10.219 7.299 11.789 4.983 1.57 10.356-.77 12.645-5.507 2.289-4.737.808-10.45-3.485-13.45a.61.61 0 00-.855.157.623.623 0 00.155.863c3.797 2.65 5.107 7.702 3.084 11.891-2.024 4.189-6.774 6.258-11.18 4.87-4.407-1.388-7.149-5.817-6.454-10.424C5.46 8.106 9.384 4.702 14 4.702c.34 0 .614-.278.614-.62a.617.617 0 00-.614-.62zm-2.767 8.683h8.885c.251 0 .478.155.57.391a.623.623 0 01-.152.68v2.195c0 .383-.104.758-.301 1.084.192.201.3.47.301.75a.618.618 0 01-.534.613.614.614 0 01-.673-.455l-.62.071-.507.057-7.02.785a.514.514 0 00-.449.533.514.514 0 00.49.494h7.686c.34 0 .614.278.614.62 0 .343-.275.62-.614.62h-1.06a.93.93 0 01-.285 1.09.908.908 0 01-1.117 0 .93.93 0 01-.285-1.09h-2.957a.93.93 0 01-.285 1.092.909.909 0 01-1.118 0 .93.93 0 01-.285-1.092h-.299c-.014 0-.043 0-.058-.002a1.743 1.743 0 01-1.65-1.551 1.752 1.752 0 011.258-1.888L9.556 9.35H8.493a.616.616 0 01-.646.546.617.617 0 01-.578-.617c0-.645.518-1.168 1.157-1.168h1.189a1.155 1.155 0 011.144.987l.474 3.047zm8.03 3.532H11.79l.203 1.302 5.75-.644.83-.093a.825.825 0 00.69-.565zm-7.83-2.292l.165 1.053h7.71v-1.053h-7.874z" fill="#175CFF"/></svg>