<svg width="40" height="40" fill="none" xmlns="http://www.w3.org/2000/svg"><path d="M20.26 39.952a.66.66 0 01-.495 0c-6.695-2.728-11.383-6.784-13.93-12.058-2.017-4.175-2.25-8.234-2.25-10.924V8.004c0-.362.293-.656.655-.656 1.542 0 2.686-.431 3.398-1.283 1.266-1.515.85-3.925.845-3.949a.656.656 0 01.538-.764C9.356 1.297 17.249 0 20.013 0c2.026.087 4.045.289 6.047.606a.655.655 0 01-.179 1.298 53.164 53.164 0 00-5.868-.593c-2.226 0-8.226.926-10.166 1.235.065.999 0 2.913-1.198 4.352-.861 1.034-2.122 1.617-3.754 1.738v8.336c0 3.814 0 15.38 15.118 21.664C35.13 32.353 35.13 20.786 35.13 16.972V8.635c-1.633-.12-2.894-.703-3.754-1.737-1.198-1.439-1.263-3.354-1.198-4.352-.418-.067-1.024-.162-1.741-.271a.656.656 0 11.196-1.296c1.393.21 2.371.374 2.371.374a.655.655 0 01.538.766c-.004.023-.42 2.434.846 3.948.711.85 1.855 1.283 3.397 1.283.362 0 .656.293.656.655v8.967c0 2.69-.234 6.748-2.252 10.924-2.547 5.272-7.234 9.33-13.93 12.056zm12.425-22.084c-.01.586-.038 1.123-.08 1.64a.655.655 0 00.6.707l.055.003c.34 0 .624-.262.652-.602.045-.546.072-1.11.083-1.724a.656.656 0 00-1.31-.023v-.001zM34 10.136a.655.655 0 00-.482-.632 5.824 5.824 0 01-3.011-1.883 6.59 6.59 0 01-1.428-3.61.656.656 0 00-.553-.58c-2.427-.37-6.762-.993-8.514-.993-1.753 0-6.087.622-8.515.992a.655.655 0 00-.553.58 6.597 6.597 0 01-1.428 3.611 5.817 5.817 0 01-3.01 1.883.655.655 0 00-.483.632v6.836c0 3.527 0 14.262 13.724 20.322.168.075.36.075.53 0 7.688-3.395 12.196-8.707 13.397-15.788a.655.655 0 00-1.292-.22c-1.11 6.54-5.27 11.481-12.37 14.692C7.333 30.242 7.335 20.266 7.335 16.972v-6.353a7.114 7.114 0 003.19-2.16 7.708 7.708 0 001.658-3.807c2.134-.32 6.233-.904 7.83-.904 1.596 0 5.696.583 7.829.902a7.708 7.708 0 001.659 3.808 7.113 7.113 0 003.19 2.16v5.008a.656.656 0 001.31 0v-5.49zM12.911 19.5c.203 0 .398.08.541.224l3.553 3.553a.655.655 0 00.927 0l2.193-2.191a.655.655 0 10-.927-.927l-1.728 1.728-3.09-3.089a2.076 2.076 0 00-2.936 2.936l4.557 4.557c.81.811 2.125.811 2.936 0l9.645-9.645a2.076 2.076 0 00-2.936-2.937l-3.043 3.043a.655.655 0 10.927.926l3.043-3.043a.783.783 0 011.083 0 .766.766 0 010 1.082l-9.646 9.647a.786.786 0 01-1.083 0l-4.557-4.558a.767.767 0 01.541-1.306zm8.587.21l.637-.636a.655.655 0 10-.927-.927l-.637.637a.656.656 0 00.927.927z" fill="#175CFF"/></svg>