<svg width="46" height="111" fill="none" xmlns="http://www.w3.org/2000/svg"><path d="M7.03 38.78c0 6.832 10.621 12.006 3.846 12.006-3.089 0-4.78 1.187-6.936-.713C1.366 47.805-.712 43.089.232 38.78c1.312-5.99 4.608-10.287 14.774-12.84 6.776 0-7.976 6.009-7.976 12.84z" fill="url(#paint0_linear_68_17171)"/><path d="M38.97 38.78c0 6.832-2.57 10.168-2.57 12.992 0 .471 3.504.201 5.66-1.7 2.574-2.267 4.652-6.983 3.708-11.292-1.312-5.99-4.608-10.287-14.774-12.84-6.776 0 7.976 6.009 7.976 12.84z" fill="url(#paint1_linear_68_17171)"/><path d="M13.077 28.676a.325.325 0 00.381.375c.789-.153 1.614-.314 2.438-.314 1.989 0 3.881.414 5.597 1.162.77.335 1.154.503 1.445.503.29 0 .675-.168 1.444-.503a13.974 13.974 0 015.597-1.162c.665 0 1.33.15 1.975.295l.253.057c.428.094.795-.278.722-.713-.06-.356.178-.695.535-.725a7.73 7.73 0 013.31.444 7.776 7.776 0 013.26 2.28 7.849 7.849 0 011.818 4.29c.034.335.112.666.262.966l.456.914a14.158 14.158 0 011.492 6.349c0 2.909-.45 5.117-1.415 6.351-.808 1.033-3.85 4.12-9.053 2.012-3.132-1.269-7.461-5.27-9.506-7.204a.166.166 0 01.004-.245l4.676-4.242a.165.165 0 01.154-.038 26.128 26.128 0 016.427 2.7 17.726 17.726 0 01.93.592l.006.004.046.032.003.003a.668.668 0 001.02-.604l-.22-3.926a.667.667 0 00-.7-.631.668.668 0 00-.628.706l.142 2.543a26.682 26.682 0 00-2.853-1.445c-2.52-1.095-6.072-2.197-10.17-2.197-4.099 0-7.646 1.103-10.162 2.199a26.527 26.527 0 00-2.866 1.455l.142-2.537a.668.668 0 00-.627-.706.667.667 0 00-.702.63l-.22 3.927a.67.67 0 00.628.706.66.66 0 00.45-.144l.02-.014.186-.127c.167-.11.416-.271.742-.466a25.03 25.03 0 012.803-1.43c2.398-1.045 5.753-2.083 9.606-2.083 1.373 0 2.683.131 3.91.348a.166.166 0 01.08.287l-8.328 7.555v.003c-2.037 1.737-4.424 3.564-6.318 4.353-5.063 2.112-8.391-.998-9.061-2.005-.821-1.234-1.395-3.453-1.395-6.362 0-2.283.537-4.44 1.492-6.349.287-.575.51-1.018.672-1.34.141-.28.225-.585.271-.896a7.865 7.865 0 011.774-3.935 7.775 7.775 0 013.26-2.28 7.729 7.729 0 013.375-.438c.32.03.535.335.481.655l-.06.365z" fill="url(#paint2_linear_68_17171)"/><path d="M17.126 25.066c.328-.166 1.133-.724 1.133-2.793 0-2.62-2.686-4.54-2.686-5.937 0-.698.518-1.397 1.38-1.397v-2.444c0-1.048.19-2.268 1.094-3.318.624-.68 1.651-1.9 4.945-1.9 3.294 0 4.323 1.22 4.947 1.901.908 1.05 1.092 2.27 1.093 3.317v2.444c.861 0 1.38.699 1.38 1.397 0 1.397-2.687 3.318-2.687 5.937 0 2.127.785 2.62 1.109 2.785 1.184.603 2.92 1.073 4.427 1.514.655.568 2.382 2.856 2.382 2.856l-7.955 4.155h-9.392l-8.602-4.704s3.044-1.916 3.786-2.527c1.068-.319 2.573-.743 3.646-1.286z" fill="url(#paint3_linear_68_17171)"/><path d="M21.238 7.549a.135.135 0 01-.014-.13c.087-.196.37-.725.404-.776.122-.183.478-.574 1.306-.574.826 0 1.233.39 1.355.574.034.05.287.555.373.758a.14.14 0 01-.023.144.231.231 0 00-.046.15.792.792 0 01-.79.81h-1.742a.792.792 0 01-.79-.822.231.231 0 00-.033-.134z" fill="url(#paint4_linear_68_17171)"/><path d="M31.95 5.006a.259.259 0 01-.014.236c-1.113 1.962-3.474 1.488-4.35.976-1.357-1.236-2.758-.878-3.5-.878-1.379 0-2.497 1.06-2.497 1.06a3.132 3.132 0 01-.185-.202c-.496-.64-1.119-1.559-1.047-2.923C20.458 1.33 22.038 0 23.804 0c3.975 0 3.917 4.574 7.956 4.899.083.007.17.057.19.107z" fill="url(#paint5_linear_68_17171)"/><path d="M27.586 6.218c-1.764-1.032-2.891-.302-3.595.347-.74.683-1.361.743-2.228 0a2.5 2.5 0 01-.875-1.904c0-1.38 1.112-2.5 2.484-2.5 1.372 0 4.307 2.637 4.214 4.057z" fill="url(#paint6_linear_68_17171)"/><path d="M3.848 40.597v9.287s-.411-.31-.553-.5C1.31 46.719.782 42.527 1.553 38.293c1.118-6.139 5.867-10.914 10.375-10.66l-4.748 3.11-3.332 9.855z" fill="url(#paint7_linear_68_17171)"/><path d="M42.05 40.587v9.288s.412-.31.553-.5c1.986-2.667 2.514-6.858 1.743-11.093-1.118-6.138-5.867-10.913-10.375-10.66l4.748 3.111 3.331 9.854z" fill="url(#paint8_linear_68_17171)"/><path d="M8.585 53.713a.106.106 0 00-.1.132c.222.861 1.463 5.96 1.665 12.896.002.071.072.12.138.098l3.801-1.303a.102.102 0 01.136.09c.054.89.293 6.12-.947 12.248-.016.08.06.148.136.122l4.254-1.456a.102.102 0 01.137.092c.024.993.12 7.222-1.054 13.668a.105.105 0 00.137.119l4.8-1.655c.07-.024.142.03.14.105-.062 1.498-.398 13.497 4.163 22.077.052.097.198.054.194-.057-.578-15.84 5.394-28.973 6.281-30.83.04-.086-.046-.171-.135-.14l-2.88 1.005a.103.103 0 01-.133-.125c.347-1.225 2.446-8.252 7.346-17.344.045-.085-.035-.184-.126-.152l-3.964 1.39a.104.104 0 01-.133-.133c1.785-5.205 4.297-9.862 4.788-10.752a.107.107 0 00-.091-.158 5.391 5.391 0 01-.435-.028c-1.34-.17-2.356-.387-3.445-.889-3.88-1.874-7.55-5.307-9.828-7.508l-.366-.35a.104.104 0 00-.142-.001c-.22.2-.456.419-.706.65-1.988 1.84-4.945 4.593-8.575 6.74-.677.4-1.137.52-2.352.988-.761.247-1.464.424-2.704.461z" fill="url(#paint9_linear_68_17171)"/><defs><linearGradient id="paint0_linear_68_17171" x1="24.124" y1="1.529" x2="24.519" y2="111.006" gradientUnits="userSpaceOnUse"><stop stop-color="#1862FF"/><stop offset=".067" stop-color="#1863FF"/><stop offset=".133" stop-color="#1766FF"/><stop offset=".2" stop-color="#166BFF"/><stop offset=".267" stop-color="#1473FF"/><stop offset=".333" stop-color="#127CFF"/><stop offset=".4" stop-color="#1087FF"/><stop offset=".467" stop-color="#0D94FF"/><stop offset=".533" stop-color="#0BA0FF"/><stop offset=".6" stop-color="#08ADFF"/><stop offset=".667" stop-color="#06B8FF"/><stop offset=".733" stop-color="#04C2FF"/><stop offset=".8" stop-color="#02C9FF"/><stop offset=".867" stop-color="#01CEFF"/><stop offset=".933" stop-color="#00D1FF"/><stop offset="1" stop-color="#00D2FF"/></linearGradient><linearGradient id="paint1_linear_68_17171" x1="24.124" y1="1.529" x2="24.519" y2="111.006" gradientUnits="userSpaceOnUse"><stop stop-color="#1862FF"/><stop offset=".067" stop-color="#1863FF"/><stop offset=".133" stop-color="#1766FF"/><stop offset=".2" stop-color="#166BFF"/><stop offset=".267" stop-color="#1473FF"/><stop offset=".333" stop-color="#127CFF"/><stop offset=".4" stop-color="#1087FF"/><stop offset=".467" stop-color="#0D94FF"/><stop offset=".533" stop-color="#0BA0FF"/><stop offset=".6" stop-color="#08ADFF"/><stop offset=".667" stop-color="#06B8FF"/><stop offset=".733" stop-color="#04C2FF"/><stop offset=".8" stop-color="#02C9FF"/><stop offset=".867" stop-color="#01CEFF"/><stop offset=".933" stop-color="#00D1FF"/><stop offset="1" stop-color="#00D2FF"/></linearGradient><linearGradient id="paint2_linear_68_17171" x1="24.124" y1="1.529" x2="24.519" y2="111.006" gradientUnits="userSpaceOnUse"><stop stop-color="#1862FF"/><stop offset=".067" stop-color="#1863FF"/><stop offset=".133" stop-color="#1766FF"/><stop offset=".2" stop-color="#166BFF"/><stop offset=".267" stop-color="#1473FF"/><stop offset=".333" stop-color="#127CFF"/><stop offset=".4" stop-color="#1087FF"/><stop offset=".467" stop-color="#0D94FF"/><stop offset=".533" stop-color="#0BA0FF"/><stop offset=".6" stop-color="#08ADFF"/><stop offset=".667" stop-color="#06B8FF"/><stop offset=".733" stop-color="#04C2FF"/><stop offset=".8" stop-color="#02C9FF"/><stop offset=".867" stop-color="#01CEFF"/><stop offset=".933" stop-color="#00D1FF"/><stop offset="1" stop-color="#00D2FF"/></linearGradient><linearGradient id="paint3_linear_68_17171" x1="24.124" y1="1.529" x2="24.519" y2="111.006" gradientUnits="userSpaceOnUse"><stop stop-color="#1862FF"/><stop offset=".067" stop-color="#1863FF"/><stop offset=".133" stop-color="#1766FF"/><stop offset=".2" stop-color="#166BFF"/><stop offset=".267" stop-color="#1473FF"/><stop offset=".333" stop-color="#127CFF"/><stop offset=".4" stop-color="#1087FF"/><stop offset=".467" stop-color="#0D94FF"/><stop offset=".533" stop-color="#0BA0FF"/><stop offset=".6" stop-color="#08ADFF"/><stop offset=".667" stop-color="#06B8FF"/><stop offset=".733" stop-color="#04C2FF"/><stop offset=".8" stop-color="#02C9FF"/><stop offset=".867" stop-color="#01CEFF"/><stop offset=".933" stop-color="#00D1FF"/><stop offset="1" stop-color="#00D2FF"/></linearGradient><linearGradient id="paint4_linear_68_17171" x1="24.124" y1="1.529" x2="24.519" y2="111.006" gradientUnits="userSpaceOnUse"><stop stop-color="#1862FF"/><stop offset=".067" stop-color="#1863FF"/><stop offset=".133" stop-color="#1766FF"/><stop offset=".2" stop-color="#166BFF"/><stop offset=".267" stop-color="#1473FF"/><stop offset=".333" stop-color="#127CFF"/><stop offset=".4" stop-color="#1087FF"/><stop offset=".467" stop-color="#0D94FF"/><stop offset=".533" stop-color="#0BA0FF"/><stop offset=".6" stop-color="#08ADFF"/><stop offset=".667" stop-color="#06B8FF"/><stop offset=".733" stop-color="#04C2FF"/><stop offset=".8" stop-color="#02C9FF"/><stop offset=".867" stop-color="#01CEFF"/><stop offset=".933" stop-color="#00D1FF"/><stop offset="1" stop-color="#00D2FF"/></linearGradient><linearGradient id="paint5_linear_68_17171" x1="24.124" y1="1.529" x2="24.519" y2="111.006" gradientUnits="userSpaceOnUse"><stop stop-color="#1862FF"/><stop offset=".067" stop-color="#1863FF"/><stop offset=".133" stop-color="#1766FF"/><stop offset=".2" stop-color="#166BFF"/><stop offset=".267" stop-color="#1473FF"/><stop offset=".333" stop-color="#127CFF"/><stop offset=".4" stop-color="#1087FF"/><stop offset=".467" stop-color="#0D94FF"/><stop offset=".533" stop-color="#0BA0FF"/><stop offset=".6" stop-color="#08ADFF"/><stop offset=".667" stop-color="#06B8FF"/><stop offset=".733" stop-color="#04C2FF"/><stop offset=".8" stop-color="#02C9FF"/><stop offset=".867" stop-color="#01CEFF"/><stop offset=".933" stop-color="#00D1FF"/><stop offset="1" stop-color="#00D2FF"/></linearGradient><linearGradient id="paint6_linear_68_17171" x1="24.124" y1="1.529" x2="24.519" y2="111.006" gradientUnits="userSpaceOnUse"><stop stop-color="#1862FF"/><stop offset=".067" stop-color="#1863FF"/><stop offset=".133" stop-color="#1766FF"/><stop offset=".2" stop-color="#166BFF"/><stop offset=".267" stop-color="#1473FF"/><stop offset=".333" stop-color="#127CFF"/><stop offset=".4" stop-color="#1087FF"/><stop offset=".467" stop-color="#0D94FF"/><stop offset=".533" stop-color="#0BA0FF"/><stop offset=".6" stop-color="#08ADFF"/><stop offset=".667" stop-color="#06B8FF"/><stop offset=".733" stop-color="#04C2FF"/><stop offset=".8" stop-color="#02C9FF"/><stop offset=".867" stop-color="#01CEFF"/><stop offset=".933" stop-color="#00D1FF"/><stop offset="1" stop-color="#00D2FF"/></linearGradient><linearGradient id="paint7_linear_68_17171" x1="24.124" y1="1.529" x2="24.519" y2="111.006" gradientUnits="userSpaceOnUse"><stop stop-color="#1862FF"/><stop offset=".067" stop-color="#1863FF"/><stop offset=".133" stop-color="#1766FF"/><stop offset=".2" stop-color="#166BFF"/><stop offset=".267" stop-color="#1473FF"/><stop offset=".333" stop-color="#127CFF"/><stop offset=".4" stop-color="#1087FF"/><stop offset=".467" stop-color="#0D94FF"/><stop offset=".533" stop-color="#0BA0FF"/><stop offset=".6" stop-color="#08ADFF"/><stop offset=".667" stop-color="#06B8FF"/><stop offset=".733" stop-color="#04C2FF"/><stop offset=".8" stop-color="#02C9FF"/><stop offset=".867" stop-color="#01CEFF"/><stop offset=".933" stop-color="#00D1FF"/><stop offset="1" stop-color="#00D2FF"/></linearGradient><linearGradient id="paint8_linear_68_17171" x1="24.124" y1="1.529" x2="24.519" y2="111.006" gradientUnits="userSpaceOnUse"><stop stop-color="#1862FF"/><stop offset=".067" stop-color="#1863FF"/><stop offset=".133" stop-color="#1766FF"/><stop offset=".2" stop-color="#166BFF"/><stop offset=".267" stop-color="#1473FF"/><stop offset=".333" stop-color="#127CFF"/><stop offset=".4" stop-color="#1087FF"/><stop offset=".467" stop-color="#0D94FF"/><stop offset=".533" stop-color="#0BA0FF"/><stop offset=".6" stop-color="#08ADFF"/><stop offset=".667" stop-color="#06B8FF"/><stop offset=".733" stop-color="#04C2FF"/><stop offset=".8" stop-color="#02C9FF"/><stop offset=".867" stop-color="#01CEFF"/><stop offset=".933" stop-color="#00D1FF"/><stop offset="1" stop-color="#00D2FF"/></linearGradient><linearGradient id="paint9_linear_68_17171" x1="24.124" y1="1.529" x2="24.519" y2="111.006" gradientUnits="userSpaceOnUse"><stop stop-color="#1862FF"/><stop offset=".067" stop-color="#1863FF"/><stop offset=".133" stop-color="#1766FF"/><stop offset=".2" stop-color="#166BFF"/><stop offset=".267" stop-color="#1473FF"/><stop offset=".333" stop-color="#127CFF"/><stop offset=".4" stop-color="#1087FF"/><stop offset=".467" stop-color="#0D94FF"/><stop offset=".533" stop-color="#0BA0FF"/><stop offset=".6" stop-color="#08ADFF"/><stop offset=".667" stop-color="#06B8FF"/><stop offset=".733" stop-color="#04C2FF"/><stop offset=".8" stop-color="#02C9FF"/><stop offset=".867" stop-color="#01CEFF"/><stop offset=".933" stop-color="#00D1FF"/><stop offset="1" stop-color="#00D2FF"/></linearGradient></defs></svg>