<svg width="40" height="40" fill="none" xmlns="http://www.w3.org/2000/svg"><path d="M29.727 19.353c0-.655-.304-1.273-.827-1.68a2.11 2.11 0 00.317-2.288 2.19 2.19 0 00-1.986-1.243h-4.864l.201-.52a7.05 7.05 0 00.477-2.555v-.078c0-.664-.275-1.3-.76-1.761a2.536 2.536 0 00-1.82-.692c-1.37.072-2.441 1.187-2.43 2.532 0 .636-.912 2.1-1.652 3.075h-5.485a.619.619 0 00-.625.613v12.259c0 .338.28.612.625.612H20a.619.619 0 00.625-.612.619.619 0 00-.625-.613h-2.683V14.963c.53-.686 1.969-2.667 1.969-3.895A1.291 1.291 0 0120.5 9.76c.34-.01.67.115.913.347.244.232.382.55.382.883v.078a5.87 5.87 0 01-.396 2.12l-.521 1.352a.602.602 0 00.07.565.63.63 0 00.514.265h5.768a.93.93 0 01.939.92.93.93 0 01-.939.92.619.619 0 00-.625.612c0 .338.28.613.625.613h.308a.93.93 0 01.94.92.93.93 0 01-.94.92h-.308a.619.619 0 00-.625.612c0 .338.28.613.625.613a.93.93 0 01.939.92.93.93 0 01-.939.92h-.978a.619.619 0 00-.625.612c0 .338.28.612.625.612a.93.93 0 01.939.92.93.93 0 01-.939.92h-4.124a.619.619 0 00-.625.612c0 .339.28.613.625.613h4.124c.79 0 1.52-.416 1.908-1.09a2.107 2.107 0 00-.034-2.165 2.155 2.155 0 001.239-1.482 2.113 2.113 0 00-.466-1.86 2.128 2.128 0 00.828-1.68zm-18.204-3.985h4.544v11.034h-4.544V15.368zm1.841 7.483c-.898 0-1.626.713-1.626 1.594 0 .88.728 1.593 1.626 1.593.898 0 1.627-.713 1.627-1.593-.001-.88-.729-1.593-1.627-1.594zm0 1.962a.372.372 0 01-.376-.369c0-.203.168-.369.377-.368.208 0 .376.165.376.369a.373.373 0 01-.377.368zm26.007-6.271a2.68 2.68 0 000 2.916c.577.888.767 1.966.528 2.993a3.945 3.945 0 01-1.8 2.471 2.708 2.708 0 00-1.292 2.628 3.884 3.884 0 01-.849 2.92 4.045 4.045 0 01-2.717 1.462 2.77 2.77 0 00-2.327 1.817 3.969 3.969 0 01-2.058 2.27 4.098 4.098 0 01-3.095.162 2.823 2.823 0 00-2.901.649A4.063 4.063 0 0120 40a4.063 4.063 0 01-2.86-1.17 2.821 2.821 0 00-2.902-.65 4.096 4.096 0 01-3.094-.161 3.968 3.968 0 01-2.059-2.27A2.77 2.77 0 006.76 33.93a4.045 4.045 0 01-2.717-1.462 3.886 3.886 0 01-.85-2.92 2.708 2.708 0 00-1.29-2.628 3.944 3.944 0 01-1.8-2.471 3.876 3.876 0 01.527-2.992 2.68 2.68 0 000-2.916 3.875 3.875 0 01-.53-2.992 3.944 3.944 0 011.8-2.471.632.632 0 01.861.197.606.606 0 01-.201.844 2.717 2.717 0 00-1.241 1.703 2.67 2.67 0 00.363 2.063 3.888 3.888 0 010 4.23 2.67 2.67 0 00-.363 2.063 2.718 2.718 0 001.24 1.704 3.929 3.929 0 011.874 3.812 2.68 2.68 0 00.585 2.013c.462.568 1.137.93 1.873 1.007 1.551.166 2.866 1.194 3.376 2.639a2.73 2.73 0 001.418 1.564 2.823 2.823 0 002.133.112 4.094 4.094 0 014.21.941 2.8 2.8 0 001.971.807 2.8 2.8 0 001.971-.807 4.094 4.094 0 014.21-.941 2.823 2.823 0 002.133-.112 2.736 2.736 0 001.419-1.564c.51-1.445 1.824-2.473 3.375-2.639a2.787 2.787 0 001.873-1.007 2.677 2.677 0 00.585-2.013 3.93 3.93 0 011.874-3.812 2.72 2.72 0 001.24-1.704 2.67 2.67 0 00-.363-2.063 3.888 3.888 0 010-4.23 2.67 2.67 0 00.364-2.063 2.718 2.718 0 00-1.241-1.704 3.928 3.928 0 01-1.874-3.812 2.678 2.678 0 00-.586-2.013 2.787 2.787 0 00-1.872-1.008c-1.551-.166-2.866-1.193-3.376-2.638a2.736 2.736 0 00-1.419-1.565 2.823 2.823 0 00-2.132-.11 4.095 4.095 0 01-4.21-.942A2.8 2.8 0 0020 1.223a2.8 2.8 0 00-1.971.807 4.095 4.095 0 01-4.21.941 2.823 2.823 0 00-2.133.111 2.736 2.736 0 00-1.418 1.565c-.51 1.445-1.824 2.472-3.375 2.639a2.758 2.758 0 00-2.086 1.31.627.627 0 01-.551.324.627.627 0 01-.551-.324.602.602 0 01.03-.628 3.998 3.998 0 013.027-1.9A2.77 2.77 0 009.085 4.25a3.97 3.97 0 012.06-2.27 4.097 4.097 0 013.094-.162 2.822 2.822 0 002.901-.649A4.063 4.063 0 0120 0a4.06 4.06 0 012.86 1.17c.758.748 1.888 1 2.902.65a4.098 4.098 0 013.094.16 3.97 3.97 0 012.058 2.271 2.77 2.77 0 002.327 1.818 4.045 4.045 0 012.717 1.462c.67.823.976 1.875.85 2.92a2.709 2.709 0 001.29 2.628A3.944 3.944 0 0139.9 15.55a3.874 3.874 0 01-.528 2.993v-.001zM3.062 11.649c.136-.385.18-.795.13-1.199a.615.615 0 01.548-.68c.343-.04.653.2.694.536.07.587.006 1.181-.189 1.74a.629.629 0 01-.794.382.61.61 0 01-.389-.779zm29.178 1.778a13.684 13.684 0 00-1.426-2.071.604.604 0 01.088-.862.634.634 0 01.88.086 14.964 14.964 0 011.552 2.255.602.602 0 01-.009.615.628.628 0 01-.55.296.627.627 0 01-.536-.322l.002.003zm-2.65-4.205a.633.633 0 01-.878.096A13.979 13.979 0 0020 6.326c-6.002.007-11.326 3.779-13.214 9.362-1.889 5.583.083 11.723 4.893 15.242 4.81 3.518 11.378 3.624 16.303.262 4.926-3.362 7.102-9.436 5.401-15.077a.61.61 0 01.425-.751.627.627 0 01.774.404c2.137 7.058-1.303 14.587-8.099 17.727-6.795 3.139-14.912.947-19.107-5.16-4.196-6.107-3.215-14.3 2.31-19.29 5.524-4.989 13.938-5.279 19.807-.684.27.212.313.597.098.861z" fill="#175CFF"/></svg>