<svg xmlns="http://www.w3.org/2000/svg"><symbol id="icon-apple" viewBox="0 0 13 16"><path d="M6.75 4.815c-.585 0-1.489-.664-2.44-.64-1.257.016-2.409.728-3.057 1.856-1.304 2.264-.336 5.608.936 7.448.624.896 1.36 1.904 2.336 1.872.936-.04 1.288-.608 2.424-.608 1.128 0 1.448.608 2.44.584 1.008-.016 1.648-.912 2.264-1.816a8.04 8.04 0 001.024-2.104c-.024-.008-1.96-.752-1.984-2.992-.016-1.872 1.528-2.768 1.6-2.808-.88-1.288-2.232-1.432-2.704-1.464-1.232-.096-2.264.672-2.84.672zm2.08-1.888c.52-.624.863-1.496.767-2.36-.744.032-1.64.496-2.176 1.12-.48.552-.896 1.44-.784 2.288.824.064 1.672-.424 2.192-1.048z" fill="#97A2AC"/></symbol><symbol id="icon-burger" viewBox="0 0 11 8"><rect x=".021" width="10" height="2" rx="1" fill="#97A2AC"/><rect x=".021" y="3" width="10" height="2" rx="1" fill="#97A2AC"/><rect x=".021" y="6" width="10" height="2" rx="1" fill="#97A2AC"/></symbol><symbol id="icon-cart" viewBox="0 0 30 29"><g clip-path="url(#clip0)"><path d="M14.492 26.492a2.492 2.492 0 11-4.983 0 2.492 2.492 0 014.983 0zm7.596-2.491a2.491 2.491 0 100 4.982 2.491 2.491 0 000-4.982zm7.734-11.696l-3.066 9.111s-.253 1.353-1.547 1.353H9.73c-1.543 0-1.607-1.695-1.607-1.695S6.476 8.87 6.394 8.134c-.08-.739-1.023-1.284-1.023-1.284L1.314 4.955c-2.22-1.162-1.211-3.372 0-2.864 5.144 2.426 7.534 3.621 7.687 4.577.156.958.426 3.264.426 3.264v.015c.032-.01.054-.015.054-.015h18.96c2.29 0 1.38 2.377 1.38 2.373zm-4.435 5.073l-.031.002H10.348l.31 2.453h14l.73-2.455zm1.462-4.945H9.727l.33 2.62h16.018l.774-2.62z" fill="#175CFF"/></g></symbol><symbol id="icon-cart2" viewBox="0 0 30 30"><g clip-path="url(#clip0)"><path d="M14.492 27.492a2.492 2.492 0 11-4.983 0 2.492 2.492 0 014.983 0zm7.596-2.491a2.491 2.491 0 100 4.982 2.491 2.491 0 000-4.982zm7.734-11.696l-3.066 9.111s-.253 1.353-1.547 1.353H9.73c-1.543 0-1.607-1.695-1.607-1.695S6.476 9.87 6.394 9.134c-.08-.739-1.023-1.284-1.023-1.284L1.314 5.955c-2.22-1.162-1.211-3.372 0-2.864 5.144 2.426 7.534 3.621 7.687 4.577.156.958.426 3.264.426 3.264v.015c.032-.01.054-.015.054-.015h18.96c2.29 0 1.38 2.377 1.38 2.373zm-4.435 5.073l-.031.002H10.348l.31 2.453h14l.73-2.455zm1.462-4.945H9.727l.33 2.62h16.018l.774-2.62z" fill="#175CFF"/></g><circle cx="26.25" cy="3.75" r="3.75" fill="#FF5E31"/></symbol><symbol id="icon-cashback" viewBox="0 0 40 40"><g clip-path="url(#clip0)" fill="#175CFF"><path d="M30.994 32.473H26.4a2.015 2.015 0 00-1.815-2.882h-2.37a4.598 4.598 0 01-1.665-.31l-1.815-.702a5.734 5.734 0 00-2.076-.388h-3.636v-.13c0-.736-.598-1.334-1.333-1.334H4.103a.953.953 0 00-.952.952v2.241a.571.571 0 101.142 0v-2.05h7.397a.19.19 0 01.19.19v9.607a.19.19 0 01-.19.19H4.293v-4.993a.571.571 0 10-1.142 0v5.184c0 .525.427.952.952.952h7.587c.735 0 1.333-.598 1.333-1.333v-.984h17.971c1.16 0 2.105-.944 2.105-2.105 0-1.16-.944-2.105-2.105-2.105zm0 3.067H13.023v-6.206h3.636c.571 0 1.131.104 1.664.31l1.814.702a5.736 5.736 0 002.077.387h2.372a.87.87 0 010 1.74h-3.34a.571.571 0 100 1.143h9.748a.963.963 0 010 1.924zM22.65 11.02a.74.74 0 01.74.74.571.571 0 101.143 0c0-.84-.551-1.552-1.31-1.795v-.693a.571.571 0 10-1.143 0v.693a1.886 1.886 0 00-1.312 1.794 1.885 1.885 0 001.925 1.881.74.74 0 11-.782.739.571.571 0 10-1.143 0c0 .839.552 1.551 1.312 1.794v.693a.571.571 0 101.142 0v-.693a1.886 1.886 0 001.311-1.794 1.885 1.885 0 00-1.924-1.881.74.74 0 01.042-1.479z"/><path d="M25.908 8.268a.571.571 0 00-.229-.775 6.354 6.354 0 00-3.028-.768 6.352 6.352 0 00-6.345 6.344 6.352 6.352 0 006.345 6.344 6.352 6.352 0 006.344-6.344 6.304 6.304 0 00-1.167-3.668.571.571 0 00-.932.662 5.16 5.16 0 01.957 3.006 5.208 5.208 0 01-5.202 5.202 5.208 5.208 0 01-5.202-5.202 5.208 5.208 0 017.684-4.573.571.571 0 00.775-.228zM11 8.5a.57.57 0 00.755-.286 12.022 12.022 0 0111.03-7.071c2.74.018 5.31.925 7.43 2.622a.571.571 0 10.715-.892C28.607 1.013 25.793.02 22.791 0h-.088a13.166 13.166 0 00-11.99 7.744.571.571 0 00.285.756z"/><path d="M13.304 21.07c.767 0 1.447-.4 1.819-1.07a2.064 2.064 0 00-.053-2.118 8.962 8.962 0 01-1.347-4.546c-.05-2.397.86-4.682 2.563-6.432 1.702-1.75 3.957-2.721 6.352-2.738a8.931 8.931 0 016.393 2.608 8.92 8.92 0 012.653 6.373 8.939 8.939 0 01-8.41 8.963v-.526a.867.867 0 00-.506-.793.868.868 0 00-.933.122l-3.064 2.568a.95.95 0 000 1.46l3.064 2.568a.87.87 0 00.933.122.868.868 0 00.506-.794v-.555a13.071 13.071 0 008.797-3.912 13.076 13.076 0 003.778-9.135 13.192 13.192 0 00-2.944-8.403.571.571 0 00-.886.721 12.047 12.047 0 012.687 7.674 11.943 11.943 0 01-11.722 11.92.88.88 0 00-.853.876v.243L19.68 24.21l2.451-2.055v.234a.88.88 0 00.904.875 10.068 10.068 0 006.935-3.07 10.071 10.071 0 002.856-7.048c0-2.718-1.062-5.27-2.99-7.184a10.05 10.05 0 00-7.206-2.94c-2.703.019-5.247 1.114-7.163 3.084-1.917 1.971-2.942 4.547-2.886 7.253a10.106 10.106 0 001.518 5.125.935.935 0 01.025.96.926.926 0 01-.82.481.933.933 0 01-.797-.44 11.971 11.971 0 01-1.81-6.34c0-.818.084-1.635.247-2.429a.571.571 0 10-1.12-.23c-.178.87-.269 1.764-.269 2.66 0 2.461.686 4.862 1.982 6.943a2.07 2.07 0 001.767.98z"/></g></symbol><symbol id="icon-catalog-menu" viewBox="0 0 10 10"><path fill-rule="evenodd" clip-rule="evenodd" d="M0 1.667a1.667 1.667 0 103.333 0 1.667 1.667 0 00-3.333 0zm6.667 0a1.667 1.667 0 103.333 0 1.667 1.667 0 00-3.333 0zM8.333 10a1.667 1.667 0 110-3.333 1.667 1.667 0 010 3.333zM0 8.333a1.667 1.667 0 103.333 0 1.667 1.667 0 00-3.333 0z" fill="#fff"/></symbol><symbol id="icon-chart" viewBox="0 0 17 17"><path d="M2.362 8.316h1.374v6.006H2.362V8.316zm10.993-2.669h1.374v8.675h-1.374V5.647zM7.859 1.644h1.374v12.678H7.859V1.644z" fill="#97A2AC"/></symbol><symbol id="icon-check" viewBox="0 0 40 38"><path d="M0 8.891V7.509a.64.64 0 011.283 0V8.89A.64.64 0 010 8.89zm4.513 21.65h5.517a.64.64 0 100-1.28H4.513a.64.64 0 100 1.28zm0-2.602a.64.64 0 00.641-.64v-2.513a.64.64 0 00-1.282 0V27.3c0 .354.286.64.64.64zm3.4-.64v-2.513a.64.64 0 00-1.283 0V27.3a.64.64 0 001.282 0zm2.758 0v-2.513a.64.64 0 00-1.283 0V27.3a.64.64 0 001.283 0zm28.687-6.34a1.836 1.836 0 01-1.472-.532c-.544-.646-.361-1.723-.36-1.731a.638.638 0 00-.551-.751l-2.633-.325V.64A.64.64 0 0033.7 0H.642A.64.64 0 000 .64v4.44a.64.64 0 001.283 0v-3.8h10.286v9.466a.638.638 0 00.965.552l4.637-2.707 4.636 2.707a.642.642 0 00.966-.552V6.488a.64.64 0 00-1.283 0v3.144l-3.994-2.333a.642.642 0 00-.648 0l-3.994 2.333V1.279h8.636v3.016a.64.64 0 001.283 0V1.28h10.286v16.183l-1.575-.194a.632.632 0 00-.157 0l-1.608.198a.64.64 0 10.157 1.27l1.53-.189 4.808.592c-.02.758.22 1.5.682 2.102a2.784 2.784 0 001.82.953v3.915c0 1.715-.208 4.272-2.008 6.66a.642.642 0 001.026.767c2.03-2.693 2.266-5.53 2.266-7.428v-4.51a.64.64 0 00-.642-.639zm-3.046 13.273a.643.643 0 00-.905-.041 11.47 11.47 0 01-.658.554.639.639 0 00-.11.898.643.643 0 00.901.11c.257-.2.501-.407.731-.617a.638.638 0 00.041-.904zm-5.147 3.72a.638.638 0 00.484 0c.79-.318 1.558-.693 2.295-1.121a.64.64 0 10-.649-1.104 16.39 16.39 0 01-1.888.94c-2.3-.974-4.082-2.284-5.3-3.899-1.802-2.39-2.01-4.945-2.01-6.659v-3.914a2.792 2.792 0 001.821-.954 3.318 3.318 0 00.684-2.1l1.026-.127a.64.64 0 10-.157-1.27l-1.627.2a.645.645 0 00-.552.749c.001.01.183 1.087-.362 1.734a1.836 1.836 0 01-1.475.532.64.64 0 00-.641.64v4.51a12.248 12.248 0 001.583 6.404H1.283V11.498a.64.64 0 00-1.283 0v21.655c0 .353.287.64.641.64h24.65c1.392 1.737 3.362 3.138 5.873 4.16zm5.24-11.794h-.002l-5.405 5.391a1.736 1.736 0 01-2.455-.004l-2.136-2.127a1.733 1.733 0 012.453-2.447l.91.907 4.177-4.167a1.738 1.738 0 012.44.011c.673.67.68 1.756.015 2.434l.002.002zm-.911-1.543a.455.455 0 00-.64.004l-4.628 4.618a.643.643 0 01-.907 0l-1.363-1.36a.453.453 0 00-.638.64l2.137 2.128c.179.17.46.17.637 0l5.404-5.39a.456.456 0 000-.64h-.002z" fill="#175CFF"/></symbol><symbol id="icon-delivery" viewBox="0 0 39 39"><path d="M32.289 15.133a.62.62 0 01-.478-.047.633.633 0 01-.306-.376l-.421-1.402a.644.644 0 01.14-.623.624.624 0 011.061.253l.422 1.4a.643.643 0 01-.418.795zm-8.646 10.085l.686 2.281a.645.645 0 01-.047.485.63.63 0 01-.37.31l-4.632 1.43a.627.627 0 01-.784-.425l-.684-2.281a.644.644 0 01.046-.486.632.632 0 01.371-.309l4.63-1.428a.627.627 0 01.784.423zm-.699 2.044l-.317-1.064-3.43 1.059.32 1.063 3.427-1.058zm6.666-2.059a.633.633 0 00-.432.465.643.643 0 00.183.611c.165.156.4.21.615.142l2.743-.847a.639.639 0 00.414-.793.627.627 0 00-.78-.425l-2.743.847zm2.219-2.59l-2.744.847a.633.633 0 00-.432.465.642.642 0 00.184.61c.165.156.4.21.614.142l2.743-.846a.641.641 0 00.248-1.076.622.622 0 00-.614-.142zm5.681 6.96l-16.674 5.15c-.232 2.145-1.846 3.869-3.947 4.215-2.1.346-4.171-.773-5.06-2.733a4.843 4.843 0 011.25-5.672L6.925 10.057a.638.638 0 01.419-.791c.33-.102.68.086.782.42l6.054 20.141c.018-.008.036-.013.055-.02.332-.15.679-.26 1.036-.326.06-.011.119-.016.179-.025.114-.017.228-.036.342-.043.01 0 .022-.003.033-.004l-.308-1.026-4.454-14.805c0-.005 0-.01-.002-.015L8.348 4.536l-5.85-3.16a.823.823 0 00-.641-.065.856.856 0 00-.596.74.861.861 0 00.446.84l4.997 2.698c.148.08.258.215.306.377l.466 1.558a.643.643 0 01-.14.623.623.623 0 01-1.06-.252L5.882 6.59l-4.77-2.575A2.138 2.138 0 01.01 1.926 2.125 2.125 0 011.492.093a2.057 2.057 0 011.6.16L9.17 3.537c.147.08.257.215.305.376l2.61 8.684 6.375-1.969c.004 0 .008-.003.011-.004l4.375-1.351.039-.014 6.99-2.157a.627.627 0 01.783.423l1.107 3.682a.638.638 0 01-.418.79.626.626 0 01-.783-.42l-.924-3.072-5.788 1.786 1.59 5.288c.065.22.01.459-.147.625a.623.623 0 01-.61.177l-2.245-.58-1.546 1.751a.624.624 0 01-1.069-.24l-1.588-5.284-5.788 1.787 4.041 13.447.679 2.255h.005l.072.019c.098.024.194.05.29.08a4.598 4.598 0 01.363.132l.128.053c.103.045.203.094.302.146l.06.033c.1.055.197.114.292.175l.1.068a4.782 4.782 0 01.579.466l.022.02.005.005 15.492-4.786-2.591-8.621a.643.643 0 01.14-.623.623.623 0 011.06.252l2.592 8.62.208-.063a2.096 2.096 0 012.62 1.417c.338 1.125-.288 2.315-1.398 2.657v.006zM23.916 14.87l-1.264-4.204-3.213.992 1.264 4.204 1.056-1.196a.62.62 0 01.622-.192l1.535.396zM19.61 34.238a3.6 3.6 0 00-.444-1.758c-.036-.065-.078-.126-.118-.188a3.447 3.447 0 00-2.89-1.614l-.109.002a3.325 3.325 0 00-.355.028c-.041.005-.083.01-.124.017a3.446 3.446 0 00-.452.103c-1.705.527-2.742 2.277-2.398 4.05.343 1.775 1.955 2.998 3.73 2.833 1.777-.166 3.141-1.666 3.16-3.474zm18.097-6.95a.843.843 0 00-1.053-.569l-.807.247-15.624 4.827.015.03c.06.106.11.215.162.324.024.053.053.103.076.156.066.157.124.317.174.48l.008.022v.006c.051.175.093.354.124.534l.014.06 16.347-5.048a.86.86 0 00.564-1.068zm-22.381 4.241c-.55.17-1.032.51-1.382.972-.2.28-.145.67.125.88.27.21.656.163.87-.105a1.488 1.488 0 011.689-.515 1.52 1.52 0 011.004 1.47 1.517 1.517 0 01-1.067 1.421c-.38.118-.79.077-1.14-.112a1.51 1.51 0 01-.726-.898.626.626 0 00-.784-.424.638.638 0 00-.418.795 2.77 2.77 0 001.336 1.653 2.71 2.71 0 002.099.204c1.455-.45 2.275-2.01 1.832-3.486-.444-1.475-1.983-2.307-3.439-1.857v.002z" fill="#175CFF"/></symbol><symbol id="icon-free" viewBox="0 0 28 39"><path d="M8.72 30.683a.61.61 0 01.854.163l.602.889c.13.182.152.421.058.624a.613.613 0 01-1.07.076c-.252-.369-.346-.509-.605-.891a.624.624 0 01.162-.861zm4.778 8.054a.612.612 0 001.004 0c.083-.12 8.374-11.998 11.34-17.07A14.82 14.82 0 0028 14.133C28 6.329 21.732 0 14 0S0 6.328 0 14.133a14.82 14.82 0 002.157 7.534c1.058 1.809 2.883 4.645 5.425 8.429a.61.61 0 00.854.166.624.624 0 00.164-.862c-2.528-3.764-4.34-6.577-5.385-8.364a13.59 13.59 0 01-1.987-6.904C1.228 7.011 6.946 1.238 14 1.238s12.773 5.773 12.773 12.894a13.594 13.594 0 01-1.988 6.904c-2.519 4.307-8.94 13.61-10.785 16.266-.574-.827-1.59-2.296-2.786-4.045a.61.61 0 00-.854-.158.623.623 0 00-.156.862 635.857 635.857 0 003.294 4.776zM17.603 5.43a.612.612 0 00.803-.333.622.622 0 00-.329-.811 10.474 10.474 0 00-2.013-.62.62.62 0 00-.239 1.216 9.21 9.21 0 011.78.548h-.002zM14 3.462c-5.22.001-9.658 3.851-10.444 9.062-.786 5.21 2.315 10.219 7.299 11.789 4.983 1.57 10.356-.77 12.645-5.507 2.289-4.737.808-10.45-3.485-13.45a.61.61 0 00-.855.157.623.623 0 00.155.863c3.797 2.65 5.107 7.702 3.084 11.891-2.024 4.189-6.774 6.258-11.18 4.87-4.407-1.388-7.149-5.817-6.454-10.424C5.46 8.106 9.384 4.702 14 4.702c.34 0 .614-.278.614-.62a.617.617 0 00-.614-.62zm-2.767 8.683h8.885c.251 0 .478.155.57.391a.623.623 0 01-.152.68v2.195c0 .383-.104.758-.301 1.084.192.201.3.47.301.75a.618.618 0 01-.534.613.614.614 0 01-.673-.455l-.62.071-.507.057-7.02.785a.514.514 0 00-.449.533.514.514 0 00.49.494h7.686c.34 0 .614.278.614.62 0 .343-.275.62-.614.62h-1.06a.93.93 0 01-.285 1.09.908.908 0 01-1.117 0 .93.93 0 01-.285-1.09h-2.957a.93.93 0 01-.285 1.092.909.909 0 01-1.118 0 .93.93 0 01-.285-1.092h-.299c-.014 0-.043 0-.058-.002a1.743 1.743 0 01-1.65-1.551 1.752 1.752 0 011.258-1.888L9.556 9.35H8.493a.616.616 0 01-.646.546.617.617 0 01-.578-.617c0-.645.518-1.168 1.157-1.168h1.189a1.155 1.155 0 011.144.987l.474 3.047zm8.03 3.532H11.79l.203 1.302 5.75-.644.83-.093a.825.825 0 00.69-.565zm-7.83-2.292l.165 1.053h7.71v-1.053h-7.874z" fill="#175CFF"/></symbol><symbol id="icon-garanty" viewBox="0 0 40 40"><path d="M20.26 39.952a.66.66 0 01-.495 0c-6.695-2.728-11.383-6.784-13.93-12.058-2.017-4.175-2.25-8.234-2.25-10.924V8.004c0-.362.293-.656.655-.656 1.542 0 2.686-.431 3.398-1.283 1.266-1.515.85-3.925.845-3.949a.656.656 0 01.538-.764C9.356 1.297 17.249 0 20.013 0c2.026.087 4.045.289 6.047.606a.655.655 0 01-.179 1.298 53.164 53.164 0 00-5.868-.593c-2.226 0-8.226.926-10.166 1.235.065.999 0 2.913-1.198 4.352-.861 1.034-2.122 1.617-3.754 1.738v8.336c0 3.814 0 15.38 15.118 21.664C35.13 32.353 35.13 20.786 35.13 16.972V8.635c-1.633-.12-2.894-.703-3.754-1.737-1.198-1.439-1.263-3.354-1.198-4.352-.418-.067-1.024-.162-1.741-.271a.656.656 0 11.196-1.296c1.393.21 2.371.374 2.371.374a.655.655 0 01.538.766c-.004.023-.42 2.434.846 3.948.711.85 1.855 1.283 3.397 1.283.362 0 .656.293.656.655v8.967c0 2.69-.234 6.748-2.252 10.924-2.547 5.272-7.234 9.33-13.93 12.056zm12.425-22.084c-.01.586-.038 1.123-.08 1.64a.655.655 0 00.6.707l.055.003c.34 0 .624-.262.652-.602.045-.546.072-1.11.083-1.724a.656.656 0 00-1.31-.023v-.001zM34 10.136a.655.655 0 00-.482-.632 5.824 5.824 0 01-3.011-1.883 6.59 6.59 0 01-1.428-3.61.656.656 0 00-.553-.58c-2.427-.37-6.762-.993-8.514-.993-1.753 0-6.087.622-8.515.992a.655.655 0 00-.553.58 6.597 6.597 0 01-1.428 3.611 5.817 5.817 0 01-3.01 1.883.655.655 0 00-.483.632v6.836c0 3.527 0 14.262 13.724 20.322.168.075.36.075.53 0 7.688-3.395 12.196-8.707 13.397-15.788a.655.655 0 00-1.292-.22c-1.11 6.54-5.27 11.481-12.37 14.692C7.333 30.242 7.335 20.266 7.335 16.972v-6.353a7.114 7.114 0 003.19-2.16 7.708 7.708 0 001.658-3.807c2.134-.32 6.233-.904 7.83-.904 1.596 0 5.696.583 7.829.902a7.708 7.708 0 001.659 3.808 7.113 7.113 0 003.19 2.16v5.008a.656.656 0 001.31 0v-5.49zM12.911 19.5c.203 0 .398.08.541.224l3.553 3.553a.655.655 0 00.927 0l2.193-2.191a.655.655 0 10-.927-.927l-1.728 1.728-3.09-3.089a2.076 2.076 0 00-2.936 2.936l4.557 4.557c.81.811 2.125.811 2.936 0l9.645-9.645a2.076 2.076 0 00-2.936-2.937l-3.043 3.043a.655.655 0 10.927.926l3.043-3.043a.783.783 0 011.083 0 .766.766 0 010 1.082l-9.646 9.647a.786.786 0 01-1.083 0l-4.557-4.558a.767.767 0 01.541-1.306zm8.587.21l.637-.636a.655.655 0 10-.927-.927l-.637.637a.656.656 0 00.927.927z" fill="#175CFF"/></symbol><symbol id="icon-heart" viewBox="0 0 23 20"><path d="M11.5 1.654c2.702-2.282 6.877-2.206 9.48.247 2.6 2.454 2.69 6.362.27 8.911L11.5 20l-9.75-9.188c-2.42-2.55-2.329-6.464.272-8.911 2.604-2.45 6.77-2.532 9.48-.247zm7.85 1.776c-1.724-1.625-4.507-1.691-6.313-.166L11.502 4.56 9.966 3.265c-1.811-1.527-4.589-1.46-6.318.167-1.714 1.612-1.8 4.193-.221 5.898l8.073 7.607 8.073-7.606c1.58-1.706 1.494-4.284-.222-5.901z" fill="#97A2AC"/></symbol><symbol id="icon-original" viewBox="0 0 40 40"><path d="M29.727 19.353c0-.655-.304-1.273-.827-1.68a2.11 2.11 0 00.317-2.288 2.19 2.19 0 00-1.986-1.243h-4.864l.201-.52a7.05 7.05 0 00.477-2.555v-.078c0-.664-.275-1.3-.76-1.761a2.536 2.536 0 00-1.82-.692c-1.37.072-2.441 1.187-2.43 2.532 0 .636-.912 2.1-1.652 3.075h-5.485a.619.619 0 00-.625.613v12.259c0 .338.28.612.625.612H20a.619.619 0 00.625-.612.619.619 0 00-.625-.613h-2.683V14.963c.53-.686 1.969-2.667 1.969-3.895A1.291 1.291 0 0120.5 9.76c.34-.01.67.115.913.347.244.232.382.55.382.883v.078a5.87 5.87 0 01-.396 2.12l-.521 1.352a.602.602 0 00.07.565.63.63 0 00.514.265h5.768a.93.93 0 01.939.92.93.93 0 01-.939.92.619.619 0 00-.625.612c0 .338.28.613.625.613h.308a.93.93 0 01.94.92.93.93 0 01-.94.92h-.308a.619.619 0 00-.625.612c0 .338.28.613.625.613a.93.93 0 01.939.92.93.93 0 01-.939.92h-.978a.619.619 0 00-.625.612c0 .338.28.612.625.612a.93.93 0 01.939.92.93.93 0 01-.939.92h-4.124a.619.619 0 00-.625.612c0 .339.28.613.625.613h4.124c.79 0 1.52-.416 1.908-1.09a2.107 2.107 0 00-.034-2.165 2.155 2.155 0 001.239-1.482 2.113 2.113 0 00-.466-1.86 2.128 2.128 0 00.828-1.68zm-18.204-3.985h4.544v11.034h-4.544V15.368zm1.841 7.483c-.898 0-1.626.713-1.626 1.594 0 .88.728 1.593 1.626 1.593.898 0 1.627-.713 1.627-1.593-.001-.88-.729-1.593-1.627-1.594zm0 1.962a.372.372 0 01-.376-.369c0-.203.168-.369.377-.368.208 0 .376.165.376.369a.373.373 0 01-.377.368zm26.007-6.271a2.68 2.68 0 000 2.916c.577.888.767 1.966.528 2.993a3.945 3.945 0 01-1.8 2.471 2.708 2.708 0 00-1.292 2.628 3.884 3.884 0 01-.849 2.92 4.045 4.045 0 01-2.717 1.462 2.77 2.77 0 00-2.327 1.817 3.969 3.969 0 01-2.058 2.27 4.098 4.098 0 01-3.095.162 2.823 2.823 0 00-2.901.649A4.063 4.063 0 0120 40a4.063 4.063 0 01-2.86-1.17 2.821 2.821 0 00-2.902-.65 4.096 4.096 0 01-3.094-.161 3.968 3.968 0 01-2.059-2.27A2.77 2.77 0 006.76 33.93a4.045 4.045 0 01-2.717-1.462 3.886 3.886 0 01-.85-2.92 2.708 2.708 0 00-1.29-2.628 3.944 3.944 0 01-1.8-2.471 3.876 3.876 0 01.527-2.992 2.68 2.68 0 000-2.916 3.875 3.875 0 01-.53-2.992 3.944 3.944 0 011.8-2.471.632.632 0 01.861.197.606.606 0 01-.201.844 2.717 2.717 0 00-1.241 1.703 2.67 2.67 0 00.363 2.063 3.888 3.888 0 010 4.23 2.67 2.67 0 00-.363 2.063 2.718 2.718 0 001.24 1.704 3.929 3.929 0 011.874 3.812 2.68 2.68 0 00.585 2.013c.462.568 1.137.93 1.873 1.007 1.551.166 2.866 1.194 3.376 2.639a2.73 2.73 0 001.418 1.564 2.823 2.823 0 002.133.112 4.094 4.094 0 014.21.941 2.8 2.8 0 001.971.807 2.8 2.8 0 001.971-.807 4.094 4.094 0 014.21-.941 2.823 2.823 0 002.133-.112 2.736 2.736 0 001.419-1.564c.51-1.445 1.824-2.473 3.375-2.639a2.787 2.787 0 001.873-1.007 2.677 2.677 0 00.585-2.013 3.93 3.93 0 011.874-3.812 2.72 2.72 0 001.24-1.704 2.67 2.67 0 00-.363-2.063 3.888 3.888 0 010-4.23 2.67 2.67 0 00.364-2.063 2.718 2.718 0 00-1.241-1.704 3.928 3.928 0 01-1.874-3.812 2.678 2.678 0 00-.586-2.013 2.787 2.787 0 00-1.872-1.008c-1.551-.166-2.866-1.193-3.376-2.638a2.736 2.736 0 00-1.419-1.565 2.823 2.823 0 00-2.132-.11 4.095 4.095 0 01-4.21-.942A2.8 2.8 0 0020 1.223a2.8 2.8 0 00-1.971.807 4.095 4.095 0 01-4.21.941 2.823 2.823 0 00-2.133.111 2.736 2.736 0 00-1.418 1.565c-.51 1.445-1.824 2.472-3.375 2.639a2.758 2.758 0 00-2.086 1.31.627.627 0 01-.551.324.627.627 0 01-.551-.324.602.602 0 01.03-.628 3.998 3.998 0 013.027-1.9A2.77 2.77 0 009.085 4.25a3.97 3.97 0 012.06-2.27 4.097 4.097 0 013.094-.162 2.822 2.822 0 002.901-.649A4.063 4.063 0 0120 0a4.06 4.06 0 012.86 1.17c.758.748 1.888 1 2.902.65a4.098 4.098 0 013.094.16 3.97 3.97 0 012.058 2.271 2.77 2.77 0 002.327 1.818 4.045 4.045 0 012.717 1.462c.67.823.976 1.875.85 2.92a2.709 2.709 0 001.29 2.628A3.944 3.944 0 0139.9 15.55a3.874 3.874 0 01-.528 2.993v-.001zM3.062 11.649c.136-.385.18-.795.13-1.199a.615.615 0 01.548-.68c.343-.04.653.2.694.536.07.587.006 1.181-.189 1.74a.629.629 0 01-.794.382.61.61 0 01-.389-.779zm29.178 1.778a13.684 13.684 0 00-1.426-2.071.604.604 0 01.088-.862.634.634 0 01.88.086 14.964 14.964 0 011.552 2.255.602.602 0 01-.009.615.628.628 0 01-.55.296.627.627 0 01-.536-.322l.002.003zm-2.65-4.205a.633.633 0 01-.878.096A13.979 13.979 0 0020 6.326c-6.002.007-11.326 3.779-13.214 9.362-1.889 5.583.083 11.723 4.893 15.242 4.81 3.518 11.378 3.624 16.303.262 4.926-3.362 7.102-9.436 5.401-15.077a.61.61 0 01.425-.751.627.627 0 01.774.404c2.137 7.058-1.303 14.587-8.099 17.727-6.795 3.139-14.912.947-19.107-5.16-4.196-6.107-3.215-14.3 2.31-19.29 5.524-4.989 13.938-5.279 19.807-.684.27.212.313.597.098.861z" fill="#175CFF"/></symbol><symbol id="icon-search" viewBox="0 0 21 21"><path d="M16.031 14.617l4.283 4.282-1.415 1.415-4.282-4.283A8.96 8.96 0 019 18c-4.968 0-9-4.032-9-9s4.032-9 9-9 9 4.032 9 9a8.96 8.96 0 01-1.969 5.617zm-2.006-.742A6.977 6.977 0 0016 9c0-3.868-3.133-7-7-7-3.868 0-7 3.132-7 7 0 3.867 3.132 7 7 7a6.977 6.977 0 004.875-1.975l.15-.15z" fill="#fff"/></symbol><symbol id="icon-share-arr" viewBox="0 0 12 11"><path d="M12 5L7.333.333V3C2.667 3.667.667 7 0 10.333c1.667-2.333 4-3.4 7.333-3.4v2.734L12 5z" fill="#97A2AC"/></symbol><symbol id="icon-user" viewBox="0 0 26 26"><path d="M13 25.5C6.096 25.5.5 19.904.5 13S6.096.5 13 .5 25.5 6.096 25.5 13 19.904 25.5 13 25.5zm-6.234-4.68A9.958 9.958 0 0013 23c2.463 0 4.716-.89 6.459-2.365A8.723 8.723 0 0013.2 18a8.727 8.727 0 00-6.434 2.82zM5.02 19.025A11.218 11.218 0 0113.2 15.5a11.216 11.216 0 017.953 3.293 10 10 0 10-16.133.233v-.001zM13 14.25a5 5 0 110-10 5 5 0 010 10zm0-2.5a2.5 2.5 0 100-5 2.5 2.5 0 000 5z" fill="#97A2AC"/></symbol></svg>