<svg xmlns="http://www.w3.org/2000/svg"><defs><clipPath id="clip0"><path transform="translate(0 .5)" d="M0 0h32v32H0z"/></clipPath><clipPath id="clip0"><path transform="translate(0 .5)" d="M0 0h32v32H0z"/></clipPath><clipPath id="clip0"><path transform="translate(0 .5)" d="M0 0h32v32H0z"/></clipPath><clipPath id="clip0"><path transform="translate(0 .5)" d="M0 0h32v32H0z"/></clipPath><clipPath id="clip0"><path transform="translate(0 .5)" d="M0 0h32v32H0z"/></clipPath><clipPath id="clip0"><path fill="#fff" transform="translate(0 .5)" d="M0 0h32v32H0z"/></clipPath><clipPath id="clip0"><path transform="translate(0 .5)" d="M0 0h32v32H0z"/></clipPath><clipPath id="clip0"><path transform="translate(0 .5)" d="M0 0h32v32H0z"/></clipPath><clipPath id="clip0"><path transform="translate(0 .5)" d="M0 0h32v32H0z"/></clipPath></defs><symbol id="icon-accessories" viewBox="0 0 32 33"><g clip-path="url(#clip0)"><path d="M28.64 3.547h-.117V2.065a.47.47 0 00-.47-.47h-1.909a.47.47 0 00-.47.47v1.482h-.118a.47.47 0 00-.47.47V9.04c0 .26.21.47.47.47h.271v1.749c0 .26.21.47.47.47h.332v9.257a7.811 7.811 0 00-6.865-4.095 7.811 7.811 0 00-6.865 4.095v-6.054h.332c.26 0 .47-.21.47-.47v-1.804a2.349 2.349 0 001.842-2.29v-.955a.47.47 0 10-.94 0v.955c0 .775-.63 1.406-1.405 1.406H8.787V5.596a.47.47 0 10-.94 0v2.25H6.23V2.535h1.618v1.183a.47.47 0 10.94 0V1.44h4.41c.776 0 1.406.63 1.406 1.406v4.69a.47.47 0 10.94 0v-4.69A2.348 2.348 0 0013.198.5h-4.88a.47.47 0 00-.47.47v.625H5.76a.47.47 0 00-.47.47v1.183H3.36a.47.47 0 100 .939h1.93v2.007H3.36a.47.47 0 100 .94h1.93v1.182c0 .26.21.47.47.47h2.088v3.457c0 .26.21.47.47.47h2.84v1.75c0 .259.21.469.47.469h.332v9.764c0 4.303 3.5 7.804 7.804 7.804 4.303 0 7.804-3.5 7.804-7.804V11.729h.332c.26 0 .47-.21.47-.47v-1.75h.27c.26 0 .47-.21.47-.47V4.017a.47.47 0 00-.47-.47zm-15.879 9.166v1.28h-.664v-1.28h.664zm7.003 18.848a6.873 6.873 0 01-6.865-6.865 6.873 6.873 0 016.865-6.865 6.873 6.873 0 016.865 6.865 6.873 6.873 0 01-6.865 6.865zM28.17 4.486V8.57h-2.145V4.486h2.145zm-1.557-1.952h.97v1.013h-.97V2.534zm.817 8.255h-.665V9.51h.665v1.28z"/></g></symbol><symbol id="icon-apple" viewBox="0 0 13 16"><path d="M6.75 4.815c-.585 0-1.489-.664-2.44-.64-1.257.016-2.409.728-3.057 1.856-1.304 2.264-.336 5.608.936 7.448.624.896 1.36 1.904 2.336 1.872.936-.04 1.288-.608 2.424-.608 1.128 0 1.448.608 2.44.584 1.008-.016 1.648-.912 2.264-1.816a8.04 8.04 0 001.024-2.104c-.024-.008-1.96-.752-1.984-2.992-.016-1.872 1.528-2.768 1.6-2.808-.88-1.288-2.232-1.432-2.704-1.464-1.232-.096-2.264.672-2.84.672zm2.08-1.888c.52-.624.863-1.496.767-2.36-.744.032-1.64.496-2.176 1.12-.48.552-.896 1.44-.784 2.288.824.064 1.672-.424 2.192-1.048z"/></symbol><symbol id="icon-available" viewBox="0 0 17 17"><path d="M12.257 5.803c.26.26.26.68 0 .939l-4.455 4.455a.663.663 0 01-.939 0l-2.12-2.12a.664.664 0 11.939-.94l1.65 1.651 3.986-3.985c.26-.26.68-.26.94 0zM17 8.5c0 4.698-3.802 8.5-8.5 8.5A8.495 8.495 0 010 8.5C0 3.802 3.802 0 8.5 0S17 3.802 17 8.5zm-1.328 0A7.168 7.168 0 008.5 1.328 7.168 7.168 0 001.328 8.5 7.168 7.168 0 008.5 15.672 7.168 7.168 0 0015.672 8.5z" fill="#51BE70"/></symbol><symbol id="icon-burger" viewBox="0 0 11 8"><rect x=".021" width="10" height="2" rx="1"/><rect x=".021" y="3" width="10" height="2" rx="1"/><rect x=".021" y="6" width="10" height="2" rx="1"/></symbol><symbol id="icon-cart" viewBox="0 0 30 29"><g clip-path="url(#clip0)"><path d="M14.492 26.492a2.492 2.492 0 11-4.983 0 2.492 2.492 0 014.983 0zm7.596-2.491a2.491 2.491 0 100 4.982 2.491 2.491 0 000-4.982zm7.734-11.696l-3.066 9.111s-.253 1.353-1.547 1.353H9.73c-1.543 0-1.607-1.695-1.607-1.695S6.476 8.87 6.394 8.134c-.08-.739-1.023-1.284-1.023-1.284L1.314 4.955c-2.22-1.162-1.211-3.372 0-2.864 5.144 2.426 7.534 3.621 7.687 4.577.156.958.426 3.264.426 3.264v.015c.032-.01.054-.015.054-.015h18.96c2.29 0 1.38 2.377 1.38 2.373zm-4.435 5.073l-.031.002H10.348l.31 2.453h14l.73-2.455zm1.462-4.945H9.727l.33 2.62h16.018l.774-2.62z" fill="#175CFF"/></g></symbol><symbol id="icon-cart2" viewBox="0 0 30 30"><g clip-path="url(#clip0)"><path d="M14.492 27.492a2.492 2.492 0 11-4.983 0 2.492 2.492 0 014.983 0zm7.596-2.491a2.491 2.491 0 100 4.982 2.491 2.491 0 000-4.982zm7.734-11.696l-3.066 9.111s-.253 1.353-1.547 1.353H9.73c-1.543 0-1.607-1.695-1.607-1.695S6.476 9.87 6.394 9.134c-.08-.739-1.023-1.284-1.023-1.284L1.314 5.955c-2.22-1.162-1.211-3.372 0-2.864 5.144 2.426 7.534 3.621 7.687 4.577.156.958.426 3.264.426 3.264v.015c.032-.01.054-.015.054-.015h18.96c2.29 0 1.38 2.377 1.38 2.373zm-4.435 5.073l-.031.002H10.348l.31 2.453h14l.73-2.455zm1.462-4.945H9.727l.33 2.62h16.018l.774-2.62z" fill="#175CFF"/></g><circle cx="26.25" cy="3.75" r="3.75" fill="#FF5E31"/></symbol><symbol id="icon-cashback" viewBox="0 0 40 40"><g clip-path="url(#clip0)" fill="#175CFF"><path d="M30.994 32.473H26.4a2.015 2.015 0 00-1.815-2.882h-2.37a4.598 4.598 0 01-1.665-.31l-1.815-.702a5.734 5.734 0 00-2.076-.388h-3.636v-.13c0-.736-.598-1.334-1.333-1.334H4.103a.953.953 0 00-.952.952v2.241a.571.571 0 101.142 0v-2.05h7.397a.19.19 0 01.19.19v9.607a.19.19 0 01-.19.19H4.293v-4.993a.571.571 0 10-1.142 0v5.184c0 .525.427.952.952.952h7.587c.735 0 1.333-.598 1.333-1.333v-.984h17.971c1.16 0 2.105-.944 2.105-2.105 0-1.16-.944-2.105-2.105-2.105zm0 3.067H13.023v-6.206h3.636c.571 0 1.131.104 1.664.31l1.814.702a5.736 5.736 0 002.077.387h2.372a.87.87 0 010 1.74h-3.34a.571.571 0 100 1.143h9.748a.963.963 0 010 1.924zM22.65 11.02a.74.74 0 01.74.74.571.571 0 101.143 0c0-.84-.551-1.552-1.31-1.795v-.693a.571.571 0 10-1.143 0v.693a1.886 1.886 0 00-1.312 1.794 1.885 1.885 0 001.925 1.881.74.74 0 11-.782.739.571.571 0 10-1.143 0c0 .839.552 1.551 1.312 1.794v.693a.571.571 0 101.142 0v-.693a1.886 1.886 0 001.311-1.794 1.885 1.885 0 00-1.924-1.881.74.74 0 01.042-1.479z"/><path d="M25.908 8.268a.571.571 0 00-.229-.775 6.354 6.354 0 00-3.028-.768 6.352 6.352 0 00-6.345 6.344 6.352 6.352 0 006.345 6.344 6.352 6.352 0 006.344-6.344 6.304 6.304 0 00-1.167-3.668.571.571 0 00-.932.662 5.16 5.16 0 01.957 3.006 5.208 5.208 0 01-5.202 5.202 5.208 5.208 0 01-5.202-5.202 5.208 5.208 0 017.684-4.573.571.571 0 00.775-.228zM11 8.5a.57.57 0 00.755-.286 12.022 12.022 0 0111.03-7.071c2.74.018 5.31.925 7.43 2.622a.571.571 0 10.715-.892C28.607 1.013 25.793.02 22.791 0h-.088a13.166 13.166 0 00-11.99 7.744.571.571 0 00.285.756z"/><path d="M13.304 21.07c.767 0 1.447-.4 1.819-1.07a2.064 2.064 0 00-.053-2.118 8.962 8.962 0 01-1.347-4.546c-.05-2.397.86-4.682 2.563-6.432 1.702-1.75 3.957-2.721 6.352-2.738a8.931 8.931 0 016.393 2.608 8.92 8.92 0 012.653 6.373 8.939 8.939 0 01-8.41 8.963v-.526a.867.867 0 00-.506-.793.868.868 0 00-.933.122l-3.064 2.568a.95.95 0 000 1.46l3.064 2.568a.87.87 0 00.933.122.868.868 0 00.506-.794v-.555a13.071 13.071 0 008.797-3.912 13.076 13.076 0 003.778-9.135 13.192 13.192 0 00-2.944-8.403.571.571 0 00-.886.721 12.047 12.047 0 012.687 7.674 11.943 11.943 0 01-11.722 11.92.88.88 0 00-.853.876v.243L19.68 24.21l2.451-2.055v.234a.88.88 0 00.904.875 10.068 10.068 0 006.935-3.07 10.071 10.071 0 002.856-7.048c0-2.718-1.062-5.27-2.99-7.184a10.05 10.05 0 00-7.206-2.94c-2.703.019-5.247 1.114-7.163 3.084-1.917 1.971-2.942 4.547-2.886 7.253a10.106 10.106 0 001.518 5.125.935.935 0 01.025.96.926.926 0 01-.82.481.933.933 0 01-.797-.44 11.971 11.971 0 01-1.81-6.34c0-.818.084-1.635.247-2.429a.571.571 0 10-1.12-.23c-.178.87-.269 1.764-.269 2.66 0 2.461.686 4.862 1.982 6.943a2.07 2.07 0 001.767.98z"/></g></symbol><symbol id="icon-catalog-menu-close" viewBox="0 0 46 46"><rect x="13.8" y="30.667" width="24.533" height="4.6" rx="2.3" transform="rotate(-45 13.8 30.667)" fill="#fff"/><rect x="16.867" y="13.8" width="24.533" height="4.6" rx="2.3" transform="rotate(45 16.867 13.8)" fill="#fff"/></symbol><symbol id="icon-catalog-menu" viewBox="0 0 10 10"><path fill-rule="evenodd" clip-rule="evenodd" d="M0 1.667a1.667 1.667 0 103.333 0 1.667 1.667 0 00-3.333 0zm6.667 0a1.667 1.667 0 103.333 0 1.667 1.667 0 00-3.333 0zM8.333 10a1.667 1.667 0 110-3.333 1.667 1.667 0 010 3.333zM0 8.333a1.667 1.667 0 103.333 0 1.667 1.667 0 00-3.333 0z" fill="#fff"/></symbol><symbol id="icon-chart" viewBox="0 0 17 17"><path d="M2.362 8.316h1.374v6.006H2.362V8.316zm10.993-2.669h1.374v8.675h-1.374V5.647zM7.859 1.644h1.374v12.678H7.859V1.644z"/></symbol><symbol id="icon-check" viewBox="0 0 40 38"><path d="M0 8.891V7.509a.64.64 0 011.283 0V8.89A.64.64 0 010 8.89zm4.513 21.65h5.517a.64.64 0 100-1.28H4.513a.64.64 0 100 1.28zm0-2.602a.64.64 0 00.641-.64v-2.513a.64.64 0 00-1.282 0V27.3c0 .354.286.64.64.64zm3.4-.64v-2.513a.64.64 0 00-1.283 0V27.3a.64.64 0 001.282 0zm2.758 0v-2.513a.64.64 0 00-1.283 0V27.3a.64.64 0 001.283 0zm28.687-6.34a1.836 1.836 0 01-1.472-.532c-.544-.646-.361-1.723-.36-1.731a.638.638 0 00-.551-.751l-2.633-.325V.64A.64.64 0 0033.7 0H.642A.64.64 0 000 .64v4.44a.64.64 0 001.283 0v-3.8h10.286v9.466a.638.638 0 00.965.552l4.637-2.707 4.636 2.707a.642.642 0 00.966-.552V6.488a.64.64 0 00-1.283 0v3.144l-3.994-2.333a.642.642 0 00-.648 0l-3.994 2.333V1.279h8.636v3.016a.64.64 0 001.283 0V1.28h10.286v16.183l-1.575-.194a.632.632 0 00-.157 0l-1.608.198a.64.64 0 10.157 1.27l1.53-.189 4.808.592c-.02.758.22 1.5.682 2.102a2.784 2.784 0 001.82.953v3.915c0 1.715-.208 4.272-2.008 6.66a.642.642 0 001.026.767c2.03-2.693 2.266-5.53 2.266-7.428v-4.51a.64.64 0 00-.642-.639zm-3.046 13.273a.643.643 0 00-.905-.041 11.47 11.47 0 01-.658.554.639.639 0 00-.11.898.643.643 0 00.901.11c.257-.2.501-.407.731-.617a.638.638 0 00.041-.904zm-5.147 3.72a.638.638 0 00.484 0c.79-.318 1.558-.693 2.295-1.121a.64.64 0 10-.649-1.104 16.39 16.39 0 01-1.888.94c-2.3-.974-4.082-2.284-5.3-3.899-1.802-2.39-2.01-4.945-2.01-6.659v-3.914a2.792 2.792 0 001.821-.954 3.318 3.318 0 00.684-2.1l1.026-.127a.64.64 0 10-.157-1.27l-1.627.2a.645.645 0 00-.552.749c.001.01.183 1.087-.362 1.734a1.836 1.836 0 01-1.475.532.64.64 0 00-.641.64v4.51a12.248 12.248 0 001.583 6.404H1.283V11.498a.64.64 0 00-1.283 0v21.655c0 .353.287.64.641.64h24.65c1.392 1.737 3.362 3.138 5.873 4.16zm5.24-11.794h-.002l-5.405 5.391a1.736 1.736 0 01-2.455-.004l-2.136-2.127a1.733 1.733 0 012.453-2.447l.91.907 4.177-4.167a1.738 1.738 0 012.44.011c.673.67.68 1.756.015 2.434l.002.002zm-.911-1.543a.455.455 0 00-.64.004l-4.628 4.618a.643.643 0 01-.907 0l-1.363-1.36a.453.453 0 00-.638.64l2.137 2.128c.179.17.46.17.637 0l5.404-5.39a.456.456 0 000-.64h-.002z" fill="#175CFF"/></symbol><symbol id="icon-close-btn" viewBox="0 0 46 46"><rect x="13.8" y="30.667" width="24.533" height="4.6" rx="2.3" transform="rotate(-45 13.8 30.667)"/><rect x="16.867" y="13.8" width="24.533" height="4.6" rx="2.3" transform="rotate(45 16.867 13.8)"/></symbol><symbol id="icon-close" viewBox="0 0 13 13"><rect y="11" width="16" height="3" rx="1.5" transform="rotate(-45 0 11)"/><rect x="2" width="16" height="3" rx="1.5" transform="rotate(45 2 0)"/></symbol><symbol id="icon-computer" viewBox="0 0 32 33"><path d="M29.652 2.381H19.417a.47.47 0 000 .94h10.235A1.41 1.41 0 0131.06 4.73v16.438h-2.252V6.74a1.41 1.41 0 00-1.41-1.41H4.6a1.41 1.41 0 00-1.409 1.41v14.428H.94V4.73a1.41 1.41 0 011.41-1.41h15.19a.47.47 0 100-.939H2.348A2.351 2.351 0 000 4.73v18.99a2.351 2.351 0 002.348 2.349h10.327l-.473 3.61h-1.669a.47.47 0 000 .939h10.934a.47.47 0 100-.94h-1.669l-.473-3.61h4.977a.47.47 0 000-.939H2.348A1.41 1.41 0 01.94 23.72v-1.613h30.122v1.613a1.41 1.41 0 01-1.41 1.41h-3.47a.47.47 0 100 .939h3.47A2.351 2.351 0 0032 23.72V4.73a2.35 2.35 0 00-2.348-2.349zM18.85 29.678h-5.702l.474-3.61h4.754l.474 3.61zM4.13 6.74c0-.26.21-.47.47-.47h22.8c.259 0 .47.21.47.47v2.31H4.13V6.74zm0 3.25h23.74v11.178h-2.284v-2.094a.47.47 0 00-.47-.47h-7.992a.47.47 0 00-.47.47v2.094h-1.309v-2.094a.47.47 0 00-.47-.47H6.884a.47.47 0 00-.47.47v2.094H4.13V9.99zm20.516 11.178h-7.053v-1.624h7.053v1.624zm-10.241 0H7.353v-1.624h7.053v1.624z"/><path d="M5.922 6.903a.722.722 0 10.001 1.445.722.722 0 00-.001-1.445zm2.315 0a.722.722 0 10.002 1.445.722.722 0 00-.002-1.445zm2.315 0a.722.722 0 10.002 1.445.722.722 0 00-.002-1.445zM6.883 17.457H10.3a.47.47 0 000-.939H7.353v-4.121h17.293v4.121H12.179a.47.47 0 000 .94h12.936c.26 0 .47-.21.47-.47v-5.06a.47.47 0 00-.47-.47H6.883a.47.47 0 00-.47.47v5.06c0 .26.21.47.47.47z"/></symbol><symbol id="icon-delivery" viewBox="0 0 39 39"><path d="M32.289 15.133a.62.62 0 01-.478-.047.633.633 0 01-.306-.376l-.421-1.402a.644.644 0 01.14-.623.624.624 0 011.061.253l.422 1.4a.643.643 0 01-.418.795zm-8.646 10.085l.686 2.281a.645.645 0 01-.047.485.63.63 0 01-.37.31l-4.632 1.43a.627.627 0 01-.784-.425l-.684-2.281a.644.644 0 01.046-.486.632.632 0 01.371-.309l4.63-1.428a.627.627 0 01.784.423zm-.699 2.044l-.317-1.064-3.43 1.059.32 1.063 3.427-1.058zm6.666-2.059a.633.633 0 00-.432.465.643.643 0 00.183.611c.165.156.4.21.615.142l2.743-.847a.639.639 0 00.414-.793.627.627 0 00-.78-.425l-2.743.847zm2.219-2.59l-2.744.847a.633.633 0 00-.432.465.642.642 0 00.184.61c.165.156.4.21.614.142l2.743-.846a.641.641 0 00.248-1.076.622.622 0 00-.614-.142zm5.681 6.96l-16.674 5.15c-.232 2.145-1.846 3.869-3.947 4.215-2.1.346-4.171-.773-5.06-2.733a4.843 4.843 0 011.25-5.672L6.925 10.057a.638.638 0 01.419-.791c.33-.102.68.086.782.42l6.054 20.141c.018-.008.036-.013.055-.02.332-.15.679-.26 1.036-.326.06-.011.119-.016.179-.025.114-.017.228-.036.342-.043.01 0 .022-.003.033-.004l-.308-1.026-4.454-14.805c0-.005 0-.01-.002-.015L8.348 4.536l-5.85-3.16a.823.823 0 00-.641-.065.856.856 0 00-.596.74.861.861 0 00.446.84l4.997 2.698c.148.08.258.215.306.377l.466 1.558a.643.643 0 01-.14.623.623.623 0 01-1.06-.252L5.882 6.59l-4.77-2.575A2.138 2.138 0 01.01 1.926 2.125 2.125 0 011.492.093a2.057 2.057 0 011.6.16L9.17 3.537c.147.08.257.215.305.376l2.61 8.684 6.375-1.969c.004 0 .008-.003.011-.004l4.375-1.351.039-.014 6.99-2.157a.627.627 0 01.783.423l1.107 3.682a.638.638 0 01-.418.79.626.626 0 01-.783-.42l-.924-3.072-5.788 1.786 1.59 5.288c.065.22.01.459-.147.625a.623.623 0 01-.61.177l-2.245-.58-1.546 1.751a.624.624 0 01-1.069-.24l-1.588-5.284-5.788 1.787 4.041 13.447.679 2.255h.005l.072.019c.098.024.194.05.29.08a4.598 4.598 0 01.363.132l.128.053c.103.045.203.094.302.146l.06.033c.1.055.197.114.292.175l.1.068a4.782 4.782 0 01.579.466l.022.02.005.005 15.492-4.786-2.591-8.621a.643.643 0 01.14-.623.623.623 0 011.06.252l2.592 8.62.208-.063a2.096 2.096 0 012.62 1.417c.338 1.125-.288 2.315-1.398 2.657v.006zM23.916 14.87l-1.264-4.204-3.213.992 1.264 4.204 1.056-1.196a.62.62 0 01.622-.192l1.535.396zM19.61 34.238a3.6 3.6 0 00-.444-1.758c-.036-.065-.078-.126-.118-.188a3.447 3.447 0 00-2.89-1.614l-.109.002a3.325 3.325 0 00-.355.028c-.041.005-.083.01-.124.017a3.446 3.446 0 00-.452.103c-1.705.527-2.742 2.277-2.398 4.05.343 1.775 1.955 2.998 3.73 2.833 1.777-.166 3.141-1.666 3.16-3.474zm18.097-6.95a.843.843 0 00-1.053-.569l-.807.247-15.624 4.827.015.03c.06.106.11.215.162.324.024.053.053.103.076.156.066.157.124.317.174.48l.008.022v.006c.051.175.093.354.124.534l.014.06 16.347-5.048a.86.86 0 00.564-1.068zm-22.381 4.241c-.55.17-1.032.51-1.382.972-.2.28-.145.67.125.88.27.21.656.163.87-.105a1.488 1.488 0 011.689-.515 1.52 1.52 0 011.004 1.47 1.517 1.517 0 01-1.067 1.421c-.38.118-.79.077-1.14-.112a1.51 1.51 0 01-.726-.898.626.626 0 00-.784-.424.638.638 0 00-.418.795 2.77 2.77 0 001.336 1.653 2.71 2.71 0 002.099.204c1.455-.45 2.275-2.01 1.832-3.486-.444-1.475-1.983-2.307-3.439-1.857v.002z" fill="#175CFF"/></symbol><symbol id="icon-free" viewBox="0 0 28 39"><path d="M8.72 30.683a.61.61 0 01.854.163l.602.889c.13.182.152.421.058.624a.613.613 0 01-1.07.076c-.252-.369-.346-.509-.605-.891a.624.624 0 01.162-.861zm4.778 8.054a.612.612 0 001.004 0c.083-.12 8.374-11.998 11.34-17.07A14.82 14.82 0 0028 14.133C28 6.329 21.732 0 14 0S0 6.328 0 14.133a14.82 14.82 0 002.157 7.534c1.058 1.809 2.883 4.645 5.425 8.429a.61.61 0 00.854.166.624.624 0 00.164-.862c-2.528-3.764-4.34-6.577-5.385-8.364a13.59 13.59 0 01-1.987-6.904C1.228 7.011 6.946 1.238 14 1.238s12.773 5.773 12.773 12.894a13.594 13.594 0 01-1.988 6.904c-2.519 4.307-8.94 13.61-10.785 16.266-.574-.827-1.59-2.296-2.786-4.045a.61.61 0 00-.854-.158.623.623 0 00-.156.862 635.857 635.857 0 003.294 4.776zM17.603 5.43a.612.612 0 00.803-.333.622.622 0 00-.329-.811 10.474 10.474 0 00-2.013-.62.62.62 0 00-.239 1.216 9.21 9.21 0 011.78.548h-.002zM14 3.462c-5.22.001-9.658 3.851-10.444 9.062-.786 5.21 2.315 10.219 7.299 11.789 4.983 1.57 10.356-.77 12.645-5.507 2.289-4.737.808-10.45-3.485-13.45a.61.61 0 00-.855.157.623.623 0 00.155.863c3.797 2.65 5.107 7.702 3.084 11.891-2.024 4.189-6.774 6.258-11.18 4.87-4.407-1.388-7.149-5.817-6.454-10.424C5.46 8.106 9.384 4.702 14 4.702c.34 0 .614-.278.614-.62a.617.617 0 00-.614-.62zm-2.767 8.683h8.885c.251 0 .478.155.57.391a.623.623 0 01-.152.68v2.195c0 .383-.104.758-.301 1.084.192.201.3.47.301.75a.618.618 0 01-.534.613.614.614 0 01-.673-.455l-.62.071-.507.057-7.02.785a.514.514 0 00-.449.533.514.514 0 00.49.494h7.686c.34 0 .614.278.614.62 0 .343-.275.62-.614.62h-1.06a.93.93 0 01-.285 1.09.908.908 0 01-1.117 0 .93.93 0 01-.285-1.09h-2.957a.93.93 0 01-.285 1.092.909.909 0 01-1.118 0 .93.93 0 01-.285-1.092h-.299c-.014 0-.043 0-.058-.002a1.743 1.743 0 01-1.65-1.551 1.752 1.752 0 011.258-1.888L9.556 9.35H8.493a.616.616 0 01-.646.546.617.617 0 01-.578-.617c0-.645.518-1.168 1.157-1.168h1.189a1.155 1.155 0 011.144.987l.474 3.047zm8.03 3.532H11.79l.203 1.302 5.75-.644.83-.093a.825.825 0 00.69-.565zm-7.83-2.292l.165 1.053h7.71v-1.053h-7.874z" fill="#175CFF"/></symbol><symbol id="icon-game" viewBox="0 0 32 33"><path d="M10.955 15.483c-1.07 0-1.941.87-1.941 1.941 0 1.07.87 1.942 1.941 1.942 1.07 0 1.941-.872 1.941-1.942 0-1.07-.87-1.941-1.941-1.941zm0 2.943a1.003 1.003 0 010-2.004 1.003 1.003 0 010 2.004zm8.149-1.002c0 1.07.87 1.942 1.94 1.942a1.945 1.945 0 001.942-1.942c0-1.07-.87-1.941-1.941-1.941-1.07 0-1.942.87-1.942 1.941zm1.94-1.002a1.003 1.003 0 010 2.004 1.003 1.003 0 010-2.004z"/><path d="M31.947 24.03l-2.118-12.61a5.85 5.85 0 00-3.576-4.593v-.871a1.41 1.41 0 00-1.409-1.409h-1.771a1.41 1.41 0 00-1.409 1.409V6.9c-.625.28-1.2.672-1.703 1.168h-7.922A5.814 5.814 0 0010.336 6.9v-.943a1.41 1.41 0 00-1.409-1.409H7.156a1.41 1.41 0 00-1.409 1.409v.872a5.85 5.85 0 00-3.576 4.592l-.682 4.06a.47.47 0 00.926.156l.676-4.022a.471.471 0 00.01-.052A4.908 4.908 0 017.95 7.331c1.295 0 2.503.497 3.423 1.4v.642c0 .95.772 1.722 1.722 1.722h1.966a.47.47 0 100-.94h-1.966a.784.784 0 01-.783-.782v-.366h7.376v.366a.784.784 0 01-.783.782H16.94a.47.47 0 000 .94h1.966c.95 0 1.722-.773 1.722-1.722V8.73a4.843 4.843 0 013.423-1.4 4.908 4.908 0 014.85 4.232.467.467 0 00.01.052l2.11 12.57a2.844 2.844 0 01-1.722 3.111 2.827 2.827 0 01-2.277-.038 2.828 2.828 0 01-1.525-1.69l-.433-1.288a.47.47 0 10-.89.3l.432 1.286a3.809 3.809 0 002.027 2.247 3.798 3.798 0 003.026.05 3.778 3.778 0 002.288-4.133zM6.686 6.532v-.575c0-.259.21-.47.469-.47h1.771a.47.47 0 01.47.47v.615a5.88 5.88 0 00-2.71-.04zm15.916.04v-.615a.47.47 0 01.47-.47h1.771c.26 0 .47.211.47.47v.575a5.88 5.88 0 00-2.71.04z"/><path d="M24.465 22.498l-.835-2.485a.47.47 0 00-.722-.23 2.944 2.944 0 01-1.745.568 2.942 2.942 0 01-2.138-.911.47.47 0 00-.338-.144h-5.374a.47.47 0 00-.338.144 2.942 2.942 0 01-2.138.91 2.944 2.944 0 01-1.745-.567.47.47 0 00-.722.23l-1.866 5.554a2.828 2.828 0 01-1.525 1.691 2.828 2.828 0 01-2.277.038A2.843 2.843 0 01.98 24.185l1.124-6.694a.47.47 0 10-.926-.155L.054 24.029a3.778 3.778 0 002.288 4.134 3.799 3.799 0 003.026-.05 3.808 3.808 0 002.027-2.247l1.678-4.996c.543.276 1.143.42 1.764.42a3.87 3.87 0 002.67-1.055h4.987a3.87 3.87 0 002.67 1.055c.62 0 1.22-.144 1.763-.42l.648 1.927a.47.47 0 10.89-.299zM7.988 9.312c-.809 0-1.466.657-1.466 1.466v.106h-.107c-.808 0-1.466.658-1.466 1.466 0 .808.658 1.466 1.466 1.466h.107v.106a1.467 1.467 0 002.932 0v-.106h.106c.808 0 1.466-.658 1.466-1.466 0-.808-.658-1.466-1.466-1.466h-.106v-.106c0-.809-.658-1.466-1.466-1.466zm1.572 2.511a.527.527 0 010 1.054h-.576a.47.47 0 00-.47.47v.575a.527.527 0 01-1.053 0v-.576a.47.47 0 00-.47-.47h-.576a.527.527 0 010-1.053h.576c.26 0 .47-.21.47-.47v-.575a.527.527 0 011.053 0v.576c0 .259.21.47.47.47h.576zM24.334 8.67a1.373 1.373 0 000 2.743 1.373 1.373 0 000-2.743zm0 1.804a.433.433 0 11.001-.866.433.433 0 010 .866zm0 2.812a1.373 1.373 0 000 2.743 1.373 1.373 0 000-2.743zm0 1.803a.433.433 0 11.001-.865.433.433 0 010 .865zm3.68-2.739a1.373 1.373 0 10-1.372 1.371c.757 0 1.372-.616 1.372-1.372zm-1.804 0a.433.433 0 11.866 0 .433.433 0 01-.866 0zm-5.556 0a1.372 1.372 0 002.743 0 1.373 1.373 0 00-2.743-.001zm1.803 0a.433.433 0 11-.865-.002.433.433 0 01.866.001zm-7.844 1.818a.47.47 0 100-.94h-1.406a.47.47 0 100 .94h1.406zm4.179-.939h-1.405a.47.47 0 100 .94h1.405a.47.47 0 100-.94z"/></symbol><symbol id="icon-garanty" viewBox="0 0 40 40"><path d="M20.26 39.952a.66.66 0 01-.495 0c-6.695-2.728-11.383-6.784-13.93-12.058-2.017-4.175-2.25-8.234-2.25-10.924V8.004c0-.362.293-.656.655-.656 1.542 0 2.686-.431 3.398-1.283 1.266-1.515.85-3.925.845-3.949a.656.656 0 01.538-.764C9.356 1.297 17.249 0 20.013 0c2.026.087 4.045.289 6.047.606a.655.655 0 01-.179 1.298 53.164 53.164 0 00-5.868-.593c-2.226 0-8.226.926-10.166 1.235.065.999 0 2.913-1.198 4.352-.861 1.034-2.122 1.617-3.754 1.738v8.336c0 3.814 0 15.38 15.118 21.664C35.13 32.353 35.13 20.786 35.13 16.972V8.635c-1.633-.12-2.894-.703-3.754-1.737-1.198-1.439-1.263-3.354-1.198-4.352-.418-.067-1.024-.162-1.741-.271a.656.656 0 11.196-1.296c1.393.21 2.371.374 2.371.374a.655.655 0 01.538.766c-.004.023-.42 2.434.846 3.948.711.85 1.855 1.283 3.397 1.283.362 0 .656.293.656.655v8.967c0 2.69-.234 6.748-2.252 10.924-2.547 5.272-7.234 9.33-13.93 12.056zm12.425-22.084c-.01.586-.038 1.123-.08 1.64a.655.655 0 00.6.707l.055.003c.34 0 .624-.262.652-.602.045-.546.072-1.11.083-1.724a.656.656 0 00-1.31-.023v-.001zM34 10.136a.655.655 0 00-.482-.632 5.824 5.824 0 01-3.011-1.883 6.59 6.59 0 01-1.428-3.61.656.656 0 00-.553-.58c-2.427-.37-6.762-.993-8.514-.993-1.753 0-6.087.622-8.515.992a.655.655 0 00-.553.58 6.597 6.597 0 01-1.428 3.611 5.817 5.817 0 01-3.01 1.883.655.655 0 00-.483.632v6.836c0 3.527 0 14.262 13.724 20.322.168.075.36.075.53 0 7.688-3.395 12.196-8.707 13.397-15.788a.655.655 0 00-1.292-.22c-1.11 6.54-5.27 11.481-12.37 14.692C7.333 30.242 7.335 20.266 7.335 16.972v-6.353a7.114 7.114 0 003.19-2.16 7.708 7.708 0 001.658-3.807c2.134-.32 6.233-.904 7.83-.904 1.596 0 5.696.583 7.829.902a7.708 7.708 0 001.659 3.808 7.113 7.113 0 003.19 2.16v5.008a.656.656 0 001.31 0v-5.49zM12.911 19.5c.203 0 .398.08.541.224l3.553 3.553a.655.655 0 00.927 0l2.193-2.191a.655.655 0 10-.927-.927l-1.728 1.728-3.09-3.089a2.076 2.076 0 00-2.936 2.936l4.557 4.557c.81.811 2.125.811 2.936 0l9.645-9.645a2.076 2.076 0 00-2.936-2.937l-3.043 3.043a.655.655 0 10.927.926l3.043-3.043a.783.783 0 011.083 0 .766.766 0 010 1.082l-9.646 9.647a.786.786 0 01-1.083 0l-4.557-4.558a.767.767 0 01.541-1.306zm8.587.21l.637-.636a.655.655 0 10-.927-.927l-.637.637a.656.656 0 00.927.927z" fill="#175CFF"/></symbol><symbol id="icon-glass" viewBox="0 0 32 33"><g clip-path="url(#clip0)"><path d="M22.4 32.5a2.133 2.133 0 002.134-2.134v-25.6A2.133 2.133 0 0022.4 2.631c-3.46-.06-6.88-.747-10.095-2.027A1.6 1.6 0 0010.133 2.1v.533H9.6a2.133 2.133 0 00-2.134 2.133v25.601c0 1.178.955 2.134 2.134 2.134h12.8zm1.067-27.735V27.7c0 .583-.468 1.058-1.05 1.067a29.988 29.988 0 01-10.895-2.336.529.529 0 01-.322-.49V3.944l1.137 1.212c.404.43.967.674 1.556.675h4.214a2.13 2.13 0 001.556-.675L21.03 3.7h1.37c.59 0 1.067.477 1.067 1.066zM12.43 3.7h7.138l-.685.73a1.067 1.067 0 01-.777.336h-4.214a1.07 1.07 0 01-.778-.337l-.684-.73zm-1.231-1.6a.534.534 0 01.722-.499c1.047.402 2.097.741 3.143 1.03H11.2V2.1zM8.533 4.765c0-.589.478-1.066 1.067-1.066h.533v22.24a1.595 1.595 0 00.976 1.474c1.29.535 2.611.987 3.958 1.353H9.6c-.59 0-1.067-.477-1.067-1.066V4.765zm0 25.601v-.83a2.11 2.11 0 001.067.297h12.9v-.01a2.1 2.1 0 00.967-.287v.83c0 .59-.478 1.067-1.067 1.067H9.6c-.59 0-1.067-.478-1.067-1.067z"/><path fill-rule="evenodd" clip-rule="evenodd" d="M12.8 9.032a.533.533 0 00.377-.156l1.067-1.067a.533.533 0 00-.755-.754l-1.066 1.067a.533.533 0 00.377.91zm3.89-1.977l-4.267 4.267a.533.533 0 10.754.754l4.267-4.267a.533.533 0 00-.755-.754z"/></g></symbol><symbol id="icon-heart" viewBox="0 0 23 20"><path d="M11.5 1.654c2.702-2.282 6.877-2.206 9.48.247 2.6 2.454 2.69 6.362.27 8.911L11.5 20l-9.75-9.188c-2.42-2.55-2.329-6.464.272-8.911 2.604-2.45 6.77-2.532 9.48-.247zm7.85 1.776c-1.724-1.625-4.507-1.691-6.313-.166L11.502 4.56 9.966 3.265c-1.811-1.527-4.589-1.46-6.318.167-1.714 1.612-1.8 4.193-.221 5.898l8.073 7.607 8.073-7.606c1.58-1.706 1.494-4.284-.222-5.901z"/></symbol><symbol id="icon-home" viewBox="0 0 32 33"><g clip-path="url(#clip0)"><path d="M29.333 6.9a.533.533 0 01-.533-.533A2.67 2.67 0 0026.133 3.7a.533.533 0 010-1.067 3.738 3.738 0 013.734 3.734.533.533 0 01-.534.533z"/><path d="M27.2 6.9a.533.533 0 01-.533-.533.533.533 0 00-.534-.534.533.533 0 010-1.066 1.6 1.6 0 011.6 1.6.533.533 0 01-.533.533zm4.267 0a.533.533 0 01-.534-.533 4.806 4.806 0 00-4.8-4.8.533.533 0 010-1.067A5.874 5.874 0 0132 6.367a.533.533 0 01-.533.533zm-28.8 0a.533.533 0 01-.534-.533 3.738 3.738 0 013.734-3.734.533.533 0 010 1.067A2.67 2.67 0 003.2 6.367a.533.533 0 01-.533.533z"/><path d="M4.8 6.9a.533.533 0 01-.533-.533 1.6 1.6 0 011.6-1.6.533.533 0 010 1.066.533.533 0 00-.534.534.533.533 0 01-.533.533zm-4.267 0A.533.533 0 010 6.367 5.874 5.874 0 015.867.5a.533.533 0 010 1.067 4.806 4.806 0 00-4.8 4.8.533.533 0 01-.534.533zM16 28.233a3.2 3.2 0 100-6.4 3.2 3.2 0 000 6.4zm0-5.333a2.133 2.133 0 110 4.267 2.133 2.133 0 010-4.267zm0-10.133a1.6 1.6 0 100-3.2 1.6 1.6 0 000 3.2zm0-2.134a.533.533 0 110 1.067.533.533 0 010-1.067zm5.196 0v.004h.004l-.004-.004zm-11.063 0h3.2V11.7h-3.2v-1.067z"/><path d="M18.666 10.633h3.2V11.7h-3.2v-1.067z"/><path d="M16 3.7a14.4 14.4 0 106.092 27.448A14.4 14.4 0 0016 3.7zm0 1.067c7.152.009 13.026 5.653 13.32 12.8h-1.067C27.948 11.02 22.552 5.872 16 5.872c-6.553 0-11.948 5.15-12.254 11.695H2.68C2.973 10.42 8.847 4.776 16 4.767zm1.94 16.366a5.333 5.333 0 013.393 4.967v1.843a11.157 11.157 0 01-10.667 0V26.1a5.333 5.333 0 017.275-4.967zM22.4 26.1a6.4 6.4 0 00-12.8 0v1.182a11.17 11.17 0 01-2.134-16.419V13.3a2.67 2.67 0 002.667 2.667h11.733a2.67 2.67 0 002.667-2.667v-2.437a11.17 11.17 0 01-2.133 16.42V26.1zM8.533 9.776a11.131 11.131 0 0114.933 0V13.3a1.6 1.6 0 01-1.6 1.6H10.133a1.6 1.6 0 01-1.6-1.6V9.776zm-5.847 8.857h1.066A12.316 12.316 0 009.6 28.55v1.243a13.386 13.386 0 01-6.914-11.16zm7.98 11.683V29.14a12.194 12.194 0 0010.667 0v1.178a13.293 13.293 0 01-10.667 0v-.002zm11.734-.523V28.55a12.317 12.317 0 005.848-9.917h1.067a13.386 13.386 0 01-6.915 11.16z"/></g></symbol><symbol id="icon-notebook" viewBox="0 0 32 33"><path d="M31.53 25.73h-1.158v-1.516a.47.47 0 00-.47-.47h-18.44a.47.47 0 100 .94h17.97v1.045H6.429v-1.045h3.155a.47.47 0 100-.94H5.958a.47.47 0 00-.47.47v1.515H3.99v-1.32L19.421 8.978a.47.47 0 00-.664-.665L3.326 23.744H1.603L21.238 4.11a1.69 1.69 0 012.008-.285l-3.159 3.16a.47.47 0 00.664.663l3.538-3.538a.47.47 0 000-.664 2.63 2.63 0 00-3.715 0L.138 23.882a.476.476 0 00-.138.332v3.76a2.351 2.351 0 002.348 2.349h15.47a.47.47 0 100-.94H2.349A1.41 1.41 0 01.94 27.974v-1.306h30.122v1.306a1.41 1.41 0 01-1.41 1.41h-9.953a.47.47 0 000 .939h9.954A2.351 2.351 0 0032 27.974V26.2a.47.47 0 00-.47-.47zM3.05 24.682v1.046H.94v-1.046h2.11z"/><path d="M28.32 28.495a.47.47 0 100-.94h-1.599a.47.47 0 100 .94h1.6zm-3.944 0a.47.47 0 100-.94h-1.6a.47.47 0 000 .94h1.6z"/></symbol><symbol id="icon-original" viewBox="0 0 40 40"><path d="M29.727 19.353c0-.655-.304-1.273-.827-1.68a2.11 2.11 0 00.317-2.288 2.19 2.19 0 00-1.986-1.243h-4.864l.201-.52a7.05 7.05 0 00.477-2.555v-.078c0-.664-.275-1.3-.76-1.761a2.536 2.536 0 00-1.82-.692c-1.37.072-2.441 1.187-2.43 2.532 0 .636-.912 2.1-1.652 3.075h-5.485a.619.619 0 00-.625.613v12.259c0 .338.28.612.625.612H20a.619.619 0 00.625-.612.619.619 0 00-.625-.613h-2.683V14.963c.53-.686 1.969-2.667 1.969-3.895A1.291 1.291 0 0120.5 9.76c.34-.01.67.115.913.347.244.232.382.55.382.883v.078a5.87 5.87 0 01-.396 2.12l-.521 1.352a.602.602 0 00.07.565.63.63 0 00.514.265h5.768a.93.93 0 01.939.92.93.93 0 01-.939.92.619.619 0 00-.625.612c0 .338.28.613.625.613h.308a.93.93 0 01.94.92.93.93 0 01-.94.92h-.308a.619.619 0 00-.625.612c0 .338.28.613.625.613a.93.93 0 01.939.92.93.93 0 01-.939.92h-.978a.619.619 0 00-.625.612c0 .338.28.612.625.612a.93.93 0 01.939.92.93.93 0 01-.939.92h-4.124a.619.619 0 00-.625.612c0 .339.28.613.625.613h4.124c.79 0 1.52-.416 1.908-1.09a2.107 2.107 0 00-.034-2.165 2.155 2.155 0 001.239-1.482 2.113 2.113 0 00-.466-1.86 2.128 2.128 0 00.828-1.68zm-18.204-3.985h4.544v11.034h-4.544V15.368zm1.841 7.483c-.898 0-1.626.713-1.626 1.594 0 .88.728 1.593 1.626 1.593.898 0 1.627-.713 1.627-1.593-.001-.88-.729-1.593-1.627-1.594zm0 1.962a.372.372 0 01-.376-.369c0-.203.168-.369.377-.368.208 0 .376.165.376.369a.373.373 0 01-.377.368zm26.007-6.271a2.68 2.68 0 000 2.916c.577.888.767 1.966.528 2.993a3.945 3.945 0 01-1.8 2.471 2.708 2.708 0 00-1.292 2.628 3.884 3.884 0 01-.849 2.92 4.045 4.045 0 01-2.717 1.462 2.77 2.77 0 00-2.327 1.817 3.969 3.969 0 01-2.058 2.27 4.098 4.098 0 01-3.095.162 2.823 2.823 0 00-2.901.649A4.063 4.063 0 0120 40a4.063 4.063 0 01-2.86-1.17 2.821 2.821 0 00-2.902-.65 4.096 4.096 0 01-3.094-.161 3.968 3.968 0 01-2.059-2.27A2.77 2.77 0 006.76 33.93a4.045 4.045 0 01-2.717-1.462 3.886 3.886 0 01-.85-2.92 2.708 2.708 0 00-1.29-2.628 3.944 3.944 0 01-1.8-2.471 3.876 3.876 0 01.527-2.992 2.68 2.68 0 000-2.916 3.875 3.875 0 01-.53-2.992 3.944 3.944 0 011.8-2.471.632.632 0 01.861.197.606.606 0 01-.201.844 2.717 2.717 0 00-1.241 1.703 2.67 2.67 0 00.363 2.063 3.888 3.888 0 010 4.23 2.67 2.67 0 00-.363 2.063 2.718 2.718 0 001.24 1.704 3.929 3.929 0 011.874 3.812 2.68 2.68 0 00.585 2.013c.462.568 1.137.93 1.873 1.007 1.551.166 2.866 1.194 3.376 2.639a2.73 2.73 0 001.418 1.564 2.823 2.823 0 002.133.112 4.094 4.094 0 014.21.941 2.8 2.8 0 001.971.807 2.8 2.8 0 001.971-.807 4.094 4.094 0 014.21-.941 2.823 2.823 0 002.133-.112 2.736 2.736 0 001.419-1.564c.51-1.445 1.824-2.473 3.375-2.639a2.787 2.787 0 001.873-1.007 2.677 2.677 0 00.585-2.013 3.93 3.93 0 011.874-3.812 2.72 2.72 0 001.24-1.704 2.67 2.67 0 00-.363-2.063 3.888 3.888 0 010-4.23 2.67 2.67 0 00.364-2.063 2.718 2.718 0 00-1.241-1.704 3.928 3.928 0 01-1.874-3.812 2.678 2.678 0 00-.586-2.013 2.787 2.787 0 00-1.872-1.008c-1.551-.166-2.866-1.193-3.376-2.638a2.736 2.736 0 00-1.419-1.565 2.823 2.823 0 00-2.132-.11 4.095 4.095 0 01-4.21-.942A2.8 2.8 0 0020 1.223a2.8 2.8 0 00-1.971.807 4.095 4.095 0 01-4.21.941 2.823 2.823 0 00-2.133.111 2.736 2.736 0 00-1.418 1.565c-.51 1.445-1.824 2.472-3.375 2.639a2.758 2.758 0 00-2.086 1.31.627.627 0 01-.551.324.627.627 0 01-.551-.324.602.602 0 01.03-.628 3.998 3.998 0 013.027-1.9A2.77 2.77 0 009.085 4.25a3.97 3.97 0 012.06-2.27 4.097 4.097 0 013.094-.162 2.822 2.822 0 002.901-.649A4.063 4.063 0 0120 0a4.06 4.06 0 012.86 1.17c.758.748 1.888 1 2.902.65a4.098 4.098 0 013.094.16 3.97 3.97 0 012.058 2.271 2.77 2.77 0 002.327 1.818 4.045 4.045 0 012.717 1.462c.67.823.976 1.875.85 2.92a2.709 2.709 0 001.29 2.628A3.944 3.944 0 0139.9 15.55a3.874 3.874 0 01-.528 2.993v-.001zM3.062 11.649c.136-.385.18-.795.13-1.199a.615.615 0 01.548-.68c.343-.04.653.2.694.536.07.587.006 1.181-.189 1.74a.629.629 0 01-.794.382.61.61 0 01-.389-.779zm29.178 1.778a13.684 13.684 0 00-1.426-2.071.604.604 0 01.088-.862.634.634 0 01.88.086 14.964 14.964 0 011.552 2.255.602.602 0 01-.009.615.628.628 0 01-.55.296.627.627 0 01-.536-.322l.002.003zm-2.65-4.205a.633.633 0 01-.878.096A13.979 13.979 0 0020 6.326c-6.002.007-11.326 3.779-13.214 9.362-1.889 5.583.083 11.723 4.893 15.242 4.81 3.518 11.378 3.624 16.303.262 4.926-3.362 7.102-9.436 5.401-15.077a.61.61 0 01.425-.751.627.627 0 01.774.404c2.137 7.058-1.303 14.587-8.099 17.727-6.795 3.139-14.912.947-19.107-5.16-4.196-6.107-3.215-14.3 2.31-19.29 5.524-4.989 13.938-5.279 19.807-.684.27.212.313.597.098.861z" fill="#175CFF"/></symbol><symbol id="icon-phone-case" viewBox="0 0 32 33"><g clip-path="url(#clip0)"><path d="M9.216 2.28h-3.55c-.957 0-1.735.779-1.735 1.735 0 .957.778 1.735 1.735 1.735h3.55c.956 0 1.734-.778 1.734-1.735 0-.956-.778-1.735-1.734-1.735zm0 2.532h-3.55a.798.798 0 010-1.594h3.55a.798.798 0 010 1.594zm1.368 3.39a2.545 2.545 0 00-2.543 2.542 2.545 2.545 0 002.543 2.543 2.545 2.545 0 002.542-2.543 2.545 2.545 0 00-2.542-2.542zm0 4.147c-.886 0-1.606-.72-1.606-1.605s.72-1.605 1.606-1.605c.884 0 1.604.72 1.604 1.605s-.72 1.605-1.604 1.605z"/><path d="M29.377 5.75c.26 0 .47-.21.47-.469V3.635A3.138 3.138 0 0026.711.5H4.553a2.401 2.401 0 00-2.399 2.398v22.24a.469.469 0 10.938 0V2.898c0-.805.655-1.46 1.46-1.46H16.62c.794 0 1.455.657 1.455 1.46-.003 28.485.007 27.209-.007 27.35a1.404 1.404 0 01-.018.118 1.482 1.482 0 01-1.135 1.163c-.248.052-.36.022-1.268.03v-.513a1.22 1.22 0 00-1.219-1.218h-.677a.469.469 0 100 .937h.677c.153 0 .281.129.281.281v.514H6.458v-.514c0-.152.128-.28.28-.28h4.825a.469.469 0 100-.938H6.74a1.22 1.22 0 00-1.219 1.218v.514h-.967a1.462 1.462 0 01-1.461-1.46v-2.774a.469.469 0 00-.938 0V30.1a2.401 2.401 0 002.399 2.398c13.212 0 12.194.02 12.52-.044h9.639a3.138 3.138 0 003.134-3.135V7.468a.469.469 0 10-.938 0v21.85a2.2 2.2 0 01-2.197 2.197h-8.16c.17-.233.294-.496.368-.75h7.793c.798 0 1.447-.649 1.447-1.447V3.635a1.45 1.45 0 00-1.447-1.447h-7.807a2.393 2.393 0 00-.39-.75h8.197a2.2 2.2 0 012.197 2.197V5.28c0 .26.21.469.468.469zM19.013 3.125h7.699a.51.51 0 01.51.51v25.683a.51.51 0 01-.51.51h-7.7V3.125z"/></g></symbol><symbol id="icon-phones" viewBox="0 0 32 33"><g clip-path="url(#clip0)"><path d="M16 3.744c5.469 0 9.184 1.78 11.043 5.292a.47.47 0 10.83-.44C25.839 4.754 21.844 2.805 16 2.805c-5.13 0-8.85 1.514-11.06 4.499-1.679 2.268-2.461 5.436-2.263 9.16.149 2.786.781 4.88.808 4.968a.51.51 0 00.008.024l.661 1.814v.002l2.952 8.092v.002l.05.134a3.859 3.859 0 01-2.93-2.417L3.23 26.52a5.597 5.597 0 01-.3-2.979.47.47 0 00-.018-.232c-.01-.027-.92-2.714-1.231-6.174-.182-2.024-.126-3.906.168-5.595.363-2.088 1.093-3.883 2.168-5.334a.47.47 0 10-.754-.56C2.1 7.214 1.313 9.14.925 11.371c-.309 1.768-.37 3.73-.18 5.834.287 3.207 1.059 5.73 1.24 6.293a6.536 6.536 0 00.37 3.361l.996 2.563c.354.91.967 1.683 1.773 2.234a4.807 4.807 0 002.725.843.473.473 0 00.441-.63l-.025-.07 2.593.418a.47.47 0 00.235-.022l1.845-.673a2.326 2.326 0 001.321-1.212 2.327 2.327 0 00.077-1.79l-1.627-4.463a.47.47 0 10-.883.322l1.628 4.462c.128.352.112.733-.046 1.073-.159.34-.44.597-.791.725l-1.404.512-3.78-10.362 1.404-.512a1.404 1.404 0 011.799.837l.544 1.494c.236.578 1.076.266.883-.322l-.545-1.494a2.344 2.344 0 00-3.003-1.398l-1.84.671a.483.483 0 00-.2.137L4.762 22.19l-.381-1.045c-.05-.165-.631-2.18-.766-4.758-.127-2.436.131-5.894 2.083-8.53C7.72 5.129 11.187 3.745 16 3.745zM6.664 21.42l3.553 9.742-2.32-.375L5.129 23.2l1.535-1.78z"/><path d="M31.1 11.516c-.368-2.218-1.124-4.14-2.248-5.713C26.337 2.284 22.013.5 16 .5 11.008.5 7.162 1.737 4.568 4.178c-.439.442.176 1.094.643.684 2.414-2.271 6.044-3.423 10.79-3.423 5.69 0 9.756 1.651 12.085 4.908 2.365 3.308 2.516 7.728 2.227 10.855-.317 3.42-1.216 6.08-1.225 6.107a.47.47 0 00-.019.232 5.597 5.597 0 01-.299 2.979l-.997 2.562a3.859 3.859 0 01-2.929 2.418l.05-.134v-.002l2.951-8.093.662-1.815a.47.47 0 00.008-.024c.073-.238 1.767-5.9.138-10.971a.47.47 0 00-.895.287c1.506 4.685-.056 10.122-.138 10.399l-.38 1.044-1.716-1.989a.483.483 0 00-.2-.136l-1.84-.671a2.327 2.327 0 00-1.79.077 2.327 2.327 0 00-1.212 1.32l-2.818 7.728a2.326 2.326 0 00.077 1.79c.264.568.733.998 1.32 1.212l1.846.673a.477.477 0 00.235.023l2.593-.418-.025.07a.473.473 0 00.44.63 4.81 4.81 0 002.726-.843 4.806 4.806 0 001.773-2.234l.997-2.563a6.537 6.537 0 00.368-3.361c.18-.556.938-3.03 1.233-6.198.194-2.082.144-4.029-.147-5.785zM18.592 29.914a1.394 1.394 0 01-.046-1.072l2.818-7.727c.129-.352.386-.633.726-.791.34-.158.72-.175 1.073-.046l1.403.512-3.779 10.362-1.404-.512a1.394 1.394 0 01-.79-.726zm3.191 1.25l3.553-9.742 1.535 1.78-2.767 7.587-2.32.374z"/></g></symbol><symbol id="icon-search" viewBox="0 0 21 21"><path d="M16.031 14.617l4.283 4.282-1.415 1.415-4.282-4.283A8.96 8.96 0 019 18c-4.968 0-9-4.032-9-9s4.032-9 9-9 9 4.032 9 9a8.96 8.96 0 01-1.969 5.617zm-2.006-.742A6.977 6.977 0 0016 9c0-3.868-3.133-7-7-7-3.868 0-7 3.132-7 7 0 3.867 3.132 7 7 7a6.977 6.977 0 004.875-1.975l.15-.15z" fill="#fff"/></symbol><symbol id="icon-share-arr" viewBox="0 0 12 11"><path d="M12 5L7.333.333V3C2.667 3.667.667 7 0 10.333c1.667-2.333 4-3.4 7.333-3.4v2.734L12 5z"/></symbol><symbol id="icon-smartphone" viewBox="0 0 32 33"><g clip-path="url(#clip0)"><path d="M22.076.5H9.926A2.351 2.351 0 007.58 2.848v5.706a.47.47 0 00.939 0V2.848A1.41 1.41 0 019.927 1.44h1.733l.201.691c.213.73.893 1.24 1.653 1.24h4.974c.76 0 1.44-.51 1.653-1.24l.202-.69h1.733a1.41 1.41 0 011.409 1.408v20.048a.47.47 0 00.94 0V2.848A2.351 2.351 0 0022.074.5zM19.24 1.867a.787.787 0 01-.752.563h-4.974a.787.787 0 01-.751-.563l-.125-.428h6.726l-.124.428zm4.713 22.438a.47.47 0 00-.47.47v5.377a1.41 1.41 0 01-1.408 1.409H9.926a1.41 1.41 0 01-1.409-1.41V10.434a.47.47 0 10-.94 0v19.719a2.35 2.35 0 002.35 2.347h12.149a2.35 2.35 0 002.348-2.348v-5.377a.47.47 0 00-.47-.47z"/><path d="M18.627 30.023a.47.47 0 000-.94h-5.253a.47.47 0 000 .94h5.253zm-5.736-5.913a2.05 2.05 0 01-2.048-2.049 2.05 2.05 0 012.048-2.048 2.05 2.05 0 012.049 2.048 2.05 2.05 0 01-2.049 2.049zm0-3.16a1.112 1.112 0 000 2.222 1.112 1.112 0 00.001-2.222zm6.673 3.16a2.05 2.05 0 01-2.048-2.049 2.05 2.05 0 012.048-2.048 2.05 2.05 0 012.049 2.048 2.05 2.05 0 01-2.049 2.049zm0-3.16a1.112 1.112 0 000 2.222 1.112 1.112 0 00.001-2.222zm-1.678-3.58c-.083 0-.167-.003-.253-.007-.52-.029-1.144-.094-1.824-.36a.469.469 0 01.34-.873c.556.217 1.067.27 1.535.297.955.052 1.558-.28 1.896-.567.03-.028.033-.072-.003-.104l-1.03-.85a.07.07 0 00-.099.01l-.335.405a.469.469 0 01-.276.163c-.13.024-1.323.195-2.777-1.259-1.454-1.454-1.283-2.646-1.259-2.777a.469.469 0 01.163-.276l.406-.335a.07.07 0 00.01-.098l-.85-1.03c-.033-.037-.077-.034-.105-.004-.288.338-.619.941-.566 1.896.052.954.213 1.995 1.517 3.307.114.114.23.222.343.321a.469.469 0 11-.617.705 8.231 8.231 0 01-.416-.39c-1.44-1.462-1.7-2.734-1.763-3.892-.07-1.263.39-2.086.788-2.554a1 1 0 01.763-.353h.008c.3.002.58.136.77.367l.85 1.03a1.008 1.008 0 01-.135 1.418l-.244.2c.018.29.16.963 1 1.802.839.84 1.512.982 1.801 1l.201-.243c.354-.429.99-.49 1.418-.136l1.03.85a1.006 1.006 0 01.015 1.542c-.437.37-1.181.795-2.302.795z"/></g></symbol><symbol id="icon-tablet" viewBox="0 0 32 33"><g clip-path="url(#clip0)"><path d="M23.625 32.5H4.15a2.35 2.35 0 01-2.35-2.348v-19.9a.47.47 0 01.94 0v19.9a1.41 1.41 0 001.41 1.408h19.475a1.41 1.41 0 001.41-1.41V2.849a1.41 1.41 0 00-1.41-1.409H4.15a1.41 1.41 0 00-1.41 1.41v5.525a.47.47 0 01-.939 0V2.848A2.351 2.351 0 014.15.5h19.475a2.35 2.35 0 012.349 2.348v27.304a2.35 2.35 0 01-2.349 2.348z"/><path d="M22.948 28.786H4.828A1.097 1.097 0 013.73 27.69V3.526c0-.604.492-1.096 1.096-1.096h18.12c.605 0 1.096.492 1.096 1.096v16.766a.47.47 0 11-.939 0V3.526a.157.157 0 00-.156-.157H4.828a.157.157 0 00-.157.157V27.69c0 .086.07.157.156.157h18.12c.087 0 .157-.07.157-.157v-5.519a.47.47 0 01.94 0v5.52c0 .603-.492 1.095-1.096 1.095zm-7.844 1.862H12.67a.47.47 0 010-.94h2.434a.47.47 0 010 .94zm13.568-1.04a.47.47 0 01-.398-.22l-1.056-1.692a.47.47 0 01-.072-.248V4.916a1.527 1.527 0 013.052 0v4.396a.47.47 0 01-.94 0V4.916a.587.587 0 00-1.172 0v22.397l.586.939.587-.94v-16.12a.47.47 0 01.94 0v16.257a.47.47 0 01-.072.248l-1.056 1.691a.47.47 0 01-.399.221z"/><path d="M17.801 17.693c0-1.653-.375-3.483-1.003-4.895-.762-1.71-1.824-2.652-2.992-2.652-1.362 0-2.577 1.29-3.334 3.538a.469.469 0 10.888.299c.611-1.815 1.526-2.899 2.446-2.899.45 0 1.323.272 2.135 2.096.578 1.297.923 2.985.923 4.513 0 1.858-1.001 3.115-2.589 3.32v-4.95a.469.469 0 00-.937 0v4.95c-1.588-.205-2.589-1.462-2.589-3.32 0-.629.058-1.287.173-1.956a.469.469 0 10-.924-.159 12.562 12.562 0 00-.186 2.115c0 2.729 1.703 4.068 3.526 4.262v2.086h-2.864a.469.469 0 000 .937h6.824a.469.469 0 100-.937h-3.023v-2.086c1.823-.194 3.526-1.533 3.526-4.262zM16.025 5.848l-.039-.001a2.223 2.223 0 00-1.582.715 2.224 2.224 0 00-1.583-.715h-.039a.469.469 0 00.046.937c.03 0 .718-.011 1.165.798a.469.469 0 00.82 0c.448-.81 1.137-.799 1.166-.798h.011a.469.469 0 00.035-.936zm4.525 4.202l-.039-.002a2.223 2.223 0 00-1.582.715 2.223 2.223 0 00-1.582-.715l-.04.001a.469.469 0 00.035.937h.011c.03-.001.718-.012 1.166.797a.469.469 0 00.82 0c.448-.809 1.136-.798 1.166-.798h.01a.469.469 0 00.035-.936zm-10.345-.521l-.039-.001a2.223 2.223 0 00-1.582.715A2.223 2.223 0 007 9.528h-.038a.469.469 0 00.045.937c.03 0 .718-.011 1.166.798a.469.469 0 00.82 0c.448-.81 1.136-.799 1.165-.798h.011a.469.469 0 00.035-.936z"/></g></symbol><symbol id="icon-tv" viewBox="0 0 32 33"><g clip-path="url(#clip0)"><path d="M11.789 24.275H1.722a.784.784 0 01-.783-.782V5.768c0-.432.352-.783.783-.783H6.37a.47.47 0 100-.939H1.722C.772 4.046 0 4.819 0 5.768v17.725c0 .95.773 1.722 1.722 1.722h2.585l-1.284 1.827a1.208 1.208 0 00-.084 1.256 1.21 1.21 0 001.91.32l3.587-3.403h3.353a.47.47 0 100-.94zm-7.586 3.662a.272.272 0 01-.188.075.267.267 0 01-.242-.148.267.267 0 01.019-.282l1.663-2.367h1.617l-2.87 2.722zm26.075-23.89H8.249a.47.47 0 100 .94h22.029c.432 0 .783.35.783.782v17.724a.784.784 0 01-.783.783h-16.61a.47.47 0 100 .94h9.896l3.587 3.403a1.208 1.208 0 001.91-.32 1.21 1.21 0 00-.084-1.256l-1.284-1.827h2.585c.95 0 1.722-.773 1.722-1.723V5.77c0-.95-.772-1.722-1.722-1.722zm-2.07 23.536a.266.266 0 01.019.282.266.266 0 01-.242.147.272.272 0 01-.188-.074l-2.869-2.722h1.617l1.663 2.367z"/><path d="M23.49 23.209h5.963a.47.47 0 00.47-.47V6.525a.47.47 0 00-.47-.47H2.547a.47.47 0 00-.47.47v16.214c0 .26.21.47.47.47H21.61a.47.47 0 000-.94H3.017V6.995h25.966V22.27h-5.494a.47.47 0 000 .939z"/><path d="M11.579 11.108c0-.775-.631-1.406-1.407-1.406H7.291c-.776 0-1.407.63-1.407 1.406v1.076c0 .775.631 1.406 1.407 1.406h2.881c.776 0 1.407-.63 1.407-1.406v-1.076zm-.938 1.076a.47.47 0 01-.469.469H7.291a.47.47 0 01-.47-.469v-1.076a.47.47 0 01.47-.469h2.881a.47.47 0 01.47.47v1.075zm8.206-1.076c0-.775-.63-1.406-1.406-1.406h-2.882c-.775 0-1.406.63-1.406 1.406v1.076c0 .775.63 1.406 1.406 1.406h2.882c.775 0 1.406-.63 1.406-1.406v-1.076zm-.937 1.076a.47.47 0 01-.47.469h-2.88a.47.47 0 01-.47-.469v-1.076a.47.47 0 01.47-.469h2.88a.47.47 0 01.47.47v1.075zm3.918 1.406h2.881c.776 0 1.407-.63 1.407-1.406v-1.076c0-.775-.631-1.406-1.407-1.406h-2.881c-.776 0-1.407.63-1.407 1.406v1.076c0 .775.631 1.406 1.407 1.406zm-.47-2.482a.47.47 0 01.47-.469h2.881a.47.47 0 01.47.47v1.075a.47.47 0 01-.47.469h-2.881a.47.47 0 01-.47-.469v-1.076zm-11.186 4.35H7.291c-.776 0-1.407.631-1.407 1.407v1.076c0 .775.631 1.406 1.407 1.406h2.881c.776 0 1.407-.631 1.407-1.407v-1.075c0-.776-.631-1.407-1.407-1.407zm.47 2.482a.47.47 0 01-.47.47H7.291a.47.47 0 01-.47-.47v-1.075a.47.47 0 01.47-.47h2.881a.47.47 0 01.47.47v1.076zm6.798-2.482h-2.88c-.776 0-1.407.631-1.407 1.407v1.076c0 .775.63 1.406 1.406 1.406h2.882c.775 0 1.406-.631 1.406-1.407v-1.075c0-.776-.63-1.407-1.406-1.407zm.47 2.482a.47.47 0 01-.47.47h-2.88a.47.47 0 01-.47-.47v-1.075a.47.47 0 01.47-.47h2.88a.47.47 0 01.47.47v1.076zm2.511 0c0 .776.631 1.407 1.407 1.407h2.881c.776 0 1.407-.631 1.407-1.407v-1.075c0-.776-.631-1.407-1.407-1.407h-2.881c-.776 0-1.407.631-1.407 1.407v1.076zm.938-1.075a.47.47 0 01.469-.47h2.881a.47.47 0 01.47.47v1.076a.47.47 0 01-.47.468h-2.881a.47.47 0 01-.47-.468v-1.076z"/></g></symbol><symbol id="icon-user" viewBox="0 0 26 26"><path d="M13 25.5C6.096 25.5.5 19.904.5 13S6.096.5 13 .5 25.5 6.096 25.5 13 19.904 25.5 13 25.5zm-6.234-4.68A9.958 9.958 0 0013 23c2.463 0 4.716-.89 6.459-2.365A8.723 8.723 0 0013.2 18a8.727 8.727 0 00-6.434 2.82zM5.02 19.025A11.218 11.218 0 0113.2 15.5a11.216 11.216 0 017.953 3.293 10 10 0 10-16.133.233v-.001zM13 14.25a5 5 0 110-10 5 5 0 010 10zm0-2.5a2.5 2.5 0 100-5 2.5 2.5 0 000 5z"/></symbol><symbol id="icon-watch" viewBox="0 0 32 33"><g clip-path="url(#clip0)"><path d="M25.554 14.087h-.699a9.973 9.973 0 00-.772-2.088l-1.199-5.484a1.718 1.718 0 00-1.369-1.325l-.96-.178-.664-2.72A2.343 2.343 0 0017.61.5h-5.033a2.343 2.343 0 00-2.28 1.791L9.63 5.012l-.959.178a1.718 1.718 0 00-1.369 1.325l-1.197 5.476a9.995 9.995 0 00-1.07 4.509c0 1.62.386 3.152 1.07 4.51l1.197 5.475a1.718 1.718 0 001.369 1.325l.96.178.664 2.72a2.343 2.343 0 002.281 1.792h5.033a2.343 2.343 0 002.281-1.791.47.47 0 10-.912-.223 1.406 1.406 0 01-1.37 1.075h-5.032a1.406 1.406 0 01-1.368-1.075l-1.314-5.38a9.997 9.997 0 005.199 1.45c1.901 0 3.68-.53 5.199-1.45l-.869 3.555a.47.47 0 00.913.223l.219-.896.96-.178a1.719 1.719 0 001.368-1.325l1.197-5.476a9.98 9.98 0 00.776-2.096h.697a1.41 1.41 0 001.41-1.41v-2.007a1.41 1.41 0 00-1.41-1.409zm-4.21-7.974c.31.058.555.294.622.603l.692 3.163a10.117 10.117 0 00-1.197-1.16l-.66-2.706.543.1zm-13.123.603a.781.781 0 01.622-.603l.544-.1-.662 2.71c-.43.352-.83.74-1.196 1.157l.692-3.164zm1.166 20.271l-.544-.1a.781.781 0 01-.622-.603l-.692-3.165c.366.419.766.806 1.196 1.159l.662 2.71zm12.58-.703a.781.781 0 01-.623.603l-.544.1.662-2.71c.43-.352.83-.74 1.196-1.158l-.692 3.165zm-6.873-.666c-5.028 0-9.118-4.09-9.118-9.118 0-5.027 4.09-9.118 9.118-9.118a.47.47 0 100-.939c-1.902 0-3.681.53-5.2 1.451l1.315-5.38a1.406 1.406 0 011.368-1.075h5.033c.651 0 1.214.442 1.369 1.075l1.313 5.375a9.97 9.97 0 00-3.237-1.255.47.47 0 10-.183.922c4.253.84 7.34 4.602 7.34 8.944 0 5.027-4.09 9.118-9.118 9.118zm10.93-8.114a.47.47 0 01-.47.47h-.512a10.097 10.097 0 000-2.947h.512c.26 0 .47.21.47.47v2.007z"/><path d="M15.094 8.784a7.722 7.722 0 00-7.46 5.732.47.47 0 10.909.241 6.782 6.782 0 016.55-5.033 6.785 6.785 0 016.778 6.777 6.785 6.785 0 01-6.777 6.777 6.785 6.785 0 01-6.778-6.777.47.47 0 10-.94 0c0 4.255 3.463 7.716 7.718 7.716 4.254 0 7.716-3.461 7.716-7.716 0-4.255-3.462-7.717-7.716-7.717z"/><path d="M13.479 16.97a.47.47 0 00.453-.347l.258-.955 1.08 3.2a.47.47 0 00.444.32h.004a.47.47 0 00.444-.326l.606-1.891h1.385a.47.47 0 100-.94h-1.727a.47.47 0 00-.448.326l-.275.859-1.119-3.316a.468.468 0 00-.898.028l-.567 2.103h-1.47a.47.47 0 100 .94h1.83z"/></g></symbol></svg>