<svg width="20" height="20" viewBox="0 0 20 20" fill="none" xmlns="http://www.w3.org/2000/svg">
<path d="M13.9686 14.4746C13.9686 14.5124 13.9686 14.5502 13.961 14.5805C13.961 14.641 13.961 14.5956 13.961 14.5805C13.961 14.5956 13.9534 14.6183 13.9534 14.6334C13.9383 14.709 13.9155 14.7846 13.8852 14.8602C13.908 14.8073 13.8701 14.898 13.8625 14.9056C13.8473 14.9358 13.8322 14.9661 13.8094 14.9963C13.7943 15.0266 13.7715 15.0568 13.7564 15.0795C13.7867 15.0341 13.726 15.1173 13.7109 15.1324C13.6654 15.1854 13.6123 15.2383 13.5517 15.2761C13.5972 15.2383 13.5214 15.2988 13.5062 15.3064C13.4759 15.329 13.438 15.3442 13.4077 15.3669C13.3925 15.3744 13.3773 15.382 13.3622 15.3895C13.3546 15.3895 13.3015 15.4122 13.3394 15.3971C13.3698 15.382 13.3243 15.4047 13.3167 15.4047C13.3015 15.4122 13.2864 15.4122 13.2636 15.4198C13.2333 15.4273 13.1954 15.4425 13.1651 15.45C13.1499 15.45 13.0362 15.4652 13.0968 15.4652C12.968 15.4727 12.8467 15.4727 12.7178 15.4727C12.1265 15.4727 11.5352 15.4727 10.9439 15.4727C10.0949 15.4727 9.25343 15.4727 8.40439 15.4727C7.69181 15.4727 6.97162 15.4727 6.25903 15.4727C6.06952 15.4727 5.88 15.4727 5.69048 15.4727C5.66016 15.4727 5.62986 15.4727 5.59953 15.4727C5.56921 15.4727 5.53887 15.4727 5.50096 15.4727C5.49338 15.4727 5.43274 15.4651 5.47065 15.4727C5.50855 15.4727 5.45549 15.4727 5.44033 15.4652C5.40243 15.4576 5.36453 15.45 5.32662 15.4425C5.2963 15.4349 5.25841 15.4198 5.22809 15.4122C5.17502 15.3971 5.21293 15.4047 5.22809 15.4122C5.21293 15.4047 5.19776 15.3971 5.1826 15.3895C5.11437 15.3593 5.04614 15.3139 4.98549 15.2686C5.03098 15.2988 4.95517 15.2459 4.94759 15.2307C4.92485 15.2081 4.89452 15.1854 4.87178 15.1627C4.84904 15.14 4.8263 15.1098 4.80356 15.0871C4.79598 15.0795 4.77324 15.0417 4.80356 15.0871C4.7884 15.0644 4.77323 15.0493 4.75807 15.0266C4.72017 14.9661 4.68986 14.9056 4.65954 14.8451C4.68228 14.898 4.64436 14.8073 4.64436 14.7922C4.6292 14.7544 4.62162 14.7166 4.61404 14.6788C4.60646 14.6636 4.60646 14.641 4.60646 14.6258C4.60646 14.6183 4.59887 14.5653 4.59887 14.5956C4.59887 14.6334 4.59887 14.5729 4.59887 14.5653C4.59887 14.5502 4.59887 14.5275 4.59887 14.5124C4.59887 14.4973 4.59887 14.4822 4.59887 14.467C4.59887 14.4595 4.59887 14.4444 4.59887 14.4368C4.59887 14.3007 4.59887 14.1646 4.59887 14.0285C4.59887 13.4084 4.59887 12.7884 4.59887 12.1683C4.59887 11.329 4.59887 10.4821 4.59887 9.64281C4.59887 8.86397 4.59887 8.08514 4.59887 7.30631C4.59887 6.8753 4.59887 6.4443 4.59887 6.01329C4.59887 5.98305 4.59887 5.9528 4.59887 5.93012C4.59887 5.89231 4.59888 5.86206 4.60646 5.82426C4.59888 5.88475 4.61404 5.78645 4.61404 5.77133C4.62162 5.73352 4.62919 5.70327 4.63677 5.67303C4.64435 5.6579 4.64437 5.64278 4.65195 5.6201C4.65195 5.61254 4.68228 5.53692 4.65954 5.58985C4.68986 5.52936 4.72017 5.46887 4.75807 5.40837C4.76565 5.39325 4.81871 5.31764 4.78839 5.36301C4.81113 5.33276 4.83387 5.30252 4.86419 5.27983C4.88693 5.24959 4.91726 5.2269 4.94759 5.19666C4.96275 5.18153 5.03098 5.1286 4.98549 5.15885C5.04614 5.11348 5.10677 5.07567 5.16742 5.04543C5.18258 5.03787 5.19775 5.0303 5.21291 5.02274C5.25082 5.00762 5.17501 5.03786 5.21291 5.02274C5.24323 5.00762 5.28112 5.00005 5.31145 4.99249C5.34177 4.98493 5.37969 4.97737 5.41002 4.96981C5.42518 4.96981 5.4479 4.96224 5.46306 4.96224C5.49338 4.95468 5.42517 4.96224 5.47824 4.96224C5.5313 4.96224 5.59196 4.95468 5.64503 4.95468C6.11503 4.95468 6.59259 4.95468 7.06259 4.95468C7.88131 4.95468 8.70003 4.95468 9.52632 4.95468C10.3071 4.95468 11.0955 4.95468 11.8763 4.95468C12.2402 4.95468 12.5965 4.95468 12.9604 4.95468C12.9983 4.95468 13.0438 4.95468 13.0817 4.96224C13.1271 4.96224 13.0362 4.95468 13.0817 4.96224C13.0968 4.96224 13.1196 4.96981 13.1347 4.96981C13.1726 4.97737 13.2105 4.98493 13.2485 5.00005C13.2788 5.00761 13.3167 5.02274 13.347 5.0303C13.2939 5.00762 13.3773 5.04543 13.3925 5.05299C13.4228 5.06811 13.4531 5.08323 13.4835 5.10591C13.4986 5.11348 13.5138 5.12104 13.529 5.13616C13.5365 5.13616 13.6047 5.18909 13.5517 5.15128C13.6047 5.18909 13.6578 5.24202 13.7033 5.28739C13.726 5.31008 13.7488 5.34032 13.7715 5.36301C13.7336 5.31764 13.8018 5.41594 13.817 5.43106C13.8322 5.46131 13.8549 5.49155 13.8701 5.5218C13.8777 5.53692 13.9156 5.62009 13.8928 5.56716C13.9156 5.63522 13.9383 5.70327 13.9534 5.77889C13.9534 5.79401 13.961 5.81669 13.961 5.83182C13.9686 5.87718 13.961 5.78645 13.961 5.83182C13.961 5.86962 13.9686 5.89987 13.9686 5.93768C13.9686 5.94524 13.9686 5.95281 13.9686 5.95281C13.9686 5.96037 13.9686 5.97548 13.9686 5.98304C13.9686 6.03598 13.9686 6.08891 13.9686 6.13427C13.9686 6.65602 13.9686 7.17777 13.9686 7.69951C13.9686 8.50859 13.9686 9.32522 13.9686 10.1343C13.9686 10.9585 13.9686 11.7751 13.9686 12.5993C13.9686 13.1438 13.9686 13.6882 13.9686 14.2251C13.9686 14.3234 13.9686 14.399 13.9686 14.4746C13.9686 14.6258 14.1051 14.7695 14.2567 14.7619C14.4159 14.7544 14.5448 14.6334 14.5448 14.4746C14.5448 14.157 14.5448 13.847 14.5448 13.5294C14.5448 12.7884 14.5448 12.0474 14.5448 11.2988C14.5448 10.4368 14.5448 9.56719 14.5448 8.70518C14.5448 8.01708 14.5448 7.32144 14.5448 6.63334C14.5448 6.17965 14.5827 5.71839 14.3931 5.29495C14.143 4.74296 13.5593 4.39513 12.9604 4.38757C12.8467 4.38757 12.7254 4.38757 12.6117 4.38757C11.9673 4.38757 11.323 4.38757 10.671 4.38757C9.80682 4.38757 8.93505 4.38757 8.07085 4.38757C7.38859 4.38757 6.71388 4.38757 6.03161 4.38757C5.88758 4.38757 5.75116 4.38757 5.60712 4.38757C5.07647 4.38757 4.59886 4.6371 4.28805 5.06055C4.08337 5.34788 4 5.68815 4 6.03598C4 6.20233 4 6.36869 4 6.52748C4 7.19289 4 7.8583 4 8.53127C4 9.39328 4 10.2553 4 11.1173C4 11.8734 4 12.6372 4 13.3933C4 13.7487 4 14.1116 4 14.467C4.00758 15.0417 4.31838 15.5861 4.82629 15.8584C5.09919 16.002 5.39484 16.0474 5.69807 16.0474C6.22872 16.0474 6.76696 16.0474 7.2976 16.0474C8.14664 16.0474 9.00328 16.0474 9.85231 16.0474C10.6104 16.0474 11.376 16.0474 12.1341 16.0474C12.3539 16.0474 12.5738 16.0474 12.7936 16.0474C13.021 16.0474 13.256 16.0398 13.4759 15.9566C14.1051 15.7298 14.5296 15.14 14.5372 14.467C14.5372 14.3158 14.4007 14.1721 14.2491 14.1797C14.1051 14.1948 13.9762 14.3158 13.9686 14.4746Z"/>
<path d="M13.9686 14.4746C13.9686 14.5124 13.9686 14.5502 13.961 14.5805C13.961 14.641 13.961 14.5956 13.961 14.5805C13.961 14.5956 13.9534 14.6183 13.9534 14.6334C13.9383 14.709 13.9155 14.7846 13.8852 14.8602C13.908 14.8073 13.8701 14.898 13.8625 14.9056C13.8473 14.9358 13.8322 14.9661 13.8094 14.9963C13.7943 15.0266 13.7715 15.0568 13.7564 15.0795C13.7867 15.0341 13.726 15.1173 13.7109 15.1324C13.6654 15.1854 13.6123 15.2383 13.5517 15.2761C13.5972 15.2383 13.5214 15.2988 13.5062 15.3064C13.4759 15.329 13.438 15.3442 13.4077 15.3669C13.3925 15.3744 13.3773 15.382 13.3622 15.3895C13.3546 15.3895 13.3015 15.4122 13.3394 15.3971C13.3698 15.382 13.3243 15.4047 13.3167 15.4047C13.3015 15.4122 13.2864 15.4122 13.2636 15.4198C13.2333 15.4273 13.1954 15.4425 13.1651 15.45C13.1499 15.45 13.0362 15.4652 13.0968 15.4652C12.968 15.4727 12.8467 15.4727 12.7178 15.4727C12.1265 15.4727 11.5352 15.4727 10.9439 15.4727C10.0949 15.4727 9.25343 15.4727 8.40439 15.4727C7.69181 15.4727 6.97162 15.4727 6.25903 15.4727C6.06952 15.4727 5.88 15.4727 5.69048 15.4727C5.66016 15.4727 5.62986 15.4727 5.59953 15.4727C5.56921 15.4727 5.53887 15.4727 5.50096 15.4727C5.49338 15.4727 5.43274 15.4651 5.47065 15.4727C5.50855 15.4727 5.45549 15.4727 5.44033 15.4652C5.40243 15.4576 5.36453 15.45 5.32662 15.4425C5.2963 15.4349 5.25841 15.4198 5.22809 15.4122C5.17502 15.3971 5.21293 15.4047 5.22809 15.4122C5.21293 15.4047 5.19776 15.3971 5.1826 15.3895C5.11437 15.3593 5.04614 15.3139 4.98549 15.2686C5.03098 15.2988 4.95517 15.2459 4.94759 15.2307C4.92485 15.2081 4.89452 15.1854 4.87178 15.1627C4.84904 15.14 4.8263 15.1098 4.80356 15.0871C4.79598 15.0795 4.77324 15.0417 4.80356 15.0871C4.7884 15.0644 4.77323 15.0493 4.75807 15.0266C4.72017 14.9661 4.68986 14.9056 4.65954 14.8451C4.68228 14.898 4.64436 14.8073 4.64436 14.7922C4.6292 14.7544 4.62162 14.7166 4.61404 14.6788C4.60646 14.6636 4.60646 14.641 4.60646 14.6258C4.60646 14.6183 4.59887 14.5653 4.59887 14.5956C4.59887 14.6334 4.59887 14.5729 4.59887 14.5653C4.59887 14.5502 4.59887 14.5275 4.59887 14.5124C4.59887 14.4973 4.59887 14.4822 4.59887 14.467C4.59887 14.4595 4.59887 14.4444 4.59887 14.4368C4.59887 14.3007 4.59887 14.1646 4.59887 14.0285C4.59887 13.4084 4.59887 12.7884 4.59887 12.1683C4.59887 11.329 4.59887 10.4821 4.59887 9.64281C4.59887 8.86397 4.59887 8.08514 4.59887 7.30631C4.59887 6.8753 4.59887 6.4443 4.59887 6.01329C4.59887 5.98305 4.59887 5.9528 4.59887 5.93012C4.59887 5.89231 4.59888 5.86206 4.60646 5.82426C4.59888 5.88475 4.61404 5.78645 4.61404 5.77133C4.62162 5.73352 4.62919 5.70327 4.63677 5.67303C4.64435 5.6579 4.64437 5.64278 4.65195 5.6201C4.65195 5.61254 4.68228 5.53692 4.65954 5.58985C4.68986 5.52936 4.72017 5.46887 4.75807 5.40837C4.76565 5.39325 4.81871 5.31764 4.78839 5.36301C4.81113 5.33276 4.83387 5.30252 4.86419 5.27983C4.88693 5.24959 4.91726 5.2269 4.94759 5.19666C4.96275 5.18153 5.03098 5.1286 4.98549 5.15885C5.04614 5.11348 5.10677 5.07567 5.16742 5.04543C5.18258 5.03787 5.19775 5.0303 5.21291 5.02274C5.25082 5.00762 5.17501 5.03786 5.21291 5.02274C5.24323 5.00762 5.28112 5.00005 5.31145 4.99249C5.34177 4.98493 5.37969 4.97737 5.41002 4.96981C5.42518 4.96981 5.4479 4.96224 5.46306 4.96224C5.49338 4.95468 5.42517 4.96224 5.47824 4.96224C5.5313 4.96224 5.59196 4.95468 5.64503 4.95468C6.11503 4.95468 6.59259 4.95468 7.06259 4.95468C7.88131 4.95468 8.70003 4.95468 9.52632 4.95468C10.3071 4.95468 11.0955 4.95468 11.8763 4.95468C12.2402 4.95468 12.5965 4.95468 12.9604 4.95468C12.9983 4.95468 13.0438 4.95468 13.0817 4.96224C13.1271 4.96224 13.0362 4.95468 13.0817 4.96224C13.0968 4.96224 13.1196 4.96981 13.1347 4.96981C13.1726 4.97737 13.2105 4.98493 13.2485 5.00005C13.2788 5.00761 13.3167 5.02274 13.347 5.0303C13.2939 5.00762 13.3773 5.04543 13.3925 5.05299C13.4228 5.06811 13.4531 5.08323 13.4835 5.10591C13.4986 5.11348 13.5138 5.12104 13.529 5.13616C13.5365 5.13616 13.6047 5.18909 13.5517 5.15128C13.6047 5.18909 13.6578 5.24202 13.7033 5.28739C13.726 5.31008 13.7488 5.34032 13.7715 5.36301C13.7336 5.31764 13.8018 5.41594 13.817 5.43106C13.8322 5.46131 13.8549 5.49155 13.8701 5.5218C13.8777 5.53692 13.9156 5.62009 13.8928 5.56716C13.9156 5.63522 13.9383 5.70327 13.9534 5.77889C13.9534 5.79401 13.961 5.81669 13.961 5.83182C13.9686 5.87718 13.961 5.78645 13.961 5.83182C13.961 5.86962 13.9686 5.89987 13.9686 5.93768C13.9686 5.94524 13.9686 5.95281 13.9686 5.95281C13.9686 5.96037 13.9686 5.97548 13.9686 5.98304C13.9686 6.03598 13.9686 6.08891 13.9686 6.13427C13.9686 6.65602 13.9686 7.17777 13.9686 7.69951C13.9686 8.50859 13.9686 9.32522 13.9686 10.1343C13.9686 10.9585 13.9686 11.7751 13.9686 12.5993C13.9686 13.1438 13.9686 13.6882 13.9686 14.2251C13.9686 14.3234 13.9686 14.399 13.9686 14.4746C13.9686 14.6258 14.1051 14.7695 14.2567 14.7619C14.4159 14.7544 14.5448 14.6334 14.5448 14.4746C14.5448 14.157 14.5448 13.847 14.5448 13.5294C14.5448 12.7884 14.5448 12.0474 14.5448 11.2988C14.5448 10.4368 14.5448 9.56719 14.5448 8.70518C14.5448 8.01708 14.5448 7.32144 14.5448 6.63334C14.5448 6.17965 14.5827 5.71839 14.3931 5.29495C14.143 4.74296 13.5593 4.39513 12.9604 4.38757C12.8467 4.38757 12.7254 4.38757 12.6117 4.38757C11.9673 4.38757 11.323 4.38757 10.671 4.38757C9.80682 4.38757 8.93505 4.38757 8.07085 4.38757C7.38859 4.38757 6.71388 4.38757 6.03161 4.38757C5.88758 4.38757 5.75116 4.38757 5.60712 4.38757C5.07647 4.38757 4.59886 4.6371 4.28805 5.06055C4.08337 5.34788 4 5.68815 4 6.03598C4 6.20233 4 6.36869 4 6.52748C4 7.19289 4 7.8583 4 8.53127C4 9.39328 4 10.2553 4 11.1173C4 11.8734 4 12.6372 4 13.3933C4 13.7487 4 14.1116 4 14.467C4.00758 15.0417 4.31838 15.5861 4.82629 15.8584C5.09919 16.002 5.39484 16.0474 5.69807 16.0474C6.22872 16.0474 6.76696 16.0474 7.2976 16.0474C8.14664 16.0474 9.00328 16.0474 9.85231 16.0474C10.6104 16.0474 11.376 16.0474 12.1341 16.0474C12.3539 16.0474 12.5738 16.0474 12.7936 16.0474C13.021 16.0474 13.256 16.0398 13.4759 15.9566C14.1051 15.7298 14.5296 15.14 14.5372 14.467C14.5372 14.3158 14.4007 14.1721 14.2491 14.1797C14.1051 14.1948 13.9762 14.3158 13.9686 14.4746Z"/>
<path d="M13.9686 14.4746C13.9686 14.5124 13.9686 14.5502 13.961 14.5805C13.961 14.641 13.961 14.5956 13.961 14.5805C13.961 14.5956 13.9534 14.6183 13.9534 14.6334C13.9383 14.709 13.9155 14.7846 13.8852 14.8602C13.908 14.8073 13.8701 14.898 13.8625 14.9056C13.8473 14.9358 13.8322 14.9661 13.8094 14.9963C13.7943 15.0266 13.7715 15.0568 13.7564 15.0795C13.7867 15.0341 13.726 15.1173 13.7109 15.1324C13.6654 15.1854 13.6123 15.2383 13.5517 15.2761C13.5972 15.2383 13.5214 15.2988 13.5062 15.3064C13.4759 15.329 13.438 15.3442 13.4077 15.3669C13.3925 15.3744 13.3773 15.382 13.3622 15.3895C13.3546 15.3895 13.3015 15.4122 13.3394 15.3971C13.3698 15.382 13.3243 15.4047 13.3167 15.4047C13.3015 15.4122 13.2864 15.4122 13.2636 15.4198C13.2333 15.4273 13.1954 15.4425 13.1651 15.45C13.1499 15.45 13.0362 15.4652 13.0968 15.4652C12.968 15.4727 12.8467 15.4727 12.7178 15.4727C12.1265 15.4727 11.5352 15.4727 10.9439 15.4727C10.0949 15.4727 9.25343 15.4727 8.40439 15.4727C7.69181 15.4727 6.97162 15.4727 6.25903 15.4727C6.06952 15.4727 5.88 15.4727 5.69048 15.4727C5.66016 15.4727 5.62986 15.4727 5.59953 15.4727C5.56921 15.4727 5.53887 15.4727 5.50096 15.4727C5.49338 15.4727 5.43274 15.4651 5.47065 15.4727C5.50855 15.4727 5.45549 15.4727 5.44033 15.4652C5.40243 15.4576 5.36453 15.45 5.32662 15.4425C5.2963 15.4349 5.25841 15.4198 5.22809 15.4122C5.17502 15.3971 5.21293 15.4047 5.22809 15.4122C5.21293 15.4047 5.19776 15.3971 5.1826 15.3895C5.11437 15.3593 5.04614 15.3139 4.98549 15.2686C5.03098 15.2988 4.95517 15.2459 4.94759 15.2307C4.92485 15.2081 4.89452 15.1854 4.87178 15.1627C4.84904 15.14 4.8263 15.1098 4.80356 15.0871C4.79598 15.0795 4.77324 15.0417 4.80356 15.0871C4.7884 15.0644 4.77323 15.0493 4.75807 15.0266C4.72017 14.9661 4.68986 14.9056 4.65954 14.8451C4.68228 14.898 4.64436 14.8073 4.64436 14.7922C4.6292 14.7544 4.62162 14.7166 4.61404 14.6788C4.60646 14.6636 4.60646 14.641 4.60646 14.6258C4.60646 14.6183 4.59887 14.5653 4.59887 14.5956C4.59887 14.6334 4.59887 14.5729 4.59887 14.5653C4.59887 14.5502 4.59887 14.5275 4.59887 14.5124C4.59887 14.4973 4.59887 14.4822 4.59887 14.467C4.59887 14.4595 4.59887 14.4444 4.59887 14.4368C4.59887 14.3007 4.59887 14.1646 4.59887 14.0285C4.59887 13.4084 4.59887 12.7884 4.59887 12.1683C4.59887 11.329 4.59887 10.4821 4.59887 9.64281C4.59887 8.86397 4.59887 8.08514 4.59887 7.30631C4.59887 6.8753 4.59887 6.4443 4.59887 6.01329C4.59887 5.98305 4.59887 5.9528 4.59887 5.93012C4.59887 5.89231 4.59888 5.86206 4.60646 5.82426C4.59888 5.88475 4.61404 5.78645 4.61404 5.77133C4.62162 5.73352 4.62919 5.70327 4.63677 5.67303C4.64435 5.6579 4.64437 5.64278 4.65195 5.6201C4.65195 5.61254 4.68228 5.53692 4.65954 5.58985C4.68986 5.52936 4.72017 5.46887 4.75807 5.40837C4.76565 5.39325 4.81871 5.31764 4.78839 5.36301C4.81113 5.33276 4.83387 5.30252 4.86419 5.27983C4.88693 5.24959 4.91726 5.2269 4.94759 5.19666C4.96275 5.18153 5.03098 5.1286 4.98549 5.15885C5.04614 5.11348 5.10677 5.07567 5.16742 5.04543C5.18258 5.03787 5.19775 5.0303 5.21291 5.02274C5.25082 5.00762 5.17501 5.03786 5.21291 5.02274C5.24323 5.00762 5.28112 5.00005 5.31145 4.99249C5.34177 4.98493 5.37969 4.97737 5.41002 4.96981C5.42518 4.96981 5.4479 4.96224 5.46306 4.96224C5.49338 4.95468 5.42517 4.96224 5.47824 4.96224C5.5313 4.96224 5.59196 4.95468 5.64503 4.95468C6.11503 4.95468 6.59259 4.95468 7.0626 4.95468C7.88131 4.95468 8.70003 4.95468 9.52632 4.95468C10.3071 4.95468 11.0955 4.95468 11.8763 4.95468C12.2402 4.95468 12.5965 4.95468 12.9604 4.95468C12.9983 4.95468 13.0438 4.95468 13.0817 4.96224C13.1271 4.96224 13.0362 4.95468 13.0817 4.96224C13.0968 4.96224 13.1196 4.96981 13.1347 4.96981C13.1726 4.97737 13.2105 4.98493 13.2485 5.00005C13.2788 5.00761 13.3167 5.02274 13.347 5.0303C13.2939 5.00762 13.3773 5.04543 13.3925 5.05299C13.4228 5.06811 13.4531 5.08323 13.4835 5.10591C13.4986 5.11348 13.5138 5.12104 13.529 5.13616C13.5365 5.13616 13.6047 5.18909 13.5517 5.15128C13.6047 5.18909 13.6578 5.24202 13.7033 5.28739C13.726 5.31008 13.7488 5.34032 13.7715 5.36301C13.7336 5.31764 13.8018 5.41594 13.817 5.43106C13.8322 5.46131 13.8549 5.49155 13.8701 5.5218C13.8777 5.53692 13.9156 5.62009 13.8928 5.56716C13.9156 5.63522 13.9383 5.70327 13.9534 5.77889C13.9534 5.79401 13.961 5.81669 13.961 5.83182C13.9686 5.87718 13.961 5.78645 13.961 5.83182C13.961 5.86962 13.9686 5.89987 13.9686 5.93768C13.9686 5.94524 13.9686 5.95281 13.9686 5.95281C13.9686 5.96037 13.9686 5.97548 13.9686 5.98304C13.9686 6.03598 13.9686 6.08891 13.9686 6.13427C13.9686 6.65602 13.9686 7.17777 13.9686 7.69951C13.9686 8.50859 13.9686 9.32522 13.9686 10.1343C13.9686 10.9585 13.9686 11.7751 13.9686 12.5993C13.9686 13.1438 13.9686 13.6882 13.9686 14.2251C13.9686 14.3234 13.9686 14.399 13.9686 14.4746ZM13.9686 14.4746C13.9686 14.6258 14.1051 14.7695 14.2567 14.7619C14.4159 14.7544 14.5448 14.6334 14.5448 14.4746C14.5448 14.157 14.5448 13.847 14.5448 13.5294C14.5448 12.7884 14.5448 12.0474 14.5448 11.2988C14.5448 10.4368 14.5448 9.56719 14.5448 8.70518C14.5448 8.01708 14.5448 7.32144 14.5448 6.63334C14.5448 6.17965 14.5827 5.71839 14.3931 5.29495C14.143 4.74296 13.5593 4.39513 12.9604 4.38757C12.8467 4.38757 12.7254 4.38757 12.6117 4.38757C11.9673 4.38757 11.323 4.38757 10.671 4.38757C9.80682 4.38757 8.93505 4.38757 8.07085 4.38757C7.38859 4.38757 6.71388 4.38757 6.03161 4.38757C5.88758 4.38757 5.75116 4.38757 5.60712 4.38757C5.07647 4.38757 4.59886 4.6371 4.28805 5.06055C4.08337 5.34788 4 5.68815 4 6.03598C4 6.20233 4 6.36869 4 6.52748C4 7.19289 4 7.8583 4 8.53127C4 9.39328 4 10.2553 4 11.1173C4 11.8734 4 12.6372 4 13.3933C4 13.7487 4 14.1116 4 14.467C4.00758 15.0417 4.31838 15.5861 4.82629 15.8584C5.09919 16.002 5.39484 16.0474 5.69807 16.0474C6.22872 16.0474 6.76696 16.0474 7.2976 16.0474C8.14664 16.0474 9.00328 16.0474 9.85231 16.0474C10.6104 16.0474 11.376 16.0474 12.1341 16.0474C12.3539 16.0474 12.5738 16.0474 12.7936 16.0474C13.021 16.0474 13.256 16.0398 13.4759 15.9566C14.1051 15.7298 14.5296 15.14 14.5372 14.467C14.5372 14.3158 14.4007 14.1721 14.2491 14.1797C14.1051 14.1948 13.9762 14.3158 13.9686 14.4746Z"/>
<path d="M12.5497 4.38754C11.8143 4.38754 11.0715 4.38754 10.3361 4.38754C9.1687 4.38754 8.00126 4.38754 6.83383 4.38754C6.56851 4.38754 6.30318 4.38754 6.03786 4.38754C6.13641 4.48584 6.23498 4.58414 6.32595 4.67488C6.42449 3.79019 6.53062 2.90549 6.62917 2.01323C6.63675 1.95274 6.64432 1.89226 6.6519 1.83176C6.6519 1.80908 6.65949 1.77883 6.65949 1.75615C6.66707 1.71078 6.65949 1.76371 6.65949 1.77127C6.66707 1.74858 6.67464 1.71834 6.68222 1.69565C6.69738 1.64272 6.6898 1.68053 6.68222 1.69565C6.6898 1.67297 6.70495 1.65785 6.71253 1.64273C6.73527 1.60492 6.68221 1.67297 6.71253 1.64273C6.72769 1.6276 6.74286 1.61247 6.75802 1.59735C6.71254 1.63516 6.79593 1.58223 6.80351 1.57467C6.74287 1.60492 6.90206 1.55199 6.83383 1.56711C6.88689 1.55955 6.94756 1.56711 7.00062 1.56711C7.27353 1.56711 7.54642 1.56711 7.82691 1.56711C8.70627 1.56711 9.58565 1.56711 10.4574 1.56711C10.7834 1.56711 11.1169 1.56711 11.4429 1.56711C11.5187 1.56711 11.5945 1.56711 11.6628 1.56711C11.6703 1.56711 11.6779 1.56711 11.6855 1.56711C11.7006 1.56711 11.7613 1.57467 11.731 1.56711C11.6931 1.55955 11.8371 1.61248 11.7689 1.58223C11.784 1.58979 11.8598 1.64273 11.8144 1.60492C11.8219 1.61248 11.8902 1.6881 11.8523 1.64273C11.8674 1.65785 11.875 1.68053 11.8826 1.69565C11.8977 1.71834 11.875 1.65784 11.8902 1.71077C11.8978 1.73346 11.8977 1.75614 11.9053 1.77883C11.9205 1.8242 11.9053 1.73346 11.9053 1.77127C11.9053 1.80151 11.9129 1.8242 11.9129 1.85444C11.9205 1.91493 11.9281 1.97543 11.9357 2.03592C11.9508 2.17203 11.966 2.30814 11.9811 2.44424C12.0114 2.73914 12.0494 3.03403 12.0797 3.32893C12.1252 3.75994 12.1782 4.19094 12.2237 4.62194C12.2237 4.64463 12.2313 4.67488 12.2313 4.69756C12.2465 4.84879 12.3526 4.99246 12.5194 4.9849C12.6634 4.97734 12.8302 4.85635 12.8074 4.69756C12.7013 3.77506 12.5952 2.85256 12.489 1.93762C12.4663 1.7637 12.4587 1.59735 12.3829 1.43856C12.2919 1.24952 12.1176 1.11342 11.9205 1.04537C11.8068 1.00756 11.6931 1 11.5794 1C11.3064 1 11.0336 1 10.7607 1C9.85855 1 8.96402 1 8.06192 1C7.73595 1 7.4024 1 7.07643 1C7.0082 1 6.93996 1 6.87173 1C6.56851 1.00756 6.2653 1.16635 6.13643 1.45369C6.06062 1.61248 6.05301 1.77883 6.03027 1.95275C6.01511 2.08885 5.99998 2.22495 5.98481 2.3535C5.94691 2.65596 5.91656 2.95842 5.87865 3.26088C5.82559 3.71457 5.77255 4.17582 5.71949 4.62951C5.71949 4.6522 5.7119 4.68244 5.7119 4.70513C5.69674 4.86392 5.8635 4.99246 5.99995 4.99246C6.73528 4.99246 7.4782 4.99246 8.21353 4.99246C9.38096 4.99246 10.5484 4.99246 11.7158 4.99246C11.9811 4.99246 12.2464 4.99246 12.5118 4.99246C12.6634 4.99246 12.8074 4.85636 12.7999 4.70513C12.8378 4.51609 12.7164 4.38754 12.5497 4.38754Z"/>
<path d="M12.5497 4.38754C11.8143 4.38754 11.0715 4.38754 10.3361 4.38754C9.1687 4.38754 8.00126 4.38754 6.83383 4.38754C6.56851 4.38754 6.30318 4.38754 6.03786 4.38754C6.13641 4.48584 6.23498 4.58414 6.32595 4.67488C6.42449 3.79019 6.53062 2.90549 6.62917 2.01323C6.63675 1.95274 6.64432 1.89226 6.6519 1.83176C6.6519 1.80908 6.65949 1.77883 6.65949 1.75615C6.66707 1.71078 6.65949 1.76371 6.65949 1.77127C6.66707 1.74858 6.67464 1.71834 6.68222 1.69565C6.69738 1.64272 6.6898 1.68053 6.68222 1.69565C6.6898 1.67297 6.70495 1.65785 6.71253 1.64273C6.73527 1.60492 6.68221 1.67297 6.71253 1.64273C6.72769 1.6276 6.74286 1.61247 6.75802 1.59735C6.71254 1.63516 6.79593 1.58223 6.80351 1.57467C6.74287 1.60492 6.90206 1.55199 6.83383 1.56711C6.88689 1.55955 6.94756 1.56711 7.00062 1.56711C7.27353 1.56711 7.54642 1.56711 7.82691 1.56711C8.70627 1.56711 9.58565 1.56711 10.4574 1.56711C10.7834 1.56711 11.1169 1.56711 11.4429 1.56711C11.5187 1.56711 11.5945 1.56711 11.6628 1.56711C11.6703 1.56711 11.6779 1.56711 11.6855 1.56711C11.7006 1.56711 11.7613 1.57467 11.731 1.56711C11.6931 1.55955 11.8371 1.61248 11.7689 1.58223C11.784 1.58979 11.8598 1.64273 11.8144 1.60492C11.8219 1.61248 11.8902 1.6881 11.8523 1.64273C11.8674 1.65785 11.875 1.68053 11.8826 1.69565C11.8977 1.71834 11.875 1.65784 11.8902 1.71077C11.8978 1.73346 11.8977 1.75614 11.9053 1.77883C11.9205 1.8242 11.9053 1.73346 11.9053 1.77127C11.9053 1.80151 11.9129 1.8242 11.9129 1.85444C11.9205 1.91493 11.9281 1.97543 11.9357 2.03592C11.9508 2.17203 11.966 2.30814 11.9811 2.44424C12.0114 2.73914 12.0494 3.03403 12.0797 3.32893C12.1252 3.75994 12.1782 4.19094 12.2237 4.62194C12.2237 4.64463 12.2313 4.67488 12.2313 4.69756C12.2465 4.84879 12.3526 4.99246 12.5194 4.9849C12.6634 4.97734 12.8302 4.85635 12.8074 4.69756C12.7013 3.77506 12.5952 2.85256 12.489 1.93762C12.4663 1.7637 12.4587 1.59735 12.3829 1.43856C12.2919 1.24952 12.1176 1.11342 11.9205 1.04537C11.8068 1.00756 11.6931 1 11.5794 1C11.3064 1 11.0336 1 10.7607 1C9.85855 1 8.96402 1 8.06192 1C7.73595 1 7.4024 1 7.07643 1C7.0082 1 6.93996 1 6.87173 1C6.56851 1.00756 6.2653 1.16635 6.13643 1.45369C6.06062 1.61248 6.05301 1.77883 6.03027 1.95275C6.01511 2.08885 5.99998 2.22495 5.98481 2.3535C5.94691 2.65596 5.91656 2.95842 5.87865 3.26088C5.82559 3.71457 5.77255 4.17582 5.71949 4.62951C5.71949 4.6522 5.7119 4.68244 5.7119 4.70513C5.69674 4.86392 5.8635 4.99246 5.99995 4.99246C6.73528 4.99246 7.4782 4.99246 8.21353 4.99246C9.38096 4.99246 10.5484 4.99246 11.7158 4.99246C11.9811 4.99246 12.2464 4.99246 12.5118 4.99246C12.6634 4.99246 12.8074 4.85636 12.7999 4.70513C12.8378 4.51609 12.7164 4.38754 12.5497 4.38754Z"/>
<path d="M12.5497 4.38754C11.8143 4.38754 11.0715 4.38754 10.3361 4.38754C9.1687 4.38754 8.00126 4.38754 6.83383 4.38754C6.56851 4.38754 6.30318 4.38754 6.03786 4.38754C6.13641 4.48584 6.23498 4.58414 6.32595 4.67488C6.42449 3.79019 6.53062 2.90549 6.62917 2.01323C6.63675 1.95274 6.64432 1.89226 6.6519 1.83176C6.6519 1.80908 6.65949 1.77883 6.65949 1.75615C6.66707 1.71078 6.65949 1.76371 6.65949 1.77127C6.66707 1.74858 6.67464 1.71834 6.68222 1.69565C6.69738 1.64272 6.6898 1.68053 6.68222 1.69565C6.6898 1.67297 6.70495 1.65785 6.71253 1.64273C6.73527 1.60492 6.68221 1.67297 6.71253 1.64273C6.72769 1.6276 6.74286 1.61247 6.75802 1.59735C6.71254 1.63516 6.79593 1.58223 6.80351 1.57467C6.74287 1.60492 6.90206 1.55199 6.83383 1.56711C6.88689 1.55955 6.94756 1.56711 7.00062 1.56711C7.27353 1.56711 7.54642 1.56711 7.82691 1.56711C8.70627 1.56711 9.58565 1.56711 10.4574 1.56711C10.7834 1.56711 11.1169 1.56711 11.4429 1.56711C11.5187 1.56711 11.5945 1.56711 11.6628 1.56711C11.6703 1.56711 11.6779 1.56711 11.6855 1.56711C11.7006 1.56711 11.7613 1.57467 11.731 1.56711C11.6931 1.55955 11.8371 1.61248 11.7689 1.58223C11.784 1.58979 11.8598 1.64273 11.8144 1.60492C11.8219 1.61248 11.8902 1.6881 11.8523 1.64273C11.8674 1.65785 11.875 1.68053 11.8826 1.69565C11.8977 1.71834 11.875 1.65784 11.8902 1.71077C11.8978 1.73346 11.8977 1.75614 11.9053 1.77883C11.9205 1.8242 11.9053 1.73346 11.9053 1.77127C11.9053 1.80151 11.9129 1.8242 11.9129 1.85444C11.9205 1.91493 11.9281 1.97543 11.9357 2.03592C11.9508 2.17203 11.966 2.30814 11.9811 2.44424C12.0114 2.73914 12.0494 3.03403 12.0797 3.32893C12.1252 3.75994 12.1782 4.19094 12.2237 4.62194C12.2237 4.64463 12.2313 4.67488 12.2313 4.69756C12.2465 4.84879 12.3526 4.99246 12.5194 4.9849C12.6634 4.97734 12.8302 4.85635 12.8074 4.69756C12.7013 3.77506 12.5952 2.85256 12.489 1.93762C12.4663 1.7637 12.4587 1.59735 12.3829 1.43856C12.2919 1.24952 12.1176 1.11342 11.9205 1.04537C11.8068 1.00756 11.6931 1 11.5794 1C11.3064 1 11.0336 1 10.7607 1C9.85855 1 8.96402 1 8.06192 1C7.73595 1 7.4024 1 7.07643 1C7.0082 1 6.93996 1 6.87173 1C6.56851 1.00756 6.2653 1.16635 6.13643 1.45369C6.06062 1.61248 6.05301 1.77883 6.03027 1.95275C6.01511 2.08885 5.99998 2.22495 5.98481 2.3535C5.94691 2.65596 5.91656 2.95842 5.87865 3.26088C5.82559 3.71457 5.77255 4.17582 5.71949 4.62951C5.71949 4.6522 5.7119 4.68244 5.7119 4.70513C5.69674 4.86392 5.8635 4.99246 5.99995 4.99246C6.73528 4.99246 7.4782 4.99246 8.21353 4.99246C9.38096 4.99246 10.5484 4.99246 11.7158 4.99246C11.9811 4.99246 12.2464 4.99246 12.5118 4.99246C12.6634 4.99246 12.8074 4.85636 12.7999 4.70513C12.8378 4.51609 12.7164 4.38754 12.5497 4.38754Z"/>
<path d="M6.04063 16.0398C6.77596 16.0398 7.51888 16.0398 8.25421 16.0398C9.42164 16.0398 10.589 16.0398 11.7565 16.0398C12.0218 16.0398 12.2871 16.0398 12.5524 16.0398C12.4539 15.9415 12.3554 15.8432 12.2644 15.7525C12.1507 16.7279 12.0597 17.7109 11.9309 18.6863C11.9384 18.6107 11.9157 18.7317 11.9081 18.7544C11.9308 18.6939 11.8399 18.83 11.8929 18.7771C11.8778 18.7922 11.8702 18.7997 11.855 18.8149C11.802 18.8678 11.8778 18.7997 11.8399 18.8224C11.8247 18.8375 11.802 18.8451 11.7868 18.8527C11.8399 18.8224 11.7716 18.8527 11.7565 18.8602C11.711 18.8754 11.7413 18.8678 11.7565 18.8678C11.7413 18.8678 11.7186 18.8678 11.7034 18.8678C11.6958 18.8678 11.6882 18.8678 11.6807 18.8678C11.5973 18.8678 11.5063 18.8678 11.4229 18.8678C11.0439 18.8678 10.6649 18.8678 10.2934 18.8678C9.36099 18.8678 8.42098 18.8678 7.48855 18.8678C7.29904 18.8678 7.10192 18.8754 6.90482 18.8678C6.88966 18.8678 6.81386 18.8527 6.87451 18.8678C6.85935 18.8602 6.84421 18.8602 6.82147 18.8527C6.74566 18.83 6.84419 18.8678 6.80629 18.8451C6.79113 18.8375 6.76837 18.8224 6.75321 18.8149C6.7987 18.8451 6.76079 18.8224 6.75321 18.8149C6.75321 18.8149 6.70015 18.7544 6.7229 18.7846C6.73806 18.8073 6.69258 18.7392 6.69258 18.7241C6.71532 18.7695 6.68498 18.6863 6.6774 18.6712C6.65466 18.5956 6.6774 18.7014 6.6774 18.6939C6.6774 18.6863 6.6774 18.6712 6.6774 18.6636C6.66224 18.5426 6.64711 18.4141 6.63195 18.2931C6.54098 17.4614 6.44242 16.6296 6.35145 15.8054C6.35145 15.7827 6.34386 15.7676 6.34386 15.7449C6.3287 15.5937 6.22258 15.45 6.05581 15.4576C5.91178 15.4651 5.74498 15.5861 5.76772 15.7449C5.85869 16.5237 5.94208 17.295 6.03304 18.0738C6.05579 18.2402 6.07097 18.4141 6.09371 18.5805C6.11645 18.7695 6.1392 18.951 6.25291 19.1098C6.41969 19.3366 6.66982 19.45 6.94273 19.45C7.04128 19.45 7.13986 19.45 7.23841 19.45C8.15567 19.45 9.07292 19.45 9.99018 19.45C10.4223 19.45 10.8468 19.45 11.2789 19.45C11.5518 19.45 11.8474 19.4803 12.0976 19.3593C12.2947 19.261 12.4539 19.0644 12.507 18.8451C12.5449 18.6939 12.5525 18.52 12.5676 18.3687C12.6055 18.0512 12.6434 17.7336 12.6737 17.416C12.7344 16.8942 12.795 16.3649 12.8557 15.8432C12.8557 15.8129 12.8633 15.7827 12.8633 15.7525C12.8784 15.5937 12.7117 15.4651 12.5752 15.4651C11.8399 15.4651 11.097 15.4651 10.3616 15.4651C9.1942 15.4651 8.0268 15.4651 6.85937 15.4651C6.59405 15.4651 6.32872 15.4651 6.0634 15.4651C5.91178 15.4651 5.76773 15.6012 5.77531 15.7525C5.76015 15.9037 5.88144 16.0398 6.04063 16.0398Z"/>
<path d="M6.04063 16.0398C6.77596 16.0398 7.51888 16.0398 8.25421 16.0398C9.42164 16.0398 10.589 16.0398 11.7565 16.0398C12.0218 16.0398 12.2871 16.0398 12.5524 16.0398C12.4539 15.9415 12.3554 15.8432 12.2644 15.7525C12.1507 16.7279 12.0597 17.7109 11.9309 18.6863C11.9384 18.6107 11.9157 18.7317 11.9081 18.7544C11.9308 18.6939 11.8399 18.83 11.8929 18.7771C11.8778 18.7922 11.8702 18.7997 11.855 18.8149C11.802 18.8678 11.8778 18.7997 11.8399 18.8224C11.8247 18.8375 11.802 18.8451 11.7868 18.8527C11.8399 18.8224 11.7716 18.8527 11.7565 18.8602C11.711 18.8754 11.7413 18.8678 11.7565 18.8678C11.7413 18.8678 11.7186 18.8678 11.7034 18.8678C11.6958 18.8678 11.6882 18.8678 11.6807 18.8678C11.5973 18.8678 11.5063 18.8678 11.4229 18.8678C11.0439 18.8678 10.6649 18.8678 10.2934 18.8678C9.36099 18.8678 8.42098 18.8678 7.48855 18.8678C7.29904 18.8678 7.10192 18.8754 6.90482 18.8678C6.88966 18.8678 6.81386 18.8527 6.87451 18.8678C6.85935 18.8602 6.84421 18.8602 6.82147 18.8527C6.74566 18.83 6.84419 18.8678 6.80629 18.8451C6.79113 18.8375 6.76837 18.8224 6.75321 18.8149C6.7987 18.8451 6.76079 18.8224 6.75321 18.8149C6.75321 18.8149 6.70015 18.7544 6.7229 18.7846C6.73806 18.8073 6.69258 18.7392 6.69258 18.7241C6.71532 18.7695 6.68498 18.6863 6.6774 18.6712C6.65466 18.5956 6.6774 18.7014 6.6774 18.6939C6.6774 18.6863 6.6774 18.6712 6.6774 18.6636C6.66224 18.5426 6.64711 18.4141 6.63195 18.2931C6.54098 17.4614 6.44242 16.6296 6.35145 15.8054C6.35145 15.7827 6.34386 15.7676 6.34386 15.7449C6.3287 15.5937 6.22258 15.45 6.05581 15.4576C5.91178 15.4651 5.74498 15.5861 5.76772 15.7449C5.85869 16.5237 5.94208 17.295 6.03304 18.0738C6.05579 18.2402 6.07097 18.4141 6.09371 18.5805C6.11645 18.7695 6.1392 18.951 6.25291 19.1098C6.41969 19.3366 6.66982 19.45 6.94273 19.45C7.04128 19.45 7.13986 19.45 7.23841 19.45C8.15567 19.45 9.07292 19.45 9.99018 19.45C10.4223 19.45 10.8468 19.45 11.2789 19.45C11.5518 19.45 11.8474 19.4803 12.0976 19.3593C12.2947 19.261 12.4539 19.0644 12.507 18.8451C12.5449 18.6939 12.5525 18.52 12.5676 18.3687C12.6055 18.0512 12.6434 17.7336 12.6737 17.416C12.7344 16.8942 12.795 16.3649 12.8557 15.8432C12.8557 15.8129 12.8633 15.7827 12.8633 15.7525C12.8784 15.5937 12.7117 15.4651 12.5752 15.4651C11.8399 15.4651 11.097 15.4651 10.3616 15.4651C9.1942 15.4651 8.0268 15.4651 6.85937 15.4651C6.59405 15.4651 6.32872 15.4651 6.0634 15.4651C5.91178 15.4651 5.76773 15.6012 5.77531 15.7525C5.76015 15.9037 5.88144 16.0398 6.04063 16.0398Z"/>
<path d="M6.04063 16.0398C6.77596 16.0398 7.51888 16.0398 8.25421 16.0398C9.42164 16.0398 10.589 16.0398 11.7565 16.0398C12.0218 16.0398 12.2871 16.0398 12.5524 16.0398C12.4539 15.9415 12.3554 15.8432 12.2644 15.7525C12.1507 16.7279 12.0597 17.7109 11.9309 18.6863C11.9384 18.6107 11.9157 18.7317 11.9081 18.7544C11.9308 18.6939 11.8399 18.83 11.8929 18.7771C11.8778 18.7922 11.8702 18.7997 11.855 18.8149C11.802 18.8678 11.8778 18.7997 11.8399 18.8224C11.8247 18.8375 11.802 18.8451 11.7868 18.8527C11.8399 18.8224 11.7716 18.8527 11.7565 18.8602C11.711 18.8754 11.7413 18.8678 11.7565 18.8678C11.7413 18.8678 11.7186 18.8678 11.7034 18.8678C11.6958 18.8678 11.6882 18.8678 11.6807 18.8678C11.5973 18.8678 11.5063 18.8678 11.4229 18.8678C11.0439 18.8678 10.6649 18.8678 10.2934 18.8678C9.36099 18.8678 8.42098 18.8678 7.48855 18.8678C7.29904 18.8678 7.10192 18.8754 6.90482 18.8678C6.88966 18.8678 6.81386 18.8527 6.87451 18.8678C6.85935 18.8602 6.84421 18.8602 6.82147 18.8527C6.74566 18.83 6.84419 18.8678 6.80629 18.8451C6.79113 18.8375 6.76837 18.8224 6.75321 18.8149C6.7987 18.8451 6.76079 18.8224 6.75321 18.8149C6.75321 18.8149 6.70015 18.7544 6.7229 18.7846C6.73806 18.8073 6.69258 18.7392 6.69258 18.7241C6.71532 18.7695 6.68498 18.6863 6.6774 18.6712C6.65466 18.5956 6.6774 18.7014 6.6774 18.6939C6.6774 18.6863 6.6774 18.6712 6.6774 18.6636C6.66224 18.5426 6.64711 18.4141 6.63195 18.2931C6.54098 17.4614 6.44242 16.6296 6.35145 15.8054C6.35145 15.7827 6.34386 15.7676 6.34386 15.7449C6.3287 15.5937 6.22258 15.45 6.05581 15.4576C5.91178 15.4651 5.74498 15.5861 5.76772 15.7449C5.85869 16.5237 5.94208 17.295 6.03304 18.0738C6.05579 18.2402 6.07097 18.4141 6.09371 18.5805C6.11645 18.7695 6.1392 18.951 6.25291 19.1098C6.41969 19.3366 6.66982 19.45 6.94273 19.45C7.04128 19.45 7.13986 19.45 7.23841 19.45C8.15567 19.45 9.07292 19.45 9.99018 19.45C10.4223 19.45 10.8468 19.45 11.2789 19.45C11.5518 19.45 11.8474 19.4803 12.0976 19.3593C12.2947 19.261 12.4539 19.0644 12.507 18.8451C12.5449 18.6939 12.5525 18.52 12.5676 18.3687C12.6055 18.0512 12.6434 17.7336 12.6737 17.416C12.7344 16.8942 12.795 16.3649 12.8557 15.8432C12.8557 15.8129 12.8633 15.7827 12.8633 15.7525C12.8784 15.5937 12.7117 15.4651 12.5752 15.4651C11.8399 15.4651 11.097 15.4651 10.3616 15.4651C9.1942 15.4651 8.0268 15.4651 6.85937 15.4651C6.59405 15.4651 6.32872 15.4651 6.0634 15.4651C5.91178 15.4651 5.76773 15.6012 5.77531 15.7525C5.76015 15.9037 5.88144 16.0398 6.04063 16.0398Z"/>
<path d="M15.1366 9.55202C15.1366 9.88473 15.1366 10.2174 15.1366 10.5426C15.1366 10.6636 15.1366 10.7845 15.1366 10.9055C15.1366 10.9509 15.1442 10.8602 15.1366 10.9055C15.129 10.9207 15.1291 10.9358 15.1215 10.9585C15.1063 10.9963 15.1594 10.9055 15.1139 10.9736C15.1063 10.9887 15.0987 11.0038 15.0836 11.019C15.1139 10.9736 15.0608 11.0416 15.0457 11.0568C15.0533 11.0492 15.0912 11.0265 15.0457 11.0568C15.0229 11.0719 15.0002 11.087 14.9774 11.0946C15.0305 11.0719 14.9395 11.1021 14.9244 11.1021C14.9547 11.0946 14.9547 11.1021 14.9168 11.0946C14.894 11.0946 14.8637 11.0946 14.841 11.0946C14.6515 11.0946 14.462 11.0946 14.28 11.0946C14.3786 11.1929 14.4771 11.2912 14.5681 11.3819C14.5681 10.7014 14.5681 10.0284 14.5681 9.34786C14.5681 9.24956 14.5681 9.15126 14.5681 9.05297C14.4695 9.15126 14.371 9.24956 14.28 9.3403C14.462 9.3403 14.6439 9.3403 14.8258 9.3403C14.8561 9.3403 14.8865 9.3403 14.9168 9.3403C14.9319 9.3403 14.9395 9.3403 14.9547 9.3403C15.0153 9.3403 14.9395 9.32517 14.9699 9.3403C14.985 9.34786 15.0153 9.34786 15.0305 9.35542C14.9623 9.33274 15.0911 9.39323 15.0608 9.3781C15.0381 9.35542 15.129 9.45372 15.0911 9.40079C15.1063 9.41591 15.1139 9.4386 15.1215 9.45372C15.1442 9.48396 15.1063 9.39322 15.129 9.46128C15.1366 9.4764 15.1366 9.49153 15.1442 9.50665C15.1215 9.47641 15.1366 9.52934 15.1366 9.55202C15.1442 9.70325 15.2655 9.84691 15.4247 9.83935C15.5763 9.83179 15.7203 9.71081 15.7128 9.55202C15.6976 9.09833 15.3337 8.76562 14.8865 8.76562C14.6818 8.76562 14.4771 8.76562 14.2724 8.76562C14.1132 8.76562 13.9844 8.90174 13.9844 9.05297C13.9844 9.7335 13.9844 10.4065 13.9844 11.087C13.9844 11.1853 13.9844 11.2836 13.9844 11.3819C13.9844 11.5407 14.1208 11.6692 14.2724 11.6692C14.4544 11.6692 14.6287 11.6692 14.8107 11.6692C14.9092 11.6692 15.0153 11.6692 15.1139 11.6465C15.3186 11.5936 15.4929 11.4575 15.599 11.2836C15.7128 11.0946 15.7128 10.898 15.7128 10.6862C15.7128 10.467 15.7128 10.2477 15.7128 10.036C15.7128 9.87717 15.7128 9.71081 15.7128 9.55202C15.7128 9.40079 15.5763 9.25712 15.4247 9.26468C15.2731 9.27224 15.1366 9.38567 15.1366 9.55202Z"/>
<path d="M15.1366 9.55202C15.1366 9.88473 15.1366 10.2174 15.1366 10.5426C15.1366 10.6636 15.1366 10.7845 15.1366 10.9055C15.1366 10.9509 15.1442 10.8602 15.1366 10.9055C15.129 10.9207 15.1291 10.9358 15.1215 10.9585C15.1063 10.9963 15.1594 10.9055 15.1139 10.9736C15.1063 10.9887 15.0987 11.0038 15.0836 11.019C15.1139 10.9736 15.0608 11.0416 15.0457 11.0568C15.0533 11.0492 15.0912 11.0265 15.0457 11.0568C15.0229 11.0719 15.0002 11.087 14.9774 11.0946C15.0305 11.0719 14.9395 11.1021 14.9244 11.1021C14.9547 11.0946 14.9547 11.1021 14.9168 11.0946C14.894 11.0946 14.8637 11.0946 14.841 11.0946C14.6515 11.0946 14.462 11.0946 14.28 11.0946C14.3786 11.1929 14.4771 11.2912 14.5681 11.3819C14.5681 10.7014 14.5681 10.0284 14.5681 9.34786C14.5681 9.24956 14.5681 9.15126 14.5681 9.05297C14.4695 9.15126 14.371 9.24956 14.28 9.3403C14.462 9.3403 14.6439 9.3403 14.8258 9.3403C14.8561 9.3403 14.8865 9.3403 14.9168 9.3403C14.9319 9.3403 14.9395 9.3403 14.9547 9.3403C15.0153 9.3403 14.9395 9.32517 14.9699 9.3403C14.985 9.34786 15.0153 9.34786 15.0305 9.35542C14.9623 9.33274 15.0911 9.39323 15.0608 9.3781C15.0381 9.35542 15.129 9.45372 15.0911 9.40079C15.1063 9.41591 15.1139 9.4386 15.1215 9.45372C15.1442 9.48396 15.1063 9.39322 15.129 9.46128C15.1366 9.4764 15.1366 9.49153 15.1442 9.50665C15.1215 9.47641 15.1366 9.52934 15.1366 9.55202C15.1442 9.70325 15.2655 9.84691 15.4247 9.83935C15.5763 9.83179 15.7203 9.71081 15.7128 9.55202C15.6976 9.09833 15.3337 8.76562 14.8865 8.76562C14.6818 8.76562 14.4771 8.76562 14.2724 8.76562C14.1132 8.76562 13.9844 8.90174 13.9844 9.05297C13.9844 9.7335 13.9844 10.4065 13.9844 11.087C13.9844 11.1853 13.9844 11.2836 13.9844 11.3819C13.9844 11.5407 14.1208 11.6692 14.2724 11.6692C14.4544 11.6692 14.6287 11.6692 14.8107 11.6692C14.9092 11.6692 15.0153 11.6692 15.1139 11.6465C15.3186 11.5936 15.4929 11.4575 15.599 11.2836C15.7128 11.0946 15.7128 10.898 15.7128 10.6862C15.7128 10.467 15.7128 10.2477 15.7128 10.036C15.7128 9.87717 15.7128 9.71081 15.7128 9.55202C15.7128 9.40079 15.5763 9.25712 15.4247 9.26468C15.2731 9.27224 15.1366 9.38567 15.1366 9.55202Z"/>
<path d="M15.1366 9.55202C15.1366 9.88473 15.1366 10.2174 15.1366 10.5426C15.1366 10.6636 15.1366 10.7845 15.1366 10.9055C15.1366 10.9509 15.1442 10.8602 15.1366 10.9055C15.129 10.9207 15.1291 10.9358 15.1215 10.9585C15.1063 10.9963 15.1594 10.9055 15.1139 10.9736C15.1063 10.9887 15.0987 11.0038 15.0836 11.019C15.1139 10.9736 15.0608 11.0416 15.0457 11.0568C15.0533 11.0492 15.0912 11.0265 15.0457 11.0568C15.0229 11.0719 15.0002 11.087 14.9774 11.0946C15.0305 11.0719 14.9395 11.1021 14.9244 11.1021C14.9547 11.0946 14.9547 11.1021 14.9168 11.0946C14.894 11.0946 14.8637 11.0946 14.841 11.0946C14.6515 11.0946 14.462 11.0946 14.28 11.0946C14.3786 11.1929 14.4771 11.2912 14.5681 11.3819C14.5681 10.7014 14.5681 10.0284 14.5681 9.34786C14.5681 9.24956 14.5681 9.15126 14.5681 9.05297C14.4695 9.15126 14.371 9.24956 14.28 9.3403C14.462 9.3403 14.6439 9.3403 14.8258 9.3403C14.8561 9.3403 14.8865 9.3403 14.9168 9.3403C14.9319 9.3403 14.9395 9.3403 14.9547 9.3403C15.0153 9.3403 14.9395 9.32517 14.9699 9.3403C14.985 9.34786 15.0153 9.34786 15.0305 9.35542C14.9623 9.33274 15.0911 9.39323 15.0608 9.3781C15.0381 9.35542 15.129 9.45372 15.0911 9.40079C15.1063 9.41591 15.1139 9.4386 15.1215 9.45372C15.1442 9.48396 15.1063 9.39322 15.129 9.46128C15.1366 9.4764 15.1366 9.49153 15.1442 9.50665C15.1215 9.47641 15.1366 9.52934 15.1366 9.55202ZM15.1366 9.55202C15.1442 9.70325 15.2655 9.84691 15.4247 9.83935C15.5763 9.83179 15.7203 9.71081 15.7128 9.55202C15.6976 9.09833 15.3337 8.76562 14.8865 8.76562C14.6818 8.76562 14.4771 8.76562 14.2724 8.76562C14.1132 8.76562 13.9844 8.90174 13.9844 9.05297C13.9844 9.7335 13.9844 10.4065 13.9844 11.087C13.9844 11.1853 13.9844 11.2836 13.9844 11.3819C13.9844 11.5407 14.1208 11.6692 14.2724 11.6692C14.4544 11.6692 14.6287 11.6692 14.8107 11.6692C14.9092 11.6692 15.0153 11.6692 15.1139 11.6465C15.3186 11.5936 15.4929 11.4575 15.599 11.2836C15.7128 11.0946 15.7128 10.898 15.7128 10.6862C15.7128 10.467 15.7128 10.2477 15.7128 10.036C15.7128 9.87717 15.7128 9.71081 15.7128 9.55202C15.7128 9.40079 15.5763 9.25712 15.4247 9.26468C15.2731 9.27224 15.1366 9.38567 15.1366 9.55202Z"/>
<path d="M10.4605 8.03221C10.0435 8.44809 9.62659 8.86397 9.20965 9.27986C8.54255 9.94527 7.88301 10.6031 7.21591 11.2685C7.06429 11.4197 6.91268 11.571 6.76106 11.7222C6.64735 11.8356 6.64735 12.0247 6.76106 12.1305C6.87477 12.244 7.06428 12.244 7.17041 12.1305C7.58735 11.7146 8.00429 11.2988 8.42123 10.8829C9.08833 10.2175 9.74787 9.55962 10.415 8.89421C10.5666 8.74298 10.7182 8.59175 10.8698 8.44052C10.9835 8.3271 10.9835 8.13807 10.8698 8.03221C10.7637 7.91879 10.5742 7.91879 10.4605 8.03221Z"/>
<path d="M10.4605 8.03221C10.0435 8.44809 9.62659 8.86397 9.20965 9.27986C8.54255 9.94527 7.88301 10.6031 7.21591 11.2685C7.06429 11.4197 6.91268 11.571 6.76106 11.7222C6.64735 11.8356 6.64735 12.0247 6.76106 12.1305C6.87477 12.244 7.06428 12.244 7.17041 12.1305C7.58735 11.7146 8.00429 11.2988 8.42123 10.8829C9.08833 10.2175 9.74787 9.55962 10.415 8.89421C10.5666 8.74298 10.7182 8.59175 10.8698 8.44052C10.9835 8.3271 10.9835 8.13807 10.8698 8.03221C10.7637 7.91879 10.5742 7.91879 10.4605 8.03221Z"/>
<path d="M10.4605 8.03221C10.0435 8.44809 9.62659 8.86397 9.20965 9.27986C8.54255 9.94527 7.88301 10.6031 7.21591 11.2685C7.06429 11.4197 6.91268 11.571 6.76106 11.7222C6.64735 11.8356 6.64735 12.0247 6.76106 12.1305C6.87477 12.244 7.06428 12.244 7.17041 12.1305C7.58735 11.7146 8.00429 11.2988 8.42123 10.8829C9.08833 10.2175 9.74787 9.55962 10.415 8.89421C10.5666 8.74298 10.7182 8.59175 10.8698 8.44052C10.9835 8.3271 10.9835 8.13807 10.8698 8.03221C10.7637 7.91879 10.5742 7.91879 10.4605 8.03221Z"/>
<path d="M10.6239 10.5653C10.207 10.9812 9.79766 11.3895 9.38072 11.8054C9.32007 11.8659 9.26702 11.9188 9.20638 11.9793C9.09267 12.0927 9.09267 12.2817 9.20638 12.3876C9.32009 12.501 9.5096 12.501 9.61573 12.3876C10.0327 11.9717 10.442 11.5634 10.859 11.1475C10.9196 11.087 10.9727 11.0341 11.0333 10.9736C11.147 10.8602 11.147 10.6712 11.0333 10.5653C10.9272 10.4519 10.7377 10.4519 10.6239 10.5653Z"/>
<path d="M10.6239 10.5653C10.207 10.9812 9.79766 11.3895 9.38072 11.8054C9.32007 11.8659 9.26702 11.9188 9.20638 11.9793C9.09267 12.0927 9.09267 12.2817 9.20638 12.3876C9.32009 12.501 9.5096 12.501 9.61573 12.3876C10.0327 11.9717 10.442 11.5634 10.859 11.1475C10.9196 11.087 10.9727 11.0341 11.0333 10.9736C11.147 10.8602 11.147 10.6712 11.0333 10.5653C10.9272 10.4519 10.7377 10.4519 10.6239 10.5653Z"/>
<path d="M10.6239 10.5653C10.207 10.9812 9.79766 11.3895 9.38072 11.8054C9.32007 11.8659 9.26702 11.9188 9.20638 11.9793C9.09267 12.0927 9.09267 12.2817 9.20638 12.3876C9.32009 12.501 9.5096 12.501 9.61573 12.3876C10.0327 11.9717 10.442 11.5634 10.859 11.1475C10.9196 11.087 10.9727 11.0341 11.0333 10.9736C11.147 10.8602 11.147 10.6712 11.0333 10.5653C10.9272 10.4519 10.7377 10.4519 10.6239 10.5653Z"/>
</svg>
