<svg width="20" height="20" viewBox="0 0 20 20" fill="none" xmlns="http://www.w3.org/2000/svg">
<path d="M15.9872 18.6183C15.8356 18.6183 15.6764 18.6183 15.5248 18.6183C15.1155 18.6183 14.7061 18.6183 14.2968 18.6183C13.7055 18.6183 13.1142 18.6183 12.5229 18.6183C11.833 18.6183 11.1356 18.6183 10.4458 18.6183C9.71801 18.6183 8.99784 18.6183 8.2701 18.6183C7.59541 18.6183 6.91315 18.6183 6.23846 18.6183C5.68507 18.6183 5.13926 18.6183 4.58587 18.6183C4.22957 18.6183 3.88086 18.6183 3.52457 18.6183C3.44876 18.6183 3.37296 18.6183 3.29715 18.6183C3.28199 18.6183 3.26682 18.6183 3.25166 18.6183C3.22133 18.6183 3.19102 18.6183 3.16069 18.6107C3.21376 18.6183 3.13795 18.6031 3.12279 18.6031C3.10005 18.5956 3.06972 18.588 3.04698 18.5805C3.03182 18.5729 3.01667 18.5729 3.00151 18.5653C2.95602 18.5502 3.03941 18.588 3.00151 18.5653C2.94844 18.5351 2.89538 18.5124 2.84989 18.4746C2.81957 18.4519 2.85746 18.4746 2.85746 18.4822C2.8423 18.4746 2.83472 18.4595 2.81956 18.4519C2.79682 18.4292 2.77407 18.4065 2.75891 18.3914C2.75133 18.3839 2.72101 18.346 2.74375 18.3687C2.7665 18.3914 2.73618 18.3612 2.73618 18.3612C2.72102 18.3385 2.70585 18.3082 2.69069 18.2856C2.67553 18.2629 2.66037 18.2326 2.65279 18.2024C2.67553 18.2477 2.64521 18.1797 2.63763 18.1646C2.63005 18.1343 2.62247 18.1041 2.61489 18.0738C2.6073 18.0587 2.6073 18.036 2.6073 18.0209C2.6073 18.0285 2.61488 18.0663 2.6073 18.0285C2.6073 17.9982 2.59973 17.968 2.59973 17.9302C2.59973 17.9226 2.59973 17.9075 2.59973 17.8999C2.59973 17.8319 2.59973 17.7638 2.59973 17.6958C2.59973 17.3933 2.59973 17.0908 2.59973 16.7959C2.59973 16.312 2.59973 15.8281 2.59973 15.3517C2.59973 14.7392 2.59973 14.1267 2.59973 13.5143C2.59973 12.8262 2.59973 12.1305 2.59973 11.4424C2.59973 10.7165 2.59973 9.9906 2.59973 9.27226C2.59973 8.56905 2.59973 7.86583 2.59973 7.17017C2.59973 6.53501 2.59973 5.89984 2.59973 5.26468C2.59973 4.7505 2.59973 4.22875 2.59973 3.71457C2.59973 3.36674 2.59973 3.01892 2.59973 2.67865C2.59973 2.5501 2.59973 2.42156 2.59973 2.29301C2.59973 2.27789 2.59973 2.25521 2.59973 2.24008C2.59973 2.22496 2.59972 2.20228 2.6073 2.18715C2.6073 2.19471 2.59972 2.23252 2.6073 2.20228C2.62246 2.14178 2.63763 2.07373 2.66038 2.01324C2.63763 2.06617 2.67552 1.99055 2.6831 1.97543C2.69827 1.95275 2.70585 1.93006 2.72101 1.90738C2.72859 1.89226 2.77408 1.83176 2.74375 1.87713C2.7665 1.85445 2.78925 1.8242 2.81199 1.80152C2.81957 1.79396 2.88021 1.74103 2.85746 1.75615C2.83472 1.77127 2.88779 1.73346 2.90296 1.7259C2.9257 1.71078 2.95602 1.69566 2.97876 1.68053C2.99392 1.67297 3.00907 1.66541 3.02424 1.65785C3.00149 1.67297 3.00149 1.66541 3.02424 1.65785C3.08488 1.63516 3.13795 1.62004 3.1986 1.61248C3.14553 1.62004 3.20619 1.61248 3.22893 1.61248C3.24409 1.61248 3.26683 1.61248 3.28199 1.61248C3.32748 1.61248 3.36537 1.61248 3.41086 1.61248C3.70651 1.61248 4.00215 1.61248 4.2978 1.61248C4.81328 1.61248 5.32878 1.61248 5.84427 1.61248C6.49621 1.61248 7.14814 1.61248 7.80008 1.61248C8.52024 1.61248 9.24041 1.61248 9.96058 1.61248C10.6656 1.61248 11.3706 1.61248 12.0832 1.61248C12.7048 1.61248 13.3264 1.61248 13.948 1.61248C14.4029 1.61248 14.8653 1.61248 15.3201 1.61248C15.54 1.61248 15.7598 1.61248 15.9797 1.61248C16.01 1.61248 16.0403 1.61248 16.0706 1.61248C16.0858 1.61248 16.101 1.61248 16.1085 1.61248C16.0555 1.60492 16.101 1.61248 16.1085 1.61248C16.1389 1.62004 16.1692 1.6276 16.1995 1.63516C16.2222 1.64273 16.2526 1.65029 16.2753 1.65785C16.3208 1.67297 16.2374 1.63516 16.2753 1.65785C16.2905 1.66541 16.3056 1.67297 16.3208 1.68053C16.3435 1.69566 16.3739 1.71078 16.3966 1.7259C16.4042 1.73346 16.4193 1.74103 16.4269 1.74859C16.4648 1.77127 16.3966 1.71834 16.4269 1.74859C16.4421 1.76371 16.4648 1.77883 16.48 1.80152C16.4951 1.81664 16.5027 1.8242 16.5179 1.83932C16.5179 1.84689 16.5558 1.88469 16.5331 1.86201C16.5179 1.83932 16.5634 1.89982 16.571 1.91494C16.5861 1.93762 16.6013 1.96787 16.6164 1.99055C16.624 1.99812 16.6316 2.01324 16.6316 2.02836C16.624 2.0208 16.6164 1.97543 16.6316 2.02836C16.6392 2.05861 16.6543 2.08885 16.6619 2.11154C16.6695 2.14178 16.6771 2.17203 16.6847 2.20228C16.6771 2.14935 16.6847 2.22496 16.6847 2.24765C16.6847 2.26277 16.6847 2.27789 16.6847 2.29301C16.6847 2.30814 16.6847 2.3157 16.6847 2.33082C16.6847 2.52742 16.6847 2.72402 16.6847 2.92062C16.6847 3.32138 16.6847 3.72213 16.6847 4.12289C16.6847 4.67488 16.6847 5.22687 16.6847 5.78642C16.6847 6.44427 16.6847 7.10968 16.6847 7.76753C16.6847 8.47831 16.6847 9.18909 16.6847 9.90743C16.6847 10.6258 16.6847 11.3517 16.6847 12.07C16.6847 12.743 16.6847 13.4235 16.6847 14.0965C16.6847 14.6712 16.6847 15.2534 16.6847 15.8281C16.6847 16.2666 16.6847 16.6976 16.6847 17.1362C16.6847 17.3782 16.6847 17.6126 16.6847 17.8545C16.6847 17.8848 16.6847 17.915 16.6847 17.9528C16.6847 17.968 16.6847 17.9907 16.6847 18.0058C16.6847 18.0209 16.6847 18.036 16.6847 18.0436C16.6771 18.089 16.6923 17.9982 16.6847 18.0436C16.6695 18.0965 16.6619 18.157 16.6392 18.2099C16.6392 18.2175 16.6164 18.2629 16.6392 18.2099C16.6316 18.2251 16.6316 18.2326 16.624 18.2477C16.6089 18.2704 16.5937 18.3007 16.5785 18.3234C16.5634 18.346 16.5482 18.3687 16.5331 18.3839C16.571 18.3385 16.5179 18.399 16.5027 18.4141C16.48 18.4368 16.4572 18.4519 16.4421 18.4746C16.4421 18.4746 16.4042 18.5048 16.4345 18.4822C16.4648 18.4595 16.4193 18.4897 16.4118 18.4973C16.3663 18.5275 16.3208 18.5578 16.2677 18.5805C16.3132 18.5578 16.245 18.588 16.2298 18.5956C16.1995 18.6031 16.1692 18.6107 16.1388 18.6183C16.1237 18.6258 16.063 18.6334 16.1085 18.6258C16.063 18.6183 16.0251 18.6183 15.9872 18.6183C15.8356 18.6183 15.6916 18.7468 15.6992 18.9056C15.7068 19.0644 15.828 19.2005 15.9872 19.1929C16.5709 19.1854 17.1168 18.7771 17.2305 18.1873C17.2532 18.0738 17.2608 17.9604 17.2608 17.847C17.2608 17.6201 17.2608 17.3857 17.2608 17.1589C17.2608 16.7279 17.2608 16.2969 17.2608 15.8659C17.2608 15.2836 17.2608 14.7014 17.2608 14.1192C17.2608 13.4386 17.2608 12.7581 17.2608 12.0776C17.2608 11.3517 17.2608 10.6258 17.2608 9.89987C17.2608 9.18153 17.2608 8.45562 17.2608 7.73728C17.2608 7.07187 17.2608 6.40646 17.2608 5.74105C17.2608 5.1815 17.2608 4.62951 17.2608 4.06996C17.2608 3.6692 17.2608 3.26845 17.2608 2.86769C17.2608 2.67865 17.2608 2.48961 17.2608 2.29301C17.2608 1.58223 16.6922 1 15.9797 1C15.775 1 15.5627 1 15.3581 1C14.9032 1 14.4484 1 13.9935 1C13.3719 1 12.7427 1 12.1211 1C11.4085 1 10.6883 1 9.97575 1C9.24801 1 8.52026 1 7.79251 1C7.13299 1 6.47346 1 5.81394 1C5.29845 1 4.78297 1 4.26748 1C3.97183 1 3.68376 1 3.38811 1C3.33505 1 3.27441 1 3.22134 1C2.63763 1.03025 2.11456 1.46881 2.02359 2.05105C1.99326 2.23252 2.00084 2.42156 2.00084 2.6106C2.00084 2.95086 2.00084 3.29113 2.00084 3.6314C2.00084 4.14558 2.00084 4.65976 2.00084 5.17394C2.00084 5.8091 2.00084 6.45183 2.00084 7.087C2.00084 7.79777 2.00084 8.50855 2.00084 9.21933C2.00084 9.9528 2.00084 10.6787 2.00084 11.4122C2.00084 12.1154 2.00084 12.811 2.00084 13.5143C2.00084 14.1343 2.00084 14.7468 2.00084 15.3668C2.00084 15.8508 2.00084 16.3347 2.00084 16.8186C2.00084 17.1135 2.00084 17.416 2.00084 17.7109C2.00084 17.7714 2.00084 17.8394 2.00084 17.8999C2.00084 18.2251 2.11456 18.5275 2.32682 18.7695C2.5694 19.0417 2.92569 19.1854 3.28956 19.1854C3.35779 19.1854 3.4336 19.1854 3.50182 19.1854C3.85054 19.1854 4.19166 19.1854 4.54038 19.1854C5.09377 19.1854 5.63958 19.1854 6.19297 19.1854C6.87524 19.1854 7.55751 19.1854 8.24735 19.1854C8.9751 19.1854 9.70285 19.1854 10.4306 19.1854C11.1356 19.1854 11.833 19.1854 12.538 19.1854C13.1369 19.1854 13.7282 19.1854 14.3271 19.1854C14.7364 19.1854 15.1458 19.1854 15.5551 19.1854C15.6992 19.1854 15.8508 19.1854 15.9948 19.1854C16.1464 19.1854 16.2905 19.0493 16.2829 18.898C16.2753 18.7544 16.154 18.6183 15.9872 18.6183Z"/>
<path d="M15.9872 18.6183C15.8356 18.6183 15.6764 18.6183 15.5248 18.6183C15.1155 18.6183 14.7061 18.6183 14.2968 18.6183C13.7055 18.6183 13.1142 18.6183 12.5229 18.6183C11.833 18.6183 11.1356 18.6183 10.4458 18.6183C9.71801 18.6183 8.99784 18.6183 8.2701 18.6183C7.59541 18.6183 6.91315 18.6183 6.23846 18.6183C5.68507 18.6183 5.13926 18.6183 4.58587 18.6183C4.22957 18.6183 3.88086 18.6183 3.52457 18.6183C3.44876 18.6183 3.37296 18.6183 3.29715 18.6183C3.28199 18.6183 3.26682 18.6183 3.25166 18.6183C3.22133 18.6183 3.19102 18.6183 3.16069 18.6107C3.21376 18.6183 3.13795 18.6031 3.12279 18.6031C3.10005 18.5956 3.06972 18.588 3.04698 18.5805C3.03182 18.5729 3.01667 18.5729 3.00151 18.5653C2.95602 18.5502 3.03941 18.588 3.00151 18.5653C2.94844 18.5351 2.89538 18.5124 2.84989 18.4746C2.81957 18.4519 2.85746 18.4746 2.85746 18.4822C2.8423 18.4746 2.83472 18.4595 2.81956 18.4519C2.79682 18.4292 2.77407 18.4065 2.75891 18.3914C2.75133 18.3839 2.72101 18.346 2.74375 18.3687C2.7665 18.3914 2.73618 18.3612 2.73618 18.3612C2.72102 18.3385 2.70585 18.3082 2.69069 18.2856C2.67553 18.2629 2.66037 18.2326 2.65279 18.2024C2.67553 18.2477 2.64521 18.1797 2.63763 18.1646C2.63005 18.1343 2.62247 18.1041 2.61489 18.0738C2.6073 18.0587 2.6073 18.036 2.6073 18.0209C2.6073 18.0285 2.61488 18.0663 2.6073 18.0285C2.6073 17.9982 2.59973 17.968 2.59973 17.9302C2.59973 17.9226 2.59973 17.9075 2.59973 17.8999C2.59973 17.8319 2.59973 17.7638 2.59973 17.6958C2.59973 17.3933 2.59973 17.0908 2.59973 16.7959C2.59973 16.312 2.59973 15.8281 2.59973 15.3517C2.59973 14.7392 2.59973 14.1267 2.59973 13.5143C2.59973 12.8262 2.59973 12.1305 2.59973 11.4424C2.59973 10.7165 2.59973 9.9906 2.59973 9.27226C2.59973 8.56905 2.59973 7.86583 2.59973 7.17017C2.59973 6.53501 2.59973 5.89984 2.59973 5.26468C2.59973 4.7505 2.59973 4.22875 2.59973 3.71457C2.59973 3.36674 2.59973 3.01892 2.59973 2.67865C2.59973 2.5501 2.59973 2.42156 2.59973 2.29301C2.59973 2.27789 2.59973 2.25521 2.59973 2.24008C2.59973 2.22496 2.59972 2.20228 2.6073 2.18715C2.6073 2.19471 2.59972 2.23252 2.6073 2.20228C2.62246 2.14178 2.63763 2.07373 2.66038 2.01324C2.63763 2.06617 2.67552 1.99055 2.6831 1.97543C2.69827 1.95275 2.70585 1.93006 2.72101 1.90738C2.72859 1.89226 2.77408 1.83176 2.74375 1.87713C2.7665 1.85445 2.78925 1.8242 2.81199 1.80152C2.81957 1.79396 2.88021 1.74103 2.85746 1.75615C2.83472 1.77127 2.88779 1.73346 2.90296 1.7259C2.9257 1.71078 2.95602 1.69566 2.97876 1.68053C2.99392 1.67297 3.00907 1.66541 3.02424 1.65785C3.00149 1.67297 3.00149 1.66541 3.02424 1.65785C3.08488 1.63516 3.13795 1.62004 3.1986 1.61248C3.14553 1.62004 3.20619 1.61248 3.22893 1.61248C3.24409 1.61248 3.26683 1.61248 3.28199 1.61248C3.32748 1.61248 3.36537 1.61248 3.41086 1.61248C3.70651 1.61248 4.00215 1.61248 4.2978 1.61248C4.81328 1.61248 5.32878 1.61248 5.84427 1.61248C6.49621 1.61248 7.14814 1.61248 7.80008 1.61248C8.52024 1.61248 9.24041 1.61248 9.96058 1.61248C10.6656 1.61248 11.3706 1.61248 12.0832 1.61248C12.7048 1.61248 13.3264 1.61248 13.948 1.61248C14.4029 1.61248 14.8653 1.61248 15.3201 1.61248C15.54 1.61248 15.7598 1.61248 15.9797 1.61248C16.01 1.61248 16.0403 1.61248 16.0706 1.61248C16.0858 1.61248 16.101 1.61248 16.1085 1.61248C16.0555 1.60492 16.101 1.61248 16.1085 1.61248C16.1389 1.62004 16.1692 1.6276 16.1995 1.63516C16.2222 1.64273 16.2526 1.65029 16.2753 1.65785C16.3208 1.67297 16.2374 1.63516 16.2753 1.65785C16.2905 1.66541 16.3056 1.67297 16.3208 1.68053C16.3435 1.69566 16.3739 1.71078 16.3966 1.7259C16.4042 1.73346 16.4193 1.74103 16.4269 1.74859C16.4648 1.77127 16.3966 1.71834 16.4269 1.74859C16.4421 1.76371 16.4648 1.77883 16.48 1.80152C16.4951 1.81664 16.5027 1.8242 16.5179 1.83932C16.5179 1.84689 16.5558 1.88469 16.5331 1.86201C16.5179 1.83932 16.5634 1.89982 16.571 1.91494C16.5861 1.93762 16.6013 1.96787 16.6164 1.99055C16.624 1.99812 16.6316 2.01324 16.6316 2.02836C16.624 2.0208 16.6164 1.97543 16.6316 2.02836C16.6392 2.05861 16.6543 2.08885 16.6619 2.11154C16.6695 2.14178 16.6771 2.17203 16.6847 2.20228C16.6771 2.14935 16.6847 2.22496 16.6847 2.24765C16.6847 2.26277 16.6847 2.27789 16.6847 2.29301C16.6847 2.30814 16.6847 2.3157 16.6847 2.33082C16.6847 2.52742 16.6847 2.72402 16.6847 2.92062C16.6847 3.32138 16.6847 3.72213 16.6847 4.12289C16.6847 4.67488 16.6847 5.22687 16.6847 5.78642C16.6847 6.44427 16.6847 7.10968 16.6847 7.76753C16.6847 8.47831 16.6847 9.18909 16.6847 9.90743C16.6847 10.6258 16.6847 11.3517 16.6847 12.07C16.6847 12.743 16.6847 13.4235 16.6847 14.0965C16.6847 14.6712 16.6847 15.2534 16.6847 15.8281C16.6847 16.2666 16.6847 16.6976 16.6847 17.1362C16.6847 17.3782 16.6847 17.6126 16.6847 17.8545C16.6847 17.8848 16.6847 17.915 16.6847 17.9528C16.6847 17.968 16.6847 17.9907 16.6847 18.0058C16.6847 18.0209 16.6847 18.036 16.6847 18.0436C16.6771 18.089 16.6923 17.9982 16.6847 18.0436C16.6695 18.0965 16.6619 18.157 16.6392 18.2099C16.6392 18.2175 16.6164 18.2629 16.6392 18.2099C16.6316 18.2251 16.6316 18.2326 16.624 18.2477C16.6089 18.2704 16.5937 18.3007 16.5785 18.3234C16.5634 18.346 16.5482 18.3687 16.5331 18.3839C16.571 18.3385 16.5179 18.399 16.5027 18.4141C16.48 18.4368 16.4572 18.4519 16.4421 18.4746C16.4421 18.4746 16.4042 18.5048 16.4345 18.4822C16.4648 18.4595 16.4193 18.4897 16.4118 18.4973C16.3663 18.5275 16.3208 18.5578 16.2677 18.5805C16.3132 18.5578 16.245 18.588 16.2298 18.5956C16.1995 18.6031 16.1692 18.6107 16.1388 18.6183C16.1237 18.6258 16.063 18.6334 16.1085 18.6258C16.063 18.6183 16.0251 18.6183 15.9872 18.6183C15.8356 18.6183 15.6916 18.7468 15.6992 18.9056C15.7068 19.0644 15.828 19.2005 15.9872 19.1929C16.5709 19.1854 17.1168 18.7771 17.2305 18.1873C17.2532 18.0738 17.2608 17.9604 17.2608 17.847C17.2608 17.6201 17.2608 17.3857 17.2608 17.1589C17.2608 16.7279 17.2608 16.2969 17.2608 15.8659C17.2608 15.2836 17.2608 14.7014 17.2608 14.1192C17.2608 13.4386 17.2608 12.7581 17.2608 12.0776C17.2608 11.3517 17.2608 10.6258 17.2608 9.89987C17.2608 9.18153 17.2608 8.45562 17.2608 7.73728C17.2608 7.07187 17.2608 6.40646 17.2608 5.74105C17.2608 5.1815 17.2608 4.62951 17.2608 4.06996C17.2608 3.6692 17.2608 3.26845 17.2608 2.86769C17.2608 2.67865 17.2608 2.48961 17.2608 2.29301C17.2608 1.58223 16.6922 1 15.9797 1C15.775 1 15.5627 1 15.3581 1C14.9032 1 14.4484 1 13.9935 1C13.3719 1 12.7427 1 12.1211 1C11.4085 1 10.6883 1 9.97575 1C9.24801 1 8.52026 1 7.79251 1C7.13299 1 6.47346 1 5.81394 1C5.29845 1 4.78297 1 4.26748 1C3.97183 1 3.68376 1 3.38811 1C3.33505 1 3.27441 1 3.22134 1C2.63763 1.03025 2.11456 1.46881 2.02359 2.05105C1.99326 2.23252 2.00084 2.42156 2.00084 2.6106C2.00084 2.95086 2.00084 3.29113 2.00084 3.6314C2.00084 4.14558 2.00084 4.65976 2.00084 5.17394C2.00084 5.8091 2.00084 6.45183 2.00084 7.087C2.00084 7.79777 2.00084 8.50855 2.00084 9.21933C2.00084 9.9528 2.00084 10.6787 2.00084 11.4122C2.00084 12.1154 2.00084 12.811 2.00084 13.5143C2.00084 14.1343 2.00084 14.7468 2.00084 15.3668C2.00084 15.8508 2.00084 16.3347 2.00084 16.8186C2.00084 17.1135 2.00084 17.416 2.00084 17.7109C2.00084 17.7714 2.00084 17.8394 2.00084 17.8999C2.00084 18.2251 2.11456 18.5275 2.32682 18.7695C2.5694 19.0417 2.92569 19.1854 3.28956 19.1854C3.35779 19.1854 3.4336 19.1854 3.50182 19.1854C3.85054 19.1854 4.19166 19.1854 4.54038 19.1854C5.09377 19.1854 5.63958 19.1854 6.19297 19.1854C6.87524 19.1854 7.55751 19.1854 8.24735 19.1854C8.9751 19.1854 9.70285 19.1854 10.4306 19.1854C11.1356 19.1854 11.833 19.1854 12.538 19.1854C13.1369 19.1854 13.7282 19.1854 14.3271 19.1854C14.7364 19.1854 15.1458 19.1854 15.5551 19.1854C15.6992 19.1854 15.8508 19.1854 15.9948 19.1854C16.1464 19.1854 16.2905 19.0493 16.2829 18.898C16.2753 18.7544 16.154 18.6183 15.9872 18.6183Z"/>
<path d="M15.9872 18.6183C15.8356 18.6183 15.6764 18.6183 15.5248 18.6183C15.1155 18.6183 14.7061 18.6183 14.2968 18.6183C13.7055 18.6183 13.1142 18.6183 12.5229 18.6183C11.833 18.6183 11.1356 18.6183 10.4458 18.6183C9.71801 18.6183 8.99784 18.6183 8.2701 18.6183C7.59541 18.6183 6.91315 18.6183 6.23846 18.6183C5.68507 18.6183 5.13926 18.6183 4.58587 18.6183C4.22957 18.6183 3.88086 18.6183 3.52457 18.6183C3.44876 18.6183 3.37296 18.6183 3.29715 18.6183C3.28199 18.6183 3.26682 18.6183 3.25166 18.6183C3.22133 18.6183 3.19102 18.6183 3.16069 18.6107C3.21376 18.6183 3.13795 18.6031 3.12279 18.6031C3.10005 18.5956 3.06972 18.588 3.04698 18.5805C3.03182 18.5729 3.01667 18.5729 3.00151 18.5653C2.95602 18.5502 3.03941 18.588 3.00151 18.5653C2.94844 18.5351 2.89538 18.5124 2.84989 18.4746C2.81957 18.4519 2.85746 18.4746 2.85746 18.4822C2.8423 18.4746 2.83472 18.4595 2.81956 18.4519C2.79682 18.4292 2.77407 18.4065 2.75891 18.3914C2.75133 18.3839 2.72101 18.346 2.74375 18.3687C2.7665 18.3914 2.73618 18.3612 2.73618 18.3612C2.72102 18.3385 2.70585 18.3082 2.69069 18.2856C2.67553 18.2629 2.66037 18.2326 2.65279 18.2024C2.67553 18.2477 2.64521 18.1797 2.63763 18.1646C2.63005 18.1343 2.62247 18.1041 2.61489 18.0738C2.6073 18.0587 2.6073 18.036 2.6073 18.0209C2.6073 18.0285 2.61488 18.0663 2.6073 18.0285C2.6073 17.9982 2.59973 17.968 2.59973 17.9302C2.59973 17.9226 2.59973 17.9075 2.59973 17.8999C2.59973 17.8319 2.59973 17.7638 2.59973 17.6958C2.59973 17.3933 2.59973 17.0908 2.59973 16.7959C2.59973 16.312 2.59973 15.8281 2.59973 15.3517C2.59973 14.7392 2.59973 14.1267 2.59973 13.5143C2.59973 12.8262 2.59973 12.1305 2.59973 11.4424C2.59973 10.7165 2.59973 9.9906 2.59973 9.27226C2.59973 8.56905 2.59973 7.86583 2.59973 7.17017C2.59973 6.53501 2.59973 5.89984 2.59973 5.26468C2.59973 4.7505 2.59973 4.22875 2.59973 3.71457C2.59973 3.36674 2.59973 3.01892 2.59973 2.67865C2.59973 2.5501 2.59973 2.42156 2.59973 2.29301C2.59973 2.27789 2.59973 2.25521 2.59973 2.24008C2.59973 2.22496 2.59972 2.20228 2.6073 2.18715C2.6073 2.19471 2.59972 2.23252 2.6073 2.20228C2.62246 2.14178 2.63764 2.07373 2.66038 2.01324C2.63764 2.06617 2.67552 1.99055 2.6831 1.97543C2.69827 1.95275 2.70585 1.93006 2.72101 1.90738C2.72859 1.89226 2.77408 1.83176 2.74375 1.87713C2.7665 1.85445 2.78925 1.8242 2.81199 1.80152C2.81957 1.79396 2.88021 1.74103 2.85746 1.75615C2.83472 1.77127 2.88779 1.73346 2.90296 1.7259C2.9257 1.71078 2.95602 1.69566 2.97876 1.68053C2.99392 1.67297 3.00907 1.66541 3.02424 1.65785C3.00149 1.67297 3.00149 1.66541 3.02424 1.65785C3.08488 1.63516 3.13795 1.62004 3.1986 1.61248C3.14553 1.62004 3.20619 1.61248 3.22893 1.61248C3.24409 1.61248 3.26683 1.61248 3.28199 1.61248C3.32748 1.61248 3.36537 1.61248 3.41086 1.61248C3.70651 1.61248 4.00215 1.61248 4.2978 1.61248C4.81328 1.61248 5.32878 1.61248 5.84427 1.61248C6.49621 1.61248 7.14814 1.61248 7.80008 1.61248C8.52024 1.61248 9.24041 1.61248 9.96058 1.61248C10.6656 1.61248 11.3706 1.61248 12.0832 1.61248C12.7048 1.61248 13.3264 1.61248 13.948 1.61248C14.4029 1.61248 14.8653 1.61248 15.3201 1.61248C15.54 1.61248 15.7598 1.61248 15.9797 1.61248C16.01 1.61248 16.0403 1.61248 16.0706 1.61248C16.0858 1.61248 16.101 1.61248 16.1085 1.61248C16.0555 1.60492 16.101 1.61248 16.1085 1.61248C16.1389 1.62004 16.1692 1.6276 16.1995 1.63516C16.2222 1.64273 16.2526 1.65029 16.2753 1.65785C16.3208 1.67297 16.2374 1.63516 16.2753 1.65785C16.2905 1.66541 16.3056 1.67297 16.3208 1.68053C16.3435 1.69566 16.3739 1.71078 16.3966 1.7259C16.4042 1.73346 16.4193 1.74103 16.4269 1.74859C16.4648 1.77127 16.3966 1.71834 16.4269 1.74859C16.4421 1.76371 16.4648 1.77883 16.48 1.80152C16.4951 1.81664 16.5027 1.8242 16.5179 1.83932C16.5179 1.84689 16.5558 1.88469 16.5331 1.86201C16.5179 1.83932 16.5634 1.89982 16.571 1.91494C16.5861 1.93762 16.6013 1.96787 16.6164 1.99055C16.624 1.99812 16.6316 2.01324 16.6316 2.02836C16.624 2.0208 16.6164 1.97543 16.6316 2.02836C16.6392 2.05861 16.6543 2.08885 16.6619 2.11154C16.6695 2.14178 16.6771 2.17203 16.6847 2.20228C16.6771 2.14935 16.6847 2.22496 16.6847 2.24764C16.6847 2.26277 16.6847 2.27789 16.6847 2.29301C16.6847 2.30814 16.6847 2.3157 16.6847 2.33082C16.6847 2.52742 16.6847 2.72402 16.6847 2.92062C16.6847 3.32138 16.6847 3.72213 16.6847 4.12289C16.6847 4.67488 16.6847 5.22687 16.6847 5.78642C16.6847 6.44427 16.6847 7.10968 16.6847 7.76753C16.6847 8.47831 16.6847 9.18909 16.6847 9.90743C16.6847 10.6258 16.6847 11.3517 16.6847 12.07C16.6847 12.743 16.6847 13.4235 16.6847 14.0965C16.6847 14.6712 16.6847 15.2534 16.6847 15.8281C16.6847 16.2666 16.6847 16.6976 16.6847 17.1362C16.6847 17.3782 16.6847 17.6126 16.6847 17.8545C16.6847 17.8848 16.6847 17.915 16.6847 17.9528C16.6847 17.968 16.6847 17.9907 16.6847 18.0058C16.6847 18.0209 16.6847 18.036 16.6847 18.0436C16.6771 18.089 16.6923 17.9982 16.6847 18.0436C16.6695 18.0965 16.6619 18.157 16.6392 18.2099C16.6392 18.2175 16.6164 18.2629 16.6392 18.2099C16.6316 18.2251 16.6316 18.2326 16.624 18.2477C16.6089 18.2704 16.5937 18.3007 16.5785 18.3234C16.5634 18.346 16.5482 18.3687 16.5331 18.3839C16.571 18.3385 16.5179 18.399 16.5027 18.4141C16.48 18.4368 16.4572 18.4519 16.4421 18.4746C16.4421 18.4746 16.4042 18.5048 16.4345 18.4822C16.4648 18.4595 16.4193 18.4897 16.4118 18.4973C16.3663 18.5275 16.3208 18.5578 16.2677 18.5805C16.3132 18.5578 16.245 18.588 16.2298 18.5956C16.1995 18.6031 16.1692 18.6107 16.1388 18.6183C16.1237 18.6258 16.063 18.6334 16.1085 18.6258C16.063 18.6183 16.0251 18.6183 15.9872 18.6183ZM15.9872 18.6183C15.8356 18.6183 15.6916 18.7468 15.6992 18.9056C15.7068 19.0644 15.828 19.2005 15.9872 19.1929C16.5709 19.1854 17.1168 18.7771 17.2305 18.1873C17.2532 18.0738 17.2608 17.9604 17.2608 17.847C17.2608 17.6201 17.2608 17.3857 17.2608 17.1589C17.2608 16.7279 17.2608 16.2969 17.2608 15.8659C17.2608 15.2836 17.2608 14.7014 17.2608 14.1192C17.2608 13.4386 17.2608 12.7581 17.2608 12.0776C17.2608 11.3517 17.2608 10.6258 17.2608 9.89987C17.2608 9.18153 17.2608 8.45562 17.2608 7.73728C17.2608 7.07187 17.2608 6.40646 17.2608 5.74105C17.2608 5.1815 17.2608 4.62951 17.2608 4.06996C17.2608 3.6692 17.2608 3.26845 17.2608 2.86769C17.2608 2.67865 17.2608 2.48961 17.2608 2.29301C17.2608 1.58223 16.6922 1 15.9797 1C15.775 1 15.5627 1 15.3581 1C14.9032 1 14.4484 1 13.9935 1C13.3719 1 12.7427 1 12.1211 1C11.4085 1 10.6883 1 9.97575 1C9.24801 1 8.52026 1 7.79251 1C7.13299 1 6.47346 1 5.81394 1C5.29845 1 4.78297 1 4.26748 1C3.97183 1 3.68376 1 3.38811 1C3.33505 1 3.27441 1 3.22134 1C2.63763 1.03025 2.11456 1.46881 2.02359 2.05105C1.99326 2.23252 2.00084 2.42156 2.00084 2.6106C2.00084 2.95086 2.00084 3.29113 2.00084 3.6314C2.00084 4.14558 2.00084 4.65976 2.00084 5.17394C2.00084 5.8091 2.00084 6.45183 2.00084 7.087C2.00084 7.79777 2.00084 8.50855 2.00084 9.21933C2.00084 9.9528 2.00084 10.6787 2.00084 11.4122C2.00084 12.1154 2.00084 12.811 2.00084 13.5143C2.00084 14.1343 2.00084 14.7468 2.00084 15.3668C2.00084 15.8508 2.00084 16.3347 2.00084 16.8186C2.00084 17.1135 2.00084 17.416 2.00084 17.7109C2.00084 17.7714 2.00084 17.8394 2.00084 17.8999C2.00084 18.2251 2.11456 18.5275 2.32682 18.7695C2.5694 19.0417 2.92569 19.1854 3.28956 19.1854C3.35779 19.1854 3.4336 19.1854 3.50182 19.1854C3.85054 19.1854 4.19166 19.1854 4.54038 19.1854C5.09377 19.1854 5.63958 19.1854 6.19297 19.1854C6.87524 19.1854 7.55751 19.1854 8.24735 19.1854C8.9751 19.1854 9.70285 19.1854 10.4306 19.1854C11.1356 19.1854 11.833 19.1854 12.538 19.1854C13.1369 19.1854 13.7282 19.1854 14.3271 19.1854C14.7364 19.1854 15.1458 19.1854 15.5551 19.1854C15.6992 19.1854 15.8508 19.1854 15.9948 19.1854C16.1464 19.1854 16.2905 19.0493 16.2829 18.898C16.2753 18.7544 16.154 18.6183 15.9872 18.6183Z"/>
<path d="M8.42898 17.4538C9.13399 17.4538 9.83142 17.4538 10.5364 17.4538C10.635 17.4538 10.7335 17.4538 10.8321 17.4538C10.9837 17.4538 11.1277 17.3177 11.1201 17.1665C11.1125 17.0077 10.9913 16.8792 10.8321 16.8792C10.1271 16.8792 9.42965 16.8792 8.72464 16.8792C8.62609 16.8792 8.52753 16.8792 8.42898 16.8792C8.27737 16.8792 8.13333 17.0153 8.14091 17.1665C8.14091 17.3253 8.26221 17.4538 8.42898 17.4538Z"/>
<path d="M8.42898 17.4538C9.13399 17.4538 9.83142 17.4538 10.5364 17.4538C10.635 17.4538 10.7335 17.4538 10.8321 17.4538C10.9837 17.4538 11.1277 17.3177 11.1201 17.1665C11.1125 17.0077 10.9913 16.8792 10.8321 16.8792C10.1271 16.8792 9.42965 16.8792 8.72464 16.8792C8.62609 16.8792 8.52753 16.8792 8.42898 16.8792C8.27737 16.8792 8.13333 17.0153 8.14091 17.1665C8.14091 17.3253 8.26221 17.4538 8.42898 17.4538Z"/>
<path d="M8.42898 17.4538C9.13399 17.4538 9.83142 17.4538 10.5364 17.4538C10.635 17.4538 10.7335 17.4538 10.8321 17.4538C10.9837 17.4538 11.1277 17.3177 11.1201 17.1665C11.1125 17.0077 10.9913 16.8792 10.8321 16.8792C10.1271 16.8792 9.42965 16.8792 8.72464 16.8792C8.62609 16.8792 8.52753 16.8792 8.42898 16.8792C8.27737 16.8792 8.13333 17.0153 8.14091 17.1665C8.14091 17.3253 8.26221 17.4538 8.42898 17.4538Z"/>
<path d="M2.28836 15.7148C2.41723 15.7148 2.5461 15.7148 2.68255 15.7148C3.03884 15.7148 3.39514 15.7148 3.75144 15.7148C4.28208 15.7148 4.80515 15.7148 5.33579 15.7148C5.98015 15.7148 6.61694 15.7148 7.2613 15.7148C7.96631 15.7148 8.66374 15.7148 9.36874 15.7148C10.0813 15.7148 10.7863 15.7148 11.4989 15.7148C12.1584 15.7148 12.8255 15.7148 13.485 15.7148C14.046 15.7148 14.607 15.7148 15.168 15.7148C15.5698 15.7148 15.9715 15.7148 16.3733 15.7148C16.5628 15.7148 16.7523 15.7223 16.9419 15.7148C16.9494 15.7148 16.957 15.7148 16.9646 15.7148C17.1162 15.7148 17.2602 15.5786 17.2527 15.4274C17.2451 15.2686 17.1238 15.1401 16.9646 15.1401C16.8357 15.1401 16.7069 15.1401 16.5704 15.1401C16.2141 15.1401 15.8578 15.1401 15.5015 15.1401C14.9709 15.1401 14.4478 15.1401 13.9172 15.1401C13.2728 15.1401 12.636 15.1401 11.9917 15.1401C11.2866 15.1401 10.5892 15.1401 9.88421 15.1401C9.17163 15.1401 8.46663 15.1401 7.75405 15.1401C7.09453 15.1401 6.42743 15.1401 5.76791 15.1401C5.20694 15.1401 4.64595 15.1401 4.08498 15.1401C3.6832 15.1401 3.28143 15.1401 2.87966 15.1401C2.69014 15.1401 2.50062 15.1325 2.3111 15.1401C2.30352 15.1401 2.29594 15.1401 2.28836 15.1401C2.13674 15.1401 1.99271 15.2762 2.00029 15.4274C2.00787 15.5786 2.12916 15.7148 2.28836 15.7148Z"/>
<path d="M2.28836 15.7148C2.41723 15.7148 2.5461 15.7148 2.68255 15.7148C3.03884 15.7148 3.39514 15.7148 3.75144 15.7148C4.28208 15.7148 4.80515 15.7148 5.33579 15.7148C5.98015 15.7148 6.61694 15.7148 7.2613 15.7148C7.96631 15.7148 8.66374 15.7148 9.36874 15.7148C10.0813 15.7148 10.7863 15.7148 11.4989 15.7148C12.1584 15.7148 12.8255 15.7148 13.485 15.7148C14.046 15.7148 14.607 15.7148 15.168 15.7148C15.5698 15.7148 15.9715 15.7148 16.3733 15.7148C16.5628 15.7148 16.7523 15.7223 16.9419 15.7148C16.9494 15.7148 16.957 15.7148 16.9646 15.7148C17.1162 15.7148 17.2602 15.5786 17.2527 15.4274C17.2451 15.2686 17.1238 15.1401 16.9646 15.1401C16.8357 15.1401 16.7069 15.1401 16.5704 15.1401C16.2141 15.1401 15.8578 15.1401 15.5015 15.1401C14.9709 15.1401 14.4478 15.1401 13.9172 15.1401C13.2728 15.1401 12.636 15.1401 11.9917 15.1401C11.2866 15.1401 10.5892 15.1401 9.88421 15.1401C9.17163 15.1401 8.46663 15.1401 7.75405 15.1401C7.09453 15.1401 6.42743 15.1401 5.76791 15.1401C5.20694 15.1401 4.64595 15.1401 4.08498 15.1401C3.6832 15.1401 3.28143 15.1401 2.87966 15.1401C2.69014 15.1401 2.50062 15.1325 2.3111 15.1401C2.30352 15.1401 2.29594 15.1401 2.28836 15.1401C2.13674 15.1401 1.99271 15.2762 2.00029 15.4274C2.00787 15.5786 2.12916 15.7148 2.28836 15.7148Z"/>
<path d="M2.28836 15.7148C2.41723 15.7148 2.5461 15.7148 2.68255 15.7148C3.03884 15.7148 3.39514 15.7148 3.75144 15.7148C4.28208 15.7148 4.80515 15.7148 5.33579 15.7148C5.98015 15.7148 6.61694 15.7148 7.2613 15.7148C7.96631 15.7148 8.66374 15.7148 9.36874 15.7148C10.0813 15.7148 10.7863 15.7148 11.4989 15.7148C12.1584 15.7148 12.8255 15.7148 13.485 15.7148C14.046 15.7148 14.607 15.7148 15.168 15.7148C15.5698 15.7148 15.9715 15.7148 16.3733 15.7148C16.5628 15.7148 16.7523 15.7223 16.9419 15.7148C16.9494 15.7148 16.957 15.7148 16.9646 15.7148C17.1162 15.7148 17.2602 15.5786 17.2527 15.4274C17.2451 15.2686 17.1238 15.1401 16.9646 15.1401C16.8357 15.1401 16.7069 15.1401 16.5704 15.1401C16.2141 15.1401 15.8578 15.1401 15.5015 15.1401C14.9709 15.1401 14.4478 15.1401 13.9172 15.1401C13.2728 15.1401 12.636 15.1401 11.9917 15.1401C11.2866 15.1401 10.5892 15.1401 9.88421 15.1401C9.17163 15.1401 8.46663 15.1401 7.75405 15.1401C7.09453 15.1401 6.42743 15.1401 5.76791 15.1401C5.20694 15.1401 4.64595 15.1401 4.08498 15.1401C3.6832 15.1401 3.28143 15.1401 2.87966 15.1401C2.69014 15.1401 2.50062 15.1325 2.3111 15.1401C2.30352 15.1401 2.29594 15.1401 2.28836 15.1401C2.13674 15.1401 1.99271 15.2762 2.00029 15.4274C2.00787 15.5786 2.12916 15.7148 2.28836 15.7148Z"/>
</svg>
