<svg width="20" height="20" viewBox="0 0 20 20" fill="none" xmlns="http://www.w3.org/2000/svg">
<path d="M8.09557 9.25352C8.09557 10.1231 8.09557 11.0002 8.09557 11.8698C8.09557 12.4369 8.09557 13.0116 8.09557 13.5787C8.09557 13.745 8.09557 13.9189 8.09557 14.0853C8.09557 14.1231 8.09557 14.1609 8.09557 14.1987C8.09557 14.2063 8.09557 14.2063 8.09557 14.2139C8.09557 14.2668 8.09557 14.3197 8.08799 14.3726C8.08799 14.4029 8.08042 14.4256 8.08042 14.4558C8.07284 14.4936 8.07284 14.4936 8.08042 14.4558C8.08042 14.4709 8.07283 14.4936 8.07283 14.5088C8.05767 14.6146 8.02734 14.7129 7.99702 14.8112C7.98186 14.8566 7.9667 14.9095 7.94396 14.9549C7.9667 14.8944 7.93638 14.97 7.9288 14.9776C7.91364 15.0078 7.89847 15.038 7.88331 15.0683C7.83783 15.159 7.78477 15.2422 7.72413 15.3254C7.71655 15.333 7.67105 15.3935 7.70895 15.3481C7.69379 15.3708 7.67864 15.3859 7.66348 15.4086C7.62558 15.4539 7.58766 15.4993 7.54218 15.5371C7.51186 15.5674 7.48154 15.5976 7.45122 15.6203C7.42847 15.6354 7.41331 15.6505 7.39057 15.6657C7.32992 15.7186 7.43605 15.6354 7.36782 15.6808C7.27685 15.7488 7.18589 15.8018 7.08734 15.8547C7.04185 15.8774 6.99637 15.9001 6.95088 15.9227C7.01153 15.8925 6.93574 15.9303 6.92815 15.9303C6.90541 15.9379 6.88267 15.9454 6.85235 15.953C6.74622 15.9908 6.6325 16.021 6.52637 16.0362C6.51879 16.0362 6.43539 16.0513 6.49604 16.0437C6.4733 16.0437 6.44299 16.0513 6.41266 16.0513C6.3596 16.0588 6.30653 16.0589 6.25346 16.0589C6.2004 16.0589 6.14734 16.0588 6.09428 16.0513C6.06395 16.0513 6.04121 16.0437 6.01088 16.0437C5.99572 16.0437 5.97298 16.0437 5.95782 16.0362C5.98814 16.0437 5.98814 16.0437 5.95782 16.0362C5.85169 16.0135 5.75314 15.9984 5.65459 15.9606C5.60153 15.9454 5.55603 15.9303 5.51055 15.9076C5.43474 15.8774 5.56363 15.9303 5.48782 15.9001C5.4575 15.8849 5.42716 15.8698 5.39684 15.8547C5.30587 15.8093 5.22249 15.7564 5.1391 15.6959C5.11636 15.6808 5.1012 15.6657 5.07845 15.6505C5.12394 15.6883 5.07846 15.6505 5.07088 15.643C5.03298 15.6052 4.98749 15.5749 4.94958 15.5371C4.91168 15.4993 4.88137 15.4691 4.84346 15.4312C4.8283 15.4161 4.81312 15.3934 4.79038 15.3708C4.7828 15.3632 4.72974 15.3027 4.77522 15.3481C4.707 15.2649 4.64636 15.1666 4.5933 15.0683C4.57055 15.0229 4.5478 14.9776 4.52506 14.9322C4.48715 14.8566 4.54781 14.9851 4.51749 14.9095C4.50991 14.8868 4.50232 14.8641 4.48715 14.8339C4.44925 14.728 4.41893 14.6222 4.39619 14.5088C4.38861 14.4861 4.38861 14.4558 4.38103 14.4331C4.38861 14.5012 4.38103 14.4105 4.38103 14.4029C4.37345 14.35 4.37344 14.297 4.37344 14.2441C4.37344 14.2214 4.37344 14.1987 4.37344 14.1761C4.37344 14.0702 4.37344 13.9643 4.37344 13.8585C4.37344 13.3518 4.37344 12.8452 4.37344 12.331C4.37344 11.3254 4.37344 10.3121 4.37344 9.30644C4.37344 9.29132 4.37344 9.26864 4.37344 9.25352C4.25215 9.34426 4.13087 9.44255 4.002 9.53329C4.56297 9.72233 5.17701 9.80551 5.7683 9.75258C5.90476 9.74502 6.0412 9.7299 6.17765 9.71478C6.76137 9.66185 7.3375 9.60891 7.92122 9.55598C8.08041 9.54085 8.23961 9.52572 8.3988 9.5106C8.55042 9.49548 8.69445 9.38963 8.68687 9.22328C8.67929 9.07961 8.558 8.92082 8.3988 8.93594C7.54218 9.01155 6.67798 9.09472 5.82137 9.17033C5.24523 9.22326 4.70701 9.16278 4.1612 8.97375C3.97926 8.91325 3.78973 9.07204 3.78973 9.25352C3.78973 9.54085 3.78973 9.82818 3.78973 10.1155C3.78973 10.728 3.78973 11.3405 3.78973 11.953C3.78973 12.5201 3.78973 13.0948 3.78973 13.6619C3.78973 14.0702 3.77458 14.4709 3.88829 14.8641C4.15361 15.7791 4.95717 16.4747 5.90476 16.6033C6.86751 16.7318 7.83025 16.2781 8.33815 15.4464C8.56557 15.0683 8.68687 14.6222 8.68687 14.1836C8.68687 14.0929 8.68687 14.0021 8.68687 13.9114C8.68687 13.4048 8.68687 12.8982 8.68687 12.3915C8.68687 11.7564 8.68687 11.1212 8.68687 10.486C8.68687 10.0853 8.68687 9.68451 8.68687 9.28376C8.68687 9.26107 8.68687 9.24596 8.68687 9.22328C8.68687 9.07205 8.55042 8.92838 8.3988 8.93594C8.23203 8.97375 8.09557 9.09473 8.09557 9.25352Z"/>
<path d="M8.09557 9.25352C8.09557 10.1231 8.09557 11.0002 8.09557 11.8698C8.09557 12.4369 8.09557 13.0116 8.09557 13.5787C8.09557 13.745 8.09557 13.9189 8.09557 14.0853C8.09557 14.1231 8.09557 14.1609 8.09557 14.1987C8.09557 14.2063 8.09557 14.2063 8.09557 14.2139C8.09557 14.2668 8.09557 14.3197 8.08799 14.3726C8.08799 14.4029 8.08042 14.4256 8.08042 14.4558C8.07284 14.4936 8.07284 14.4936 8.08042 14.4558C8.08042 14.4709 8.07283 14.4936 8.07283 14.5088C8.05767 14.6146 8.02734 14.7129 7.99702 14.8112C7.98186 14.8566 7.9667 14.9095 7.94396 14.9549C7.9667 14.8944 7.93638 14.97 7.9288 14.9776C7.91364 15.0078 7.89847 15.038 7.88331 15.0683C7.83783 15.159 7.78477 15.2422 7.72413 15.3254C7.71655 15.333 7.67105 15.3935 7.70895 15.3481C7.69379 15.3708 7.67864 15.3859 7.66348 15.4086C7.62558 15.4539 7.58766 15.4993 7.54218 15.5371C7.51186 15.5674 7.48154 15.5976 7.45122 15.6203C7.42847 15.6354 7.41331 15.6505 7.39057 15.6657C7.32992 15.7186 7.43605 15.6354 7.36782 15.6808C7.27685 15.7488 7.18589 15.8018 7.08734 15.8547C7.04185 15.8774 6.99637 15.9001 6.95088 15.9227C7.01153 15.8925 6.93574 15.9303 6.92815 15.9303C6.90541 15.9379 6.88267 15.9454 6.85235 15.953C6.74622 15.9908 6.6325 16.021 6.52637 16.0362C6.51879 16.0362 6.43539 16.0513 6.49604 16.0437C6.4733 16.0437 6.44299 16.0513 6.41266 16.0513C6.3596 16.0588 6.30653 16.0589 6.25346 16.0589C6.2004 16.0589 6.14734 16.0588 6.09428 16.0513C6.06395 16.0513 6.04121 16.0437 6.01088 16.0437C5.99572 16.0437 5.97298 16.0437 5.95782 16.0362C5.98814 16.0437 5.98814 16.0437 5.95782 16.0362C5.85169 16.0135 5.75314 15.9984 5.65459 15.9606C5.60153 15.9454 5.55603 15.9303 5.51055 15.9076C5.43474 15.8774 5.56363 15.9303 5.48782 15.9001C5.4575 15.8849 5.42716 15.8698 5.39684 15.8547C5.30587 15.8093 5.22249 15.7564 5.1391 15.6959C5.11636 15.6808 5.1012 15.6657 5.07845 15.6505C5.12394 15.6883 5.07846 15.6505 5.07088 15.643C5.03298 15.6052 4.98749 15.5749 4.94958 15.5371C4.91168 15.4993 4.88137 15.4691 4.84346 15.4312C4.8283 15.4161 4.81312 15.3934 4.79038 15.3708C4.7828 15.3632 4.72974 15.3027 4.77522 15.3481C4.707 15.2649 4.64636 15.1666 4.5933 15.0683C4.57055 15.0229 4.5478 14.9776 4.52506 14.9322C4.48715 14.8566 4.54781 14.9851 4.51749 14.9095C4.50991 14.8868 4.50232 14.8641 4.48715 14.8339C4.44925 14.728 4.41893 14.6222 4.39619 14.5088C4.38861 14.4861 4.38861 14.4558 4.38103 14.4331C4.38861 14.5012 4.38103 14.4105 4.38103 14.4029C4.37345 14.35 4.37344 14.297 4.37344 14.2441C4.37344 14.2214 4.37344 14.1987 4.37344 14.1761C4.37344 14.0702 4.37344 13.9643 4.37344 13.8585C4.37344 13.3518 4.37344 12.8452 4.37344 12.331C4.37344 11.3254 4.37344 10.3121 4.37344 9.30644C4.37344 9.29132 4.37344 9.26864 4.37344 9.25352C4.25215 9.34426 4.13087 9.44255 4.002 9.53329C4.56297 9.72233 5.17701 9.80551 5.7683 9.75258C5.90476 9.74502 6.0412 9.7299 6.17765 9.71478C6.76137 9.66185 7.3375 9.60891 7.92122 9.55598C8.08041 9.54085 8.23961 9.52572 8.3988 9.5106C8.55042 9.49548 8.69445 9.38963 8.68687 9.22328C8.67929 9.07961 8.558 8.92082 8.3988 8.93594C7.54218 9.01155 6.67798 9.09472 5.82137 9.17033C5.24523 9.22326 4.70701 9.16278 4.1612 8.97375C3.97926 8.91325 3.78973 9.07204 3.78973 9.25352C3.78973 9.54085 3.78973 9.82818 3.78973 10.1155C3.78973 10.728 3.78973 11.3405 3.78973 11.953C3.78973 12.5201 3.78973 13.0948 3.78973 13.6619C3.78973 14.0702 3.77458 14.4709 3.88829 14.8641C4.15361 15.7791 4.95717 16.4747 5.90476 16.6033C6.86751 16.7318 7.83025 16.2781 8.33815 15.4464C8.56557 15.0683 8.68687 14.6222 8.68687 14.1836C8.68687 14.0929 8.68687 14.0021 8.68687 13.9114C8.68687 13.4048 8.68687 12.8982 8.68687 12.3915C8.68687 11.7564 8.68687 11.1212 8.68687 10.486C8.68687 10.0853 8.68687 9.68451 8.68687 9.28376C8.68687 9.26107 8.68687 9.24596 8.68687 9.22328C8.68687 9.07205 8.55042 8.92838 8.3988 8.93594C8.23203 8.97375 8.09557 9.09473 8.09557 9.25352Z"/>
<path d="M8.09557 9.25352C8.09557 10.1231 8.09557 11.0002 8.09557 11.8698C8.09557 12.4369 8.09557 13.0116 8.09557 13.5787C8.09557 13.745 8.09557 13.9189 8.09557 14.0853C8.09557 14.1231 8.09557 14.1609 8.09557 14.1987C8.09557 14.2063 8.09557 14.2063 8.09557 14.2139C8.09557 14.2668 8.09557 14.3197 8.08799 14.3726C8.08799 14.4029 8.08042 14.4256 8.08042 14.4558C8.07284 14.4936 8.07284 14.4936 8.08042 14.4558C8.08042 14.4709 8.07283 14.4936 8.07283 14.5088C8.05767 14.6146 8.02734 14.7129 7.99702 14.8112C7.98186 14.8566 7.9667 14.9095 7.94396 14.9549C7.9667 14.8944 7.93638 14.97 7.9288 14.9776C7.91364 15.0078 7.89847 15.038 7.88331 15.0683C7.83783 15.159 7.78477 15.2422 7.72413 15.3254C7.71655 15.333 7.67105 15.3935 7.70895 15.3481C7.69379 15.3708 7.67864 15.3859 7.66348 15.4086C7.62558 15.4539 7.58766 15.4993 7.54218 15.5371C7.51186 15.5674 7.48154 15.5976 7.45122 15.6203C7.42847 15.6354 7.41331 15.6505 7.39057 15.6657C7.32992 15.7186 7.43605 15.6354 7.36782 15.6808C7.27685 15.7488 7.18589 15.8018 7.08734 15.8547C7.04185 15.8774 6.99637 15.9001 6.95088 15.9227C7.01153 15.8925 6.93574 15.9303 6.92815 15.9303C6.90541 15.9379 6.88267 15.9454 6.85235 15.953C6.74622 15.9908 6.6325 16.021 6.52637 16.0362C6.51879 16.0362 6.43539 16.0513 6.49604 16.0437C6.4733 16.0437 6.44299 16.0513 6.41266 16.0513C6.3596 16.0588 6.30653 16.0589 6.25346 16.0589C6.2004 16.0589 6.14734 16.0588 6.09428 16.0513C6.06395 16.0513 6.04121 16.0437 6.01088 16.0437C5.99572 16.0437 5.97298 16.0437 5.95782 16.0362C5.98814 16.0437 5.98814 16.0437 5.95782 16.0362C5.85169 16.0135 5.75314 15.9984 5.65459 15.9606C5.60153 15.9454 5.55603 15.9303 5.51055 15.9076C5.43474 15.8774 5.56363 15.9303 5.48782 15.9001C5.4575 15.8849 5.42716 15.8698 5.39684 15.8547C5.30587 15.8093 5.22249 15.7564 5.1391 15.6959C5.11636 15.6808 5.1012 15.6657 5.07845 15.6505C5.12394 15.6883 5.07846 15.6505 5.07088 15.643C5.03298 15.6052 4.98749 15.5749 4.94958 15.5371C4.91168 15.4993 4.88137 15.4691 4.84346 15.4312C4.8283 15.4161 4.81312 15.3934 4.79038 15.3708C4.7828 15.3632 4.72974 15.3027 4.77522 15.3481C4.707 15.2649 4.64636 15.1666 4.5933 15.0683C4.57055 15.0229 4.5478 14.9776 4.52506 14.9322C4.48715 14.8566 4.54781 14.9851 4.51749 14.9095C4.50991 14.8868 4.50232 14.8641 4.48715 14.8339C4.44925 14.728 4.41893 14.6222 4.39619 14.5088C4.38861 14.4861 4.38861 14.4558 4.38103 14.4331C4.38861 14.5012 4.38103 14.4105 4.38103 14.4029C4.37345 14.35 4.37344 14.297 4.37344 14.2441C4.37344 14.2214 4.37344 14.1987 4.37344 14.1761C4.37344 14.0702 4.37344 13.9643 4.37344 13.8585C4.37344 13.3518 4.37344 12.8452 4.37344 12.331C4.37344 11.3254 4.37344 10.3121 4.37344 9.30644C4.37344 9.29132 4.37344 9.26864 4.37344 9.25352C4.25215 9.34426 4.13087 9.44255 4.002 9.53329C4.56297 9.72233 5.17701 9.80551 5.7683 9.75258C5.90476 9.74502 6.0412 9.7299 6.17765 9.71478C6.76137 9.66185 7.3375 9.60891 7.92122 9.55598C8.08041 9.54085 8.23961 9.52572 8.3988 9.5106C8.55042 9.49548 8.69445 9.38963 8.68687 9.22328C8.67929 9.07961 8.558 8.92082 8.3988 8.93594C7.54218 9.01155 6.67798 9.09472 5.82137 9.17033C5.24523 9.22326 4.70701 9.16278 4.1612 8.97375C3.97926 8.91325 3.78973 9.07204 3.78973 9.25352C3.78973 9.54085 3.78973 9.82818 3.78973 10.1155C3.78973 10.728 3.78973 11.3405 3.78973 11.953C3.78973 12.5201 3.78973 13.0948 3.78973 13.6619C3.78973 14.0702 3.77458 14.4709 3.88829 14.8641C4.15361 15.7791 4.95717 16.4747 5.90476 16.6033C6.86751 16.7318 7.83025 16.2781 8.33815 15.4464C8.56557 15.0683 8.68687 14.6222 8.68687 14.1836C8.68687 14.0929 8.68687 14.0021 8.68687 13.9114C8.68687 13.4048 8.68687 12.8982 8.68687 12.3915C8.68687 11.7564 8.68687 11.1212 8.68687 10.486C8.68687 10.0853 8.68687 9.68451 8.68687 9.28376C8.68687 9.26107 8.68687 9.24596 8.68687 9.22328C8.68687 9.07205 8.55042 8.92838 8.3988 8.93594C8.23203 8.97375 8.09557 9.09473 8.09557 9.25352Z"/>
<path d="M18.026 2.41795C18.026 3.08336 18.026 3.75633 18.026 4.42174C18.026 5.48791 18.026 6.55408 18.026 7.61269C18.026 7.85465 18.026 8.10418 18.026 8.34615C18.1245 8.24785 18.2231 8.14954 18.3141 8.05881C17.7834 8.10418 17.2603 8.15712 16.7297 8.20249C16.3355 8.24029 15.9489 8.27053 15.5547 8.30834C15.1908 8.33858 14.8269 8.3764 14.4631 8.40664C13.7884 8.46713 13.1137 8.52762 12.439 8.58811C11.7113 8.65616 10.9759 8.72422 10.2482 8.78472C9.73269 8.83009 9.20962 8.87545 8.69413 8.92838C8.46671 8.95106 8.24688 8.96619 8.01946 8.98887C7.35236 9.04936 6.69283 9.10985 6.02573 9.17034C5.6846 9.20059 5.35106 9.22328 5.00992 9.19303C4.7067 9.16278 4.37313 9.07961 4.06991 8.97375C4.03958 8.96619 4.00926 8.95106 3.97894 8.9435C3.96378 8.93594 3.88798 8.90569 3.93347 8.92838C3.87282 8.89813 3.81217 8.87546 3.75152 8.84521C3.63781 8.78472 3.5241 8.72423 3.41039 8.65617C3.29668 8.58812 3.19055 8.5125 3.092 8.43688C3.08442 8.42932 3.03894 8.39908 3.06926 8.42176C3.092 8.43688 3.06168 8.41419 3.0541 8.41419C3.03136 8.39151 3.00862 8.3764 2.97829 8.35372C2.92523 8.30835 2.87974 8.27052 2.82668 8.22516C2.72813 8.13442 2.63717 8.04369 2.5462 7.93783C2.50071 7.89246 2.4628 7.84708 2.4249 7.79415C2.40216 7.77147 2.38699 7.74879 2.36425 7.71854C2.34151 7.69586 2.36426 7.71855 2.37184 7.72611C2.35668 7.71099 2.34151 7.6883 2.33393 7.67318C2.18232 7.46146 2.04586 7.24217 1.93215 7.00777C1.91699 6.97752 1.90183 6.94727 1.89425 6.92458C1.88667 6.90946 1.87908 6.89434 1.8715 6.87166C1.8715 6.87922 1.88667 6.90947 1.8715 6.87923C1.84876 6.81873 1.81844 6.75068 1.7957 6.69019C1.75021 6.56164 1.71232 6.42552 1.67442 6.29698C1.65926 6.23648 1.64409 6.16843 1.63651 6.10794C1.62893 6.07769 1.62894 6.05502 1.62136 6.02477C1.62136 6.00965 1.61377 5.98697 1.61377 5.97185C1.61377 5.96429 1.5986 5.88866 1.60618 5.92647C1.61376 5.95672 1.60618 5.91135 1.60618 5.91135C1.60618 5.89623 1.59861 5.87355 1.59861 5.85843C1.59861 5.82818 1.59102 5.79037 1.59102 5.76012C1.58344 5.69207 1.58344 5.61645 1.57586 5.5484C1.56828 5.39717 1.57587 5.25351 1.58345 5.10228C1.59103 5.02666 1.5986 4.9586 1.60618 4.88298C1.61376 4.83005 1.5986 4.92079 1.60618 4.86786C1.60618 4.85274 1.61377 4.83761 1.61377 4.82249C1.62135 4.78468 1.62893 4.73932 1.63651 4.70151C1.75022 4.11172 1.96248 3.62779 2.31878 3.13629C2.34152 3.10604 2.35668 3.08335 2.37943 3.05311C2.35668 3.08335 2.40975 3.01529 2.41733 3.00773C2.46281 2.94724 2.51587 2.89431 2.56136 2.84138C2.6599 2.72796 2.76603 2.62967 2.87974 2.53137C3.00103 2.42551 3.06168 2.37257 3.18297 2.28939C3.30426 2.20621 3.42556 2.13061 3.55443 2.05499C4.0396 1.78278 4.6233 1.61642 5.16911 1.57862C5.5254 1.55593 5.87411 1.59374 6.23041 1.63154C6.71557 1.67691 7.20075 1.72229 7.68591 1.76765C8.36818 1.82815 9.05801 1.88864 9.74027 1.95669C10.4908 2.02475 11.2337 2.09279 11.9842 2.16085C12.6437 2.22134 13.3108 2.28184 13.9703 2.34233C14.41 2.38014 14.8497 2.4255 15.2893 2.46331C15.4637 2.47843 15.6381 2.49356 15.8124 2.50868C16.4871 2.56918 17.1542 2.62966 17.8289 2.69015C17.9881 2.70528 18.1473 2.72041 18.3065 2.73553C18.4581 2.75065 18.6021 2.59186 18.5945 2.44819C18.587 2.28184 18.4657 2.17597 18.3065 2.16085C17.7758 2.11548 17.2376 2.06256 16.7069 2.01719C16.3203 1.97938 15.9413 1.94912 15.5547 1.91132C15.259 1.88107 14.971 1.8584 14.6753 1.82815C14.0916 1.77522 13.5003 1.72228 12.9166 1.66935C12.1813 1.6013 11.4459 1.53325 10.7106 1.4652C9.97528 1.39714 9.23994 1.32909 8.50462 1.26104C7.91332 1.20811 7.32962 1.15517 6.73833 1.10224C6.4351 1.07199 6.13944 1.04932 5.83621 1.01908C4.86588 0.928337 3.87281 1.16274 3.04651 1.69204C2.00796 2.35745 1.26505 3.44631 1.06037 4.66371C0.870856 5.82061 1.1286 7.02289 1.81844 7.97564C2.50071 8.91327 3.53927 9.58623 4.69154 9.76771C5.10848 9.83576 5.5254 9.83576 5.94992 9.79795C6.25315 9.7677 6.55638 9.74503 6.85961 9.71478C7.36751 9.66941 7.87543 9.62404 8.38334 9.57867C8.67898 9.54843 8.97463 9.52573 9.27786 9.49549C9.93738 9.435 10.5893 9.37451 11.2488 9.31402C11.9918 9.24597 12.7422 9.17792 13.4851 9.10986C14.0461 9.05693 14.6071 9.004 15.1756 8.95863C15.3879 8.93595 15.5926 8.92082 15.8048 8.89814C16.4795 8.83765 17.1542 8.77714 17.8289 8.71665C17.9881 8.70153 18.1549 8.68642 18.3141 8.67129C18.4732 8.65617 18.6021 8.55031 18.6021 8.38395C18.6021 7.71854 18.6021 7.04557 18.6021 6.38016C18.6021 5.31399 18.6021 4.24783 18.6021 3.18922C18.6021 2.94725 18.6021 2.69772 18.6021 2.45576C18.6021 2.30453 18.4657 2.16086 18.3141 2.16842C18.1549 2.13817 18.026 2.25916 18.026 2.41795Z"/>
<path d="M18.026 2.41795C18.026 3.08336 18.026 3.75633 18.026 4.42174C18.026 5.48791 18.026 6.55408 18.026 7.61269C18.026 7.85465 18.026 8.10418 18.026 8.34615C18.1245 8.24785 18.2231 8.14954 18.3141 8.05881C17.7834 8.10418 17.2603 8.15712 16.7297 8.20249C16.3355 8.24029 15.9489 8.27053 15.5547 8.30834C15.1908 8.33858 14.8269 8.3764 14.4631 8.40664C13.7884 8.46713 13.1137 8.52762 12.439 8.58811C11.7113 8.65616 10.9759 8.72422 10.2482 8.78472C9.73269 8.83009 9.20962 8.87545 8.69413 8.92838C8.46671 8.95106 8.24688 8.96619 8.01946 8.98887C7.35236 9.04936 6.69283 9.10985 6.02573 9.17034C5.6846 9.20059 5.35106 9.22328 5.00992 9.19303C4.7067 9.16278 4.37313 9.07961 4.06991 8.97375C4.03958 8.96619 4.00926 8.95106 3.97894 8.9435C3.96378 8.93594 3.88798 8.90569 3.93347 8.92838C3.87282 8.89813 3.81217 8.87546 3.75152 8.84521C3.63781 8.78472 3.5241 8.72423 3.41039 8.65617C3.29668 8.58812 3.19055 8.5125 3.092 8.43688C3.08442 8.42932 3.03894 8.39908 3.06926 8.42176C3.092 8.43688 3.06168 8.41419 3.0541 8.41419C3.03136 8.39151 3.00862 8.3764 2.97829 8.35372C2.92523 8.30835 2.87974 8.27052 2.82668 8.22516C2.72813 8.13442 2.63717 8.04369 2.5462 7.93783C2.50071 7.89246 2.4628 7.84708 2.4249 7.79415C2.40216 7.77147 2.38699 7.74879 2.36425 7.71854C2.34151 7.69586 2.36426 7.71855 2.37184 7.72611C2.35668 7.71099 2.34151 7.6883 2.33393 7.67318C2.18232 7.46146 2.04586 7.24217 1.93215 7.00777C1.91699 6.97752 1.90183 6.94727 1.89425 6.92458C1.88667 6.90946 1.87908 6.89434 1.8715 6.87166C1.8715 6.87922 1.88667 6.90947 1.8715 6.87923C1.84876 6.81873 1.81844 6.75068 1.7957 6.69019C1.75021 6.56164 1.71232 6.42552 1.67442 6.29698C1.65926 6.23648 1.64409 6.16843 1.63651 6.10794C1.62893 6.07769 1.62894 6.05502 1.62136 6.02477C1.62136 6.00965 1.61377 5.98697 1.61377 5.97185C1.61377 5.96429 1.5986 5.88866 1.60618 5.92647C1.61376 5.95672 1.60618 5.91135 1.60618 5.91135C1.60618 5.89623 1.59861 5.87355 1.59861 5.85843C1.59861 5.82818 1.59102 5.79037 1.59102 5.76012C1.58344 5.69207 1.58344 5.61645 1.57586 5.5484C1.56828 5.39717 1.57587 5.25351 1.58345 5.10228C1.59103 5.02666 1.5986 4.9586 1.60618 4.88298C1.61376 4.83005 1.5986 4.92079 1.60618 4.86786C1.60618 4.85274 1.61377 4.83761 1.61377 4.82249C1.62135 4.78468 1.62893 4.73932 1.63651 4.70151C1.75022 4.11172 1.96248 3.62779 2.31878 3.13629C2.34152 3.10604 2.35668 3.08335 2.37943 3.05311C2.35668 3.08335 2.40975 3.01529 2.41733 3.00773C2.46281 2.94724 2.51587 2.89431 2.56136 2.84138C2.6599 2.72796 2.76603 2.62967 2.87974 2.53137C3.00103 2.42551 3.06168 2.37257 3.18297 2.28939C3.30426 2.20621 3.42556 2.13061 3.55443 2.05499C4.0396 1.78278 4.6233 1.61642 5.16911 1.57862C5.5254 1.55593 5.87411 1.59374 6.23041 1.63154C6.71557 1.67691 7.20075 1.72229 7.68591 1.76765C8.36818 1.82815 9.05801 1.88864 9.74027 1.95669C10.4908 2.02475 11.2337 2.09279 11.9842 2.16085C12.6437 2.22134 13.3108 2.28184 13.9703 2.34233C14.41 2.38014 14.8497 2.4255 15.2893 2.46331C15.4637 2.47843 15.6381 2.49356 15.8124 2.50868C16.4871 2.56918 17.1542 2.62966 17.8289 2.69015C17.9881 2.70528 18.1473 2.72041 18.3065 2.73553C18.4581 2.75065 18.6021 2.59186 18.5945 2.44819C18.587 2.28184 18.4657 2.17597 18.3065 2.16085C17.7758 2.11548 17.2376 2.06256 16.7069 2.01719C16.3203 1.97938 15.9413 1.94912 15.5547 1.91132C15.259 1.88107 14.971 1.8584 14.6753 1.82815C14.0916 1.77522 13.5003 1.72228 12.9166 1.66935C12.1813 1.6013 11.4459 1.53325 10.7106 1.4652C9.97528 1.39714 9.23994 1.32909 8.50462 1.26104C7.91332 1.20811 7.32962 1.15517 6.73833 1.10224C6.4351 1.07199 6.13944 1.04932 5.83621 1.01908C4.86588 0.928337 3.87281 1.16274 3.04651 1.69204C2.00796 2.35745 1.26505 3.44631 1.06037 4.66371C0.870856 5.82061 1.1286 7.02289 1.81844 7.97564C2.50071 8.91327 3.53927 9.58623 4.69154 9.76771C5.10848 9.83576 5.5254 9.83576 5.94992 9.79795C6.25315 9.7677 6.55638 9.74503 6.85961 9.71478C7.36751 9.66941 7.87543 9.62404 8.38334 9.57867C8.67898 9.54843 8.97463 9.52573 9.27786 9.49549C9.93738 9.435 10.5893 9.37451 11.2488 9.31402C11.9918 9.24597 12.7422 9.17792 13.4851 9.10986C14.0461 9.05693 14.6071 9.004 15.1756 8.95863C15.3879 8.93595 15.5926 8.92082 15.8048 8.89814C16.4795 8.83765 17.1542 8.77714 17.8289 8.71665C17.9881 8.70153 18.1549 8.68642 18.3141 8.67129C18.4732 8.65617 18.6021 8.55031 18.6021 8.38395C18.6021 7.71854 18.6021 7.04557 18.6021 6.38016C18.6021 5.31399 18.6021 4.24783 18.6021 3.18922C18.6021 2.94725 18.6021 2.69772 18.6021 2.45576C18.6021 2.30453 18.4657 2.16086 18.3141 2.16842C18.1549 2.13817 18.026 2.25916 18.026 2.41795Z"/>
<path d="M18.026 2.41795C18.026 3.08336 18.026 3.75633 18.026 4.42174C18.026 5.48791 18.026 6.55408 18.026 7.61269C18.026 7.85465 18.026 8.10418 18.026 8.34615C18.1245 8.24785 18.2231 8.14954 18.3141 8.05881C17.7834 8.10418 17.2603 8.15712 16.7297 8.20249C16.3355 8.24029 15.9489 8.27053 15.5547 8.30834C15.1908 8.33858 14.8269 8.3764 14.4631 8.40664C13.7884 8.46713 13.1137 8.52762 12.439 8.58811C11.7113 8.65616 10.9759 8.72422 10.2482 8.78472C9.73269 8.83009 9.20962 8.87545 8.69413 8.92838C8.46671 8.95106 8.24688 8.96619 8.01946 8.98887C7.35236 9.04936 6.69283 9.10985 6.02573 9.17034C5.6846 9.20059 5.35106 9.22328 5.00992 9.19303C4.7067 9.16278 4.37313 9.07961 4.06991 8.97375C4.03958 8.96619 4.00926 8.95106 3.97894 8.9435C3.96378 8.93594 3.88798 8.90569 3.93347 8.92838C3.87282 8.89813 3.81217 8.87546 3.75152 8.84521C3.63781 8.78472 3.5241 8.72423 3.41039 8.65617C3.29668 8.58812 3.19055 8.5125 3.092 8.43688C3.08442 8.42932 3.03894 8.39908 3.06926 8.42176C3.092 8.43688 3.06168 8.41419 3.0541 8.41419C3.03136 8.39151 3.00862 8.3764 2.97829 8.35372C2.92523 8.30835 2.87974 8.27052 2.82668 8.22516C2.72813 8.13442 2.63717 8.04369 2.5462 7.93783C2.50071 7.89246 2.4628 7.84708 2.4249 7.79415C2.40216 7.77147 2.38699 7.74879 2.36425 7.71854C2.34151 7.69586 2.36426 7.71855 2.37184 7.72611C2.35668 7.71099 2.34151 7.6883 2.33393 7.67318C2.18232 7.46146 2.04586 7.24217 1.93215 7.00777C1.91699 6.97752 1.90183 6.94727 1.89425 6.92458C1.88667 6.90946 1.87908 6.89434 1.8715 6.87166C1.8715 6.87922 1.88667 6.90947 1.8715 6.87923C1.84876 6.81873 1.81844 6.75068 1.7957 6.69019C1.75021 6.56164 1.71232 6.42552 1.67442 6.29698C1.65926 6.23648 1.64409 6.16843 1.63651 6.10794C1.62893 6.07769 1.62894 6.05502 1.62136 6.02477C1.62136 6.00965 1.61377 5.98697 1.61377 5.97185C1.61377 5.96429 1.5986 5.88866 1.60618 5.92647C1.61376 5.95672 1.60618 5.91135 1.60618 5.91135C1.60618 5.89623 1.59861 5.87355 1.59861 5.85843C1.59861 5.82818 1.59102 5.79037 1.59102 5.76012C1.58344 5.69207 1.58344 5.61645 1.57586 5.5484C1.56828 5.39717 1.57587 5.25351 1.58345 5.10228C1.59103 5.02666 1.5986 4.9586 1.60618 4.88298C1.61376 4.83005 1.5986 4.92079 1.60618 4.86786C1.60618 4.85274 1.61377 4.83761 1.61377 4.82249C1.62135 4.78468 1.62893 4.73932 1.63651 4.70151C1.75022 4.11172 1.96248 3.62779 2.31878 3.13629C2.34152 3.10604 2.35668 3.08335 2.37943 3.05311C2.35668 3.08335 2.40975 3.01529 2.41733 3.00773C2.46281 2.94724 2.51587 2.89431 2.56136 2.84138C2.6599 2.72796 2.76603 2.62967 2.87974 2.53137C3.00103 2.42551 3.06168 2.37257 3.18297 2.28939C3.30426 2.20621 3.42556 2.13061 3.55443 2.05499C4.0396 1.78278 4.6233 1.61642 5.16911 1.57862C5.5254 1.55593 5.87411 1.59374 6.23041 1.63154C6.71557 1.67691 7.20075 1.72229 7.68591 1.76765C8.36818 1.82815 9.05801 1.88864 9.74027 1.95669C10.4908 2.02475 11.2337 2.09279 11.9842 2.16085C12.6437 2.22134 13.3108 2.28184 13.9703 2.34233C14.41 2.38014 14.8497 2.4255 15.2893 2.46331C15.4637 2.47843 15.6381 2.49356 15.8124 2.50868C16.4871 2.56918 17.1542 2.62966 17.8289 2.69015C17.9881 2.70528 18.1473 2.72041 18.3065 2.73553C18.4581 2.75065 18.6021 2.59186 18.5945 2.44819C18.587 2.28184 18.4657 2.17597 18.3065 2.16085C17.7758 2.11548 17.2376 2.06256 16.7069 2.01719C16.3203 1.97938 15.9413 1.94912 15.5547 1.91132C15.259 1.88107 14.971 1.8584 14.6753 1.82815C14.0916 1.77522 13.5003 1.72228 12.9166 1.66935C12.1813 1.6013 11.4459 1.53325 10.7106 1.4652C9.97528 1.39714 9.23994 1.32909 8.50462 1.26104C7.91332 1.20811 7.32962 1.15517 6.73833 1.10224C6.4351 1.07199 6.13944 1.04932 5.83621 1.01908C4.86588 0.928337 3.87281 1.16274 3.04651 1.69204C2.00796 2.35745 1.26505 3.44631 1.06037 4.66371C0.870856 5.82061 1.1286 7.02289 1.81844 7.97564C2.50071 8.91327 3.53927 9.58623 4.69154 9.76771C5.10848 9.83576 5.5254 9.83576 5.94992 9.79795C6.25315 9.7677 6.55638 9.74503 6.85961 9.71478C7.36751 9.66941 7.87543 9.62404 8.38334 9.57867C8.67898 9.54843 8.97463 9.52573 9.27786 9.49549C9.93738 9.435 10.5893 9.37451 11.2488 9.31402C11.9918 9.24597 12.7422 9.17792 13.4851 9.10986C14.0461 9.05693 14.6071 9.004 15.1756 8.95863C15.3879 8.93595 15.5926 8.92082 15.8048 8.89814C16.4795 8.83765 17.1542 8.77714 17.8289 8.71665C17.9881 8.70153 18.1549 8.68642 18.3141 8.67129C18.4732 8.65617 18.6021 8.55031 18.6021 8.38395C18.6021 7.71854 18.6021 7.04557 18.6021 6.38016C18.6021 5.31399 18.6021 4.24783 18.6021 3.18922C18.6021 2.94725 18.6021 2.69772 18.6021 2.45576C18.6021 2.30453 18.4657 2.16086 18.3141 2.16842C18.1549 2.13817 18.026 2.25916 18.026 2.41795Z"/>
<path d="M7.1019 5.38962C7.1019 5.44255 7.10191 5.49548 7.09433 5.54841C7.09433 5.56354 7.09433 5.58622 7.08675 5.60134C7.07916 5.68452 7.10192 5.54086 7.07918 5.6316C7.06401 5.72234 7.04126 5.82063 7.01094 5.91137C7.00336 5.93405 6.99577 5.95674 6.98819 5.98698C6.98819 5.98698 6.95787 6.0626 6.97303 6.02479C6.9882 5.98698 6.95788 6.0626 6.95788 6.0626C6.9503 6.08528 6.93514 6.10796 6.92756 6.13064C6.88208 6.21382 6.83658 6.28943 6.78352 6.37261C6.77594 6.38017 6.73046 6.44823 6.76836 6.3953C6.76078 6.41042 6.74562 6.41798 6.73804 6.4331C6.70772 6.47091 6.67738 6.50117 6.64706 6.53898C6.61674 6.56922 6.57885 6.60701 6.54853 6.63726C6.53337 6.64482 6.52578 6.65996 6.51062 6.66752C6.50304 6.67508 6.41965 6.73556 6.47272 6.69776C6.40449 6.75069 6.33626 6.79606 6.26046 6.83387C6.21497 6.85655 6.16948 6.87923 6.124 6.90191C6.10884 6.90947 6.09367 6.91704 6.07851 6.9246C6.13915 6.90192 6.04061 6.93972 6.02545 6.93972C5.94206 6.96997 5.85867 6.99266 5.77528 7.00778C5.75254 7.01535 5.72222 7.01534 5.69947 7.0229C5.64641 7.03047 5.68431 7.0229 5.69947 7.0229C5.63883 7.03047 5.58578 7.03802 5.52513 7.03802C5.42658 7.03802 5.3356 7.03803 5.24463 7.03047C5.16124 7.02291 5.30528 7.04559 5.21432 7.0229C5.19915 7.0229 5.17642 7.01533 5.16125 7.01533C5.10819 7.00777 5.06271 6.99265 5.00964 6.97753C4.95658 6.9624 4.91108 6.94729 4.8656 6.93217C4.85044 6.92461 4.83528 6.91705 4.82012 6.91705C4.88077 6.93973 4.80496 6.90948 4.79738 6.90948C4.71399 6.87167 4.63061 6.8263 4.5548 6.77337C4.53206 6.75825 4.50931 6.74314 4.49415 6.72801C4.49415 6.72801 4.42593 6.68264 4.46383 6.70533C4.49416 6.72801 4.4335 6.68264 4.4335 6.68264C4.41076 6.66751 4.39559 6.65239 4.37285 6.62971C4.30462 6.56922 4.2364 6.50116 4.18333 6.4331C4.17575 6.42554 4.13027 6.35749 4.16818 6.41042C4.16059 6.39529 4.14544 6.38017 4.13786 6.37261C4.10754 6.3348 4.0848 6.29699 4.06205 6.25919C4.03931 6.22138 4.01656 6.17602 3.99382 6.13821C3.98624 6.12309 3.97867 6.10796 3.97109 6.09284C3.96351 6.08528 3.9256 5.98699 3.94834 6.04748C3.91802 5.9643 3.88769 5.88867 3.86495 5.8055C3.84979 5.75257 3.84221 5.69964 3.83463 5.65427C3.83463 5.64671 3.82705 5.59378 3.83463 5.65427C3.82705 5.61646 3.82704 5.58622 3.82704 5.54841C3.81946 5.45768 3.81946 5.36693 3.82704 5.27619C3.82704 5.26107 3.84221 5.13254 3.83463 5.19303C3.84221 5.1401 3.85737 5.07961 3.86495 5.02668C3.88769 4.93594 3.91802 4.85275 3.94834 4.76958C3.9256 4.82251 3.97108 4.71665 3.97866 4.70153C4.0014 4.65616 4.02414 4.61079 4.05447 4.56542C4.07721 4.52005 4.10754 4.48225 4.13786 4.43688C4.14544 4.42176 4.16059 4.40663 4.16818 4.39907C4.13027 4.452 4.18333 4.38395 4.18333 4.37638C4.24398 4.30833 4.30462 4.24027 4.37285 4.17978C4.40317 4.14953 4.4335 4.12686 4.4714 4.09661C4.41834 4.13442 4.48657 4.08905 4.49415 4.08149C4.51689 4.06637 4.53206 4.05124 4.5548 4.03612C4.63061 3.98319 4.71399 3.93781 4.79738 3.90001C4.80496 3.90001 4.88077 3.86221 4.82012 3.89246C4.83528 3.88489 4.85044 3.87732 4.8656 3.87732C4.91108 3.8622 4.95657 3.84708 5.00205 3.83196C5.04754 3.81684 5.09302 3.80928 5.13851 3.79415C5.15367 3.79415 5.17641 3.78658 5.19157 3.78658C5.20673 3.78658 5.22947 3.77903 5.24463 3.77903C5.21431 3.7866 5.21431 3.7866 5.24463 3.77903C5.3356 3.77147 5.42658 3.7639 5.51754 3.77147C5.57061 3.77147 5.62368 3.77903 5.67675 3.77903C5.68433 3.77903 5.73739 3.7866 5.67675 3.77903C5.71465 3.7866 5.74497 3.79415 5.78287 3.79415C5.889 3.81684 5.97996 3.84708 6.07851 3.88489C6.15432 3.91513 6.0482 3.86977 6.09368 3.89246C6.12401 3.90758 6.14674 3.91514 6.17706 3.93026C6.22255 3.95295 6.26803 3.97563 6.31352 4.00588C6.359 4.02856 6.3969 4.0588 6.44239 4.08904C6.44997 4.09661 6.5182 4.14197 6.46513 4.10416C6.48787 4.11929 6.50304 4.13442 6.52578 4.14954C6.60917 4.21759 6.68498 4.30078 6.7532 4.38395C6.76078 4.39908 6.77594 4.40664 6.78352 4.42176C6.74561 4.36883 6.80627 4.452 6.81385 4.46712C6.84417 4.51249 6.8669 4.55029 6.89723 4.59566C6.91997 4.64103 6.9503 4.6864 6.96547 4.73177C6.97305 4.75445 6.98062 4.76958 6.99578 4.79227C7.00336 4.81495 7.00335 4.80738 6.98819 4.7847C6.99577 4.79982 7.00337 4.81495 7.00337 4.83007C7.04127 4.92837 7.064 5.02667 7.08675 5.13253C7.09433 5.15522 7.09432 5.18546 7.1019 5.20815C7.09432 5.14766 7.1019 5.22326 7.1019 5.23839C7.09432 5.26107 7.1019 5.32156 7.1019 5.38962C7.1019 5.54085 7.23836 5.68452 7.38997 5.67696C7.54917 5.66939 7.68562 5.54841 7.67804 5.38962C7.67046 4.45199 7.07916 3.61268 6.19222 3.28754C5.3356 2.96995 4.30462 3.24972 3.72849 3.9605C3.12962 4.69397 3.03865 5.73745 3.53897 6.54653C4.03172 7.34804 4.97931 7.7488 5.89658 7.56733C6.92755 7.37073 7.67804 6.41799 7.67804 5.38207C7.67804 5.23084 7.54159 5.08716 7.38997 5.09473C7.23078 5.10229 7.1019 5.22326 7.1019 5.38962Z"/>
<path d="M7.1019 5.38962C7.1019 5.44255 7.10191 5.49548 7.09433 5.54841C7.09433 5.56354 7.09433 5.58622 7.08675 5.60134C7.07916 5.68452 7.10192 5.54086 7.07918 5.6316C7.06401 5.72234 7.04126 5.82063 7.01094 5.91137C7.00336 5.93405 6.99577 5.95674 6.98819 5.98698C6.98819 5.98698 6.95787 6.0626 6.97303 6.02479C6.9882 5.98698 6.95788 6.0626 6.95788 6.0626C6.9503 6.08528 6.93514 6.10796 6.92756 6.13064C6.88208 6.21382 6.83658 6.28943 6.78352 6.37261C6.77594 6.38017 6.73046 6.44823 6.76836 6.3953C6.76078 6.41042 6.74562 6.41798 6.73804 6.4331C6.70772 6.47091 6.67738 6.50117 6.64706 6.53898C6.61674 6.56922 6.57885 6.60701 6.54853 6.63726C6.53337 6.64482 6.52578 6.65996 6.51062 6.66752C6.50304 6.67508 6.41965 6.73556 6.47272 6.69776C6.40449 6.75069 6.33626 6.79606 6.26046 6.83387C6.21497 6.85655 6.16948 6.87923 6.124 6.90191C6.10884 6.90947 6.09367 6.91704 6.07851 6.9246C6.13915 6.90192 6.04061 6.93972 6.02545 6.93972C5.94206 6.96997 5.85867 6.99266 5.77528 7.00778C5.75254 7.01535 5.72222 7.01534 5.69947 7.0229C5.64641 7.03047 5.68431 7.0229 5.69947 7.0229C5.63883 7.03047 5.58578 7.03802 5.52513 7.03802C5.42658 7.03802 5.3356 7.03803 5.24463 7.03047C5.16124 7.02291 5.30528 7.04559 5.21432 7.0229C5.19915 7.0229 5.17642 7.01533 5.16125 7.01533C5.10819 7.00777 5.06271 6.99265 5.00964 6.97753C4.95658 6.9624 4.91108 6.94729 4.8656 6.93217C4.85044 6.92461 4.83528 6.91705 4.82012 6.91705C4.88077 6.93973 4.80496 6.90948 4.79738 6.90948C4.71399 6.87167 4.63061 6.8263 4.5548 6.77337C4.53206 6.75825 4.50931 6.74314 4.49415 6.72801C4.49415 6.72801 4.42593 6.68264 4.46383 6.70533C4.49416 6.72801 4.4335 6.68264 4.4335 6.68264C4.41076 6.66751 4.39559 6.65239 4.37285 6.62971C4.30462 6.56922 4.2364 6.50116 4.18333 6.4331C4.17575 6.42554 4.13027 6.35749 4.16818 6.41042C4.16059 6.39529 4.14544 6.38017 4.13786 6.37261C4.10754 6.3348 4.0848 6.29699 4.06205 6.25919C4.03931 6.22138 4.01656 6.17602 3.99382 6.13821C3.98624 6.12309 3.97867 6.10796 3.97109 6.09284C3.96351 6.08528 3.9256 5.98699 3.94834 6.04748C3.91802 5.9643 3.88769 5.88867 3.86495 5.8055C3.84979 5.75257 3.84221 5.69964 3.83463 5.65427C3.83463 5.64671 3.82705 5.59378 3.83463 5.65427C3.82705 5.61646 3.82704 5.58622 3.82704 5.54841C3.81946 5.45768 3.81946 5.36693 3.82704 5.27619C3.82704 5.26107 3.84221 5.13254 3.83463 5.19303C3.84221 5.1401 3.85737 5.07961 3.86495 5.02668C3.88769 4.93594 3.91802 4.85275 3.94834 4.76958C3.9256 4.82251 3.97108 4.71665 3.97866 4.70153C4.0014 4.65616 4.02414 4.61079 4.05447 4.56542C4.07721 4.52005 4.10754 4.48225 4.13786 4.43688C4.14544 4.42176 4.16059 4.40663 4.16818 4.39907C4.13027 4.452 4.18333 4.38395 4.18333 4.37638C4.24398 4.30833 4.30462 4.24027 4.37285 4.17978C4.40317 4.14953 4.4335 4.12686 4.4714 4.09661C4.41834 4.13442 4.48657 4.08905 4.49415 4.08149C4.51689 4.06637 4.53206 4.05124 4.5548 4.03612C4.63061 3.98319 4.71399 3.93781 4.79738 3.90001C4.80496 3.90001 4.88077 3.86221 4.82012 3.89246C4.83528 3.88489 4.85044 3.87732 4.8656 3.87732C4.91108 3.8622 4.95657 3.84708 5.00205 3.83196C5.04754 3.81684 5.09302 3.80928 5.13851 3.79415C5.15367 3.79415 5.17641 3.78658 5.19157 3.78658C5.20673 3.78658 5.22947 3.77903 5.24463 3.77903C5.21431 3.7866 5.21431 3.7866 5.24463 3.77903C5.3356 3.77147 5.42658 3.7639 5.51754 3.77147C5.57061 3.77147 5.62368 3.77903 5.67675 3.77903C5.68433 3.77903 5.73739 3.7866 5.67675 3.77903C5.71465 3.7866 5.74497 3.79415 5.78287 3.79415C5.889 3.81684 5.97996 3.84708 6.07851 3.88489C6.15432 3.91513 6.0482 3.86977 6.09368 3.89246C6.12401 3.90758 6.14674 3.91514 6.17706 3.93026C6.22255 3.95295 6.26803 3.97563 6.31352 4.00588C6.359 4.02856 6.3969 4.0588 6.44239 4.08904C6.44997 4.09661 6.5182 4.14197 6.46513 4.10416C6.48787 4.11929 6.50304 4.13442 6.52578 4.14954C6.60917 4.21759 6.68498 4.30078 6.7532 4.38395C6.76078 4.39908 6.77594 4.40664 6.78352 4.42176C6.74561 4.36883 6.80627 4.452 6.81385 4.46712C6.84417 4.51249 6.8669 4.55029 6.89723 4.59566C6.91997 4.64103 6.9503 4.6864 6.96547 4.73177C6.97305 4.75445 6.98062 4.76958 6.99578 4.79227C7.00336 4.81495 7.00335 4.80738 6.98819 4.7847C6.99577 4.79982 7.00337 4.81495 7.00337 4.83007C7.04127 4.92837 7.064 5.02667 7.08675 5.13253C7.09433 5.15522 7.09432 5.18546 7.1019 5.20815C7.09432 5.14766 7.1019 5.22326 7.1019 5.23839C7.09432 5.26107 7.1019 5.32156 7.1019 5.38962C7.1019 5.54085 7.23836 5.68452 7.38997 5.67696C7.54917 5.66939 7.68562 5.54841 7.67804 5.38962C7.67046 4.45199 7.07916 3.61268 6.19222 3.28754C5.3356 2.96995 4.30462 3.24972 3.72849 3.9605C3.12962 4.69397 3.03865 5.73745 3.53897 6.54653C4.03172 7.34804 4.97931 7.7488 5.89658 7.56733C6.92755 7.37073 7.67804 6.41799 7.67804 5.38207C7.67804 5.23084 7.54159 5.08716 7.38997 5.09473C7.23078 5.10229 7.1019 5.22326 7.1019 5.38962Z"/>
<path d="M7.1019 5.38962C7.1019 5.44255 7.10191 5.49548 7.09433 5.54841C7.09433 5.56354 7.09433 5.58622 7.08675 5.60134C7.07916 5.68452 7.10192 5.54086 7.07918 5.6316C7.06401 5.72234 7.04126 5.82063 7.01094 5.91137C7.00336 5.93405 6.99577 5.95674 6.98819 5.98698C6.98819 5.98698 6.95787 6.0626 6.97303 6.02479C6.9882 5.98698 6.95788 6.0626 6.95788 6.0626C6.9503 6.08528 6.93514 6.10796 6.92756 6.13064C6.88208 6.21382 6.83658 6.28943 6.78352 6.37261C6.77594 6.38017 6.73046 6.44823 6.76836 6.3953C6.76078 6.41042 6.74562 6.41798 6.73804 6.4331C6.70772 6.47091 6.67738 6.50117 6.64706 6.53898C6.61674 6.56922 6.57885 6.60701 6.54853 6.63726C6.53337 6.64482 6.52578 6.65996 6.51062 6.66752C6.50304 6.67508 6.41965 6.73556 6.47272 6.69776C6.40449 6.75069 6.33626 6.79606 6.26046 6.83387C6.21497 6.85655 6.16948 6.87923 6.124 6.90191C6.10884 6.90947 6.09367 6.91704 6.07851 6.9246C6.13915 6.90192 6.04061 6.93972 6.02545 6.93972C5.94206 6.96997 5.85867 6.99266 5.77528 7.00778C5.75254 7.01535 5.72222 7.01534 5.69947 7.0229C5.64641 7.03047 5.68431 7.0229 5.69947 7.0229C5.63883 7.03047 5.58578 7.03802 5.52513 7.03802C5.42658 7.03802 5.3356 7.03803 5.24463 7.03047C5.16124 7.02291 5.30528 7.04559 5.21432 7.0229C5.19915 7.0229 5.17642 7.01533 5.16125 7.01533C5.10819 7.00777 5.06271 6.99265 5.00964 6.97753C4.95658 6.9624 4.91108 6.94729 4.8656 6.93217C4.85044 6.92461 4.83528 6.91705 4.82012 6.91705C4.88077 6.93973 4.80496 6.90948 4.79738 6.90948C4.71399 6.87167 4.63061 6.8263 4.5548 6.77337C4.53206 6.75825 4.50931 6.74314 4.49415 6.72801C4.49415 6.72801 4.42593 6.68264 4.46383 6.70533C4.49416 6.72801 4.4335 6.68264 4.4335 6.68264C4.41076 6.66751 4.39559 6.65239 4.37285 6.62971C4.30462 6.56922 4.2364 6.50116 4.18333 6.4331C4.17575 6.42554 4.13027 6.35749 4.16818 6.41042C4.1606 6.39529 4.14544 6.38017 4.13786 6.37261C4.10754 6.3348 4.0848 6.29699 4.06205 6.25919C4.03931 6.22138 4.01656 6.17602 3.99382 6.13821C3.98624 6.12309 3.97867 6.10796 3.97109 6.09284C3.96351 6.08528 3.9256 5.98699 3.94834 6.04748C3.91802 5.9643 3.88769 5.88867 3.86495 5.8055C3.84979 5.75257 3.84221 5.69964 3.83463 5.65427C3.83463 5.64671 3.82705 5.59378 3.83463 5.65427C3.82705 5.61646 3.82704 5.58622 3.82704 5.54841C3.81946 5.45768 3.81946 5.36693 3.82704 5.27619C3.82704 5.26107 3.84221 5.13254 3.83463 5.19303C3.84221 5.1401 3.85737 5.07961 3.86495 5.02668C3.88769 4.93594 3.91802 4.85275 3.94834 4.76958C3.9256 4.82251 3.97108 4.71665 3.97866 4.70153C4.0014 4.65616 4.02414 4.61079 4.05447 4.56542C4.07721 4.52005 4.10754 4.48225 4.13786 4.43688C4.14544 4.42176 4.1606 4.40663 4.16818 4.39907C4.13027 4.452 4.18333 4.38395 4.18333 4.37638C4.24398 4.30833 4.30462 4.24027 4.37285 4.17978C4.40317 4.14953 4.4335 4.12686 4.4714 4.09661C4.41834 4.13442 4.48657 4.08905 4.49415 4.08149C4.51689 4.06637 4.53206 4.05124 4.5548 4.03612C4.63061 3.98319 4.71399 3.93781 4.79738 3.90001C4.80496 3.90001 4.88077 3.86221 4.82012 3.89246C4.83528 3.88489 4.85044 3.87732 4.8656 3.87732C4.91108 3.8622 4.95657 3.84708 5.00205 3.83196C5.04754 3.81684 5.09302 3.80928 5.13851 3.79415C5.15367 3.79415 5.17641 3.78658 5.19157 3.78658C5.20673 3.78658 5.22947 3.77903 5.24463 3.77903C5.21431 3.7866 5.21431 3.7866 5.24463 3.77903C5.3356 3.77147 5.42658 3.7639 5.51754 3.77147C5.57061 3.77147 5.62368 3.77903 5.67675 3.77903C5.68433 3.77903 5.73739 3.7866 5.67675 3.77903C5.71465 3.7866 5.74497 3.79415 5.78287 3.79415C5.889 3.81684 5.97996 3.84708 6.07851 3.88489C6.15432 3.91513 6.0482 3.86977 6.09368 3.89246C6.12401 3.90758 6.14674 3.91514 6.17706 3.93026C6.22255 3.95295 6.26803 3.97563 6.31352 4.00588C6.359 4.02856 6.3969 4.0588 6.44239 4.08904C6.44997 4.09661 6.5182 4.14197 6.46513 4.10416C6.48787 4.11929 6.50304 4.13442 6.52578 4.14954C6.60917 4.21759 6.68498 4.30078 6.7532 4.38395C6.76078 4.39908 6.77594 4.40664 6.78352 4.42176C6.74561 4.36883 6.80627 4.452 6.81385 4.46712C6.84417 4.51249 6.8669 4.55029 6.89723 4.59566C6.91997 4.64103 6.9503 4.6864 6.96547 4.73177C6.97305 4.75445 6.98062 4.76958 6.99578 4.79227C7.00336 4.81495 7.00335 4.80738 6.98819 4.7847C6.99577 4.79982 7.00337 4.81495 7.00337 4.83007C7.04127 4.92837 7.064 5.02667 7.08675 5.13253C7.09433 5.15522 7.09432 5.18546 7.1019 5.20815C7.09432 5.14766 7.1019 5.22326 7.1019 5.23839C7.09432 5.26107 7.1019 5.32156 7.1019 5.38962ZM7.1019 5.38962C7.1019 5.54085 7.23836 5.68452 7.38997 5.67696C7.54917 5.66939 7.68562 5.54841 7.67804 5.38962C7.67046 4.45199 7.07916 3.61268 6.19222 3.28754C5.3356 2.96995 4.30462 3.24972 3.72849 3.9605C3.12962 4.69397 3.03865 5.73745 3.53897 6.54653C4.03172 7.34804 4.97931 7.7488 5.89658 7.56733C6.92755 7.37073 7.67804 6.41799 7.67804 5.38207C7.67804 5.23084 7.54159 5.08716 7.38997 5.09472C7.23078 5.10229 7.1019 5.22326 7.1019 5.38962Z"/>
<path d="M6.51753 18.5391C6.51753 17.9039 6.51753 17.2687 6.51753 16.6411C6.51753 16.5504 6.51753 16.4597 6.51753 16.3689C6.51753 16.2177 6.38107 16.074 6.22946 16.0816C6.07026 16.0891 5.94141 16.2101 5.94141 16.3689C5.94141 17.0041 5.94141 17.6392 5.94141 18.2668C5.94141 18.3576 5.94141 18.4483 5.94141 18.5391C5.94141 18.6903 6.07784 18.834 6.22946 18.8264C6.38865 18.8264 6.51753 18.7054 6.51753 18.5391Z"/>
<path d="M6.51753 18.5391C6.51753 17.9039 6.51753 17.2687 6.51753 16.6411C6.51753 16.5504 6.51753 16.4597 6.51753 16.3689C6.51753 16.2177 6.38107 16.074 6.22946 16.0816C6.07026 16.0891 5.94141 16.2101 5.94141 16.3689C5.94141 17.0041 5.94141 17.6392 5.94141 18.2668C5.94141 18.3576 5.94141 18.4483 5.94141 18.5391C5.94141 18.6903 6.07784 18.834 6.22946 18.8264C6.38865 18.8264 6.51753 18.7054 6.51753 18.5391Z"/>
<path d="M6.51753 18.5391C6.51753 17.9039 6.51753 17.2687 6.51753 16.6411C6.51753 16.5504 6.51753 16.4597 6.51753 16.3689C6.51753 16.2177 6.38107 16.074 6.22946 16.0816C6.07026 16.0891 5.94141 16.2101 5.94141 16.3689C5.94141 17.0041 5.94141 17.6392 5.94141 18.2668C5.94141 18.3576 5.94141 18.4483 5.94141 18.5391C5.94141 18.6903 6.07784 18.834 6.22946 18.8264C6.38865 18.8264 6.51753 18.7054 6.51753 18.5391Z"/>
<path d="M18.0105 2.418C18.0105 3.08341 18.0105 3.75639 18.0105 4.4218C18.0105 5.48797 18.0105 6.55413 18.0105 7.61274C18.0105 7.85471 18.0105 8.10423 18.0105 8.3462C18.1091 8.2479 18.2076 8.1496 18.2986 8.05886C17.5026 8.13448 16.7067 8.20254 15.9183 8.27815C15.8046 8.28572 15.6908 8.30083 15.5771 8.30839C15.6757 8.40669 15.7742 8.505 15.8652 8.59573C15.8652 7.86983 15.8652 7.13635 15.8652 6.41045C15.8652 5.26111 15.8652 4.1042 15.8652 2.95486C15.8652 2.6902 15.8652 2.42556 15.8652 2.16847C15.7667 2.26677 15.6681 2.36507 15.5771 2.45581C16.3731 2.53142 17.1691 2.59947 17.9575 2.67509C18.0712 2.68265 18.1849 2.69776 18.2986 2.70532C18.4502 2.72045 18.5942 2.56167 18.5867 2.418C18.5791 2.25165 18.4578 2.14579 18.2986 2.13066C17.5026 2.05505 16.7067 1.98698 15.9183 1.91137C15.8046 1.90381 15.6908 1.88869 15.5771 1.88113C15.4179 1.86601 15.2891 2.0248 15.2891 2.16847C15.2891 2.89437 15.2891 3.62783 15.2891 4.35373C15.2891 5.50308 15.2891 6.65998 15.2891 7.80933C15.2891 8.07398 15.2891 8.33864 15.2891 8.59573C15.2891 8.7394 15.4255 8.8982 15.5771 8.88307C16.3731 8.80746 17.1691 8.73939 17.9575 8.66378C18.0712 8.65622 18.1849 8.6411 18.2986 8.63354C18.4578 8.61842 18.5867 8.51255 18.5867 8.3462C18.5867 7.68079 18.5867 7.00782 18.5867 6.34241C18.5867 5.27624 18.5867 4.21007 18.5867 3.15146C18.5867 2.9095 18.5867 2.65997 18.5867 2.418C18.5867 2.26677 18.4502 2.1231 18.2986 2.13066C18.147 2.13822 18.0105 2.25921 18.0105 2.418Z"/>
<path d="M18.0105 2.418C18.0105 3.08341 18.0105 3.75639 18.0105 4.4218C18.0105 5.48797 18.0105 6.55413 18.0105 7.61274C18.0105 7.85471 18.0105 8.10423 18.0105 8.3462C18.1091 8.2479 18.2076 8.1496 18.2986 8.05886C17.5026 8.13448 16.7067 8.20254 15.9183 8.27815C15.8046 8.28572 15.6908 8.30083 15.5771 8.30839C15.6757 8.40669 15.7742 8.505 15.8652 8.59573C15.8652 7.86983 15.8652 7.13635 15.8652 6.41045C15.8652 5.26111 15.8652 4.1042 15.8652 2.95486C15.8652 2.6902 15.8652 2.42556 15.8652 2.16847C15.7667 2.26677 15.6681 2.36507 15.5771 2.45581C16.3731 2.53142 17.1691 2.59947 17.9575 2.67509C18.0712 2.68265 18.1849 2.69776 18.2986 2.70532C18.4502 2.72045 18.5942 2.56167 18.5867 2.418C18.5791 2.25165 18.4578 2.14579 18.2986 2.13066C17.5026 2.05505 16.7067 1.98698 15.9183 1.91137C15.8046 1.90381 15.6908 1.88869 15.5771 1.88113C15.4179 1.86601 15.2891 2.0248 15.2891 2.16847C15.2891 2.89437 15.2891 3.62783 15.2891 4.35373C15.2891 5.50308 15.2891 6.65998 15.2891 7.80933C15.2891 8.07398 15.2891 8.33864 15.2891 8.59573C15.2891 8.7394 15.4255 8.8982 15.5771 8.88307C16.3731 8.80746 17.1691 8.73939 17.9575 8.66378C18.0712 8.65622 18.1849 8.6411 18.2986 8.63354C18.4578 8.61842 18.5867 8.51255 18.5867 8.3462C18.5867 7.68079 18.5867 7.00782 18.5867 6.34241C18.5867 5.27624 18.5867 4.21007 18.5867 3.15146C18.5867 2.9095 18.5867 2.65997 18.5867 2.418C18.5867 2.26677 18.4502 2.1231 18.2986 2.13066C18.147 2.13822 18.0105 2.25921 18.0105 2.418Z"/>
<path d="M18.0105 2.418C18.0105 3.08341 18.0105 3.75639 18.0105 4.4218C18.0105 5.48797 18.0105 6.55413 18.0105 7.61274C18.0105 7.85471 18.0105 8.10423 18.0105 8.3462C18.1091 8.2479 18.2076 8.1496 18.2986 8.05886C17.5026 8.13448 16.7067 8.20254 15.9183 8.27815C15.8046 8.28572 15.6908 8.30083 15.5771 8.30839C15.6757 8.40669 15.7742 8.505 15.8652 8.59573C15.8652 7.86983 15.8652 7.13635 15.8652 6.41045C15.8652 5.26111 15.8652 4.1042 15.8652 2.95486C15.8652 2.6902 15.8652 2.42556 15.8652 2.16847C15.7667 2.26677 15.6681 2.36507 15.5771 2.45581C16.3731 2.53142 17.1691 2.59947 17.9575 2.67509C18.0712 2.68265 18.1849 2.69776 18.2986 2.70532C18.4502 2.72045 18.5942 2.56167 18.5867 2.418C18.5791 2.25165 18.4578 2.14579 18.2986 2.13066C17.5026 2.05505 16.7067 1.98698 15.9183 1.91137C15.8046 1.90381 15.6908 1.88869 15.5771 1.88113C15.4179 1.86601 15.2891 2.0248 15.2891 2.16847C15.2891 2.89437 15.2891 3.62783 15.2891 4.35373C15.2891 5.50308 15.2891 6.65998 15.2891 7.80933C15.2891 8.07398 15.2891 8.33864 15.2891 8.59573C15.2891 8.7394 15.4255 8.8982 15.5771 8.88307C16.3731 8.80746 17.1691 8.73939 17.9575 8.66378C18.0712 8.65622 18.1849 8.6411 18.2986 8.63354C18.4578 8.61842 18.5867 8.51255 18.5867 8.3462C18.5867 7.68079 18.5867 7.00782 18.5867 6.34241C18.5867 5.27624 18.5867 4.21007 18.5867 3.15146C18.5867 2.9095 18.5867 2.65997 18.5867 2.418C18.5867 2.26677 18.4502 2.1231 18.2986 2.13066C18.147 2.13822 18.0105 2.25921 18.0105 2.418Z"/>
</svg>
