<svg width="32" height="33" viewBox="0 0 32 33" fill="none" xmlns="http://www.w3.org/2000/svg">
<g clip-path="url(#clip0)">
<path d="M11.7888 24.2754H1.72213C1.2905 24.2754 0.939375 23.9242 0.939375 23.4926V5.76811C0.939375 5.33649 1.2905 4.98536 1.72213 4.98536H6.37025C6.62963 4.98536 6.83994 4.77511 6.83994 4.51568C6.83994 4.25624 6.62963 4.04605 6.37025 4.04605H1.72213C0.772563 4.04599 0 4.81855 0 5.76811V23.4926C0 24.4422 0.772563 25.2147 1.72213 25.2147H4.30713L3.02325 27.042C2.76213 27.4136 2.73 27.8947 2.93937 28.2976C3.14875 28.7006 3.56087 28.9509 4.015 28.9509C4.32675 28.9509 4.62306 28.8328 4.84925 28.6181L8.43625 25.2147H11.7889C12.0482 25.2147 12.2586 25.0045 12.2586 24.7451C12.2585 24.4856 12.0482 24.2754 11.7888 24.2754ZM4.20275 27.9366C4.15188 27.9849 4.08512 28.0115 4.015 28.0115C3.8655 28.0115 3.79594 27.9087 3.77294 27.8645C3.75 27.8203 3.70587 27.7044 3.79181 27.5819L5.45512 25.2146H7.07156L4.20275 27.9366Z" />
<path d="M30.278 4.04688H8.24898C7.98961 4.04688 7.7793 4.25712 7.7793 4.5165C7.7793 4.77594 7.98961 4.98619 8.24898 4.98619H30.278C30.7096 4.98619 31.0608 5.33731 31.0608 5.76894V23.4934C31.0608 23.9251 30.7096 24.2762 30.278 24.2762H13.6676C13.4082 24.2762 13.1979 24.4864 13.1979 24.7459C13.1979 25.0053 13.4082 25.2156 13.6676 25.2156H23.5635L27.1506 28.619C27.3768 28.8336 27.673 28.9518 27.9848 28.9518C28.4389 28.9518 28.8511 28.7014 29.0604 28.2984C29.2698 27.8955 29.2376 27.4144 28.9766 27.0429L27.6926 25.2156H30.2781C31.2276 25.2156 32.0002 24.443 32.0002 23.4934V5.769C32.0001 4.81938 31.2276 4.04688 30.278 4.04688ZM28.2079 27.5829C28.2939 27.7053 28.2498 27.8212 28.2268 27.8654C28.2039 27.9097 28.1343 28.0124 27.9848 28.0124C27.9146 28.0124 27.8479 27.9858 27.797 27.9376L24.9281 25.2156H26.5446L28.2079 27.5829Z" />
<path d="M23.4891 23.209H29.4526C29.712 23.209 29.9223 22.9988 29.9223 22.7393V6.52453C29.9223 6.26509 29.7121 6.05484 29.4526 6.05484H2.54732C2.28795 6.05484 2.07764 6.26509 2.07764 6.52453V22.7394C2.07764 22.9988 2.28789 23.2091 2.54732 23.2091H21.6104C21.8698 23.2091 22.0801 22.9988 22.0801 22.7394C22.0801 22.48 21.8698 22.2697 21.6104 22.2697H3.01701V6.99422H28.983V22.2697H23.4891C23.2297 22.2697 23.0194 22.48 23.0194 22.7394C23.0194 22.9988 23.2297 23.209 23.4891 23.209Z" />
<path d="M11.5786 11.1082C11.5786 10.3328 10.9478 9.70193 10.1723 9.70193H7.29053C6.51509 9.70193 5.88428 10.3328 5.88428 11.1082V12.184C5.88428 12.9594 6.51509 13.5902 7.29053 13.5902H10.1723C10.9478 13.5902 11.5786 12.9594 11.5786 12.184V11.1082ZM10.6411 12.184C10.6411 12.4425 10.4308 12.6527 10.1723 12.6527H7.29053C7.03203 12.6527 6.82178 12.4425 6.82178 12.184V11.1082C6.82178 10.8497 7.03203 10.6394 7.29053 10.6394H10.1723C10.4308 10.6394 10.6411 10.8497 10.6411 11.1082V12.184Z" />
<path d="M18.8471 11.1082C18.8471 10.3328 18.2163 9.70193 17.4409 9.70193H14.5591C13.7836 9.70193 13.1528 10.3328 13.1528 11.1082V12.184C13.1528 12.9594 13.7836 13.5902 14.5591 13.5902H17.4409C18.2163 13.5902 18.8471 12.9594 18.8471 12.184V11.1082ZM17.9096 12.184C17.9096 12.4425 17.6994 12.6527 17.4409 12.6527H14.5591C14.3006 12.6527 14.0903 12.4425 14.0903 12.184V11.1082C14.0903 10.8497 14.3006 10.6394 14.5591 10.6394H17.4409C17.6994 10.6394 17.9096 10.8497 17.9096 11.1082V12.184Z" />
<path d="M21.8276 13.5902H24.7094C25.4849 13.5902 26.1157 12.9594 26.1157 12.184V11.1082C26.1157 10.3328 25.4849 9.70193 24.7094 9.70193H21.8276C21.0522 9.70193 20.4214 10.3328 20.4214 11.1082V12.184C20.4214 12.9594 21.0522 13.5902 21.8276 13.5902ZM21.3589 11.1082C21.3589 10.8497 21.5691 10.6394 21.8276 10.6394H24.7094C24.9679 10.6394 25.1782 10.8497 25.1782 11.1082V12.184C25.1782 12.4425 24.9679 12.6527 24.7094 12.6527H21.8276C21.5691 12.6527 21.3589 12.4425 21.3589 12.184V11.1082Z" />
<path d="M10.1723 15.4584H7.29053C6.51509 15.4584 5.88428 16.0893 5.88428 16.8646V17.9405C5.88428 18.7158 6.51509 19.3467 7.29053 19.3467H10.1723C10.9478 19.3467 11.5786 18.7158 11.5786 17.9405V16.8646C11.5786 16.0893 10.9478 15.4584 10.1723 15.4584ZM10.6411 17.9405C10.6411 18.199 10.4308 18.4092 10.1723 18.4092H7.29053C7.03203 18.4092 6.82178 18.199 6.82178 17.9405V16.8646C6.82178 16.6061 7.03203 16.3959 7.29053 16.3959H10.1723C10.4308 16.3959 10.6411 16.6061 10.6411 16.8646V17.9405Z" />
<path d="M17.4409 15.4584H14.5591C13.7836 15.4584 13.1528 16.0893 13.1528 16.8646V17.9405C13.1528 18.7158 13.7836 19.3467 14.5591 19.3467H17.4409C18.2163 19.3467 18.8471 18.7158 18.8471 17.9405V16.8646C18.8471 16.0893 18.2163 15.4584 17.4409 15.4584ZM17.9096 17.9405C17.9096 18.199 17.6994 18.4092 17.4409 18.4092H14.5591C14.3006 18.4092 14.0903 18.199 14.0903 17.9405V16.8646C14.0903 16.6061 14.3006 16.3959 14.5591 16.3959H17.4409C17.6994 16.3959 17.9096 16.6061 17.9096 16.8646V17.9405Z" />
<path d="M20.4214 17.9405C20.4214 18.7158 21.0522 19.3467 21.8276 19.3467H24.7094C25.4849 19.3467 26.1157 18.7158 26.1157 17.9405V16.8646C26.1157 16.0893 25.4849 15.4584 24.7094 15.4584H21.8276C21.0522 15.4584 20.4214 16.0893 20.4214 16.8646V17.9405ZM21.3589 16.8646C21.3589 16.6061 21.5691 16.3959 21.8276 16.3959H24.7094C24.9679 16.3959 25.1782 16.6061 25.1782 16.8646V17.9405C25.1782 18.199 24.9679 18.4092 24.7094 18.4092H21.8276C21.5691 18.4092 21.3589 18.199 21.3589 17.9405V16.8646Z" />
</g>
<defs>
<clipPath id="clip0">
<rect width="32" height="32"  transform="translate(0 0.5)"/>
</clipPath>
</defs>
</svg>
