<svg width="28" height="39" viewBox="0 0 28 39" fill="none" xmlns="http://www.w3.org/2000/svg">
<path d="M8.72077 30.6828C9.00102 30.4902 9.38301 30.5631 9.57418 30.8461C9.83078 31.2265 9.925 31.3666 10.1761 31.7346C10.3063 31.9168 10.3282 32.1562 10.2337 32.3595C10.1395 32.5632 9.94315 32.6992 9.72115 32.7151C9.49881 32.7306 9.28571 32.6238 9.16375 32.4356C8.91228 32.0662 8.81773 31.9265 8.55907 31.544C8.36824 31.2611 8.44087 30.8754 8.72077 30.6828ZM13.4983 38.7375C13.6134 38.9021 13.8004 39 14.0002 39C14.1996 39 14.387 38.9021 14.5021 38.7375C14.585 38.6178 22.8758 26.7393 25.8423 21.667C27.2233 19.3992 27.9688 16.7956 28 14.1335C28 6.32782 21.7319 0 13.9998 0C6.26779 0 0 6.32782 0 14.1335C0.0308336 16.7956 0.776664 19.3992 2.15732 21.667C3.21526 23.4758 5.04027 26.3122 7.58233 30.0959C7.77281 30.3798 8.1548 30.4538 8.43573 30.2615C8.71666 30.0696 8.79032 29.6836 8.59984 29.4C6.07182 25.6364 4.25983 22.8225 3.21526 21.0358C1.94663 18.9582 1.26007 16.5721 1.22821 14.1321C1.22821 7.01089 6.94647 1.23817 14.0002 1.23817C21.0542 1.23817 26.7725 7.01089 26.7725 14.1321C26.7406 16.5721 26.0537 18.9582 24.7854 21.0358C22.2663 25.3428 15.8447 34.6456 14.0002 37.3022C13.426 36.4752 12.4095 35.0064 11.2142 33.2574C11.0216 32.9755 10.639 32.9046 10.3601 33.0993C10.0809 33.2937 10.0106 33.6797 10.2035 33.9612C12.0587 36.6758 13.4842 38.7174 13.4983 38.7375ZM17.6029 5.42859C17.9157 5.56071 18.2754 5.41199 18.4063 5.09622C18.5375 4.78045 18.3898 4.4173 18.0771 4.28484C17.4282 4.01092 16.7536 3.8034 16.064 3.66506C15.731 3.59865 15.4079 3.81689 15.3421 4.15272C15.2763 4.48855 15.4925 4.81504 15.8252 4.88144C16.435 5.00318 17.0308 5.18683 17.6043 5.42894L17.6029 5.42859ZM14.0002 3.46204C8.7797 3.46308 4.34206 7.31317 3.55614 12.5235C2.77023 17.7339 5.8714 22.7429 10.8548 24.3128C15.8385 25.883 21.2111 23.5433 23.5 18.8064C25.7889 14.0695 24.3082 8.35524 20.0148 5.35665C19.7359 5.16159 19.3536 5.2318 19.1603 5.51298C18.9671 5.79451 19.0363 6.18048 19.3152 6.37555C23.1118 9.02621 24.4219 14.0785 22.3989 18.2672C20.3755 22.4555 15.6254 24.5245 11.2186 23.1365C6.81217 21.7486 4.07004 17.3199 4.76516 12.7127C5.46029 8.10588 9.38404 4.70194 14.0002 4.7016C14.3393 4.7016 14.6141 4.42387 14.6141 4.08182C14.6141 3.73942 14.3393 3.46204 14.0002 3.46204ZM11.2334 12.1452H20.1176C20.3694 12.1448 20.5958 12.2998 20.6883 12.5363C20.7808 12.7729 20.7205 13.0423 20.5362 13.2159V15.4114C20.5369 15.794 20.4324 16.1685 20.2347 16.4947C20.4266 16.6963 20.5345 16.9643 20.5362 17.2441C20.5362 17.5551 20.3077 17.8179 20.0021 17.8584C19.6965 17.8985 19.4087 17.7041 19.3292 17.4032L18.7081 17.4741L18.2018 17.5309L11.182 18.3163C10.9178 18.3488 10.7229 18.5805 10.7335 18.8489C10.7441 19.117 10.9569 19.3324 11.2224 19.3435H18.9089C19.2481 19.3435 19.5228 19.6209 19.5228 19.9633C19.5228 20.3057 19.2481 20.5831 18.9089 20.5831H17.8489C18.0103 20.9697 17.8934 21.4176 17.5642 21.6739C17.235 21.9302 16.7759 21.9302 16.4466 21.6739C16.1174 21.4176 16.0006 20.9697 16.1619 20.5831H13.2047C13.3664 20.9697 13.2495 21.4183 12.92 21.6746C12.5907 21.9309 12.1313 21.9309 11.8021 21.6746C11.4725 21.4183 11.3557 20.9697 11.5174 20.5831H11.2183C11.2036 20.5831 11.1748 20.5831 11.1601 20.581C10.3073 20.5433 9.6081 19.8858 9.5108 19.0298C9.41316 18.1738 9.94658 17.3735 10.7685 17.1418L9.55568 9.35028H8.4926C8.45458 9.67573 8.17193 9.91541 7.8475 9.89638C7.5234 9.87771 7.26954 9.60725 7.26885 9.27937C7.26885 8.634 7.7872 8.11072 8.42648 8.11072H9.61495C10.1861 8.10795 10.6729 8.52852 10.7589 9.09849L11.2334 12.1452ZM19.2624 15.6774H11.7901L11.9926 16.9785L17.743 16.3352L18.5731 16.2425C18.8924 16.2059 19.1614 15.9856 19.2624 15.6774ZM11.4338 13.3847L11.5975 14.4378H19.3083V13.3847H11.4338Z" fill="#175CFF"/>
</svg>
