<svg width="20" height="20" viewBox="0 0 20 20" fill="none" xmlns="http://www.w3.org/2000/svg">
<path d="M13.6842 8.03967C13.6842 8.75045 13.6842 9.46124 13.6842 10.172C13.6842 10.5652 13.6842 10.9509 13.6842 11.3441C13.6842 11.4121 13.6842 11.4877 13.6842 11.5558C13.6842 11.5709 13.6842 11.5936 13.6842 11.6087C13.6918 11.5482 13.6842 11.6087 13.6766 11.6238C13.669 11.6616 13.6539 11.6994 13.6387 11.7372C13.6614 11.6843 13.6387 11.7372 13.6311 11.7524C13.6235 11.7675 13.6084 11.7902 13.6008 11.8053C13.5932 11.8204 13.5856 11.8355 13.5705 11.8507C13.6084 11.8053 13.5629 11.8582 13.5477 11.8658C13.5326 11.8809 13.5174 11.896 13.5023 11.9112C13.4644 11.9414 13.5553 11.8809 13.4947 11.9187C13.4643 11.9414 13.4264 11.9565 13.3961 11.9792C13.3506 12.0019 13.4568 11.9641 13.381 11.9868C13.3658 11.9943 13.3506 11.9943 13.3279 12.0019C13.3052 12.0095 13.2824 12.0095 13.2673 12.017C13.2445 12.017 13.2521 12.017 13.2824 12.017C13.2672 12.017 13.2521 12.017 13.2445 12.017C13.0777 12.0246 12.9185 12.017 12.7518 12.017C12.3727 12.017 11.9937 12.017 11.6147 12.017C10.6519 12.017 9.69674 12.017 8.73399 12.017C8.40802 12.017 8.07447 12.017 7.7485 12.017C7.67269 12.017 7.59689 12.017 7.52866 12.017C7.49076 12.017 7.46043 12.017 7.42252 12.0094C7.47559 12.017 7.4301 12.0094 7.42252 12.0094C7.39978 12.0019 7.36946 11.9943 7.34672 11.9868C7.33156 11.9792 7.3164 11.9792 7.30124 11.9716C7.35431 11.9943 7.30882 11.9716 7.30124 11.9716C7.26334 11.949 7.22543 11.9338 7.1951 11.9036C7.24059 11.9338 7.20268 11.9112 7.1951 11.9036C7.17994 11.8885 7.1572 11.8658 7.14204 11.8507C7.08898 11.7977 7.16479 11.896 7.12688 11.828C7.1193 11.8129 7.11173 11.7977 7.09657 11.7826C7.08899 11.7675 7.0814 11.7524 7.07382 11.7372C7.03592 11.6692 7.0814 11.7675 7.06623 11.7221C7.05107 11.6843 7.0435 11.6465 7.03592 11.6087C7.01318 11.5331 7.03592 11.6389 7.03592 11.5936C7.03592 11.5709 7.03592 11.5482 7.03592 11.5255C7.03592 11.5104 7.03592 11.4877 7.03592 11.4726C7.03592 11.3516 7.03592 11.2231 7.03592 11.1021C7.03592 10.6559 7.03592 10.2098 7.03592 9.76369C7.03592 9.32513 7.03592 8.879 7.03592 8.44043C7.03592 8.31945 7.03592 8.20603 7.03592 8.08505C7.03592 8.06236 7.03592 8.03968 7.03592 8.017C7.03592 8.017 7.0435 7.93382 7.03592 7.97919C7.02834 8.02456 7.04349 7.94138 7.04349 7.94138C7.05107 7.92626 7.05108 7.91112 7.05866 7.88844C7.05866 7.88844 7.08898 7.81282 7.07382 7.85063C7.05866 7.88844 7.09657 7.81282 7.09657 7.81282C7.10415 7.7977 7.11171 7.78259 7.1193 7.76747C7.1193 7.76747 7.16478 7.70696 7.14204 7.73721C7.1193 7.75989 7.17236 7.70696 7.17994 7.6994C7.19511 7.68428 7.21028 7.66917 7.22544 7.65404C7.18753 7.68429 7.21786 7.66161 7.22544 7.65404C7.26334 7.63136 7.29366 7.60867 7.33915 7.59355C7.28608 7.61623 7.38463 7.57842 7.3998 7.57086C7.42254 7.5633 7.44527 7.5633 7.46043 7.55574C7.40736 7.5633 7.46802 7.55574 7.49076 7.55574C7.50592 7.55574 7.52866 7.55574 7.54382 7.55574C7.61963 7.55574 7.70302 7.55574 7.77883 7.55574C8.11238 7.55574 8.44593 7.55574 8.77948 7.55574C9.74223 7.55574 10.6974 7.55574 11.6601 7.55574C12.0316 7.55574 12.4106 7.55574 12.7821 7.55574C12.8882 7.55574 13.0019 7.55574 13.108 7.55574C13.1384 7.55574 13.1611 7.55574 13.1914 7.55574C13.199 7.55574 13.2066 7.55574 13.2066 7.55574C13.2066 7.55574 13.2066 7.55574 13.2142 7.55574C13.2218 7.55574 13.3127 7.5633 13.2824 7.55574C13.2369 7.54818 13.3203 7.56331 13.3203 7.56331C13.3355 7.57087 13.3506 7.57087 13.3734 7.57843C13.3885 7.58599 13.4037 7.58599 13.4189 7.59355C13.3582 7.57086 13.434 7.60111 13.4416 7.60867C13.4719 7.62379 13.5022 7.64647 13.525 7.66159C13.4795 7.62379 13.5629 7.70698 13.5781 7.71454C13.616 7.75235 13.5932 7.72966 13.5781 7.71454C13.5932 7.72966 13.6008 7.75234 13.616 7.76747C13.6236 7.78259 13.669 7.88089 13.6463 7.82039C13.6614 7.8582 13.6766 7.90358 13.6842 7.94138C13.6993 7.99432 13.6842 7.95651 13.6842 7.94138C13.6842 7.98675 13.6842 8.01698 13.6842 8.03967C13.6842 8.1909 13.8131 8.33457 13.9723 8.32701C14.1315 8.31945 14.2679 8.19846 14.2603 8.03967C14.2527 7.6011 13.9874 7.21548 13.5781 7.04913C13.434 6.98863 13.2824 6.97351 13.1308 6.97351C12.873 6.97351 12.6153 6.97351 12.35 6.97351C11.3872 6.97351 10.4245 6.97351 9.46174 6.97351C8.8098 6.97351 8.16545 6.97351 7.51351 6.97351C6.90705 6.97351 6.42946 7.45744 6.42188 8.06236C6.42188 8.36482 6.42188 8.66728 6.42188 8.96974C6.42188 9.80906 6.42188 10.6408 6.42188 11.4801C6.42188 11.7146 6.47494 11.949 6.61139 12.138C6.81607 12.4253 7.13447 12.5917 7.49076 12.5917C7.68028 12.5917 7.87737 12.5917 8.06688 12.5917C8.99173 12.5917 9.91657 12.5917 10.8338 12.5917C11.5843 12.5917 12.3348 12.5917 13.0853 12.5917C13.1839 12.5917 13.2824 12.5917 13.381 12.569C13.7827 12.501 14.1239 12.1758 14.2224 11.7826C14.2907 11.5104 14.2527 11.1853 14.2527 10.9055C14.2527 10.0132 14.2527 9.12096 14.2527 8.22871C14.2527 8.16065 14.2527 8.10017 14.2527 8.03212C14.2527 7.88089 14.1163 7.73722 13.9647 7.74478C13.8131 7.7599 13.6842 7.88088 13.6842 8.03967Z"/>
<path d="M13.6842 8.03967C13.6842 8.75045 13.6842 9.46124 13.6842 10.172C13.6842 10.5652 13.6842 10.9509 13.6842 11.3441C13.6842 11.4121 13.6842 11.4877 13.6842 11.5558C13.6842 11.5709 13.6842 11.5936 13.6842 11.6087C13.6918 11.5482 13.6842 11.6087 13.6766 11.6238C13.669 11.6616 13.6539 11.6994 13.6387 11.7372C13.6614 11.6843 13.6387 11.7372 13.6311 11.7524C13.6235 11.7675 13.6084 11.7902 13.6008 11.8053C13.5932 11.8204 13.5856 11.8355 13.5705 11.8507C13.6084 11.8053 13.5629 11.8582 13.5477 11.8658C13.5326 11.8809 13.5174 11.896 13.5023 11.9112C13.4644 11.9414 13.5553 11.8809 13.4947 11.9187C13.4643 11.9414 13.4264 11.9565 13.3961 11.9792C13.3506 12.0019 13.4568 11.9641 13.381 11.9868C13.3658 11.9943 13.3506 11.9943 13.3279 12.0019C13.3052 12.0095 13.2824 12.0095 13.2673 12.017C13.2445 12.017 13.2521 12.017 13.2824 12.017C13.2672 12.017 13.2521 12.017 13.2445 12.017C13.0777 12.0246 12.9185 12.017 12.7518 12.017C12.3727 12.017 11.9937 12.017 11.6147 12.017C10.6519 12.017 9.69674 12.017 8.73399 12.017C8.40802 12.017 8.07447 12.017 7.7485 12.017C7.67269 12.017 7.59689 12.017 7.52866 12.017C7.49076 12.017 7.46043 12.017 7.42252 12.0094C7.47559 12.017 7.4301 12.0094 7.42252 12.0094C7.39978 12.0019 7.36946 11.9943 7.34672 11.9868C7.33156 11.9792 7.3164 11.9792 7.30124 11.9716C7.35431 11.9943 7.30882 11.9716 7.30124 11.9716C7.26334 11.949 7.22543 11.9338 7.1951 11.9036C7.24059 11.9338 7.20268 11.9112 7.1951 11.9036C7.17994 11.8885 7.1572 11.8658 7.14204 11.8507C7.08898 11.7977 7.16479 11.896 7.12688 11.828C7.1193 11.8129 7.11173 11.7977 7.09657 11.7826C7.08899 11.7675 7.0814 11.7524 7.07382 11.7372C7.03592 11.6692 7.0814 11.7675 7.06623 11.7221C7.05107 11.6843 7.0435 11.6465 7.03592 11.6087C7.01318 11.5331 7.03592 11.6389 7.03592 11.5936C7.03592 11.5709 7.03592 11.5482 7.03592 11.5255C7.03592 11.5104 7.03592 11.4877 7.03592 11.4726C7.03592 11.3516 7.03592 11.2231 7.03592 11.1021C7.03592 10.6559 7.03592 10.2098 7.03592 9.76369C7.03592 9.32513 7.03592 8.879 7.03592 8.44043C7.03592 8.31945 7.03592 8.20603 7.03592 8.08505C7.03592 8.06236 7.03592 8.03968 7.03592 8.017C7.03592 8.017 7.0435 7.93382 7.03592 7.97919C7.02834 8.02456 7.04349 7.94138 7.04349 7.94138C7.05107 7.92626 7.05108 7.91112 7.05866 7.88844C7.05866 7.88844 7.08898 7.81282 7.07382 7.85063C7.05866 7.88844 7.09657 7.81282 7.09657 7.81282C7.10415 7.7977 7.11171 7.78259 7.1193 7.76747C7.1193 7.76747 7.16478 7.70696 7.14204 7.73721C7.1193 7.75989 7.17236 7.70696 7.17994 7.6994C7.19511 7.68428 7.21028 7.66917 7.22544 7.65404C7.18753 7.68429 7.21786 7.66161 7.22544 7.65404C7.26334 7.63136 7.29366 7.60867 7.33915 7.59355C7.28608 7.61623 7.38463 7.57842 7.3998 7.57086C7.42254 7.5633 7.44527 7.5633 7.46043 7.55574C7.40736 7.5633 7.46802 7.55574 7.49076 7.55574C7.50592 7.55574 7.52866 7.55574 7.54382 7.55574C7.61963 7.55574 7.70302 7.55574 7.77883 7.55574C8.11238 7.55574 8.44593 7.55574 8.77948 7.55574C9.74223 7.55574 10.6974 7.55574 11.6601 7.55574C12.0316 7.55574 12.4106 7.55574 12.7821 7.55574C12.8882 7.55574 13.0019 7.55574 13.108 7.55574C13.1384 7.55574 13.1611 7.55574 13.1914 7.55574C13.199 7.55574 13.2066 7.55574 13.2066 7.55574C13.2066 7.55574 13.2066 7.55574 13.2142 7.55574C13.2218 7.55574 13.3127 7.5633 13.2824 7.55574C13.2369 7.54818 13.3203 7.56331 13.3203 7.56331C13.3355 7.57087 13.3506 7.57087 13.3734 7.57843C13.3885 7.58599 13.4037 7.58599 13.4189 7.59355C13.3582 7.57086 13.434 7.60111 13.4416 7.60867C13.4719 7.62379 13.5022 7.64647 13.525 7.66159C13.4795 7.62379 13.5629 7.70698 13.5781 7.71454C13.616 7.75235 13.5932 7.72966 13.5781 7.71454C13.5932 7.72966 13.6008 7.75234 13.616 7.76747C13.6236 7.78259 13.669 7.88089 13.6463 7.82039C13.6614 7.8582 13.6766 7.90358 13.6842 7.94138C13.6993 7.99432 13.6842 7.95651 13.6842 7.94138C13.6842 7.98675 13.6842 8.01698 13.6842 8.03967C13.6842 8.1909 13.8131 8.33457 13.9723 8.32701C14.1315 8.31945 14.2679 8.19846 14.2603 8.03967C14.2527 7.6011 13.9874 7.21548 13.5781 7.04913C13.434 6.98863 13.2824 6.97351 13.1308 6.97351C12.873 6.97351 12.6153 6.97351 12.35 6.97351C11.3872 6.97351 10.4245 6.97351 9.46174 6.97351C8.8098 6.97351 8.16545 6.97351 7.51351 6.97351C6.90705 6.97351 6.42946 7.45744 6.42188 8.06236C6.42188 8.36482 6.42188 8.66728 6.42188 8.96974C6.42188 9.80906 6.42188 10.6408 6.42188 11.4801C6.42188 11.7146 6.47494 11.949 6.61139 12.138C6.81607 12.4253 7.13447 12.5917 7.49076 12.5917C7.68028 12.5917 7.87737 12.5917 8.06688 12.5917C8.99173 12.5917 9.91657 12.5917 10.8338 12.5917C11.5843 12.5917 12.3348 12.5917 13.0853 12.5917C13.1839 12.5917 13.2824 12.5917 13.381 12.569C13.7827 12.501 14.1239 12.1758 14.2224 11.7826C14.2907 11.5104 14.2527 11.1853 14.2527 10.9055C14.2527 10.0132 14.2527 9.12096 14.2527 8.22871C14.2527 8.16065 14.2527 8.10017 14.2527 8.03212C14.2527 7.88089 14.1163 7.73722 13.9647 7.74478C13.8131 7.7599 13.6842 7.88088 13.6842 8.03967Z"/>
<path d="M13.6842 8.03967C13.6842 8.75045 13.6842 9.46124 13.6842 10.172C13.6842 10.5652 13.6842 10.9509 13.6842 11.3441C13.6842 11.4121 13.6842 11.4877 13.6842 11.5558C13.6842 11.5709 13.6842 11.5936 13.6842 11.6087C13.6918 11.5482 13.6842 11.6087 13.6766 11.6238C13.669 11.6616 13.6539 11.6994 13.6387 11.7372C13.6614 11.6843 13.6387 11.7372 13.6311 11.7524C13.6235 11.7675 13.6084 11.7902 13.6008 11.8053C13.5932 11.8204 13.5856 11.8355 13.5705 11.8507C13.6084 11.8053 13.5629 11.8582 13.5477 11.8658C13.5326 11.8809 13.5174 11.896 13.5023 11.9112C13.4644 11.9414 13.5553 11.8809 13.4947 11.9187C13.4643 11.9414 13.4264 11.9565 13.3961 11.9792C13.3506 12.0019 13.4568 11.9641 13.381 11.9868C13.3658 11.9943 13.3506 11.9943 13.3279 12.0019C13.3052 12.0095 13.2824 12.0095 13.2672 12.017C13.2445 12.017 13.2521 12.017 13.2824 12.017C13.2672 12.017 13.2521 12.017 13.2445 12.017C13.0777 12.0246 12.9185 12.017 12.7518 12.017C12.3727 12.017 11.9937 12.017 11.6147 12.017C10.6519 12.017 9.69674 12.017 8.73399 12.017C8.40802 12.017 8.07447 12.017 7.7485 12.017C7.67269 12.017 7.59689 12.017 7.52866 12.017C7.49076 12.017 7.46043 12.017 7.42252 12.0094C7.47559 12.017 7.4301 12.0094 7.42252 12.0094C7.39978 12.0019 7.36946 11.9943 7.34672 11.9868C7.33156 11.9792 7.3164 11.9792 7.30124 11.9716C7.35431 11.9943 7.30882 11.9716 7.30124 11.9716C7.26334 11.949 7.22543 11.9338 7.1951 11.9036C7.24059 11.9338 7.20268 11.9112 7.1951 11.9036C7.17994 11.8885 7.1572 11.8658 7.14204 11.8507C7.08898 11.7977 7.16479 11.896 7.12688 11.828C7.1193 11.8129 7.11173 11.7977 7.09657 11.7826C7.08899 11.7675 7.0814 11.7524 7.07382 11.7372C7.03592 11.6692 7.0814 11.7675 7.06623 11.7221C7.05107 11.6843 7.0435 11.6465 7.03592 11.6087C7.01318 11.5331 7.03592 11.6389 7.03592 11.5936C7.03592 11.5709 7.03592 11.5482 7.03592 11.5255C7.03592 11.5104 7.03592 11.4877 7.03592 11.4726C7.03592 11.3516 7.03592 11.2231 7.03592 11.1021C7.03592 10.6559 7.03592 10.2098 7.03592 9.76369C7.03592 9.32513 7.03592 8.879 7.03592 8.44043C7.03592 8.31945 7.03592 8.20603 7.03592 8.08505C7.03592 8.06236 7.03592 8.03968 7.03592 8.017C7.03592 8.017 7.0435 7.93382 7.03592 7.97919C7.02834 8.02456 7.04349 7.94138 7.04349 7.94138C7.05107 7.92626 7.05108 7.91112 7.05866 7.88844C7.05866 7.88844 7.08898 7.81282 7.07382 7.85063C7.05866 7.88844 7.09657 7.81282 7.09657 7.81282C7.10415 7.7977 7.11171 7.78259 7.1193 7.76747C7.1193 7.76747 7.16478 7.70696 7.14204 7.73721C7.1193 7.75989 7.17236 7.70696 7.17994 7.6994C7.19511 7.68428 7.21028 7.66917 7.22544 7.65404C7.18753 7.68429 7.21786 7.66161 7.22544 7.65404C7.26334 7.63136 7.29366 7.60867 7.33915 7.59355C7.28608 7.61623 7.38463 7.57842 7.3998 7.57086C7.42254 7.5633 7.44527 7.5633 7.46043 7.55574C7.40736 7.5633 7.46802 7.55574 7.49076 7.55574C7.50592 7.55574 7.52866 7.55574 7.54382 7.55574C7.61963 7.55574 7.70302 7.55574 7.77883 7.55574C8.11238 7.55574 8.44593 7.55574 8.77948 7.55574C9.74223 7.55574 10.6974 7.55574 11.6601 7.55574C12.0316 7.55574 12.4106 7.55574 12.7821 7.55574C12.8882 7.55574 13.0019 7.55574 13.108 7.55574C13.1384 7.55574 13.1611 7.55574 13.1914 7.55574C13.199 7.55574 13.2066 7.55574 13.2066 7.55574C13.2066 7.55574 13.2066 7.55574 13.2142 7.55574C13.2218 7.55574 13.3127 7.5633 13.2824 7.55574C13.2369 7.54818 13.3203 7.56331 13.3203 7.56331C13.3355 7.57087 13.3506 7.57087 13.3734 7.57843C13.3885 7.58599 13.4037 7.58599 13.4189 7.59355C13.3582 7.57086 13.434 7.60111 13.4416 7.60867C13.4719 7.62379 13.5022 7.64647 13.525 7.66159C13.4795 7.62379 13.5629 7.70698 13.5781 7.71454C13.616 7.75235 13.5932 7.72966 13.5781 7.71454C13.5932 7.72966 13.6008 7.75234 13.616 7.76747C13.6236 7.78259 13.669 7.88089 13.6463 7.82039C13.6614 7.8582 13.6766 7.90358 13.6842 7.94138C13.6993 7.99431 13.6842 7.95651 13.6842 7.94138C13.6842 7.98675 13.6842 8.01698 13.6842 8.03967ZM13.6842 8.03967C13.6842 8.1909 13.8131 8.33457 13.9723 8.32701C14.1315 8.31945 14.2679 8.19846 14.2603 8.03967C14.2527 7.6011 13.9874 7.21548 13.5781 7.04913C13.434 6.98863 13.2824 6.97351 13.1308 6.97351C12.873 6.97351 12.6153 6.97351 12.35 6.97351C11.3872 6.97351 10.4245 6.97351 9.46174 6.97351C8.8098 6.97351 8.16545 6.97351 7.51351 6.97351C6.90705 6.97351 6.42946 7.45744 6.42188 8.06236C6.42188 8.36482 6.42188 8.66728 6.42188 8.96974C6.42188 9.80906 6.42188 10.6408 6.42188 11.4801C6.42188 11.7146 6.47494 11.949 6.61139 12.138C6.81607 12.4253 7.13447 12.5917 7.49076 12.5917C7.68028 12.5917 7.87737 12.5917 8.06688 12.5917C8.99173 12.5917 9.91657 12.5917 10.8338 12.5917C11.5843 12.5917 12.3348 12.5917 13.0853 12.5917C13.1839 12.5917 13.2824 12.5917 13.381 12.569C13.7827 12.501 14.1239 12.1758 14.2224 11.7826C14.2907 11.5104 14.2527 11.1853 14.2527 10.9055C14.2527 10.0132 14.2527 9.12096 14.2527 8.22871C14.2527 8.16065 14.2527 8.10017 14.2527 8.03212C14.2527 7.88089 14.1163 7.73722 13.9647 7.74478C13.8131 7.7599 13.6842 7.88088 13.6842 8.03967Z"/>
<path d="M6.43755 8.78072C6.43755 9.24953 6.43755 9.71078 6.43755 10.1796C6.5361 10.0813 6.63465 9.98299 6.72562 9.89225C5.97513 9.89225 5.22464 9.89225 4.47415 9.89225C4.36802 9.89225 4.2619 9.89225 4.15577 9.89225C4.15577 10.0889 4.15577 10.2779 4.15577 10.4745C4.50448 10.4594 4.77739 10.1947 4.78497 9.84689C4.78497 9.75616 4.78497 9.66542 4.78497 9.56712C4.78497 9.31003 4.78497 9.04538 4.78497 8.78829C4.68642 8.88659 4.58787 8.98489 4.4969 9.07563C5.14884 9.07563 5.80078 9.07563 6.45272 9.07563C6.54369 9.07563 6.63465 9.07563 6.72562 9.07563C6.87723 9.07563 7.02127 8.93952 7.01369 8.78829C7.00611 8.6295 6.88481 8.50095 6.72562 8.50095C6.07368 8.50095 5.42173 8.50095 4.76979 8.50095C4.67883 8.50095 4.58787 8.50095 4.4969 8.50095C4.33771 8.50095 4.20883 8.63706 4.20883 8.78829C4.20883 9.01513 4.20883 9.23441 4.20883 9.46125C4.20883 9.57467 4.20883 9.6881 4.20883 9.80909C4.20883 9.81665 4.20883 9.83176 4.20883 9.83933C4.20883 9.83933 4.20883 9.83933 4.20883 9.84689C4.20883 9.93007 4.20125 9.81664 4.20883 9.86201C4.20125 9.8847 4.20126 9.87713 4.21642 9.85444C4.20884 9.86201 4.20124 9.87714 4.20124 9.8847C4.19366 9.89982 4.19367 9.89982 4.20883 9.87713C4.18609 9.89982 4.18608 9.89982 4.20124 9.8847C4.23915 9.87714 4.14819 9.92251 4.17851 9.89982C4.20126 9.89226 4.19366 9.89226 4.16334 9.89982C4.20124 9.89982 4.20124 9.89982 4.16334 9.89982C4.01172 9.90738 3.86771 10.0284 3.87529 10.1872C3.88287 10.346 4.00414 10.4745 4.16334 10.4745C4.91383 10.4745 5.66433 10.4745 6.41482 10.4745C6.52095 10.4745 6.62708 10.4745 6.73321 10.4745C6.8924 10.4745 7.02128 10.3384 7.02128 10.1872C7.02128 9.71835 7.02128 9.2571 7.02128 8.78829C7.02128 8.63706 6.88482 8.49338 6.73321 8.50095C6.56643 8.49338 6.43755 8.61436 6.43755 8.78072Z"/>
<path d="M6.43755 8.78072C6.43755 9.24953 6.43755 9.71078 6.43755 10.1796C6.5361 10.0813 6.63465 9.98299 6.72562 9.89225C5.97513 9.89225 5.22464 9.89225 4.47415 9.89225C4.36802 9.89225 4.2619 9.89225 4.15577 9.89225C4.15577 10.0889 4.15577 10.2779 4.15577 10.4745C4.50448 10.4594 4.77739 10.1947 4.78497 9.84689C4.78497 9.75616 4.78497 9.66542 4.78497 9.56712C4.78497 9.31003 4.78497 9.04538 4.78497 8.78829C4.68642 8.88659 4.58787 8.98489 4.4969 9.07563C5.14884 9.07563 5.80078 9.07563 6.45272 9.07563C6.54369 9.07563 6.63465 9.07563 6.72562 9.07563C6.87723 9.07563 7.02127 8.93952 7.01369 8.78829C7.00611 8.6295 6.88481 8.50095 6.72562 8.50095C6.07368 8.50095 5.42173 8.50095 4.76979 8.50095C4.67883 8.50095 4.58787 8.50095 4.4969 8.50095C4.33771 8.50095 4.20883 8.63706 4.20883 8.78829C4.20883 9.01513 4.20883 9.23441 4.20883 9.46125C4.20883 9.57467 4.20883 9.6881 4.20883 9.80909C4.20883 9.81665 4.20883 9.83176 4.20883 9.83933C4.20883 9.83933 4.20883 9.83933 4.20883 9.84689C4.20883 9.93007 4.20125 9.81664 4.20883 9.86201C4.20125 9.8847 4.20126 9.87713 4.21642 9.85444C4.20884 9.86201 4.20124 9.87714 4.20124 9.8847C4.19366 9.89982 4.19367 9.89982 4.20883 9.87713C4.18609 9.89982 4.18608 9.89982 4.20124 9.8847C4.23915 9.87714 4.14819 9.92251 4.17851 9.89982C4.20126 9.89226 4.19366 9.89226 4.16334 9.89982C4.20124 9.89982 4.20124 9.89982 4.16334 9.89982C4.01172 9.90738 3.86771 10.0284 3.87529 10.1872C3.88287 10.346 4.00414 10.4745 4.16334 10.4745C4.91383 10.4745 5.66433 10.4745 6.41482 10.4745C6.52095 10.4745 6.62708 10.4745 6.73321 10.4745C6.8924 10.4745 7.02128 10.3384 7.02128 10.1872C7.02128 9.71835 7.02128 9.2571 7.02128 8.78829C7.02128 8.63706 6.88482 8.49338 6.73321 8.50095C6.56643 8.49338 6.43755 8.61436 6.43755 8.78072Z"/>
<path d="M6.43755 8.78072C6.43755 9.24953 6.43755 9.71078 6.43755 10.1796C6.5361 10.0813 6.63465 9.98299 6.72562 9.89225C5.97513 9.89225 5.22464 9.89225 4.47415 9.89225C4.36802 9.89225 4.2619 9.89225 4.15577 9.89225C4.15577 10.0889 4.15577 10.2779 4.15577 10.4745C4.50448 10.4594 4.77739 10.1947 4.78497 9.84689C4.78497 9.75616 4.78497 9.66542 4.78497 9.56712C4.78497 9.31003 4.78497 9.04538 4.78497 8.78829C4.68642 8.88659 4.58787 8.98489 4.4969 9.07563C5.14884 9.07563 5.80078 9.07563 6.45272 9.07563C6.54369 9.07563 6.63465 9.07563 6.72562 9.07563C6.87723 9.07563 7.02127 8.93952 7.01369 8.78829C7.00611 8.6295 6.88481 8.50095 6.72562 8.50095C6.07368 8.50095 5.42173 8.50095 4.76979 8.50095C4.67883 8.50095 4.58787 8.50095 4.4969 8.50095C4.33771 8.50095 4.20883 8.63706 4.20883 8.78829C4.20883 9.01513 4.20883 9.23441 4.20883 9.46125C4.20883 9.57467 4.20883 9.6881 4.20883 9.80909C4.20883 9.81665 4.20883 9.83176 4.20883 9.83933C4.20883 9.83933 4.20883 9.83933 4.20883 9.84689C4.20883 9.93007 4.20125 9.81664 4.20883 9.86201C4.20125 9.8847 4.20126 9.87713 4.21642 9.85444C4.20884 9.86201 4.20124 9.87714 4.20124 9.8847C4.19366 9.89982 4.19367 9.89982 4.20883 9.87713C4.18609 9.89982 4.18608 9.89982 4.20124 9.8847C4.23915 9.87714 4.14819 9.92251 4.17851 9.89982C4.20126 9.89226 4.19366 9.89226 4.16334 9.89982C4.20124 9.89982 4.20124 9.89982 4.16334 9.89982C4.01172 9.90738 3.86771 10.0284 3.87529 10.1872C3.88287 10.346 4.00414 10.4745 4.16334 10.4745C4.91383 10.4745 5.66433 10.4745 6.41482 10.4745C6.52095 10.4745 6.62708 10.4745 6.73321 10.4745C6.8924 10.4745 7.02128 10.3384 7.02128 10.1872C7.02128 9.71835 7.02128 9.2571 7.02128 8.78829C7.02128 8.63706 6.88482 8.49338 6.73321 8.50095C6.56643 8.49338 6.43755 8.61436 6.43755 8.78072Z"/>
<path d="M16.2992 9.88472C15.6245 9.88472 14.9498 9.88472 14.2675 9.88472C14.169 9.88472 14.0704 9.88472 13.9719 9.88472C14.0704 9.98301 14.169 10.0813 14.26 10.1721C14.26 9.70324 14.26 9.24199 14.26 8.77318C14.1614 8.87148 14.0629 8.96976 13.9719 9.0605C14.548 9.0605 15.1242 9.0605 15.7003 9.0605C15.7837 9.0605 15.8671 9.0605 15.9504 9.0605C15.8519 8.9622 15.7534 8.86392 15.6624 8.77318C15.6624 9.03027 15.6624 9.29491 15.6624 9.552C15.6624 9.64274 15.6624 9.73349 15.6624 9.83179C15.6775 10.1872 15.9429 10.4518 16.2916 10.4594C16.4432 10.4669 16.5872 10.3233 16.5796 10.1721C16.5796 10.0133 16.4584 9.89228 16.2992 9.88472C16.2613 9.88472 16.2613 9.88472 16.2992 9.88472C16.2916 9.88472 16.284 9.88471 16.2764 9.87715C16.3067 9.89227 16.3067 9.89227 16.2764 9.87715C16.2688 9.86958 16.2612 9.86959 16.2537 9.86203C16.3067 9.89983 16.2385 9.83178 16.2688 9.87715C16.2613 9.86202 16.2537 9.84691 16.2461 9.83179C16.2461 9.83935 16.2537 9.8469 16.2537 9.85446C16.2461 9.82421 16.2461 9.82421 16.2461 9.85446C16.2461 9.8469 16.2461 9.83934 16.2461 9.82422C16.2461 9.82422 16.2461 9.82421 16.2461 9.81665C16.2461 9.80909 16.2461 9.79397 16.2461 9.78641C16.2461 9.67299 16.2461 9.552 16.2461 9.43858C16.2461 9.21173 16.2461 8.99246 16.2461 8.76561C16.2461 8.60682 16.1096 8.47827 15.958 8.47827C15.3819 8.47827 14.8058 8.47827 14.2296 8.47827C14.1462 8.47827 14.0628 8.47827 13.9795 8.47827C13.8203 8.47827 13.6914 8.61438 13.6914 8.76561C13.6914 9.23442 13.6914 9.69567 13.6914 10.1645C13.6914 10.3233 13.8278 10.4518 13.9795 10.4518C14.6541 10.4518 15.3288 10.4518 16.0111 10.4518C16.1096 10.4518 16.2082 10.4518 16.3067 10.4518C16.4584 10.4518 16.6024 10.3157 16.5948 10.1645C16.5796 10.0133 16.4584 9.88472 16.2992 9.88472Z"/>
<path d="M16.2992 9.88472C15.6245 9.88472 14.9498 9.88472 14.2675 9.88472C14.169 9.88472 14.0704 9.88472 13.9719 9.88472C14.0704 9.98301 14.169 10.0813 14.26 10.1721C14.26 9.70324 14.26 9.24199 14.26 8.77318C14.1614 8.87148 14.0629 8.96976 13.9719 9.0605C14.548 9.0605 15.1242 9.0605 15.7003 9.0605C15.7837 9.0605 15.8671 9.0605 15.9504 9.0605C15.8519 8.9622 15.7534 8.86392 15.6624 8.77318C15.6624 9.03027 15.6624 9.29491 15.6624 9.552C15.6624 9.64274 15.6624 9.73349 15.6624 9.83179C15.6775 10.1872 15.9429 10.4518 16.2916 10.4594C16.4432 10.4669 16.5872 10.3233 16.5796 10.1721C16.5796 10.0133 16.4584 9.89228 16.2992 9.88472C16.2613 9.88472 16.2613 9.88472 16.2992 9.88472C16.2916 9.88472 16.284 9.88471 16.2764 9.87715C16.3067 9.89227 16.3067 9.89227 16.2764 9.87715C16.2688 9.86958 16.2612 9.86959 16.2537 9.86203C16.3067 9.89983 16.2385 9.83178 16.2688 9.87715C16.2613 9.86202 16.2537 9.84691 16.2461 9.83179C16.2461 9.83935 16.2537 9.8469 16.2537 9.85446C16.2461 9.82421 16.2461 9.82421 16.2461 9.85446C16.2461 9.8469 16.2461 9.83934 16.2461 9.82422C16.2461 9.82422 16.2461 9.82421 16.2461 9.81665C16.2461 9.80909 16.2461 9.79397 16.2461 9.78641C16.2461 9.67299 16.2461 9.552 16.2461 9.43858C16.2461 9.21173 16.2461 8.99246 16.2461 8.76561C16.2461 8.60682 16.1096 8.47827 15.958 8.47827C15.3819 8.47827 14.8058 8.47827 14.2296 8.47827C14.1462 8.47827 14.0628 8.47827 13.9795 8.47827C13.8203 8.47827 13.6914 8.61438 13.6914 8.76561C13.6914 9.23442 13.6914 9.69567 13.6914 10.1645C13.6914 10.3233 13.8278 10.4518 13.9795 10.4518C14.6541 10.4518 15.3288 10.4518 16.0111 10.4518C16.1096 10.4518 16.2082 10.4518 16.3067 10.4518C16.4584 10.4518 16.6024 10.3157 16.5948 10.1645C16.5796 10.0133 16.4584 9.88472 16.2992 9.88472Z"/>
<path d="M16.2992 9.88472C15.6245 9.88472 14.9498 9.88472 14.2675 9.88472C14.169 9.88472 14.0704 9.88472 13.9719 9.88472C14.0704 9.98301 14.169 10.0813 14.26 10.1721C14.26 9.70324 14.26 9.24199 14.26 8.77318C14.1614 8.87148 14.0629 8.96976 13.9719 9.0605C14.548 9.0605 15.1242 9.0605 15.7003 9.0605C15.7837 9.0605 15.8671 9.0605 15.9504 9.0605C15.8519 8.9622 15.7534 8.86392 15.6624 8.77318C15.6624 9.03027 15.6624 9.29491 15.6624 9.552C15.6624 9.64274 15.6624 9.73349 15.6624 9.83179C15.6775 10.1872 15.9429 10.4518 16.2916 10.4594C16.4432 10.4669 16.5872 10.3233 16.5796 10.1721C16.5796 10.0133 16.4584 9.89228 16.2992 9.88472ZM16.2992 9.88472C16.2613 9.88472 16.2613 9.88472 16.2992 9.88472ZM16.2992 9.88472C16.2916 9.88472 16.284 9.88471 16.2764 9.87715C16.3067 9.89227 16.3067 9.89227 16.2764 9.87715C16.2688 9.86958 16.2612 9.86959 16.2537 9.86203C16.3067 9.89983 16.2385 9.83178 16.2688 9.87715C16.2613 9.86202 16.2537 9.84691 16.2461 9.83179C16.2461 9.83935 16.2537 9.8469 16.2537 9.85446C16.2461 9.82421 16.2461 9.82421 16.2461 9.85446C16.2461 9.8469 16.2461 9.83934 16.2461 9.82422C16.2461 9.82422 16.2461 9.82421 16.2461 9.81665C16.2461 9.80909 16.2461 9.79397 16.2461 9.78641C16.2461 9.67299 16.2461 9.552 16.2461 9.43858C16.2461 9.21173 16.2461 8.99246 16.2461 8.76561C16.2461 8.60682 16.1096 8.47827 15.958 8.47827C15.3819 8.47827 14.8058 8.47827 14.2296 8.47827C14.1462 8.47827 14.0628 8.47827 13.9795 8.47827C13.8203 8.47827 13.6914 8.61438 13.6914 8.76561C13.6914 9.23442 13.6914 9.69567 13.6914 10.1645C13.6914 10.3233 13.8278 10.4518 13.9795 10.4518C14.6541 10.4518 15.3288 10.4518 16.0111 10.4518C16.1096 10.4518 16.2082 10.4518 16.3067 10.4518C16.4584 10.4518 16.6024 10.3157 16.5948 10.1645C16.5796 10.0133 16.4584 9.88472 16.2992 9.88472Z"/>
<path d="M18.4833 7.17766C18.4833 7.9338 18.4833 8.69752 18.4833 9.45367C18.4833 9.57465 18.4833 9.69562 18.4833 9.81661C18.4833 9.82417 18.4833 9.83174 18.4833 9.83174C18.4833 9.90736 18.4757 9.83174 18.4833 9.83174C18.4909 9.83174 18.453 9.8998 18.4909 9.83174C18.4833 9.84687 18.4757 9.86198 18.4682 9.8771C18.4909 9.85442 18.4909 9.84686 18.4682 9.8771C18.4909 9.86198 18.4985 9.85443 18.4757 9.86955L18.4682 9.8771C18.4378 9.89223 18.4378 9.89223 18.4682 9.8771C18.4682 9.88466 18.3999 9.88467 18.4682 9.88467C18.4606 9.88467 18.4454 9.88467 18.4378 9.88467C18.4227 9.88467 18.4075 9.88467 18.3999 9.88467C17.9981 9.88467 17.5964 9.88467 17.187 9.88467C16.9672 9.88467 16.7549 9.88467 16.5351 9.88467C16.4744 9.88467 16.4062 9.88467 16.3456 9.88467C16.3304 9.88467 16.3228 9.88467 16.3077 9.88467H16.3001C16.2243 9.88467 16.3001 9.88467 16.3001 9.88467C16.2697 9.87711 16.2697 9.8771 16.3001 9.89222C16.2925 9.88466 16.2773 9.8771 16.2698 9.8771L16.2622 9.86955C16.2849 9.89224 16.2925 9.89224 16.2622 9.86955C16.2546 9.87711 16.2925 9.8998 16.2622 9.86955C16.2546 9.86199 16.2546 9.85442 16.247 9.84686C16.2546 9.87711 16.2622 9.8771 16.2546 9.85441C16.2622 9.80905 16.2546 9.92247 16.2546 9.83929C16.2546 9.83173 16.2546 9.82418 16.2546 9.82418C16.2546 9.77881 16.2546 9.73343 16.2546 9.68807C16.2546 9.50659 16.2546 9.32512 16.2546 9.14364C16.2546 8.66727 16.2546 8.1909 16.2546 7.71453C16.2546 7.5633 16.2546 7.41206 16.2546 7.25327C16.2546 7.23059 16.2546 7.20791 16.2546 7.18522C16.2546 7.15498 16.2697 7.15498 16.2546 7.18522C16.2773 7.13986 16.2546 7.1701 16.247 7.18522C16.2546 7.17766 16.2546 7.1701 16.2622 7.16254C16.2773 7.13229 16.2773 7.13229 16.2622 7.16254C16.2622 7.16254 16.3152 7.11717 16.2622 7.16254C16.2622 7.16254 16.3228 7.11716 16.2925 7.13985C16.2697 7.16253 16.3456 7.13229 16.2773 7.13985C16.2849 7.13985 16.3001 7.13985 16.3077 7.13985C17.0202 7.14741 17.7252 7.14741 18.4378 7.13985C18.4454 7.13985 18.453 7.13985 18.453 7.13985C18.4606 7.13985 18.4606 7.13985 18.4682 7.13985C18.4303 7.13229 18.4303 7.13986 18.4682 7.14742C18.4682 7.16254 18.4151 7.10205 18.4682 7.14742C18.5288 7.20035 18.4454 7.11716 18.4757 7.15497C18.5136 7.19278 18.4303 7.10204 18.4833 7.16254C18.5136 7.20034 18.4757 7.16254 18.4833 7.16254C18.4833 7.16254 18.4833 7.17009 18.4833 7.17766C18.4833 7.13985 18.4833 7.13985 18.4833 7.17766C18.4909 7.32889 18.6122 7.47256 18.7714 7.465C18.923 7.45743 19.067 7.33645 19.0594 7.17766C19.0443 6.79958 18.7486 6.55005 18.3772 6.55005C18.2028 6.55005 18.0285 6.55005 17.8541 6.55005C17.3765 6.55005 16.9065 6.55005 16.4289 6.55005C16.3835 6.55005 16.338 6.55005 16.2925 6.55005C16.0802 6.55761 15.8907 6.64836 15.7694 6.82227C15.6557 6.98106 15.6557 7.15498 15.6557 7.33645C15.6557 7.79014 15.6557 8.25138 15.6557 8.70507C15.6557 9.07558 15.6481 9.4461 15.6557 9.82418C15.6557 10.1871 15.9286 10.4593 16.2925 10.4745C16.4289 10.482 16.5578 10.4745 16.6943 10.4745C17.187 10.4745 17.6722 10.4745 18.1649 10.4745C18.309 10.4745 18.4681 10.4896 18.6046 10.4518C18.8623 10.3762 19.0367 10.1418 19.0519 9.8771C19.0519 9.84686 19.0519 9.80905 19.0519 9.7788C19.0519 8.93947 19.0519 8.10016 19.0519 7.26084C19.0519 7.23816 19.0519 7.21546 19.0519 7.19278C19.0519 7.04155 18.9154 6.89787 18.7638 6.90543C18.6198 6.89787 18.4833 7.01886 18.4833 7.17766Z"/>
<path d="M18.4833 7.17766C18.4833 7.9338 18.4833 8.69752 18.4833 9.45367C18.4833 9.57465 18.4833 9.69562 18.4833 9.81661C18.4833 9.82417 18.4833 9.83174 18.4833 9.83174C18.4833 9.90736 18.4757 9.83174 18.4833 9.83174C18.4909 9.83174 18.453 9.8998 18.4909 9.83174C18.4833 9.84687 18.4757 9.86198 18.4682 9.8771C18.4909 9.85442 18.4909 9.84686 18.4682 9.8771C18.4909 9.86198 18.4985 9.85443 18.4757 9.86955L18.4682 9.8771C18.4378 9.89223 18.4378 9.89223 18.4682 9.8771C18.4682 9.88466 18.3999 9.88467 18.4682 9.88467C18.4606 9.88467 18.4454 9.88467 18.4378 9.88467C18.4227 9.88467 18.4075 9.88467 18.3999 9.88467C17.9981 9.88467 17.5964 9.88467 17.187 9.88467C16.9672 9.88467 16.7549 9.88467 16.5351 9.88467C16.4744 9.88467 16.4062 9.88467 16.3456 9.88467C16.3304 9.88467 16.3228 9.88467 16.3077 9.88467H16.3001C16.2243 9.88467 16.3001 9.88467 16.3001 9.88467C16.2697 9.87711 16.2697 9.8771 16.3001 9.89222C16.2925 9.88466 16.2773 9.8771 16.2698 9.8771L16.2622 9.86955C16.2849 9.89224 16.2925 9.89224 16.2622 9.86955C16.2546 9.87711 16.2925 9.8998 16.2622 9.86955C16.2546 9.86199 16.2546 9.85442 16.247 9.84686C16.2546 9.87711 16.2622 9.8771 16.2546 9.85441C16.2622 9.80905 16.2546 9.92247 16.2546 9.83929C16.2546 9.83173 16.2546 9.82418 16.2546 9.82418C16.2546 9.77881 16.2546 9.73343 16.2546 9.68807C16.2546 9.50659 16.2546 9.32512 16.2546 9.14364C16.2546 8.66727 16.2546 8.1909 16.2546 7.71453C16.2546 7.5633 16.2546 7.41206 16.2546 7.25327C16.2546 7.23059 16.2546 7.20791 16.2546 7.18522C16.2546 7.15498 16.2697 7.15498 16.2546 7.18522C16.2773 7.13986 16.2546 7.1701 16.247 7.18522C16.2546 7.17766 16.2546 7.1701 16.2622 7.16254C16.2773 7.13229 16.2773 7.13229 16.2622 7.16254C16.2622 7.16254 16.3152 7.11717 16.2622 7.16254C16.2622 7.16254 16.3228 7.11716 16.2925 7.13985C16.2697 7.16253 16.3456 7.13229 16.2773 7.13985C16.2849 7.13985 16.3001 7.13985 16.3077 7.13985C17.0202 7.14741 17.7252 7.14741 18.4378 7.13985C18.4454 7.13985 18.453 7.13985 18.453 7.13985C18.4606 7.13985 18.4606 7.13985 18.4682 7.13985C18.4303 7.13229 18.4303 7.13986 18.4682 7.14742C18.4682 7.16254 18.4151 7.10205 18.4682 7.14742C18.5288 7.20035 18.4454 7.11716 18.4757 7.15497C18.5136 7.19278 18.4303 7.10204 18.4833 7.16254C18.5136 7.20034 18.4757 7.16254 18.4833 7.16254C18.4833 7.16254 18.4833 7.17009 18.4833 7.17766C18.4833 7.13985 18.4833 7.13985 18.4833 7.17766C18.4909 7.32889 18.6122 7.47256 18.7714 7.465C18.923 7.45743 19.067 7.33645 19.0594 7.17766C19.0443 6.79958 18.7486 6.55005 18.3772 6.55005C18.2028 6.55005 18.0285 6.55005 17.8541 6.55005C17.3765 6.55005 16.9065 6.55005 16.4289 6.55005C16.3835 6.55005 16.338 6.55005 16.2925 6.55005C16.0802 6.55761 15.8907 6.64836 15.7694 6.82227C15.6557 6.98106 15.6557 7.15498 15.6557 7.33645C15.6557 7.79014 15.6557 8.25138 15.6557 8.70507C15.6557 9.07558 15.6481 9.4461 15.6557 9.82418C15.6557 10.1871 15.9286 10.4593 16.2925 10.4745C16.4289 10.482 16.5578 10.4745 16.6943 10.4745C17.187 10.4745 17.6722 10.4745 18.1649 10.4745C18.309 10.4745 18.4681 10.4896 18.6046 10.4518C18.8623 10.3762 19.0367 10.1418 19.0519 9.8771C19.0519 9.84686 19.0519 9.80905 19.0519 9.7788C19.0519 8.93947 19.0519 8.10016 19.0519 7.26084C19.0519 7.23816 19.0519 7.21546 19.0519 7.19278C19.0519 7.04155 18.9154 6.89787 18.7638 6.90543C18.6198 6.89787 18.4833 7.01886 18.4833 7.17766Z"/>
<path d="M18.4833 7.17766C18.4833 7.9338 18.4833 8.69752 18.4833 9.45367C18.4833 9.57465 18.4833 9.69562 18.4833 9.81661C18.4833 9.82417 18.4833 9.83174 18.4833 9.83174C18.4833 9.90736 18.4757 9.83174 18.4833 9.83174C18.4909 9.83174 18.453 9.8998 18.4909 9.83174C18.4833 9.84687 18.4757 9.86198 18.4682 9.8771C18.4909 9.85442 18.4909 9.84686 18.4682 9.8771C18.4909 9.86198 18.4985 9.85443 18.4757 9.86955L18.4682 9.8771C18.4378 9.89223 18.4378 9.89223 18.4682 9.8771C18.4682 9.88466 18.3999 9.88467 18.4682 9.88467C18.4606 9.88467 18.4454 9.88467 18.4378 9.88467C18.4227 9.88467 18.4075 9.88467 18.3999 9.88467C17.9981 9.88467 17.5964 9.88467 17.187 9.88467C16.9672 9.88467 16.7549 9.88467 16.5351 9.88467C16.4744 9.88467 16.4062 9.88467 16.3456 9.88467C16.3304 9.88467 16.3228 9.88467 16.3077 9.88467H16.3001C16.2243 9.88467 16.3001 9.88467 16.3001 9.88467C16.2697 9.87711 16.2697 9.8771 16.3001 9.89222C16.2925 9.88466 16.2773 9.8771 16.2698 9.8771L16.2622 9.86955C16.2849 9.89224 16.2925 9.89224 16.2622 9.86955C16.2546 9.87711 16.2925 9.8998 16.2622 9.86955C16.2546 9.86199 16.2546 9.85443 16.247 9.84686C16.2546 9.87711 16.2622 9.8771 16.2546 9.85441C16.2622 9.80905 16.2546 9.92247 16.2546 9.83929C16.2546 9.83173 16.2546 9.82418 16.2546 9.82418C16.2546 9.77881 16.2546 9.73343 16.2546 9.68806C16.2546 9.50659 16.2546 9.32512 16.2546 9.14364C16.2546 8.66727 16.2546 8.1909 16.2546 7.71453C16.2546 7.5633 16.2546 7.41206 16.2546 7.25327C16.2546 7.23059 16.2546 7.20791 16.2546 7.18522C16.2546 7.15498 16.2697 7.15498 16.2546 7.18522C16.2773 7.13986 16.2546 7.1701 16.247 7.18522C16.2546 7.17766 16.2546 7.1701 16.2622 7.16254C16.2773 7.13229 16.2773 7.13229 16.2622 7.16254C16.2622 7.16254 16.3152 7.11717 16.2622 7.16254C16.2622 7.16254 16.3228 7.11716 16.2925 7.13985C16.2697 7.16253 16.3456 7.13229 16.2773 7.13985C16.2849 7.13985 16.3001 7.13985 16.3077 7.13985C17.0202 7.14741 17.7252 7.14741 18.4378 7.13985C18.4454 7.13985 18.453 7.13985 18.453 7.13985C18.4606 7.13985 18.4606 7.13985 18.4682 7.13985C18.4303 7.13229 18.4303 7.13986 18.4682 7.14742C18.4682 7.16254 18.4151 7.10205 18.4682 7.14742C18.5288 7.20035 18.4454 7.11716 18.4757 7.15497C18.5136 7.19278 18.4303 7.10204 18.4833 7.16254C18.5136 7.20034 18.4757 7.16254 18.4833 7.16254C18.4833 7.16254 18.4833 7.17009 18.4833 7.17766ZM18.4833 7.17766C18.4833 7.13985 18.4833 7.13985 18.4833 7.17766ZM18.4833 7.17766C18.4909 7.32889 18.6122 7.47256 18.7714 7.465C18.923 7.45743 19.067 7.33645 19.0594 7.17766C19.0443 6.79958 18.7486 6.55005 18.3772 6.55005C18.2028 6.55005 18.0285 6.55005 17.8541 6.55005C17.3765 6.55005 16.9065 6.55005 16.4289 6.55005C16.3835 6.55005 16.338 6.55005 16.2925 6.55005C16.0802 6.55761 15.8907 6.64836 15.7694 6.82227C15.6557 6.98106 15.6557 7.15498 15.6557 7.33645C15.6557 7.79014 15.6557 8.25138 15.6557 8.70507C15.6557 9.07558 15.6481 9.4461 15.6557 9.82418C15.6557 10.1871 15.9286 10.4593 16.2925 10.4745C16.4289 10.482 16.5578 10.4745 16.6943 10.4745C17.187 10.4745 17.6722 10.4745 18.1649 10.4745C18.309 10.4745 18.4681 10.4896 18.6046 10.4518C18.8623 10.3762 19.0367 10.1418 19.0519 9.8771C19.0519 9.84686 19.0519 9.80905 19.0519 9.7788C19.0519 8.93947 19.0519 8.10016 19.0519 7.26084C19.0519 7.23816 19.0519 7.21546 19.0519 7.19278C19.0519 7.04155 18.9154 6.89787 18.7638 6.90543C18.6198 6.89787 18.4833 7.01886 18.4833 7.17766Z"/>
<path d="M19.1631 5C18.7613 5 18.352 5 17.9502 5C17.3058 5 16.6615 5 16.0171 5C15.8731 5 15.7215 5 15.5774 5C15.4258 5 15.2818 5.13611 15.2893 5.28734C15.2969 5.44613 15.4182 5.57468 15.5774 5.57468C15.9792 5.57468 16.3886 5.57468 16.7903 5.57468C17.4347 5.57468 18.0791 5.57468 18.7234 5.57468C18.8674 5.57468 19.0191 5.57468 19.1631 5.57468C19.3147 5.57468 19.4587 5.43857 19.4512 5.28734C19.4436 5.12855 19.3223 5 19.1631 5Z"/>
<path d="M19.1631 5C18.7613 5 18.352 5 17.9502 5C17.3058 5 16.6615 5 16.0171 5C15.8731 5 15.7215 5 15.5774 5C15.4258 5 15.2818 5.13611 15.2893 5.28734C15.2969 5.44613 15.4182 5.57468 15.5774 5.57468C15.9792 5.57468 16.3886 5.57468 16.7903 5.57468C17.4347 5.57468 18.0791 5.57468 18.7234 5.57468C18.8674 5.57468 19.0191 5.57468 19.1631 5.57468C19.3147 5.57468 19.4587 5.43857 19.4512 5.28734C19.4436 5.12855 19.3223 5 19.1631 5Z"/>
<path d="M19.1631 5C18.7613 5 18.352 5 17.9502 5C17.3058 5 16.6615 5 16.0171 5C15.8731 5 15.7215 5 15.5774 5C15.4258 5 15.2818 5.13611 15.2893 5.28734C15.2969 5.44613 15.4182 5.57468 15.5774 5.57468C15.9792 5.57468 16.3886 5.57468 16.7903 5.57468C17.4347 5.57468 18.0791 5.57468 18.7234 5.57468C18.8674 5.57468 19.0191 5.57468 19.1631 5.57468C19.3147 5.57468 19.4587 5.43857 19.4512 5.28734C19.4436 5.12855 19.3223 5 19.1631 5Z"/>
<path d="M17.0625 5.29495C17.0625 5.80913 17.0625 6.33087 17.0625 6.84505C17.0625 6.99628 17.1989 7.13994 17.3506 7.13238C17.5097 7.12481 17.6386 7.00385 17.6386 6.84505C17.6386 6.33087 17.6386 5.80913 17.6386 5.29495C17.6386 5.14372 17.5022 5.00005 17.3506 5.00761C17.1989 5.01517 17.0625 5.13616 17.0625 5.29495Z"/>
<path d="M17.0625 5.29495C17.0625 5.80913 17.0625 6.33087 17.0625 6.84505C17.0625 6.99628 17.1989 7.13994 17.3506 7.13238C17.5097 7.12481 17.6386 7.00385 17.6386 6.84505C17.6386 6.33087 17.6386 5.80913 17.6386 5.29495C17.6386 5.14372 17.5022 5.00005 17.3506 5.00761C17.1989 5.01517 17.0625 5.13616 17.0625 5.29495Z"/>
<path d="M17.0625 5.29495C17.0625 5.80913 17.0625 6.33087 17.0625 6.84505C17.0625 6.99628 17.1989 7.13994 17.3506 7.13238C17.5097 7.12481 17.6386 7.00385 17.6386 6.84505C17.6386 6.33087 17.6386 5.80913 17.6386 5.29495C17.6386 5.14372 17.5022 5.00005 17.3506 5.00761C17.1989 5.01517 17.0625 5.13616 17.0625 5.29495Z"/>
<path d="M4.19814 7.17766C4.19814 7.9338 4.19814 8.69752 4.19814 9.45367C4.19814 9.57465 4.19814 9.69562 4.19814 9.81661C4.19814 9.82417 4.19814 9.83174 4.19814 9.83174C4.19814 9.90736 4.19056 9.83174 4.19814 9.83174C4.20572 9.83174 4.16783 9.8998 4.20573 9.83174C4.19815 9.84687 4.19057 9.86198 4.18299 9.8771C4.20573 9.85442 4.20573 9.84686 4.18299 9.8771C4.20573 9.86198 4.21332 9.85443 4.19057 9.86955L4.18299 9.8771C4.15266 9.89223 4.15266 9.89223 4.18299 9.8771C4.18299 9.88466 4.11476 9.88467 4.18299 9.88467C4.1754 9.88467 4.16025 9.88467 4.15267 9.88467C4.13751 9.88467 4.12235 9.88467 4.11477 9.88467C3.71299 9.88467 3.31121 9.88467 2.90185 9.88467C2.68201 9.88467 2.46975 9.88467 2.24991 9.88467C2.18926 9.88467 2.12103 9.88467 2.06039 9.88467C2.04523 9.88467 2.03765 9.88467 2.02249 9.88467H2.01492C1.93911 9.88467 2.01492 9.88467 2.01492 9.88467C1.98459 9.87711 1.98459 9.8771 2.01492 9.89222C2.00734 9.88466 1.99216 9.8771 1.98458 9.8771L1.97701 9.86955C1.99975 9.89224 2.00734 9.89224 1.97701 9.86955C1.96943 9.87711 2.00734 9.8998 1.97701 9.86955C1.96943 9.86199 1.96942 9.85442 1.96184 9.84686C1.96942 9.87711 1.97701 9.8771 1.96942 9.85441C1.97701 9.80905 1.96942 9.92247 1.96942 9.83929C1.96942 9.83173 1.96942 9.82418 1.96942 9.82418C1.96942 9.77881 1.96942 9.73343 1.96942 9.68807C1.96942 9.50659 1.96942 9.32512 1.96942 9.14364C1.96942 8.66727 1.96942 8.1909 1.96942 7.71453C1.96942 7.5633 1.96942 7.41206 1.96942 7.25327C1.96942 7.23059 1.96942 7.20791 1.96942 7.18522C1.96942 7.15498 1.98459 7.15498 1.96942 7.18522C1.99217 7.13986 1.96942 7.1701 1.96184 7.18522C1.96942 7.17766 1.96943 7.1701 1.97701 7.16254C1.99217 7.13229 1.99217 7.13229 1.97701 7.16254C1.97701 7.16254 2.03008 7.11717 1.97701 7.16254C1.97701 7.16254 2.03765 7.11716 2.00733 7.13985C1.98459 7.16253 2.0604 7.13229 1.99217 7.13985C1.99975 7.13985 2.01491 7.13985 2.02249 7.13985C2.73507 7.14741 3.44008 7.14741 4.15267 7.13985C4.16025 7.13985 4.16783 7.13985 4.16783 7.13985C4.17541 7.13985 4.1754 7.13985 4.18299 7.13985C4.14508 7.13229 4.14508 7.13986 4.18299 7.14742C4.18299 7.16254 4.12992 7.10205 4.18299 7.14742C4.24363 7.20035 4.16025 7.11716 4.19057 7.15497C4.22848 7.19278 4.14508 7.10204 4.19814 7.16254C4.22847 7.20034 4.19056 7.16254 4.19814 7.16254C4.19056 7.16254 4.19814 7.17009 4.19814 7.17766C4.19814 7.13985 4.19814 7.13985 4.19814 7.17766C4.20572 7.32889 4.32702 7.47256 4.48621 7.465C4.63783 7.45743 4.78186 7.33645 4.77428 7.17766C4.75912 6.79958 4.46347 6.55005 4.09202 6.55005C3.91766 6.55005 3.74332 6.55005 3.56896 6.55005C3.09138 6.55005 2.62137 6.55005 2.14378 6.55005C2.0983 6.55005 2.05281 6.55005 2.00733 6.55005C1.79507 6.55761 1.60556 6.64836 1.48427 6.82227C1.37056 6.98106 1.37056 7.15498 1.37056 7.33645C1.37056 7.79014 1.37056 8.25138 1.37056 8.70507C1.37056 9.07558 1.36298 9.4461 1.37056 9.82418C1.37056 10.1871 1.64345 10.4593 2.00733 10.4745C2.14378 10.482 2.27266 10.4745 2.40911 10.4745C2.90185 10.4745 3.38701 10.4745 3.87976 10.4745C4.02379 10.4745 4.18299 10.4896 4.31944 10.4518C4.57719 10.3762 4.75153 10.1418 4.7667 9.8771C4.7667 9.84686 4.7667 9.80905 4.7667 9.7788C4.7667 8.93947 4.7667 8.10016 4.7667 7.26084C4.7667 7.23816 4.7667 7.21546 4.7667 7.19278C4.7667 7.04155 4.63026 6.89787 4.47864 6.90543C4.32703 6.89787 4.19814 7.01886 4.19814 7.17766Z"/>
<path d="M4.19814 7.17766C4.19814 7.9338 4.19814 8.69752 4.19814 9.45367C4.19814 9.57465 4.19814 9.69562 4.19814 9.81661C4.19814 9.82417 4.19814 9.83174 4.19814 9.83174C4.19814 9.90736 4.19056 9.83174 4.19814 9.83174C4.20572 9.83174 4.16783 9.8998 4.20573 9.83174C4.19815 9.84687 4.19057 9.86198 4.18299 9.8771C4.20573 9.85442 4.20573 9.84686 4.18299 9.8771C4.20573 9.86198 4.21332 9.85443 4.19057 9.86955L4.18299 9.8771C4.15266 9.89223 4.15266 9.89223 4.18299 9.8771C4.18299 9.88466 4.11476 9.88467 4.18299 9.88467C4.1754 9.88467 4.16025 9.88467 4.15267 9.88467C4.13751 9.88467 4.12235 9.88467 4.11477 9.88467C3.71299 9.88467 3.31121 9.88467 2.90185 9.88467C2.68201 9.88467 2.46975 9.88467 2.24991 9.88467C2.18926 9.88467 2.12103 9.88467 2.06039 9.88467C2.04523 9.88467 2.03765 9.88467 2.02249 9.88467H2.01492C1.93911 9.88467 2.01492 9.88467 2.01492 9.88467C1.98459 9.87711 1.98459 9.8771 2.01492 9.89222C2.00734 9.88466 1.99216 9.8771 1.98458 9.8771L1.97701 9.86955C1.99975 9.89224 2.00734 9.89224 1.97701 9.86955C1.96943 9.87711 2.00734 9.8998 1.97701 9.86955C1.96943 9.86199 1.96942 9.85442 1.96184 9.84686C1.96942 9.87711 1.97701 9.8771 1.96942 9.85441C1.97701 9.80905 1.96942 9.92247 1.96942 9.83929C1.96942 9.83173 1.96942 9.82418 1.96942 9.82418C1.96942 9.77881 1.96942 9.73343 1.96942 9.68807C1.96942 9.50659 1.96942 9.32512 1.96942 9.14364C1.96942 8.66727 1.96942 8.1909 1.96942 7.71453C1.96942 7.5633 1.96942 7.41206 1.96942 7.25327C1.96942 7.23059 1.96942 7.20791 1.96942 7.18522C1.96942 7.15498 1.98459 7.15498 1.96942 7.18522C1.99217 7.13986 1.96942 7.1701 1.96184 7.18522C1.96942 7.17766 1.96943 7.1701 1.97701 7.16254C1.99217 7.13229 1.99217 7.13229 1.97701 7.16254C1.97701 7.16254 2.03008 7.11717 1.97701 7.16254C1.97701 7.16254 2.03765 7.11716 2.00733 7.13985C1.98459 7.16253 2.0604 7.13229 1.99217 7.13985C1.99975 7.13985 2.01491 7.13985 2.02249 7.13985C2.73507 7.14741 3.44008 7.14741 4.15267 7.13985C4.16025 7.13985 4.16783 7.13985 4.16783 7.13985C4.17541 7.13985 4.1754 7.13985 4.18299 7.13985C4.14508 7.13229 4.14508 7.13986 4.18299 7.14742C4.18299 7.16254 4.12992 7.10205 4.18299 7.14742C4.24363 7.20035 4.16025 7.11716 4.19057 7.15497C4.22848 7.19278 4.14508 7.10204 4.19814 7.16254C4.22847 7.20034 4.19056 7.16254 4.19814 7.16254C4.19056 7.16254 4.19814 7.17009 4.19814 7.17766C4.19814 7.13985 4.19814 7.13985 4.19814 7.17766C4.20572 7.32889 4.32702 7.47256 4.48621 7.465C4.63783 7.45743 4.78186 7.33645 4.77428 7.17766C4.75912 6.79958 4.46347 6.55005 4.09202 6.55005C3.91766 6.55005 3.74332 6.55005 3.56896 6.55005C3.09138 6.55005 2.62137 6.55005 2.14378 6.55005C2.0983 6.55005 2.05281 6.55005 2.00733 6.55005C1.79507 6.55761 1.60556 6.64836 1.48427 6.82227C1.37056 6.98106 1.37056 7.15498 1.37056 7.33645C1.37056 7.79014 1.37056 8.25138 1.37056 8.70507C1.37056 9.07558 1.36298 9.4461 1.37056 9.82418C1.37056 10.1871 1.64345 10.4593 2.00733 10.4745C2.14378 10.482 2.27266 10.4745 2.40911 10.4745C2.90185 10.4745 3.38701 10.4745 3.87976 10.4745C4.02379 10.4745 4.18299 10.4896 4.31944 10.4518C4.57719 10.3762 4.75153 10.1418 4.7667 9.8771C4.7667 9.84686 4.7667 9.80905 4.7667 9.7788C4.7667 8.93947 4.7667 8.10016 4.7667 7.26084C4.7667 7.23816 4.7667 7.21546 4.7667 7.19278C4.7667 7.04155 4.63026 6.89787 4.47864 6.90543C4.32703 6.89787 4.19814 7.01886 4.19814 7.17766Z"/>
<path d="M4.19814 7.17766C4.19814 7.9338 4.19814 8.69752 4.19814 9.45367C4.19814 9.57465 4.19814 9.69562 4.19814 9.81661C4.19814 9.82417 4.19814 9.83174 4.19814 9.83174C4.19814 9.90736 4.19056 9.83174 4.19814 9.83174C4.20572 9.83174 4.16783 9.8998 4.20573 9.83174C4.19815 9.84687 4.19057 9.86198 4.18299 9.8771C4.20573 9.85442 4.20573 9.84686 4.18299 9.8771C4.20573 9.86198 4.21332 9.85443 4.19057 9.86955L4.18299 9.8771C4.15266 9.89223 4.15266 9.89223 4.18299 9.8771C4.18299 9.88466 4.11476 9.88467 4.18299 9.88467C4.1754 9.88467 4.16025 9.88467 4.15267 9.88467C4.13751 9.88467 4.12235 9.88467 4.11477 9.88467C3.71299 9.88467 3.31121 9.88467 2.90185 9.88467C2.68201 9.88467 2.46975 9.88467 2.24991 9.88467C2.18926 9.88467 2.12103 9.88467 2.06039 9.88467C2.04523 9.88467 2.03765 9.88467 2.02249 9.88467H2.01492C1.93911 9.88467 2.01492 9.88467 2.01492 9.88467C1.98459 9.87711 1.98459 9.8771 2.01492 9.89222C2.00734 9.88466 1.99216 9.8771 1.98458 9.8771L1.97701 9.86955C1.99975 9.89224 2.00734 9.89224 1.97701 9.86955C1.96943 9.87711 2.00734 9.8998 1.97701 9.86955C1.96943 9.86199 1.96942 9.85443 1.96184 9.84686C1.96942 9.87711 1.97701 9.8771 1.96942 9.85441C1.97701 9.80905 1.96942 9.92247 1.96942 9.83929C1.96942 9.83173 1.96942 9.82418 1.96942 9.82418C1.96942 9.77881 1.96942 9.73343 1.96942 9.68806C1.96942 9.50659 1.96942 9.32512 1.96942 9.14364C1.96942 8.66727 1.96942 8.1909 1.96942 7.71453C1.96942 7.5633 1.96942 7.41206 1.96942 7.25327C1.96942 7.23059 1.96942 7.20791 1.96942 7.18522C1.96942 7.15498 1.98459 7.15498 1.96942 7.18522C1.99217 7.13986 1.96942 7.1701 1.96184 7.18522C1.96942 7.17766 1.96943 7.1701 1.97701 7.16254C1.99217 7.13229 1.99217 7.13229 1.97701 7.16254C1.97701 7.16254 2.03008 7.11717 1.97701 7.16254C1.97701 7.16254 2.03765 7.11716 2.00733 7.13985C1.98459 7.16253 2.0604 7.13229 1.99217 7.13985C1.99975 7.13985 2.01491 7.13985 2.02249 7.13985C2.73507 7.14741 3.44008 7.14741 4.15267 7.13985C4.16025 7.13985 4.16783 7.13985 4.16783 7.13985C4.17541 7.13985 4.1754 7.13985 4.18299 7.13985C4.14508 7.13229 4.14508 7.13986 4.18299 7.14742C4.18299 7.16254 4.12992 7.10205 4.18299 7.14742C4.24363 7.20035 4.16025 7.11716 4.19057 7.15497C4.22848 7.19278 4.14508 7.10204 4.19814 7.16254C4.22847 7.20034 4.19056 7.16254 4.19814 7.16254C4.19056 7.16254 4.19814 7.17009 4.19814 7.17766ZM4.19814 7.17766C4.19814 7.13985 4.19814 7.13985 4.19814 7.17766ZM4.19814 7.17766C4.20572 7.32889 4.32702 7.47256 4.48621 7.465C4.63783 7.45743 4.78186 7.33645 4.77428 7.17766C4.75912 6.79958 4.46347 6.55005 4.09202 6.55005C3.91766 6.55005 3.74332 6.55005 3.56896 6.55005C3.09138 6.55005 2.62137 6.55005 2.14378 6.55005C2.0983 6.55005 2.05281 6.55005 2.00733 6.55005C1.79507 6.55761 1.60556 6.64836 1.48427 6.82227C1.37056 6.98106 1.37056 7.15498 1.37056 7.33645C1.37056 7.79014 1.37056 8.25138 1.37056 8.70507C1.37056 9.07558 1.36298 9.4461 1.37056 9.82418C1.37056 10.1871 1.64345 10.4593 2.00733 10.4745C2.14378 10.482 2.27266 10.4745 2.40911 10.4745C2.90185 10.4745 3.38701 10.4745 3.87976 10.4745C4.02379 10.4745 4.18299 10.4896 4.31944 10.4518C4.57719 10.3762 4.75153 10.1418 4.7667 9.8771C4.7667 9.84686 4.7667 9.80905 4.7667 9.7788C4.7667 8.93947 4.7667 8.10016 4.7667 7.26084C4.7667 7.23816 4.7667 7.21546 4.7667 7.19278C4.7667 7.04155 4.63026 6.89787 4.47864 6.90543C4.32703 6.89787 4.19814 7.01886 4.19814 7.17766Z"/>
<path d="M4.87403 5C4.47225 5 4.0629 5 3.66112 5C3.01676 5 2.3724 5 1.72804 5C1.58401 5 1.43239 5 1.28836 5C1.13674 5 0.992706 5.13611 1.00029 5.28734C1.00787 5.44613 1.12916 5.57468 1.28836 5.57468C1.69013 5.57468 2.09949 5.57468 2.50127 5.57468C3.14563 5.57468 3.78999 5.57468 4.43435 5.57468C4.57838 5.57468 4.73 5.57468 4.87403 5.57468C5.02565 5.57468 5.16968 5.43857 5.1621 5.28734C5.1621 5.12855 5.04081 5 4.87403 5Z"/>
<path d="M4.87403 5C4.47225 5 4.0629 5 3.66112 5C3.01676 5 2.3724 5 1.72804 5C1.58401 5 1.43239 5 1.28836 5C1.13674 5 0.992706 5.13611 1.00029 5.28734C1.00787 5.44613 1.12916 5.57468 1.28836 5.57468C1.69013 5.57468 2.09949 5.57468 2.50127 5.57468C3.14563 5.57468 3.78999 5.57468 4.43435 5.57468C4.57838 5.57468 4.73 5.57468 4.87403 5.57468C5.02565 5.57468 5.16968 5.43857 5.1621 5.28734C5.1621 5.12855 5.04081 5 4.87403 5Z"/>
<path d="M4.87403 5C4.47225 5 4.0629 5 3.66112 5C3.01676 5 2.3724 5 1.72804 5C1.58401 5 1.43239 5 1.28836 5C1.13674 5 0.992706 5.13611 1.00029 5.28734C1.00787 5.44613 1.12916 5.57468 1.28836 5.57468C1.69013 5.57468 2.09949 5.57468 2.50127 5.57468C3.14563 5.57468 3.78999 5.57468 4.43435 5.57468C4.57838 5.57468 4.73 5.57468 4.87403 5.57468C5.02565 5.57468 5.16968 5.43857 5.1621 5.28734C5.1621 5.12855 5.04081 5 4.87403 5Z"/>
<path d="M2.78125 5.29495C2.78125 5.80913 2.78125 6.33087 2.78125 6.84505C2.78125 6.99628 2.91771 7.13994 3.06932 7.13238C3.22851 7.12481 3.35739 7.00385 3.35739 6.84505C3.35739 6.33087 3.35739 5.80913 3.35739 5.29495C3.35739 5.14372 3.22093 5.00005 3.06932 5.00761C2.91013 5.01517 2.78125 5.13616 2.78125 5.29495Z"/>
<path d="M2.78125 5.29495C2.78125 5.80913 2.78125 6.33087 2.78125 6.84505C2.78125 6.99628 2.91771 7.13994 3.06932 7.13238C3.22851 7.12481 3.35739 7.00385 3.35739 6.84505C3.35739 6.33087 3.35739 5.80913 3.35739 5.29495C3.35739 5.14372 3.22093 5.00005 3.06932 5.00761C2.91013 5.01517 2.78125 5.13616 2.78125 5.29495Z"/>
<path d="M2.78125 5.29495C2.78125 5.80913 2.78125 6.33087 2.78125 6.84505C2.78125 6.99628 2.91771 7.13994 3.06932 7.13238C3.22851 7.12481 3.35739 7.00385 3.35739 6.84505C3.35739 6.33087 3.35739 5.80913 3.35739 5.29495C3.35739 5.14372 3.22093 5.00005 3.06932 5.00761C2.91013 5.01517 2.78125 5.13616 2.78125 5.29495Z"/>
<path d="M11.3238 9.78639C11.3238 9.81664 11.3238 9.84688 11.3238 9.87712C11.3238 9.89225 11.3238 9.90737 11.3238 9.91493C11.3238 9.90737 11.3314 9.86957 11.3238 9.89981C11.3162 9.9603 11.3011 10.0284 11.2783 10.0889C11.2708 10.1115 11.2632 10.1342 11.2556 10.1645C11.2783 10.1115 11.248 10.1871 11.2404 10.2023C11.2101 10.2628 11.1798 10.3081 11.1419 10.3611C11.1116 10.4064 11.1646 10.3384 11.1267 10.3837C11.104 10.4064 11.0888 10.4291 11.0661 10.4518C11.0509 10.4669 11.0282 10.4896 11.013 10.5047C10.9979 10.5199 10.9903 10.5274 10.9751 10.535C10.9675 10.535 10.9296 10.5728 10.9524 10.5501C10.9751 10.5274 10.9448 10.5577 10.9448 10.5577C10.9296 10.5652 10.9145 10.5804 10.8993 10.5879C10.8766 10.603 10.8538 10.6182 10.8311 10.6257C10.8083 10.6408 10.778 10.656 10.7553 10.6635C10.7477 10.6711 10.7325 10.6711 10.7174 10.6786C10.7704 10.656 10.7174 10.6786 10.7022 10.6786C10.6491 10.6938 10.5961 10.7164 10.543 10.724C10.5279 10.724 10.452 10.7391 10.4748 10.7391C10.5051 10.7391 10.4672 10.7391 10.4596 10.7391C10.4445 10.7391 10.4217 10.7391 10.4066 10.7391C10.3459 10.7391 10.2777 10.7391 10.2171 10.7316C10.2701 10.7391 10.2095 10.7316 10.1867 10.724C10.1488 10.7164 10.1185 10.7089 10.0882 10.7013C10.0579 10.6938 10.0275 10.6862 10.0048 10.6711C9.98963 10.6635 9.98205 10.6635 9.96688 10.656C9.97447 10.6635 10.0124 10.6786 9.96688 10.656C9.91382 10.6257 9.86075 10.603 9.81527 10.5728C9.79253 10.5577 9.76978 10.5425 9.75462 10.5274C9.80011 10.5577 9.73947 10.5123 9.72431 10.5047C9.67882 10.4594 9.63334 10.414 9.59544 10.3686C9.55753 10.3308 9.61058 10.3913 9.58026 10.3459C9.5651 10.3232 9.54995 10.3006 9.53479 10.2703C9.51963 10.2476 9.50446 10.2174 9.4893 10.1947C9.48172 10.1796 9.4514 10.1115 9.45898 10.1342C9.47414 10.1645 9.45897 10.1267 9.45139 10.1191C9.44381 10.104 9.43624 10.0889 9.43624 10.0737C9.42865 10.051 9.42107 10.0208 9.41349 9.99812C9.40591 9.96787 9.39832 9.93763 9.39074 9.90738C9.39074 9.89226 9.38317 9.8847 9.38317 9.86957C9.39075 9.93007 9.38317 9.86956 9.38317 9.85444C9.37559 9.79394 9.37559 9.74103 9.38317 9.68054C9.38317 9.66541 9.38316 9.64272 9.39074 9.62759C9.39074 9.63515 9.38316 9.67298 9.39074 9.64273C9.39832 9.60492 9.40591 9.57467 9.41349 9.53686C9.42865 9.48393 9.44381 9.43101 9.46655 9.37808C9.45139 9.42345 9.46657 9.37051 9.48173 9.35539C9.49689 9.32514 9.51204 9.2949 9.5272 9.26466C9.54236 9.24197 9.55753 9.21173 9.57269 9.18904C9.58027 9.18148 9.58786 9.16635 9.59544 9.15878C9.58786 9.16635 9.55753 9.19659 9.59544 9.15878C9.63334 9.11341 9.67123 9.06805 9.71672 9.03024C9.7243 9.02268 9.78495 8.96975 9.76221 8.99243C9.73947 9.00756 9.79252 8.96976 9.80768 8.9622C9.86075 8.92439 9.91383 8.89413 9.97447 8.87144C10.02 8.84876 9.94413 8.87902 9.9972 8.86389C10.0275 8.85633 10.0503 8.8412 10.0806 8.83364C10.1109 8.82607 10.1412 8.81853 10.1716 8.81097C10.1867 8.81097 10.1943 8.8034 10.2095 8.8034C10.217 8.8034 10.2701 8.79583 10.2322 8.79583C10.2019 8.79583 10.2853 8.79584 10.3004 8.78828C10.3308 8.78828 10.3611 8.78828 10.3914 8.78828C10.4217 8.78828 10.4445 8.78827 10.4748 8.79583C10.5203 8.79583 10.4293 8.78827 10.4748 8.79583C10.4899 8.79583 10.5127 8.8034 10.5278 8.8034C10.5885 8.81852 10.6491 8.83364 10.7174 8.85632C10.7704 8.87145 10.7325 8.86389 10.7174 8.85632C10.7325 8.86389 10.7477 8.87145 10.7629 8.87901C10.7932 8.89414 10.8235 8.90927 10.8538 8.92439C10.8841 8.93951 10.9069 8.96219 10.9372 8.97732C10.9372 8.97732 10.9751 9.00755 10.9448 8.98487C10.9145 8.96218 10.9751 9.00755 10.9751 9.00755C11.0206 9.04536 11.0661 9.09073 11.1116 9.14366C11.1192 9.15123 11.1267 9.16634 11.1343 9.1739C11.1116 9.14366 11.1267 9.16636 11.1419 9.18904C11.1571 9.21173 11.1722 9.23441 11.1874 9.26466C11.2025 9.2949 11.2177 9.32514 11.2329 9.35539C11.2404 9.37051 11.248 9.38562 11.2556 9.40075C11.2404 9.37806 11.248 9.37806 11.2556 9.40075C11.2783 9.4688 11.3011 9.5293 11.3087 9.59735C11.3087 9.61248 11.3163 9.62004 11.3163 9.63516C11.3238 9.68053 11.3163 9.58979 11.3163 9.63516C11.3238 9.71078 11.3238 9.74858 11.3238 9.78639C11.3238 9.93762 11.4603 10.0813 11.6119 10.0737C11.7711 10.0662 11.9075 9.94518 11.9 9.78639C11.8924 9.12854 11.4754 8.55387 10.8614 8.32702C10.2701 8.10774 9.55752 8.30434 9.16332 8.78828C8.74638 9.2949 8.67058 10.0132 9.01171 10.5803C9.35284 11.1475 10.0199 11.4348 10.6643 11.3063C11.3845 11.1702 11.8924 10.5047 11.9 9.78639C11.9 9.63516 11.7635 9.49149 11.6119 9.49905C11.4527 9.50661 11.3238 9.6276 11.3238 9.78639Z"/>
<path d="M11.3238 9.78639C11.3238 9.81664 11.3238 9.84688 11.3238 9.87712C11.3238 9.89225 11.3238 9.90737 11.3238 9.91493C11.3238 9.90737 11.3314 9.86957 11.3238 9.89981C11.3162 9.9603 11.3011 10.0284 11.2783 10.0889C11.2708 10.1115 11.2632 10.1342 11.2556 10.1645C11.2783 10.1115 11.248 10.1871 11.2404 10.2023C11.2101 10.2628 11.1798 10.3081 11.1419 10.3611C11.1116 10.4064 11.1646 10.3384 11.1267 10.3837C11.104 10.4064 11.0888 10.4291 11.0661 10.4518C11.0509 10.4669 11.0282 10.4896 11.013 10.5047C10.9979 10.5199 10.9903 10.5274 10.9751 10.535C10.9675 10.535 10.9296 10.5728 10.9524 10.5501C10.9751 10.5274 10.9448 10.5577 10.9448 10.5577C10.9296 10.5652 10.9145 10.5804 10.8993 10.5879C10.8766 10.603 10.8538 10.6182 10.8311 10.6257C10.8083 10.6408 10.778 10.656 10.7553 10.6635C10.7477 10.6711 10.7325 10.6711 10.7174 10.6786C10.7704 10.656 10.7174 10.6786 10.7022 10.6786C10.6491 10.6938 10.5961 10.7164 10.543 10.724C10.5279 10.724 10.452 10.7391 10.4748 10.7391C10.5051 10.7391 10.4672 10.7391 10.4596 10.7391C10.4445 10.7391 10.4217 10.7391 10.4066 10.7391C10.3459 10.7391 10.2777 10.7391 10.2171 10.7316C10.2701 10.7391 10.2095 10.7316 10.1867 10.724C10.1488 10.7164 10.1185 10.7089 10.0882 10.7013C10.0579 10.6938 10.0275 10.6862 10.0048 10.6711C9.98963 10.6635 9.98205 10.6635 9.96688 10.656C9.97447 10.6635 10.0124 10.6786 9.96688 10.656C9.91382 10.6257 9.86075 10.603 9.81527 10.5728C9.79253 10.5577 9.76978 10.5425 9.75462 10.5274C9.80011 10.5577 9.73947 10.5123 9.72431 10.5047C9.67882 10.4594 9.63334 10.414 9.59544 10.3686C9.55753 10.3308 9.61058 10.3913 9.58026 10.3459C9.5651 10.3232 9.54995 10.3006 9.53479 10.2703C9.51963 10.2476 9.50446 10.2174 9.4893 10.1947C9.48172 10.1796 9.4514 10.1115 9.45898 10.1342C9.47414 10.1645 9.45897 10.1267 9.45139 10.1191C9.44381 10.104 9.43624 10.0889 9.43624 10.0737C9.42865 10.051 9.42107 10.0208 9.41349 9.99812C9.40591 9.96787 9.39832 9.93763 9.39074 9.90738C9.39074 9.89226 9.38317 9.8847 9.38317 9.86957C9.39075 9.93007 9.38317 9.86956 9.38317 9.85444C9.37559 9.79394 9.37559 9.74103 9.38317 9.68054C9.38317 9.66541 9.38316 9.64272 9.39074 9.62759C9.39074 9.63515 9.38316 9.67298 9.39074 9.64273C9.39832 9.60492 9.40591 9.57467 9.41349 9.53686C9.42865 9.48393 9.44381 9.43101 9.46655 9.37808C9.45139 9.42345 9.46657 9.37051 9.48173 9.35539C9.49689 9.32514 9.51204 9.2949 9.5272 9.26466C9.54236 9.24197 9.55753 9.21173 9.57269 9.18904C9.58027 9.18148 9.58786 9.16635 9.59544 9.15878C9.58786 9.16635 9.55753 9.19659 9.59544 9.15878C9.63334 9.11341 9.67123 9.06805 9.71672 9.03024C9.7243 9.02268 9.78495 8.96975 9.76221 8.99243C9.73947 9.00756 9.79252 8.96976 9.80768 8.9622C9.86075 8.92439 9.91383 8.89413 9.97447 8.87144C10.02 8.84876 9.94413 8.87902 9.9972 8.86389C10.0275 8.85633 10.0503 8.8412 10.0806 8.83364C10.1109 8.82607 10.1412 8.81853 10.1716 8.81097C10.1867 8.81097 10.1943 8.8034 10.2095 8.8034C10.217 8.8034 10.2701 8.79583 10.2322 8.79583C10.2019 8.79583 10.2853 8.79584 10.3004 8.78828C10.3308 8.78828 10.3611 8.78828 10.3914 8.78828C10.4217 8.78828 10.4445 8.78827 10.4748 8.79583C10.5203 8.79583 10.4293 8.78827 10.4748 8.79583C10.4899 8.79583 10.5127 8.8034 10.5278 8.8034C10.5885 8.81852 10.6491 8.83364 10.7174 8.85632C10.7704 8.87145 10.7325 8.86389 10.7174 8.85632C10.7325 8.86389 10.7477 8.87145 10.7629 8.87901C10.7932 8.89414 10.8235 8.90927 10.8538 8.92439C10.8841 8.93951 10.9069 8.96219 10.9372 8.97732C10.9372 8.97732 10.9751 9.00755 10.9448 8.98487C10.9145 8.96218 10.9751 9.00755 10.9751 9.00755C11.0206 9.04536 11.0661 9.09073 11.1116 9.14366C11.1192 9.15123 11.1267 9.16634 11.1343 9.1739C11.1116 9.14366 11.1267 9.16636 11.1419 9.18904C11.1571 9.21173 11.1722 9.23441 11.1874 9.26466C11.2025 9.2949 11.2177 9.32514 11.2329 9.35539C11.2404 9.37051 11.248 9.38562 11.2556 9.40075C11.2404 9.37806 11.248 9.37806 11.2556 9.40075C11.2783 9.4688 11.3011 9.5293 11.3087 9.59735C11.3087 9.61248 11.3163 9.62004 11.3163 9.63516C11.3238 9.68053 11.3163 9.58979 11.3163 9.63516C11.3238 9.71078 11.3238 9.74858 11.3238 9.78639C11.3238 9.93762 11.4603 10.0813 11.6119 10.0737C11.7711 10.0662 11.9075 9.94518 11.9 9.78639C11.8924 9.12854 11.4754 8.55387 10.8614 8.32702C10.2701 8.10774 9.55752 8.30434 9.16332 8.78828C8.74638 9.2949 8.67058 10.0132 9.01171 10.5803C9.35284 11.1475 10.0199 11.4348 10.6643 11.3063C11.3845 11.1702 11.8924 10.5047 11.9 9.78639C11.9 9.63516 11.7635 9.49149 11.6119 9.49905C11.4527 9.50661 11.3238 9.6276 11.3238 9.78639Z"/>
<path d="M11.3238 9.78639C11.3238 9.81664 11.3238 9.84688 11.3238 9.87712C11.3238 9.89225 11.3238 9.90737 11.3238 9.91493C11.3238 9.90737 11.3314 9.86957 11.3238 9.89981C11.3162 9.9603 11.3011 10.0284 11.2783 10.0889C11.2708 10.1115 11.2632 10.1342 11.2556 10.1645C11.2783 10.1115 11.248 10.1871 11.2404 10.2023C11.2101 10.2628 11.1798 10.3081 11.1419 10.3611C11.1116 10.4064 11.1646 10.3384 11.1267 10.3837C11.104 10.4064 11.0888 10.4291 11.0661 10.4518C11.0509 10.4669 11.0282 10.4896 11.013 10.5047C10.9979 10.5199 10.9903 10.5274 10.9751 10.535C10.9675 10.535 10.9296 10.5728 10.9524 10.5501C10.9751 10.5274 10.9448 10.5577 10.9448 10.5577C10.9296 10.5652 10.9145 10.5804 10.8993 10.5879C10.8766 10.603 10.8538 10.6182 10.8311 10.6257C10.8083 10.6408 10.778 10.656 10.7553 10.6635C10.7477 10.6711 10.7325 10.6711 10.7174 10.6786C10.7704 10.656 10.7174 10.6786 10.7022 10.6786C10.6491 10.6938 10.5961 10.7164 10.543 10.724C10.5279 10.724 10.452 10.7391 10.4748 10.7391C10.5051 10.7391 10.4672 10.7391 10.4596 10.7391C10.4445 10.7391 10.4217 10.7391 10.4066 10.7391C10.3459 10.7391 10.2777 10.7391 10.2171 10.7316C10.2701 10.7391 10.2095 10.7316 10.1867 10.724C10.1488 10.7164 10.1185 10.7089 10.0882 10.7013C10.0579 10.6938 10.0275 10.6862 10.0048 10.6711C9.98963 10.6635 9.98205 10.6635 9.96688 10.656C9.97446 10.6635 10.0124 10.6786 9.96688 10.656C9.91382 10.6257 9.86075 10.603 9.81527 10.5728C9.79253 10.5577 9.76978 10.5425 9.75462 10.5274C9.80011 10.5577 9.73947 10.5123 9.72431 10.5047C9.67882 10.4594 9.63334 10.414 9.59544 10.3686C9.55753 10.3308 9.61058 10.3913 9.58026 10.3459C9.5651 10.3232 9.54995 10.3006 9.53479 10.2703C9.51963 10.2476 9.50446 10.2174 9.4893 10.1947C9.48172 10.1796 9.4514 10.1115 9.45898 10.1342C9.47414 10.1645 9.45897 10.1267 9.45139 10.1191C9.44381 10.104 9.43624 10.0889 9.43624 10.0737C9.42865 10.051 9.42107 10.0208 9.41349 9.99812C9.40591 9.96787 9.39832 9.93763 9.39074 9.90738C9.39074 9.89226 9.38317 9.8847 9.38317 9.86957C9.39075 9.93007 9.38317 9.86956 9.38317 9.85444C9.37559 9.79394 9.37559 9.74103 9.38317 9.68054C9.38317 9.66541 9.38316 9.64272 9.39074 9.62759C9.39074 9.63515 9.38316 9.67298 9.39074 9.64273C9.39832 9.60492 9.40591 9.57467 9.41349 9.53686C9.42865 9.48393 9.44381 9.43101 9.46655 9.37808C9.45139 9.42345 9.46657 9.37051 9.48173 9.35539C9.49689 9.32514 9.51204 9.2949 9.5272 9.26466C9.54236 9.24197 9.55753 9.21173 9.57269 9.18904C9.58027 9.18148 9.58786 9.16635 9.59544 9.15878C9.58786 9.16635 9.55753 9.19659 9.59544 9.15878C9.63334 9.11341 9.67123 9.06805 9.71672 9.03024C9.7243 9.02268 9.78495 8.96975 9.76221 8.99243C9.73947 9.00756 9.79252 8.96976 9.80768 8.9622C9.86075 8.92439 9.91383 8.89413 9.97447 8.87144C10.02 8.84876 9.94413 8.87902 9.9972 8.86389C10.0275 8.85633 10.0503 8.8412 10.0806 8.83364C10.1109 8.82607 10.1412 8.81853 10.1716 8.81097C10.1867 8.81097 10.1943 8.8034 10.2095 8.8034C10.217 8.8034 10.2701 8.79583 10.2322 8.79583C10.2019 8.79583 10.2853 8.79584 10.3004 8.78828C10.3308 8.78828 10.3611 8.78828 10.3914 8.78828C10.4217 8.78828 10.4445 8.78827 10.4748 8.79583C10.5203 8.79583 10.4293 8.78827 10.4748 8.79583C10.4899 8.79583 10.5127 8.8034 10.5278 8.8034C10.5885 8.81852 10.6491 8.83364 10.7174 8.85632C10.7704 8.87145 10.7325 8.86389 10.7174 8.85632C10.7325 8.86389 10.7477 8.87145 10.7629 8.87901C10.7932 8.89414 10.8235 8.90927 10.8538 8.92439C10.8841 8.93951 10.9069 8.96219 10.9372 8.97732C10.9372 8.97732 10.9751 9.00755 10.9448 8.98487C10.9145 8.96218 10.9751 9.00755 10.9751 9.00755C11.0206 9.04536 11.0661 9.09073 11.1116 9.14366C11.1192 9.15123 11.1267 9.16634 11.1343 9.1739C11.1116 9.14366 11.1267 9.16636 11.1419 9.18904C11.1571 9.21173 11.1722 9.23441 11.1874 9.26466C11.2025 9.2949 11.2177 9.32514 11.2329 9.35539C11.2404 9.37051 11.248 9.38562 11.2556 9.40075C11.2404 9.37806 11.248 9.37806 11.2556 9.40075C11.2783 9.4688 11.3011 9.5293 11.3087 9.59735C11.3087 9.61248 11.3163 9.62004 11.3163 9.63516C11.3238 9.68053 11.3163 9.58979 11.3163 9.63516C11.3238 9.71078 11.3238 9.74858 11.3238 9.78639ZM11.3238 9.78639C11.3238 9.93762 11.4603 10.0813 11.6119 10.0737C11.7711 10.0662 11.9075 9.94518 11.9 9.78639C11.8924 9.12854 11.4754 8.55387 10.8614 8.32702C10.2701 8.10774 9.55752 8.30434 9.16332 8.78828C8.74638 9.2949 8.67058 10.0132 9.01171 10.5803C9.35284 11.1475 10.0199 11.4348 10.6643 11.3063C11.3845 11.1702 11.8924 10.5047 11.9 9.78639C11.9 9.63516 11.7635 9.49149 11.6119 9.49905C11.4527 9.50661 11.3238 9.6276 11.3238 9.78639Z"/>
<path d="M12.5594 12.4632C12.7793 12.8035 12.9991 13.1438 13.2114 13.4916C13.5601 14.036 13.9088 14.588 14.2575 15.1324C14.3409 15.261 14.4167 15.382 14.5001 15.5105C14.5835 15.6466 14.7578 15.6996 14.9019 15.6164C15.0307 15.5408 15.0914 15.3517 15.008 15.2156C14.7881 14.8754 14.5683 14.5351 14.356 14.1873C14.0073 13.6428 13.6586 13.0908 13.3099 12.5464C13.2265 12.4179 13.1507 12.2969 13.0673 12.1683C12.9839 12.0322 12.8096 11.9793 12.6656 12.0625C12.5291 12.1381 12.476 12.3271 12.5594 12.4632Z"/>
<path d="M12.5594 12.4632C12.7793 12.8035 12.9991 13.1438 13.2114 13.4916C13.5601 14.036 13.9088 14.588 14.2575 15.1324C14.3409 15.261 14.4167 15.382 14.5001 15.5105C14.5835 15.6466 14.7578 15.6996 14.9019 15.6164C15.0307 15.5408 15.0914 15.3517 15.008 15.2156C14.7881 14.8754 14.5683 14.5351 14.356 14.1873C14.0073 13.6428 13.6586 13.0908 13.3099 12.5464C13.2265 12.4179 13.1507 12.2969 13.0673 12.1683C12.9839 12.0322 12.8096 11.9793 12.6656 12.0625C12.5291 12.1381 12.476 12.3271 12.5594 12.4632Z"/>
<path d="M12.5594 12.4632C12.7793 12.8035 12.9991 13.1438 13.2114 13.4916C13.5601 14.036 13.9088 14.588 14.2575 15.1324C14.3409 15.261 14.4167 15.382 14.5001 15.5105C14.5835 15.6466 14.7578 15.6996 14.9019 15.6164C15.0307 15.5408 15.0914 15.3517 15.008 15.2156C14.7881 14.8754 14.5683 14.5351 14.356 14.1873C14.0073 13.6428 13.6586 13.0908 13.3099 12.5464C13.2265 12.4179 13.1507 12.2969 13.0673 12.1683C12.9839 12.0322 12.8096 11.9793 12.6656 12.0625C12.5291 12.1381 12.476 12.3271 12.5594 12.4632Z"/>
<path d="M6.20014 15.503C6.41998 15.1627 6.6398 14.8224 6.85206 14.4746C7.20078 13.9302 7.54949 13.3782 7.8982 12.8338C7.98159 12.7052 8.0574 12.5842 8.14078 12.4557C8.22417 12.3196 8.17111 12.1381 8.03466 12.0549C7.89063 11.9717 7.72385 12.0247 7.63288 12.1608C7.41304 12.501 7.19321 12.8413 6.98095 13.1891C6.63224 13.7336 6.28352 14.2856 5.93481 14.83C5.85142 14.9585 5.77562 15.0795 5.69223 15.2081C5.60884 15.3442 5.6619 15.5256 5.79835 15.6088C5.94239 15.692 6.11675 15.6391 6.20014 15.503Z"/>
<path d="M6.20014 15.503C6.41998 15.1627 6.6398 14.8224 6.85206 14.4746C7.20078 13.9302 7.54949 13.3782 7.8982 12.8338C7.98159 12.7052 8.0574 12.5842 8.14078 12.4557C8.22417 12.3196 8.17111 12.1381 8.03466 12.0549C7.89063 11.9717 7.72385 12.0247 7.63288 12.1608C7.41304 12.501 7.19321 12.8413 6.98095 13.1891C6.63224 13.7336 6.28352 14.2856 5.93481 14.83C5.85142 14.9585 5.77562 15.0795 5.69223 15.2081C5.60884 15.3442 5.6619 15.5256 5.79835 15.6088C5.94239 15.692 6.11675 15.6391 6.20014 15.503Z"/>
<path d="M6.20014 15.503C6.41998 15.1627 6.6398 14.8224 6.85206 14.4746C7.20078 13.9302 7.54949 13.3782 7.8982 12.8338C7.98159 12.7052 8.0574 12.5842 8.14078 12.4557C8.22417 12.3196 8.17111 12.1381 8.03466 12.0549C7.89063 11.9717 7.72385 12.0247 7.63288 12.1608C7.41304 12.501 7.19321 12.8413 6.98095 13.1891C6.63224 13.7336 6.28352 14.2856 5.93481 14.83C5.85142 14.9585 5.77562 15.0795 5.69223 15.2081C5.60884 15.3442 5.6619 15.5256 5.79835 15.6088C5.94239 15.692 6.11675 15.6391 6.20014 15.503Z"/>
</svg>
