<svg width="24" height="24" viewBox="0 0 24 24" fill="none" xmlns="http://www.w3.org/2000/svg">
<path fill-rule="evenodd" clip-rule="evenodd" d="M4.50754 9.30744L7.53233 13.7746C7.77867 14.1382 8.18058 14.3509 8.6199 14.3509C9.05923 14.3509 9.46088 14.1384 9.70748 13.7746L12.6662 9.41062C12.7053 9.34935 12.7427 9.28745 12.7787 9.22467C12.8817 9.04525 13.0595 8.94229 13.2664 8.94229H15.4529C16.0385 8.94229 16.5033 8.94706 17.0344 9.61076L20.2493 13.6222C20.7533 14.2069 21 14.8706 21 15.6424V17.7917C21 18.3769 20.5207 18.8561 19.9355 18.8561H19.2785C19.1378 18.8561 19.0206 18.7546 19.0004 18.6157C18.8108 17.32 17.6948 16.3251 16.3465 16.3251C14.9981 16.3251 13.8822 17.3199 13.6926 18.6157C13.6724 18.7547 13.5551 18.8561 13.4145 18.8561H9.82478C9.68416 18.8561 9.56714 18.7546 9.54668 18.6157C9.35709 17.32 8.2414 16.3251 6.89279 16.3251C5.54669 16.3251 4.43211 17.3168 4.23977 18.6094C4.21729 18.7609 4.07667 18.867 3.92474 18.8468C3.40468 18.7779 3 18.3296 3 17.7916V10.0067C3 9.49091 3.37176 9.05775 3.86033 8.96181C4.16769 8.90129 4.32977 9.0448 4.50746 9.30721L4.50754 9.30744ZM6.89275 17.0156C7.99299 17.0156 8.88508 17.9074 8.88508 19.0079C8.88508 20.1081 7.99299 21 6.89275 21C5.79251 21 4.90065 20.1082 4.90065 19.0079C4.90065 17.9074 5.79248 17.0156 6.89275 17.0156ZM16.3462 17.0156C17.4465 17.0156 18.3386 17.9074 18.3386 19.0079C18.3386 20.1081 17.4465 21 16.3462 21C15.246 21 14.3541 20.1082 14.3541 19.0079C14.3541 17.9074 15.2459 17.0156 16.3462 17.0156ZM11.8643 8.90084L8.9207 13.2414C8.85126 13.3443 8.74404 13.4008 8.61973 13.4008C8.49543 13.4008 8.38858 13.3443 8.31877 13.2414L5.37522 8.90084C4.9969 8.30569 4.77756 7.5998 4.77756 6.84233C4.77756 4.72027 6.49793 3 8.61989 3C10.7419 3 12.4622 4.72014 12.4622 6.84233C12.4622 7.59967 12.2429 8.30569 11.8646 8.90084H11.8643ZM8.61978 4.74576C7.4619 4.74576 6.52311 5.68455 6.52311 6.84243C6.52311 8.0003 7.4619 8.93887 8.61978 8.93887C9.77765 8.93887 10.7164 8.00033 10.7164 6.84243C10.7164 5.68452 9.77765 4.74576 8.61978 4.74576ZM16.3462 18.0223C16.8908 18.0223 17.3317 18.4636 17.3317 19.008C17.3317 19.5522 16.8908 19.9935 16.3462 19.9935C15.802 19.9935 15.3607 19.5522 15.3607 19.008C15.3607 18.4635 15.802 18.0223 16.3462 18.0223ZM6.89275 18.0223C7.43728 18.0223 7.87825 18.4636 7.87825 19.008C7.87825 19.5522 7.43728 19.9935 6.89275 19.9935C6.34858 19.9935 5.90726 19.5522 5.90726 19.008C5.90726 18.4635 6.34858 18.0223 6.89275 18.0223ZM17.0653 11.1855L18.8022 13.2164C18.9884 13.4347 19.0286 13.7232 18.9086 13.9837C18.7888 14.2441 18.5432 14.4013 18.2563 14.4013H14.3561C13.9607 14.4013 13.638 14.0788 13.638 13.6832V11.6521C13.638 11.2567 13.9606 10.9341 14.3561 10.9341H16.5192C16.7367 10.9341 16.9239 11.0201 17.0651 11.1855L17.0653 11.1855Z"/>
</svg>
