<svg width="32" height="33" viewBox="0 0 32 33" fill="none" xmlns="http://www.w3.org/2000/svg">
<g clip-path="url(#clip0_312_16435)">
<path d="M16 17.9241C14.9029 17.9241 14.0103 18.8167 14.0103 19.9138C14.0103 21.011 14.9029 21.9035 16 21.9035C17.0971 21.9035 17.9897 21.011 17.9897 19.9138C17.9897 18.8167 17.0971 17.9241 16 17.9241ZM15.9999 20.9281C15.4406 20.9281 14.9856 20.4731 14.9856 19.9138C14.9856 19.3544 15.4406 18.8994 15.9999 18.8994C16.5593 18.8994 17.0143 19.3544 17.0143 19.9138C17.0143 20.4731 16.5593 20.9281 15.9999 20.9281Z" />
<path d="M16 20.3632C16.248 20.3632 16.4492 20.1621 16.4492 19.914C16.4492 19.666 16.248 19.4648 16 19.4648C15.7519 19.4648 15.5508 19.666 15.5508 19.914C15.5508 20.1621 15.7519 20.3632 16 20.3632Z"/>
<path d="M29.9427 7.86774C28.8312 7.86774 27.7929 7.98461 27.0337 8.19143C26.7833 8.00705 26.4847 7.91068 26.1532 7.91068C25.8217 7.91068 25.5231 8.00705 25.2727 8.19143C24.5137 7.98461 23.4753 7.86774 22.3638 7.86774C20.9503 7.86774 20.3064 8.61549 20.3064 9.31018C20.3064 10.0049 20.9502 10.7526 22.3638 10.7526C23.1289 10.7526 23.8676 10.6966 24.504 10.5923C24.511 10.6714 24.52 10.7512 24.5312 10.8318C24.5154 10.8488 24.4994 10.8657 24.4842 10.8833C24.2397 11.1661 24.0875 11.5114 24.0405 11.8744C22.9422 11.8486 21.952 11.4966 21.4939 10.9612C21.2239 10.6457 20.8232 10.4648 20.3945 10.4648H18.6017C18.5471 9.07661 17.4013 7.96399 16 7.96399C14.5986 7.96399 13.4528 9.07668 13.3982 10.4648H11.6054C11.1766 10.4648 10.776 10.6457 10.506 10.9612C10.0483 11.496 9.05964 11.8479 7.95939 11.8744C7.91233 11.5113 7.7602 11.1661 7.5157 10.8833C7.50051 10.8657 7.48458 10.8488 7.4687 10.8318C7.47983 10.7512 7.48883 10.6714 7.49583 10.5923C8.13227 10.6966 8.87108 10.7526 9.63614 10.7526C11.0496 10.7526 11.6935 10.0049 11.6935 9.31018C11.6935 8.61543 11.0497 7.86774 9.63614 7.86774C8.5247 7.86774 7.48633 7.98461 6.7272 8.19136C6.47676 8.00699 6.1782 7.91061 5.84664 7.91061C5.51507 7.91061 5.21651 8.00699 4.96607 8.19136C4.20701 7.98455 3.16863 7.86768 2.05713 7.86768C0.643751 7.86774 0 8.61549 0 9.31018C0 10.0049 0.643751 10.7526 2.05732 10.7526C2.82238 10.7526 3.56119 10.6966 4.19763 10.5923C4.20463 10.6714 4.21363 10.7512 4.22476 10.8318C4.20895 10.8488 4.19295 10.8657 4.17776 10.8833C3.81907 11.2982 3.65882 11.8473 3.73807 12.39L3.97976 14.0457C4.11401 14.9659 4.9167 15.6599 5.84676 15.6599C6.53083 15.6599 7.14564 15.2842 7.47658 14.7194C7.58808 14.7467 7.70289 14.7617 7.81877 14.7617H8.73796C8.73796 14.7617 7.84352 19.0762 7.83989 19.0939C7.71177 19.7117 8.6672 19.9079 8.79496 19.2919L9.73408 14.7617H11.0623L9.46183 22.4821L8.18833 22.2181C8.18833 22.2181 8.4092 21.1524 8.41027 21.1474C8.53633 20.5392 7.58358 20.33 7.4552 20.9494C7.4552 20.9494 7.23239 22.0241 7.23233 22.0244C7.24008 21.987 6.90539 22.1169 6.87564 22.1429C6.72033 22.2786 6.69951 22.5018 6.66014 22.6917C6.54895 23.228 6.65326 23.7755 6.95389 24.2333C7.93277 25.7241 10.3138 25.2698 10.6757 23.5243C10.7397 23.2156 10.8082 22.8206 10.4159 22.6846L12.0583 14.7619H14.4597V16.5H13.0737C12.8043 16.5 12.586 16.7184 12.586 16.9877V22.8401C12.586 23.1094 12.8043 23.3278 13.0737 23.3278H18.9262C19.1955 23.3278 19.4139 23.1094 19.4139 22.8401V16.9877C19.4139 16.7184 19.1955 16.5 18.9262 16.5H17.5402V14.7618H19.9415C19.9415 14.7618 21.5815 22.6728 21.5839 22.6844C21.5755 22.6438 21.309 22.9186 21.2921 22.9607C21.107 23.4206 21.5218 24.1654 21.8206 24.4911C23.1812 25.974 25.7522 24.6802 25.3399 22.6917C25.3056 22.5265 25.2954 22.3414 25.1841 22.2057C25.1466 22.1599 24.7581 21.9784 24.7677 22.0246L23.8716 17.7024C23.8169 17.4386 23.5589 17.2692 23.2951 17.3239C23.0314 17.3786 22.8619 17.6367 22.9166 17.9004L23.8118 22.2181L22.5383 22.4821L20.9377 14.7617H22.266L22.5228 16.0005C22.5775 16.2643 22.8356 16.4337 23.0993 16.379C23.363 16.3243 23.5325 16.0662 23.4778 15.8025L23.262 14.7617H24.1812C24.2972 14.7617 24.4119 14.7467 24.5235 14.7194C24.8545 15.2842 25.4692 15.6599 26.1532 15.6599C27.0833 15.6599 27.8859 14.9659 28.0202 14.0457L28.262 12.39C28.3412 11.8474 28.181 11.2982 27.8223 10.8833C27.8071 10.8657 27.7911 10.8488 27.7753 10.8318C27.7864 10.7512 27.7954 10.6714 27.8024 10.5923C28.4388 10.6966 29.1776 10.7526 29.9427 10.7526C31.3562 10.7526 32.0001 10.0049 32.0001 9.31018C32.0001 8.61549 31.3562 7.86774 29.9427 7.86774ZM4.35351 9.07005C4.29351 9.24105 4.25032 9.41899 4.22251 9.59805C3.60282 9.7143 2.84869 9.77724 2.05738 9.77724C1.31932 9.77724 0.975439 9.49855 0.975439 9.31024C0.975439 9.12193 1.31932 8.84324 2.05738 8.84324C2.90782 8.84324 3.72444 8.91793 4.36045 9.0493C4.35795 9.05605 4.35595 9.06324 4.35351 9.07005ZM5.16039 10.0169C5.17801 9.68936 5.22976 9.31911 5.4552 9.06043C5.55951 8.94049 5.68089 8.88618 5.8467 8.88618C6.01245 8.88618 6.13389 8.94049 6.23814 9.0603C6.46308 9.3188 6.51533 9.68674 6.53308 10.0169C6.5377 10.1033 6.53914 10.1924 6.53676 10.2838C6.39033 10.2483 6.23908 10.2307 6.08839 10.2307H5.60501C5.56532 10.2307 5.15595 10.2541 5.15664 10.2838C5.15439 10.1924 5.15576 10.1032 5.16039 10.0169ZM6.99039 12.2492C6.90983 12.8011 6.82926 13.353 6.74864 13.905C6.68451 14.3436 6.28989 14.6846 5.84676 14.6846C5.39757 14.6846 5.00982 14.3494 4.94488 13.9049L4.7032 12.2492C4.66495 11.9871 4.74238 11.7217 4.91564 11.5214C5.08607 11.3242 5.34445 11.2061 5.60514 11.2061H6.08864C6.3497 11.2061 6.60733 11.3239 6.77814 11.5214C6.95114 11.7217 7.02858 11.987 6.99039 12.2492ZM7.41089 9.30424C7.39064 9.2253 7.36714 9.14718 7.34014 9.0703C7.3377 9.06343 7.33564 9.05618 7.3332 9.04936C7.96927 8.91799 8.78589 8.8433 9.63627 8.8433C10.3743 8.8433 10.7182 9.12199 10.7182 9.3103C10.7182 9.49868 10.3743 9.7773 9.63627 9.7773C8.84495 9.7773 8.09083 9.7143 7.47114 9.59811C7.46183 9.59636 7.42545 9.36274 7.41877 9.33574C7.41614 9.32518 7.41358 9.31468 7.41089 9.30424ZM9.34408 23.9131C9.16008 24.0932 8.93221 24.1803 8.66952 24.1791C8.07852 24.1764 7.58183 23.6853 7.59252 23.0906C7.59252 23.0906 9.65971 23.5192 9.66102 23.5195C9.64508 23.6226 9.41789 23.8409 9.34408 23.9131ZM22.339 23.5194C22.3391 23.5195 24.4074 23.0906 24.4074 23.0906C24.4113 23.3048 24.351 23.515 24.2309 23.6979C23.9345 24.1496 23.325 24.312 22.844 24.0655C22.7769 24.0311 22.2828 23.5311 22.339 23.5194ZM16 8.93955C16.8634 8.93955 17.5722 9.61486 17.6257 10.4649H14.3743C14.4278 9.6148 15.1365 8.93955 16 8.93955ZM18.4385 17.4753V22.3524H13.5615V17.4753H14.9474H17.0527H18.4385ZM15.4351 16.4999V14.7617H16.565V16.4999H15.4351ZM7.75239 13.7817L7.88808 12.8522C9.30927 12.8396 10.5925 12.3605 11.2472 11.5956C11.3316 11.4969 11.4623 11.4403 11.6056 11.4403H20.3944C20.5377 11.4403 20.6684 11.4969 20.7528 11.5954C21.4075 12.3604 22.6907 12.8395 24.1119 12.8521L24.2477 13.7816C24.2266 13.7847 7.77339 13.7847 7.75239 13.7817ZM24.6595 9.06986C24.6296 9.15486 24.6049 9.2413 24.5834 9.32886C24.562 9.41593 24.5434 9.50543 24.5289 9.59805C23.9092 9.71424 23.1552 9.77724 22.3638 9.77724C21.6257 9.77724 21.2818 9.49855 21.2818 9.31024C21.2818 9.12193 21.6257 8.84324 22.3638 8.84324C23.2142 8.84324 24.0308 8.91799 24.6669 9.0493C24.6644 9.05611 24.6619 9.06299 24.6595 9.06986ZM25.4667 10.0196C25.4894 9.60074 25.6041 8.88611 26.1532 8.88611C26.6416 8.88611 26.7857 9.4793 26.8273 9.86405C26.8277 9.86818 26.8282 9.87224 26.8286 9.87643C26.8422 10.0095 26.8581 10.1557 26.8409 10.2886C26.7037 10.2366 26.5473 10.2319 26.402 10.2308C26.3997 10.2308 26.3974 10.2306 26.3951 10.2306H25.9116C25.9092 10.2306 25.9069 10.2308 25.9046 10.2308C25.755 10.2314 25.6117 10.2669 25.4655 10.2803C25.4544 10.196 25.4621 10.1047 25.4667 10.0196ZM27.2968 12.2491L27.0551 13.9048C26.9902 14.3493 26.6024 14.6846 26.1532 14.6846C25.7252 14.6846 25.3537 14.3801 25.2634 13.9668C25.263 13.9646 25.2629 13.9624 25.2624 13.9602L25.2587 13.9424C25.2561 13.9299 25.2532 13.9176 25.2513 13.9049L25.0096 12.2492C24.9713 11.9871 25.0487 11.7219 25.222 11.5214C25.3922 11.3247 25.6512 11.2061 25.9115 11.2061H26.395C26.6543 11.2061 26.9147 11.3252 27.0844 11.5214C27.2577 11.7217 27.3351 11.9871 27.2968 12.2491ZM29.9427 9.7773C29.1514 9.7773 28.3972 9.7143 27.7776 9.59811C27.7701 9.55018 27.6699 9.04311 27.6396 9.04936C28.2757 8.91799 29.0923 8.8433 29.9427 8.8433C30.6808 8.8433 31.0247 9.12199 31.0247 9.3103C31.0246 9.49855 30.6807 9.7773 29.9427 9.7773Z"/>
</g>
<defs>
<clipPath id="clip0_312_16435">
<rect width="32" height="32" transform="translate(0 0.5)"/>
</clipPath>
</defs>
</svg>
