<svg width="10" height="10" viewBox="0 0 10 10" fill="none" xmlns="http://www.w3.org/2000/svg">
<path fill-rule="evenodd" clip-rule="evenodd" d="M0 1.66667C0 2.58714 0.746192 3.33333 1.66667 3.33333C2.58714 3.33333 3.33333 2.58714 3.33333 1.66667C3.33333 0.746192 2.58714 0 1.66667 0C0.746192 0 0 0.746192 0 1.66667ZM6.66667 1.66667C6.66667 2.58714 7.41286 3.33333 8.33333 3.33333C9.25381 3.33333 10 2.58714 10 1.66667C10 0.746192 9.25381 0 8.33333 0C7.41286 0 6.66667 0.746192 6.66667 1.66667ZM8.33333 10C7.41286 10 6.66667 9.25381 6.66667 8.33333C6.66667 7.41286 7.41286 6.66667 8.33333 6.66667C9.25381 6.66667 10 7.41286 10 8.33333C10 9.25381 9.25381 10 8.33333 10ZM0 8.33333C0 9.25381 0.746192 10 1.66667 10C2.58714 10 3.33333 9.25381 3.33333 8.33333C3.33333 7.41286 2.58714 6.66667 1.66667 6.66667C0.746192 6.66667 0 7.41286 0 8.33333Z" fill="white"/>
</svg>
