<svg width="40" height="40" viewBox="0 0 40 40" fill="none" xmlns="http://www.w3.org/2000/svg">
<g>
<path d="M30.9943 32.4732H26.4003C26.527 32.2098 26.5982 31.9147 26.5982 31.6033C26.5982 30.4937 25.6954 29.5909 24.5857 29.5909H22.2142C21.6427 29.5909 21.0827 29.4864 20.5496 29.2803L18.7354 28.5786C18.0705 28.3214 17.3718 28.191 16.6587 28.191H13.023V28.0603C13.023 27.3253 12.425 26.7273 11.69 26.7273H4.10303C3.57797 26.7273 3.15088 27.1544 3.15088 27.6794V29.9203C3.15088 30.2359 3.40659 30.4916 3.72217 30.4916C4.03775 30.4916 4.29346 30.2359 4.29346 29.9203V27.8699H11.69C11.795 27.8699 11.8804 27.9553 11.8804 28.0604V37.667C11.8804 37.772 11.795 37.8574 11.69 37.8574H4.29346V32.8636C4.29346 32.548 4.03775 32.2923 3.72217 32.2923C3.40659 32.2923 3.15088 32.548 3.15088 32.8636V38.0479C3.15088 38.5729 3.57797 39 4.10303 39H11.69C12.425 39 13.023 38.402 13.023 37.667V36.683H30.9943C32.1548 36.683 33.0991 35.7388 33.0991 34.5782C33.0991 33.4175 32.1548 32.4732 30.9943 32.4732ZM30.9943 35.5404H13.023V29.3337H16.6587C17.2303 29.3337 17.7903 29.4382 18.3233 29.6443L20.1375 30.346C20.8024 30.6031 21.5011 30.7335 22.2142 30.7335H24.5857C25.0654 30.7335 25.4556 31.1238 25.4556 31.6034C25.4556 32.0831 25.0654 32.4733 24.5857 32.4733H21.2463C20.9308 32.4733 20.6751 32.729 20.6751 33.0446C20.6751 33.3602 20.9308 33.6159 21.2463 33.6159H30.9943C31.5249 33.6159 31.9566 34.0476 31.9566 34.5782C31.9566 35.1088 31.5248 35.5404 30.9943 35.5404Z" fill="#175CFF"/>
<path d="M22.6509 11.0191C23.0589 11.0191 23.3909 11.3511 23.3909 11.7591C23.3909 12.0747 23.6466 12.3304 23.9622 12.3304C24.2778 12.3304 24.5335 12.0747 24.5335 11.7591C24.5335 10.9202 23.9818 10.2079 23.2222 9.96544V9.27197C23.2222 8.95639 22.9665 8.70068 22.6509 8.70068C22.3353 8.70068 22.0796 8.95639 22.0796 9.27197V9.96544C21.32 10.2079 20.7683 10.9202 20.7683 11.7591C20.7683 12.7972 21.6128 13.6417 22.6509 13.6417C22.665 13.6417 22.6789 13.6412 22.6926 13.6402C23.0813 13.6618 23.3909 13.985 23.3909 14.379C23.3909 14.787 23.059 15.119 22.6509 15.119C22.2428 15.119 21.9109 14.787 21.9109 14.379C21.9109 14.0634 21.6552 13.8077 21.3396 13.8077C21.024 13.8077 20.7683 14.0634 20.7683 14.379C20.7683 15.218 21.32 15.9302 22.0796 16.1727V16.8662C22.0796 17.1817 22.3353 17.4375 22.6509 17.4375C22.9665 17.4375 23.2222 17.1817 23.2222 16.8662V16.1727C23.9818 15.9302 24.5335 15.218 24.5335 14.379C24.5335 13.3409 23.689 12.4964 22.6509 12.4964C22.6368 12.4964 22.6229 12.4969 22.6092 12.4979C22.2205 12.4763 21.9109 12.1532 21.9109 11.7591C21.9109 11.3512 22.2429 11.0191 22.6509 11.0191Z" fill="#175CFF"/>
<path d="M25.9079 8.26755C26.0586 7.99043 25.9562 7.64355 25.679 7.49273C24.7555 6.99022 23.7083 6.72461 22.6508 6.72461C19.1525 6.72461 16.3064 9.5707 16.3064 13.069C16.3064 16.5672 19.1525 19.4133 22.6508 19.4133C26.149 19.4133 28.9951 16.5672 28.9951 13.069C28.9951 11.7456 28.5915 10.4773 27.8281 9.40137C27.6456 9.14406 27.289 9.0835 27.0316 9.26608C26.7742 9.44867 26.7137 9.80523 26.8963 10.0625C27.5219 10.9442 27.8526 11.9839 27.8526 13.069C27.8526 15.9373 25.5191 18.2708 22.6508 18.2708C19.7826 18.2708 17.4491 15.9373 17.4491 13.069C17.4491 10.2008 19.7826 7.86726 22.6508 7.86726C23.5182 7.86726 24.3765 8.08481 25.1331 8.49644C25.4103 8.64734 25.7571 8.54481 25.9079 8.26755Z" fill="#175CFF"/>
<path d="M10.9993 8.49987C11.0756 8.5343 11.1554 8.5506 11.234 8.5506C11.4516 8.5506 11.6597 8.42545 11.755 8.21415C13.6971 3.9112 17.9884 1.14258 22.704 1.14258C22.7307 1.14258 22.7576 1.14265 22.7842 1.14288C25.5256 1.16109 28.0954 2.06769 30.2156 3.76457C30.4618 3.96193 30.8214 3.92186 31.0186 3.67552C31.2157 3.42918 31.1758 3.06965 30.9295 2.87252C28.6067 1.01347 25.7927 0.0202617 22.7918 0.000304688C22.7622 0.000152344 22.7334 0 22.704 0C17.5403 0 12.8402 3.03225 10.7136 7.74417C10.5837 8.03171 10.7117 8.37007 10.9993 8.49987Z" fill="#175CFF"/>
<path d="M13.3042 21.0691C14.0708 21.0691 14.7506 20.6695 15.1227 20C15.4961 19.328 15.4763 18.5362 15.0696 17.8821C14.2219 16.5191 13.7563 14.9472 13.7229 13.3362C13.6734 10.9387 14.5838 8.65419 16.2865 6.90376C17.9876 5.15493 20.2431 4.18252 22.6377 4.16576C25.0479 4.1506 27.3198 5.07487 29.0306 6.77358C30.7414 8.47244 31.6837 10.7359 31.6837 13.1468C31.6837 17.9306 28.0116 21.8162 23.2737 22.1103V21.5844C23.2737 21.2402 23.08 20.9361 22.7681 20.7907C22.4562 20.6452 22.0987 20.6921 21.8349 20.9132L18.7715 23.4813C18.5551 23.6627 18.431 23.9286 18.431 24.2109C18.431 24.4932 18.5551 24.7591 18.7715 24.9406L21.8349 27.5086C21.9971 27.6447 22.1948 27.7148 22.3955 27.7148C22.5211 27.7148 22.648 27.6873 22.7681 27.6312C23.08 27.4858 23.2737 27.1816 23.2737 26.8375V26.2815C26.6063 26.1391 29.7215 24.7564 32.0708 22.3702C34.4846 19.9188 35.8264 16.6745 35.849 13.2349C35.8692 10.1713 34.8238 7.18696 32.9053 4.8315C32.7062 4.58699 32.3464 4.55005 32.1015 4.74931C31.8569 4.94858 31.8202 5.30841 32.0193 5.55308C33.7705 7.70326 34.7249 10.4287 34.7064 13.2275C34.6634 19.7613 29.5146 24.9974 22.9844 25.1478C22.5139 25.1587 22.131 25.5512 22.131 26.0227V26.2659L19.6796 24.2108L22.131 22.1558V22.3903C22.131 22.626 22.2281 22.8552 22.3975 23.0191C22.567 23.1832 22.8002 23.2728 23.0353 23.2652C25.6691 23.1801 28.1318 22.0896 29.9697 20.195C31.8118 18.2959 32.8262 15.7929 32.8262 13.1467C32.8262 10.4291 31.7641 7.87769 29.8355 5.96273C27.9072 4.04785 25.3459 3.00155 22.6296 3.02303C19.9269 3.042 17.3833 4.13727 15.4674 6.10692C13.5499 8.07833 12.5246 10.6541 12.5806 13.3597C12.6181 15.1757 13.1433 16.9482 14.0992 18.4854C14.2837 18.782 14.2929 19.1407 14.1239 19.4448C13.9563 19.7464 13.6498 19.9264 13.3041 19.9264C12.9769 19.9264 12.6788 19.7616 12.5069 19.4856C11.3234 17.5866 10.6979 15.3946 10.6979 13.1467C10.6979 12.3283 10.7806 11.5109 10.9439 10.7171C11.0074 10.408 10.8084 10.106 10.4993 10.0425C10.1905 9.97943 9.88822 10.178 9.82469 10.4871C9.64599 11.3564 9.55542 12.2512 9.55542 13.1467C9.55542 15.6085 10.2407 18.0094 11.5373 20.0899C11.9193 20.7031 12.5798 21.0691 13.3042 21.0691Z" fill="#175CFF"/>
</g>
<defs>
<clipPath>
<rect width="40" height="40" fill="white"/>
</clipPath>
</defs>
</svg>
