<svg width="20" height="20" viewBox="0 0 20 20" fill="none" xmlns="http://www.w3.org/2000/svg">
<path d="M15.0271 13.8475L18.5963 17.4158L17.4171 18.595L13.8488 15.0258C12.5211 16.0901 10.8696 16.669 9.16797 16.6666C5.02797 16.6666 1.66797 13.3066 1.66797 9.16663C1.66797 5.02663 5.02797 1.66663 9.16797 1.66663C13.308 1.66663 16.668 5.02663 16.668 9.16663C16.6704 10.8683 16.0915 12.5197 15.0271 13.8475ZM13.3555 13.2291C14.4131 12.1415 15.0037 10.6837 15.0013 9.16663C15.0013 5.94329 12.3905 3.33329 9.16797 3.33329C5.94464 3.33329 3.33464 5.94329 3.33464 9.16663C3.33464 12.3891 5.94464 15 9.16797 15C10.685 15.0023 12.1429 14.4117 13.2305 13.3541L13.3555 13.2291Z" fill="#BABABA"/>
</svg>
