<svg width="23" height="20" viewBox="0 0 23 20" fill="none" xmlns="http://www.w3.org/2000/svg">
<path d="M11.5009 1.65429C14.2022 -0.627558 18.3767 -0.551821 20.9791 1.90098C23.5803 4.35486 23.67 8.2629 21.2505 10.812L11.4986 20L1.74912 10.812C-0.670431 8.2629 -0.579582 4.34837 2.02052 1.90098C4.62522 -0.548575 8.79159 -0.630804 11.5009 1.65429ZM19.3507 3.42979C17.6257 1.80469 14.8428 1.73869 13.0373 3.26425L11.5021 4.56044L9.96572 3.26533C8.1545 1.73761 5.37731 1.80469 3.64774 3.43195C1.93427 5.04407 1.84802 7.62455 3.42694 9.32971L11.4998 16.937L19.5726 9.3308C21.1527 7.62455 21.0665 5.04732 19.3507 3.42979Z" fill="#97A2AC"/>
</svg>
