<svg width="17" height="17" viewBox="0 0 17 17" fill="none" xmlns="http://www.w3.org/2000/svg">
<path d="M12.2574 5.8028C12.5168 6.0622 12.5168 6.48269 12.2574 6.74196L7.80247 11.197C7.54308 11.4563 7.12272 11.4563 6.86332 11.197L4.7426 9.07616C4.4832 8.81689 4.4832 8.39641 4.7426 8.13714C5.00187 7.87774 5.42236 7.87774 5.68163 8.13714L7.33283 9.78835L11.3182 5.8028C11.5776 5.54353 11.9981 5.54353 12.2574 5.8028ZM17 8.49991C17 13.1983 13.1977 16.9999 8.5 16.9999C3.80163 16.9999 0 13.1976 0 8.49991C0 3.80154 3.80228 -9.15527e-05 8.5 -9.15527e-05C13.1984 -9.15527e-05 17 3.80219 17 8.49991ZM15.6719 8.49991C15.6719 4.53564 12.4638 1.32803 8.5 1.32803C4.53573 1.32803 1.32812 4.53616 1.32812 8.49991C1.32812 12.4642 4.53625 15.6718 8.5 15.6718C12.4643 15.6718 15.6719 12.4637 15.6719 8.49991Z" fill="#51BE70"/>
</svg>
