<svg width="20" height="20" viewBox="0 0 20 20" fill="none" xmlns="http://www.w3.org/2000/svg">
<path d="M17.6567 14.864C17.5506 14.864 17.4444 14.864 17.3383 14.864C17.0502 14.864 16.7622 14.864 16.4665 14.864C16.0268 14.864 15.5947 14.864 15.1551 14.864C14.6092 14.864 14.0634 14.864 13.5176 14.864C12.896 14.864 12.2744 14.864 11.6528 14.864C11.0008 14.864 10.3489 14.864 9.69695 14.864C9.04501 14.864 8.40066 14.864 7.74872 14.864C7.14226 14.864 6.5358 14.864 5.92177 14.864C5.39112 14.864 4.86047 14.864 4.3374 14.864C3.92805 14.864 3.5111 14.864 3.10175 14.864C2.844 14.864 2.58626 14.864 2.32852 14.864C2.26787 14.864 2.20723 14.864 2.14658 14.864C2.139 14.864 2.12384 14.864 2.11626 14.864C2.09351 14.864 2.07077 14.864 2.04803 14.864C2.01771 14.864 2.05561 14.864 2.06319 14.864C2.04803 14.864 2.02529 14.8564 2.01013 14.8564C1.98739 14.8488 1.95706 14.8413 1.93432 14.8337C1.88126 14.8186 1.95706 14.8488 1.91158 14.8262C1.88884 14.811 1.86609 14.8035 1.84335 14.7884C1.83577 14.7808 1.82061 14.7732 1.81303 14.7657C1.80545 14.7657 1.76754 14.7279 1.79029 14.7505C1.81303 14.7657 1.75996 14.7279 1.75238 14.7127C1.73722 14.6976 1.71448 14.6749 1.69932 14.6598C1.67657 14.6371 1.69932 14.6674 1.7069 14.6674C1.69932 14.6522 1.68416 14.6371 1.67658 14.6296C1.66141 14.6069 1.64625 14.5766 1.63109 14.5539C1.62351 14.5464 1.62351 14.5313 1.61593 14.5161C1.61593 14.5237 1.63109 14.5615 1.62351 14.5237C1.61593 14.501 1.60835 14.4783 1.60077 14.4481C1.60077 14.433 1.58561 14.3649 1.59319 14.3952C1.60077 14.433 1.59319 14.3876 1.59319 14.38C1.59319 14.3649 1.59319 14.3422 1.59319 14.3271C1.59319 14.3195 1.59319 14.3044 1.59319 14.2969C1.59319 14.2212 1.59319 14.1381 1.59319 14.0625C1.59319 13.7146 1.59319 13.3668 1.59319 13.019C1.59319 12.4821 1.59319 11.9452 1.59319 11.4084C1.59319 10.7732 1.59319 10.138 1.59319 9.50288C1.59319 8.85259 1.59319 8.20986 1.59319 7.55958C1.59319 6.9849 1.59319 6.41023 1.59319 5.84312C1.59319 5.42724 1.59319 5.01892 1.59319 4.60303C1.59319 4.43668 1.59319 4.27033 1.59319 4.09642C1.59319 4.08885 1.59319 4.08129 1.59319 4.06617C1.59319 4.04349 1.60077 3.99055 1.59319 4.03592C1.60077 4.00568 1.60835 3.97543 1.61593 3.94519C1.62351 3.93006 1.64625 3.85445 1.62351 3.90738C1.63109 3.88469 1.64625 3.86201 1.65383 3.83932C1.669 3.81664 1.67658 3.79396 1.69174 3.77883C1.69174 3.77883 1.72206 3.74103 1.69932 3.77127C1.67657 3.79396 1.71448 3.75615 1.71448 3.75615C1.72964 3.74103 1.75238 3.71834 1.76754 3.70322C1.77513 3.69566 1.78271 3.6881 1.79787 3.68053C1.79787 3.68053 1.75996 3.70322 1.79029 3.6881C1.83577 3.65785 1.88126 3.6276 1.93432 3.60492C1.88884 3.6276 1.9419 3.60492 1.95706 3.59736C1.9798 3.5898 2.01013 3.58223 2.03287 3.58223C2.08593 3.56711 2.00255 3.58223 2.06319 3.58223C2.07836 3.58223 2.10109 3.58223 2.11626 3.58223C2.14658 3.58223 2.1769 3.58223 2.19965 3.58223C2.40432 3.58223 2.609 3.58223 2.81368 3.58223C3.18513 3.58223 3.55659 3.58223 3.92804 3.58223C4.42837 3.58223 4.92112 3.58223 5.42144 3.58223C6.01274 3.58223 6.60403 3.58223 7.19532 3.58223C7.83968 3.58223 8.47646 3.58223 9.12082 3.58223C9.77276 3.58223 10.4323 3.58223 11.0842 3.58223C11.7134 3.58223 12.3502 3.58223 12.9794 3.58223C13.548 3.58223 14.1241 3.58223 14.6926 3.58223C15.1702 3.58223 15.6402 3.58223 16.1178 3.58223C16.4589 3.58223 16.7925 3.58223 17.1336 3.58223C17.3004 3.58223 17.4596 3.58223 17.6264 3.58223C17.6339 3.58223 17.6491 3.58223 17.6567 3.58223C17.6643 3.58223 17.6719 3.58223 17.687 3.58223C17.7098 3.58223 17.7628 3.5898 17.7173 3.58223C17.7477 3.5898 17.778 3.59736 17.8083 3.60492C17.8159 3.60492 17.8841 3.6276 17.8614 3.62004C17.8386 3.61248 17.9069 3.64273 17.9144 3.65029C17.9372 3.66541 17.9599 3.67297 17.9751 3.6881C17.9751 3.6881 18.013 3.71834 17.9827 3.69566C17.9599 3.67297 17.9978 3.71078 17.9978 3.71078C18.013 3.7259 18.0357 3.74859 18.0509 3.76371C18.0585 3.77127 18.066 3.77883 18.0736 3.79396C18.0736 3.79396 18.0509 3.75615 18.066 3.78639C18.0964 3.83176 18.1267 3.87713 18.1494 3.93006C18.1267 3.88469 18.1494 3.93762 18.157 3.95275C18.1646 3.97543 18.1722 4.00568 18.1722 4.02836C18.1873 4.08129 18.1722 3.99812 18.1722 4.05861C18.1722 4.07373 18.1722 4.09642 18.1722 4.11154C18.1722 4.12666 18.1722 4.13422 18.1722 4.14935C18.1722 4.37619 18.1722 4.60303 18.1722 4.83744C18.1722 5.29869 18.1722 5.75238 18.1722 6.21363C18.1722 6.81099 18.1722 7.40835 18.1722 8.0057C18.1722 8.65599 18.1722 9.30628 18.1722 9.95657C18.1722 10.5766 18.1722 11.1967 18.1722 11.8167C18.1722 12.3158 18.1722 12.8224 18.1722 13.3214C18.1722 13.6163 18.1722 13.9188 18.1722 14.2137C18.1722 14.2591 18.1722 14.3044 18.1722 14.3498C18.1722 14.3574 18.1722 14.3649 18.1722 14.38C18.1722 14.4027 18.1646 14.4557 18.1722 14.4103C18.1646 14.433 18.1646 14.4632 18.157 14.4859C18.1494 14.5086 18.1419 14.5313 18.1343 14.5615C18.1494 14.5161 18.1343 14.5691 18.1191 14.5842C18.1039 14.6069 18.0964 14.6296 18.0812 14.6522C18.0736 14.6674 18.0357 14.7127 18.066 14.6749C18.0357 14.7127 17.9978 14.7505 17.9599 14.7808C17.9978 14.743 17.9448 14.7884 17.9296 14.8035C17.9069 14.8186 17.8841 14.8262 17.8614 14.8413C17.8538 14.8488 17.8386 14.8488 17.8235 14.8564C17.8311 14.8564 17.869 14.8413 17.831 14.8488C17.8083 14.8564 17.7856 14.864 17.7552 14.8715C17.7401 14.8715 17.6718 14.8867 17.7022 14.8791C17.7552 14.8564 17.6719 14.864 17.6567 14.864C17.5051 14.864 17.361 14.9925 17.3686 15.1513C17.3762 15.3101 17.4975 15.4462 17.6567 15.4386C18.2101 15.4311 18.6801 15.0303 18.7483 14.4783C18.7559 14.3952 18.7635 14.312 18.7635 14.2288C18.7635 13.9415 18.7635 13.6617 18.7635 13.3744C18.7635 12.8753 18.7635 12.3762 18.7635 11.8847C18.7635 11.2571 18.7635 10.6371 18.7635 10.0095C18.7635 9.35165 18.7635 8.6938 18.7635 8.03595C18.7635 7.43103 18.7635 6.81855 18.7635 6.21363C18.7635 5.75238 18.7635 5.29113 18.7635 4.82988C18.7635 4.59547 18.7635 4.36863 18.7635 4.13422C18.7635 3.50662 18.2783 3 17.6415 3C17.4975 3 17.3459 3 17.2018 3C16.8683 3 16.5423 3 16.2088 3C15.7388 3 15.2688 3 14.7988 3C14.2226 3 13.6465 3 13.0704 3C12.4336 3 11.7968 3 11.16 3C10.4929 3 9.83341 3 9.16631 3C8.52195 3 7.87001 3 7.22565 3C6.62677 3 6.0279 3 5.42902 3C4.9287 3 4.42079 3 3.92047 3C3.54901 3 3.17755 3 2.79852 3C2.59384 3 2.38916 3 2.18448 3C2.139 3 2.09351 3 2.05561 3C1.49464 3.03781 1.05496 3.46881 1.00947 4.0208C0.994314 4.19471 1.0019 4.37619 1.0019 4.5501C1.0019 4.95842 1.0019 5.35918 1.0019 5.7675C1.0019 6.34218 1.0019 6.91685 1.0019 7.49908C1.0019 8.14937 1.0019 8.79966 1.0019 9.45751C1.0019 10.1002 1.0019 10.743 1.0019 11.3932C1.0019 11.9377 1.0019 12.4745 1.0019 13.019C1.0019 13.3744 1.0019 13.7222 1.0019 14.0776C1.0019 14.1532 1.0019 14.2364 1.0019 14.312C1.0019 14.6069 1.10045 14.8867 1.30512 15.1059C1.51738 15.3328 1.81303 15.4462 2.12384 15.4462C2.1769 15.4462 2.22239 15.4462 2.27545 15.4462C2.52562 15.4462 2.7682 15.4462 3.01836 15.4462C3.42772 15.4462 3.82949 15.4462 4.23885 15.4462C4.7695 15.4462 5.30015 15.4462 5.8308 15.4462C6.44483 15.4462 7.0513 15.4462 7.66533 15.4462C8.32485 15.4462 8.98437 15.4462 9.63631 15.4462C10.2958 15.4462 10.9554 15.4462 11.6149 15.4462C12.2441 15.4462 12.8657 15.4462 13.4949 15.4462C14.0483 15.4462 14.6017 15.4462 15.1626 15.4462C15.6023 15.4462 16.042 15.4462 16.4817 15.4462C16.7697 15.4462 17.0654 15.4462 17.3535 15.4462C17.452 15.4462 17.5506 15.4462 17.6567 15.4462C17.8083 15.4462 17.9523 15.3101 17.9448 15.1589C17.9448 15.0001 17.8235 14.864 17.6567 14.864Z"/>
<path d="M17.6567 14.864C17.5506 14.864 17.4444 14.864 17.3383 14.864C17.0502 14.864 16.7622 14.864 16.4665 14.864C16.0268 14.864 15.5947 14.864 15.1551 14.864C14.6092 14.864 14.0634 14.864 13.5176 14.864C12.896 14.864 12.2744 14.864 11.6528 14.864C11.0008 14.864 10.3489 14.864 9.69695 14.864C9.04501 14.864 8.40066 14.864 7.74872 14.864C7.14226 14.864 6.5358 14.864 5.92177 14.864C5.39112 14.864 4.86047 14.864 4.3374 14.864C3.92805 14.864 3.5111 14.864 3.10175 14.864C2.844 14.864 2.58626 14.864 2.32852 14.864C2.26787 14.864 2.20723 14.864 2.14658 14.864C2.139 14.864 2.12384 14.864 2.11626 14.864C2.09351 14.864 2.07077 14.864 2.04803 14.864C2.01771 14.864 2.05561 14.864 2.06319 14.864C2.04803 14.864 2.02529 14.8564 2.01013 14.8564C1.98739 14.8488 1.95706 14.8413 1.93432 14.8337C1.88126 14.8186 1.95706 14.8488 1.91158 14.8262C1.88884 14.811 1.86609 14.8035 1.84335 14.7884C1.83577 14.7808 1.82061 14.7732 1.81303 14.7657C1.80545 14.7657 1.76754 14.7279 1.79029 14.7505C1.81303 14.7657 1.75996 14.7279 1.75238 14.7127C1.73722 14.6976 1.71448 14.6749 1.69932 14.6598C1.67657 14.6371 1.69932 14.6674 1.7069 14.6674C1.69932 14.6522 1.68416 14.6371 1.67658 14.6296C1.66141 14.6069 1.64625 14.5766 1.63109 14.5539C1.62351 14.5464 1.62351 14.5313 1.61593 14.5161C1.61593 14.5237 1.63109 14.5615 1.62351 14.5237C1.61593 14.501 1.60835 14.4783 1.60077 14.4481C1.60077 14.433 1.58561 14.3649 1.59319 14.3952C1.60077 14.433 1.59319 14.3876 1.59319 14.38C1.59319 14.3649 1.59319 14.3422 1.59319 14.3271C1.59319 14.3195 1.59319 14.3044 1.59319 14.2969C1.59319 14.2212 1.59319 14.1381 1.59319 14.0625C1.59319 13.7146 1.59319 13.3668 1.59319 13.019C1.59319 12.4821 1.59319 11.9452 1.59319 11.4084C1.59319 10.7732 1.59319 10.138 1.59319 9.50288C1.59319 8.85259 1.59319 8.20986 1.59319 7.55958C1.59319 6.9849 1.59319 6.41023 1.59319 5.84312C1.59319 5.42724 1.59319 5.01892 1.59319 4.60303C1.59319 4.43668 1.59319 4.27033 1.59319 4.09642C1.59319 4.08885 1.59319 4.08129 1.59319 4.06617C1.59319 4.04349 1.60077 3.99055 1.59319 4.03592C1.60077 4.00568 1.60835 3.97543 1.61593 3.94519C1.62351 3.93006 1.64625 3.85445 1.62351 3.90738C1.63109 3.88469 1.64625 3.86201 1.65383 3.83932C1.669 3.81664 1.67658 3.79396 1.69174 3.77883C1.69174 3.77883 1.72206 3.74103 1.69932 3.77127C1.67657 3.79396 1.71448 3.75615 1.71448 3.75615C1.72964 3.74103 1.75238 3.71834 1.76754 3.70322C1.77513 3.69566 1.78271 3.6881 1.79787 3.68053C1.79787 3.68053 1.75996 3.70322 1.79029 3.6881C1.83577 3.65785 1.88126 3.6276 1.93432 3.60492C1.88884 3.6276 1.9419 3.60492 1.95706 3.59736C1.9798 3.5898 2.01013 3.58223 2.03287 3.58223C2.08593 3.56711 2.00255 3.58223 2.06319 3.58223C2.07836 3.58223 2.10109 3.58223 2.11626 3.58223C2.14658 3.58223 2.1769 3.58223 2.19965 3.58223C2.40432 3.58223 2.609 3.58223 2.81368 3.58223C3.18513 3.58223 3.55659 3.58223 3.92804 3.58223C4.42837 3.58223 4.92112 3.58223 5.42144 3.58223C6.01274 3.58223 6.60403 3.58223 7.19532 3.58223C7.83968 3.58223 8.47646 3.58223 9.12082 3.58223C9.77276 3.58223 10.4323 3.58223 11.0842 3.58223C11.7134 3.58223 12.3502 3.58223 12.9794 3.58223C13.548 3.58223 14.1241 3.58223 14.6926 3.58223C15.1702 3.58223 15.6402 3.58223 16.1178 3.58223C16.4589 3.58223 16.7925 3.58223 17.1336 3.58223C17.3004 3.58223 17.4596 3.58223 17.6264 3.58223C17.6339 3.58223 17.6491 3.58223 17.6567 3.58223C17.6643 3.58223 17.6719 3.58223 17.687 3.58223C17.7098 3.58223 17.7628 3.5898 17.7173 3.58223C17.7477 3.5898 17.778 3.59736 17.8083 3.60492C17.8159 3.60492 17.8841 3.6276 17.8614 3.62004C17.8386 3.61248 17.9069 3.64273 17.9144 3.65029C17.9372 3.66541 17.9599 3.67297 17.9751 3.6881C17.9751 3.6881 18.013 3.71834 17.9827 3.69566C17.9599 3.67297 17.9978 3.71078 17.9978 3.71078C18.013 3.7259 18.0357 3.74859 18.0509 3.76371C18.0585 3.77127 18.066 3.77883 18.0736 3.79396C18.0736 3.79396 18.0509 3.75615 18.066 3.78639C18.0964 3.83176 18.1267 3.87713 18.1494 3.93006C18.1267 3.88469 18.1494 3.93762 18.157 3.95275C18.1646 3.97543 18.1722 4.00568 18.1722 4.02836C18.1873 4.08129 18.1722 3.99812 18.1722 4.05861C18.1722 4.07373 18.1722 4.09642 18.1722 4.11154C18.1722 4.12666 18.1722 4.13422 18.1722 4.14935C18.1722 4.37619 18.1722 4.60303 18.1722 4.83744C18.1722 5.29869 18.1722 5.75238 18.1722 6.21363C18.1722 6.81099 18.1722 7.40835 18.1722 8.0057C18.1722 8.65599 18.1722 9.30628 18.1722 9.95657C18.1722 10.5766 18.1722 11.1967 18.1722 11.8167C18.1722 12.3158 18.1722 12.8224 18.1722 13.3214C18.1722 13.6163 18.1722 13.9188 18.1722 14.2137C18.1722 14.2591 18.1722 14.3044 18.1722 14.3498C18.1722 14.3574 18.1722 14.3649 18.1722 14.38C18.1722 14.4027 18.1646 14.4557 18.1722 14.4103C18.1646 14.433 18.1646 14.4632 18.157 14.4859C18.1494 14.5086 18.1419 14.5313 18.1343 14.5615C18.1494 14.5161 18.1343 14.5691 18.1191 14.5842C18.1039 14.6069 18.0964 14.6296 18.0812 14.6522C18.0736 14.6674 18.0357 14.7127 18.066 14.6749C18.0357 14.7127 17.9978 14.7505 17.9599 14.7808C17.9978 14.743 17.9448 14.7884 17.9296 14.8035C17.9069 14.8186 17.8841 14.8262 17.8614 14.8413C17.8538 14.8488 17.8386 14.8488 17.8235 14.8564C17.8311 14.8564 17.869 14.8413 17.831 14.8488C17.8083 14.8564 17.7856 14.864 17.7552 14.8715C17.7401 14.8715 17.6718 14.8867 17.7022 14.8791C17.7552 14.8564 17.6719 14.864 17.6567 14.864C17.5051 14.864 17.361 14.9925 17.3686 15.1513C17.3762 15.3101 17.4975 15.4462 17.6567 15.4386C18.2101 15.4311 18.6801 15.0303 18.7483 14.4783C18.7559 14.3952 18.7635 14.312 18.7635 14.2288C18.7635 13.9415 18.7635 13.6617 18.7635 13.3744C18.7635 12.8753 18.7635 12.3762 18.7635 11.8847C18.7635 11.2571 18.7635 10.6371 18.7635 10.0095C18.7635 9.35165 18.7635 8.6938 18.7635 8.03595C18.7635 7.43103 18.7635 6.81855 18.7635 6.21363C18.7635 5.75238 18.7635 5.29113 18.7635 4.82988C18.7635 4.59547 18.7635 4.36863 18.7635 4.13422C18.7635 3.50662 18.2783 3 17.6415 3C17.4975 3 17.3459 3 17.2018 3C16.8683 3 16.5423 3 16.2088 3C15.7388 3 15.2688 3 14.7988 3C14.2226 3 13.6465 3 13.0704 3C12.4336 3 11.7968 3 11.16 3C10.4929 3 9.83341 3 9.16631 3C8.52195 3 7.87001 3 7.22565 3C6.62677 3 6.0279 3 5.42902 3C4.9287 3 4.42079 3 3.92047 3C3.54901 3 3.17755 3 2.79852 3C2.59384 3 2.38916 3 2.18448 3C2.139 3 2.09351 3 2.05561 3C1.49464 3.03781 1.05496 3.46881 1.00947 4.0208C0.994314 4.19471 1.0019 4.37619 1.0019 4.5501C1.0019 4.95842 1.0019 5.35918 1.0019 5.7675C1.0019 6.34218 1.0019 6.91685 1.0019 7.49908C1.0019 8.14937 1.0019 8.79966 1.0019 9.45751C1.0019 10.1002 1.0019 10.743 1.0019 11.3932C1.0019 11.9377 1.0019 12.4745 1.0019 13.019C1.0019 13.3744 1.0019 13.7222 1.0019 14.0776C1.0019 14.1532 1.0019 14.2364 1.0019 14.312C1.0019 14.6069 1.10045 14.8867 1.30512 15.1059C1.51738 15.3328 1.81303 15.4462 2.12384 15.4462C2.1769 15.4462 2.22239 15.4462 2.27545 15.4462C2.52562 15.4462 2.7682 15.4462 3.01836 15.4462C3.42772 15.4462 3.82949 15.4462 4.23885 15.4462C4.7695 15.4462 5.30015 15.4462 5.8308 15.4462C6.44483 15.4462 7.0513 15.4462 7.66533 15.4462C8.32485 15.4462 8.98437 15.4462 9.63631 15.4462C10.2958 15.4462 10.9554 15.4462 11.6149 15.4462C12.2441 15.4462 12.8657 15.4462 13.4949 15.4462C14.0483 15.4462 14.6017 15.4462 15.1626 15.4462C15.6023 15.4462 16.042 15.4462 16.4817 15.4462C16.7697 15.4462 17.0654 15.4462 17.3535 15.4462C17.452 15.4462 17.5506 15.4462 17.6567 15.4462C17.8083 15.4462 17.9523 15.3101 17.9448 15.1589C17.9448 15.0001 17.8235 14.864 17.6567 14.864Z"/>
<path d="M17.6567 14.864C17.5506 14.864 17.4444 14.864 17.3383 14.864C17.0502 14.864 16.7622 14.864 16.4665 14.864C16.0268 14.864 15.5947 14.864 15.1551 14.864C14.6092 14.864 14.0634 14.864 13.5176 14.864C12.896 14.864 12.2744 14.864 11.6528 14.864C11.0008 14.864 10.3489 14.864 9.69695 14.864C9.04501 14.864 8.40066 14.864 7.74872 14.864C7.14226 14.864 6.5358 14.864 5.92177 14.864C5.39112 14.864 4.86047 14.864 4.3374 14.864C3.92805 14.864 3.5111 14.864 3.10175 14.864C2.844 14.864 2.58626 14.864 2.32852 14.864C2.26787 14.864 2.20723 14.864 2.14658 14.864C2.139 14.864 2.12384 14.864 2.11626 14.864C2.09351 14.864 2.07077 14.864 2.04803 14.864C2.01771 14.864 2.05561 14.864 2.06319 14.864C2.04803 14.864 2.02529 14.8564 2.01013 14.8564C1.98739 14.8488 1.95706 14.8413 1.93432 14.8337C1.88126 14.8186 1.95706 14.8488 1.91158 14.8262C1.88884 14.811 1.86609 14.8035 1.84335 14.7884C1.83577 14.7808 1.82061 14.7732 1.81303 14.7657C1.80545 14.7657 1.76754 14.7279 1.79029 14.7505C1.81303 14.7657 1.75996 14.7279 1.75238 14.7127C1.73722 14.6976 1.71448 14.6749 1.69932 14.6598C1.67657 14.6371 1.69932 14.6674 1.7069 14.6674C1.69932 14.6522 1.68416 14.6371 1.67658 14.6296C1.66141 14.6069 1.64625 14.5766 1.63109 14.5539C1.62351 14.5464 1.62351 14.5313 1.61593 14.5161C1.61593 14.5237 1.63109 14.5615 1.62351 14.5237C1.61593 14.501 1.60835 14.4783 1.60077 14.4481C1.60077 14.433 1.58561 14.3649 1.59319 14.3952C1.60077 14.433 1.59319 14.3876 1.59319 14.38C1.59319 14.3649 1.59319 14.3422 1.59319 14.3271C1.59319 14.3195 1.59319 14.3044 1.59319 14.2969C1.59319 14.2212 1.59319 14.1381 1.59319 14.0625C1.59319 13.7146 1.59319 13.3668 1.59319 13.019C1.59319 12.4821 1.59319 11.9452 1.59319 11.4084C1.59319 10.7732 1.59319 10.138 1.59319 9.50288C1.59319 8.85259 1.59319 8.20986 1.59319 7.55958C1.59319 6.9849 1.59319 6.41023 1.59319 5.84312C1.59319 5.42724 1.59319 5.01892 1.59319 4.60303C1.59319 4.43668 1.59319 4.27033 1.59319 4.09642C1.59319 4.08885 1.59319 4.08129 1.59319 4.06617C1.59319 4.04349 1.60077 3.99055 1.59319 4.03592C1.60077 4.00568 1.60835 3.97543 1.61593 3.94519C1.62351 3.93006 1.64625 3.85445 1.62351 3.90738C1.63109 3.88469 1.64625 3.86201 1.65383 3.83932C1.669 3.81664 1.67658 3.79396 1.69174 3.77883C1.69174 3.77883 1.72206 3.74103 1.69932 3.77127C1.67657 3.79396 1.71448 3.75615 1.71448 3.75615C1.72964 3.74103 1.75238 3.71834 1.76754 3.70322C1.77513 3.69566 1.78271 3.6881 1.79787 3.68053C1.79787 3.68053 1.75996 3.70322 1.79029 3.6881C1.83577 3.65785 1.88126 3.6276 1.93432 3.60492C1.88884 3.6276 1.9419 3.60492 1.95706 3.59736C1.9798 3.5898 2.01013 3.58223 2.03287 3.58223C2.08593 3.56711 2.00255 3.58223 2.06319 3.58223C2.07836 3.58223 2.10109 3.58223 2.11626 3.58223C2.14658 3.58223 2.1769 3.58223 2.19965 3.58223C2.40432 3.58223 2.609 3.58223 2.81368 3.58223C3.18513 3.58223 3.55659 3.58223 3.92804 3.58223C4.42837 3.58223 4.92112 3.58223 5.42144 3.58223C6.01274 3.58223 6.60403 3.58223 7.19532 3.58223C7.83968 3.58223 8.47646 3.58223 9.12082 3.58223C9.77276 3.58223 10.4323 3.58223 11.0842 3.58223C11.7134 3.58223 12.3502 3.58223 12.9794 3.58223C13.548 3.58223 14.1241 3.58223 14.6926 3.58223C15.1702 3.58223 15.6402 3.58223 16.1178 3.58223C16.4589 3.58223 16.7925 3.58223 17.1336 3.58223C17.3004 3.58223 17.4596 3.58223 17.6264 3.58223C17.6339 3.58223 17.6491 3.58223 17.6567 3.58223C17.6643 3.58223 17.6719 3.58223 17.687 3.58223C17.7098 3.58223 17.7628 3.5898 17.7173 3.58223C17.7477 3.5898 17.778 3.59736 17.8083 3.60492C17.8159 3.60492 17.8841 3.6276 17.8614 3.62004C17.8386 3.61248 17.9069 3.64273 17.9144 3.65029C17.9372 3.66541 17.9599 3.67297 17.9751 3.6881C17.9751 3.6881 18.013 3.71834 17.9827 3.69566C17.9599 3.67297 17.9978 3.71078 17.9978 3.71078C18.013 3.7259 18.0357 3.74859 18.0509 3.76371C18.0585 3.77127 18.066 3.77883 18.0736 3.79396C18.0736 3.79396 18.0509 3.75615 18.066 3.78639C18.0964 3.83176 18.1267 3.87713 18.1494 3.93006C18.1267 3.88469 18.1494 3.93762 18.157 3.95275C18.1646 3.97543 18.1722 4.00568 18.1722 4.02836C18.1873 4.08129 18.1722 3.99812 18.1722 4.05861C18.1722 4.07373 18.1722 4.09642 18.1722 4.11154C18.1722 4.12666 18.1722 4.13422 18.1722 4.14935C18.1722 4.37619 18.1722 4.60304 18.1722 4.83744C18.1722 5.29869 18.1722 5.75238 18.1722 6.21363C18.1722 6.81099 18.1722 7.40835 18.1722 8.0057C18.1722 8.65599 18.1722 9.30628 18.1722 9.95657C18.1722 10.5766 18.1722 11.1967 18.1722 11.8167C18.1722 12.3157 18.1722 12.8224 18.1722 13.3214C18.1722 13.6163 18.1722 13.9188 18.1722 14.2137C18.1722 14.2591 18.1722 14.3044 18.1722 14.3498C18.1722 14.3574 18.1722 14.3649 18.1722 14.38C18.1722 14.4027 18.1646 14.4557 18.1722 14.4103C18.1646 14.433 18.1646 14.4632 18.157 14.4859C18.1494 14.5086 18.1419 14.5313 18.1343 14.5615C18.1494 14.5161 18.1343 14.5691 18.1191 14.5842C18.1039 14.6069 18.0964 14.6296 18.0812 14.6522C18.0736 14.6674 18.0357 14.7127 18.066 14.6749C18.0357 14.7127 17.9978 14.7505 17.9599 14.7808C17.9978 14.743 17.9448 14.7884 17.9296 14.8035C17.9069 14.8186 17.8841 14.8262 17.8614 14.8413C17.8538 14.8488 17.8386 14.8488 17.8235 14.8564C17.8311 14.8564 17.869 14.8413 17.831 14.8488C17.8083 14.8564 17.7856 14.864 17.7552 14.8715C17.7401 14.8715 17.6718 14.8867 17.7022 14.8791C17.7552 14.8564 17.6719 14.864 17.6567 14.864ZM17.6567 14.864C17.5051 14.864 17.361 14.9925 17.3686 15.1513C17.3762 15.3101 17.4975 15.4462 17.6567 15.4386C18.2101 15.4311 18.6801 15.0303 18.7483 14.4783C18.7559 14.3952 18.7635 14.312 18.7635 14.2288C18.7635 13.9415 18.7635 13.6617 18.7635 13.3744C18.7635 12.8753 18.7635 12.3762 18.7635 11.8847C18.7635 11.2571 18.7635 10.6371 18.7635 10.0095C18.7635 9.35165 18.7635 8.6938 18.7635 8.03595C18.7635 7.43103 18.7635 6.81855 18.7635 6.21363C18.7635 5.75238 18.7635 5.29113 18.7635 4.82988C18.7635 4.59547 18.7635 4.36863 18.7635 4.13422C18.7635 3.50662 18.2783 3 17.6415 3C17.4975 3 17.3459 3 17.2018 3C16.8683 3 16.5423 3 16.2088 3C15.7388 3 15.2688 3 14.7988 3C14.2226 3 13.6465 3 13.0704 3C12.4336 3 11.7968 3 11.16 3C10.4929 3 9.83341 3 9.16631 3C8.52195 3 7.87001 3 7.22565 3C6.62677 3 6.0279 3 5.42902 3C4.9287 3 4.42079 3 3.92047 3C3.54901 3 3.17755 3 2.79852 3C2.59384 3 2.38916 3 2.18448 3C2.139 3 2.09351 3 2.05561 3C1.49464 3.03781 1.05496 3.46881 1.00947 4.0208C0.994314 4.19471 1.0019 4.37619 1.0019 4.5501C1.0019 4.95842 1.0019 5.35918 1.0019 5.7675C1.0019 6.34218 1.0019 6.91685 1.0019 7.49908C1.0019 8.14937 1.0019 8.79966 1.0019 9.45751C1.0019 10.1002 1.0019 10.743 1.0019 11.3932C1.0019 11.9377 1.0019 12.4745 1.0019 13.019C1.0019 13.3744 1.0019 13.7222 1.0019 14.0776C1.0019 14.1532 1.0019 14.2364 1.0019 14.312C1.0019 14.6069 1.10045 14.8867 1.30512 15.1059C1.51738 15.3328 1.81303 15.4462 2.12384 15.4462C2.1769 15.4462 2.22239 15.4462 2.27545 15.4462C2.52562 15.4462 2.7682 15.4462 3.01836 15.4462C3.42772 15.4462 3.82949 15.4462 4.23885 15.4462C4.7695 15.4462 5.30015 15.4462 5.8308 15.4462C6.44483 15.4462 7.0513 15.4462 7.66533 15.4462C8.32485 15.4462 8.98437 15.4462 9.63631 15.4462C10.2958 15.4462 10.9554 15.4462 11.6149 15.4462C12.2441 15.4462 12.8657 15.4462 13.4949 15.4462C14.0483 15.4462 14.6017 15.4462 15.1626 15.4462C15.6023 15.4462 16.042 15.4462 16.4817 15.4462C16.7697 15.4462 17.0654 15.4462 17.3535 15.4462C17.452 15.4462 17.5506 15.4462 17.6567 15.4462C17.8083 15.4462 17.9523 15.3101 17.9448 15.1589C17.9448 15.0001 17.8235 14.864 17.6567 14.864Z"/>
<path d="M6.38601 16.9283C6.62101 16.9283 6.84843 16.9283 7.08343 16.9283C7.63682 16.9283 8.1978 16.9283 8.75119 16.9283C9.42587 16.9283 10.1006 16.9283 10.7752 16.9283C11.359 16.9283 11.9427 16.9283 12.534 16.9283C12.8144 16.9283 13.1025 16.9358 13.383 16.9283C13.3906 16.9283 13.3906 16.9283 13.3982 16.9283C13.5498 16.9283 13.6938 16.7921 13.6862 16.6409C13.6786 16.4821 13.5574 16.3536 13.3982 16.3536C13.1632 16.3536 12.9357 16.3536 12.7007 16.3536C12.1473 16.3536 11.5864 16.3536 11.033 16.3536C10.3583 16.3536 9.68362 16.3536 9.00893 16.3536C8.42522 16.3536 7.8415 16.3536 7.25021 16.3536C6.96972 16.3536 6.68166 16.346 6.40117 16.3536C6.39359 16.3536 6.39359 16.3536 6.38601 16.3536C6.2344 16.3536 6.09036 16.4897 6.09794 16.6409C6.09794 16.7921 6.21924 16.9283 6.38601 16.9283Z"/>
<path d="M6.38601 16.9283C6.62101 16.9283 6.84843 16.9283 7.08343 16.9283C7.63682 16.9283 8.1978 16.9283 8.75119 16.9283C9.42587 16.9283 10.1006 16.9283 10.7752 16.9283C11.359 16.9283 11.9427 16.9283 12.534 16.9283C12.8144 16.9283 13.1025 16.9358 13.383 16.9283C13.3906 16.9283 13.3906 16.9283 13.3982 16.9283C13.5498 16.9283 13.6938 16.7921 13.6862 16.6409C13.6786 16.4821 13.5574 16.3536 13.3982 16.3536C13.1632 16.3536 12.9357 16.3536 12.7007 16.3536C12.1473 16.3536 11.5864 16.3536 11.033 16.3536C10.3583 16.3536 9.68362 16.3536 9.00893 16.3536C8.42522 16.3536 7.8415 16.3536 7.25021 16.3536C6.96972 16.3536 6.68166 16.346 6.40117 16.3536C6.39359 16.3536 6.39359 16.3536 6.38601 16.3536C6.2344 16.3536 6.09036 16.4897 6.09794 16.6409C6.09794 16.7921 6.21924 16.9283 6.38601 16.9283Z"/>
<path d="M6.38601 16.9283C6.62101 16.9283 6.84843 16.9283 7.08343 16.9283C7.63682 16.9283 8.1978 16.9283 8.75119 16.9283C9.42587 16.9283 10.1006 16.9283 10.7752 16.9283C11.359 16.9283 11.9427 16.9283 12.534 16.9283C12.8144 16.9283 13.1025 16.9358 13.383 16.9283C13.3906 16.9283 13.3906 16.9283 13.3982 16.9283C13.5498 16.9283 13.6938 16.7921 13.6862 16.6409C13.6786 16.4821 13.5574 16.3536 13.3982 16.3536C13.1632 16.3536 12.9357 16.3536 12.7007 16.3536C12.1473 16.3536 11.5864 16.3536 11.033 16.3536C10.3583 16.3536 9.68362 16.3536 9.00893 16.3536C8.42522 16.3536 7.8415 16.3536 7.25021 16.3536C6.96972 16.3536 6.68166 16.346 6.40117 16.3536C6.39359 16.3536 6.39359 16.3536 6.38601 16.3536C6.2344 16.3536 6.09036 16.4897 6.09794 16.6409C6.09794 16.7921 6.21924 16.9283 6.38601 16.9283Z"/>
</svg>
