<svg width="20" height="20" viewBox="0 0 20 20" fill="none" xmlns="http://www.w3.org/2000/svg">
<path d="M16.853 4.05126C16.853 4.36128 16.853 4.66374 16.853 4.97376C16.853 5.70722 16.853 6.44069 16.853 7.16659C16.853 8.05884 16.853 8.9511 16.853 9.84335C16.853 10.6071 16.853 11.3708 16.853 12.142C16.853 12.5126 16.8302 12.8906 16.853 13.2687C16.853 13.2763 16.853 13.2763 16.853 13.2838C16.9515 13.1855 17.0501 13.0872 17.141 12.9965C17.0122 12.9965 16.8833 12.9965 16.7544 12.9965C16.4057 12.9965 16.0494 12.9965 15.7007 12.9965C15.1776 12.9965 14.6546 12.9965 14.1391 12.9965C13.5099 12.9965 12.8731 12.9965 12.2439 12.9965C11.5465 12.9965 10.8491 12.9965 10.1516 12.9965C9.44663 12.9965 8.7492 12.9965 8.0442 12.9965C7.39226 12.9965 6.73274 12.9965 6.0808 12.9965C5.5274 12.9965 4.97402 12.9965 4.42063 12.9965C4.01885 12.9965 3.62465 12.9965 3.22288 12.9965C3.03336 12.9965 2.84384 12.9889 2.6619 12.9965C2.65432 12.9965 2.64675 12.9965 2.63917 12.9965C2.73771 13.0948 2.83626 13.1931 2.92723 13.2838C2.92723 12.815 2.92723 12.3462 2.92723 11.885C2.92723 10.849 2.92723 9.81311 2.92723 8.77718C2.92723 7.72614 2.92723 6.68265 2.92723 5.63161C2.92723 5.10986 2.91965 4.58056 2.92723 4.05882V4.05126C2.92723 4.03613 2.94239 3.93027 2.92723 3.99833C2.92723 3.9832 2.93481 3.96052 2.93481 3.9454C2.93481 3.93027 2.97271 3.83197 2.94997 3.89247C2.96513 3.85466 2.98787 3.81685 3.01061 3.77904C3.04852 3.71099 2.97271 3.80929 3.02578 3.75636C3.04094 3.74124 3.04852 3.73367 3.06368 3.71855C3.07884 3.70343 3.10158 3.68074 3.11674 3.66562C3.07126 3.70343 3.11675 3.66562 3.13191 3.65806C3.14707 3.6505 3.16981 3.63537 3.18497 3.62781C3.20013 3.62025 3.21529 3.61269 3.23045 3.60513C3.20013 3.62025 3.20013 3.62025 3.23045 3.60513C3.24562 3.59757 3.26078 3.59757 3.28352 3.59001C3.29111 3.59001 3.37449 3.57488 3.30626 3.58244C3.33658 3.58244 3.35932 3.57488 3.38965 3.57488H3.39724C3.4124 3.57488 3.42756 3.57488 3.43514 3.57488C3.59433 3.57488 3.7611 3.57488 3.9203 3.57488C4.6632 3.57488 5.41369 3.57488 6.1566 3.57488C7.22548 3.57488 8.29436 3.57488 9.36324 3.57488C10.47 3.57488 11.5768 3.57488 12.676 3.57488C13.5554 3.57488 14.4271 3.57488 15.3065 3.57488C15.6704 3.57488 16.0267 3.56732 16.3905 3.57488C16.4209 3.57488 16.4436 3.57488 16.4739 3.58244C16.4588 3.58244 16.4209 3.56732 16.4739 3.58244C16.4967 3.59001 16.527 3.59757 16.5497 3.60513C16.6256 3.62025 16.5194 3.59001 16.5649 3.60513C16.5876 3.61269 16.6028 3.62025 16.618 3.63537C16.6407 3.6505 16.6635 3.65806 16.6786 3.67318C16.6331 3.64294 16.671 3.66562 16.6786 3.67318C16.6938 3.68831 16.7165 3.71099 16.7317 3.72611C16.7393 3.73367 16.7847 3.79417 16.7468 3.7488C16.7696 3.7866 16.7923 3.81685 16.8151 3.85466C16.853 3.92271 16.8075 3.80929 16.8226 3.87734C16.8302 3.89247 16.8302 3.90759 16.8378 3.93027C16.8378 3.93783 16.853 4.02101 16.8454 3.95296C16.853 3.99833 16.853 4.02857 16.853 4.05126C16.853 4.20249 16.9819 4.34615 17.141 4.33859C17.3002 4.33103 17.4367 4.21005 17.4291 4.05126C17.4215 3.57488 17.0956 3.13632 16.618 3.03046C16.5194 3.00777 16.4284 3.00021 16.3299 3.00021C16.1631 3.00021 15.9888 3.00021 15.822 3.00021C15.0563 3.00021 14.2907 3.00021 13.5326 3.00021C12.4486 3.00021 11.357 3.00021 10.2729 3.00021C9.15098 3.00021 8.03662 3.00021 6.91467 3.00021C6.05047 3.00021 5.19386 3.00021 4.32966 3.00021C4.08707 3.00021 3.84449 3.00021 3.60191 3.00021C3.40481 3.00021 3.2153 2.99265 3.02578 3.06826C2.61642 3.22705 2.34352 3.60513 2.33594 4.05126C2.33594 4.08906 2.33594 4.13443 2.33594 4.17224C2.33594 4.42933 2.33594 4.68642 2.33594 4.94351C2.33594 5.91894 2.33594 6.88681 2.33594 7.86225C2.33594 8.96622 2.33594 10.0702 2.33594 11.1742C2.33594 11.8396 2.33594 12.5126 2.33594 13.178C2.33594 13.2082 2.33594 13.2385 2.33594 13.2763C2.33594 13.4351 2.47238 13.5636 2.624 13.5636C2.75287 13.5636 2.88174 13.5636 3.01061 13.5636C3.35932 13.5636 3.71562 13.5636 4.06433 13.5636C4.5874 13.5636 5.11047 13.5636 5.62595 13.5636C6.25515 13.5636 6.89193 13.5636 7.52113 13.5636C8.21855 13.5636 8.91599 13.5636 9.61341 13.5636C10.3184 13.5636 11.0158 13.5636 11.7208 13.5636C12.3728 13.5636 13.0323 13.5636 13.6842 13.5636C14.2376 13.5636 14.791 13.5636 15.3444 13.5636C15.7462 13.5636 16.1404 13.5636 16.5422 13.5636C16.7317 13.5636 16.9212 13.5712 17.1031 13.5636C17.1107 13.5636 17.1183 13.5636 17.1259 13.5636C17.2851 13.5636 17.4139 13.4275 17.4139 13.2763C17.4139 12.9662 17.4139 12.6638 17.4139 12.3538C17.4139 11.6203 17.4139 10.8868 17.4139 10.1609C17.4139 9.26868 17.4139 8.37643 17.4139 7.48417C17.4139 6.72046 17.4139 5.95675 17.4139 5.18548C17.4139 4.81497 17.4215 4.43689 17.4139 4.05882C17.4139 4.05126 17.4139 4.05126 17.4139 4.04369C17.4139 3.89247 17.2775 3.7488 17.1259 3.75636C16.9894 3.77148 16.853 3.89247 16.853 4.05126Z"/>
<path d="M16.853 4.05126C16.853 4.36128 16.853 4.66374 16.853 4.97376C16.853 5.70722 16.853 6.44069 16.853 7.16659C16.853 8.05884 16.853 8.9511 16.853 9.84335C16.853 10.6071 16.853 11.3708 16.853 12.142C16.853 12.5126 16.8302 12.8906 16.853 13.2687C16.853 13.2763 16.853 13.2763 16.853 13.2838C16.9515 13.1855 17.0501 13.0872 17.141 12.9965C17.0122 12.9965 16.8833 12.9965 16.7544 12.9965C16.4057 12.9965 16.0494 12.9965 15.7007 12.9965C15.1776 12.9965 14.6546 12.9965 14.1391 12.9965C13.5099 12.9965 12.8731 12.9965 12.2439 12.9965C11.5465 12.9965 10.8491 12.9965 10.1516 12.9965C9.44663 12.9965 8.7492 12.9965 8.0442 12.9965C7.39226 12.9965 6.73274 12.9965 6.0808 12.9965C5.5274 12.9965 4.97402 12.9965 4.42063 12.9965C4.01885 12.9965 3.62465 12.9965 3.22288 12.9965C3.03336 12.9965 2.84384 12.9889 2.6619 12.9965C2.65432 12.9965 2.64675 12.9965 2.63917 12.9965C2.73771 13.0948 2.83626 13.1931 2.92723 13.2838C2.92723 12.815 2.92723 12.3462 2.92723 11.885C2.92723 10.849 2.92723 9.81311 2.92723 8.77718C2.92723 7.72614 2.92723 6.68265 2.92723 5.63161C2.92723 5.10986 2.91965 4.58056 2.92723 4.05882V4.05126C2.92723 4.03613 2.94239 3.93027 2.92723 3.99833C2.92723 3.9832 2.93481 3.96052 2.93481 3.9454C2.93481 3.93027 2.97271 3.83197 2.94997 3.89247C2.96513 3.85466 2.98787 3.81685 3.01061 3.77904C3.04852 3.71099 2.97271 3.80929 3.02578 3.75636C3.04094 3.74124 3.04852 3.73367 3.06368 3.71855C3.07884 3.70343 3.10158 3.68074 3.11674 3.66562C3.07126 3.70343 3.11675 3.66562 3.13191 3.65806C3.14707 3.6505 3.16981 3.63537 3.18497 3.62781C3.20013 3.62025 3.21529 3.61269 3.23045 3.60513C3.20013 3.62025 3.20013 3.62025 3.23045 3.60513C3.24562 3.59757 3.26078 3.59757 3.28352 3.59001C3.29111 3.59001 3.37449 3.57488 3.30626 3.58244C3.33658 3.58244 3.35932 3.57488 3.38965 3.57488H3.39724C3.4124 3.57488 3.42756 3.57488 3.43514 3.57488C3.59433 3.57488 3.7611 3.57488 3.9203 3.57488C4.6632 3.57488 5.41369 3.57488 6.1566 3.57488C7.22548 3.57488 8.29436 3.57488 9.36324 3.57488C10.47 3.57488 11.5768 3.57488 12.676 3.57488C13.5554 3.57488 14.4271 3.57488 15.3065 3.57488C15.6704 3.57488 16.0267 3.56732 16.3905 3.57488C16.4209 3.57488 16.4436 3.57488 16.4739 3.58244C16.4588 3.58244 16.4209 3.56732 16.4739 3.58244C16.4967 3.59001 16.527 3.59757 16.5497 3.60513C16.6256 3.62025 16.5194 3.59001 16.5649 3.60513C16.5876 3.61269 16.6028 3.62025 16.618 3.63537C16.6407 3.6505 16.6635 3.65806 16.6786 3.67318C16.6331 3.64294 16.671 3.66562 16.6786 3.67318C16.6938 3.68831 16.7165 3.71099 16.7317 3.72611C16.7393 3.73367 16.7847 3.79417 16.7468 3.7488C16.7696 3.7866 16.7923 3.81685 16.8151 3.85466C16.853 3.92271 16.8075 3.80929 16.8226 3.87734C16.8302 3.89247 16.8302 3.90759 16.8378 3.93027C16.8378 3.93783 16.853 4.02101 16.8454 3.95296C16.853 3.99833 16.853 4.02857 16.853 4.05126C16.853 4.20249 16.9819 4.34615 17.141 4.33859C17.3002 4.33103 17.4367 4.21005 17.4291 4.05126C17.4215 3.57488 17.0956 3.13632 16.618 3.03046C16.5194 3.00777 16.4284 3.00021 16.3299 3.00021C16.1631 3.00021 15.9888 3.00021 15.822 3.00021C15.0563 3.00021 14.2907 3.00021 13.5326 3.00021C12.4486 3.00021 11.357 3.00021 10.2729 3.00021C9.15098 3.00021 8.03662 3.00021 6.91467 3.00021C6.05047 3.00021 5.19386 3.00021 4.32966 3.00021C4.08707 3.00021 3.84449 3.00021 3.60191 3.00021C3.40481 3.00021 3.2153 2.99265 3.02578 3.06826C2.61642 3.22705 2.34352 3.60513 2.33594 4.05126C2.33594 4.08906 2.33594 4.13443 2.33594 4.17224C2.33594 4.42933 2.33594 4.68642 2.33594 4.94351C2.33594 5.91894 2.33594 6.88681 2.33594 7.86225C2.33594 8.96622 2.33594 10.0702 2.33594 11.1742C2.33594 11.8396 2.33594 12.5126 2.33594 13.178C2.33594 13.2082 2.33594 13.2385 2.33594 13.2763C2.33594 13.4351 2.47238 13.5636 2.624 13.5636C2.75287 13.5636 2.88174 13.5636 3.01061 13.5636C3.35932 13.5636 3.71562 13.5636 4.06433 13.5636C4.5874 13.5636 5.11047 13.5636 5.62595 13.5636C6.25515 13.5636 6.89193 13.5636 7.52113 13.5636C8.21855 13.5636 8.91599 13.5636 9.61341 13.5636C10.3184 13.5636 11.0158 13.5636 11.7208 13.5636C12.3728 13.5636 13.0323 13.5636 13.6842 13.5636C14.2376 13.5636 14.791 13.5636 15.3444 13.5636C15.7462 13.5636 16.1404 13.5636 16.5422 13.5636C16.7317 13.5636 16.9212 13.5712 17.1031 13.5636C17.1107 13.5636 17.1183 13.5636 17.1259 13.5636C17.2851 13.5636 17.4139 13.4275 17.4139 13.2763C17.4139 12.9662 17.4139 12.6638 17.4139 12.3538C17.4139 11.6203 17.4139 10.8868 17.4139 10.1609C17.4139 9.26868 17.4139 8.37643 17.4139 7.48417C17.4139 6.72046 17.4139 5.95675 17.4139 5.18548C17.4139 4.81497 17.4215 4.43689 17.4139 4.05882C17.4139 4.05126 17.4139 4.05126 17.4139 4.04369C17.4139 3.89247 17.2775 3.7488 17.1259 3.75636C16.9894 3.77148 16.853 3.89247 16.853 4.05126Z"/>
<path d="M16.853 4.05126C16.853 4.36128 16.853 4.66374 16.853 4.97376C16.853 5.70722 16.853 6.44069 16.853 7.16659C16.853 8.05884 16.853 8.9511 16.853 9.84335C16.853 10.6071 16.853 11.3708 16.853 12.142C16.853 12.5126 16.8302 12.8906 16.853 13.2687C16.853 13.2763 16.853 13.2763 16.853 13.2838C16.9515 13.1855 17.0501 13.0872 17.141 12.9965C17.0122 12.9965 16.8833 12.9965 16.7544 12.9965C16.4057 12.9965 16.0494 12.9965 15.7007 12.9965C15.1776 12.9965 14.6546 12.9965 14.1391 12.9965C13.5099 12.9965 12.8731 12.9965 12.2439 12.9965C11.5465 12.9965 10.8491 12.9965 10.1516 12.9965C9.44663 12.9965 8.7492 12.9965 8.0442 12.9965C7.39226 12.9965 6.73274 12.9965 6.0808 12.9965C5.5274 12.9965 4.97402 12.9965 4.42063 12.9965C4.01885 12.9965 3.62465 12.9965 3.22288 12.9965C3.03336 12.9965 2.84384 12.9889 2.6619 12.9965C2.65432 12.9965 2.64675 12.9965 2.63917 12.9965C2.73771 13.0948 2.83626 13.1931 2.92723 13.2838C2.92723 12.815 2.92723 12.3462 2.92723 11.885C2.92723 10.849 2.92723 9.81311 2.92723 8.77718C2.92723 7.72614 2.92723 6.68265 2.92723 5.63161C2.92723 5.10986 2.91965 4.58056 2.92723 4.05882V4.05126C2.92723 4.03613 2.94239 3.93027 2.92723 3.99833C2.92723 3.9832 2.93481 3.96052 2.93481 3.9454C2.93481 3.93027 2.97271 3.83197 2.94997 3.89247C2.96513 3.85466 2.98787 3.81685 3.01061 3.77904C3.04852 3.71099 2.97271 3.80929 3.02578 3.75636C3.04094 3.74124 3.04852 3.73367 3.06368 3.71855C3.07884 3.70343 3.10158 3.68074 3.11674 3.66562C3.07126 3.70343 3.11675 3.66562 3.13191 3.65806C3.14707 3.6505 3.16981 3.63537 3.18497 3.62781C3.20013 3.62025 3.21529 3.61269 3.23045 3.60513C3.20013 3.62025 3.20013 3.62025 3.23045 3.60513C3.24562 3.59757 3.26078 3.59757 3.28352 3.59001C3.29111 3.59001 3.37449 3.57488 3.30626 3.58244C3.33658 3.58244 3.35932 3.57488 3.38965 3.57488H3.39724C3.4124 3.57488 3.42756 3.57488 3.43514 3.57488C3.59433 3.57488 3.7611 3.57488 3.9203 3.57488C4.6632 3.57488 5.41369 3.57488 6.1566 3.57488C7.22548 3.57488 8.29436 3.57488 9.36324 3.57488C10.47 3.57488 11.5768 3.57488 12.676 3.57488C13.5554 3.57488 14.4271 3.57488 15.3065 3.57488C15.6704 3.57488 16.0267 3.56732 16.3905 3.57488C16.4209 3.57488 16.4436 3.57488 16.4739 3.58244C16.4588 3.58244 16.4209 3.56732 16.4739 3.58244C16.4967 3.59001 16.527 3.59757 16.5497 3.60513C16.6256 3.62025 16.5194 3.59001 16.5649 3.60513C16.5876 3.61269 16.6028 3.62025 16.618 3.63537C16.6407 3.6505 16.6635 3.65806 16.6786 3.67318C16.6331 3.64294 16.671 3.66562 16.6786 3.67318C16.6938 3.68831 16.7165 3.71099 16.7317 3.72611C16.7393 3.73367 16.7847 3.79417 16.7468 3.7488C16.7696 3.7866 16.7923 3.81685 16.8151 3.85466C16.853 3.92271 16.8075 3.80929 16.8226 3.87734C16.8302 3.89247 16.8302 3.90759 16.8378 3.93027C16.8378 3.93783 16.853 4.02101 16.8454 3.95296C16.853 3.99833 16.853 4.02857 16.853 4.05126ZM16.853 4.05126C16.853 4.20249 16.9819 4.34615 17.141 4.33859C17.3002 4.33103 17.4367 4.21005 17.4291 4.05126C17.4215 3.57488 17.0956 3.13632 16.618 3.03046C16.5194 3.00777 16.4284 3.00021 16.3299 3.00021C16.1631 3.00021 15.9888 3.00021 15.822 3.00021C15.0563 3.00021 14.2907 3.00021 13.5326 3.00021C12.4486 3.00021 11.357 3.00021 10.2729 3.00021C9.15098 3.00021 8.03662 3.00021 6.91467 3.00021C6.05047 3.00021 5.19386 3.00021 4.32966 3.00021C4.08707 3.00021 3.84449 3.00021 3.60191 3.00021C3.40481 3.00021 3.2153 2.99265 3.02578 3.06826C2.61642 3.22705 2.34352 3.60513 2.33594 4.05126C2.33594 4.08906 2.33594 4.13443 2.33594 4.17224C2.33594 4.42933 2.33594 4.68642 2.33594 4.94351C2.33594 5.91894 2.33594 6.88681 2.33594 7.86224C2.33594 8.96622 2.33594 10.0702 2.33594 11.1742C2.33594 11.8396 2.33594 12.5126 2.33594 13.178C2.33594 13.2082 2.33594 13.2385 2.33594 13.2763C2.33594 13.4351 2.47238 13.5636 2.624 13.5636C2.75287 13.5636 2.88174 13.5636 3.01061 13.5636C3.35932 13.5636 3.71562 13.5636 4.06433 13.5636C4.5874 13.5636 5.11047 13.5636 5.62595 13.5636C6.25515 13.5636 6.89193 13.5636 7.52113 13.5636C8.21855 13.5636 8.91598 13.5636 9.61341 13.5636C10.3184 13.5636 11.0158 13.5636 11.7208 13.5636C12.3728 13.5636 13.0323 13.5636 13.6842 13.5636C14.2376 13.5636 14.791 13.5636 15.3444 13.5636C15.7462 13.5636 16.1404 13.5636 16.5422 13.5636C16.7317 13.5636 16.9212 13.5712 17.1031 13.5636C17.1107 13.5636 17.1183 13.5636 17.1259 13.5636C17.2851 13.5636 17.4139 13.4275 17.4139 13.2763C17.4139 12.9662 17.4139 12.6638 17.4139 12.3538C17.4139 11.6203 17.4139 10.8868 17.4139 10.1609C17.4139 9.26868 17.4139 8.37643 17.4139 7.48417C17.4139 6.72046 17.4139 5.95675 17.4139 5.18548C17.4139 4.81497 17.4215 4.43689 17.4139 4.05882C17.4139 4.05126 17.4139 4.05126 17.4139 4.04369C17.4139 3.89247 17.2775 3.7488 17.1259 3.75636C16.9894 3.77148 16.853 3.89247 16.853 4.05126Z"/>
<path d="M17.1457 12.989C17.0168 12.989 16.888 12.989 16.7591 12.989C16.4104 12.989 16.0541 12.989 15.7054 12.989C15.1823 12.989 14.6592 12.989 14.1437 12.989C13.5145 12.989 12.8778 12.989 12.2486 12.989C11.5511 12.989 10.8537 12.989 10.1563 12.989C9.45129 12.989 8.75386 12.989 8.04886 12.989C7.39692 12.989 6.7374 12.989 6.08546 12.989C5.53207 12.989 4.97868 12.989 4.42529 12.989C4.02351 12.989 3.62931 12.989 3.22754 12.989C3.03802 12.989 2.8485 12.9814 2.66656 12.989C2.65898 12.989 2.65141 12.989 2.64383 12.989C2.49221 12.989 2.34817 13.1251 2.35576 13.2763C2.36334 13.4351 2.48463 13.5636 2.64383 13.5636C2.7727 13.5636 2.90157 13.5636 3.03044 13.5636C3.37915 13.5636 3.73545 13.5636 4.08416 13.5636C4.60723 13.5636 5.13029 13.5636 5.64578 13.5636C6.27498 13.5636 6.91176 13.5636 7.54096 13.5636C8.23838 13.5636 8.9358 13.5636 9.63323 13.5636C10.3382 13.5636 11.0357 13.5636 11.7407 13.5636C12.3926 13.5636 13.0521 13.5636 13.7041 13.5636C14.2575 13.5636 14.8108 13.5636 15.3642 13.5636C15.766 13.5636 16.1602 13.5636 16.562 13.5636C16.7515 13.5636 16.941 13.5712 17.123 13.5636C17.1305 13.5636 17.1381 13.5636 17.1457 13.5636C17.2973 13.5636 17.4413 13.4275 17.4338 13.2763C17.4262 13.1251 17.3049 12.989 17.1457 12.989C17.0168 12.989 16.888 12.989 16.7591 12.989C16.4104 12.989 16.0541 12.989 15.7054 12.989C15.1823 12.989 14.6592 12.989 14.1437 12.989C13.5145 12.989 12.8778 12.989 12.2486 12.989C11.5511 12.989 10.8537 12.989 10.1563 12.989C9.45129 12.989 8.75386 12.989 8.04886 12.989C7.39692 12.989 6.7374 12.989 6.08546 12.989C5.53207 12.989 4.97868 12.989 4.42529 12.989C4.02351 12.989 3.62931 12.989 3.22754 12.989C3.03802 12.989 2.8485 12.9814 2.66656 12.989C2.65898 12.989 2.65141 12.989 2.64383 12.989C2.49221 12.989 2.34817 13.1251 2.35576 13.2763C2.36334 13.4351 2.48463 13.5636 2.64383 13.5636C2.7727 13.5636 2.90157 13.5636 3.03044 13.5636C3.37915 13.5636 3.73545 13.5636 4.08416 13.5636C4.60723 13.5636 5.13029 13.5636 5.64578 13.5636C6.27498 13.5636 6.91176 13.5636 7.54096 13.5636C8.23838 13.5636 8.9358 13.5636 9.63323 13.5636C10.3382 13.5636 11.0357 13.5636 11.7407 13.5636C12.3926 13.5636 13.0521 13.5636 13.7041 13.5636C14.2575 13.5636 14.8108 13.5636 15.3642 13.5636C15.766 13.5636 16.1602 13.5636 16.562 13.5636C16.7515 13.5636 16.941 13.5712 17.123 13.5636C17.1305 13.5636 17.1381 13.5636 17.1457 13.5636C17.2973 13.5636 17.4413 13.4275 17.4338 13.2763C17.4262 13.1251 17.3049 12.989 17.1457 12.989Z"/>
<path d="M17.1457 12.989C17.0168 12.989 16.888 12.989 16.7591 12.989C16.4104 12.989 16.0541 12.989 15.7054 12.989C15.1823 12.989 14.6592 12.989 14.1437 12.989C13.5145 12.989 12.8778 12.989 12.2486 12.989C11.5511 12.989 10.8537 12.989 10.1563 12.989C9.45129 12.989 8.75386 12.989 8.04886 12.989C7.39692 12.989 6.7374 12.989 6.08546 12.989C5.53207 12.989 4.97868 12.989 4.42529 12.989C4.02351 12.989 3.62931 12.989 3.22754 12.989C3.03802 12.989 2.8485 12.9814 2.66656 12.989C2.65898 12.989 2.65141 12.989 2.64383 12.989C2.49221 12.989 2.34817 13.1251 2.35576 13.2763C2.36334 13.4351 2.48463 13.5636 2.64383 13.5636C2.7727 13.5636 2.90157 13.5636 3.03044 13.5636C3.37915 13.5636 3.73545 13.5636 4.08416 13.5636C4.60723 13.5636 5.13029 13.5636 5.64578 13.5636C6.27498 13.5636 6.91176 13.5636 7.54096 13.5636C8.23838 13.5636 8.9358 13.5636 9.63323 13.5636C10.3382 13.5636 11.0357 13.5636 11.7407 13.5636C12.3926 13.5636 13.0521 13.5636 13.7041 13.5636C14.2575 13.5636 14.8108 13.5636 15.3642 13.5636C15.766 13.5636 16.1602 13.5636 16.562 13.5636C16.7515 13.5636 16.941 13.5712 17.123 13.5636C17.1305 13.5636 17.1381 13.5636 17.1457 13.5636C17.2973 13.5636 17.4413 13.4275 17.4338 13.2763C17.4262 13.1251 17.3049 12.989 17.1457 12.989C17.0168 12.989 16.888 12.989 16.7591 12.989C16.4104 12.989 16.0541 12.989 15.7054 12.989C15.1823 12.989 14.6592 12.989 14.1437 12.989C13.5145 12.989 12.8778 12.989 12.2486 12.989C11.5511 12.989 10.8537 12.989 10.1563 12.989C9.45129 12.989 8.75386 12.989 8.04886 12.989C7.39692 12.989 6.7374 12.989 6.08546 12.989C5.53207 12.989 4.97868 12.989 4.42529 12.989C4.02351 12.989 3.62931 12.989 3.22754 12.989C3.03802 12.989 2.8485 12.9814 2.66656 12.989C2.65898 12.989 2.65141 12.989 2.64383 12.989C2.49221 12.989 2.34817 13.1251 2.35576 13.2763C2.36334 13.4351 2.48463 13.5636 2.64383 13.5636C2.7727 13.5636 2.90157 13.5636 3.03044 13.5636C3.37915 13.5636 3.73545 13.5636 4.08416 13.5636C4.60723 13.5636 5.13029 13.5636 5.64578 13.5636C6.27498 13.5636 6.91176 13.5636 7.54096 13.5636C8.23838 13.5636 8.9358 13.5636 9.63323 13.5636C10.3382 13.5636 11.0357 13.5636 11.7407 13.5636C12.3926 13.5636 13.0521 13.5636 13.7041 13.5636C14.2575 13.5636 14.8108 13.5636 15.3642 13.5636C15.766 13.5636 16.1602 13.5636 16.562 13.5636C16.7515 13.5636 16.941 13.5712 17.123 13.5636C17.1305 13.5636 17.1381 13.5636 17.1457 13.5636C17.2973 13.5636 17.4413 13.4275 17.4338 13.2763C17.4262 13.1251 17.3049 12.989 17.1457 12.989Z"/>
<path d="M17.1457 12.989C17.0168 12.989 16.888 12.989 16.7591 12.989C16.4104 12.989 16.0541 12.989 15.7054 12.989C15.1823 12.989 14.6592 12.989 14.1437 12.989C13.5145 12.989 12.8778 12.989 12.2486 12.989C11.5511 12.989 10.8537 12.989 10.1563 12.989C9.45129 12.989 8.75386 12.989 8.04886 12.989C7.39692 12.989 6.7374 12.989 6.08546 12.989C5.53207 12.989 4.97868 12.989 4.42529 12.989C4.02351 12.989 3.62931 12.989 3.22754 12.989C3.03802 12.989 2.8485 12.9814 2.66656 12.989C2.65898 12.989 2.65141 12.989 2.64383 12.989C2.49221 12.989 2.34817 13.1251 2.35576 13.2763C2.36334 13.4351 2.48463 13.5636 2.64383 13.5636C2.7727 13.5636 2.90157 13.5636 3.03044 13.5636C3.37915 13.5636 3.73545 13.5636 4.08416 13.5636C4.60723 13.5636 5.13029 13.5636 5.64578 13.5636C6.27498 13.5636 6.91176 13.5636 7.54096 13.5636C8.23838 13.5636 8.9358 13.5636 9.63323 13.5636C10.3382 13.5636 11.0357 13.5636 11.7407 13.5636C12.3926 13.5636 13.0521 13.5636 13.7041 13.5636C14.2575 13.5636 14.8108 13.5636 15.3642 13.5636C15.766 13.5636 16.1602 13.5636 16.562 13.5636C16.7515 13.5636 16.941 13.5712 17.123 13.5636C17.1305 13.5636 17.1381 13.5636 17.1457 13.5636C17.2973 13.5636 17.4413 13.4275 17.4338 13.2763C17.4262 13.1251 17.3049 12.989 17.1457 12.989ZM17.1457 12.989C17.0168 12.989 16.888 12.989 16.7591 12.989C16.4104 12.989 16.0541 12.989 15.7054 12.989C15.1823 12.989 14.6592 12.989 14.1437 12.989C13.5145 12.989 12.8778 12.989 12.2486 12.989C11.5511 12.989 10.8537 12.989 10.1563 12.989C9.45129 12.989 8.75386 12.989 8.04886 12.989C7.39692 12.989 6.7374 12.989 6.08546 12.989C5.53207 12.989 4.97868 12.989 4.42529 12.989C4.02351 12.989 3.62931 12.989 3.22754 12.989C3.03802 12.989 2.8485 12.9814 2.66656 12.989C2.65898 12.989 2.65141 12.989 2.64383 12.989C2.49221 12.989 2.34817 13.1251 2.35576 13.2763C2.36334 13.4351 2.48463 13.5636 2.64383 13.5636C2.7727 13.5636 2.90157 13.5636 3.03044 13.5636C3.37915 13.5636 3.73545 13.5636 4.08416 13.5636C4.60723 13.5636 5.13029 13.5636 5.64578 13.5636C6.27498 13.5636 6.91176 13.5636 7.54096 13.5636C8.23838 13.5636 8.9358 13.5636 9.63323 13.5636C10.3382 13.5636 11.0357 13.5636 11.7407 13.5636C12.3926 13.5636 13.0521 13.5636 13.7041 13.5636C14.2575 13.5636 14.8108 13.5636 15.3642 13.5636C15.766 13.5636 16.1602 13.5636 16.562 13.5636C16.7515 13.5636 16.941 13.5712 17.123 13.5636C17.1305 13.5636 17.1381 13.5636 17.1457 13.5636C17.2973 13.5636 17.4413 13.4275 17.4338 13.2763C17.4262 13.1251 17.3049 12.989 17.1457 12.989Z"/>
<path d="M18.4509 13.2838C18.4509 13.6392 18.4509 13.9946 18.4509 14.3424C18.4509 14.4029 18.4509 14.4559 18.4509 14.5164C18.4509 14.5542 18.4509 14.5844 18.4509 14.6222C18.4509 14.6449 18.4509 14.6676 18.4434 14.6903C18.4434 14.6752 18.4509 14.6373 18.4434 14.6903C18.4358 14.7356 18.4282 14.7735 18.413 14.8188C18.4054 14.8566 18.3903 14.8944 18.3827 14.9322C18.3751 14.9474 18.3675 14.9625 18.3675 14.9776C18.3524 15.023 18.3979 14.9171 18.36 14.9927C18.3296 15.0608 18.2917 15.1288 18.2462 15.1893C18.2311 15.2045 18.2235 15.2271 18.2083 15.2423C18.178 15.2801 18.2538 15.1893 18.2008 15.2498C18.178 15.2725 18.1553 15.3028 18.1325 15.3254C18.1098 15.3557 18.0795 15.3784 18.0492 15.4086C18.034 15.4237 18.0188 15.4389 18.0037 15.4464C17.9582 15.4842 18.034 15.4237 17.9809 15.4615C17.9203 15.4994 17.8596 15.5447 17.799 15.575C17.7838 15.5825 17.6853 15.6279 17.7383 15.6052C17.7004 15.6203 17.6549 15.6355 17.617 15.6506C17.5867 15.6581 17.5488 15.6657 17.5185 15.6733C17.4958 15.6808 17.473 15.6808 17.4503 15.6884C17.4351 15.6884 17.3745 15.696 17.4351 15.6884C17.3821 15.696 17.329 15.696 17.2759 15.696C17.2608 15.696 17.238 15.696 17.2229 15.696C17.1016 15.696 16.9879 15.696 16.8666 15.696C16.3511 15.696 15.8432 15.696 15.3277 15.696C14.5469 15.696 13.7661 15.696 12.9928 15.696C12.0756 15.696 11.1583 15.696 10.241 15.696C9.30102 15.696 8.3686 15.696 7.42859 15.696C6.60988 15.696 5.78358 15.696 4.96487 15.696C4.37357 15.696 3.78985 15.696 3.19856 15.696C2.97114 15.696 2.74372 15.696 2.50872 15.696C2.49356 15.696 2.47082 15.696 2.45566 15.696C2.43292 15.696 2.41017 15.696 2.38743 15.6884C2.37227 15.6884 2.31163 15.6808 2.37227 15.6884C2.29646 15.6808 2.22066 15.6581 2.14485 15.6355C2.12211 15.6279 2.10694 15.6203 2.0842 15.6128C2.06904 15.6052 2.01598 15.5825 2.06904 15.6052C2.03872 15.5901 2.00839 15.575 1.97807 15.5598C1.94775 15.5447 1.90985 15.522 1.87953 15.4994C1.86436 15.4918 1.8492 15.4842 1.83403 15.4691C1.82645 15.4615 1.76581 15.4162 1.78855 15.4389C1.81887 15.4615 1.75823 15.4162 1.75823 15.4162C1.74307 15.4086 1.73549 15.3935 1.72032 15.3859C1.69758 15.3633 1.67484 15.3406 1.64452 15.3179C1.61419 15.2876 1.58387 15.2574 1.56113 15.2196C1.59903 15.2649 1.53081 15.1742 1.51565 15.1515C1.47775 15.0835 1.43984 15.023 1.40952 14.9474C1.43226 15.0003 1.39436 14.9096 1.39436 14.8944C1.3792 14.8566 1.37162 14.8113 1.35646 14.7659C1.34888 14.7281 1.34129 14.6903 1.33371 14.6525C1.32613 14.5995 1.33371 14.7205 1.33371 14.6373C1.33371 14.6222 1.33371 14.5995 1.32613 14.5844C1.32613 14.5542 1.32613 14.5164 1.32613 14.4861C1.32613 14.4256 1.32613 14.3576 1.32613 14.2971C1.32613 14.0778 1.32613 13.8585 1.32613 13.6468C1.32613 13.5182 1.32613 13.3897 1.32613 13.2612C1.22758 13.3595 1.12903 13.4578 1.03806 13.5485C1.19726 13.5485 1.35646 13.5485 1.50807 13.5485C1.94017 13.5485 2.36469 13.5485 2.79679 13.5485C3.43357 13.5485 4.07034 13.5485 4.69954 13.5485C5.47277 13.5485 6.25358 13.5485 7.02681 13.5485C7.87585 13.5485 8.71731 13.5485 9.56635 13.5485C10.423 13.5485 11.2872 13.5485 12.1438 13.5485C12.9398 13.5485 13.7357 13.5485 14.5317 13.5485C15.2064 13.5485 15.8811 13.5485 16.5557 13.5485C17.0409 13.5485 17.5261 13.5485 18.0113 13.5485C18.2387 13.5485 18.4737 13.5561 18.7011 13.5485C18.7087 13.5485 18.7238 13.5485 18.7314 13.5485C18.883 13.5485 19.0271 13.4124 19.0195 13.2612C19.0119 13.1024 18.8906 12.9738 18.7314 12.9738C18.5722 12.9738 18.413 12.9738 18.2614 12.9738C17.8293 12.9738 17.4048 12.9738 16.9727 12.9738C16.3359 12.9738 15.6991 12.9738 15.0699 12.9738C14.2967 12.9738 13.5159 12.9738 12.7427 12.9738C11.8936 12.9738 11.0522 12.9738 10.2031 12.9738C9.34651 12.9738 8.48231 12.9738 7.62569 12.9738C6.82972 12.9738 6.03374 12.9738 5.23777 12.9738C4.56309 12.9738 3.88841 12.9738 3.21373 12.9738C2.72856 12.9738 2.24339 12.9738 1.75823 12.9738C1.53081 12.9738 1.29581 12.9663 1.06839 12.9738C1.0608 12.9738 1.04564 12.9738 1.03806 12.9738C0.878866 12.9738 0.75 13.1099 0.75 13.2612C0.75 13.6165 0.75 13.9795 0.75 14.3349C0.75 14.539 0.757575 14.7508 0.81064 14.9549C0.894028 15.2876 1.09113 15.6052 1.35646 15.8321C1.69759 16.1194 2.10694 16.2706 2.5542 16.2706C2.66033 16.2706 2.77404 16.2706 2.88017 16.2706C3.38808 16.2706 3.89599 16.2706 4.39631 16.2706C5.17713 16.2706 5.96552 16.2706 6.74633 16.2706C7.67876 16.2706 8.61118 16.2706 9.55119 16.2706C10.4988 16.2706 11.4539 16.2706 12.4015 16.2706C13.2354 16.2706 14.0617 16.2706 14.8956 16.2706C15.4793 16.2706 16.0706 16.2706 16.6543 16.2706C16.9272 16.2706 17.2077 16.2933 17.473 16.2555C18.2008 16.1723 18.83 15.643 18.9967 14.9171C19.0422 14.7205 19.0422 14.5239 19.0422 14.3273C19.0422 14.1005 19.0422 13.8812 19.0422 13.6544C19.0422 13.5258 19.0422 13.3973 19.0422 13.2687C19.0422 13.1175 18.9058 12.9738 18.7542 12.9814C18.5798 12.9965 18.4509 13.1175 18.4509 13.2838Z"/>
<path d="M18.4509 13.2838C18.4509 13.6392 18.4509 13.9946 18.4509 14.3424C18.4509 14.4029 18.4509 14.4559 18.4509 14.5164C18.4509 14.5542 18.4509 14.5844 18.4509 14.6222C18.4509 14.6449 18.4509 14.6676 18.4434 14.6903C18.4434 14.6752 18.4509 14.6373 18.4434 14.6903C18.4358 14.7356 18.4282 14.7735 18.413 14.8188C18.4054 14.8566 18.3903 14.8944 18.3827 14.9322C18.3751 14.9474 18.3675 14.9625 18.3675 14.9776C18.3524 15.023 18.3979 14.9171 18.36 14.9927C18.3296 15.0608 18.2917 15.1288 18.2462 15.1893C18.2311 15.2045 18.2235 15.2271 18.2083 15.2423C18.178 15.2801 18.2538 15.1893 18.2008 15.2498C18.178 15.2725 18.1553 15.3028 18.1325 15.3254C18.1098 15.3557 18.0795 15.3784 18.0492 15.4086C18.034 15.4237 18.0188 15.4389 18.0037 15.4464C17.9582 15.4842 18.034 15.4237 17.9809 15.4615C17.9203 15.4994 17.8596 15.5447 17.799 15.575C17.7838 15.5825 17.6853 15.6279 17.7383 15.6052C17.7004 15.6203 17.6549 15.6355 17.617 15.6506C17.5867 15.6581 17.5488 15.6657 17.5185 15.6733C17.4958 15.6808 17.473 15.6808 17.4503 15.6884C17.4351 15.6884 17.3745 15.696 17.4351 15.6884C17.3821 15.696 17.329 15.696 17.2759 15.696C17.2608 15.696 17.238 15.696 17.2229 15.696C17.1016 15.696 16.9879 15.696 16.8666 15.696C16.3511 15.696 15.8432 15.696 15.3277 15.696C14.5469 15.696 13.7661 15.696 12.9928 15.696C12.0756 15.696 11.1583 15.696 10.241 15.696C9.30102 15.696 8.3686 15.696 7.42859 15.696C6.60988 15.696 5.78358 15.696 4.96487 15.696C4.37357 15.696 3.78985 15.696 3.19856 15.696C2.97114 15.696 2.74372 15.696 2.50872 15.696C2.49356 15.696 2.47082 15.696 2.45566 15.696C2.43292 15.696 2.41017 15.696 2.38743 15.6884C2.37227 15.6884 2.31163 15.6808 2.37227 15.6884C2.29646 15.6808 2.22066 15.6581 2.14485 15.6355C2.12211 15.6279 2.10694 15.6203 2.0842 15.6128C2.06904 15.6052 2.01598 15.5825 2.06904 15.6052C2.03872 15.5901 2.00839 15.575 1.97807 15.5598C1.94775 15.5447 1.90985 15.522 1.87953 15.4994C1.86436 15.4918 1.8492 15.4842 1.83403 15.4691C1.82645 15.4615 1.76581 15.4162 1.78855 15.4389C1.81887 15.4615 1.75823 15.4162 1.75823 15.4162C1.74307 15.4086 1.73549 15.3935 1.72032 15.3859C1.69758 15.3633 1.67484 15.3406 1.64452 15.3179C1.61419 15.2876 1.58387 15.2574 1.56113 15.2196C1.59903 15.2649 1.53081 15.1742 1.51565 15.1515C1.47775 15.0835 1.43984 15.023 1.40952 14.9474C1.43226 15.0003 1.39436 14.9096 1.39436 14.8944C1.3792 14.8566 1.37162 14.8113 1.35646 14.7659C1.34888 14.7281 1.34129 14.6903 1.33371 14.6525C1.32613 14.5995 1.33371 14.7205 1.33371 14.6373C1.33371 14.6222 1.33371 14.5995 1.32613 14.5844C1.32613 14.5542 1.32613 14.5164 1.32613 14.4861C1.32613 14.4256 1.32613 14.3576 1.32613 14.2971C1.32613 14.0778 1.32613 13.8585 1.32613 13.6468C1.32613 13.5182 1.32613 13.3897 1.32613 13.2612C1.22758 13.3595 1.12903 13.4578 1.03806 13.5485C1.19726 13.5485 1.35646 13.5485 1.50807 13.5485C1.94017 13.5485 2.36469 13.5485 2.79679 13.5485C3.43357 13.5485 4.07034 13.5485 4.69954 13.5485C5.47277 13.5485 6.25358 13.5485 7.02681 13.5485C7.87585 13.5485 8.71731 13.5485 9.56635 13.5485C10.423 13.5485 11.2872 13.5485 12.1438 13.5485C12.9398 13.5485 13.7357 13.5485 14.5317 13.5485C15.2064 13.5485 15.8811 13.5485 16.5557 13.5485C17.0409 13.5485 17.5261 13.5485 18.0113 13.5485C18.2387 13.5485 18.4737 13.5561 18.7011 13.5485C18.7087 13.5485 18.7238 13.5485 18.7314 13.5485C18.883 13.5485 19.0271 13.4124 19.0195 13.2612C19.0119 13.1024 18.8906 12.9738 18.7314 12.9738C18.5722 12.9738 18.413 12.9738 18.2614 12.9738C17.8293 12.9738 17.4048 12.9738 16.9727 12.9738C16.3359 12.9738 15.6991 12.9738 15.0699 12.9738C14.2967 12.9738 13.5159 12.9738 12.7427 12.9738C11.8936 12.9738 11.0522 12.9738 10.2031 12.9738C9.34651 12.9738 8.48231 12.9738 7.62569 12.9738C6.82972 12.9738 6.03374 12.9738 5.23777 12.9738C4.56309 12.9738 3.88841 12.9738 3.21373 12.9738C2.72856 12.9738 2.24339 12.9738 1.75823 12.9738C1.53081 12.9738 1.29581 12.9663 1.06839 12.9738C1.0608 12.9738 1.04564 12.9738 1.03806 12.9738C0.878866 12.9738 0.75 13.1099 0.75 13.2612C0.75 13.6165 0.75 13.9795 0.75 14.3349C0.75 14.539 0.757575 14.7508 0.81064 14.9549C0.894028 15.2876 1.09113 15.6052 1.35646 15.8321C1.69759 16.1194 2.10694 16.2706 2.5542 16.2706C2.66033 16.2706 2.77404 16.2706 2.88017 16.2706C3.38808 16.2706 3.89599 16.2706 4.39631 16.2706C5.17713 16.2706 5.96552 16.2706 6.74633 16.2706C7.67876 16.2706 8.61118 16.2706 9.55119 16.2706C10.4988 16.2706 11.4539 16.2706 12.4015 16.2706C13.2354 16.2706 14.0617 16.2706 14.8956 16.2706C15.4793 16.2706 16.0706 16.2706 16.6543 16.2706C16.9272 16.2706 17.2077 16.2933 17.473 16.2555C18.2008 16.1723 18.83 15.643 18.9967 14.9171C19.0422 14.7205 19.0422 14.5239 19.0422 14.3273C19.0422 14.1005 19.0422 13.8812 19.0422 13.6544C19.0422 13.5258 19.0422 13.3973 19.0422 13.2687C19.0422 13.1175 18.9058 12.9738 18.7542 12.9814C18.5798 12.9965 18.4509 13.1175 18.4509 13.2838Z"/>
<path d="M18.4509 13.2838C18.4509 13.6392 18.4509 13.9946 18.4509 14.3424C18.4509 14.4029 18.4509 14.4559 18.4509 14.5164C18.4509 14.5542 18.4509 14.5844 18.4509 14.6222C18.4509 14.6449 18.4509 14.6676 18.4434 14.6903C18.4434 14.6752 18.4509 14.6373 18.4434 14.6903C18.4358 14.7356 18.4282 14.7735 18.413 14.8188C18.4054 14.8566 18.3903 14.8944 18.3827 14.9322C18.3751 14.9474 18.3675 14.9625 18.3675 14.9776C18.3524 15.023 18.3979 14.9171 18.36 14.9927C18.3296 15.0608 18.2917 15.1288 18.2462 15.1893C18.2311 15.2045 18.2235 15.2271 18.2083 15.2423C18.178 15.2801 18.2538 15.1893 18.2008 15.2498C18.178 15.2725 18.1553 15.3028 18.1325 15.3254C18.1098 15.3557 18.0795 15.3784 18.0492 15.4086C18.034 15.4237 18.0188 15.4389 18.0037 15.4464C17.9582 15.4842 18.034 15.4237 17.9809 15.4615C17.9203 15.4994 17.8596 15.5447 17.799 15.575C17.7838 15.5825 17.6853 15.6279 17.7383 15.6052C17.7004 15.6203 17.6549 15.6355 17.617 15.6506C17.5867 15.6581 17.5488 15.6657 17.5185 15.6733C17.4958 15.6808 17.473 15.6808 17.4503 15.6884C17.4351 15.6884 17.3745 15.696 17.4351 15.6884C17.3821 15.696 17.329 15.696 17.2759 15.696C17.2608 15.696 17.238 15.696 17.2229 15.696C17.1016 15.696 16.9879 15.696 16.8666 15.696C16.3511 15.696 15.8432 15.696 15.3277 15.696C14.5469 15.696 13.7661 15.696 12.9928 15.696C12.0756 15.696 11.1583 15.696 10.241 15.696C9.30102 15.696 8.3686 15.696 7.42859 15.696C6.60988 15.696 5.78358 15.696 4.96487 15.696C4.37357 15.696 3.78985 15.696 3.19856 15.696C2.97114 15.696 2.74372 15.696 2.50872 15.696C2.49356 15.696 2.47082 15.696 2.45566 15.696C2.43292 15.696 2.41017 15.696 2.38743 15.6884C2.37227 15.6884 2.31163 15.6808 2.37227 15.6884C2.29646 15.6808 2.22066 15.6581 2.14485 15.6355C2.12211 15.6279 2.10694 15.6203 2.0842 15.6128C2.06904 15.6052 2.01598 15.5825 2.06904 15.6052C2.03872 15.5901 2.00839 15.575 1.97807 15.5598C1.94775 15.5447 1.90985 15.522 1.87953 15.4994C1.86436 15.4918 1.8492 15.4842 1.83403 15.4691C1.82645 15.4615 1.76581 15.4162 1.78855 15.4389C1.81887 15.4615 1.75823 15.4162 1.75823 15.4162C1.74307 15.4086 1.73549 15.3935 1.72032 15.3859C1.69758 15.3633 1.67484 15.3406 1.64452 15.3179C1.61419 15.2876 1.58387 15.2574 1.56113 15.2196C1.59903 15.2649 1.53081 15.1742 1.51565 15.1515C1.47775 15.0835 1.43984 15.023 1.40952 14.9474C1.43226 15.0003 1.39436 14.9096 1.39436 14.8944C1.3792 14.8566 1.37162 14.8113 1.35646 14.7659C1.34888 14.7281 1.34129 14.6903 1.33371 14.6525C1.32613 14.5995 1.33371 14.7205 1.33371 14.6373C1.33371 14.6222 1.33371 14.5995 1.32613 14.5844C1.32613 14.5542 1.32613 14.5164 1.32613 14.4861C1.32613 14.4256 1.32613 14.3576 1.32613 14.2971C1.32613 14.0778 1.32613 13.8585 1.32613 13.6468C1.32613 13.5182 1.32613 13.3897 1.32613 13.2612C1.22758 13.3595 1.12903 13.4578 1.03806 13.5485C1.19726 13.5485 1.35646 13.5485 1.50807 13.5485C1.94017 13.5485 2.36469 13.5485 2.79679 13.5485C3.43357 13.5485 4.07034 13.5485 4.69954 13.5485C5.47277 13.5485 6.25358 13.5485 7.02681 13.5485C7.87585 13.5485 8.71731 13.5485 9.56635 13.5485C10.423 13.5485 11.2872 13.5485 12.1438 13.5485C12.9398 13.5485 13.7357 13.5485 14.5317 13.5485C15.2064 13.5485 15.8811 13.5485 16.5557 13.5485C17.0409 13.5485 17.5261 13.5485 18.0113 13.5485C18.2387 13.5485 18.4737 13.5561 18.7011 13.5485C18.7087 13.5485 18.7238 13.5485 18.7314 13.5485C18.883 13.5485 19.0271 13.4124 19.0195 13.2612C19.0119 13.1024 18.8906 12.9738 18.7314 12.9738C18.5722 12.9738 18.413 12.9738 18.2614 12.9738C17.8293 12.9738 17.4048 12.9738 16.9727 12.9738C16.3359 12.9738 15.6991 12.9738 15.0699 12.9738C14.2967 12.9738 13.5159 12.9738 12.7427 12.9738C11.8936 12.9738 11.0522 12.9738 10.2031 12.9738C9.34651 12.9738 8.48231 12.9738 7.62569 12.9738C6.82972 12.9738 6.03374 12.9738 5.23777 12.9738C4.56309 12.9738 3.88841 12.9738 3.21373 12.9738C2.72856 12.9738 2.24339 12.9738 1.75823 12.9738C1.53081 12.9738 1.29581 12.9663 1.06839 12.9738C1.0608 12.9738 1.04564 12.9738 1.03806 12.9738C0.878866 12.9738 0.75 13.1099 0.75 13.2612C0.75 13.6165 0.75 13.9795 0.75 14.3349C0.75 14.539 0.757575 14.7508 0.81064 14.9549C0.894028 15.2876 1.09113 15.6052 1.35646 15.8321C1.69759 16.1194 2.10694 16.2706 2.5542 16.2706C2.66033 16.2706 2.77404 16.2706 2.88017 16.2706C3.38808 16.2706 3.89599 16.2706 4.39631 16.2706C5.17713 16.2706 5.96552 16.2706 6.74633 16.2706C7.67876 16.2706 8.61118 16.2706 9.55119 16.2706C10.4988 16.2706 11.4539 16.2706 12.4015 16.2706C13.2354 16.2706 14.0617 16.2706 14.8956 16.2706C15.4793 16.2706 16.0706 16.2706 16.6543 16.2706C16.9272 16.2706 17.2077 16.2933 17.473 16.2555C18.2008 16.1723 18.83 15.643 18.9967 14.9171C19.0422 14.7205 19.0422 14.5239 19.0422 14.3273C19.0422 14.1005 19.0422 13.8812 19.0422 13.6544C19.0422 13.5258 19.0422 13.3973 19.0422 13.2687C19.0422 13.1175 18.9058 12.9738 18.7542 12.9814C18.5798 12.9965 18.4509 13.1175 18.4509 13.2838Z"/>
<path d="M12.1526 13.2838C12.1526 13.5107 12.1526 13.7451 12.1526 13.9719C12.1526 14.0022 12.1526 14.04 12.1526 14.0702C12.1526 14.0853 12.145 14.1685 12.1526 14.1005C12.145 14.1231 12.1374 14.1534 12.1374 14.1761C12.1223 14.2063 12.1298 14.2063 12.1374 14.1761C12.1298 14.1912 12.1223 14.2063 12.1147 14.2214C12.1071 14.229 12.0616 14.2895 12.0995 14.2441C12.0844 14.2592 12.0692 14.2744 12.054 14.2895C12.0465 14.3046 12.001 14.3349 12.0465 14.2971C12.0237 14.3122 12.001 14.3197 11.9782 14.3349C11.9176 14.3727 12.0237 14.3273 11.9555 14.3424C11.9327 14.35 11.9024 14.3575 11.8797 14.3575C11.9479 14.3424 11.8645 14.3575 11.8494 14.3575C11.5234 14.3651 11.1974 14.3575 10.8715 14.3575C9.89355 14.3575 8.92322 14.3651 7.94531 14.3575C7.93773 14.3575 7.93014 14.3575 7.91498 14.3575C7.9074 14.3575 7.88466 14.3575 7.88466 14.3575C7.84675 14.3575 7.84675 14.3575 7.88466 14.3575C7.8695 14.3575 7.85434 14.35 7.8316 14.3424C7.82402 14.3424 7.74821 14.3046 7.80885 14.3349C7.77853 14.3197 7.74821 14.3046 7.72547 14.2819C7.77095 14.3122 7.73305 14.2895 7.72547 14.2819C7.71788 14.2744 7.64966 14.1988 7.68756 14.2441C7.6724 14.2214 7.66482 14.1988 7.64966 14.1761C7.6345 14.1458 7.6345 14.1458 7.64966 14.1761C7.64208 14.161 7.64207 14.1458 7.63449 14.1307C7.63449 14.1231 7.61933 14.04 7.62691 14.108C7.62691 14.0929 7.62691 14.0702 7.62691 14.0551C7.62691 14.0475 7.62691 14.0324 7.62691 14.0248C7.62691 13.7753 7.62691 13.5258 7.62691 13.2687C7.52836 13.367 7.42982 13.4653 7.33885 13.556C7.91498 13.556 8.49111 13.556 9.06725 13.556C9.98451 13.556 10.9018 13.556 11.819 13.556C12.0313 13.556 12.2436 13.556 12.4558 13.556C12.6074 13.556 12.7515 13.4199 12.7439 13.2687C12.7363 13.1099 12.615 12.9814 12.4558 12.9814C11.8797 12.9814 11.3036 12.9814 10.7274 12.9814C9.81016 12.9814 8.89289 12.9814 7.97562 12.9814C7.76336 12.9814 7.55111 12.9814 7.33885 12.9814C7.17966 12.9814 7.05078 13.1175 7.05078 13.2687C7.05078 13.5031 7.05078 13.7451 7.05078 13.9795C7.05078 14.1534 7.07353 14.3197 7.15691 14.4785C7.2782 14.7054 7.5132 14.8793 7.77095 14.9171C7.89982 14.9398 8.03628 14.9322 8.17273 14.9322C8.40015 14.9322 8.62757 14.9322 8.86257 14.9322C9.86322 14.9322 10.8639 14.9473 11.8569 14.9322C12.3573 14.9247 12.7439 14.5315 12.7439 14.0324C12.7439 13.7753 12.7439 13.5182 12.7439 13.2611C12.7439 13.1099 12.6074 12.9662 12.4558 12.9738C12.289 12.9965 12.1526 13.1175 12.1526 13.2838Z"/>
<path d="M12.1526 13.2838C12.1526 13.5107 12.1526 13.7451 12.1526 13.9719C12.1526 14.0022 12.1526 14.04 12.1526 14.0702C12.1526 14.0853 12.145 14.1685 12.1526 14.1005C12.145 14.1231 12.1374 14.1534 12.1374 14.1761C12.1223 14.2063 12.1298 14.2063 12.1374 14.1761C12.1298 14.1912 12.1223 14.2063 12.1147 14.2214C12.1071 14.229 12.0616 14.2895 12.0995 14.2441C12.0844 14.2592 12.0692 14.2744 12.054 14.2895C12.0465 14.3046 12.001 14.3349 12.0465 14.2971C12.0237 14.3122 12.001 14.3197 11.9782 14.3349C11.9176 14.3727 12.0237 14.3273 11.9555 14.3424C11.9327 14.35 11.9024 14.3575 11.8797 14.3575C11.9479 14.3424 11.8645 14.3575 11.8494 14.3575C11.5234 14.3651 11.1974 14.3575 10.8715 14.3575C9.89355 14.3575 8.92322 14.3651 7.94531 14.3575C7.93773 14.3575 7.93014 14.3575 7.91498 14.3575C7.9074 14.3575 7.88466 14.3575 7.88466 14.3575C7.84675 14.3575 7.84675 14.3575 7.88466 14.3575C7.8695 14.3575 7.85434 14.35 7.8316 14.3424C7.82402 14.3424 7.74821 14.3046 7.80885 14.3349C7.77853 14.3197 7.74821 14.3046 7.72547 14.2819C7.77095 14.3122 7.73305 14.2895 7.72547 14.2819C7.71788 14.2744 7.64966 14.1988 7.68756 14.2441C7.6724 14.2214 7.66482 14.1988 7.64966 14.1761C7.6345 14.1458 7.6345 14.1458 7.64966 14.1761C7.64208 14.161 7.64207 14.1458 7.63449 14.1307C7.63449 14.1231 7.61933 14.04 7.62691 14.108C7.62691 14.0929 7.62691 14.0702 7.62691 14.0551C7.62691 14.0475 7.62691 14.0324 7.62691 14.0248C7.62691 13.7753 7.62691 13.5258 7.62691 13.2687C7.52836 13.367 7.42982 13.4653 7.33885 13.556C7.91498 13.556 8.49111 13.556 9.06725 13.556C9.98451 13.556 10.9018 13.556 11.819 13.556C12.0313 13.556 12.2436 13.556 12.4558 13.556C12.6074 13.556 12.7515 13.4199 12.7439 13.2687C12.7363 13.1099 12.615 12.9814 12.4558 12.9814C11.8797 12.9814 11.3036 12.9814 10.7274 12.9814C9.81016 12.9814 8.89289 12.9814 7.97562 12.9814C7.76336 12.9814 7.55111 12.9814 7.33885 12.9814C7.17966 12.9814 7.05078 13.1175 7.05078 13.2687C7.05078 13.5031 7.05078 13.7451 7.05078 13.9795C7.05078 14.1534 7.07353 14.3197 7.15691 14.4785C7.2782 14.7054 7.5132 14.8793 7.77095 14.9171C7.89982 14.9398 8.03628 14.9322 8.17273 14.9322C8.40015 14.9322 8.62757 14.9322 8.86257 14.9322C9.86322 14.9322 10.8639 14.9473 11.8569 14.9322C12.3573 14.9247 12.7439 14.5315 12.7439 14.0324C12.7439 13.7753 12.7439 13.5182 12.7439 13.2611C12.7439 13.1099 12.6074 12.9662 12.4558 12.9738C12.289 12.9965 12.1526 13.1175 12.1526 13.2838Z"/>
<path d="M12.1526 13.2838C12.1526 13.5107 12.1526 13.7451 12.1526 13.9719C12.1526 14.0022 12.1526 14.04 12.1526 14.0702C12.1526 14.0853 12.145 14.1685 12.1526 14.1005C12.145 14.1231 12.1374 14.1534 12.1374 14.1761C12.1223 14.2063 12.1298 14.2063 12.1374 14.1761C12.1298 14.1912 12.1223 14.2063 12.1147 14.2214C12.1071 14.229 12.0616 14.2895 12.0995 14.2441C12.0844 14.2592 12.0692 14.2744 12.054 14.2895C12.0465 14.3046 12.001 14.3349 12.0465 14.2971C12.0237 14.3122 12.001 14.3197 11.9782 14.3349C11.9176 14.3727 12.0237 14.3273 11.9555 14.3424C11.9327 14.35 11.9024 14.3575 11.8797 14.3575C11.9479 14.3424 11.8645 14.3575 11.8494 14.3575C11.5234 14.3651 11.1974 14.3575 10.8715 14.3575C9.89355 14.3575 8.92322 14.3651 7.94531 14.3575C7.93773 14.3575 7.93014 14.3575 7.91498 14.3575C7.9074 14.3575 7.88466 14.3575 7.88466 14.3575C7.84675 14.3575 7.84675 14.3575 7.88466 14.3575C7.8695 14.3575 7.85434 14.35 7.8316 14.3424C7.82402 14.3424 7.74821 14.3046 7.80885 14.3349C7.77853 14.3197 7.74821 14.3046 7.72547 14.2819C7.77095 14.3122 7.73305 14.2895 7.72547 14.2819C7.71788 14.2744 7.64966 14.1988 7.68756 14.2441C7.6724 14.2214 7.66482 14.1988 7.64966 14.1761C7.6345 14.1458 7.6345 14.1458 7.64966 14.1761C7.64208 14.161 7.64207 14.1458 7.63449 14.1307C7.63449 14.1231 7.61933 14.04 7.62691 14.108C7.62691 14.0929 7.62691 14.0702 7.62691 14.0551C7.62691 14.0475 7.62691 14.0324 7.62691 14.0248C7.62691 13.7753 7.62691 13.5258 7.62691 13.2687C7.52836 13.367 7.42982 13.4653 7.33885 13.556C7.91498 13.556 8.49111 13.556 9.06725 13.556C9.98451 13.556 10.9018 13.556 11.819 13.556C12.0313 13.556 12.2436 13.556 12.4558 13.556C12.6074 13.556 12.7515 13.4199 12.7439 13.2687C12.7363 13.1099 12.615 12.9814 12.4558 12.9814C11.8797 12.9814 11.3036 12.9814 10.7274 12.9814C9.81016 12.9814 8.89289 12.9814 7.97562 12.9814C7.76336 12.9814 7.55111 12.9814 7.33885 12.9814C7.17966 12.9814 7.05078 13.1175 7.05078 13.2687C7.05078 13.5031 7.05078 13.7451 7.05078 13.9795C7.05078 14.1534 7.07353 14.3197 7.15691 14.4785C7.2782 14.7054 7.5132 14.8793 7.77095 14.9171C7.89982 14.9398 8.03628 14.9322 8.17273 14.9322C8.40015 14.9322 8.62757 14.9322 8.86257 14.9322C9.86322 14.9322 10.8639 14.9473 11.8569 14.9322C12.3573 14.9247 12.7439 14.5315 12.7439 14.0324C12.7439 13.7753 12.7439 13.5182 12.7439 13.2611C12.7439 13.1099 12.6074 12.9662 12.4558 12.9738C12.289 12.9965 12.1526 13.1175 12.1526 13.2838Z"/>
</svg>
