<svg width="26" height="26" viewBox="0 0 26 26" fill="none" xmlns="http://www.w3.org/2000/svg">
<path d="M13 25.5C6.09625 25.5 0.5 19.9037 0.5 13C0.5 6.09625 6.09625 0.5 13 0.5C19.9037 0.5 25.5 6.09625 25.5 13C25.5 19.9037 19.9037 25.5 13 25.5ZM6.76625 20.82C8.53569 22.2346 10.7346 23.0036 13 23C15.4625 23 17.7162 22.11 19.4587 20.635C18.6447 19.7997 17.6713 19.1361 16.5963 18.6835C15.5213 18.2309 14.3664 17.9985 13.2 18C11.9907 17.9986 10.7944 18.2486 9.68683 18.734C8.57928 19.2195 7.58473 19.9298 6.76625 20.82ZM5.02 19.025C6.07057 17.9101 7.33834 17.0221 8.74517 16.4159C10.152 15.8097 11.6681 15.4979 13.2 15.5C14.6771 15.4981 16.14 15.788 17.5047 16.353C18.8694 16.918 20.1091 17.747 21.1525 18.7925C22.2226 17.2864 22.8545 15.5133 22.9782 13.6699C23.1019 11.8265 22.7124 9.98486 21.8531 8.34932C20.9938 6.71378 19.6982 5.34828 18.11 4.40431C16.5218 3.46033 14.7031 2.9748 12.8558 3.00157C11.0084 3.02833 9.20457 3.56636 7.6444 4.55595C6.08422 5.54554 4.8287 6.948 4.01711 8.60775C3.20553 10.2675 2.86962 12.1196 3.04664 13.9587C3.22367 15.7977 3.90672 17.5518 5.02 19.0262V19.025ZM13 14.25C11.6739 14.25 10.4021 13.7232 9.46447 12.7855C8.52678 11.8479 8 10.5761 8 9.25C8 7.92392 8.52678 6.65215 9.46447 5.71447C10.4021 4.77678 11.6739 4.25 13 4.25C14.3261 4.25 15.5979 4.77678 16.5355 5.71447C17.4732 6.65215 18 7.92392 18 9.25C18 10.5761 17.4732 11.8479 16.5355 12.7855C15.5979 13.7232 14.3261 14.25 13 14.25ZM13 11.75C13.663 11.75 14.2989 11.4866 14.7678 11.0178C15.2366 10.5489 15.5 9.91304 15.5 9.25C15.5 8.58696 15.2366 7.95107 14.7678 7.48223C14.2989 7.01339 13.663 6.75 13 6.75C12.337 6.75 11.7011 7.01339 11.2322 7.48223C10.7634 7.95107 10.5 8.58696 10.5 9.25C10.5 9.91304 10.7634 10.5489 11.2322 11.0178C11.7011 11.4866 12.337 11.75 13 11.75Z" fill="#97A2AC"/>
</svg>
