<svg width="32" height="33" viewBox="0 0 32 33" fill="none" xmlns="http://www.w3.org/2000/svg">
<g clip-path="url(#clip0)">
<path d="M22.4001 32.4997C23.5783 32.4997 24.5335 31.5446 24.5335 30.3663V4.76547C24.5335 3.58725 23.5783 2.63209 22.4001 2.63209C18.9402 2.57159 15.5199 1.88488 12.3048 0.605341C11.8131 0.41721 11.2603 0.483024 10.8265 0.781346C10.3927 1.07967 10.1333 1.57225 10.133 2.09876V2.63209H9.59969C8.42146 2.63209 7.46631 3.58725 7.46631 4.76547V30.3663C7.46631 31.5445 8.42146 32.4996 9.59969 32.4996H22.4001V32.4997ZM23.4668 4.76547V27.6995C23.4669 28.2822 22.9993 28.7572 22.4167 28.7662C18.6712 28.6747 14.976 27.8822 11.5224 26.4296C11.3257 26.3464 11.1984 26.153 11.1997 25.9394V3.94519L12.3368 5.15748C12.7405 5.58725 13.3036 5.83132 13.8931 5.83219H18.1066C18.6962 5.83169 19.2594 5.5875 19.6629 5.15748L21.0309 3.69875H22.4C22.9892 3.69881 23.4668 4.17639 23.4668 4.76547ZM12.4312 3.69881H19.5685L18.8842 4.4284C18.6827 4.64334 18.4012 4.76535 18.1066 4.76547H13.8931C13.5984 4.7651 13.3169 4.64315 13.115 4.4284L12.4312 3.69881ZM11.1997 2.09876C11.1997 1.92344 11.2859 1.75931 11.4302 1.65969C11.5745 1.56012 11.7585 1.53781 11.9224 1.60006C12.9694 2.0022 14.0191 2.3414 15.0649 2.63047H11.1997V2.09876ZM8.53297 4.76547C8.53297 4.17633 9.01054 3.69875 9.59969 3.69875H10.133V25.9394C10.1315 26.5825 10.5163 27.1636 11.109 27.4131C12.3981 27.9483 13.7201 28.4003 15.067 28.7662H9.59969C9.01054 28.7662 8.53297 28.2886 8.53297 27.6995V4.76547ZM8.53297 30.3663V29.5364C8.85585 29.7283 9.22405 29.8307 9.59969 29.8329H22.4001H22.4167H22.5004V29.8228C22.841 29.8069 23.1726 29.7086 23.4668 29.5364V30.3663C23.4668 30.9555 22.9892 31.4331 22.4001 31.4331H9.59969C9.01054 31.433 8.53297 30.9554 8.53297 30.3663Z" />
<path fill-rule="evenodd" clip-rule="evenodd" d="M12.7998 9.03234C12.9413 9.03234 13.0769 8.97609 13.1769 8.87609L14.2436 7.80937C14.4458 7.60011 14.4429 7.26742 14.2371 7.06172C14.0314 6.85603 13.6987 6.85309 13.4895 7.05522L12.4228 8.12194C12.2703 8.27445 12.2247 8.50383 12.3072 8.70308C12.3897 8.90234 12.5841 9.03228 12.7998 9.03234Z" />
<path fill-rule="evenodd" clip-rule="evenodd" d="M16.6894 7.05488L12.4226 11.3217C12.284 11.4556 12.2283 11.6539 12.2772 11.8404C12.326 12.0269 12.4716 12.1725 12.658 12.2213C12.8445 12.2701 13.0428 12.2145 13.1768 12.0759L17.4436 7.80903C17.6457 7.59977 17.6428 7.26707 17.4371 7.06138C17.2314 6.85562 16.8987 6.85275 16.6894 7.05488Z" />
</g>
<defs>
<clipPath id="clip0">
<rect width="32" height="32"  transform="translate(0 0.5)"/>
</clipPath>
</defs>
</svg>
