<svg width="32" height="33" viewBox="0 0 32 33" fill="none" xmlns="http://www.w3.org/2000/svg">
<g clip-path="url(#clip0)">
<path d="M28.6407 3.54669H28.5227V2.06456C28.5227 1.80512 28.3124 1.59487 28.053 1.59487H26.144C25.8846 1.59487 25.6743 1.80512 25.6743 2.06456V3.54662H25.5564C25.2969 3.54662 25.0867 3.75688 25.0867 4.01631V9.03994C25.0867 9.29938 25.2969 9.50963 25.5564 9.50963H25.8272V11.2589C25.8272 11.5183 26.0374 11.7286 26.2969 11.7286H26.6289V20.9863C25.3069 18.5496 22.7254 16.8913 19.7639 16.8913C16.8023 16.8913 14.2208 18.5496 12.8989 20.9862V14.9319H13.2309C13.4903 14.9319 13.7006 14.7216 13.7006 14.4622V12.6581C14.7526 12.4271 15.5426 11.4883 15.5426 10.3679V9.41325C15.5426 9.15381 15.3324 8.94356 15.0729 8.94356C14.8136 8.94356 14.6033 9.15381 14.6033 9.41325V10.3679C14.6033 11.143 13.9726 11.7736 13.1975 11.7736H8.78682V5.59594C8.78682 5.3365 8.57657 5.12625 8.31714 5.12625C8.05776 5.12625 7.84745 5.3365 7.84745 5.59594V7.84675H6.22939V2.53425H7.84745V3.71731C7.84745 3.97675 8.0577 4.187 8.31714 4.187C8.57651 4.187 8.78682 3.97675 8.78682 3.71731V1.43931H13.1975C13.9726 1.43931 14.6033 2.06994 14.6033 2.84506V7.53463C14.6033 7.79406 14.8136 8.00431 15.0729 8.00431C15.3323 8.00431 15.5426 7.79406 15.5426 7.53463V2.84506C15.5426 1.552 14.4906 0.5 13.1975 0.5H8.31714C8.05776 0.5 7.84745 0.71025 7.84745 0.969687V1.59494H5.75976C5.50039 1.59494 5.29007 1.80519 5.29007 2.06463V3.24763H3.35982C3.10045 3.24763 2.89014 3.45788 2.89014 3.71731C2.89014 3.97675 3.10045 4.187 3.35982 4.187H5.29007V6.19406H3.35982C3.10045 6.19406 2.89014 6.40431 2.89014 6.66375C2.89014 6.92319 3.10045 7.13344 3.35982 7.13344H5.29007V8.31644C5.29007 8.57588 5.50032 8.78613 5.75976 8.78613H7.84751V12.2434C7.84751 12.5029 8.05776 12.7131 8.3172 12.7131H11.1579V14.4623C11.1579 14.7218 11.3682 14.932 11.6276 14.932H11.9596V24.6957C11.9596 28.9991 15.4606 32.5001 19.7639 32.5001C24.0672 32.5001 27.5683 28.9991 27.5683 24.6957V11.7286H27.9003C28.1597 11.7286 28.3699 11.5183 28.3699 11.2589V9.50963H28.6408C28.9002 9.50963 29.1104 9.29938 29.1104 9.03994V4.01631C29.1103 3.75694 28.9001 3.54669 28.6407 3.54669ZM12.7612 12.7131V13.9926H12.0972V12.7131H12.7612ZM19.7638 31.5607C15.9784 31.5607 12.8988 28.4811 12.8988 24.6957C12.8988 20.9103 15.9784 17.8306 19.7638 17.8306C23.5493 17.8306 26.6288 20.9103 26.6288 24.6957C26.6289 28.4811 23.5493 31.5607 19.7638 31.5607ZM28.171 4.486V8.57025H26.0261V4.486H28.171ZM26.6137 2.53425H27.5833V3.54669H26.6137V2.53425ZM27.4306 10.7892H26.7665V9.50956H27.4305V10.7892H27.4306Z" />
</g>
<defs>
<clipPath id="clip0">
<rect width="32" height="32"  transform="translate(0 0.5)"/>
</clipPath>
</defs>
</svg>
