<svg width="20" height="20" viewBox="0 0 20 20" fill="none" xmlns="http://www.w3.org/2000/svg">
<path d="M17.8419 16.5756C18.4804 16.5756 19 16.056 19 15.4175V6.92479C19 6.28626 18.4804 5.76669 17.8419 5.76669H14.7571L14.0715 3.28332C14.0252 3.11581 13.8732 3 13.6994 3H7.90895C7.73523 3 7.58306 3.11581 7.53687 3.28332L6.85097 5.76669H5.82611V4.29477C5.82611 4.08177 5.65308 3.90874 5.44007 3.90874H2.73784C2.52483 3.90874 2.35181 4.08177 2.35181 4.29477V5.76669H2.1581C1.51958 5.76669 1 6.28626 1 6.92479V15.4175C0.999311 16.0563 1.51892 16.5756 2.1574 16.5756H17.8419ZM17.8423 15.8036H2.15792C1.94525 15.8036 1.77188 15.6302 1.77188 15.4175V8.58848H6.96546C6.37177 9.28524 6.01123 10.1862 6.01123 11.1711C6.01123 13.3708 7.80093 15.16 10.0001 15.16C12.1993 15.16 13.989 13.3708 13.989 11.1711C13.989 10.1864 13.6285 9.28541 13.0348 8.58848H18.2284V15.4175C18.2282 15.6305 18.0548 15.8036 17.8422 15.8036H17.8423ZM13.217 11.1712C13.217 12.945 11.774 14.388 10.0002 14.388C8.22632 14.388 6.78335 12.945 6.78335 11.1712C6.78335 9.3973 8.22632 7.95433 10.0002 7.95433C11.774 7.95433 13.217 9.3973 13.217 11.1712ZM8.20342 3.77255H13.4063L13.957 5.76717H7.65212L8.20342 3.77255ZM3.12454 4.68129H5.05471V5.76717H3.12454V4.68129ZM17.8423 6.53888C18.0549 6.53888 18.2283 6.71226 18.2283 6.92492V7.81659H12.1506C11.5295 7.41711 10.7926 7.18186 10.0003 7.18186C9.2083 7.18186 8.47122 7.41658 7.85012 7.81659H1.77197V6.92492C1.77197 6.71226 1.94534 6.53888 2.158 6.53888H17.8423Z"/>
<path d="M12.1431 4.38358H9.46482C9.25181 4.38358 9.07878 4.55661 9.07878 4.76961C9.07878 4.98262 9.25181 5.15565 9.46482 5.15565H12.1431C12.3561 5.15565 12.5291 4.98262 12.5291 4.76961C12.5291 4.55661 12.3563 4.38358 12.1431 4.38358Z"/>
<path d="M7.43883 11.1712C7.43883 12.5836 8.58797 13.7324 10.0001 13.7324C11.4122 13.7324 12.5614 12.5833 12.5614 11.1712C12.5614 9.75867 11.4122 8.60939 10.0001 8.60939C8.58797 8.60939 7.43883 9.75871 7.43883 11.1712ZM11.7893 11.1712C11.7893 12.1578 10.9864 12.9604 10.0001 12.9604C9.01376 12.9604 8.21085 12.1575 8.21085 11.1712C8.21085 10.1845 9.01376 9.38146 10.0001 9.38146C10.9864 9.38146 11.7893 10.1844 11.7893 11.1712Z"/>
</svg>
