<svg width="40" height="38" viewBox="0 0 40 38" fill="none" xmlns="http://www.w3.org/2000/svg">
<path d="M0 8.89099V7.50887C0 7.15584 0.28699 6.86921 0.641254 6.86921C0.995518 6.86921 1.28251 7.15584 1.28251 7.50887V8.89099C1.28251 9.24438 0.995518 9.53065 0.641254 9.53065C0.28699 9.53065 0 9.24438 0 8.89099ZM4.51275 30.5406H10.03C10.3842 30.5406 10.6712 30.2539 10.6712 29.9009C10.6712 29.5475 10.3842 29.2612 10.03 29.2612H4.51275C4.15849 29.2612 3.8715 29.5475 3.8715 29.9009C3.8715 30.2539 4.15849 30.5406 4.51275 30.5406ZM4.51275 27.9387C4.86666 27.9387 5.15401 27.6525 5.15401 27.2991V24.7861C5.15401 24.4327 4.86666 24.1465 4.51275 24.1465C4.15849 24.1465 3.8715 24.4327 3.8715 24.7861V27.2991C3.8715 27.6525 4.15849 27.9387 4.51275 27.9387ZM7.91226 27.2991V24.7861C7.91226 24.4327 7.62527 24.1465 7.271 24.1465C6.9171 24.1465 6.62975 24.4327 6.62975 24.7861V27.2991C6.62975 27.6525 6.9171 27.9387 7.271 27.9387C7.62527 27.9387 7.91226 27.6525 7.91226 27.2991ZM10.6709 27.2991V24.7861C10.6709 24.4327 10.3839 24.1465 10.0296 24.1465C9.67535 24.1465 9.38836 24.4327 9.38836 24.7861V27.2991C9.38836 27.6525 9.67535 27.9387 10.0296 27.9387C10.3839 27.9387 10.6709 27.6525 10.6709 27.2991ZM39.3584 20.9592C38.8127 21.0106 38.2723 20.8154 37.8859 20.4274C37.3423 19.7806 37.5248 18.704 37.5262 18.6958C37.5584 18.5223 37.5176 18.3435 37.4132 18.2014C37.3087 18.0593 37.1501 17.9662 36.9748 17.9448L34.3418 17.6203V0.63966C34.3418 0.286634 34.0548 0 33.7005 0H0.641254C0.28699 0 0 0.286634 0 0.63966V5.07909C0 5.43247 0.28699 5.71875 0.641254 5.71875C0.995518 5.71875 1.28251 5.43247 1.28251 5.07909V1.27932H11.5687V10.7464C11.5683 10.9756 11.6914 11.1876 11.8908 11.3015C12.0901 11.4157 12.3355 11.4143 12.5338 11.2983L17.1707 8.59115L21.8073 11.2983C22.0055 11.4143 22.251 11.4157 22.4503 11.3015C22.65 11.1876 22.7727 10.9756 22.7727 10.7464V6.48798C22.7727 6.13496 22.4854 5.84832 22.1315 5.84832C21.7772 5.84832 21.4902 6.13496 21.4902 6.48798V9.63167L17.496 7.29862C17.296 7.18154 17.048 7.18154 16.8476 7.29862L12.8537 9.63167V1.27932H21.4902V4.29522C21.4902 4.6486 21.7772 4.93488 22.1315 4.93488C22.4854 4.93488 22.7727 4.6486 22.7727 4.29522V1.27932H33.0593V17.4622L31.4837 17.268C31.4318 17.2615 31.3789 17.2615 31.327 17.268L29.7188 17.4661C29.4884 17.4904 29.2887 17.6367 29.1967 17.8491C29.1051 18.0618 29.1355 18.3071 29.2762 18.4909C29.4172 18.6747 29.6465 18.7682 29.8763 18.7358L31.4057 18.5473L36.2137 19.1391C36.1936 19.8966 36.4345 20.6383 36.8957 21.2405C37.358 21.7784 38.0093 22.1197 38.7161 22.1943V26.1093C38.7161 27.8242 38.5078 30.3807 36.7075 32.769C36.4949 33.0517 36.5525 33.4526 36.836 33.6646C37.119 33.8767 37.5212 33.8192 37.7334 33.5365C39.7645 30.8426 40 28.0066 40 26.1083V21.5989C40 21.2451 39.7127 20.9589 39.3584 20.9592ZM36.3124 34.2322C36.0737 33.9716 35.6683 33.9534 35.4067 34.1908C35.2006 34.3789 34.9791 34.5649 34.7494 34.7448C34.4706 34.9625 34.4216 35.3644 34.6399 35.6429C34.8582 35.9209 35.2611 35.9698 35.5402 35.7521C35.7968 35.5525 36.0412 35.3455 36.2713 35.136C36.5329 34.8979 36.5515 34.4931 36.3124 34.2322ZM31.1645 37.9523C31.3198 38.0159 31.4934 38.0159 31.6487 37.9523C32.4395 37.6336 33.2067 37.2588 33.9439 36.8308C34.2495 36.652 34.3518 36.26 34.1729 35.9552C33.9936 35.6504 33.6007 35.5479 33.2951 35.7267C32.6864 36.0805 32.0559 36.3946 31.4068 36.6673C29.1062 35.6935 27.3245 34.3828 26.1078 32.7683C24.3054 30.3774 24.0968 27.8227 24.0968 26.1093V22.195C24.8035 22.12 25.4551 21.7791 25.9182 21.2412C26.3794 20.6394 26.6206 19.898 26.6017 19.1402L27.628 19.0142C27.9794 18.971 28.2291 18.6515 28.1858 18.3006C28.1425 17.9498 27.8223 17.7006 27.4705 17.7438L25.8441 17.9444C25.6695 17.9665 25.5117 18.0593 25.4072 18.2003C25.303 18.3417 25.2612 18.5195 25.2916 18.6926C25.2934 18.7029 25.4748 19.7802 24.9302 20.427C24.5433 20.8157 24.0019 21.0113 23.4551 20.9592C23.1012 20.9592 22.8139 21.2455 22.8139 21.5989V26.1093C22.7459 28.3482 23.2934 30.5627 24.397 32.5131H1.28251V11.4982C1.28251 11.1452 0.995518 10.8585 0.641254 10.8585C0.28699 10.8585 0 11.1452 0 11.4982V33.1528C0 33.5061 0.28699 33.7924 0.641254 33.7924H25.2909C26.6832 35.5297 28.6528 36.9311 31.1645 37.9523ZM36.4044 26.1575H36.4026L30.9978 31.549C30.6721 31.8738 30.2302 32.0558 29.7693 32.0551C29.3087 32.0541 28.8675 31.8706 28.5426 31.5447L26.407 29.4179C25.7339 28.7397 25.7357 27.6471 26.4109 26.971C27.0876 26.2971 28.1837 26.2971 28.8604 26.971L29.77 27.8784L33.9471 23.7113C34.6263 23.0474 35.7145 23.0524 36.3872 23.7224C37.06 24.3924 37.0668 25.4783 36.4023 26.1565L36.4044 26.1575ZM35.494 24.6151C35.3158 24.4409 35.0306 24.4427 34.8546 24.6187L30.2259 29.237C30.1057 29.3569 29.9425 29.4244 29.7721 29.4244C29.6022 29.4244 29.439 29.3569 29.3188 29.237L27.9557 27.8773C27.7779 27.7053 27.4948 27.7078 27.3202 27.8831C27.1456 28.058 27.1449 28.3407 27.3181 28.517L29.4555 30.6455C29.6337 30.8154 29.9142 30.8154 30.0924 30.6455L35.4958 25.2555C35.6705 25.0774 35.6705 24.7929 35.4955 24.6151H35.494Z" fill="#175CFF"/>
</svg>
