<svg width="32" height="33" viewBox="0 0 32 33" fill="none" xmlns="http://www.w3.org/2000/svg">
<path d="M29.6517 2.38135H19.417C19.1576 2.38135 18.9473 2.59166 18.9473 2.85104C18.9473 3.11041 19.1576 3.32072 19.417 3.32072H29.6516C30.4285 3.32072 31.0606 3.95279 31.0606 4.72972V21.1677H28.8089L28.8088 6.73972C28.8088 5.96279 28.1767 5.33072 27.3998 5.33072H4.60012C3.82319 5.33072 3.19112 5.96279 3.19112 6.73972V21.1677H0.939313V4.72966C0.939313 3.95272 1.57144 3.32066 2.34831 3.32066H17.5383C17.7978 3.32066 18.008 3.11035 18.008 2.85097C18.008 2.5916 17.7978 2.38129 17.5383 2.38129H2.34831C1.05344 2.38135 0 3.43479 0 4.72966V23.7202C0 25.015 1.05344 26.0685 2.34831 26.0685H12.6753L12.2019 29.6785H10.533C10.2736 29.6785 10.0633 29.8888 10.0633 30.1482C10.0633 30.4076 10.2736 30.6179 10.533 30.6179H21.4669C21.7264 30.6179 21.9366 30.4076 21.9366 30.1482C21.9366 29.8888 21.7264 29.6785 21.4669 29.6785H19.7981L19.3248 26.0685H24.3016C24.561 26.0685 24.7712 25.8582 24.7712 25.5988C24.7712 25.3394 24.561 25.1291 24.3016 25.1291H2.34831C1.57144 25.1291 0.939313 24.497 0.939313 23.7201V22.1069H31.0606V23.7201C31.0606 24.497 30.4285 25.1291 29.6516 25.1291H26.1802C25.9207 25.1291 25.7105 25.3394 25.7105 25.5988C25.7105 25.8582 25.9207 26.0685 26.1802 26.0685H29.6516C30.9465 26.0685 31.9999 25.015 31.9999 23.7202V4.72966C32 3.43479 30.9466 2.38135 29.6517 2.38135ZM18.8507 29.6785H13.1493L13.6227 26.0685H18.3773L18.8507 29.6785ZM4.13044 6.73966C4.13044 6.48066 4.34113 6.26997 4.60012 6.26997H27.3999C27.6589 6.26997 27.8696 6.48066 27.8696 6.73966V9.05122H4.13044V6.73966ZM4.13044 9.9906H27.8696V21.1677H25.5862V19.074C25.5862 18.8146 25.3759 18.6043 25.1165 18.6043H17.1243C16.8649 18.6043 16.6546 18.8146 16.6546 19.074V21.1677H15.3453V19.074C15.3453 18.8146 15.1351 18.6043 14.8756 18.6043H6.8835C6.62406 18.6043 6.41381 18.8146 6.41381 19.074V21.1677H4.13044V9.9906ZM24.6468 21.1676H17.594V19.5436H24.6468V21.1676ZM14.406 21.1676H7.35319V19.5436H14.406V21.1676Z" />
<path d="M5.92157 6.90338C5.52382 6.90338 5.2002 7.22701 5.2002 7.62482C5.2002 8.02263 5.52382 8.34619 5.92157 8.34619C6.31932 8.34619 6.64295 8.02257 6.64295 7.62482C6.64301 7.22707 6.31938 6.90338 5.92157 6.90338Z" />
<path d="M8.237 6.90338C7.83925 6.90338 7.51562 7.22701 7.51562 7.62482C7.51562 8.02263 7.83925 8.34619 8.237 8.34619C8.63476 8.34619 8.95838 8.02257 8.95838 7.62482C8.95838 7.22707 8.63476 6.90338 8.237 6.90338Z" />
<path d="M10.5519 6.90338C10.1542 6.90338 9.83057 7.22701 9.83057 7.62482C9.83057 8.02263 10.1542 8.34619 10.5519 8.34619C10.9498 8.34619 11.2734 8.02257 11.2734 7.62482C11.2734 7.22707 10.9498 6.90338 10.5519 6.90338Z" />
<path d="M6.88326 17.4574H10.3001C10.5595 17.4574 10.7698 17.2471 10.7698 16.9877C10.7698 16.7283 10.5595 16.518 10.3001 16.518H7.35289V12.3969H24.6456V16.518H12.1787C11.9193 16.518 11.709 16.7283 11.709 16.9877C11.709 17.2471 11.9193 17.4574 12.1787 17.4574H25.1152C25.3746 17.4574 25.5849 17.2471 25.5849 16.9877V11.9273C25.5849 11.6679 25.3746 11.4576 25.1152 11.4576H6.88326C6.62382 11.4576 6.41357 11.6679 6.41357 11.9273V16.9878C6.41357 17.2471 6.62382 17.4574 6.88326 17.4574Z" />
</svg>
