<svg width="32" height="33" viewBox="0 0 32 33" fill="none" xmlns="http://www.w3.org/2000/svg">
<g>
<path d="M23.6252 32.5H4.14964C2.85477 32.5 1.80133 31.4466 1.80133 30.1517V10.2523C1.80133 9.99294 2.01158 9.78263 2.27102 9.78263C2.53046 9.78263 2.74071 9.99288 2.74071 10.2523V30.1516C2.74071 30.9286 3.37277 31.5606 4.14971 31.5606H23.6253C24.4022 31.5606 25.0343 30.9286 25.0343 30.1516V2.84831C25.0343 2.07138 24.4022 1.43931 23.6253 1.43931H4.14964C3.37271 1.43931 2.74064 2.07138 2.74064 2.84831V8.37362C2.74064 8.633 2.53033 8.84331 2.27096 8.84331C2.01158 8.84331 1.80127 8.633 1.80127 8.37362V2.84831C1.80133 1.55344 2.85477 0.5 4.14964 0.5H23.6252C24.9201 0.5 25.9735 1.55344 25.9735 2.84831V30.1516C25.9735 31.4466 24.9201 32.5 23.6252 32.5Z" />
<path d="M22.9476 28.7861H4.82732C4.22307 28.7861 3.73145 28.2944 3.73145 27.6902V3.52605C3.73145 2.9218 4.22307 2.43018 4.82732 2.43018H22.9476C23.5518 2.43018 24.0434 2.9218 24.0434 3.52605V20.2924C24.0434 20.5518 23.8332 20.7621 23.5738 20.7621C23.3143 20.7621 23.1041 20.5518 23.1041 20.2924V3.52605C23.1041 3.43974 23.0339 3.36949 22.9475 3.36949H4.82732C4.74101 3.36949 4.67076 3.43974 4.67076 3.52605V27.6901C4.67076 27.7764 4.74101 27.8467 4.82732 27.8467H22.9476C23.0339 27.8467 23.1041 27.7764 23.1041 27.6901V22.171C23.1041 21.9117 23.3144 21.7014 23.5738 21.7014C23.8333 21.7014 24.0435 21.9117 24.0435 22.171V27.6901C24.0435 28.2944 23.5519 28.7861 22.9476 28.7861Z" />
<path d="M15.1045 30.6481H12.6699C12.4105 30.6481 12.2002 30.4378 12.2002 30.1784C12.2002 29.9191 12.4104 29.7087 12.6699 29.7087H15.1045C15.3639 29.7087 15.5742 29.9191 15.5742 30.1784C15.5742 30.4378 15.3639 30.6481 15.1045 30.6481Z" />
<path d="M28.6724 29.608C28.5104 29.608 28.3599 29.5246 28.274 29.3872L27.2178 27.6964C27.1712 27.6218 27.1465 27.5356 27.1465 27.4476V4.91644C27.1465 4.07513 27.8309 3.39062 28.6723 3.39062C29.5137 3.39062 30.1982 4.07513 30.1982 4.91644V9.31231C30.1982 9.57169 29.9879 9.782 29.7285 9.782C29.469 9.782 29.2588 9.57169 29.2588 9.31231V4.91644C29.2588 4.59306 28.9957 4.32994 28.6723 4.32994C28.3489 4.32994 28.0858 4.59306 28.0858 4.91644V27.3129L28.6723 28.2518L29.2588 27.3129V11.1909C29.2588 10.9316 29.469 10.7212 29.7285 10.7212C29.9879 10.7212 30.1982 10.9315 30.1982 11.1909V27.4475C30.1982 27.5355 30.1735 27.6217 30.1269 27.6963L29.0707 29.3871C28.9849 29.5246 28.8344 29.608 28.6724 29.608Z" />
<path d="M17.8012 17.6933C17.8012 16.0399 17.426 14.2102 16.7975 12.7985C16.0361 11.0884 14.9738 10.1465 13.8063 10.1465C12.4441 10.1465 11.2286 11.4358 10.4716 13.6839C10.389 13.9292 10.5208 14.195 10.7662 14.2777C11.0113 14.3601 11.2774 14.2284 11.3601 13.983C11.9714 12.1678 12.8859 11.084 13.8063 11.084C14.2551 11.084 15.1292 11.3563 15.9411 13.1799C16.5188 14.4775 16.8637 16.1647 16.8637 17.6933C16.8637 19.5512 15.8628 20.8084 14.2751 21.013V16.0636C14.2751 15.8047 14.0652 15.5948 13.8063 15.5948C13.5475 15.5948 13.3376 15.8047 13.3376 16.0636V21.013C11.7498 20.8084 10.749 19.5513 10.749 17.6934C10.749 17.0642 10.8072 16.4059 10.922 15.7367C10.9658 15.4815 10.7945 15.2392 10.5393 15.1954C10.2843 15.1515 10.0418 15.3231 9.99802 15.5782C9.87427 16.2996 9.81152 17.0113 9.81152 17.6934C9.81152 20.4218 11.5146 21.7607 13.3376 21.9548V24.0408H10.4743C10.2155 24.0408 10.0056 24.2507 10.0056 24.5096C10.0056 24.7684 10.2155 24.9783 10.4743 24.9783H17.2982C17.5571 24.9783 17.767 24.7684 17.767 24.5096C17.767 24.2507 17.5571 24.0408 17.2982 24.0408H14.2751V21.9548C16.0981 21.7607 17.8012 20.4218 17.8012 17.6933Z" />
<path d="M16.025 5.84791C16.0215 5.84779 15.9973 5.84654 15.986 5.84685C15.8048 5.8456 15.046 5.8836 14.4037 6.5616C13.7613 5.8836 13.0025 5.8456 12.8213 5.84685C12.81 5.84654 12.7858 5.84779 12.7823 5.84791C12.5396 5.86566 12.3481 6.06823 12.3481 6.31541C12.3481 6.57429 12.558 6.78416 12.8169 6.78416C12.8206 6.78416 12.828 6.78391 12.828 6.78391C12.8574 6.78341 13.5459 6.77279 13.9934 7.58185C14.076 7.7311 14.233 7.82373 14.4036 7.82373C14.5742 7.82373 14.7312 7.7311 14.8138 7.58185C15.2613 6.77279 15.9498 6.78341 15.9792 6.78391C15.9792 6.78391 15.9865 6.78416 15.9903 6.78416C16.2492 6.78416 16.459 6.57429 16.459 6.31541C16.4592 6.06823 16.2677 5.86566 16.025 5.84791Z" />
<path d="M20.5503 10.0493C20.5468 10.0492 20.5227 10.048 20.5114 10.0483C20.3302 10.047 19.5713 10.085 18.929 10.763C18.2867 10.085 17.5279 10.047 17.3467 10.0483C17.3353 10.048 17.3112 10.0492 17.3077 10.0493C17.065 10.0671 16.8735 10.2696 16.8735 10.5168C16.8735 10.7757 17.0834 10.9856 17.3423 10.9856C17.346 10.9856 17.3534 10.9853 17.3534 10.9853C17.3828 10.9848 18.0713 10.9742 18.5188 11.7833C18.6013 11.9325 18.7584 12.0251 18.929 12.0251C19.0995 12.0251 19.2566 11.9325 19.3392 11.7833C19.7867 10.9742 20.4752 10.9848 20.5045 10.9853C20.5045 10.9853 20.5119 10.9856 20.5157 10.9856C20.7745 10.9856 20.9844 10.7757 20.9844 10.5168C20.9845 10.2696 20.793 10.0671 20.5503 10.0493Z" />
<path d="M10.2051 9.52894C10.2016 9.52882 10.1775 9.52757 10.1662 9.52788C9.98495 9.52663 9.22613 9.56463 8.58382 10.2426C7.94151 9.56463 7.1827 9.52663 7.00145 9.52788C6.99013 9.52757 6.96601 9.52882 6.96251 9.52894C6.71982 9.54669 6.52832 9.74926 6.52832 9.99645C6.52832 10.2553 6.7382 10.4652 6.99707 10.4652C7.00082 10.4652 7.00826 10.4649 7.00826 10.4649C7.03763 10.4644 7.72613 10.4538 8.17363 11.2629C8.2562 11.4121 8.41326 11.5048 8.58382 11.5048C8.75438 11.5048 8.91145 11.4121 8.99401 11.2629C9.44151 10.4538 10.13 10.4644 10.1594 10.4649C10.1594 10.4649 10.1668 10.4652 10.1705 10.4652C10.4294 10.4652 10.6393 10.2553 10.6393 9.99645C10.6393 9.74926 10.4478 9.54669 10.2051 9.52894Z" />
</g>
<defs>
<clipPath>
<rect width="32" height="32"  transform="translate(0 0.5)"/>
</clipPath>
</defs>
</svg>
