<svg width="20" height="20" viewBox="0 0 20 20" fill="none" xmlns="http://www.w3.org/2000/svg">
<path d="M18.8822 8.69005C18.8822 8.00951 18.8822 7.32897 18.8822 6.65599C18.8822 6.21743 18.8822 5.7713 18.8822 5.33273C18.8822 5.0454 18.9429 4.65977 18.7003 4.44804C18.5032 4.27413 18.2454 4.30438 18.0029 4.30438C17.6693 4.30438 17.3282 4.30438 16.9946 4.30438C16.0394 4.30438 15.0767 4.30438 14.1215 4.30438C13.4468 4.30438 12.7722 4.30438 12.0975 4.30438C12.0141 4.30438 11.9307 4.30437 11.8397 4.32705C11.582 4.41023 11.4531 4.6522 11.4531 4.90173C11.4531 5.21175 11.4531 5.52178 11.4531 5.8318C11.4531 6.70893 11.4531 7.5785 11.4531 8.45563C11.4531 8.84127 11.4759 9.21934 11.6047 9.58986C11.8397 10.2628 12.3249 10.8375 12.9541 11.1626C13.2876 11.3366 13.6515 11.4349 14.023 11.4651C14.167 11.4802 14.311 11.4727 14.4475 11.4727C14.9023 11.4727 15.3496 11.4727 15.8044 11.4727C15.9257 11.4727 16.047 11.4727 16.1607 11.4727C16.5398 11.4575 16.9036 11.3744 17.2524 11.2156C17.8967 10.9207 18.4046 10.3762 18.6699 9.7184C18.814 9.39325 18.8822 9.04544 18.8822 8.69005C18.8822 8.53882 18.7458 8.39514 18.5941 8.40271C18.4349 8.41027 18.3061 8.53125 18.3061 8.69005C18.3061 8.77322 18.2985 8.84883 18.2909 8.93201C18.2909 8.93201 18.2833 9.01519 18.2833 8.96982C18.2909 8.92445 18.2758 9.01519 18.2758 9.00762C18.2682 9.05299 18.2606 9.0908 18.253 9.13617C18.2378 9.21178 18.2151 9.2874 18.1924 9.36301C18.1772 9.40082 18.1696 9.43863 18.1545 9.47643C18.1469 9.49912 18.1393 9.51424 18.1317 9.53693C18.109 9.59742 18.1469 9.49913 18.1241 9.55962C18.0559 9.70329 17.9801 9.83938 17.8891 9.96793C17.8816 9.98305 17.8133 10.0662 17.8512 10.0209C17.8285 10.0511 17.8058 10.0813 17.7754 10.1116C17.7224 10.1721 17.6693 10.2326 17.6086 10.2855C17.5556 10.3384 17.4949 10.3914 17.4343 10.4367C17.4798 10.3989 17.4343 10.4367 17.4191 10.4443C17.404 10.4594 17.3812 10.467 17.3661 10.4821C17.3282 10.5048 17.2978 10.5275 17.2599 10.5502C17.1917 10.588 17.1311 10.6258 17.0628 10.6636C17.0249 10.6787 16.9946 10.6938 16.9567 10.7165C16.9112 10.7392 17.0174 10.6938 16.9416 10.7241C16.9188 10.7316 16.8961 10.7392 16.8657 10.7543C16.7141 10.8072 16.5549 10.8526 16.3957 10.8753C16.3806 10.8753 16.3199 10.8829 16.3806 10.8753C16.3654 10.8753 16.3427 10.8829 16.3275 10.8829C16.2896 10.8904 16.2441 10.8904 16.2062 10.8904C16.1607 10.8904 16.1228 10.8904 16.0774 10.8904C15.7211 10.8904 15.3572 10.8904 15.0009 10.8904C14.7962 10.8904 14.5915 10.8904 14.3944 10.8904C14.3489 10.8904 14.3035 10.8904 14.258 10.8904C14.2352 10.8904 14.2049 10.8904 14.1822 10.8904C14.1443 10.8904 14.0988 10.8904 14.0609 10.8829C14.0457 10.8829 14.023 10.8829 14.0078 10.8753C13.9927 10.8753 13.9244 10.8677 13.9775 10.8753C13.8107 10.8526 13.6515 10.8148 13.4923 10.7543C13.4544 10.7392 13.4165 10.7241 13.3862 10.7165C13.3407 10.7014 13.4468 10.7468 13.371 10.709C13.3559 10.7014 13.3407 10.6938 13.3256 10.6863C13.2497 10.6485 13.1739 10.6106 13.0981 10.5653C13.0299 10.5275 12.9693 10.4821 12.9086 10.4367C12.901 10.4292 12.8631 10.4065 12.9086 10.4367C12.8935 10.4292 12.8859 10.4141 12.8707 10.4065C12.8328 10.3763 12.8025 10.346 12.7646 10.3158C12.7115 10.2628 12.6585 10.2099 12.6054 10.157C12.5826 10.1267 12.5523 10.0965 12.5296 10.0738C12.522 10.0587 12.5068 10.0511 12.4993 10.036C12.5372 10.0813 12.4917 10.0209 12.4841 10.0133C12.3855 9.88476 12.3097 9.74109 12.2415 9.59742C12.2339 9.5823 12.2264 9.56717 12.2188 9.55205C12.2415 9.60498 12.2188 9.55205 12.2112 9.53693C12.196 9.49912 12.1809 9.4613 12.1733 9.43106C12.143 9.34788 12.1202 9.26472 12.1051 9.18154C12.0975 9.14373 12.0899 9.11348 12.0823 9.07567C12.0747 9.05299 12.0747 9.03031 12.0747 9.00762C12.0747 8.9925 12.0672 8.93201 12.0747 8.99251C12.0672 8.90933 12.0596 8.82614 12.0596 8.7354C12.0596 8.71272 12.0596 8.68247 12.0596 8.65979C12.0596 7.91876 12.0596 7.17018 12.0596 6.42915C12.0596 6.02083 12.0596 5.62008 12.0596 5.21176C12.0596 5.1059 12.0596 5.00003 12.0596 4.89416C12.0596 4.87904 12.052 4.84124 12.0596 4.86393C12.0596 4.87149 12.0596 4.87148 12.0596 4.87905C12.0672 4.8488 12.0672 4.8488 12.0596 4.87905C12.052 4.87905 12.1126 4.82612 12.0596 4.87905C12.0065 4.93198 12.0596 4.87148 12.0596 4.87905C12.052 4.87905 12.0444 4.88661 12.0368 4.88661C12.0672 4.87905 12.0672 4.87905 12.052 4.87905C12.0444 4.87905 12.0368 4.87905 12.0444 4.87905C12.5675 4.87148 13.0981 4.87905 13.6212 4.87905C14.5612 4.87905 15.5012 4.87905 16.4412 4.87905C17.0628 4.87905 17.6769 4.87905 18.2985 4.87905C18.3137 4.87905 18.3364 4.87905 18.3516 4.87905H18.3591C18.5259 4.87905 18.2303 4.87148 18.344 4.87905C18.3743 4.87905 18.3137 4.84881 18.3516 4.88661C18.3364 4.87149 18.3288 4.87149 18.3137 4.84881C18.3288 4.87149 18.3288 4.87904 18.3212 4.85636C18.3137 4.83367 18.3137 4.84125 18.3212 4.8715C18.3137 4.8715 18.3137 4.82612 18.3137 4.88661C18.3137 4.92442 18.3137 4.96222 18.3137 5.00759C18.3137 5.35542 18.3137 5.71082 18.3137 6.05864C18.3137 6.88285 18.3137 7.70705 18.3137 8.53125C18.3137 8.58418 18.3137 8.63712 18.3137 8.69005C18.3137 8.84128 18.4501 8.98493 18.6017 8.97737C18.7458 8.97737 18.8822 8.8564 18.8822 8.69005Z"/>
<path d="M18.8822 8.69005C18.8822 8.00951 18.8822 7.32897 18.8822 6.65599C18.8822 6.21743 18.8822 5.7713 18.8822 5.33273C18.8822 5.0454 18.9429 4.65977 18.7003 4.44804C18.5032 4.27413 18.2454 4.30438 18.0029 4.30438C17.6693 4.30438 17.3282 4.30438 16.9946 4.30438C16.0394 4.30438 15.0767 4.30438 14.1215 4.30438C13.4468 4.30438 12.7722 4.30438 12.0975 4.30438C12.0141 4.30438 11.9307 4.30437 11.8397 4.32705C11.582 4.41023 11.4531 4.6522 11.4531 4.90173C11.4531 5.21175 11.4531 5.52178 11.4531 5.8318C11.4531 6.70893 11.4531 7.5785 11.4531 8.45563C11.4531 8.84127 11.4759 9.21934 11.6047 9.58986C11.8397 10.2628 12.3249 10.8375 12.9541 11.1626C13.2876 11.3366 13.6515 11.4349 14.023 11.4651C14.167 11.4802 14.311 11.4727 14.4475 11.4727C14.9023 11.4727 15.3496 11.4727 15.8044 11.4727C15.9257 11.4727 16.047 11.4727 16.1607 11.4727C16.5398 11.4575 16.9036 11.3744 17.2524 11.2156C17.8967 10.9207 18.4046 10.3762 18.6699 9.7184C18.814 9.39325 18.8822 9.04544 18.8822 8.69005C18.8822 8.53882 18.7458 8.39514 18.5941 8.40271C18.4349 8.41027 18.3061 8.53125 18.3061 8.69005C18.3061 8.77322 18.2985 8.84883 18.2909 8.93201C18.2909 8.93201 18.2833 9.01519 18.2833 8.96982C18.2909 8.92445 18.2758 9.01519 18.2758 9.00762C18.2682 9.05299 18.2606 9.0908 18.253 9.13617C18.2378 9.21178 18.2151 9.2874 18.1924 9.36301C18.1772 9.40082 18.1696 9.43863 18.1545 9.47643C18.1469 9.49912 18.1393 9.51424 18.1317 9.53693C18.109 9.59742 18.1469 9.49913 18.1241 9.55962C18.0559 9.70329 17.9801 9.83938 17.8891 9.96793C17.8816 9.98305 17.8133 10.0662 17.8512 10.0209C17.8285 10.0511 17.8058 10.0813 17.7754 10.1116C17.7224 10.1721 17.6693 10.2326 17.6086 10.2855C17.5556 10.3384 17.4949 10.3914 17.4343 10.4367C17.4798 10.3989 17.4343 10.4367 17.4191 10.4443C17.404 10.4594 17.3812 10.467 17.3661 10.4821C17.3282 10.5048 17.2978 10.5275 17.2599 10.5502C17.1917 10.588 17.1311 10.6258 17.0628 10.6636C17.0249 10.6787 16.9946 10.6938 16.9567 10.7165C16.9112 10.7392 17.0174 10.6938 16.9416 10.7241C16.9188 10.7316 16.8961 10.7392 16.8657 10.7543C16.7141 10.8072 16.5549 10.8526 16.3957 10.8753C16.3806 10.8753 16.3199 10.8829 16.3806 10.8753C16.3654 10.8753 16.3427 10.8829 16.3275 10.8829C16.2896 10.8904 16.2441 10.8904 16.2062 10.8904C16.1607 10.8904 16.1228 10.8904 16.0774 10.8904C15.7211 10.8904 15.3572 10.8904 15.0009 10.8904C14.7962 10.8904 14.5915 10.8904 14.3944 10.8904C14.3489 10.8904 14.3035 10.8904 14.258 10.8904C14.2352 10.8904 14.2049 10.8904 14.1822 10.8904C14.1443 10.8904 14.0988 10.8904 14.0609 10.8829C14.0457 10.8829 14.023 10.8829 14.0078 10.8753C13.9927 10.8753 13.9244 10.8677 13.9775 10.8753C13.8107 10.8526 13.6515 10.8148 13.4923 10.7543C13.4544 10.7392 13.4165 10.7241 13.3862 10.7165C13.3407 10.7014 13.4468 10.7468 13.371 10.709C13.3559 10.7014 13.3407 10.6938 13.3256 10.6863C13.2497 10.6485 13.1739 10.6106 13.0981 10.5653C13.0299 10.5275 12.9693 10.4821 12.9086 10.4367C12.901 10.4292 12.8631 10.4065 12.9086 10.4367C12.8935 10.4292 12.8859 10.4141 12.8707 10.4065C12.8328 10.3763 12.8025 10.346 12.7646 10.3158C12.7115 10.2628 12.6585 10.2099 12.6054 10.157C12.5826 10.1267 12.5523 10.0965 12.5296 10.0738C12.522 10.0587 12.5068 10.0511 12.4993 10.036C12.5372 10.0813 12.4917 10.0209 12.4841 10.0133C12.3855 9.88476 12.3097 9.74109 12.2415 9.59742C12.2339 9.5823 12.2264 9.56717 12.2188 9.55205C12.2415 9.60498 12.2188 9.55205 12.2112 9.53693C12.196 9.49912 12.1809 9.4613 12.1733 9.43106C12.143 9.34788 12.1202 9.26472 12.1051 9.18154C12.0975 9.14373 12.0899 9.11348 12.0823 9.07567C12.0747 9.05299 12.0747 9.03031 12.0747 9.00762C12.0747 8.9925 12.0672 8.93201 12.0747 8.99251C12.0672 8.90933 12.0596 8.82614 12.0596 8.7354C12.0596 8.71272 12.0596 8.68247 12.0596 8.65979C12.0596 7.91876 12.0596 7.17018 12.0596 6.42915C12.0596 6.02083 12.0596 5.62008 12.0596 5.21176C12.0596 5.1059 12.0596 5.00003 12.0596 4.89416C12.0596 4.87904 12.052 4.84124 12.0596 4.86393C12.0596 4.87149 12.0596 4.87148 12.0596 4.87905C12.0672 4.8488 12.0672 4.8488 12.0596 4.87905C12.052 4.87905 12.1126 4.82612 12.0596 4.87905C12.0065 4.93198 12.0596 4.87148 12.0596 4.87905C12.052 4.87905 12.0444 4.88661 12.0368 4.88661C12.0672 4.87905 12.0672 4.87905 12.052 4.87905C12.0444 4.87905 12.0368 4.87905 12.0444 4.87905C12.5675 4.87148 13.0981 4.87905 13.6212 4.87905C14.5612 4.87905 15.5012 4.87905 16.4412 4.87905C17.0628 4.87905 17.6769 4.87905 18.2985 4.87905C18.3137 4.87905 18.3364 4.87905 18.3516 4.87905H18.3591C18.5259 4.87905 18.2303 4.87148 18.344 4.87905C18.3743 4.87905 18.3137 4.84881 18.3516 4.88661C18.3364 4.87149 18.3288 4.87149 18.3137 4.84881C18.3288 4.87149 18.3288 4.87904 18.3212 4.85636C18.3137 4.83367 18.3137 4.84125 18.3212 4.8715C18.3137 4.8715 18.3137 4.82612 18.3137 4.88661C18.3137 4.92442 18.3137 4.96222 18.3137 5.00759C18.3137 5.35542 18.3137 5.71082 18.3137 6.05864C18.3137 6.88285 18.3137 7.70705 18.3137 8.53125C18.3137 8.58418 18.3137 8.63712 18.3137 8.69005C18.3137 8.84128 18.4501 8.98493 18.6017 8.97737C18.7458 8.97737 18.8822 8.8564 18.8822 8.69005Z"/>
<path d="M18.8822 8.69005C18.8822 8.00951 18.8822 7.32897 18.8822 6.65599C18.8822 6.21743 18.8822 5.7713 18.8822 5.33273C18.8822 5.0454 18.9429 4.65977 18.7003 4.44804C18.5032 4.27413 18.2454 4.30438 18.0029 4.30438C17.6693 4.30438 17.3282 4.30438 16.9946 4.30438C16.0394 4.30438 15.0767 4.30438 14.1215 4.30438C13.4468 4.30438 12.7722 4.30438 12.0975 4.30438C12.0141 4.30438 11.9307 4.30437 11.8397 4.32705C11.582 4.41023 11.4531 4.6522 11.4531 4.90173C11.4531 5.21175 11.4531 5.52178 11.4531 5.8318C11.4531 6.70893 11.4531 7.5785 11.4531 8.45563C11.4531 8.84127 11.4759 9.21934 11.6047 9.58986C11.8397 10.2628 12.3249 10.8375 12.9541 11.1626C13.2876 11.3366 13.6515 11.4349 14.023 11.4651C14.167 11.4802 14.311 11.4727 14.4475 11.4727C14.9023 11.4727 15.3496 11.4727 15.8044 11.4727C15.9257 11.4727 16.047 11.4727 16.1607 11.4727C16.5398 11.4575 16.9036 11.3744 17.2524 11.2156C17.8967 10.9207 18.4046 10.3762 18.6699 9.7184C18.814 9.39325 18.8822 9.04544 18.8822 8.69005ZM18.8822 8.69005C18.8822 8.53882 18.7458 8.39514 18.5941 8.40271C18.4349 8.41027 18.3061 8.53125 18.3061 8.69005C18.3061 8.77322 18.2985 8.84883 18.2909 8.93201C18.2909 8.93201 18.2833 9.01519 18.2833 8.96982C18.2909 8.92445 18.2758 9.01519 18.2758 9.00762C18.2682 9.05299 18.2606 9.0908 18.253 9.13617C18.2378 9.21178 18.2151 9.2874 18.1924 9.36301C18.1772 9.40082 18.1696 9.43863 18.1545 9.47643C18.1469 9.49912 18.1393 9.51424 18.1317 9.53693C18.109 9.59742 18.1469 9.49912 18.1241 9.55962C18.0559 9.70328 17.9801 9.83938 17.8891 9.96793C17.8816 9.98305 17.8133 10.0662 17.8512 10.0209C17.8285 10.0511 17.8058 10.0813 17.7754 10.1116C17.7224 10.1721 17.6693 10.2326 17.6086 10.2855C17.5556 10.3384 17.4949 10.3914 17.4343 10.4367C17.4798 10.3989 17.4343 10.4367 17.4191 10.4443C17.404 10.4594 17.3812 10.467 17.3661 10.4821C17.3282 10.5048 17.2978 10.5275 17.2599 10.5502C17.1917 10.588 17.1311 10.6258 17.0628 10.6636C17.0249 10.6787 16.9946 10.6938 16.9567 10.7165C16.9112 10.7392 17.0174 10.6938 16.9416 10.7241C16.9188 10.7316 16.8961 10.7392 16.8657 10.7543C16.7141 10.8072 16.5549 10.8526 16.3957 10.8753C16.3806 10.8753 16.3199 10.8829 16.3806 10.8753C16.3654 10.8753 16.3427 10.8829 16.3275 10.8829C16.2896 10.8904 16.2441 10.8904 16.2062 10.8904C16.1607 10.8904 16.1228 10.8904 16.0774 10.8904C15.7211 10.8904 15.3572 10.8904 15.0009 10.8904C14.7962 10.8904 14.5915 10.8904 14.3944 10.8904C14.3489 10.8904 14.3035 10.8904 14.258 10.8904C14.2352 10.8904 14.2049 10.8904 14.1822 10.8904C14.1443 10.8904 14.0988 10.8904 14.0609 10.8829C14.0457 10.8829 14.023 10.8829 14.0078 10.8753C13.9927 10.8753 13.9244 10.8677 13.9775 10.8753C13.8107 10.8526 13.6515 10.8148 13.4923 10.7543C13.4544 10.7392 13.4165 10.7241 13.3862 10.7165C13.3407 10.7014 13.4468 10.7468 13.371 10.709C13.3559 10.7014 13.3407 10.6938 13.3256 10.6863C13.2497 10.6485 13.1739 10.6106 13.0981 10.5653C13.0299 10.5275 12.9693 10.4821 12.9086 10.4367C12.901 10.4292 12.8631 10.4065 12.9086 10.4367C12.8935 10.4292 12.8859 10.4141 12.8707 10.4065C12.8328 10.3763 12.8025 10.346 12.7646 10.3158C12.7115 10.2628 12.6585 10.2099 12.6054 10.157C12.5826 10.1267 12.5523 10.0965 12.5296 10.0738C12.522 10.0587 12.5068 10.0511 12.4993 10.036C12.5372 10.0813 12.4917 10.0209 12.4841 10.0133C12.3855 9.88476 12.3097 9.74109 12.2415 9.59742C12.2339 9.5823 12.2264 9.56717 12.2188 9.55205C12.2415 9.60498 12.2188 9.55205 12.2112 9.53693C12.196 9.49912 12.1809 9.4613 12.1733 9.43106C12.143 9.34788 12.1202 9.26472 12.1051 9.18154C12.0975 9.14374 12.0899 9.11348 12.0823 9.07567C12.0747 9.05299 12.0747 9.03031 12.0747 9.00762C12.0747 8.9925 12.0672 8.93201 12.0747 8.99251C12.0672 8.90933 12.0596 8.82614 12.0596 8.7354C12.0596 8.71272 12.0596 8.68247 12.0596 8.65979C12.0596 7.91876 12.0596 7.17018 12.0596 6.42915C12.0596 6.02083 12.0596 5.62008 12.0596 5.21176C12.0596 5.1059 12.0596 5.00003 12.0596 4.89416C12.0596 4.87904 12.052 4.84124 12.0596 4.86393C12.0596 4.87149 12.0596 4.87148 12.0596 4.87905C12.0672 4.8488 12.0672 4.8488 12.0596 4.87905C12.052 4.87905 12.1126 4.82612 12.0596 4.87905C12.0065 4.93198 12.0596 4.87148 12.0596 4.87905C12.052 4.87905 12.0444 4.88661 12.0368 4.88661C12.0672 4.87905 12.0672 4.87905 12.052 4.87905C12.0444 4.87905 12.0368 4.87905 12.0444 4.87905C12.5675 4.87148 13.0981 4.87905 13.6212 4.87905C14.5612 4.87905 15.5012 4.87905 16.4412 4.87905C17.0628 4.87905 17.6769 4.87905 18.2985 4.87905C18.3137 4.87905 18.3364 4.87905 18.3516 4.87905H18.3591C18.5259 4.87905 18.2303 4.87148 18.344 4.87905C18.3743 4.87905 18.3137 4.84881 18.3516 4.88661C18.3364 4.87149 18.3288 4.87149 18.3137 4.84881C18.3288 4.87149 18.3288 4.87904 18.3212 4.85636C18.3137 4.83367 18.3137 4.84125 18.3212 4.8715C18.3137 4.8715 18.3137 4.82612 18.3137 4.88661C18.3137 4.92442 18.3137 4.96222 18.3137 5.00759C18.3137 5.35542 18.3137 5.71082 18.3137 6.05864C18.3137 6.88285 18.3137 7.70704 18.3137 8.53125C18.3137 8.58418 18.3137 8.63712 18.3137 8.69005C18.3137 8.84128 18.4501 8.98493 18.6017 8.97737C18.7458 8.97737 18.8822 8.8564 18.8822 8.69005Z"/>
<path d="M17.5164 4.59171C17.5164 3.85068 17.5164 3.10966 17.5164 2.36864C17.5164 2.09642 17.524 1.82421 17.5164 1.55199C17.5089 1.23441 17.2587 1.00756 16.9403 1C16.8418 1 16.7356 1 16.6371 1C15.7426 1 14.848 1 13.9535 1C13.8019 1 13.6579 1 13.5062 1C13.3698 1 13.2485 1 13.1196 1.0605C12.8922 1.17392 12.8164 1.40077 12.8164 1.63518C12.8164 1.77884 12.8164 1.92251 12.8164 2.06618C12.8164 2.89038 12.8164 3.70703 12.8164 4.53123C12.8164 4.54635 12.8164 4.56903 12.8164 4.58416C12.8164 4.74295 12.9529 4.8715 13.1045 4.8715C13.5669 4.8715 14.0293 4.8715 14.4917 4.8715C15.2271 4.8715 15.97 4.8715 16.7053 4.8715C16.8721 4.8715 17.0464 4.8715 17.2132 4.8715C17.38 4.87906 17.524 4.7505 17.5164 4.59171C17.5089 4.43291 17.3876 4.30438 17.2284 4.30438C16.7659 4.30438 16.3035 4.30438 15.8411 4.30438C15.1058 4.30438 14.3629 4.30438 13.6275 4.30438C13.4608 4.30438 13.2864 4.30438 13.1196 4.30438C13.2182 4.40268 13.3167 4.50097 13.4077 4.59171C13.4077 3.88093 13.4077 3.17015 13.4077 2.45937C13.4077 2.26277 13.4077 2.07374 13.4077 1.87714C13.4077 1.77884 13.4229 1.66542 13.4077 1.57468C13.4077 1.56712 13.4077 1.56712 13.4077 1.55956L13.4001 1.58225C13.4001 1.57469 13.4077 1.56712 13.4077 1.55956C13.3925 1.58225 13.3925 1.5898 13.4077 1.57468C13.438 1.55956 13.385 1.59737 13.3774 1.59737C13.385 1.58981 13.3925 1.58981 13.4001 1.58225C13.3698 1.59737 13.3698 1.59737 13.4001 1.58225C13.4001 1.58225 13.3622 1.5898 13.385 1.5898C13.3925 1.5898 13.4077 1.5898 13.4153 1.5898C13.5214 1.5898 13.6351 1.5898 13.7412 1.5898C14.613 1.5898 15.4848 1.5898 16.3566 1.5898C16.5082 1.5898 16.6522 1.5898 16.8039 1.5898C16.8493 1.5898 16.8872 1.5898 16.9327 1.5898C16.9403 1.5898 16.9555 1.5898 16.963 1.5898H16.9706C16.9176 1.5898 16.9782 1.58224 16.9706 1.5898C16.9706 1.59736 16.9176 1.54443 16.9706 1.5898C16.9555 1.57468 16.9479 1.56712 16.9327 1.55199C16.9706 1.59736 16.9403 1.53688 16.9403 1.55956C16.9479 1.6503 16.9403 1.43858 16.9403 1.54444C16.9403 1.552 16.9403 1.55956 16.9403 1.55956C16.9327 1.59737 16.9403 1.63517 16.9403 1.66541C16.9403 1.82421 16.9403 1.98299 16.9403 2.13422C16.9403 2.92818 16.9403 3.72213 16.9403 4.51609C16.9403 4.53121 16.9403 4.55391 16.9403 4.56904C16.9403 4.72027 17.0768 4.86392 17.2284 4.85636C17.3876 4.87148 17.5164 4.75806 17.5164 4.59171Z"/>
<path d="M17.5164 4.59171C17.5164 3.85068 17.5164 3.10966 17.5164 2.36864C17.5164 2.09642 17.524 1.82421 17.5164 1.55199C17.5089 1.23441 17.2587 1.00756 16.9403 1C16.8418 1 16.7356 1 16.6371 1C15.7426 1 14.848 1 13.9535 1C13.8019 1 13.6579 1 13.5062 1C13.3698 1 13.2485 1 13.1196 1.0605C12.8922 1.17392 12.8164 1.40077 12.8164 1.63518C12.8164 1.77884 12.8164 1.92251 12.8164 2.06618C12.8164 2.89038 12.8164 3.70703 12.8164 4.53123C12.8164 4.54635 12.8164 4.56903 12.8164 4.58416C12.8164 4.74295 12.9529 4.8715 13.1045 4.8715C13.5669 4.8715 14.0293 4.8715 14.4917 4.8715C15.2271 4.8715 15.97 4.8715 16.7053 4.8715C16.8721 4.8715 17.0464 4.8715 17.2132 4.8715C17.38 4.87906 17.524 4.7505 17.5164 4.59171C17.5089 4.43291 17.3876 4.30438 17.2284 4.30438C16.7659 4.30438 16.3035 4.30438 15.8411 4.30438C15.1058 4.30438 14.3629 4.30438 13.6275 4.30438C13.4608 4.30438 13.2864 4.30438 13.1196 4.30438C13.2182 4.40268 13.3167 4.50097 13.4077 4.59171C13.4077 3.88093 13.4077 3.17015 13.4077 2.45937C13.4077 2.26277 13.4077 2.07374 13.4077 1.87714C13.4077 1.77884 13.4229 1.66542 13.4077 1.57468C13.4077 1.56712 13.4077 1.56712 13.4077 1.55956L13.4001 1.58225C13.4001 1.57469 13.4077 1.56712 13.4077 1.55956C13.3925 1.58225 13.3925 1.5898 13.4077 1.57468C13.438 1.55956 13.385 1.59737 13.3774 1.59737C13.385 1.58981 13.3925 1.58981 13.4001 1.58225C13.3698 1.59737 13.3698 1.59737 13.4001 1.58225C13.4001 1.58225 13.3622 1.5898 13.385 1.5898C13.3925 1.5898 13.4077 1.5898 13.4153 1.5898C13.5214 1.5898 13.6351 1.5898 13.7412 1.5898C14.613 1.5898 15.4848 1.5898 16.3566 1.5898C16.5082 1.5898 16.6522 1.5898 16.8039 1.5898C16.8493 1.5898 16.8872 1.5898 16.9327 1.5898C16.9403 1.5898 16.9555 1.5898 16.963 1.5898H16.9706C16.9176 1.5898 16.9782 1.58224 16.9706 1.5898C16.9706 1.59736 16.9176 1.54443 16.9706 1.5898C16.9555 1.57468 16.9479 1.56712 16.9327 1.55199C16.9706 1.59736 16.9403 1.53688 16.9403 1.55956C16.9479 1.6503 16.9403 1.43858 16.9403 1.54444C16.9403 1.552 16.9403 1.55956 16.9403 1.55956C16.9327 1.59737 16.9403 1.63517 16.9403 1.66541C16.9403 1.82421 16.9403 1.98299 16.9403 2.13422C16.9403 2.92818 16.9403 3.72213 16.9403 4.51609C16.9403 4.53121 16.9403 4.55391 16.9403 4.56904C16.9403 4.72027 17.0768 4.86392 17.2284 4.85636C17.3876 4.87148 17.5164 4.75806 17.5164 4.59171Z"/>
<path d="M17.5164 4.59171C17.5164 3.85068 17.5164 3.10966 17.5164 2.36864C17.5164 2.09642 17.524 1.82421 17.5164 1.55199C17.5089 1.23441 17.2587 1.00756 16.9403 1C16.8418 1 16.7356 1 16.6371 1C15.7426 1 14.848 1 13.9535 1C13.8019 1 13.6579 1 13.5062 1C13.3698 1 13.2485 1 13.1196 1.0605C12.8922 1.17392 12.8164 1.40077 12.8164 1.63518C12.8164 1.77884 12.8164 1.92251 12.8164 2.06618C12.8164 2.89038 12.8164 3.70703 12.8164 4.53123C12.8164 4.54635 12.8164 4.56903 12.8164 4.58416C12.8164 4.74295 12.9529 4.8715 13.1045 4.8715C13.5669 4.8715 14.0293 4.8715 14.4917 4.8715C15.2271 4.8715 15.97 4.8715 16.7053 4.8715C16.8721 4.8715 17.0464 4.8715 17.2132 4.8715C17.38 4.87906 17.524 4.7505 17.5164 4.59171ZM17.5164 4.59171C17.5089 4.43291 17.3876 4.30438 17.2284 4.30438C16.7659 4.30438 16.3035 4.30438 15.8411 4.30438C15.1058 4.30438 14.3629 4.30438 13.6275 4.30438C13.4608 4.30438 13.2864 4.30438 13.1196 4.30438C13.2182 4.40268 13.3167 4.50097 13.4077 4.59171C13.4077 3.88093 13.4077 3.17015 13.4077 2.45937C13.4077 2.26277 13.4077 2.07374 13.4077 1.87714C13.4077 1.77884 13.4229 1.66542 13.4077 1.57468C13.4077 1.56712 13.4077 1.56712 13.4077 1.55956L13.4001 1.58225C13.4001 1.57469 13.4077 1.56712 13.4077 1.55956C13.3925 1.58225 13.3925 1.5898 13.4077 1.57468C13.438 1.55956 13.385 1.59737 13.3774 1.59737C13.385 1.58981 13.3925 1.58981 13.4001 1.58225C13.3698 1.59737 13.3698 1.59737 13.4001 1.58225C13.4001 1.58225 13.3622 1.5898 13.385 1.5898C13.3925 1.5898 13.4077 1.5898 13.4153 1.5898C13.5214 1.5898 13.6351 1.5898 13.7412 1.5898C14.613 1.5898 15.4848 1.5898 16.3566 1.5898C16.5082 1.5898 16.6522 1.5898 16.8039 1.5898C16.8493 1.5898 16.8872 1.5898 16.9327 1.5898C16.9403 1.5898 16.9555 1.5898 16.963 1.5898H16.9706C16.9176 1.5898 16.9782 1.58224 16.9706 1.5898C16.9706 1.59736 16.9176 1.54443 16.9706 1.5898C16.9555 1.57468 16.9479 1.56712 16.9327 1.55199C16.9706 1.59736 16.9403 1.53688 16.9403 1.55956C16.9479 1.6503 16.9403 1.43858 16.9403 1.54444C16.9403 1.552 16.9403 1.55956 16.9403 1.55956C16.9327 1.59737 16.9403 1.63517 16.9403 1.66541C16.9403 1.82421 16.9403 1.98299 16.9403 2.13422C16.9403 2.92818 16.9403 3.72213 16.9403 4.51609C16.9403 4.53121 16.9403 4.55391 16.9403 4.56904C16.9403 4.72027 17.0768 4.86392 17.2284 4.85636C17.3876 4.87148 17.5164 4.75806 17.5164 4.59171Z"/>
<path d="M5.69943 9.42356C5.69943 8.50862 5.69943 7.60125 5.69943 6.68631C5.69943 6.57289 5.69943 6.45945 5.69943 6.35359C5.69185 6.05113 5.45685 5.81672 5.14604 5.8016C5.11572 5.8016 5.0854 5.8016 5.05507 5.8016C4.54717 5.8016 4.03926 5.8016 3.53135 5.8016C3.27361 5.8016 3.02345 5.8016 2.7657 5.8016C2.54586 5.8016 2.32602 5.78649 2.15925 5.9604C1.99247 6.12675 2.00005 6.33092 2.00005 6.53508C2.00005 6.76192 2.00005 6.9812 2.00005 7.20804C2.00005 7.77516 2.00005 8.34984 2.00005 8.91695C2.00005 9.07574 2.00005 9.23453 2.00005 9.38576C2.00005 9.71846 2.24263 9.96043 2.57618 9.96799C3.03861 9.97555 3.50103 9.96799 3.96345 9.96799C4.35765 9.96799 4.75943 9.98311 5.16121 9.96799C5.45685 9.96799 5.68427 9.73358 5.69943 9.42356C5.70701 9.27233 5.56298 9.12866 5.41137 9.13622C5.24459 9.14378 5.13088 9.26477 5.1233 9.42356C5.1233 9.416 5.1233 9.40844 5.13088 9.40088C5.1233 9.43112 5.1233 9.43112 5.13088 9.40088C5.1233 9.40844 5.1233 9.416 5.11572 9.42356C5.1233 9.40844 5.13088 9.39332 5.15362 9.38576C5.10814 9.42356 5.16879 9.39331 5.14604 9.39331C5.06266 9.40087 5.25217 9.39331 5.16121 9.39331C5.15362 9.39331 5.13846 9.39331 5.13088 9.39331C5.07024 9.39331 5.00959 9.39331 4.95653 9.39331C4.72152 9.39331 4.48652 9.39331 4.2591 9.39331C3.75119 9.39331 3.24329 9.39331 2.73538 9.39331C2.6899 9.39331 2.62925 9.38575 2.57618 9.39331C2.57618 9.39331 2.5686 9.39331 2.56102 9.39331C2.59893 9.39331 2.55344 9.40087 2.56102 9.39331C2.56102 9.38575 2.61409 9.43868 2.56102 9.39331C2.5686 9.40087 2.57619 9.40088 2.58377 9.40844C2.59893 9.43869 2.59893 9.43869 2.58377 9.40844C2.58377 9.41601 2.59135 9.42355 2.59135 9.43111C2.58377 9.40087 2.58377 9.40087 2.59135 9.43111C2.59135 9.32525 2.59135 9.21941 2.59135 9.10598C2.59135 8.58424 2.59135 8.05493 2.59135 7.53319C2.59135 7.28366 2.59135 7.04169 2.59135 6.79216C2.59135 6.65606 2.60651 6.5124 2.59135 6.38385C2.59135 6.37629 2.59135 6.36872 2.59135 6.36116C2.59135 6.36872 2.59135 6.37629 2.58377 6.38385C2.59135 6.3536 2.59135 6.3536 2.58377 6.38385C2.57619 6.38385 2.63683 6.33092 2.58377 6.38385C2.57619 6.39141 2.5686 6.39141 2.56102 6.39897C2.59134 6.38385 2.59134 6.38385 2.56102 6.39897C2.55344 6.38385 2.62925 6.39897 2.56102 6.39897C2.59134 6.39897 2.62925 6.39897 2.65957 6.39897C2.86425 6.39897 3.06135 6.39897 3.26603 6.39897C3.79668 6.39897 4.32733 6.39897 4.85039 6.39897C4.9262 6.39897 5.00959 6.39897 5.0854 6.39897C5.10056 6.39897 5.1233 6.39897 5.13846 6.39897C5.14604 6.39897 5.14604 6.39897 5.15362 6.39897C5.11572 6.39897 5.1612 6.39141 5.15362 6.39897C5.14604 6.39897 5.13846 6.3914 5.13088 6.3914C5.1612 6.40652 5.1612 6.40652 5.13088 6.3914C5.0854 6.34603 5.13846 6.4141 5.1233 6.38385C5.10814 6.3536 5.1233 6.43677 5.1233 6.37628C5.1233 6.38384 5.1233 6.39896 5.1233 6.40652C5.1233 6.45945 5.1233 6.51996 5.1233 6.57289C5.1233 7.50295 5.1233 8.44057 5.1233 9.37064C5.1233 9.39332 5.1233 9.42357 5.1233 9.44625C5.1233 9.59748 5.25975 9.74113 5.41137 9.73357C5.56298 9.71089 5.69943 9.58992 5.69943 9.42356Z"/>
<path d="M5.69943 9.42356C5.69943 8.50862 5.69943 7.60125 5.69943 6.68631C5.69943 6.57289 5.69943 6.45945 5.69943 6.35359C5.69185 6.05113 5.45685 5.81672 5.14604 5.8016C5.11572 5.8016 5.0854 5.8016 5.05507 5.8016C4.54717 5.8016 4.03926 5.8016 3.53135 5.8016C3.27361 5.8016 3.02345 5.8016 2.7657 5.8016C2.54586 5.8016 2.32602 5.78649 2.15925 5.9604C1.99247 6.12675 2.00005 6.33092 2.00005 6.53508C2.00005 6.76192 2.00005 6.9812 2.00005 7.20804C2.00005 7.77516 2.00005 8.34984 2.00005 8.91695C2.00005 9.07574 2.00005 9.23453 2.00005 9.38576C2.00005 9.71846 2.24263 9.96043 2.57618 9.96799C3.03861 9.97555 3.50103 9.96799 3.96345 9.96799C4.35765 9.96799 4.75943 9.98311 5.16121 9.96799C5.45685 9.96799 5.68427 9.73358 5.69943 9.42356C5.70701 9.27233 5.56298 9.12866 5.41137 9.13622C5.24459 9.14378 5.13088 9.26477 5.1233 9.42356C5.1233 9.416 5.1233 9.40844 5.13088 9.40088C5.1233 9.43112 5.1233 9.43112 5.13088 9.40088C5.1233 9.40844 5.1233 9.416 5.11572 9.42356C5.1233 9.40844 5.13088 9.39332 5.15362 9.38576C5.10814 9.42356 5.16879 9.39331 5.14604 9.39331C5.06266 9.40087 5.25217 9.39331 5.16121 9.39331C5.15362 9.39331 5.13846 9.39331 5.13088 9.39331C5.07024 9.39331 5.00959 9.39331 4.95653 9.39331C4.72152 9.39331 4.48652 9.39331 4.2591 9.39331C3.75119 9.39331 3.24329 9.39331 2.73538 9.39331C2.6899 9.39331 2.62925 9.38575 2.57618 9.39331C2.57618 9.39331 2.5686 9.39331 2.56102 9.39331C2.59893 9.39331 2.55344 9.40087 2.56102 9.39331C2.56102 9.38575 2.61409 9.43868 2.56102 9.39331C2.5686 9.40087 2.57619 9.40088 2.58377 9.40844C2.59893 9.43869 2.59893 9.43869 2.58377 9.40844C2.58377 9.41601 2.59135 9.42355 2.59135 9.43111C2.58377 9.40087 2.58377 9.40087 2.59135 9.43111C2.59135 9.32525 2.59135 9.21941 2.59135 9.10598C2.59135 8.58424 2.59135 8.05493 2.59135 7.53319C2.59135 7.28366 2.59135 7.04169 2.59135 6.79216C2.59135 6.65606 2.60651 6.5124 2.59135 6.38385C2.59135 6.37629 2.59135 6.36872 2.59135 6.36116C2.59135 6.36872 2.59135 6.37629 2.58377 6.38385C2.59135 6.3536 2.59135 6.3536 2.58377 6.38385C2.57619 6.38385 2.63683 6.33092 2.58377 6.38385C2.57619 6.39141 2.5686 6.39141 2.56102 6.39897C2.59134 6.38385 2.59134 6.38385 2.56102 6.39897C2.55344 6.38385 2.62925 6.39897 2.56102 6.39897C2.59134 6.39897 2.62925 6.39897 2.65957 6.39897C2.86425 6.39897 3.06135 6.39897 3.26603 6.39897C3.79668 6.39897 4.32733 6.39897 4.85039 6.39897C4.9262 6.39897 5.00959 6.39897 5.0854 6.39897C5.10056 6.39897 5.1233 6.39897 5.13846 6.39897C5.14604 6.39897 5.14604 6.39897 5.15362 6.39897C5.11572 6.39897 5.1612 6.39141 5.15362 6.39897C5.14604 6.39897 5.13846 6.3914 5.13088 6.3914C5.1612 6.40652 5.1612 6.40652 5.13088 6.3914C5.0854 6.34603 5.13846 6.4141 5.1233 6.38385C5.10814 6.3536 5.1233 6.43677 5.1233 6.37628C5.1233 6.38384 5.1233 6.39896 5.1233 6.40652C5.1233 6.45945 5.1233 6.51996 5.1233 6.57289C5.1233 7.50295 5.1233 8.44057 5.1233 9.37064C5.1233 9.39332 5.1233 9.42357 5.1233 9.44625C5.1233 9.59748 5.25975 9.74113 5.41137 9.73357C5.56298 9.71089 5.69943 9.58992 5.69943 9.42356Z"/>
<path d="M5.69943 9.42356C5.69943 8.50862 5.69943 7.60125 5.69943 6.68631C5.69943 6.57289 5.69943 6.45945 5.69943 6.35359C5.69185 6.05113 5.45685 5.81672 5.14604 5.8016C5.11572 5.8016 5.0854 5.8016 5.05507 5.8016C4.54717 5.8016 4.03926 5.8016 3.53135 5.8016C3.27361 5.8016 3.02345 5.8016 2.7657 5.8016C2.54586 5.8016 2.32602 5.78649 2.15925 5.9604C1.99247 6.12675 2.00005 6.33092 2.00005 6.53508C2.00005 6.76192 2.00005 6.9812 2.00005 7.20804C2.00005 7.77516 2.00005 8.34984 2.00005 8.91695C2.00005 9.07574 2.00005 9.23453 2.00005 9.38576C2.00005 9.71846 2.24263 9.96043 2.57618 9.96799C3.03861 9.97555 3.50103 9.96799 3.96345 9.96799C4.35765 9.96799 4.75943 9.98311 5.16121 9.96799C5.45685 9.96799 5.68427 9.73358 5.69943 9.42356ZM5.69943 9.42356C5.70701 9.27233 5.56298 9.12866 5.41137 9.13622C5.24459 9.14378 5.13088 9.26477 5.1233 9.42356C5.1233 9.416 5.1233 9.40844 5.13088 9.40088C5.1233 9.43112 5.1233 9.43112 5.13088 9.40088C5.1233 9.40844 5.1233 9.416 5.11572 9.42356C5.1233 9.40844 5.13088 9.39332 5.15362 9.38576C5.10814 9.42356 5.16879 9.39331 5.14604 9.39331C5.06266 9.40087 5.25217 9.39331 5.16121 9.39331C5.15362 9.39331 5.13846 9.39331 5.13088 9.39331C5.07024 9.39331 5.00959 9.39331 4.95653 9.39331C4.72152 9.39331 4.48652 9.39331 4.2591 9.39331C3.75119 9.39331 3.24329 9.39331 2.73538 9.39331C2.6899 9.39331 2.62925 9.38575 2.57618 9.39331C2.57618 9.39331 2.5686 9.39331 2.56102 9.39331C2.59893 9.39331 2.55344 9.40087 2.56102 9.39331C2.56102 9.38575 2.61409 9.43868 2.56102 9.39331C2.5686 9.40087 2.57619 9.40088 2.58377 9.40844C2.59893 9.43869 2.59893 9.43869 2.58377 9.40844C2.58377 9.41601 2.59135 9.42355 2.59135 9.43111C2.58377 9.40087 2.58377 9.40087 2.59135 9.43111C2.59135 9.32525 2.59135 9.21941 2.59135 9.10598C2.59135 8.58424 2.59135 8.05493 2.59135 7.53319C2.59135 7.28366 2.59135 7.04169 2.59135 6.79216C2.59135 6.65606 2.60651 6.5124 2.59135 6.38385C2.59135 6.37629 2.59135 6.36872 2.59135 6.36116C2.59135 6.36872 2.59135 6.37629 2.58377 6.38385C2.59135 6.3536 2.59135 6.3536 2.58377 6.38385C2.57619 6.38385 2.63683 6.33092 2.58377 6.38385C2.57619 6.39141 2.5686 6.39141 2.56102 6.39897C2.59134 6.38385 2.59134 6.38385 2.56102 6.39897C2.55344 6.38385 2.62925 6.39897 2.56102 6.39897C2.59134 6.39897 2.62925 6.39897 2.65957 6.39897C2.86425 6.39897 3.06135 6.39897 3.26603 6.39897C3.79668 6.39897 4.32733 6.39897 4.85039 6.39897C4.9262 6.39897 5.00959 6.39897 5.0854 6.39897C5.10056 6.39897 5.1233 6.39897 5.13846 6.39897C5.14604 6.39897 5.14604 6.39897 5.15362 6.39897C5.11572 6.39897 5.1612 6.39141 5.15362 6.39897C5.14604 6.39897 5.13846 6.3914 5.13088 6.3914C5.1612 6.40652 5.1612 6.40652 5.13088 6.3914C5.0854 6.34603 5.13846 6.4141 5.1233 6.38385C5.10814 6.3536 5.1233 6.43677 5.1233 6.37628C5.1233 6.38384 5.1233 6.39896 5.1233 6.40652C5.1233 6.45945 5.1233 6.51996 5.1233 6.57289C5.1233 7.50295 5.1233 8.44057 5.1233 9.37064C5.1233 9.39332 5.1233 9.42357 5.1233 9.44625C5.1233 9.59748 5.25975 9.74113 5.41137 9.73357C5.56298 9.71089 5.69943 9.58992 5.69943 9.42356Z"/>
<path d="M5.07724 6.09651C5.07724 5.77893 5.07724 5.45379 5.07724 5.13621C5.07724 5.0001 5.0924 4.84886 5.06208 4.71276C5.00901 4.51616 4.83466 4.34981 4.63756 4.31956C4.57691 4.312 4.51627 4.30444 4.45562 4.30444C4.08417 4.30444 3.71271 4.30444 3.34126 4.30444C3.14416 4.30444 2.96222 4.30444 2.80303 4.4481C2.63625 4.59933 2.62109 4.80349 2.62109 5.00765C2.62109 5.3706 2.62109 5.73356 2.62109 6.09651C2.62109 6.2553 2.75755 6.38385 2.90916 6.38385C3.45497 6.38385 4.00836 6.38385 4.55417 6.38385C4.62998 6.38385 4.71337 6.38385 4.78917 6.38385C4.93321 6.38385 5.08482 6.2553 5.07724 6.09651C5.06966 5.93772 4.94837 5.80917 4.78917 5.80917C4.24336 5.80917 3.68997 5.80917 3.14416 5.80917C3.06835 5.80917 2.98497 5.80917 2.90916 5.80917C3.00771 5.90747 3.10626 6.00577 3.19723 6.09651C3.19723 5.80161 3.19723 5.51427 3.19723 5.21937C3.19723 5.09839 3.20481 4.9774 3.19723 4.85642C3.19723 4.85642 3.19723 4.85643 3.19723 4.84887C3.19723 4.92448 3.18964 4.84887 3.19723 4.84887C3.20481 4.84887 3.15174 4.9018 3.19723 4.84887C3.18206 4.86399 3.18206 4.87155 3.15932 4.88667C3.15932 4.88667 3.19722 4.85642 3.1669 4.87911C3.13658 4.89423 3.19722 4.88667 3.1669 4.87911C3.15174 4.87911 3.15174 4.87911 3.15932 4.87911C3.18964 4.87911 3.22755 4.87911 3.25787 4.87911C3.60658 4.87911 3.96288 4.87911 4.31159 4.87911C4.36465 4.87911 4.4253 4.87911 4.47837 4.87911C4.48595 4.87911 4.5011 4.87911 4.50869 4.87911C4.52385 4.87911 4.45562 4.87154 4.50111 4.87911C4.53901 4.87911 4.48594 4.87912 4.49352 4.87155C4.51627 4.88668 4.52385 4.88667 4.50111 4.87911C4.48594 4.87154 4.47837 4.86399 4.47837 4.84887C4.47837 4.84887 4.50869 4.88666 4.48594 4.85642C4.47078 4.82617 4.47836 4.88666 4.48594 4.85642C4.48594 4.84129 4.48594 4.84131 4.48594 4.84887C4.48594 4.86399 4.48594 4.87911 4.48594 4.88667C4.48594 4.94717 4.48594 5.01522 4.48594 5.07571C4.48594 5.41598 4.48594 5.74868 4.48594 6.08894C4.48594 6.24017 4.6224 6.38384 4.77401 6.37628C4.94079 6.37628 5.07724 6.2553 5.07724 6.09651Z"/>
<path d="M5.07724 6.09651C5.07724 5.77893 5.07724 5.45379 5.07724 5.13621C5.07724 5.0001 5.0924 4.84886 5.06208 4.71276C5.00901 4.51616 4.83466 4.34981 4.63756 4.31956C4.57691 4.312 4.51627 4.30444 4.45562 4.30444C4.08417 4.30444 3.71271 4.30444 3.34126 4.30444C3.14416 4.30444 2.96222 4.30444 2.80303 4.4481C2.63625 4.59933 2.62109 4.80349 2.62109 5.00765C2.62109 5.3706 2.62109 5.73356 2.62109 6.09651C2.62109 6.2553 2.75755 6.38385 2.90916 6.38385C3.45497 6.38385 4.00836 6.38385 4.55417 6.38385C4.62998 6.38385 4.71337 6.38385 4.78917 6.38385C4.93321 6.38385 5.08482 6.2553 5.07724 6.09651C5.06966 5.93772 4.94837 5.80917 4.78917 5.80917C4.24336 5.80917 3.68997 5.80917 3.14416 5.80917C3.06835 5.80917 2.98497 5.80917 2.90916 5.80917C3.00771 5.90747 3.10626 6.00577 3.19723 6.09651C3.19723 5.80161 3.19723 5.51427 3.19723 5.21937C3.19723 5.09839 3.20481 4.9774 3.19723 4.85642C3.19723 4.85642 3.19723 4.85643 3.19723 4.84887C3.19723 4.92448 3.18964 4.84887 3.19723 4.84887C3.20481 4.84887 3.15174 4.9018 3.19723 4.84887C3.18206 4.86399 3.18206 4.87155 3.15932 4.88667C3.15932 4.88667 3.19722 4.85642 3.1669 4.87911C3.13658 4.89423 3.19722 4.88667 3.1669 4.87911C3.15174 4.87911 3.15174 4.87911 3.15932 4.87911C3.18964 4.87911 3.22755 4.87911 3.25787 4.87911C3.60658 4.87911 3.96288 4.87911 4.31159 4.87911C4.36465 4.87911 4.4253 4.87911 4.47837 4.87911C4.48595 4.87911 4.5011 4.87911 4.50869 4.87911C4.52385 4.87911 4.45562 4.87154 4.50111 4.87911C4.53901 4.87911 4.48594 4.87912 4.49352 4.87155C4.51627 4.88668 4.52385 4.88667 4.50111 4.87911C4.48594 4.87154 4.47837 4.86399 4.47837 4.84887C4.47837 4.84887 4.50869 4.88666 4.48594 4.85642C4.47078 4.82617 4.47836 4.88666 4.48594 4.85642C4.48594 4.84129 4.48594 4.84131 4.48594 4.84887C4.48594 4.86399 4.48594 4.87911 4.48594 4.88667C4.48594 4.94717 4.48594 5.01522 4.48594 5.07571C4.48594 5.41598 4.48594 5.74868 4.48594 6.08894C4.48594 6.24017 4.6224 6.38384 4.77401 6.37628C4.94079 6.37628 5.07724 6.2553 5.07724 6.09651Z"/>
<path d="M5.07724 6.09651C5.07724 5.77893 5.07724 5.45379 5.07724 5.13621C5.07724 5.0001 5.0924 4.84886 5.06208 4.71276C5.00901 4.51616 4.83466 4.34981 4.63756 4.31956C4.57691 4.312 4.51626 4.30444 4.45562 4.30444C4.08417 4.30444 3.71271 4.30444 3.34126 4.30444C3.14416 4.30444 2.96222 4.30444 2.80303 4.4481C2.63625 4.59933 2.62109 4.80349 2.62109 5.00765C2.62109 5.3706 2.62109 5.73356 2.62109 6.09651C2.62109 6.2553 2.75755 6.38385 2.90916 6.38385C3.45497 6.38385 4.00836 6.38385 4.55417 6.38385C4.62998 6.38385 4.71337 6.38385 4.78917 6.38385C4.93321 6.38385 5.08482 6.2553 5.07724 6.09651ZM5.07724 6.09651C5.06966 5.93772 4.94837 5.80917 4.78917 5.80917C4.24336 5.80917 3.68997 5.80917 3.14416 5.80917C3.06835 5.80917 2.98497 5.80917 2.90916 5.80917C3.00771 5.90747 3.10626 6.00577 3.19723 6.09651C3.19723 5.80161 3.19723 5.51427 3.19723 5.21937C3.19723 5.09839 3.20481 4.9774 3.19723 4.85642C3.19723 4.85642 3.19723 4.85643 3.19723 4.84887C3.19723 4.92448 3.18964 4.84887 3.19723 4.84887C3.20481 4.84887 3.15174 4.9018 3.19723 4.84887C3.18206 4.86399 3.18206 4.87155 3.15932 4.88667C3.15932 4.88667 3.19722 4.85642 3.1669 4.87911C3.13658 4.89423 3.19722 4.88667 3.1669 4.87911C3.15174 4.87911 3.15174 4.87911 3.15932 4.87911C3.18964 4.87911 3.22755 4.87911 3.25787 4.87911C3.60658 4.87911 3.96288 4.87911 4.31159 4.87911C4.36465 4.87911 4.4253 4.87911 4.47837 4.87911C4.48595 4.87911 4.5011 4.87911 4.50869 4.87911C4.52385 4.87911 4.45562 4.87154 4.50111 4.87911C4.53901 4.87911 4.48594 4.87912 4.49352 4.87155C4.51626 4.88668 4.52385 4.88667 4.50111 4.87911C4.48594 4.87154 4.47837 4.86399 4.47837 4.84887C4.47837 4.84887 4.50869 4.88666 4.48594 4.85642C4.47078 4.82617 4.47836 4.88666 4.48594 4.85642C4.48594 4.84129 4.48594 4.84131 4.48594 4.84887C4.48594 4.86399 4.48594 4.87911 4.48594 4.88667C4.48594 4.94717 4.48594 5.01522 4.48594 5.07571C4.48594 5.41598 4.48594 5.74868 4.48594 6.08894C4.48594 6.24017 4.6224 6.38384 4.77401 6.37628C4.94079 6.37628 5.07724 6.2553 5.07724 6.09651Z"/>
<path d="M14.8809 11.1854C14.8809 11.6995 14.8809 12.2137 14.8809 12.7355C14.8809 12.9321 14.8809 13.1362 14.8809 13.3328C14.8809 13.4538 14.8734 13.5748 14.8582 13.6958C14.8506 13.7563 14.8506 13.8092 14.843 13.8697C14.843 13.8848 14.8355 13.9075 14.8355 13.9226C14.8355 13.915 14.843 13.8772 14.8355 13.915C14.8279 13.9453 14.8279 13.9755 14.8203 14.0058C14.7824 14.2402 14.7293 14.467 14.6687 14.7014C14.6384 14.8149 14.6005 14.9283 14.5626 15.0341C14.5398 15.0871 14.5247 15.14 14.5019 15.1929C14.4943 15.2156 14.4792 15.2383 14.4716 15.261C14.4716 15.261 14.4564 15.3063 14.464 15.2761C14.4792 15.2383 14.4489 15.3063 14.4489 15.3139C14.3579 15.5181 14.2518 15.7222 14.138 15.9188C14.0774 16.0171 14.0168 16.1154 13.9561 16.2062C13.9258 16.2515 13.8955 16.2969 13.8651 16.3423C13.85 16.365 13.8272 16.3876 13.8121 16.4179C13.8045 16.4255 13.7969 16.4406 13.7893 16.4481C13.7893 16.4557 13.7514 16.4935 13.7742 16.4708C13.7893 16.4481 13.7438 16.5162 13.7363 16.5237C13.7211 16.5464 13.7059 16.5616 13.6908 16.5842C13.6529 16.6296 13.615 16.675 13.5771 16.7204C13.5013 16.8035 13.4255 16.8867 13.3421 16.9699C13.1829 17.1287 13.0085 17.2875 12.8342 17.4236C12.8266 17.4311 12.7735 17.4689 12.7963 17.4538C12.819 17.4387 12.7508 17.4841 12.7432 17.4916C12.6977 17.5294 12.6446 17.5597 12.5992 17.5975C12.5082 17.658 12.4172 17.7185 12.3187 17.779C12.1216 17.8999 11.9169 18.0058 11.7046 18.1041C11.6819 18.1117 11.6592 18.1268 11.6364 18.1343C11.6213 18.1419 11.6061 18.1495 11.5909 18.157C11.5985 18.157 11.6288 18.1419 11.5985 18.1495C11.5454 18.1722 11.4848 18.1948 11.4317 18.2175C11.3256 18.2553 11.2119 18.2931 11.0982 18.331C10.8708 18.399 10.6433 18.4519 10.4083 18.4973C10.3553 18.5049 10.3022 18.5124 10.2491 18.52C10.1885 18.5276 10.234 18.52 10.2491 18.52C10.234 18.52 10.2264 18.52 10.2112 18.5275C10.1809 18.5275 10.1506 18.5351 10.1203 18.5351C9.99898 18.5502 9.87769 18.5578 9.7564 18.5578C9.52139 18.5654 9.28639 18.5653 9.05139 18.5427C8.99074 18.5351 8.93768 18.5351 8.87704 18.5275C8.84671 18.5275 8.82397 18.52 8.79365 18.52C8.8543 18.5276 8.75574 18.5124 8.74058 18.5124C8.61929 18.4973 8.50558 18.4746 8.39187 18.4444C8.16445 18.399 7.94461 18.331 7.72477 18.2553C7.6717 18.2402 7.61864 18.2175 7.56557 18.1948C7.53525 18.1873 7.51251 18.1721 7.48219 18.1646C7.46702 18.157 7.45944 18.157 7.44428 18.1495C7.3988 18.1343 7.48219 18.1646 7.44428 18.1495C7.33815 18.1041 7.23202 18.0587 7.12589 18.0058C6.92121 17.8999 6.72412 17.7865 6.52702 17.658C6.42847 17.5975 6.3375 17.5294 6.24653 17.4614C6.21621 17.4387 6.25411 17.4689 6.25411 17.4689C6.24653 17.4614 6.23137 17.4538 6.22379 17.4462C6.20105 17.4311 6.1783 17.4084 6.15556 17.3933C6.11008 17.3555 6.0646 17.3177 6.01911 17.2799C5.85234 17.1362 5.68556 16.9774 5.53394 16.8111C5.45814 16.7279 5.38233 16.6372 5.31411 16.554C5.29895 16.5313 5.2762 16.5086 5.26104 16.4859C5.2383 16.4633 5.26862 16.4935 5.26862 16.4935C5.26104 16.4859 5.25346 16.4708 5.24588 16.4633C5.20798 16.4179 5.17765 16.365 5.13975 16.3196C5.01088 16.1306 4.88959 15.934 4.77587 15.7374C4.72281 15.6391 4.66974 15.5332 4.62426 15.4273C4.61668 15.4046 4.60152 15.382 4.59394 15.3593C4.58636 15.3442 4.55603 15.2761 4.57119 15.2988C4.57878 15.3215 4.55603 15.261 4.54845 15.2534C4.53329 15.2232 4.52571 15.1929 4.51055 15.1551C4.42716 14.9434 4.35894 14.7241 4.30587 14.4973C4.27555 14.3838 4.25281 14.2629 4.23006 14.1494C4.22248 14.0965 4.20732 14.036 4.19974 13.9831C4.19974 13.968 4.19216 13.9604 4.19216 13.9453C4.18458 13.8999 4.19974 13.9907 4.19216 13.9453C4.19216 13.915 4.18458 13.8848 4.18458 13.8545C4.15426 13.605 4.15426 13.3555 4.15426 13.106C4.15426 12.554 4.15426 11.9944 4.15426 11.4424C4.15426 10.9056 4.15426 10.3611 4.15426 9.82428C4.15426 9.79404 4.15426 9.76378 4.15426 9.73353C4.15426 9.5823 4.0178 9.43865 3.86619 9.44621C3.707 9.45377 3.57812 9.57474 3.57812 9.73353C3.57812 10.1494 3.57812 10.5729 3.57812 10.9887C3.57812 11.6239 3.57812 12.2591 3.57812 12.8942C3.57812 13.537 3.61603 14.1721 3.79038 14.7997C4.04813 15.7373 4.54087 16.6069 5.20798 17.3177C5.87508 18.0209 6.70896 18.5502 7.62622 18.8603C8.58139 19.1854 9.61236 19.2534 10.6054 19.072C11.5682 18.8981 12.4779 18.4822 13.2435 17.8773C13.9864 17.295 14.5929 16.5162 14.9719 15.6466C15.3206 14.8527 15.4874 14.0133 15.4874 13.1438C15.4874 12.554 15.4874 11.9717 15.4874 11.3819C15.4874 11.329 15.4874 11.2761 15.4874 11.2232C15.4874 11.0719 15.351 10.9283 15.1993 10.9358C15.0098 10.898 14.8809 11.019 14.8809 11.1854Z"/>
<path d="M14.8809 11.1854C14.8809 11.6995 14.8809 12.2137 14.8809 12.7355C14.8809 12.9321 14.8809 13.1362 14.8809 13.3328C14.8809 13.4538 14.8734 13.5748 14.8582 13.6958C14.8506 13.7563 14.8506 13.8092 14.843 13.8697C14.843 13.8848 14.8355 13.9075 14.8355 13.9226C14.8355 13.915 14.843 13.8772 14.8355 13.915C14.8279 13.9453 14.8279 13.9755 14.8203 14.0058C14.7824 14.2402 14.7293 14.467 14.6687 14.7014C14.6384 14.8149 14.6005 14.9283 14.5626 15.0341C14.5398 15.0871 14.5247 15.14 14.5019 15.1929C14.4943 15.2156 14.4792 15.2383 14.4716 15.261C14.4716 15.261 14.4564 15.3063 14.464 15.2761C14.4792 15.2383 14.4489 15.3063 14.4489 15.3139C14.3579 15.5181 14.2518 15.7222 14.138 15.9188C14.0774 16.0171 14.0168 16.1154 13.9561 16.2062C13.9258 16.2515 13.8955 16.2969 13.8651 16.3423C13.85 16.365 13.8272 16.3876 13.8121 16.4179C13.8045 16.4255 13.7969 16.4406 13.7893 16.4481C13.7893 16.4557 13.7514 16.4935 13.7742 16.4708C13.7893 16.4481 13.7438 16.5162 13.7363 16.5237C13.7211 16.5464 13.7059 16.5616 13.6908 16.5842C13.6529 16.6296 13.615 16.675 13.5771 16.7204C13.5013 16.8035 13.4255 16.8867 13.3421 16.9699C13.1829 17.1287 13.0085 17.2875 12.8342 17.4236C12.8266 17.4311 12.7735 17.4689 12.7963 17.4538C12.819 17.4387 12.7508 17.4841 12.7432 17.4916C12.6977 17.5294 12.6446 17.5597 12.5992 17.5975C12.5082 17.658 12.4172 17.7185 12.3187 17.779C12.1216 17.8999 11.9169 18.0058 11.7046 18.1041C11.6819 18.1117 11.6592 18.1268 11.6364 18.1343C11.6213 18.1419 11.6061 18.1495 11.5909 18.157C11.5985 18.157 11.6288 18.1419 11.5985 18.1495C11.5454 18.1722 11.4848 18.1948 11.4317 18.2175C11.3256 18.2553 11.2119 18.2931 11.0982 18.331C10.8708 18.399 10.6433 18.4519 10.4083 18.4973C10.3553 18.5049 10.3022 18.5124 10.2491 18.52C10.1885 18.5276 10.234 18.52 10.2491 18.52C10.234 18.52 10.2264 18.52 10.2112 18.5275C10.1809 18.5275 10.1506 18.5351 10.1203 18.5351C9.99898 18.5502 9.87769 18.5578 9.7564 18.5578C9.52139 18.5654 9.28639 18.5653 9.05139 18.5427C8.99074 18.5351 8.93768 18.5351 8.87704 18.5275C8.84671 18.5275 8.82397 18.52 8.79365 18.52C8.8543 18.5276 8.75574 18.5124 8.74058 18.5124C8.61929 18.4973 8.50558 18.4746 8.39187 18.4444C8.16445 18.399 7.94461 18.331 7.72477 18.2553C7.6717 18.2402 7.61864 18.2175 7.56557 18.1948C7.53525 18.1873 7.51251 18.1721 7.48219 18.1646C7.46702 18.157 7.45944 18.157 7.44428 18.1495C7.3988 18.1343 7.48219 18.1646 7.44428 18.1495C7.33815 18.1041 7.23202 18.0587 7.12589 18.0058C6.92121 17.8999 6.72412 17.7865 6.52702 17.658C6.42847 17.5975 6.3375 17.5294 6.24653 17.4614C6.21621 17.4387 6.25411 17.4689 6.25411 17.4689C6.24653 17.4614 6.23137 17.4538 6.22379 17.4462C6.20105 17.4311 6.1783 17.4084 6.15556 17.3933C6.11008 17.3555 6.0646 17.3177 6.01911 17.2799C5.85234 17.1362 5.68556 16.9774 5.53394 16.8111C5.45814 16.7279 5.38233 16.6372 5.31411 16.554C5.29895 16.5313 5.2762 16.5086 5.26104 16.4859C5.2383 16.4633 5.26862 16.4935 5.26862 16.4935C5.26104 16.4859 5.25346 16.4708 5.24588 16.4633C5.20798 16.4179 5.17765 16.365 5.13975 16.3196C5.01088 16.1306 4.88959 15.934 4.77587 15.7374C4.72281 15.6391 4.66974 15.5332 4.62426 15.4273C4.61668 15.4046 4.60152 15.382 4.59394 15.3593C4.58636 15.3442 4.55603 15.2761 4.57119 15.2988C4.57878 15.3215 4.55603 15.261 4.54845 15.2534C4.53329 15.2232 4.52571 15.1929 4.51055 15.1551C4.42716 14.9434 4.35894 14.7241 4.30587 14.4973C4.27555 14.3838 4.25281 14.2629 4.23006 14.1494C4.22248 14.0965 4.20732 14.036 4.19974 13.9831C4.19974 13.968 4.19216 13.9604 4.19216 13.9453C4.18458 13.8999 4.19974 13.9907 4.19216 13.9453C4.19216 13.915 4.18458 13.8848 4.18458 13.8545C4.15426 13.605 4.15426 13.3555 4.15426 13.106C4.15426 12.554 4.15426 11.9944 4.15426 11.4424C4.15426 10.9056 4.15426 10.3611 4.15426 9.82428C4.15426 9.79404 4.15426 9.76378 4.15426 9.73353C4.15426 9.5823 4.0178 9.43865 3.86619 9.44621C3.707 9.45377 3.57812 9.57474 3.57812 9.73353C3.57812 10.1494 3.57812 10.5729 3.57812 10.9887C3.57812 11.6239 3.57812 12.2591 3.57812 12.8942C3.57812 13.537 3.61603 14.1721 3.79038 14.7997C4.04813 15.7373 4.54087 16.6069 5.20798 17.3177C5.87508 18.0209 6.70896 18.5502 7.62622 18.8603C8.58139 19.1854 9.61236 19.2534 10.6054 19.072C11.5682 18.8981 12.4779 18.4822 13.2435 17.8773C13.9864 17.295 14.5929 16.5162 14.9719 15.6466C15.3206 14.8527 15.4874 14.0133 15.4874 13.1438C15.4874 12.554 15.4874 11.9717 15.4874 11.3819C15.4874 11.329 15.4874 11.2761 15.4874 11.2232C15.4874 11.0719 15.351 10.9283 15.1993 10.9358C15.0098 10.898 14.8809 11.019 14.8809 11.1854Z"/>
<path d="M14.8809 11.1854C14.8809 11.6995 14.8809 12.2137 14.8809 12.7355C14.8809 12.9321 14.8809 13.1362 14.8809 13.3328C14.8809 13.4538 14.8734 13.5748 14.8582 13.6958C14.8506 13.7563 14.8506 13.8092 14.843 13.8697C14.843 13.8848 14.8355 13.9075 14.8355 13.9226C14.8355 13.915 14.843 13.8772 14.8355 13.915C14.8279 13.9453 14.8279 13.9755 14.8203 14.0058C14.7824 14.2402 14.7293 14.467 14.6687 14.7014C14.6384 14.8149 14.6005 14.9283 14.5626 15.0341C14.5398 15.0871 14.5247 15.14 14.5019 15.1929C14.4943 15.2156 14.4792 15.2383 14.4716 15.261C14.4716 15.261 14.4564 15.3063 14.464 15.2761C14.4792 15.2383 14.4489 15.3063 14.4489 15.3139C14.3579 15.5181 14.2518 15.7222 14.138 15.9188C14.0774 16.0171 14.0168 16.1154 13.9561 16.2062C13.9258 16.2515 13.8955 16.2969 13.8651 16.3423C13.85 16.365 13.8272 16.3876 13.8121 16.4179C13.8045 16.4255 13.7969 16.4406 13.7893 16.4481C13.7893 16.4557 13.7514 16.4935 13.7742 16.4708C13.7893 16.4481 13.7438 16.5162 13.7363 16.5237C13.7211 16.5464 13.7059 16.5616 13.6908 16.5842C13.6529 16.6296 13.615 16.675 13.5771 16.7204C13.5013 16.8035 13.4255 16.8867 13.3421 16.9699C13.1829 17.1287 13.0085 17.2875 12.8342 17.4236C12.8266 17.4311 12.7735 17.4689 12.7963 17.4538C12.819 17.4387 12.7508 17.4841 12.7432 17.4916C12.6977 17.5294 12.6446 17.5597 12.5992 17.5975C12.5082 17.658 12.4172 17.7185 12.3187 17.779C12.1216 17.8999 11.9169 18.0058 11.7046 18.1041C11.6819 18.1117 11.6592 18.1268 11.6364 18.1343C11.6213 18.1419 11.6061 18.1495 11.5909 18.157C11.5985 18.157 11.6288 18.1419 11.5985 18.1495C11.5454 18.1722 11.4848 18.1948 11.4317 18.2175C11.3256 18.2553 11.2119 18.2931 11.0982 18.331C10.8708 18.399 10.6433 18.4519 10.4083 18.4973C10.3553 18.5049 10.3022 18.5124 10.2491 18.52C10.1885 18.5276 10.234 18.52 10.2491 18.52C10.234 18.52 10.2264 18.52 10.2112 18.5275C10.1809 18.5275 10.1506 18.5351 10.1203 18.5351C9.99898 18.5502 9.87769 18.5578 9.7564 18.5578C9.52139 18.5654 9.28639 18.5653 9.05139 18.5427C8.99074 18.5351 8.93768 18.5351 8.87704 18.5275C8.84671 18.5275 8.82397 18.52 8.79365 18.52C8.8543 18.5276 8.75574 18.5124 8.74058 18.5124C8.61929 18.4973 8.50558 18.4746 8.39187 18.4444C8.16445 18.399 7.94461 18.331 7.72477 18.2553C7.6717 18.2402 7.61864 18.2175 7.56557 18.1948C7.53525 18.1873 7.51251 18.1721 7.48219 18.1646C7.46702 18.157 7.45944 18.157 7.44428 18.1495C7.3988 18.1343 7.48219 18.1646 7.44428 18.1495C7.33815 18.1041 7.23202 18.0587 7.12589 18.0058C6.92121 17.8999 6.72412 17.7865 6.52702 17.658C6.42847 17.5975 6.3375 17.5294 6.24653 17.4614C6.21621 17.4387 6.25411 17.4689 6.25411 17.4689C6.24653 17.4614 6.23137 17.4538 6.22379 17.4462C6.20105 17.4311 6.1783 17.4084 6.15556 17.3933C6.11008 17.3555 6.0646 17.3177 6.01911 17.2799C5.85234 17.1362 5.68556 16.9774 5.53394 16.8111C5.45814 16.7279 5.38233 16.6372 5.31411 16.554C5.29895 16.5313 5.2762 16.5086 5.26104 16.4859C5.2383 16.4633 5.26862 16.4935 5.26862 16.4935C5.26104 16.4859 5.25346 16.4708 5.24588 16.4633C5.20798 16.4179 5.17765 16.365 5.13975 16.3196C5.01088 16.1306 4.88959 15.934 4.77587 15.7374C4.72281 15.6391 4.66974 15.5332 4.62426 15.4273C4.61668 15.4046 4.60152 15.382 4.59394 15.3593C4.58636 15.3442 4.55603 15.2761 4.57119 15.2988C4.57878 15.3215 4.55603 15.261 4.54845 15.2534C4.53329 15.2232 4.52571 15.1929 4.51055 15.1551C4.42716 14.9434 4.35894 14.7241 4.30587 14.4973C4.27555 14.3838 4.25281 14.2629 4.23006 14.1494C4.22248 14.0965 4.20732 14.036 4.19974 13.9831C4.19974 13.968 4.19216 13.9604 4.19216 13.9453C4.18458 13.8999 4.19974 13.9907 4.19216 13.9453C4.19216 13.915 4.18458 13.8848 4.18458 13.8545C4.15426 13.605 4.15426 13.3555 4.15426 13.106C4.15426 12.554 4.15426 11.9944 4.15426 11.4424C4.15426 10.9056 4.15426 10.3611 4.15426 9.82428C4.15426 9.79404 4.15426 9.76378 4.15426 9.73353C4.15426 9.5823 4.0178 9.43865 3.86619 9.44621C3.707 9.45377 3.57812 9.57474 3.57812 9.73353C3.57812 10.1494 3.57812 10.5729 3.57812 10.9887C3.57812 11.6239 3.57812 12.2591 3.57812 12.8942C3.57812 13.537 3.61603 14.1721 3.79038 14.7997C4.04813 15.7373 4.54087 16.6069 5.20798 17.3177C5.87508 18.0209 6.70896 18.5502 7.62622 18.8603C8.58139 19.1854 9.61236 19.2534 10.6054 19.072C11.5682 18.8981 12.4779 18.4822 13.2435 17.8773C13.9864 17.295 14.5929 16.5162 14.9719 15.6466C15.3206 14.8527 15.4874 14.0133 15.4874 13.1438C15.4874 12.554 15.4874 11.9717 15.4874 11.3819C15.4874 11.329 15.4874 11.2761 15.4874 11.2232C15.4874 11.0719 15.351 10.9283 15.1993 10.9358C15.0098 10.898 14.8809 11.019 14.8809 11.1854Z"/>
</svg>
