<svg width="24" height="24" viewBox="0 0 24 24" fill="none" xmlns="http://www.w3.org/2000/svg">
<path d="M4.36262 7.72548H15.2305C15.98 7.72548 16.5931 7.11237 16.5931 6.36286C16.5931 5.61335 15.98 5.00024 15.2305 5.00024L4.36262 5C3.61311 5 3 5.61311 3 6.36262C2.99976 7.11213 3.61311 7.72549 4.36262 7.72549V7.72548Z" fill="white"/>
<path d="M15.1964 16.3108H4.36262C3.61311 16.3108 3 16.9239 3 17.6734C3 18.4229 3.61311 19.036 4.36262 19.036H15.2305C15.98 19.036 16.5931 18.4229 16.5931 17.6734C16.5931 16.9241 15.9458 16.3108 15.1963 16.3108H15.1964Z" fill="white"/>
<path d="M18.6033 10.6553H4.36262C3.61311 10.6553 3 11.2684 3 12.0179C3 12.7674 3.61311 13.3805 4.36262 13.3805H18.6374C19.3869 13.3805 20 12.7674 20 12.0179C20 11.2684 19.3526 10.6553 18.6031 10.6553H18.6033Z" fill="white"/>
</svg>
