<svg width="20" height="20" viewBox="0 0 20 20" fill="none" xmlns="http://www.w3.org/2000/svg">
<path d="M6.87941 11.3705C6.64441 12.3082 6.40941 13.2458 6.18199 14.191C6.15167 14.3195 6.12134 14.4481 6.08344 14.5766C6.06828 14.622 6.0607 14.6674 6.04553 14.7127C6.03037 14.7657 6.01522 14.8186 5.99247 14.8715C5.98489 14.8942 5.96973 14.9244 5.96215 14.9471C5.98489 14.8942 5.93941 14.9925 5.93941 15.0001C5.89392 15.0984 5.84086 15.1891 5.78021 15.2798C5.74989 15.3252 5.71957 15.3706 5.68925 15.4084C5.63618 15.4764 5.72715 15.363 5.6665 15.4311C5.64376 15.4613 5.62102 15.484 5.59828 15.5142C5.53005 15.5899 5.45424 15.6655 5.37843 15.7411C5.34053 15.7789 5.30263 15.8091 5.25714 15.8394C5.30263 15.8016 5.2344 15.8545 5.2344 15.8545C5.20408 15.8772 5.17376 15.8923 5.15101 15.915C5.06004 15.9755 4.96908 16.0284 4.87811 16.0738C4.85537 16.0889 4.83262 16.0965 4.80988 16.1116C4.8023 16.1116 4.7265 16.1494 4.77956 16.1267C4.71892 16.1494 4.66585 16.1721 4.6052 16.1948C4.50665 16.225 4.40052 16.2553 4.29439 16.2779C4.26407 16.2855 4.24133 16.2855 4.21101 16.2931C4.20343 16.2931 4.11246 16.3082 4.18068 16.3006C4.12004 16.3082 4.05181 16.3158 3.99117 16.3158C3.71826 16.3309 3.52874 16.3082 3.27858 16.2401C3.21793 16.225 3.16487 16.2023 3.10422 16.1872C3.0739 16.1796 3.04358 16.1645 3.02084 16.157C2.92987 16.1192 3.06632 16.1797 2.97535 16.1418C2.85406 16.0889 2.74035 16.0284 2.63422 15.9528C2.45228 15.8318 2.27793 15.6806 2.11873 15.484C2.11873 15.484 2.05809 15.4084 2.08841 15.4462C2.07325 15.4235 2.05051 15.4008 2.03535 15.3706C1.99744 15.3252 1.96712 15.2723 1.9368 15.2193C1.90648 15.1664 1.87615 15.1135 1.84583 15.0605C1.83067 15.0303 1.81551 15.0076 1.80793 14.9774C1.80035 14.9622 1.79277 14.9396 1.78518 14.9244C1.79277 14.9471 1.79276 14.9396 1.7776 14.9093C1.68663 14.6673 1.62599 14.4254 1.61082 14.2061C1.59566 13.9566 1.60325 13.7146 1.60325 13.4651C1.60325 12.3233 1.60325 11.1815 1.60325 10.0473C1.60325 9.17016 1.60325 8.29302 1.60325 7.41589C1.60325 7.40076 1.60325 7.38564 1.60325 7.37052C1.40615 7.37052 1.21663 7.37052 1.01953 7.37052C1.02711 8.7694 1.7018 10.0851 2.83132 10.9093C3.36955 11.3025 4.01391 11.5747 4.67343 11.6806C5.09795 11.7486 5.51489 11.7411 5.93941 11.7411C6.34119 11.7411 6.74296 11.7411 7.15232 11.7411C7.30393 11.7411 7.44797 11.605 7.44039 11.4537C7.4328 11.2949 7.31151 11.1664 7.15232 11.1664C6.81877 11.1664 6.4928 11.1664 6.15925 11.1664C5.80295 11.1664 5.44666 11.1815 5.09795 11.1588C5.06004 11.1588 5.01456 11.1513 4.97666 11.1513C4.9615 11.1513 4.84778 11.1361 4.90843 11.1437C4.82504 11.1286 4.74166 11.121 4.65827 11.0983C4.49907 11.0681 4.33988 11.0227 4.18826 10.9773C4.11246 10.9547 4.04423 10.9244 3.96843 10.9017C3.95326 10.8942 3.86988 10.8564 3.91536 10.8791C3.87746 10.8639 3.83955 10.8412 3.80165 10.8261C3.65762 10.7581 3.51358 10.6824 3.37713 10.5917C3.31649 10.5539 3.25584 10.5161 3.19519 10.4707C3.16487 10.448 3.13455 10.4254 3.10422 10.4027C3.08906 10.3951 3.0739 10.38 3.06632 10.3724C3.11939 10.4102 3.05116 10.3573 3.04358 10.3573C2.92229 10.259 2.801 10.1531 2.69487 10.0397C2.58116 9.9263 2.48261 9.81288 2.38406 9.68433C2.42196 9.7297 2.36132 9.65409 2.35374 9.63897C2.331 9.60116 2.30067 9.57091 2.27793 9.5331C2.23245 9.47261 2.19454 9.40456 2.15664 9.34407C2.06567 9.19284 1.98228 9.03404 1.90647 8.86769C1.89889 8.86013 1.88373 8.81476 1.90647 8.86769C1.89889 8.845 1.88373 8.82233 1.87615 8.79964C1.86099 8.76184 1.84583 8.71646 1.83067 8.67865C1.80034 8.59548 1.7776 8.5123 1.74728 8.42913C1.69422 8.25521 1.65631 8.07374 1.63357 7.89226C1.62599 7.83177 1.63357 7.87714 1.63357 7.89226C1.63357 7.86202 1.62599 7.83933 1.62599 7.80908C1.61841 7.76371 1.61841 7.71835 1.61082 7.67298C1.60324 7.57468 1.60325 7.47638 1.60325 7.37808C1.60325 7.22685 1.46679 7.08318 1.31518 7.09074C1.15599 7.0983 1.02711 7.21929 1.02711 7.37808C1.02711 7.60492 1.02711 7.83177 1.02711 8.05861C1.02711 8.59548 1.02711 9.13235 1.02711 9.66921C1.02711 10.3195 1.02711 10.9698 1.02711 11.6201C1.02711 12.1721 1.02711 12.7241 1.02711 13.276C1.02711 13.5331 1.02711 13.7902 1.02711 14.0473C1.0347 15.0681 1.58809 16.0435 2.49019 16.5426C3.39987 17.0492 4.55972 17.0114 5.4315 16.4443C5.83328 16.1797 6.17441 15.8167 6.40183 15.3933C6.52312 15.1588 6.60651 14.9093 6.67474 14.6522C6.80361 14.1456 6.9249 13.6314 7.05377 13.1248C7.17506 12.6258 7.30394 12.1343 7.42523 11.6352C7.43281 11.605 7.44038 11.5747 7.44796 11.552C7.48587 11.4083 7.40248 11.2269 7.24329 11.1966C7.09168 11.1361 6.91732 11.2118 6.87941 11.3705Z"/>
<path d="M6.87941 11.3705C6.64441 12.3082 6.40941 13.2458 6.18199 14.191C6.15167 14.3195 6.12134 14.4481 6.08344 14.5766C6.06828 14.622 6.0607 14.6674 6.04553 14.7127C6.03037 14.7657 6.01522 14.8186 5.99247 14.8715C5.98489 14.8942 5.96973 14.9244 5.96215 14.9471C5.98489 14.8942 5.93941 14.9925 5.93941 15.0001C5.89392 15.0984 5.84086 15.1891 5.78021 15.2798C5.74989 15.3252 5.71957 15.3706 5.68925 15.4084C5.63618 15.4764 5.72715 15.363 5.6665 15.4311C5.64376 15.4613 5.62102 15.484 5.59828 15.5142C5.53005 15.5899 5.45424 15.6655 5.37843 15.7411C5.34053 15.7789 5.30263 15.8091 5.25714 15.8394C5.30263 15.8016 5.2344 15.8545 5.2344 15.8545C5.20408 15.8772 5.17376 15.8923 5.15101 15.915C5.06004 15.9755 4.96908 16.0284 4.87811 16.0738C4.85537 16.0889 4.83262 16.0965 4.80988 16.1116C4.8023 16.1116 4.7265 16.1494 4.77956 16.1267C4.71892 16.1494 4.66585 16.1721 4.6052 16.1948C4.50665 16.225 4.40052 16.2553 4.29439 16.2779C4.26407 16.2855 4.24133 16.2855 4.21101 16.2931C4.20343 16.2931 4.11246 16.3082 4.18068 16.3006C4.12004 16.3082 4.05181 16.3158 3.99117 16.3158C3.71826 16.3309 3.52874 16.3082 3.27858 16.2401C3.21793 16.225 3.16487 16.2023 3.10422 16.1872C3.0739 16.1796 3.04358 16.1645 3.02084 16.157C2.92987 16.1192 3.06632 16.1797 2.97535 16.1418C2.85406 16.0889 2.74035 16.0284 2.63422 15.9528C2.45228 15.8318 2.27793 15.6806 2.11873 15.484C2.11873 15.484 2.05809 15.4084 2.08841 15.4462C2.07325 15.4235 2.05051 15.4008 2.03535 15.3706C1.99744 15.3252 1.96712 15.2723 1.9368 15.2193C1.90648 15.1664 1.87615 15.1135 1.84583 15.0605C1.83067 15.0303 1.81551 15.0076 1.80793 14.9774C1.80035 14.9622 1.79277 14.9396 1.78518 14.9244C1.79277 14.9471 1.79276 14.9396 1.7776 14.9093C1.68663 14.6673 1.62599 14.4254 1.61082 14.2061C1.59566 13.9566 1.60325 13.7146 1.60325 13.4651C1.60325 12.3233 1.60325 11.1815 1.60325 10.0473C1.60325 9.17016 1.60325 8.29302 1.60325 7.41589C1.60325 7.40076 1.60325 7.38564 1.60325 7.37052C1.40615 7.37052 1.21663 7.37052 1.01953 7.37052C1.02711 8.7694 1.7018 10.0851 2.83132 10.9093C3.36955 11.3025 4.01391 11.5747 4.67343 11.6806C5.09795 11.7486 5.51489 11.7411 5.93941 11.7411C6.34119 11.7411 6.74296 11.7411 7.15232 11.7411C7.30393 11.7411 7.44797 11.605 7.44039 11.4537C7.4328 11.2949 7.31151 11.1664 7.15232 11.1664C6.81877 11.1664 6.4928 11.1664 6.15925 11.1664C5.80295 11.1664 5.44666 11.1815 5.09795 11.1588C5.06004 11.1588 5.01456 11.1513 4.97666 11.1513C4.9615 11.1513 4.84778 11.1361 4.90843 11.1437C4.82504 11.1286 4.74166 11.121 4.65827 11.0983C4.49907 11.0681 4.33988 11.0227 4.18826 10.9773C4.11246 10.9547 4.04423 10.9244 3.96843 10.9017C3.95326 10.8942 3.86988 10.8564 3.91536 10.8791C3.87746 10.8639 3.83955 10.8412 3.80165 10.8261C3.65762 10.7581 3.51358 10.6824 3.37713 10.5917C3.31649 10.5539 3.25584 10.5161 3.19519 10.4707C3.16487 10.448 3.13455 10.4254 3.10422 10.4027C3.08906 10.3951 3.0739 10.38 3.06632 10.3724C3.11939 10.4102 3.05116 10.3573 3.04358 10.3573C2.92229 10.259 2.801 10.1531 2.69487 10.0397C2.58116 9.9263 2.48261 9.81288 2.38406 9.68433C2.42196 9.7297 2.36132 9.65409 2.35374 9.63897C2.331 9.60116 2.30067 9.57091 2.27793 9.5331C2.23245 9.47261 2.19454 9.40456 2.15664 9.34407C2.06567 9.19284 1.98228 9.03404 1.90647 8.86769C1.89889 8.86013 1.88373 8.81476 1.90647 8.86769C1.89889 8.845 1.88373 8.82233 1.87615 8.79964C1.86099 8.76184 1.84583 8.71646 1.83067 8.67865C1.80034 8.59548 1.7776 8.5123 1.74728 8.42913C1.69422 8.25521 1.65631 8.07374 1.63357 7.89226C1.62599 7.83177 1.63357 7.87714 1.63357 7.89226C1.63357 7.86202 1.62599 7.83933 1.62599 7.80908C1.61841 7.76371 1.61841 7.71835 1.61082 7.67298C1.60324 7.57468 1.60325 7.47638 1.60325 7.37808C1.60325 7.22685 1.46679 7.08318 1.31518 7.09074C1.15599 7.0983 1.02711 7.21929 1.02711 7.37808C1.02711 7.60492 1.02711 7.83177 1.02711 8.05861C1.02711 8.59548 1.02711 9.13235 1.02711 9.66921C1.02711 10.3195 1.02711 10.9698 1.02711 11.6201C1.02711 12.1721 1.02711 12.7241 1.02711 13.276C1.02711 13.5331 1.02711 13.7902 1.02711 14.0473C1.0347 15.0681 1.58809 16.0435 2.49019 16.5426C3.39987 17.0492 4.55972 17.0114 5.4315 16.4443C5.83328 16.1797 6.17441 15.8167 6.40183 15.3933C6.52312 15.1588 6.60651 14.9093 6.67474 14.6522C6.80361 14.1456 6.9249 13.6314 7.05377 13.1248C7.17506 12.6258 7.30394 12.1343 7.42523 11.6352C7.43281 11.605 7.44038 11.5747 7.44796 11.552C7.48587 11.4083 7.40248 11.2269 7.24329 11.1966C7.09168 11.1361 6.91732 11.2118 6.87941 11.3705Z"/>
<path d="M6.87941 11.3705C6.64441 12.3082 6.40941 13.2458 6.18199 14.191C6.15167 14.3195 6.12134 14.4481 6.08344 14.5766C6.06828 14.622 6.0607 14.6674 6.04553 14.7127C6.03037 14.7657 6.01522 14.8186 5.99247 14.8715C5.98489 14.8942 5.96973 14.9244 5.96215 14.9471C5.98489 14.8942 5.93941 14.9925 5.93941 15.0001C5.89392 15.0984 5.84086 15.1891 5.78021 15.2798C5.74989 15.3252 5.71957 15.3706 5.68925 15.4084C5.63618 15.4764 5.72715 15.363 5.6665 15.4311C5.64376 15.4613 5.62102 15.484 5.59828 15.5142C5.53005 15.5899 5.45424 15.6655 5.37843 15.7411C5.34053 15.7789 5.30263 15.8091 5.25714 15.8394C5.30263 15.8016 5.2344 15.8545 5.2344 15.8545C5.20408 15.8772 5.17376 15.8923 5.15101 15.915C5.06004 15.9755 4.96908 16.0284 4.87811 16.0738C4.85537 16.0889 4.83262 16.0965 4.80988 16.1116C4.8023 16.1116 4.7265 16.1494 4.77956 16.1267C4.71892 16.1494 4.66585 16.1721 4.6052 16.1948C4.50665 16.225 4.40052 16.2553 4.29439 16.2779C4.26407 16.2855 4.24133 16.2855 4.21101 16.2931C4.20343 16.2931 4.11246 16.3082 4.18068 16.3006C4.12004 16.3082 4.05181 16.3158 3.99117 16.3158C3.71826 16.3309 3.52874 16.3082 3.27858 16.2401C3.21793 16.225 3.16487 16.2023 3.10422 16.1872C3.0739 16.1796 3.04358 16.1645 3.02084 16.157C2.92987 16.1192 3.06632 16.1797 2.97535 16.1418C2.85406 16.0889 2.74035 16.0284 2.63422 15.9528C2.45228 15.8318 2.27793 15.6806 2.11873 15.484C2.11873 15.484 2.05809 15.4084 2.08841 15.4462C2.07325 15.4235 2.05051 15.4008 2.03535 15.3706C1.99744 15.3252 1.96712 15.2723 1.9368 15.2193C1.90648 15.1664 1.87615 15.1135 1.84583 15.0605C1.83067 15.0303 1.81551 15.0076 1.80793 14.9774C1.80035 14.9622 1.79277 14.9396 1.78518 14.9244C1.79277 14.9471 1.79276 14.9396 1.7776 14.9093C1.68663 14.6673 1.62599 14.4254 1.61082 14.2061C1.59566 13.9566 1.60325 13.7146 1.60325 13.4651C1.60325 12.3233 1.60325 11.1815 1.60325 10.0473C1.60325 9.17016 1.60325 8.29302 1.60325 7.41589C1.60325 7.40076 1.60325 7.38564 1.60325 7.37052C1.40615 7.37052 1.21663 7.37052 1.01953 7.37052C1.02711 8.7694 1.7018 10.0851 2.83132 10.9093C3.36955 11.3025 4.01391 11.5747 4.67343 11.6806C5.09795 11.7486 5.51489 11.7411 5.93941 11.7411C6.34119 11.7411 6.74296 11.7411 7.15232 11.7411C7.30393 11.7411 7.44797 11.605 7.44039 11.4537C7.4328 11.2949 7.31151 11.1664 7.15232 11.1664C6.81877 11.1664 6.4928 11.1664 6.15925 11.1664C5.80295 11.1664 5.44666 11.1815 5.09795 11.1588C5.06004 11.1588 5.01456 11.1513 4.97666 11.1513C4.9615 11.1513 4.84778 11.1361 4.90843 11.1437C4.82504 11.1286 4.74166 11.121 4.65827 11.0983C4.49907 11.0681 4.33988 11.0227 4.18826 10.9773C4.11246 10.9547 4.04423 10.9244 3.96843 10.9017C3.95326 10.8942 3.86988 10.8564 3.91536 10.8791C3.87746 10.8639 3.83955 10.8412 3.80165 10.8261C3.65762 10.7581 3.51358 10.6824 3.37713 10.5917C3.31649 10.5539 3.25584 10.5161 3.19519 10.4707C3.16487 10.448 3.13455 10.4254 3.10422 10.4027C3.08906 10.3951 3.0739 10.38 3.06632 10.3724C3.11939 10.4102 3.05116 10.3573 3.04358 10.3573C2.92229 10.259 2.801 10.1531 2.69487 10.0397C2.58116 9.9263 2.48261 9.81288 2.38406 9.68433C2.42196 9.7297 2.36132 9.65409 2.35374 9.63897C2.331 9.60116 2.30067 9.57091 2.27793 9.5331C2.23245 9.47261 2.19454 9.40456 2.15664 9.34407C2.06567 9.19284 1.98228 9.03404 1.90647 8.86769C1.89889 8.86013 1.88373 8.81476 1.90647 8.86769C1.89889 8.845 1.88373 8.82233 1.87615 8.79964C1.86099 8.76184 1.84583 8.71646 1.83067 8.67865C1.80034 8.59548 1.7776 8.5123 1.74728 8.42913C1.69422 8.25521 1.65631 8.07374 1.63357 7.89226C1.62599 7.83177 1.63357 7.87714 1.63357 7.89226C1.63357 7.86202 1.62599 7.83933 1.62599 7.80908C1.61841 7.76371 1.61841 7.71835 1.61082 7.67298C1.60324 7.57468 1.60325 7.47638 1.60325 7.37808C1.60325 7.22685 1.46679 7.08318 1.31518 7.09074C1.15599 7.0983 1.02711 7.21929 1.02711 7.37808C1.02711 7.60492 1.02711 7.83177 1.02711 8.05861C1.02711 8.59548 1.02711 9.13235 1.02711 9.66921C1.02711 10.3195 1.02711 10.9698 1.02711 11.6201C1.02711 12.1721 1.02711 12.7241 1.02711 13.276C1.02711 13.5331 1.02711 13.7902 1.02711 14.0473C1.0347 15.0681 1.58809 16.0435 2.49019 16.5426C3.39987 17.0492 4.55972 17.0114 5.4315 16.4443C5.83328 16.1797 6.17441 15.8167 6.40183 15.3933C6.52312 15.1588 6.60651 14.9093 6.67474 14.6522C6.80361 14.1456 6.9249 13.6314 7.05377 13.1248C7.17506 12.6258 7.30394 12.1343 7.42523 11.6352C7.43281 11.605 7.44038 11.5747 7.44796 11.552C7.48587 11.4083 7.40248 11.2269 7.24329 11.1966C7.09168 11.1361 6.91732 11.2118 6.87941 11.3705Z"/>
<path d="M18.1348 7.37057C18.1348 7.58985 18.1348 7.80913 18.1348 8.02086C18.1348 8.55016 18.1348 9.0719 18.1348 9.60121C18.1348 10.2364 18.1348 10.8715 18.1348 11.5143C18.1348 12.0662 18.1348 12.6258 18.1348 13.1778C18.1348 13.4576 18.1348 13.7373 18.1348 14.0247C18.1348 14.1154 18.1348 14.1986 18.1196 14.2893C18.1196 14.3196 18.112 14.3423 18.112 14.3725C18.1196 14.3196 18.112 14.3801 18.1044 14.4028C18.0969 14.4557 18.0817 14.5162 18.0665 14.5691C18.0438 14.675 18.0059 14.7808 17.968 14.8791C17.9604 14.9018 17.9528 14.9245 17.9377 14.9472C17.9604 14.9018 17.9301 14.9547 17.9225 14.9699C17.8998 15.0228 17.877 15.0682 17.8467 15.1211C17.7936 15.2118 17.7406 15.3026 17.6799 15.3933C17.6648 15.416 17.6496 15.4311 17.6344 15.4538C17.6648 15.416 17.6269 15.4614 17.6193 15.4765C17.5814 15.5218 17.5511 15.5597 17.5132 15.5975C17.4373 15.6731 17.3615 15.7487 17.2782 15.8167C17.263 15.8319 17.2175 15.8621 17.2554 15.8319C17.2327 15.847 17.2175 15.8621 17.1948 15.8772C17.1493 15.9075 17.1038 15.9377 17.0583 15.968C16.9673 16.0209 16.8764 16.0738 16.7778 16.1192C16.7627 16.1268 16.7096 16.1495 16.7551 16.1343C16.7323 16.1419 16.7096 16.157 16.6793 16.1646C16.6262 16.1873 16.5731 16.2024 16.5201 16.2175C16.414 16.2478 16.3078 16.278 16.2017 16.2931C16.1865 16.2931 16.1259 16.3082 16.1714 16.3007C16.141 16.3007 16.1183 16.3082 16.088 16.3082C16.0273 16.3158 15.9743 16.3158 15.9136 16.3158C15.853 16.3158 15.7923 16.3158 15.7317 16.3158C15.7014 16.3158 15.6635 16.3158 15.6331 16.3082C15.618 16.3082 15.5346 16.3007 15.5649 16.3007C15.4285 16.2856 15.2996 16.2553 15.1707 16.2099C15.1101 16.1948 15.0494 16.1721 14.9888 16.1495C14.9736 16.1419 14.9585 16.1343 14.9433 16.1343C14.9509 16.1343 14.9736 16.1495 14.9433 16.1343C14.913 16.1192 14.8751 16.1041 14.8447 16.089C14.7234 16.0285 14.6173 15.9604 14.5036 15.8848C14.443 15.8394 14.4505 15.847 14.3899 15.8016C14.3368 15.7563 14.2914 15.7184 14.2459 15.6731C14.0639 15.4916 13.9502 15.3404 13.8289 15.106C13.7986 15.053 13.7759 15.0001 13.7531 14.9396C13.7683 14.9699 13.738 14.9018 13.738 14.8942C13.7228 14.864 13.7152 14.8262 13.7001 14.7959C13.6773 14.7279 13.6622 14.6598 13.6394 14.5993C13.6318 14.5615 13.6167 14.5162 13.6091 14.4784C13.4802 13.9642 13.3514 13.45 13.2225 12.9358C13.1012 12.4519 12.9799 11.9679 12.8586 11.4765C12.851 11.4462 12.8434 11.4235 12.8359 11.3933C12.7449 11.5143 12.6463 11.6352 12.5554 11.7638C13.1542 11.7638 13.7607 11.7714 14.3596 11.7638C15.8302 11.7487 17.2175 10.9774 18.0059 9.73731C18.4532 9.04165 18.6882 8.21745 18.6882 7.39325C18.6882 7.24202 18.5517 7.09836 18.4001 7.10592C18.2636 7.08323 18.1348 7.20422 18.1348 7.37057C18.1348 7.45375 18.1348 7.54449 18.1272 7.62766C18.1272 7.67303 18.1196 7.71084 18.1196 7.7562C18.1196 7.77889 18.112 7.80158 18.112 7.8167C18.112 7.8167 18.1044 7.90744 18.1044 7.86207C18.0817 8.02842 18.0514 8.18721 18.0059 8.346C17.9149 8.68627 17.8088 8.93579 17.6344 9.23825C17.3161 9.79024 16.8612 10.2591 16.323 10.5918C16.1865 10.6749 16.0425 10.7506 15.8985 10.8186C15.8606 10.8337 15.8227 10.8488 15.7847 10.8715C15.8227 10.8564 15.7772 10.8715 15.7696 10.8791C15.7544 10.8867 15.7317 10.8942 15.7165 10.9018C15.6331 10.932 15.5422 10.9623 15.4588 10.9925C15.1177 11.0984 14.8296 11.1437 14.4885 11.1589C14.1852 11.174 13.882 11.1589 13.5863 11.1589C13.2452 11.1589 12.9117 11.1589 12.5705 11.1589C12.381 11.1589 12.2446 11.3479 12.29 11.5294C12.381 11.9075 12.4796 12.2855 12.5705 12.6636C12.7146 13.2458 12.8586 13.8205 13.0026 14.4028C13.033 14.5162 13.0557 14.6296 13.086 14.743C13.2225 15.2723 13.5105 15.7638 13.9123 16.1343C14.7083 16.8678 15.906 17.1098 16.9143 16.6939C17.7936 16.3309 18.4683 15.5597 18.6503 14.622C18.7185 14.2818 18.7109 13.9339 18.7109 13.5937C18.7109 13.0946 18.7109 12.5956 18.7109 12.1041C18.7109 11.4538 18.7109 10.811 18.7109 10.1608C18.7109 9.57096 18.7109 8.98873 18.7109 8.39893C18.7109 8.07379 18.7109 7.74864 18.7109 7.4235C18.7109 7.40837 18.7109 7.39325 18.7109 7.37813C18.7109 7.2269 18.5745 7.08323 18.4228 7.09079C18.2636 7.08323 18.1348 7.20422 18.1348 7.37057Z"/>
<path d="M18.1348 7.37057C18.1348 7.58985 18.1348 7.80913 18.1348 8.02086C18.1348 8.55016 18.1348 9.0719 18.1348 9.60121C18.1348 10.2364 18.1348 10.8715 18.1348 11.5143C18.1348 12.0662 18.1348 12.6258 18.1348 13.1778C18.1348 13.4576 18.1348 13.7373 18.1348 14.0247C18.1348 14.1154 18.1348 14.1986 18.1196 14.2893C18.1196 14.3196 18.112 14.3423 18.112 14.3725C18.1196 14.3196 18.112 14.3801 18.1044 14.4028C18.0969 14.4557 18.0817 14.5162 18.0665 14.5691C18.0438 14.675 18.0059 14.7808 17.968 14.8791C17.9604 14.9018 17.9528 14.9245 17.9377 14.9472C17.9604 14.9018 17.9301 14.9547 17.9225 14.9699C17.8998 15.0228 17.877 15.0682 17.8467 15.1211C17.7936 15.2118 17.7406 15.3026 17.6799 15.3933C17.6648 15.416 17.6496 15.4311 17.6344 15.4538C17.6648 15.416 17.6269 15.4614 17.6193 15.4765C17.5814 15.5218 17.5511 15.5597 17.5132 15.5975C17.4373 15.6731 17.3615 15.7487 17.2782 15.8167C17.263 15.8319 17.2175 15.8621 17.2554 15.8319C17.2327 15.847 17.2175 15.8621 17.1948 15.8772C17.1493 15.9075 17.1038 15.9377 17.0583 15.968C16.9673 16.0209 16.8764 16.0738 16.7778 16.1192C16.7627 16.1268 16.7096 16.1495 16.7551 16.1343C16.7323 16.1419 16.7096 16.157 16.6793 16.1646C16.6262 16.1873 16.5731 16.2024 16.5201 16.2175C16.414 16.2478 16.3078 16.278 16.2017 16.2931C16.1865 16.2931 16.1259 16.3082 16.1714 16.3007C16.141 16.3007 16.1183 16.3082 16.088 16.3082C16.0273 16.3158 15.9743 16.3158 15.9136 16.3158C15.853 16.3158 15.7923 16.3158 15.7317 16.3158C15.7014 16.3158 15.6635 16.3158 15.6331 16.3082C15.618 16.3082 15.5346 16.3007 15.5649 16.3007C15.4285 16.2856 15.2996 16.2553 15.1707 16.2099C15.1101 16.1948 15.0494 16.1721 14.9888 16.1495C14.9736 16.1419 14.9585 16.1343 14.9433 16.1343C14.9509 16.1343 14.9736 16.1495 14.9433 16.1343C14.913 16.1192 14.8751 16.1041 14.8447 16.089C14.7234 16.0285 14.6173 15.9604 14.5036 15.8848C14.443 15.8394 14.4505 15.847 14.3899 15.8016C14.3368 15.7563 14.2914 15.7184 14.2459 15.6731C14.0639 15.4916 13.9502 15.3404 13.8289 15.106C13.7986 15.053 13.7759 15.0001 13.7531 14.9396C13.7683 14.9699 13.738 14.9018 13.738 14.8942C13.7228 14.864 13.7152 14.8262 13.7001 14.7959C13.6773 14.7279 13.6622 14.6598 13.6394 14.5993C13.6318 14.5615 13.6167 14.5162 13.6091 14.4784C13.4802 13.9642 13.3514 13.45 13.2225 12.9358C13.1012 12.4519 12.9799 11.9679 12.8586 11.4765C12.851 11.4462 12.8434 11.4235 12.8359 11.3933C12.7449 11.5143 12.6463 11.6352 12.5554 11.7638C13.1542 11.7638 13.7607 11.7714 14.3596 11.7638C15.8302 11.7487 17.2175 10.9774 18.0059 9.73731C18.4532 9.04165 18.6882 8.21745 18.6882 7.39325C18.6882 7.24202 18.5517 7.09836 18.4001 7.10592C18.2636 7.08323 18.1348 7.20422 18.1348 7.37057C18.1348 7.45375 18.1348 7.54449 18.1272 7.62766C18.1272 7.67303 18.1196 7.71084 18.1196 7.7562C18.1196 7.77889 18.112 7.80158 18.112 7.8167C18.112 7.8167 18.1044 7.90744 18.1044 7.86207C18.0817 8.02842 18.0514 8.18721 18.0059 8.346C17.9149 8.68627 17.8088 8.93579 17.6344 9.23825C17.3161 9.79024 16.8612 10.2591 16.323 10.5918C16.1865 10.6749 16.0425 10.7506 15.8985 10.8186C15.8606 10.8337 15.8227 10.8488 15.7847 10.8715C15.8227 10.8564 15.7772 10.8715 15.7696 10.8791C15.7544 10.8867 15.7317 10.8942 15.7165 10.9018C15.6331 10.932 15.5422 10.9623 15.4588 10.9925C15.1177 11.0984 14.8296 11.1437 14.4885 11.1589C14.1852 11.174 13.882 11.1589 13.5863 11.1589C13.2452 11.1589 12.9117 11.1589 12.5705 11.1589C12.381 11.1589 12.2446 11.3479 12.29 11.5294C12.381 11.9075 12.4796 12.2855 12.5705 12.6636C12.7146 13.2458 12.8586 13.8205 13.0026 14.4028C13.033 14.5162 13.0557 14.6296 13.086 14.743C13.2225 15.2723 13.5105 15.7638 13.9123 16.1343C14.7083 16.8678 15.906 17.1098 16.9143 16.6939C17.7936 16.3309 18.4683 15.5597 18.6503 14.622C18.7185 14.2818 18.7109 13.9339 18.7109 13.5937C18.7109 13.0946 18.7109 12.5956 18.7109 12.1041C18.7109 11.4538 18.7109 10.811 18.7109 10.1608C18.7109 9.57096 18.7109 8.98873 18.7109 8.39893C18.7109 8.07379 18.7109 7.74864 18.7109 7.4235C18.7109 7.40837 18.7109 7.39325 18.7109 7.37813C18.7109 7.2269 18.5745 7.08323 18.4228 7.09079C18.2636 7.08323 18.1348 7.20422 18.1348 7.37057Z"/>
<path d="M18.1348 7.37057C18.1348 7.58985 18.1348 7.80913 18.1348 8.02086C18.1348 8.55016 18.1348 9.0719 18.1348 9.60121C18.1348 10.2364 18.1348 10.8715 18.1348 11.5143C18.1348 12.0662 18.1348 12.6258 18.1348 13.1778C18.1348 13.4576 18.1348 13.7373 18.1348 14.0247C18.1348 14.1154 18.1348 14.1986 18.1196 14.2893C18.1196 14.3196 18.112 14.3423 18.112 14.3725C18.1196 14.3196 18.112 14.3801 18.1044 14.4028C18.0969 14.4557 18.0817 14.5162 18.0665 14.5691C18.0438 14.675 18.0059 14.7808 17.968 14.8791C17.9604 14.9018 17.9528 14.9245 17.9377 14.9472C17.9604 14.9018 17.9301 14.9547 17.9225 14.9699C17.8998 15.0228 17.877 15.0682 17.8467 15.1211C17.7936 15.2118 17.7406 15.3026 17.6799 15.3933C17.6648 15.416 17.6496 15.4311 17.6344 15.4538C17.6648 15.416 17.6269 15.4614 17.6193 15.4765C17.5814 15.5218 17.5511 15.5597 17.5132 15.5975C17.4373 15.6731 17.3615 15.7487 17.2782 15.8167C17.263 15.8319 17.2175 15.8621 17.2554 15.8319C17.2327 15.847 17.2175 15.8621 17.1948 15.8772C17.1493 15.9075 17.1038 15.9377 17.0583 15.968C16.9673 16.0209 16.8764 16.0738 16.7778 16.1192C16.7627 16.1268 16.7096 16.1495 16.7551 16.1343C16.7323 16.1419 16.7096 16.157 16.6793 16.1646C16.6262 16.1873 16.5731 16.2024 16.5201 16.2175C16.414 16.2478 16.3078 16.278 16.2017 16.2931C16.1865 16.2931 16.1259 16.3082 16.1714 16.3007C16.141 16.3007 16.1183 16.3082 16.088 16.3082C16.0273 16.3158 15.9743 16.3158 15.9136 16.3158C15.853 16.3158 15.7923 16.3158 15.7317 16.3158C15.7014 16.3158 15.6635 16.3158 15.6331 16.3082C15.618 16.3082 15.5346 16.3007 15.5649 16.3007C15.4285 16.2856 15.2996 16.2553 15.1707 16.2099C15.1101 16.1948 15.0494 16.1721 14.9888 16.1495C14.9736 16.1419 14.9585 16.1343 14.9433 16.1343C14.9509 16.1343 14.9736 16.1495 14.9433 16.1343C14.913 16.1192 14.8751 16.1041 14.8447 16.089C14.7234 16.0285 14.6173 15.9604 14.5036 15.8848C14.443 15.8394 14.4505 15.847 14.3899 15.8016C14.3368 15.7563 14.2914 15.7184 14.2459 15.6731C14.0639 15.4916 13.9502 15.3404 13.8289 15.106C13.7986 15.053 13.7759 15.0001 13.7531 14.9396C13.7683 14.9699 13.738 14.9018 13.738 14.8942C13.7228 14.864 13.7152 14.8262 13.7001 14.7959C13.6773 14.7279 13.6622 14.6598 13.6394 14.5993C13.6318 14.5615 13.6167 14.5162 13.6091 14.4784C13.4802 13.9642 13.3514 13.45 13.2225 12.9358C13.1012 12.4519 12.9799 11.9679 12.8586 11.4765C12.851 11.4462 12.8434 11.4235 12.8359 11.3933C12.7449 11.5143 12.6463 11.6352 12.5554 11.7638C13.1542 11.7638 13.7607 11.7714 14.3596 11.7638C15.8302 11.7487 17.2175 10.9774 18.0059 9.73731C18.4532 9.04165 18.6882 8.21745 18.6882 7.39325C18.6882 7.24202 18.5517 7.09836 18.4001 7.10592C18.2636 7.08323 18.1348 7.20422 18.1348 7.37057ZM18.1348 7.37057C18.1348 7.45375 18.1348 7.54449 18.1272 7.62766C18.1272 7.67303 18.1196 7.71084 18.1196 7.7562C18.1196 7.77889 18.112 7.80158 18.112 7.8167C18.112 7.8167 18.1044 7.90744 18.1044 7.86207C18.0817 8.02842 18.0514 8.18721 18.0059 8.346C17.9149 8.68627 17.8088 8.93579 17.6344 9.23825C17.3161 9.79024 16.8612 10.2591 16.323 10.5918C16.1865 10.6749 16.0425 10.7506 15.8985 10.8186C15.8606 10.8337 15.8227 10.8488 15.7847 10.8715C15.8227 10.8564 15.7772 10.8715 15.7696 10.8791C15.7544 10.8867 15.7317 10.8942 15.7165 10.9018C15.6331 10.932 15.5422 10.9623 15.4588 10.9925C15.1177 11.0984 14.8296 11.1437 14.4885 11.1589C14.1852 11.174 13.882 11.1589 13.5863 11.1589C13.2452 11.1589 12.9117 11.1589 12.5705 11.1589C12.381 11.1589 12.2446 11.3479 12.29 11.5294C12.381 11.9075 12.4796 12.2855 12.5705 12.6636C12.7146 13.2458 12.8586 13.8205 13.0026 14.4028C13.033 14.5162 13.0557 14.6296 13.086 14.743C13.2225 15.2723 13.5105 15.7638 13.9123 16.1343C14.7083 16.8678 15.906 17.1098 16.9143 16.6939C17.7936 16.3309 18.4683 15.5597 18.6503 14.622C18.7185 14.2818 18.7109 13.9339 18.7109 13.5937C18.7109 13.0946 18.7109 12.5956 18.7109 12.1041C18.7109 11.4538 18.7109 10.811 18.7109 10.1608C18.7109 9.57096 18.7109 8.98873 18.7109 8.39893C18.7109 8.07379 18.7109 7.74864 18.7109 7.4235C18.7109 7.40837 18.7109 7.39325 18.7109 7.37813C18.7109 7.2269 18.5745 7.08323 18.4228 7.09079C18.2636 7.08323 18.1348 7.20422 18.1348 7.37057Z"/>
<path d="M18.1367 7.37054C18.1367 7.673 18.1139 7.89228 18.0533 8.17206C18.023 8.31573 17.985 8.45183 17.9396 8.58794C17.8941 8.72405 17.8562 8.82235 17.8107 8.92821C17.5757 9.43483 17.2876 9.82803 16.8783 10.1985C16.8328 10.2439 16.7797 10.2817 16.7342 10.3271C16.7115 10.3498 16.6887 10.3649 16.666 10.38C16.6433 10.4027 16.6584 10.3876 16.666 10.38C16.6433 10.3951 16.6281 10.4103 16.6054 10.4254C16.4992 10.501 16.3855 10.5766 16.2642 10.6447C16.1505 10.7127 16.0292 10.7732 15.9004 10.8337C15.7942 10.8791 15.6957 10.9169 15.5592 10.9622C15.4228 11.0076 15.2863 11.0454 15.1423 11.0757C15.0741 11.0908 15.0134 11.1059 14.9452 11.1135C14.9149 11.121 14.8845 11.121 14.8542 11.1286C14.8163 11.1362 14.8466 11.1286 14.8542 11.1286C14.8315 11.1286 14.8012 11.1362 14.7784 11.1362C14.6344 11.1513 14.4828 11.1588 14.3387 11.1588C14.0962 11.1588 13.846 11.1588 13.6034 11.1588C13.0728 11.1588 12.5421 11.1588 12.019 11.1588C11.3368 11.1588 10.6621 11.1588 9.97983 11.1588C9.29757 11.1588 8.6153 11.1588 7.93304 11.1588C7.37965 11.1588 6.82626 11.1588 6.28045 11.1588C6.00754 11.1588 5.72706 11.1588 5.45415 11.1588C5.40867 11.1588 5.37076 11.1588 5.32528 11.1588C5.20399 11.1588 5.0827 11.1513 4.96141 11.1362C4.94625 11.1362 4.87802 11.1286 4.93109 11.1362C4.90076 11.1286 4.87044 11.1286 4.84012 11.121C4.77947 11.1135 4.71882 11.0984 4.65818 11.0908C4.43076 11.0454 4.20334 10.9774 3.9835 10.8866C3.96834 10.8791 3.90011 10.8488 3.9456 10.8715C3.92285 10.8639 3.90011 10.8488 3.87737 10.8413C3.81672 10.811 3.76366 10.7883 3.70301 10.7581C3.59688 10.7052 3.49833 10.6522 3.39978 10.5842C3.30124 10.5237 3.21027 10.4556 3.1193 10.3876C3.11172 10.38 3.09655 10.3725 3.08897 10.3649C3.09655 10.3725 3.13446 10.3951 3.08897 10.3649C3.06623 10.3498 3.05107 10.3346 3.02833 10.3195C2.98284 10.2817 2.93736 10.2439 2.89188 10.2061C2.71752 10.0473 2.55833 9.88095 2.41429 9.69947C2.39155 9.67679 2.41429 9.70704 2.42187 9.70704C2.41429 9.69948 2.40671 9.68436 2.39913 9.6768C2.38397 9.65411 2.36123 9.63142 2.34607 9.60874C2.30816 9.56337 2.27784 9.51044 2.24752 9.46507C2.18687 9.36677 2.12623 9.26847 2.07316 9.17017C2.0201 9.07187 1.96703 8.96601 1.92155 8.86015C1.94429 8.91308 1.91397 8.83747 1.90639 8.82234C1.89881 8.79966 1.89122 8.77697 1.87606 8.74673C1.85332 8.6938 1.83816 8.63331 1.81542 8.57282C1.73961 8.34598 1.68655 8.11157 1.65622 7.8696C1.6638 7.92253 1.65622 7.86204 1.65622 7.83935C1.65622 7.8091 1.64864 7.77886 1.64864 7.74862C1.64106 7.68812 1.64106 7.62007 1.63348 7.55958C1.6259 7.42347 1.6259 7.28736 1.63348 7.15882C1.66381 6.59927 1.83058 6.02459 2.11107 5.5331C2.26268 5.26845 2.42945 5.0416 2.63413 4.81476C2.73268 4.7089 2.83123 4.61059 2.93736 4.51986C2.99042 4.47449 3.04349 4.42912 3.09656 4.38376C3.13446 4.35351 3.09656 4.38375 3.13446 4.35351C3.16478 4.33082 3.20269 4.30814 3.23301 4.28545C3.69543 3.96031 4.14269 3.77128 4.6885 3.65785C5.02963 3.5898 5.40867 3.5898 5.79528 3.5898C6.24255 3.5898 6.68223 3.5898 7.12949 3.5898C7.77385 3.5898 8.41821 3.5898 9.05499 3.5898C9.75241 3.5898 10.4498 3.5898 11.1397 3.5898C11.7537 3.5898 12.3677 3.5898 12.9818 3.5898C13.3684 3.5898 13.7626 3.5898 14.1492 3.5898C14.2174 3.5898 14.2857 3.5898 14.3463 3.5898C14.407 3.5898 14.4676 3.5898 14.5282 3.59736C14.5889 3.59736 14.6495 3.60492 14.7102 3.61248C14.7481 3.61248 14.7784 3.62005 14.8163 3.62005C14.8315 3.62005 14.8466 3.62005 14.8618 3.62761C14.8239 3.62005 14.8694 3.62761 14.8845 3.62761C15.1423 3.66541 15.4 3.72591 15.6426 3.81664C15.7033 3.83933 15.7563 3.86201 15.817 3.8847C15.817 3.8847 15.8624 3.89982 15.8321 3.89226C15.8018 3.87714 15.8549 3.89982 15.8625 3.90738C15.8928 3.9225 15.9231 3.93762 15.9534 3.94519C16.0671 3.99812 16.1808 4.05861 16.2946 4.12666C16.4083 4.19472 16.5144 4.27033 16.6205 4.34595C16.6281 4.35351 16.6812 4.39132 16.666 4.38376C16.6433 4.36863 16.6812 4.39131 16.6812 4.39887C16.6963 4.414 16.7115 4.42156 16.7267 4.43668C16.7797 4.47449 16.8252 4.51986 16.8783 4.56523C16.9692 4.64841 17.0602 4.73915 17.1512 4.82989C17.1891 4.87525 17.2346 4.92062 17.2725 4.96599C17.2952 4.98867 17.3179 5.01892 17.3331 5.0416C17.3407 5.04916 17.3483 5.06429 17.3559 5.07185C17.3331 5.04916 17.3483 5.06429 17.3634 5.07941C17.5302 5.30625 17.6742 5.54066 17.7955 5.79775C17.9017 6.02459 17.9926 6.28924 18.0533 6.56146C18.0684 6.62951 18.0836 6.70513 18.0988 6.77318C18.1139 6.85636 18.1139 6.87149 18.1215 6.9471C18.1215 7.06808 18.1291 7.21931 18.1367 7.37054C18.1367 7.52177 18.2731 7.66543 18.4247 7.65787C18.5839 7.65031 18.7204 7.52933 18.7128 7.37054C18.7052 6.1607 18.2049 4.98867 17.3104 4.17203C16.4992 3.42344 15.4304 3.00756 14.3236 3C14.1113 3 13.8915 3 13.6792 3C13.1561 3 12.6255 3 12.1024 3C11.4126 3 10.7303 3 10.0405 3C9.34306 3 8.63804 3 7.94062 3C7.37207 3 6.8111 3 6.24255 3C5.96206 3 5.68916 3 5.40867 3C4.42318 3 3.46801 3.32515 2.6872 3.93007C1.67896 4.7089 1.06493 5.91118 1.00428 7.18151C0.958797 8.19474 1.27719 9.21554 1.89122 10.0171C2.50526 10.811 3.37704 11.3932 4.36253 11.6277C4.79463 11.726 5.23431 11.7486 5.67399 11.7486C6.10609 11.7486 6.53819 11.7486 6.97029 11.7486C7.61465 11.7486 8.26659 11.7486 8.91095 11.7486C9.62354 11.7486 10.3437 11.7486 11.0563 11.7486C11.6855 11.7486 12.3147 11.7486 12.9363 11.7486C13.3305 11.7486 13.7247 11.7486 14.1189 11.7486C14.7329 11.7486 15.3394 11.673 15.9079 11.4462C16.992 11.0152 17.8789 10.1683 18.3338 9.09456C18.5688 8.55013 18.6901 7.9679 18.6901 7.37054C18.6901 7.21931 18.5536 7.07564 18.402 7.0832C18.2655 7.0832 18.1367 7.20419 18.1367 7.37054Z"/>
<path d="M18.1367 7.37054C18.1367 7.673 18.1139 7.89228 18.0533 8.17206C18.023 8.31573 17.985 8.45183 17.9396 8.58794C17.8941 8.72405 17.8562 8.82235 17.8107 8.92821C17.5757 9.43483 17.2876 9.82803 16.8783 10.1985C16.8328 10.2439 16.7797 10.2817 16.7342 10.3271C16.7115 10.3498 16.6887 10.3649 16.666 10.38C16.6433 10.4027 16.6584 10.3876 16.666 10.38C16.6433 10.3951 16.6281 10.4103 16.6054 10.4254C16.4992 10.501 16.3855 10.5766 16.2642 10.6447C16.1505 10.7127 16.0292 10.7732 15.9004 10.8337C15.7942 10.8791 15.6957 10.9169 15.5592 10.9622C15.4228 11.0076 15.2863 11.0454 15.1423 11.0757C15.0741 11.0908 15.0134 11.1059 14.9452 11.1135C14.9149 11.121 14.8845 11.121 14.8542 11.1286C14.8163 11.1362 14.8466 11.1286 14.8542 11.1286C14.8315 11.1286 14.8012 11.1362 14.7784 11.1362C14.6344 11.1513 14.4828 11.1588 14.3387 11.1588C14.0962 11.1588 13.846 11.1588 13.6034 11.1588C13.0728 11.1588 12.5421 11.1588 12.019 11.1588C11.3368 11.1588 10.6621 11.1588 9.97983 11.1588C9.29757 11.1588 8.6153 11.1588 7.93304 11.1588C7.37965 11.1588 6.82626 11.1588 6.28045 11.1588C6.00754 11.1588 5.72706 11.1588 5.45415 11.1588C5.40867 11.1588 5.37076 11.1588 5.32528 11.1588C5.20399 11.1588 5.0827 11.1513 4.96141 11.1362C4.94625 11.1362 4.87802 11.1286 4.93109 11.1362C4.90076 11.1286 4.87044 11.1286 4.84012 11.121C4.77947 11.1135 4.71882 11.0984 4.65818 11.0908C4.43076 11.0454 4.20334 10.9774 3.9835 10.8866C3.96834 10.8791 3.90011 10.8488 3.9456 10.8715C3.92285 10.8639 3.90011 10.8488 3.87737 10.8413C3.81672 10.811 3.76366 10.7883 3.70301 10.7581C3.59688 10.7052 3.49833 10.6522 3.39978 10.5842C3.30124 10.5237 3.21027 10.4556 3.1193 10.3876C3.11172 10.38 3.09655 10.3725 3.08897 10.3649C3.09655 10.3725 3.13446 10.3951 3.08897 10.3649C3.06623 10.3498 3.05107 10.3346 3.02833 10.3195C2.98284 10.2817 2.93736 10.2439 2.89188 10.2061C2.71752 10.0473 2.55833 9.88095 2.41429 9.69947C2.39155 9.67679 2.41429 9.70704 2.42187 9.70704C2.41429 9.69948 2.40671 9.68436 2.39913 9.6768C2.38397 9.65411 2.36123 9.63142 2.34607 9.60874C2.30816 9.56337 2.27784 9.51044 2.24752 9.46507C2.18687 9.36677 2.12623 9.26847 2.07316 9.17017C2.0201 9.07187 1.96703 8.96601 1.92155 8.86015C1.94429 8.91308 1.91397 8.83747 1.90639 8.82234C1.89881 8.79966 1.89122 8.77697 1.87606 8.74673C1.85332 8.6938 1.83816 8.63331 1.81542 8.57282C1.73961 8.34598 1.68655 8.11157 1.65622 7.8696C1.6638 7.92253 1.65622 7.86204 1.65622 7.83935C1.65622 7.8091 1.64864 7.77886 1.64864 7.74862C1.64106 7.68812 1.64106 7.62007 1.63348 7.55958C1.6259 7.42347 1.6259 7.28736 1.63348 7.15882C1.66381 6.59927 1.83058 6.02459 2.11107 5.5331C2.26268 5.26845 2.42945 5.0416 2.63413 4.81476C2.73268 4.7089 2.83123 4.61059 2.93736 4.51986C2.99042 4.47449 3.04349 4.42912 3.09656 4.38376C3.13446 4.35351 3.09656 4.38375 3.13446 4.35351C3.16478 4.33082 3.20269 4.30814 3.23301 4.28545C3.69543 3.96031 4.14269 3.77128 4.6885 3.65785C5.02963 3.5898 5.40867 3.5898 5.79528 3.5898C6.24255 3.5898 6.68223 3.5898 7.12949 3.5898C7.77385 3.5898 8.41821 3.5898 9.05499 3.5898C9.75241 3.5898 10.4498 3.5898 11.1397 3.5898C11.7537 3.5898 12.3677 3.5898 12.9818 3.5898C13.3684 3.5898 13.7626 3.5898 14.1492 3.5898C14.2174 3.5898 14.2857 3.5898 14.3463 3.5898C14.407 3.5898 14.4676 3.5898 14.5282 3.59736C14.5889 3.59736 14.6495 3.60492 14.7102 3.61248C14.7481 3.61248 14.7784 3.62005 14.8163 3.62005C14.8315 3.62005 14.8466 3.62005 14.8618 3.62761C14.8239 3.62005 14.8694 3.62761 14.8845 3.62761C15.1423 3.66541 15.4 3.72591 15.6426 3.81664C15.7033 3.83933 15.7563 3.86201 15.817 3.8847C15.817 3.8847 15.8624 3.89982 15.8321 3.89226C15.8018 3.87714 15.8549 3.89982 15.8625 3.90738C15.8928 3.9225 15.9231 3.93762 15.9534 3.94519C16.0671 3.99812 16.1808 4.05861 16.2946 4.12666C16.4083 4.19472 16.5144 4.27033 16.6205 4.34595C16.6281 4.35351 16.6812 4.39132 16.666 4.38376C16.6433 4.36863 16.6812 4.39131 16.6812 4.39887C16.6963 4.414 16.7115 4.42156 16.7267 4.43668C16.7797 4.47449 16.8252 4.51986 16.8783 4.56523C16.9692 4.64841 17.0602 4.73915 17.1512 4.82989C17.1891 4.87525 17.2346 4.92062 17.2725 4.96599C17.2952 4.98867 17.3179 5.01892 17.3331 5.0416C17.3407 5.04916 17.3483 5.06429 17.3559 5.07185C17.3331 5.04916 17.3483 5.06429 17.3634 5.07941C17.5302 5.30625 17.6742 5.54066 17.7955 5.79775C17.9017 6.02459 17.9926 6.28924 18.0533 6.56146C18.0684 6.62951 18.0836 6.70513 18.0988 6.77318C18.1139 6.85636 18.1139 6.87149 18.1215 6.9471C18.1215 7.06808 18.1291 7.21931 18.1367 7.37054C18.1367 7.52177 18.2731 7.66543 18.4247 7.65787C18.5839 7.65031 18.7204 7.52933 18.7128 7.37054C18.7052 6.1607 18.2049 4.98867 17.3104 4.17203C16.4992 3.42344 15.4304 3.00756 14.3236 3C14.1113 3 13.8915 3 13.6792 3C13.1561 3 12.6255 3 12.1024 3C11.4126 3 10.7303 3 10.0405 3C9.34306 3 8.63804 3 7.94062 3C7.37207 3 6.8111 3 6.24255 3C5.96206 3 5.68916 3 5.40867 3C4.42318 3 3.46801 3.32515 2.6872 3.93007C1.67896 4.7089 1.06493 5.91118 1.00428 7.18151C0.958797 8.19474 1.27719 9.21554 1.89122 10.0171C2.50526 10.811 3.37704 11.3932 4.36253 11.6277C4.79463 11.726 5.23431 11.7486 5.67399 11.7486C6.10609 11.7486 6.53819 11.7486 6.97029 11.7486C7.61465 11.7486 8.26659 11.7486 8.91095 11.7486C9.62354 11.7486 10.3437 11.7486 11.0563 11.7486C11.6855 11.7486 12.3147 11.7486 12.9363 11.7486C13.3305 11.7486 13.7247 11.7486 14.1189 11.7486C14.7329 11.7486 15.3394 11.673 15.9079 11.4462C16.992 11.0152 17.8789 10.1683 18.3338 9.09456C18.5688 8.55013 18.6901 7.9679 18.6901 7.37054C18.6901 7.21931 18.5536 7.07564 18.402 7.0832C18.2655 7.0832 18.1367 7.20419 18.1367 7.37054Z"/>
<path d="M18.1367 7.37054C18.1367 7.673 18.1139 7.89228 18.0533 8.17206C18.023 8.31573 17.985 8.45183 17.9396 8.58794C17.8941 8.72405 17.8562 8.82235 17.8107 8.92821C17.5757 9.43483 17.2876 9.82803 16.8783 10.1985C16.8328 10.2439 16.7797 10.2817 16.7342 10.3271C16.7115 10.3498 16.6887 10.3649 16.666 10.38C16.6433 10.4027 16.6584 10.3876 16.666 10.38C16.6433 10.3951 16.6281 10.4103 16.6054 10.4254C16.4992 10.501 16.3855 10.5766 16.2642 10.6447C16.1505 10.7127 16.0292 10.7732 15.9004 10.8337C15.7942 10.8791 15.6957 10.9169 15.5592 10.9622C15.4228 11.0076 15.2863 11.0454 15.1423 11.0757C15.0741 11.0908 15.0134 11.1059 14.9452 11.1135C14.9149 11.121 14.8845 11.121 14.8542 11.1286C14.8163 11.1362 14.8466 11.1286 14.8542 11.1286C14.8315 11.1286 14.8012 11.1362 14.7784 11.1362C14.6344 11.1513 14.4828 11.1588 14.3387 11.1588C14.0962 11.1588 13.846 11.1588 13.6034 11.1588C13.0728 11.1588 12.5421 11.1588 12.019 11.1588C11.3368 11.1588 10.6621 11.1588 9.97983 11.1588C9.29757 11.1588 8.6153 11.1588 7.93304 11.1588C7.37965 11.1588 6.82626 11.1588 6.28045 11.1588C6.00755 11.1588 5.72706 11.1588 5.45415 11.1588C5.40867 11.1588 5.37076 11.1588 5.32528 11.1588C5.20399 11.1588 5.0827 11.1513 4.96141 11.1362C4.94625 11.1362 4.87802 11.1286 4.93109 11.1362C4.90076 11.1286 4.87044 11.1286 4.84012 11.121C4.77947 11.1135 4.71882 11.0984 4.65818 11.0908C4.43076 11.0454 4.20334 10.9774 3.9835 10.8866C3.96834 10.8791 3.90011 10.8488 3.9456 10.8715C3.92285 10.8639 3.90011 10.8488 3.87737 10.8413C3.81672 10.811 3.76366 10.7883 3.70301 10.7581C3.59688 10.7052 3.49833 10.6522 3.39978 10.5842C3.30124 10.5237 3.21027 10.4556 3.1193 10.3876C3.11172 10.38 3.09655 10.3725 3.08897 10.3649C3.09655 10.3725 3.13446 10.3951 3.08897 10.3649C3.06623 10.3498 3.05107 10.3346 3.02833 10.3195C2.98284 10.2817 2.93736 10.2439 2.89188 10.2061C2.71752 10.0473 2.55833 9.88095 2.41429 9.69947C2.39155 9.67679 2.41429 9.70704 2.42187 9.70704C2.41429 9.69948 2.40671 9.68436 2.39913 9.6768C2.38397 9.65411 2.36123 9.63142 2.34607 9.60874C2.30816 9.56337 2.27784 9.51044 2.24752 9.46507C2.18687 9.36677 2.12623 9.26847 2.07316 9.17017C2.0201 9.07187 1.96703 8.96601 1.92155 8.86015C1.94429 8.91308 1.91397 8.83747 1.90639 8.82234C1.89881 8.79966 1.89122 8.77697 1.87606 8.74673C1.85332 8.6938 1.83816 8.63331 1.81542 8.57282C1.73961 8.34598 1.68655 8.11157 1.65622 7.8696C1.6638 7.92253 1.65622 7.86204 1.65622 7.83935C1.65622 7.8091 1.64864 7.77886 1.64864 7.74862C1.64106 7.68812 1.64106 7.62007 1.63348 7.55958C1.6259 7.42347 1.6259 7.28736 1.63348 7.15882C1.66381 6.59927 1.83058 6.02459 2.11107 5.5331C2.26268 5.26845 2.42945 5.0416 2.63413 4.81476C2.73268 4.7089 2.83123 4.61059 2.93736 4.51986C2.99042 4.47449 3.04349 4.42912 3.09656 4.38376C3.13446 4.35351 3.09656 4.38375 3.13446 4.35351C3.16478 4.33082 3.20269 4.30814 3.23301 4.28545C3.69543 3.96031 4.14269 3.77128 4.6885 3.65785C5.02963 3.5898 5.40867 3.5898 5.79528 3.5898C6.24254 3.5898 6.68223 3.5898 7.12949 3.5898C7.77385 3.5898 8.41821 3.5898 9.05499 3.5898C9.75241 3.5898 10.4498 3.5898 11.1397 3.5898C11.7537 3.5898 12.3677 3.5898 12.9818 3.5898C13.3684 3.5898 13.7626 3.5898 14.1492 3.5898C14.2174 3.5898 14.2857 3.5898 14.3463 3.5898C14.407 3.5898 14.4676 3.5898 14.5282 3.59736C14.5889 3.59736 14.6495 3.60492 14.7102 3.61248C14.7481 3.61248 14.7784 3.62005 14.8163 3.62005C14.8315 3.62005 14.8466 3.62005 14.8618 3.62761C14.8239 3.62005 14.8694 3.62761 14.8845 3.62761C15.1423 3.66541 15.4 3.72591 15.6426 3.81664C15.7033 3.83933 15.7563 3.86201 15.817 3.8847C15.817 3.8847 15.8624 3.89982 15.8321 3.89226C15.8018 3.87714 15.8549 3.89982 15.8625 3.90738C15.8928 3.9225 15.9231 3.93762 15.9534 3.94519C16.0671 3.99812 16.1808 4.05861 16.2946 4.12666C16.4083 4.19472 16.5144 4.27033 16.6205 4.34595C16.6281 4.35351 16.6812 4.39132 16.666 4.38376C16.6433 4.36863 16.6812 4.39131 16.6812 4.39887C16.6963 4.414 16.7115 4.42156 16.7267 4.43668C16.7797 4.47449 16.8252 4.51986 16.8783 4.56523C16.9692 4.64841 17.0602 4.73915 17.1512 4.82989C17.1891 4.87525 17.2346 4.92062 17.2725 4.96599C17.2952 4.98867 17.3179 5.01892 17.3331 5.0416C17.3407 5.04916 17.3483 5.06429 17.3559 5.07185C17.3331 5.04916 17.3483 5.06429 17.3634 5.07941C17.5302 5.30625 17.6742 5.54066 17.7955 5.79775C17.9017 6.02459 17.9926 6.28924 18.0533 6.56146C18.0684 6.62951 18.0836 6.70513 18.0988 6.77318C18.1139 6.85636 18.1139 6.87149 18.1215 6.9471C18.1215 7.06808 18.1291 7.21931 18.1367 7.37054ZM18.1367 7.37054C18.1367 7.52177 18.2731 7.66543 18.4247 7.65787C18.5839 7.65031 18.7204 7.52933 18.7128 7.37054C18.7052 6.1607 18.2049 4.98867 17.3104 4.17203C16.4992 3.42344 15.4304 3.00756 14.3236 3C14.1113 3 13.8915 3 13.6792 3C13.1561 3 12.6255 3 12.1024 3C11.4126 3 10.7303 3 10.0405 3C9.34306 3 8.63804 3 7.94062 3C7.37207 3 6.8111 3 6.24255 3C5.96206 3 5.68916 3 5.40867 3C4.42318 3 3.46801 3.32515 2.6872 3.93007C1.67896 4.7089 1.06493 5.91118 1.00428 7.18151C0.958797 8.19474 1.27719 9.21554 1.89122 10.0171C2.50526 10.811 3.37704 11.3932 4.36253 11.6277C4.79463 11.726 5.23431 11.7486 5.67399 11.7486C6.10609 11.7486 6.53819 11.7486 6.97029 11.7486C7.61465 11.7486 8.26659 11.7486 8.91095 11.7486C9.62354 11.7486 10.3437 11.7486 11.0563 11.7486C11.6855 11.7486 12.3147 11.7486 12.9363 11.7486C13.3305 11.7486 13.7247 11.7486 14.1189 11.7486C14.7329 11.7486 15.3394 11.673 15.9079 11.4462C16.992 11.0152 17.8789 10.1683 18.3338 9.09456C18.5688 8.55013 18.6901 7.9679 18.6901 7.37054C18.6901 7.21931 18.5536 7.07564 18.402 7.0832C18.2655 7.0832 18.1367 7.20419 18.1367 7.37054Z"/>
<path d="M5.40234 5.84316C5.40234 6.73541 5.40234 7.62011 5.40234 8.51237C5.40234 8.64091 5.40234 8.7619 5.40234 8.89044C5.40234 9.04167 5.5388 9.18534 5.69041 9.17778C5.84961 9.17022 5.97848 9.04923 5.97848 8.89044C5.97848 7.99819 5.97848 7.11349 5.97848 6.22123C5.97848 6.09269 5.97848 5.9717 5.97848 5.84316C5.97848 5.69193 5.84203 5.54827 5.69041 5.55583C5.5388 5.56339 5.40234 5.68437 5.40234 5.84316Z"/>
<path d="M5.40234 5.84316C5.40234 6.73541 5.40234 7.62011 5.40234 8.51237C5.40234 8.64091 5.40234 8.7619 5.40234 8.89044C5.40234 9.04167 5.5388 9.18534 5.69041 9.17778C5.84961 9.17022 5.97848 9.04923 5.97848 8.89044C5.97848 7.99819 5.97848 7.11349 5.97848 6.22123C5.97848 6.09269 5.97848 5.9717 5.97848 5.84316C5.97848 5.69193 5.84203 5.54827 5.69041 5.55583C5.5388 5.56339 5.40234 5.68437 5.40234 5.84316Z"/>
<path d="M5.40234 5.84316C5.40234 6.73541 5.40234 7.62011 5.40234 8.51237C5.40234 8.64091 5.40234 8.7619 5.40234 8.89044C5.40234 9.04167 5.5388 9.18534 5.69041 9.17778C5.84961 9.17022 5.97848 9.04923 5.97848 8.89044C5.97848 7.99819 5.97848 7.11349 5.97848 6.22123C5.97848 6.09269 5.97848 5.9717 5.97848 5.84316C5.97848 5.69193 5.84203 5.54827 5.69041 5.55583C5.5388 5.56339 5.40234 5.68437 5.40234 5.84316Z"/>
<path d="M4.16726 7.65792C5.06178 7.65792 5.94872 7.65792 6.84324 7.65792C6.97212 7.65792 7.09341 7.65792 7.22228 7.65792C7.37389 7.65792 7.51793 7.52182 7.51035 7.37059C7.50277 7.2118 7.38147 7.08325 7.22228 7.08325C6.32776 7.08325 5.44082 7.08325 4.54629 7.08325C4.41742 7.08325 4.29613 7.08325 4.16726 7.08325C4.01564 7.08325 3.87161 7.21936 3.87919 7.37059C3.88677 7.52938 4.00806 7.65792 4.16726 7.65792Z"/>
<path d="M4.16726 7.65792C5.06178 7.65792 5.94872 7.65792 6.84324 7.65792C6.97212 7.65792 7.09341 7.65792 7.22228 7.65792C7.37389 7.65792 7.51793 7.52182 7.51035 7.37059C7.50277 7.2118 7.38147 7.08325 7.22228 7.08325C6.32776 7.08325 5.44082 7.08325 4.54629 7.08325C4.41742 7.08325 4.29613 7.08325 4.16726 7.08325C4.01564 7.08325 3.87161 7.21936 3.87919 7.37059C3.88677 7.52938 4.00806 7.65792 4.16726 7.65792Z"/>
<path d="M4.16726 7.65792C5.06178 7.65792 5.94872 7.65792 6.84324 7.65792C6.97212 7.65792 7.09341 7.65792 7.22228 7.65792C7.37389 7.65792 7.51793 7.52182 7.51035 7.37059C7.50277 7.2118 7.38147 7.08325 7.22228 7.08325C6.32776 7.08325 5.44082 7.08325 4.54629 7.08325C4.41742 7.08325 4.29613 7.08325 4.16726 7.08325C4.01564 7.08325 3.87161 7.21936 3.87919 7.37059C3.88677 7.52938 4.00806 7.65792 4.16726 7.65792Z"/>
<path d="M13.7461 5.84316C13.7461 6.04732 13.7461 6.25148 13.7461 6.46321C13.7461 6.61444 13.8826 6.7581 14.0342 6.75054C14.1934 6.74298 14.3222 6.622 14.3222 6.46321C14.3222 6.25905 14.3222 6.05488 14.3222 5.84316C14.3222 5.69193 14.1858 5.54827 14.0342 5.55583C13.8826 5.56339 13.7461 5.68437 13.7461 5.84316Z"/>
<path d="M13.7461 5.84316C13.7461 6.04732 13.7461 6.25148 13.7461 6.46321C13.7461 6.61444 13.8826 6.7581 14.0342 6.75054C14.1934 6.74298 14.3222 6.622 14.3222 6.46321C14.3222 6.25905 14.3222 6.05488 14.3222 5.84316C14.3222 5.69193 14.1858 5.54827 14.0342 5.55583C13.8826 5.56339 13.7461 5.68437 13.7461 5.84316Z"/>
<path d="M13.7461 5.84316C13.7461 6.04732 13.7461 6.25148 13.7461 6.46321C13.7461 6.61444 13.8826 6.7581 14.0342 6.75054C14.1934 6.74298 14.3222 6.622 14.3222 6.46321C14.3222 6.25905 14.3222 6.05488 14.3222 5.84316C14.3222 5.69193 14.1858 5.54827 14.0342 5.55583C13.8826 5.56339 13.7461 5.68437 13.7461 5.84316Z"/>
<path d="M13.7461 8.28543C13.7461 8.48959 13.7461 8.68619 13.7461 8.89035C13.7461 9.04158 13.8826 9.18525 14.0342 9.17769C14.1934 9.17013 14.3222 9.04914 14.3222 8.89035C14.3222 8.68619 14.3222 8.48959 14.3222 8.28543C14.3222 8.1342 14.1858 7.99053 14.0342 7.99809C13.8826 8.00565 13.7461 8.12664 13.7461 8.28543Z"/>
<path d="M13.7461 8.28543C13.7461 8.48959 13.7461 8.68619 13.7461 8.89035C13.7461 9.04158 13.8826 9.18525 14.0342 9.17769C14.1934 9.17013 14.3222 9.04914 14.3222 8.89035C14.3222 8.68619 14.3222 8.48959 14.3222 8.28543C14.3222 8.1342 14.1858 7.99053 14.0342 7.99809C13.8826 8.00565 13.7461 8.12664 13.7461 8.28543Z"/>
<path d="M13.7461 8.28543C13.7461 8.48959 13.7461 8.68619 13.7461 8.89035C13.7461 9.04158 13.8826 9.18525 14.0342 9.17769C14.1934 9.17013 14.3222 9.04914 14.3222 8.89035C14.3222 8.68619 14.3222 8.48959 14.3222 8.28543C14.3222 8.1342 14.1858 7.99053 14.0342 7.99809C13.8826 8.00565 13.7461 8.12664 13.7461 8.28543Z"/>
<path d="M13.1175 7.07568C12.9128 7.07568 12.7157 7.07568 12.511 7.07568C12.3594 7.07568 12.2154 7.21179 12.2229 7.36302C12.2305 7.52181 12.3518 7.65035 12.511 7.65035C12.7157 7.65035 12.9128 7.65035 13.1175 7.65035C13.2691 7.65035 13.4131 7.51425 13.4055 7.36302C13.4055 7.21179 13.2842 7.07568 13.1175 7.07568Z"/>
<path d="M13.1175 7.07568C12.9128 7.07568 12.7157 7.07568 12.511 7.07568C12.3594 7.07568 12.2154 7.21179 12.2229 7.36302C12.2305 7.52181 12.3518 7.65035 12.511 7.65035C12.7157 7.65035 12.9128 7.65035 13.1175 7.65035C13.2691 7.65035 13.4131 7.51425 13.4055 7.36302C13.4055 7.21179 13.2842 7.07568 13.1175 7.07568Z"/>
<path d="M13.1175 7.07568C12.9128 7.07568 12.7157 7.07568 12.511 7.07568C12.3594 7.07568 12.2154 7.21179 12.2229 7.36302C12.2305 7.52181 12.3518 7.65035 12.511 7.65035C12.7157 7.65035 12.9128 7.65035 13.1175 7.65035C13.2691 7.65035 13.4131 7.51425 13.4055 7.36302C13.4055 7.21179 13.2842 7.07568 13.1175 7.07568Z"/>
<path d="M15.5667 7.07568C15.362 7.07568 15.1649 7.07568 14.9602 7.07568C14.8086 7.07568 14.6646 7.21179 14.6722 7.36302C14.6797 7.52181 14.801 7.65035 14.9602 7.65035C15.1649 7.65035 15.362 7.65035 15.5667 7.65035C15.7183 7.65035 15.8623 7.51425 15.8547 7.36302C15.8547 7.21179 15.7335 7.07568 15.5667 7.07568Z"/>
<path d="M15.5667 7.07568C15.362 7.07568 15.1649 7.07568 14.9602 7.07568C14.8086 7.07568 14.6646 7.21179 14.6722 7.36302C14.6797 7.52181 14.801 7.65035 14.9602 7.65035C15.1649 7.65035 15.362 7.65035 15.5667 7.65035C15.7183 7.65035 15.8623 7.51425 15.8547 7.36302C15.8547 7.21179 15.7335 7.07568 15.5667 7.07568Z"/>
<path d="M15.5667 7.07568C15.362 7.07568 15.1649 7.07568 14.9602 7.07568C14.8086 7.07568 14.6646 7.21179 14.6722 7.36302C14.6797 7.52181 14.801 7.65035 14.9602 7.65035C15.1649 7.65035 15.362 7.65035 15.5667 7.65035C15.7183 7.65035 15.8623 7.51425 15.8547 7.36302C15.8547 7.21179 15.7335 7.07568 15.5667 7.07568Z"/>
</svg>
