<svg width="20" height="20" viewBox="0 0 20 20" fill="none" xmlns="http://www.w3.org/2000/svg">
<path d="M1.60207 11.0865C1.60207 10.5874 1.59449 10.0959 1.60207 9.59686C1.60965 9.34733 1.62482 9.09024 1.64756 8.84071C1.65514 8.78022 1.66272 8.72729 1.6703 8.6668C1.6703 8.65924 1.67789 8.60631 1.6703 8.63655C1.66272 8.6668 1.6703 8.62899 1.6703 8.62143C1.67789 8.58362 1.67788 8.55337 1.68546 8.51557C1.7082 8.39458 1.72336 8.2736 1.75368 8.15262C1.85223 7.67624 1.98869 7.20743 2.16305 6.7613C2.18579 6.70837 2.20852 6.65544 2.22368 6.60251C2.23126 6.59495 2.24642 6.54958 2.22368 6.60251C2.23126 6.58739 2.23128 6.57983 2.23886 6.5647C2.25402 6.53446 2.26918 6.50421 2.27676 6.4664C2.32224 6.36054 2.37531 6.25468 2.42837 6.14882C2.5345 5.92954 2.6482 5.72538 2.77708 5.51366C2.89837 5.3095 3.03482 5.10534 3.17886 4.9163C3.20918 4.87093 3.24709 4.82556 3.27741 4.78019C3.28499 4.77263 3.33806 4.70458 3.30016 4.74995C3.31532 4.72726 3.33805 4.70458 3.35322 4.68189C3.42902 4.59116 3.50483 4.49286 3.58064 4.40968C3.89145 4.05429 4.23257 3.72159 4.59644 3.41913C4.64193 3.38132 4.68742 3.34351 4.7329 3.3057C4.75564 3.29058 4.77081 3.27546 4.79355 3.26034C4.74806 3.29814 4.82386 3.23765 4.83902 3.23009C4.93757 3.15447 5.02854 3.08642 5.12709 3.01837C5.32419 2.88226 5.52887 2.75372 5.73355 2.63273C5.93823 2.51931 6.15049 2.40589 6.36275 2.30759C6.41582 2.2849 6.4613 2.26222 6.51436 2.23953C6.54469 2.22441 6.56744 2.21685 6.59776 2.20173C6.62808 2.1866 6.59017 2.20173 6.59017 2.20929C6.61291 2.20173 6.62808 2.19417 6.65082 2.1866C6.76453 2.14124 6.87824 2.09587 6.99195 2.05806C7.44679 1.89171 7.92437 1.77072 8.40195 1.68755C8.4626 1.67998 8.51567 1.67242 8.57631 1.6573C8.59147 1.6573 8.67486 1.64218 8.61421 1.64974C8.65212 1.64218 8.68245 1.64218 8.72036 1.63462C8.84165 1.61949 8.97051 1.60437 9.0918 1.59681C9.34955 1.58169 9.60729 1.57412 9.86503 1.57412C10.4639 1.58925 10.9794 1.64974 11.5555 1.78585C11.836 1.8539 12.1165 1.92951 12.3894 2.02781C12.6699 2.12611 12.8746 2.20929 13.1247 2.33027C13.6402 2.57224 14.1254 2.86714 14.5802 3.19984C14.6712 3.2679 14.7546 3.33595 14.8683 3.42669C14.9744 3.51743 15.0805 3.60816 15.1867 3.70646C15.3914 3.8955 15.596 4.09966 15.778 4.30382C16.1494 4.71214 16.4451 5.12802 16.7332 5.62708C17.0288 6.12614 17.2335 6.59495 17.4154 7.12425C17.5064 7.39647 17.5822 7.67624 17.6428 7.95602C17.6732 8.09969 17.7035 8.24335 17.7262 8.38702C17.7338 8.45508 17.749 8.52313 17.7565 8.59118C17.7641 8.62899 17.7565 8.59874 17.7565 8.59118C17.7565 8.61387 17.7641 8.63655 17.7641 8.65167C17.7717 8.68948 17.7717 8.72729 17.7793 8.7651C17.8551 9.46075 17.8324 10.1715 17.8324 10.8748C17.8324 10.9428 17.8324 11.0184 17.8324 11.0865C17.8324 11.2377 17.9688 11.3814 18.1204 11.3738C18.2796 11.3662 18.4085 11.2453 18.4085 11.0865C18.4085 10.5799 18.4161 10.0732 18.4085 9.56661C18.3933 8.34922 18.1128 7.1545 17.6049 6.05052C17.1198 4.99948 16.4148 4.04673 15.5581 3.2679C14.6864 2.47394 13.6554 1.86146 12.541 1.47582C11.4342 1.09019 10.2441 0.938959 9.08421 1.02214C8.05324 1.09775 7.04502 1.3624 6.10501 1.79341C5.20291 2.20173 4.37661 2.7764 3.6716 3.4645C2.9666 4.15259 2.36772 4.96167 1.92804 5.84636C1.46562 6.76886 1.16997 7.76698 1.05626 8.79534C0.980453 9.48344 1.0032 10.1791 1.0032 10.8672C1.0032 10.9428 1.0032 11.0184 1.0032 11.094C1.0032 11.2453 1.13966 11.3889 1.29127 11.3814C1.46563 11.3662 1.60207 11.2453 1.60207 11.0865Z"/>
<path d="M1.60207 11.0865C1.60207 10.5874 1.59449 10.0959 1.60207 9.59686C1.60965 9.34733 1.62482 9.09024 1.64756 8.84071C1.65514 8.78022 1.66272 8.72729 1.6703 8.6668C1.6703 8.65924 1.67789 8.60631 1.6703 8.63655C1.66272 8.6668 1.6703 8.62899 1.6703 8.62143C1.67789 8.58362 1.67788 8.55337 1.68546 8.51557C1.7082 8.39458 1.72336 8.2736 1.75368 8.15262C1.85223 7.67624 1.98869 7.20743 2.16305 6.7613C2.18579 6.70837 2.20852 6.65544 2.22368 6.60251C2.23126 6.59495 2.24642 6.54958 2.22368 6.60251C2.23126 6.58739 2.23128 6.57983 2.23886 6.5647C2.25402 6.53446 2.26918 6.50421 2.27676 6.4664C2.32224 6.36054 2.37531 6.25468 2.42837 6.14882C2.5345 5.92954 2.6482 5.72538 2.77708 5.51366C2.89837 5.3095 3.03482 5.10534 3.17886 4.9163C3.20918 4.87093 3.24709 4.82556 3.27741 4.78019C3.28499 4.77263 3.33806 4.70458 3.30016 4.74995C3.31532 4.72726 3.33805 4.70458 3.35322 4.68189C3.42902 4.59116 3.50483 4.49286 3.58064 4.40968C3.89145 4.05429 4.23257 3.72159 4.59644 3.41913C4.64193 3.38132 4.68742 3.34351 4.7329 3.3057C4.75564 3.29058 4.77081 3.27546 4.79355 3.26034C4.74806 3.29814 4.82386 3.23765 4.83902 3.23009C4.93757 3.15447 5.02854 3.08642 5.12709 3.01837C5.32419 2.88226 5.52887 2.75372 5.73355 2.63273C5.93823 2.51931 6.15049 2.40589 6.36275 2.30759C6.41582 2.2849 6.4613 2.26222 6.51436 2.23953C6.54469 2.22441 6.56744 2.21685 6.59776 2.20173C6.62808 2.1866 6.59017 2.20173 6.59017 2.20929C6.61291 2.20173 6.62808 2.19417 6.65082 2.1866C6.76453 2.14124 6.87824 2.09587 6.99195 2.05806C7.44679 1.89171 7.92437 1.77072 8.40195 1.68755C8.4626 1.67998 8.51567 1.67242 8.57631 1.6573C8.59147 1.6573 8.67486 1.64218 8.61421 1.64974C8.65212 1.64218 8.68245 1.64218 8.72036 1.63462C8.84165 1.61949 8.97051 1.60437 9.0918 1.59681C9.34955 1.58169 9.60729 1.57412 9.86503 1.57412C10.4639 1.58925 10.9794 1.64974 11.5555 1.78585C11.836 1.8539 12.1165 1.92951 12.3894 2.02781C12.6699 2.12611 12.8746 2.20929 13.1247 2.33027C13.6402 2.57224 14.1254 2.86714 14.5802 3.19984C14.6712 3.2679 14.7546 3.33595 14.8683 3.42669C14.9744 3.51743 15.0805 3.60816 15.1867 3.70646C15.3914 3.8955 15.596 4.09966 15.778 4.30382C16.1494 4.71214 16.4451 5.12802 16.7332 5.62708C17.0288 6.12614 17.2335 6.59495 17.4154 7.12425C17.5064 7.39647 17.5822 7.67624 17.6428 7.95602C17.6732 8.09969 17.7035 8.24335 17.7262 8.38702C17.7338 8.45508 17.749 8.52313 17.7565 8.59118C17.7641 8.62899 17.7565 8.59874 17.7565 8.59118C17.7565 8.61387 17.7641 8.63655 17.7641 8.65167C17.7717 8.68948 17.7717 8.72729 17.7793 8.7651C17.8551 9.46075 17.8324 10.1715 17.8324 10.8748C17.8324 10.9428 17.8324 11.0184 17.8324 11.0865C17.8324 11.2377 17.9688 11.3814 18.1204 11.3738C18.2796 11.3662 18.4085 11.2453 18.4085 11.0865C18.4085 10.5799 18.4161 10.0732 18.4085 9.56661C18.3933 8.34922 18.1128 7.1545 17.6049 6.05052C17.1198 4.99948 16.4148 4.04673 15.5581 3.2679C14.6864 2.47394 13.6554 1.86146 12.541 1.47582C11.4342 1.09019 10.2441 0.938959 9.08421 1.02214C8.05324 1.09775 7.04502 1.3624 6.10501 1.79341C5.20291 2.20173 4.37661 2.7764 3.6716 3.4645C2.9666 4.15259 2.36772 4.96167 1.92804 5.84636C1.46562 6.76886 1.16997 7.76698 1.05626 8.79534C0.980453 9.48344 1.0032 10.1791 1.0032 10.8672C1.0032 10.9428 1.0032 11.0184 1.0032 11.094C1.0032 11.2453 1.13966 11.3889 1.29127 11.3814C1.46563 11.3662 1.60207 11.2453 1.60207 11.0865Z"/>
<path d="M1.60207 11.0865C1.60207 10.5874 1.59449 10.0959 1.60207 9.59686C1.60965 9.34733 1.62482 9.09024 1.64756 8.84071C1.65514 8.78022 1.66272 8.72729 1.6703 8.6668C1.6703 8.65924 1.67789 8.60631 1.6703 8.63655C1.66272 8.6668 1.6703 8.62899 1.6703 8.62143C1.67789 8.58362 1.67788 8.55337 1.68546 8.51557C1.7082 8.39458 1.72336 8.2736 1.75368 8.15262C1.85223 7.67624 1.98869 7.20743 2.16305 6.7613C2.18579 6.70837 2.20852 6.65544 2.22368 6.60251C2.23126 6.59495 2.24642 6.54958 2.22368 6.60251C2.23126 6.58739 2.23128 6.57983 2.23886 6.5647C2.25402 6.53446 2.26918 6.50421 2.27676 6.4664C2.32224 6.36054 2.37531 6.25468 2.42837 6.14882C2.5345 5.92954 2.6482 5.72538 2.77708 5.51366C2.89837 5.3095 3.03482 5.10534 3.17886 4.9163C3.20918 4.87093 3.24709 4.82556 3.27741 4.78019C3.28499 4.77263 3.33806 4.70458 3.30016 4.74995C3.31532 4.72726 3.33805 4.70458 3.35322 4.68189C3.42902 4.59116 3.50483 4.49286 3.58064 4.40968C3.89145 4.05429 4.23257 3.72159 4.59644 3.41913C4.64193 3.38132 4.68742 3.34351 4.7329 3.3057C4.75564 3.29058 4.77081 3.27546 4.79355 3.26034C4.74806 3.29814 4.82386 3.23765 4.83902 3.23009C4.93757 3.15447 5.02854 3.08642 5.12709 3.01837C5.32419 2.88226 5.52887 2.75372 5.73355 2.63273C5.93823 2.51931 6.15049 2.40589 6.36275 2.30759C6.41582 2.2849 6.4613 2.26222 6.51436 2.23953C6.54469 2.22441 6.56744 2.21685 6.59776 2.20173C6.62808 2.1866 6.59017 2.20173 6.59017 2.20929C6.61291 2.20173 6.62808 2.19417 6.65082 2.1866C6.76453 2.14124 6.87824 2.09587 6.99195 2.05806C7.44679 1.89171 7.92437 1.77072 8.40195 1.68755C8.4626 1.67998 8.51567 1.67242 8.57631 1.6573C8.59147 1.6573 8.67486 1.64218 8.61421 1.64974C8.65212 1.64218 8.68245 1.64218 8.72036 1.63462C8.84165 1.61949 8.97051 1.60437 9.0918 1.59681C9.34955 1.58169 9.60729 1.57412 9.86503 1.57412C10.4639 1.58925 10.9794 1.64974 11.5555 1.78585C11.836 1.8539 12.1165 1.92951 12.3894 2.02781C12.6699 2.12611 12.8746 2.20929 13.1247 2.33027C13.6402 2.57224 14.1254 2.86714 14.5802 3.19984C14.6712 3.2679 14.7546 3.33595 14.8683 3.42669C14.9744 3.51743 15.0805 3.60816 15.1867 3.70646C15.3914 3.8955 15.596 4.09966 15.778 4.30382C16.1494 4.71214 16.4451 5.12802 16.7332 5.62708C17.0288 6.12614 17.2335 6.59495 17.4154 7.12425C17.5064 7.39647 17.5822 7.67624 17.6428 7.95602C17.6732 8.09969 17.7035 8.24335 17.7262 8.38702C17.7338 8.45508 17.749 8.52313 17.7565 8.59118C17.7641 8.62899 17.7565 8.59874 17.7565 8.59118C17.7565 8.61387 17.7641 8.63655 17.7641 8.65167C17.7717 8.68948 17.7717 8.72729 17.7793 8.7651C17.8551 9.46075 17.8324 10.1715 17.8324 10.8748C17.8324 10.9428 17.8324 11.0184 17.8324 11.0865C17.8324 11.2377 17.9688 11.3814 18.1204 11.3738C18.2796 11.3662 18.4085 11.2453 18.4085 11.0865C18.4085 10.5799 18.4161 10.0732 18.4085 9.56661C18.3933 8.34922 18.1128 7.1545 17.6049 6.05052C17.1198 4.99948 16.4148 4.04673 15.5581 3.2679C14.6864 2.47394 13.6554 1.86146 12.541 1.47582C11.4342 1.09019 10.2441 0.938959 9.08421 1.02214C8.05324 1.09775 7.04502 1.3624 6.10501 1.79341C5.20291 2.20173 4.37661 2.7764 3.6716 3.4645C2.9666 4.15259 2.36772 4.96167 1.92804 5.84636C1.46562 6.76886 1.16997 7.76698 1.05626 8.79534C0.980453 9.48344 1.0032 10.1791 1.0032 10.8672C1.0032 10.9428 1.0032 11.0184 1.0032 11.094C1.0032 11.2453 1.13966 11.3889 1.29127 11.3814C1.46563 11.3662 1.60207 11.2453 1.60207 11.0865Z"/>
<path d="M5.16595 12.1753C5.16595 12.5232 5.16595 12.871 5.16595 13.2188C5.16595 13.922 5.16595 14.6328 5.16595 15.336C5.16595 15.8956 5.16595 16.4627 5.16595 17.0223C5.16595 17.0827 5.16595 17.1357 5.16595 17.1962C5.16595 17.2037 5.16595 17.2189 5.16595 17.2264C5.16595 17.2415 5.16595 17.2567 5.16595 17.2718C5.16595 17.302 5.16596 17.3323 5.15838 17.3625C5.16596 17.302 5.15078 17.3928 5.1432 17.4155C5.13562 17.4457 5.12805 17.4759 5.12047 17.4986C5.11289 17.5138 5.08255 17.5818 5.1053 17.5364C5.07497 17.5969 5.04465 17.6499 5.01433 17.7028C5.00675 17.7104 4.99917 17.7255 4.99159 17.733C5.02191 17.6877 4.99917 17.7255 4.99159 17.733C4.96884 17.7557 4.9537 17.7784 4.93096 17.8011C4.90821 17.8238 4.88546 17.8389 4.86272 17.8616C4.86272 17.8616 4.82483 17.8918 4.85515 17.8691C4.88547 17.8465 4.82481 17.8918 4.82481 17.8918C4.77933 17.9221 4.73385 17.9448 4.68079 17.975C4.64288 17.9977 4.71869 17.9599 4.68079 17.975C4.66563 17.9826 4.65805 17.9826 4.64288 17.9901C4.61256 17.9977 4.57466 18.0128 4.54433 18.0204C4.52917 18.0279 4.45336 18.0431 4.48368 18.0355C4.51401 18.0279 4.47611 18.0355 4.46853 18.0355C4.45336 18.0355 4.43063 18.0355 4.41546 18.0431C4.39272 18.0431 4.37756 18.0431 4.35481 18.0431C3.77868 18.0506 3.21013 18.0431 2.634 18.0431C2.44448 18.0431 2.24738 18.0431 2.05786 18.0431C2.02754 18.0431 2.00481 18.0431 1.97448 18.0355C2.02755 18.0431 1.9669 18.0355 1.95174 18.0279C1.94416 18.0279 1.86076 17.9977 1.89109 18.0128C1.92141 18.0279 1.87592 18.0052 1.86834 18.0052C1.85318 17.9977 1.83803 17.9901 1.82287 17.9826C1.80771 17.975 1.74705 17.9296 1.79253 17.9599C1.76979 17.9448 1.74706 17.9221 1.72432 17.8994C1.70915 17.8843 1.66366 17.8238 1.69398 17.8691C1.67124 17.8389 1.65608 17.8162 1.64092 17.786C1.63334 17.7784 1.62576 17.7633 1.62576 17.7482C1.6106 17.7104 1.64092 17.786 1.62576 17.7482C1.61818 17.7179 1.6106 17.6877 1.60302 17.665C1.60302 17.6574 1.59544 17.6196 1.60302 17.6499C1.6106 17.6877 1.60302 17.6347 1.60302 17.6196C1.60302 17.6045 1.60302 17.5894 1.60302 17.5818C1.60302 17.5742 1.60302 17.5667 1.60302 17.5591C1.60302 17.2037 1.60302 16.8483 1.60302 16.4854C1.60302 15.8049 1.60302 15.1168 1.60302 14.4362C1.60302 13.7406 1.60302 13.0449 1.60302 12.3493C1.60302 11.9485 1.60302 11.5402 1.60302 11.1394C1.60302 11.1167 1.60302 11.1016 1.60302 11.0789C1.50447 11.1772 1.40592 11.2755 1.31495 11.3663C1.80769 11.3663 2.30803 11.3663 2.80077 11.3663C3.32384 11.3663 3.84692 11.3587 4.3624 11.3663C4.40031 11.3663 4.43821 11.3663 4.47611 11.3738C4.48369 11.3738 4.52159 11.3814 4.49127 11.3738C4.45337 11.3663 4.52917 11.3814 4.52917 11.3814C4.5595 11.389 4.5974 11.3965 4.62773 11.4116C4.64289 11.4192 4.72627 11.4494 4.68079 11.4268C4.71111 11.4419 4.74143 11.457 4.77175 11.4721C4.80208 11.4872 4.82483 11.5099 4.85515 11.5251C4.86273 11.5326 4.90063 11.5629 4.85515 11.5251C4.87031 11.5326 4.87789 11.5477 4.89305 11.5553C4.91579 11.578 4.93853 11.6007 4.96127 11.6234C4.96885 11.6309 5.0295 11.7065 4.99917 11.6612C5.04466 11.7217 5.07498 11.7821 5.11288 11.8426C5.12805 11.8729 5.11288 11.8351 5.1053 11.8351C5.11288 11.8578 5.12046 11.8729 5.12804 11.8956C5.13562 11.9258 5.1508 11.9636 5.15838 11.9939C5.15838 12.009 5.16595 12.0166 5.16595 12.0317C5.18111 12.1149 5.16595 12.0014 5.16595 12.0468C5.16595 12.0922 5.16595 12.13 5.16595 12.1753C5.16595 12.3266 5.3024 12.4702 5.45402 12.4627C5.61321 12.4551 5.74967 12.3341 5.74209 12.1753C5.73451 11.5629 5.32514 11.0109 4.73385 10.8445C4.50643 10.7765 4.27143 10.7916 4.03643 10.7916C3.33142 10.7916 2.62642 10.7916 1.91383 10.7916C1.70915 10.7916 1.50447 10.7916 1.29979 10.7916C1.14059 10.7916 1.01172 10.9277 1.01172 11.0789C1.01172 11.3738 1.01172 11.6763 1.01172 11.9712C1.01172 12.6442 1.01172 13.3171 1.01172 13.9901C1.01172 14.7084 1.01172 15.4343 1.01172 16.1527C1.01172 16.5988 1.01172 17.0374 1.01172 17.4835C1.01172 17.7708 1.07995 18.0431 1.27704 18.2623C1.47414 18.4892 1.76221 18.6102 2.05786 18.6102C2.1185 18.6102 2.17157 18.6102 2.23222 18.6102C2.87658 18.6102 3.52095 18.6102 4.17289 18.6102C4.50644 18.6102 4.83241 18.5799 5.12047 18.3833C5.51467 18.1187 5.74966 17.6877 5.74966 17.2113C5.74966 16.7879 5.74966 16.3568 5.74966 15.9334C5.74966 15.1999 5.74966 14.4665 5.74966 13.7406C5.74966 13.2415 5.74966 12.7425 5.74966 12.2434C5.74966 12.2207 5.74966 12.1905 5.74966 12.1678C5.74966 12.0166 5.61322 11.8729 5.4616 11.8804C5.29483 11.888 5.16595 12.009 5.16595 12.1753Z"/>
<path d="M5.16595 12.1753C5.16595 12.5232 5.16595 12.871 5.16595 13.2188C5.16595 13.922 5.16595 14.6328 5.16595 15.336C5.16595 15.8956 5.16595 16.4627 5.16595 17.0223C5.16595 17.0827 5.16595 17.1357 5.16595 17.1962C5.16595 17.2037 5.16595 17.2189 5.16595 17.2264C5.16595 17.2415 5.16595 17.2567 5.16595 17.2718C5.16595 17.302 5.16596 17.3323 5.15838 17.3625C5.16596 17.302 5.15078 17.3928 5.1432 17.4155C5.13562 17.4457 5.12805 17.4759 5.12047 17.4986C5.11289 17.5138 5.08255 17.5818 5.1053 17.5364C5.07497 17.5969 5.04465 17.6499 5.01433 17.7028C5.00675 17.7104 4.99917 17.7255 4.99159 17.733C5.02191 17.6877 4.99917 17.7255 4.99159 17.733C4.96884 17.7557 4.9537 17.7784 4.93096 17.8011C4.90821 17.8238 4.88546 17.8389 4.86272 17.8616C4.86272 17.8616 4.82483 17.8918 4.85515 17.8691C4.88547 17.8465 4.82481 17.8918 4.82481 17.8918C4.77933 17.9221 4.73385 17.9448 4.68079 17.975C4.64288 17.9977 4.71869 17.9599 4.68079 17.975C4.66563 17.9826 4.65805 17.9826 4.64288 17.9901C4.61256 17.9977 4.57466 18.0128 4.54433 18.0204C4.52917 18.0279 4.45336 18.0431 4.48368 18.0355C4.51401 18.0279 4.47611 18.0355 4.46853 18.0355C4.45336 18.0355 4.43063 18.0355 4.41546 18.0431C4.39272 18.0431 4.37756 18.0431 4.35481 18.0431C3.77868 18.0506 3.21013 18.0431 2.634 18.0431C2.44448 18.0431 2.24738 18.0431 2.05786 18.0431C2.02754 18.0431 2.00481 18.0431 1.97448 18.0355C2.02755 18.0431 1.9669 18.0355 1.95174 18.0279C1.94416 18.0279 1.86076 17.9977 1.89109 18.0128C1.92141 18.0279 1.87592 18.0052 1.86834 18.0052C1.85318 17.9977 1.83803 17.9901 1.82287 17.9826C1.80771 17.975 1.74705 17.9296 1.79253 17.9599C1.76979 17.9448 1.74706 17.9221 1.72432 17.8994C1.70915 17.8843 1.66366 17.8238 1.69398 17.8691C1.67124 17.8389 1.65608 17.8162 1.64092 17.786C1.63334 17.7784 1.62576 17.7633 1.62576 17.7482C1.6106 17.7104 1.64092 17.786 1.62576 17.7482C1.61818 17.7179 1.6106 17.6877 1.60302 17.665C1.60302 17.6574 1.59544 17.6196 1.60302 17.6499C1.6106 17.6877 1.60302 17.6347 1.60302 17.6196C1.60302 17.6045 1.60302 17.5894 1.60302 17.5818C1.60302 17.5742 1.60302 17.5667 1.60302 17.5591C1.60302 17.2037 1.60302 16.8483 1.60302 16.4854C1.60302 15.8049 1.60302 15.1168 1.60302 14.4362C1.60302 13.7406 1.60302 13.0449 1.60302 12.3493C1.60302 11.9485 1.60302 11.5402 1.60302 11.1394C1.60302 11.1167 1.60302 11.1016 1.60302 11.0789C1.50447 11.1772 1.40592 11.2755 1.31495 11.3663C1.80769 11.3663 2.30803 11.3663 2.80077 11.3663C3.32384 11.3663 3.84692 11.3587 4.3624 11.3663C4.40031 11.3663 4.43821 11.3663 4.47611 11.3738C4.48369 11.3738 4.52159 11.3814 4.49127 11.3738C4.45337 11.3663 4.52917 11.3814 4.52917 11.3814C4.5595 11.389 4.5974 11.3965 4.62773 11.4116C4.64289 11.4192 4.72627 11.4494 4.68079 11.4268C4.71111 11.4419 4.74143 11.457 4.77175 11.4721C4.80208 11.4872 4.82483 11.5099 4.85515 11.5251C4.86273 11.5326 4.90063 11.5629 4.85515 11.5251C4.87031 11.5326 4.87789 11.5477 4.89305 11.5553C4.91579 11.578 4.93853 11.6007 4.96127 11.6234C4.96885 11.6309 5.0295 11.7065 4.99917 11.6612C5.04466 11.7217 5.07498 11.7821 5.11288 11.8426C5.12805 11.8729 5.11288 11.8351 5.1053 11.8351C5.11288 11.8578 5.12046 11.8729 5.12804 11.8956C5.13562 11.9258 5.1508 11.9636 5.15838 11.9939C5.15838 12.009 5.16595 12.0166 5.16595 12.0317C5.18111 12.1149 5.16595 12.0014 5.16595 12.0468C5.16595 12.0922 5.16595 12.13 5.16595 12.1753C5.16595 12.3266 5.3024 12.4702 5.45402 12.4627C5.61321 12.4551 5.74967 12.3341 5.74209 12.1753C5.73451 11.5629 5.32514 11.0109 4.73385 10.8445C4.50643 10.7765 4.27143 10.7916 4.03643 10.7916C3.33142 10.7916 2.62642 10.7916 1.91383 10.7916C1.70915 10.7916 1.50447 10.7916 1.29979 10.7916C1.14059 10.7916 1.01172 10.9277 1.01172 11.0789C1.01172 11.3738 1.01172 11.6763 1.01172 11.9712C1.01172 12.6442 1.01172 13.3171 1.01172 13.9901C1.01172 14.7084 1.01172 15.4343 1.01172 16.1527C1.01172 16.5988 1.01172 17.0374 1.01172 17.4835C1.01172 17.7708 1.07995 18.0431 1.27704 18.2623C1.47414 18.4892 1.76221 18.6102 2.05786 18.6102C2.1185 18.6102 2.17157 18.6102 2.23222 18.6102C2.87658 18.6102 3.52095 18.6102 4.17289 18.6102C4.50644 18.6102 4.83241 18.5799 5.12047 18.3833C5.51467 18.1187 5.74966 17.6877 5.74966 17.2113C5.74966 16.7879 5.74966 16.3568 5.74966 15.9334C5.74966 15.1999 5.74966 14.4665 5.74966 13.7406C5.74966 13.2415 5.74966 12.7425 5.74966 12.2434C5.74966 12.2207 5.74966 12.1905 5.74966 12.1678C5.74966 12.0166 5.61322 11.8729 5.4616 11.8804C5.29483 11.888 5.16595 12.009 5.16595 12.1753Z"/>
<path d="M5.16595 12.1753C5.16595 12.5232 5.16595 12.871 5.16595 13.2188C5.16595 13.922 5.16595 14.6328 5.16595 15.336C5.16595 15.8956 5.16595 16.4627 5.16595 17.0223C5.16595 17.0827 5.16595 17.1357 5.16595 17.1962C5.16595 17.2037 5.16595 17.2189 5.16595 17.2264C5.16595 17.2415 5.16595 17.2567 5.16595 17.2718C5.16595 17.302 5.16596 17.3323 5.15838 17.3625C5.16596 17.302 5.15078 17.3928 5.1432 17.4155C5.13562 17.4457 5.12805 17.4759 5.12047 17.4986C5.11289 17.5138 5.08255 17.5818 5.1053 17.5364C5.07497 17.5969 5.04465 17.6499 5.01433 17.7028C5.00675 17.7104 4.99917 17.7255 4.99159 17.733C5.02191 17.6877 4.99917 17.7255 4.99159 17.733C4.96884 17.7557 4.9537 17.7784 4.93096 17.8011C4.90821 17.8238 4.88546 17.8389 4.86272 17.8616C4.86272 17.8616 4.82483 17.8918 4.85515 17.8691C4.88547 17.8465 4.82481 17.8918 4.82481 17.8918C4.77933 17.9221 4.73385 17.9448 4.68079 17.975C4.64289 17.9977 4.71869 17.9599 4.68079 17.975C4.66563 17.9826 4.65805 17.9826 4.64289 17.9901C4.61256 17.9977 4.57466 18.0128 4.54433 18.0204C4.52917 18.0279 4.45336 18.0431 4.48368 18.0355C4.51401 18.0279 4.47611 18.0355 4.46853 18.0355C4.45336 18.0355 4.43063 18.0355 4.41546 18.0431C4.39272 18.0431 4.37756 18.0431 4.35481 18.0431C3.77868 18.0506 3.21013 18.0431 2.634 18.0431C2.44448 18.0431 2.24738 18.0431 2.05786 18.0431C2.02754 18.0431 2.00481 18.0431 1.97448 18.0355C2.02755 18.0431 1.9669 18.0355 1.95174 18.0279C1.94416 18.0279 1.86076 17.9977 1.89109 18.0128C1.92141 18.0279 1.87592 18.0052 1.86834 18.0052C1.85318 17.9977 1.83803 17.9901 1.82287 17.9826C1.80771 17.975 1.74705 17.9296 1.79253 17.9599C1.76979 17.9448 1.74706 17.9221 1.72432 17.8994C1.70915 17.8843 1.66366 17.8238 1.69398 17.8691C1.67124 17.8389 1.65608 17.8162 1.64092 17.786C1.63334 17.7784 1.62576 17.7633 1.62576 17.7482C1.6106 17.7104 1.64092 17.786 1.62576 17.7482C1.61818 17.7179 1.6106 17.6877 1.60302 17.665C1.60302 17.6574 1.59544 17.6196 1.60302 17.6499C1.6106 17.6877 1.60302 17.6347 1.60302 17.6196C1.60302 17.6045 1.60302 17.5894 1.60302 17.5818C1.60302 17.5742 1.60302 17.5667 1.60302 17.5591C1.60302 17.2037 1.60302 16.8483 1.60302 16.4854C1.60302 15.8049 1.60302 15.1168 1.60302 14.4362C1.60302 13.7406 1.60302 13.0449 1.60302 12.3493C1.60302 11.9485 1.60302 11.5402 1.60302 11.1394C1.60302 11.1167 1.60302 11.1016 1.60302 11.0789C1.50447 11.1772 1.40592 11.2755 1.31495 11.3663C1.80769 11.3663 2.30803 11.3663 2.80077 11.3663C3.32384 11.3663 3.84692 11.3587 4.3624 11.3663C4.40031 11.3663 4.43821 11.3663 4.47611 11.3738C4.48369 11.3738 4.52159 11.3814 4.49127 11.3738C4.45337 11.3663 4.52917 11.3814 4.52917 11.3814C4.5595 11.389 4.5974 11.3965 4.62773 11.4116C4.64289 11.4192 4.72627 11.4494 4.68079 11.4268C4.71111 11.4419 4.74143 11.457 4.77175 11.4721C4.80208 11.4872 4.82483 11.5099 4.85515 11.5251C4.86273 11.5326 4.90063 11.5629 4.85515 11.5251C4.87031 11.5326 4.87789 11.5477 4.89305 11.5553C4.91579 11.578 4.93853 11.6007 4.96127 11.6234C4.96885 11.6309 5.0295 11.7065 4.99917 11.6612C5.04466 11.7217 5.07498 11.7821 5.11288 11.8426C5.12805 11.8729 5.11288 11.8351 5.1053 11.8351C5.11288 11.8578 5.12046 11.8729 5.12804 11.8956C5.13562 11.9258 5.1508 11.9636 5.15838 11.9939C5.15838 12.009 5.16595 12.0166 5.16595 12.0317C5.18111 12.1149 5.16595 12.0014 5.16595 12.0468C5.16595 12.0922 5.16595 12.13 5.16595 12.1753ZM5.16595 12.1753C5.16595 12.3266 5.3024 12.4702 5.45402 12.4627C5.61321 12.4551 5.74967 12.3341 5.74209 12.1753C5.73451 11.5629 5.32514 11.0109 4.73385 10.8445C4.50643 10.7765 4.27143 10.7916 4.03643 10.7916C3.33142 10.7916 2.62642 10.7916 1.91383 10.7916C1.70915 10.7916 1.50447 10.7916 1.29979 10.7916C1.14059 10.7916 1.01172 10.9277 1.01172 11.0789C1.01172 11.3738 1.01172 11.6763 1.01172 11.9712C1.01172 12.6442 1.01172 13.3171 1.01172 13.9901C1.01172 14.7084 1.01172 15.4343 1.01172 16.1527C1.01172 16.5988 1.01172 17.0374 1.01172 17.4835C1.01172 17.7708 1.07995 18.0431 1.27704 18.2623C1.47414 18.4892 1.76221 18.6102 2.05786 18.6102C2.1185 18.6102 2.17157 18.6102 2.23222 18.6102C2.87658 18.6102 3.52095 18.6102 4.17289 18.6102C4.50644 18.6102 4.83241 18.5799 5.12047 18.3833C5.51467 18.1187 5.74966 17.6877 5.74966 17.2113C5.74966 16.7879 5.74966 16.3568 5.74966 15.9334C5.74966 15.1999 5.74966 14.4665 5.74966 13.7406C5.74966 13.2415 5.74966 12.7425 5.74966 12.2434C5.74966 12.2207 5.74966 12.1905 5.74966 12.1678C5.74966 12.0166 5.61322 11.8729 5.4616 11.8804C5.29483 11.888 5.16595 12.009 5.16595 12.1753Z"/>
<path d="M17.8397 11.079C17.8397 11.51 17.8397 11.9335 17.8397 12.3645C17.8397 13.2492 17.8397 14.1263 17.8397 15.011C17.8397 15.7444 17.8397 16.4779 17.8397 17.2114C17.8397 17.3324 17.8397 17.4533 17.8397 17.5743C17.8397 17.5894 17.8322 17.6726 17.8397 17.6424C17.8473 17.6046 17.8322 17.6575 17.8322 17.6651C17.8246 17.6877 17.817 17.7029 17.817 17.7256C17.817 17.7331 17.7943 17.7785 17.817 17.7256C17.8094 17.7407 17.8019 17.7558 17.7943 17.7709C17.7867 17.786 17.7791 17.8012 17.7715 17.8163C17.7639 17.8239 17.7185 17.8843 17.7564 17.839C17.7336 17.8617 17.7109 17.8919 17.6881 17.9146C17.6881 17.9146 17.6275 17.9675 17.6578 17.9373C17.6881 17.9146 17.6427 17.9448 17.6351 17.9524C17.6048 17.9751 17.5668 17.9902 17.5365 18.0053C17.5896 17.9826 17.4759 18.0205 17.4607 18.0205C17.4456 18.0205 17.4076 18.028 17.4607 18.0205C17.4456 18.0205 17.4228 18.0205 17.4077 18.0205C17.4001 18.0205 17.3849 18.0205 17.3773 18.0205C17.3698 18.0205 17.3546 18.0205 17.347 18.0205C17.2939 18.0205 17.2485 18.0205 17.1954 18.0205C16.498 18.0205 15.8006 18.028 15.1031 18.0205C15.088 18.0205 15.0728 18.0205 15.0576 18.0205C15.0425 18.0205 14.9288 18.0053 14.9894 18.0129C14.9136 17.9978 14.8378 17.9826 14.7696 17.9524C14.8226 17.9751 14.7317 17.9297 14.7165 17.9222C14.6862 17.907 14.6559 17.8843 14.618 17.8617C14.6104 17.8541 14.5725 17.8239 14.618 17.8617C14.6028 17.8541 14.5952 17.839 14.58 17.8314C14.5497 17.8012 14.5194 17.7709 14.4891 17.7407C14.4815 17.7256 14.4663 17.718 14.4588 17.7029C14.4967 17.7407 14.4663 17.7104 14.4588 17.7029C14.436 17.6726 14.4133 17.6424 14.3981 17.6046C14.3905 17.5894 14.3451 17.4911 14.3678 17.5516C14.3526 17.5138 14.3375 17.4685 14.3299 17.4307C14.3223 17.4004 14.3147 17.3626 14.3072 17.3324C14.3223 17.3929 14.2996 17.2794 14.2996 17.2643C14.2996 17.2492 14.2996 17.2341 14.2996 17.2189C14.2996 17.0375 14.2996 16.8635 14.2996 16.6821C14.2996 15.8427 14.2996 15.011 14.2996 14.1717C14.2996 13.5214 14.2996 12.8711 14.2996 12.2208C14.2996 12.1981 14.2996 12.183 14.2996 12.1603C14.2996 12.1527 14.2996 12.1376 14.2996 12.1301C14.2996 12.0923 14.2996 12.062 14.3072 12.0242C14.2996 12.0847 14.3072 12.0318 14.3072 12.0242C14.3147 12.0015 14.3147 11.9713 14.3223 11.9486C14.3299 11.9108 14.3451 11.873 14.3602 11.8427C14.3754 11.7974 14.3375 11.8805 14.3602 11.8427C14.3678 11.8276 14.3754 11.8049 14.3905 11.7898C14.4057 11.7595 14.4209 11.7293 14.4436 11.7066C14.4512 11.6915 14.4663 11.6764 14.4739 11.6688C14.436 11.7217 14.4815 11.6612 14.4891 11.6537C14.5118 11.6234 14.5421 11.6008 14.5649 11.5705C14.5801 11.5629 14.5876 11.5478 14.6028 11.5403C14.6407 11.51 14.5497 11.5781 14.6104 11.5327C14.6407 11.5176 14.6634 11.4949 14.6938 11.4798C14.7089 11.4722 14.7241 11.4646 14.7393 11.4571C14.7468 11.4571 14.8226 11.4193 14.762 11.442C14.8302 11.4117 14.8985 11.3966 14.9743 11.3815C15.0197 11.3739 14.906 11.3815 14.9894 11.3815C15.0046 11.3815 15.0273 11.3815 15.0425 11.3739C15.0576 11.3739 15.0804 11.3739 15.0955 11.3739C15.1183 11.3739 15.141 11.3739 15.1638 11.3739C15.2926 11.3739 15.4139 11.3739 15.5428 11.3739C16.3464 11.3739 17.1423 11.3739 17.9459 11.3739C18.0065 11.3739 18.0672 11.3739 18.1278 11.3739C18.2794 11.3739 18.4235 11.2378 18.4159 11.0866C18.4083 10.9278 18.287 10.7992 18.1278 10.7992C17.438 10.7992 16.7406 10.7992 16.0507 10.7992C15.7399 10.7992 15.4367 10.7992 15.1259 10.7992C14.5118 10.7992 13.9584 11.1773 13.7689 11.7671C13.6931 12.0015 13.7083 12.251 13.7083 12.493C13.7083 12.8408 13.7083 13.1887 13.7083 13.5289C13.7083 14.4287 13.7083 15.3361 13.7083 16.2359C13.7083 16.5233 13.7083 16.8106 13.7083 17.098C13.7083 17.1433 13.7083 17.1887 13.7083 17.2416C13.7158 17.597 13.8447 17.9373 14.0873 18.1944C14.3375 18.459 14.6938 18.6102 15.0501 18.6254C15.141 18.6254 15.232 18.6254 15.323 18.6254C15.7551 18.6254 16.1872 18.6254 16.6193 18.6254C16.8012 18.6254 16.9907 18.6254 17.1727 18.6254C17.3015 18.6254 17.4228 18.6254 17.5517 18.6102C17.9307 18.5498 18.2491 18.2549 18.3628 17.8995C18.4007 17.786 18.4083 17.6575 18.4083 17.5365C18.4083 16.9618 18.4083 16.3796 18.4083 15.8049C18.4083 14.8824 18.4083 13.9675 18.4083 13.045C18.4083 12.425 18.4083 11.8049 18.4083 11.1849C18.4083 11.1546 18.4083 11.1244 18.4083 11.0866C18.4083 10.9353 18.2719 10.7917 18.1202 10.7992C17.9762 10.7992 17.8397 10.9202 17.8397 11.079Z"/>
<path d="M17.8397 11.079C17.8397 11.51 17.8397 11.9335 17.8397 12.3645C17.8397 13.2492 17.8397 14.1263 17.8397 15.011C17.8397 15.7444 17.8397 16.4779 17.8397 17.2114C17.8397 17.3324 17.8397 17.4533 17.8397 17.5743C17.8397 17.5894 17.8322 17.6726 17.8397 17.6424C17.8473 17.6046 17.8322 17.6575 17.8322 17.6651C17.8246 17.6877 17.817 17.7029 17.817 17.7256C17.817 17.7331 17.7943 17.7785 17.817 17.7256C17.8094 17.7407 17.8019 17.7558 17.7943 17.7709C17.7867 17.786 17.7791 17.8012 17.7715 17.8163C17.7639 17.8239 17.7185 17.8843 17.7564 17.839C17.7336 17.8617 17.7109 17.8919 17.6881 17.9146C17.6881 17.9146 17.6275 17.9675 17.6578 17.9373C17.6881 17.9146 17.6427 17.9448 17.6351 17.9524C17.6048 17.9751 17.5668 17.9902 17.5365 18.0053C17.5896 17.9826 17.4759 18.0205 17.4607 18.0205C17.4456 18.0205 17.4076 18.028 17.4607 18.0205C17.4456 18.0205 17.4228 18.0205 17.4077 18.0205C17.4001 18.0205 17.3849 18.0205 17.3773 18.0205C17.3698 18.0205 17.3546 18.0205 17.347 18.0205C17.2939 18.0205 17.2485 18.0205 17.1954 18.0205C16.498 18.0205 15.8006 18.028 15.1031 18.0205C15.088 18.0205 15.0728 18.0205 15.0576 18.0205C15.0425 18.0205 14.9288 18.0053 14.9894 18.0129C14.9136 17.9978 14.8378 17.9826 14.7696 17.9524C14.8226 17.9751 14.7317 17.9297 14.7165 17.9222C14.6862 17.907 14.6559 17.8843 14.618 17.8617C14.6104 17.8541 14.5725 17.8239 14.618 17.8617C14.6028 17.8541 14.5952 17.839 14.58 17.8314C14.5497 17.8012 14.5194 17.7709 14.4891 17.7407C14.4815 17.7256 14.4663 17.718 14.4588 17.7029C14.4967 17.7407 14.4663 17.7104 14.4588 17.7029C14.436 17.6726 14.4133 17.6424 14.3981 17.6046C14.3905 17.5894 14.3451 17.4911 14.3678 17.5516C14.3526 17.5138 14.3375 17.4685 14.3299 17.4307C14.3223 17.4004 14.3147 17.3626 14.3072 17.3324C14.3223 17.3929 14.2996 17.2794 14.2996 17.2643C14.2996 17.2492 14.2996 17.2341 14.2996 17.2189C14.2996 17.0375 14.2996 16.8635 14.2996 16.6821C14.2996 15.8427 14.2996 15.011 14.2996 14.1717C14.2996 13.5214 14.2996 12.8711 14.2996 12.2208C14.2996 12.1981 14.2996 12.183 14.2996 12.1603C14.2996 12.1527 14.2996 12.1376 14.2996 12.1301C14.2996 12.0923 14.2996 12.062 14.3072 12.0242C14.2996 12.0847 14.3072 12.0318 14.3072 12.0242C14.3147 12.0015 14.3147 11.9713 14.3223 11.9486C14.3299 11.9108 14.3451 11.873 14.3602 11.8427C14.3754 11.7974 14.3375 11.8805 14.3602 11.8427C14.3678 11.8276 14.3754 11.8049 14.3905 11.7898C14.4057 11.7595 14.4209 11.7293 14.4436 11.7066C14.4512 11.6915 14.4663 11.6764 14.4739 11.6688C14.436 11.7217 14.4815 11.6612 14.4891 11.6537C14.5118 11.6234 14.5421 11.6008 14.5649 11.5705C14.5801 11.5629 14.5876 11.5478 14.6028 11.5403C14.6407 11.51 14.5497 11.5781 14.6104 11.5327C14.6407 11.5176 14.6634 11.4949 14.6938 11.4798C14.7089 11.4722 14.7241 11.4646 14.7393 11.4571C14.7468 11.4571 14.8226 11.4193 14.762 11.442C14.8302 11.4117 14.8985 11.3966 14.9743 11.3815C15.0197 11.3739 14.906 11.3815 14.9894 11.3815C15.0046 11.3815 15.0273 11.3815 15.0425 11.3739C15.0576 11.3739 15.0804 11.3739 15.0955 11.3739C15.1183 11.3739 15.141 11.3739 15.1638 11.3739C15.2926 11.3739 15.4139 11.3739 15.5428 11.3739C16.3464 11.3739 17.1423 11.3739 17.9459 11.3739C18.0065 11.3739 18.0672 11.3739 18.1278 11.3739C18.2794 11.3739 18.4235 11.2378 18.4159 11.0866C18.4083 10.9278 18.287 10.7992 18.1278 10.7992C17.438 10.7992 16.7406 10.7992 16.0507 10.7992C15.7399 10.7992 15.4367 10.7992 15.1259 10.7992C14.5118 10.7992 13.9584 11.1773 13.7689 11.7671C13.6931 12.0015 13.7083 12.251 13.7083 12.493C13.7083 12.8408 13.7083 13.1887 13.7083 13.5289C13.7083 14.4287 13.7083 15.3361 13.7083 16.2359C13.7083 16.5233 13.7083 16.8106 13.7083 17.098C13.7083 17.1433 13.7083 17.1887 13.7083 17.2416C13.7158 17.597 13.8447 17.9373 14.0873 18.1944C14.3375 18.459 14.6938 18.6102 15.0501 18.6254C15.141 18.6254 15.232 18.6254 15.323 18.6254C15.7551 18.6254 16.1872 18.6254 16.6193 18.6254C16.8012 18.6254 16.9907 18.6254 17.1727 18.6254C17.3015 18.6254 17.4228 18.6254 17.5517 18.6102C17.9307 18.5498 18.2491 18.2549 18.3628 17.8995C18.4007 17.786 18.4083 17.6575 18.4083 17.5365C18.4083 16.9618 18.4083 16.3796 18.4083 15.8049C18.4083 14.8824 18.4083 13.9675 18.4083 13.045C18.4083 12.425 18.4083 11.8049 18.4083 11.1849C18.4083 11.1546 18.4083 11.1244 18.4083 11.0866C18.4083 10.9353 18.2719 10.7917 18.1202 10.7992C17.9762 10.7992 17.8397 10.9202 17.8397 11.079Z"/>
<path d="M17.8397 11.079C17.8397 11.51 17.8397 11.9335 17.8397 12.3645C17.8397 13.2492 17.8397 14.1263 17.8397 15.011C17.8397 15.7444 17.8397 16.4779 17.8397 17.2114C17.8397 17.3324 17.8397 17.4533 17.8397 17.5743C17.8397 17.5894 17.8322 17.6726 17.8397 17.6424C17.8473 17.6046 17.8322 17.6575 17.8322 17.6651C17.8246 17.6877 17.817 17.7029 17.817 17.7256C17.817 17.7331 17.7943 17.7785 17.817 17.7256C17.8094 17.7407 17.8019 17.7558 17.7943 17.7709C17.7867 17.786 17.7791 17.8012 17.7715 17.8163C17.7639 17.8239 17.7185 17.8843 17.7564 17.839C17.7336 17.8617 17.7109 17.8919 17.6881 17.9146C17.6881 17.9146 17.6275 17.9675 17.6578 17.9373C17.6881 17.9146 17.6427 17.9448 17.6351 17.9524C17.6048 17.9751 17.5668 17.9902 17.5365 18.0053C17.5896 17.9826 17.4759 18.0205 17.4607 18.0205C17.4456 18.0205 17.4076 18.028 17.4607 18.0205C17.4456 18.0205 17.4228 18.0205 17.4077 18.0205C17.4001 18.0205 17.3849 18.0205 17.3773 18.0205C17.3698 18.0205 17.3546 18.0205 17.347 18.0205C17.2939 18.0205 17.2485 18.0205 17.1954 18.0205C16.498 18.0205 15.8006 18.028 15.1031 18.0205C15.088 18.0205 15.0728 18.0205 15.0576 18.0205C15.0425 18.0205 14.9288 18.0053 14.9894 18.0129C14.9136 17.9978 14.8378 17.9826 14.7696 17.9524C14.8226 17.9751 14.7317 17.9297 14.7165 17.9222C14.6862 17.907 14.6559 17.8843 14.618 17.8617C14.6104 17.8541 14.5725 17.8239 14.618 17.8617C14.6028 17.8541 14.5952 17.839 14.58 17.8314C14.5497 17.8012 14.5194 17.7709 14.4891 17.7407C14.4815 17.7256 14.4663 17.718 14.4588 17.7029C14.4967 17.7407 14.4663 17.7104 14.4588 17.7029C14.436 17.6726 14.4133 17.6424 14.3981 17.6046C14.3905 17.5894 14.3451 17.4911 14.3678 17.5516C14.3526 17.5138 14.3375 17.4685 14.3299 17.4307C14.3223 17.4004 14.3147 17.3626 14.3072 17.3324C14.3223 17.3929 14.2996 17.2794 14.2996 17.2643C14.2996 17.2492 14.2996 17.2341 14.2996 17.2189C14.2996 17.0375 14.2996 16.8635 14.2996 16.6821C14.2996 15.8427 14.2996 15.011 14.2996 14.1717C14.2996 13.5214 14.2996 12.8711 14.2996 12.2208C14.2996 12.1981 14.2996 12.183 14.2996 12.1603C14.2996 12.1527 14.2996 12.1376 14.2996 12.1301C14.2996 12.0923 14.2996 12.062 14.3072 12.0242C14.2996 12.0847 14.3072 12.0318 14.3072 12.0242C14.3147 12.0015 14.3147 11.9713 14.3223 11.9486C14.3299 11.9108 14.3451 11.873 14.3602 11.8427C14.3754 11.7974 14.3375 11.8805 14.3602 11.8427C14.3678 11.8276 14.3754 11.8049 14.3905 11.7898C14.4057 11.7595 14.4209 11.7293 14.4436 11.7066C14.4512 11.6915 14.4663 11.6764 14.4739 11.6688C14.436 11.7217 14.4815 11.6612 14.4891 11.6537C14.5118 11.6234 14.5421 11.6008 14.5649 11.5705C14.5801 11.5629 14.5876 11.5478 14.6028 11.5403C14.6407 11.51 14.5497 11.5781 14.6104 11.5327C14.6407 11.5176 14.6634 11.4949 14.6938 11.4798C14.7089 11.4722 14.7241 11.4646 14.7393 11.4571C14.7468 11.4571 14.8226 11.4193 14.762 11.442C14.8302 11.4117 14.8985 11.3966 14.9743 11.3815C15.0197 11.3739 14.906 11.3815 14.9894 11.3815C15.0046 11.3815 15.0273 11.3815 15.0425 11.3739C15.0576 11.3739 15.0804 11.3739 15.0955 11.3739C15.1183 11.3739 15.141 11.3739 15.1638 11.3739C15.2926 11.3739 15.4139 11.3739 15.5428 11.3739C16.3464 11.3739 17.1423 11.3739 17.9459 11.3739C18.0065 11.3739 18.0672 11.3739 18.1278 11.3739C18.2794 11.3739 18.4235 11.2378 18.4159 11.0866C18.4083 10.9278 18.287 10.7992 18.1278 10.7992C17.438 10.7992 16.7406 10.7992 16.0507 10.7992C15.7399 10.7992 15.4367 10.7992 15.1259 10.7992C14.5118 10.7992 13.9584 11.1773 13.7689 11.7671C13.6931 12.0015 13.7083 12.251 13.7083 12.493C13.7083 12.8408 13.7083 13.1887 13.7083 13.5289C13.7083 14.4287 13.7083 15.3361 13.7083 16.2359C13.7083 16.5233 13.7083 16.8106 13.7083 17.098C13.7083 17.1433 13.7083 17.1887 13.7083 17.2416C13.7158 17.597 13.8447 17.9373 14.0873 18.1944C14.3375 18.459 14.6938 18.6102 15.0501 18.6254C15.141 18.6254 15.232 18.6254 15.323 18.6254C15.7551 18.6254 16.1872 18.6254 16.6193 18.6254C16.8012 18.6254 16.9907 18.6254 17.1727 18.6254C17.3015 18.6254 17.4228 18.6254 17.5517 18.6102C17.9307 18.5498 18.2491 18.2549 18.3628 17.8995C18.4007 17.786 18.4083 17.6575 18.4083 17.5365C18.4083 16.9618 18.4083 16.3796 18.4083 15.8049C18.4083 14.8824 18.4083 13.9675 18.4083 13.045C18.4083 12.425 18.4083 11.8049 18.4083 11.1849C18.4083 11.1546 18.4083 11.1244 18.4083 11.0866C18.4083 10.9353 18.2719 10.7917 18.1202 10.7992C17.9762 10.7992 17.8397 10.9202 17.8397 11.079Z"/>
<path d="M5.62119 4.85584C6.04571 4.4702 6.51572 4.15262 7.05395 3.88797C7.12218 3.85772 7.18281 3.82748 7.25104 3.79723C7.32685 3.76699 7.37233 3.7443 7.4254 3.72162C7.56185 3.66869 7.70589 3.61576 7.84993 3.57039C8.13799 3.47965 8.43364 3.40404 8.73686 3.3511C9.00977 3.30574 9.32058 3.27549 9.63139 3.26793C9.79058 3.26793 9.94977 3.26793 10.1014 3.27549C10.2454 3.28305 10.4274 3.29817 10.5411 3.3133C10.8064 3.3511 11.1324 3.41916 11.4129 3.49477C11.5569 3.53258 11.7009 3.58551 11.8449 3.63088C11.9132 3.65356 11.9814 3.68381 12.0496 3.70649C12.0648 3.71406 12.08 3.72162 12.0951 3.72162C12.1406 3.7443 12.0648 3.70649 12.1103 3.72918C12.1482 3.7443 12.1861 3.75942 12.224 3.78211C12.5272 3.91822 12.8228 4.07701 13.1033 4.25848C13.399 4.44752 13.6037 4.61387 13.869 4.84828C13.9827 4.95414 14.1646 4.9617 14.2783 4.84828C14.3845 4.74242 14.3921 4.54582 14.2783 4.43996C13.3308 3.58551 12.1482 2.98815 10.8898 2.77643C9.57073 2.55715 8.22136 2.7235 7.00087 3.26793C6.34893 3.55526 5.75764 3.95602 5.227 4.4324C5.11329 4.53826 5.12087 4.73486 5.227 4.84072C5.32554 4.96926 5.50748 4.9617 5.62119 4.85584Z"/>
<path d="M5.62119 4.85584C6.04571 4.4702 6.51572 4.15262 7.05395 3.88797C7.12218 3.85772 7.18281 3.82748 7.25104 3.79723C7.32685 3.76699 7.37233 3.7443 7.4254 3.72162C7.56185 3.66869 7.70589 3.61576 7.84993 3.57039C8.13799 3.47965 8.43364 3.40404 8.73686 3.3511C9.00977 3.30574 9.32058 3.27549 9.63139 3.26793C9.79058 3.26793 9.94977 3.26793 10.1014 3.27549C10.2454 3.28305 10.4274 3.29817 10.5411 3.3133C10.8064 3.3511 11.1324 3.41916 11.4129 3.49477C11.5569 3.53258 11.7009 3.58551 11.8449 3.63088C11.9132 3.65356 11.9814 3.68381 12.0496 3.70649C12.0648 3.71406 12.08 3.72162 12.0951 3.72162C12.1406 3.7443 12.0648 3.70649 12.1103 3.72918C12.1482 3.7443 12.1861 3.75942 12.224 3.78211C12.5272 3.91822 12.8228 4.07701 13.1033 4.25848C13.399 4.44752 13.6037 4.61387 13.869 4.84828C13.9827 4.95414 14.1646 4.9617 14.2783 4.84828C14.3845 4.74242 14.3921 4.54582 14.2783 4.43996C13.3308 3.58551 12.1482 2.98815 10.8898 2.77643C9.57073 2.55715 8.22136 2.7235 7.00087 3.26793C6.34893 3.55526 5.75764 3.95602 5.227 4.4324C5.11329 4.53826 5.12087 4.73486 5.227 4.84072C5.32554 4.96926 5.50748 4.9617 5.62119 4.85584Z"/>
<path d="M5.62119 4.85584C6.04571 4.4702 6.51572 4.15262 7.05395 3.88797C7.12218 3.85772 7.18281 3.82748 7.25104 3.79723C7.32685 3.76699 7.37233 3.7443 7.4254 3.72162C7.56185 3.66869 7.70589 3.61576 7.84993 3.57039C8.13799 3.47965 8.43364 3.40404 8.73686 3.3511C9.00977 3.30574 9.32058 3.27549 9.63139 3.26793C9.79058 3.26793 9.94977 3.26793 10.1014 3.27549C10.2454 3.28305 10.4274 3.29817 10.5411 3.3133C10.8064 3.3511 11.1324 3.41916 11.4129 3.49477C11.5569 3.53258 11.7009 3.58551 11.8449 3.63088C11.9132 3.65356 11.9814 3.68381 12.0496 3.70649C12.0648 3.71406 12.08 3.72162 12.0951 3.72162C12.1406 3.7443 12.0648 3.70649 12.1103 3.72918C12.1482 3.7443 12.1861 3.75942 12.224 3.78211C12.5272 3.91822 12.8228 4.07701 13.1033 4.25848C13.399 4.44752 13.6037 4.61387 13.869 4.84828C13.9827 4.95414 14.1646 4.9617 14.2783 4.84828C14.3845 4.74242 14.3921 4.54582 14.2783 4.43996C13.3308 3.58551 12.1482 2.98815 10.8898 2.77643C9.57073 2.55715 8.22136 2.7235 7.00087 3.26793C6.34893 3.55526 5.75764 3.95602 5.227 4.4324C5.11329 4.53826 5.12087 4.73486 5.227 4.84072C5.32554 4.96926 5.50748 4.9617 5.62119 4.85584Z"/>
</svg>
