<svg width="32" height="33" viewBox="0 0 32 33" fill="none" xmlns="http://www.w3.org/2000/svg">
<g clip-path="url(#clip0)">
<path d="M29.3334 6.9C29.0389 6.9 28.8001 6.6612 28.8001 6.36666C28.7983 4.89453 27.6056 3.70182 26.1334 3.7C25.8389 3.7 25.6001 3.4612 25.6001 3.16666C25.6001 2.87213 25.8389 2.63333 26.1334 2.63333C28.1944 2.63568 29.8644 4.30573 29.8668 6.36666C29.8668 6.6612 29.628 6.9 29.3334 6.9Z" />
<path d="M27.2001 6.9C26.9056 6.9 26.6668 6.66119 26.6668 6.36666C26.6668 6.07213 26.428 5.83333 26.1334 5.83333C25.8389 5.83333 25.6001 5.59453 25.6001 5.3C25.6001 5.00546 25.8389 4.76666 26.1334 4.76666C27.017 4.76666 27.7334 5.48307 27.7334 6.36666C27.7334 6.66119 27.4946 6.9 27.2001 6.9Z" />
<path d="M31.4668 6.9C31.1722 6.9 30.9334 6.6612 30.9334 6.36667C30.9303 3.71693 28.7832 1.56979 26.1334 1.56667C25.8389 1.56667 25.6001 1.32786 25.6001 1.03333C25.6001 0.738802 25.8389 0.5 26.1334 0.5C29.372 0.503906 31.9962 3.12813 32.0001 6.36667C32.0001 6.6612 31.7613 6.9 31.4668 6.9Z" />
<path d="M2.66663 6.9C2.3721 6.9 2.1333 6.6612 2.1333 6.36666C2.13564 4.30573 3.8057 2.63568 5.86663 2.63333C6.16117 2.63333 6.39997 2.87213 6.39997 3.16666C6.39997 3.4612 6.16117 3.7 5.86663 3.7C4.3945 3.70182 3.20179 4.89453 3.19997 6.36666C3.19997 6.6612 2.96117 6.9 2.66663 6.9Z" />
<path d="M4.79993 6.9C4.5054 6.9 4.2666 6.66119 4.2666 6.36666C4.2666 5.48307 4.98301 4.76666 5.8666 4.76666C6.16113 4.76666 6.39993 5.00546 6.39993 5.3C6.39993 5.59453 6.16113 5.83333 5.8666 5.83333C5.57207 5.83333 5.33327 6.07213 5.33327 6.36666C5.33327 6.66119 5.09447 6.9 4.79993 6.9Z" />
<path d="M0.533333 6.9C0.238802 6.9 0 6.6612 0 6.36667C0.00390625 3.12813 2.62813 0.503906 5.86667 0.5C6.1612 0.5 6.4 0.738802 6.4 1.03333C6.4 1.32786 6.1612 1.56667 5.86667 1.56667C3.21693 1.56979 1.06979 3.71693 1.06667 6.36667C1.06667 6.6612 0.827865 6.9 0.533333 6.9Z" />
<path d="M15.9998 28.2333C17.767 28.2333 19.1998 26.8005 19.1998 25.0333C19.1998 23.2662 17.767 21.8333 15.9998 21.8333C14.2326 21.8333 12.7998 23.2662 12.7998 25.0333C12.8016 26.8 14.2331 28.2315 15.9998 28.2333ZM15.9998 22.9C17.1779 22.9 18.1331 23.8552 18.1331 25.0333C18.1331 26.2115 17.1779 27.1667 15.9998 27.1667C14.8217 27.1667 13.8665 26.2115 13.8665 25.0333C13.8665 23.8552 14.8217 22.9 15.9998 22.9Z" />
<path d="M15.9999 12.7667C16.8835 12.7667 17.5999 12.0503 17.5999 11.1667C17.5999 10.2831 16.8835 9.56668 15.9999 9.56668C15.1163 9.56668 14.3999 10.2831 14.3999 11.1667C14.3999 12.0503 15.1163 12.7667 15.9999 12.7667ZM15.9999 10.6333C16.2944 10.6333 16.5332 10.8721 16.5332 11.1667C16.5332 11.4612 16.2944 11.7 15.9999 11.7C15.7054 11.7 15.4666 11.4612 15.4666 11.1667C15.4666 10.8721 15.7054 10.6333 15.9999 10.6333Z" />
<path d="M21.1963 10.6333V10.6365H21.1999L21.1963 10.6333Z" />
<path d="M10.1333 10.6333H13.3333V11.7H10.1333V10.6333Z" />
<path d="M18.6665 10.6333H21.8665V11.7H18.6665V10.6333Z" />
<path d="M15.9997 3.70001C9.24865 3.69923 3.40333 8.38881 1.94031 14.9792C0.477293 21.5698 3.78927 28.2919 9.90646 31.1479C13.7682 32.9503 18.2299 32.9503 22.0919 31.1479C28.2091 28.2922 31.5208 21.5703 30.058 14.9797C28.5953 8.38933 22.7505 3.69975 15.9997 3.70001ZM15.9997 4.76668C23.152 4.77553 29.0262 10.4203 29.3197 17.5667H28.2531C27.9476 11.0214 22.552 5.87189 15.9997 5.87189C9.44734 5.87189 4.05177 11.0214 3.7463 17.5667H2.67964C2.97313 10.4203 8.84734 4.77553 15.9997 4.76668ZM17.9406 21.1331C19.9861 21.9323 21.3328 23.9037 21.333 26.1V27.9427C18.0078 29.7524 13.9916 29.7524 10.6664 27.9427V26.1C10.6666 24.338 11.5372 22.6899 12.9921 21.6964C14.4473 20.7026 16.2994 20.4919 17.9406 21.1331ZM22.3997 26.1C22.3997 22.5654 19.5343 19.7 15.9997 19.7C12.4651 19.7 9.59969 22.5654 9.59969 26.1V27.2823C7.0088 25.4836 5.29917 22.6734 4.89292 19.5458C4.48641 16.418 5.4213 13.2643 7.46635 10.8633V13.3C7.46818 14.7721 8.66089 15.9649 10.133 15.9667H21.8664C23.3385 15.9649 24.5312 14.7721 24.533 13.3V10.8633C26.5781 13.2643 27.513 16.418 27.1065 19.5458C26.7002 22.6734 24.9906 25.4836 22.3997 27.2823V26.1ZM8.53302 9.77579C12.7723 5.94142 19.227 5.94142 23.4664 9.77579V13.3C23.4664 14.1836 22.7499 14.9 21.8664 14.9H10.133C9.24943 14.9 8.53302 14.1836 8.53302 13.3V9.77579ZM2.68563 18.6333H3.75229C3.94135 22.7026 6.13042 26.4149 9.59969 28.5503V29.7932C5.50386 27.5365 2.88276 23.3057 2.68563 18.6333ZM10.6664 30.3164V29.1401C14.0333 30.7776 17.9661 30.7776 21.333 29.1401V30.3182C17.9333 31.8073 14.0661 31.8073 10.6664 30.3182V30.3164ZM22.3997 29.7932V28.5503C25.8692 26.4151 28.0588 22.7029 28.2481 18.6333H29.3148C29.1174 23.306 26.4958 27.5367 22.3997 29.7932Z" />
</g>
<defs>
<clipPath id="clip0">
<rect width="32" height="32"  transform="translate(0 0.5)"/>
</clipPath>
</defs>
</svg>
