<svg width="20" height="20" viewBox="0 0 20 20" fill="none" xmlns="http://www.w3.org/2000/svg">
<path d="M3.91117 17.9999C2.3045 17.9999 1 16.6764 1 15.0463C1 13.4162 2.3045 12.0927 3.91117 12.0927C5.51784 12.0927 6.82234 13.4162 6.82234 15.0463C6.82234 16.6764 5.51784 17.9999 3.91117 17.9999ZM3.91117 13.0872C2.84251 13.0872 1.98022 13.9695 1.98022 15.0463C1.98022 16.1231 2.84988 17.0054 3.91117 17.0054C4.97983 17.0054 5.84213 16.1231 5.84213 15.0463C5.84213 13.9695 4.97983 13.0872 3.91117 13.0872Z"/>
<path d="M17.087 17.9999C15.4803 17.9999 14.1758 16.6764 14.1758 15.0463C14.1758 13.4162 15.4803 12.0927 17.087 12.0927C18.6936 12.0927 19.9981 13.4162 19.9981 15.0463C19.9981 16.6764 18.6936 17.9999 17.087 17.9999ZM17.087 13.0872C16.0183 13.0872 15.156 13.9695 15.156 15.0463C15.156 16.1231 16.0257 17.0054 17.087 17.0054C18.1556 17.0054 19.0179 16.1231 19.0179 15.0463C19.0179 13.9695 18.1556 13.0872 17.087 13.0872Z"/>
<path d="M16.2398 12.2946C16.0261 12.2946 15.8271 12.145 15.7681 11.9282L13.6898 3.99449H11.6114C11.3387 3.99449 11.125 3.77016 11.125 3.50097C11.125 3.23177 11.3461 3.00745 11.6114 3.00745H14.0657C14.2868 3.00745 14.4857 3.157 14.5373 3.37385L16.7115 11.6739C16.7778 11.9357 16.6231 12.2123 16.3651 12.2796C16.3209 12.2871 16.2767 12.2946 16.2398 12.2946Z"/>
<path d="M17.0899 15.5398C16.8761 15.5398 16.6771 15.3903 16.6182 15.1734L15.9844 12.7582L14.1418 15.3379C14.046 15.4651 13.8986 15.5398 13.7439 15.5398H3.9122C3.63951 15.5398 3.42578 15.3155 3.42578 15.0463C3.42578 14.7771 3.64688 14.5528 3.9122 14.5528H13.4933L15.8001 11.3375C15.9107 11.1804 16.1023 11.1056 16.2865 11.143C16.4708 11.1804 16.6182 11.315 16.6698 11.502L17.5689 14.9267C17.6352 15.1884 17.4805 15.4651 17.2225 15.5324C17.1783 15.5398 17.1341 15.5398 17.0899 15.5398Z"/>
</svg>
