<svg width="32" height="33" viewBox="0 0 32 33" fill="none" xmlns="http://www.w3.org/2000/svg">
<path d="M10.955 15.4828C9.88455 15.4828 9.01367 16.3537 9.01367 17.4241C9.01367 18.4945 9.88455 19.3655 10.955 19.3655C12.0254 19.3655 12.8963 18.4945 12.8963 17.4241C12.8963 16.3537 12.0254 15.4828 10.955 15.4828ZM10.955 18.4262C10.4025 18.4262 9.95292 17.9767 9.95292 17.4242C9.95292 16.8717 10.4024 16.4222 10.955 16.4222C11.5075 16.4222 11.957 16.8717 11.957 17.4242C11.957 17.9767 11.5075 18.4262 10.955 18.4262Z" />
<path d="M19.1035 17.4241C19.1035 18.4945 19.9744 19.3655 21.0448 19.3655C22.1153 19.3655 22.9861 18.4945 22.9861 17.4241C22.9861 16.3537 22.1153 15.4828 21.0448 15.4828C19.9744 15.4828 19.1035 16.3537 19.1035 17.4241ZM21.0448 16.4221C21.5974 16.4221 22.0469 16.8716 22.0469 17.4241C22.0469 17.9767 21.5974 18.4262 21.0448 18.4262C20.4923 18.4262 20.0428 17.9767 20.0428 17.4241C20.0428 16.8716 20.4923 16.4221 21.0448 16.4221Z" />
<path d="M31.9465 24.0296L29.8292 11.4212C29.8279 11.4131 29.8263 11.4051 29.8245 11.3972C29.5265 9.30647 28.1197 7.59597 26.253 6.82866V5.95697C26.253 5.1801 25.621 4.54803 24.8441 4.54803H23.073C22.2962 4.54803 21.6641 5.1801 21.6641 5.95697V6.89985C21.0393 7.18041 20.4632 7.57222 19.9606 8.06791H12.0394C11.5368 7.57222 10.9607 7.18041 10.3359 6.89985V5.95697C10.3359 5.1801 9.70391 4.54803 8.92698 4.54803H7.15591C6.37904 4.54803 5.74698 5.1801 5.74698 5.95697V6.82872C3.88054 7.59597 2.47379 9.30628 2.1756 11.3967C2.17379 11.4048 2.17223 11.4129 2.17085 11.4212L1.48898 15.4815C1.44604 15.7373 1.61854 15.9795 1.87435 16.0225C2.13016 16.0652 2.37235 15.8929 2.41529 15.6371L3.0906 11.6153C3.09491 11.5982 3.09835 11.5807 3.10073 11.563C3.4276 9.15054 5.51216 7.33135 7.94979 7.33135C9.24479 7.33135 10.4527 7.82772 11.3725 8.73116V9.3726C11.3725 10.3221 12.145 11.0946 13.0945 11.0946H15.0607C15.3201 11.0946 15.5304 10.8843 15.5304 10.625C15.5304 10.3655 15.3201 10.1553 15.0607 10.1553H13.0945C12.6629 10.1553 12.3118 9.80422 12.3118 9.3726V9.00703H19.6882V9.3726C19.6882 9.80422 19.337 10.1553 18.9054 10.1553H16.9392C16.6799 10.1553 16.4696 10.3656 16.4696 10.625C16.4696 10.8843 16.6799 11.0946 16.9392 11.0946H18.9054C19.8549 11.0946 20.6274 10.3221 20.6274 9.3726V8.73116C21.5473 7.82766 22.7552 7.33135 24.0502 7.33135C26.4877 7.33135 28.5724 9.15054 28.8992 11.563C28.9016 11.5805 28.9049 11.5978 28.9092 11.6147L31.0201 24.1851C31.2416 25.5041 30.5335 26.7834 29.2983 27.2962C28.5588 27.6032 27.7501 27.5896 27.0212 27.2582C26.2924 26.9268 25.7506 26.3264 25.4957 25.5674L25.0634 24.2801C24.9809 24.0342 24.7145 23.9016 24.4687 23.9844C24.2228 24.067 24.0904 24.3332 24.173 24.5791L24.6053 25.8664C24.9391 26.8603 25.678 27.6793 26.6325 28.1133C27.1294 28.3392 27.6664 28.4524 28.2039 28.4524C28.6988 28.4524 29.1941 28.3563 29.6584 28.1636C31.2999 27.4823 32.2408 25.7823 31.9465 24.0296ZM6.68629 6.53247V5.95697C6.68629 5.69797 6.89698 5.48735 7.15591 5.48735H8.92698C9.18598 5.48735 9.3966 5.69803 9.3966 5.95697V6.57197C8.93023 6.45372 8.44548 6.39216 7.94985 6.39216C7.51741 6.39216 7.0946 6.44116 6.68629 6.53247ZM22.6035 6.57197V5.95697C22.6035 5.69797 22.8142 5.48735 23.0731 5.48735H24.8442C25.1032 5.48735 25.3138 5.69803 25.3138 5.95697V6.53247C24.9055 6.44116 24.4827 6.39216 24.0502 6.39216C23.5546 6.39216 23.0699 6.45372 22.6035 6.57197Z" />
<path d="M24.4648 22.498L23.6302 20.0126C23.5825 19.8707 23.4701 19.7601 23.3275 19.7146C23.185 19.6692 23.0293 19.6944 22.9083 19.7826C22.3983 20.1543 21.7948 20.3508 21.163 20.3508C20.3494 20.3508 19.5901 20.0272 19.0249 19.4397C18.9363 19.3476 18.8142 19.2956 18.6865 19.2956H13.3134C13.1857 19.2956 13.0635 19.3477 12.975 19.4397C12.4098 20.0273 11.6504 20.3508 10.8368 20.3508C10.205 20.3508 9.60141 20.1543 9.09154 19.7826C8.97066 19.6945 8.81497 19.6692 8.67235 19.7146C8.52972 19.7601 8.41735 19.8707 8.36972 20.0126L6.50422 25.5672C6.24935 26.3262 5.7076 26.9266 4.97872 27.258C4.24979 27.5894 3.44116 27.6027 2.70166 27.2959C1.46635 26.7832 0.758348 25.5039 0.979848 24.1849L2.10391 17.4911C2.14685 17.2353 1.97435 16.9931 1.71854 16.9502C1.46241 16.9076 1.22054 17.0797 1.1776 17.3356L0.0535359 24.0293C-0.240777 25.7821 0.700098 27.4821 2.34166 28.1634C2.80604 28.3562 3.30116 28.4523 3.79616 28.4522C4.33347 28.4522 4.87066 28.339 5.36754 28.1131C6.32204 27.6792 7.06091 26.8602 7.39472 25.8662L9.07279 20.8697C9.61635 21.1461 10.2163 21.2901 10.8369 21.2901C11.8398 21.2901 12.7799 20.9169 13.5062 20.2349H18.4939C19.2202 20.9169 20.1603 21.2901 21.1632 21.2901C21.7838 21.2901 22.3837 21.1461 22.9273 20.8697L23.5745 22.7971C23.6571 23.0429 23.9233 23.1756 24.1693 23.0928C24.415 23.0101 24.5474 22.7439 24.4648 22.498Z" />
<path d="M7.98765 9.31158C7.17928 9.31158 6.52159 9.96927 6.52159 10.7776V10.884H6.41528C5.60691 10.884 4.94922 11.5416 4.94922 12.35C4.94922 13.1584 5.60684 13.8161 6.41528 13.8161H6.52159V13.9224C6.52159 14.7308 7.17928 15.3885 7.98765 15.3885C8.79603 15.3885 9.45371 14.7308 9.45371 13.9224V13.8161H9.56003C10.3684 13.8161 11.0261 13.1584 11.0261 12.35C11.0261 11.5416 10.3685 10.884 9.56003 10.884H9.45371V10.7776C9.45365 9.96927 8.79603 9.31158 7.98765 9.31158ZM9.56003 11.8233C9.85046 11.8233 10.0868 12.0596 10.0868 12.35C10.0868 12.6405 9.85046 12.8768 9.56003 12.8768H8.98403C8.72465 12.8768 8.5144 13.087 8.5144 13.3464V13.9224C8.5144 14.2129 8.27809 14.4491 7.98765 14.4491C7.69722 14.4491 7.46084 14.2128 7.46084 13.9224V13.3464C7.46084 13.087 7.25059 12.8768 6.99122 12.8768H6.41528C6.12484 12.8768 5.88853 12.6405 5.88853 12.35C5.88853 12.0595 6.12484 11.8233 6.41528 11.8233H6.99122C7.25059 11.8233 7.46084 11.613 7.46084 11.3536V10.7776C7.46084 10.4871 7.69715 10.2509 7.98765 10.2509C8.27809 10.2509 8.5144 10.4872 8.5144 10.7776V11.3536C8.5144 11.613 8.72465 11.8233 8.98403 11.8233H9.56003Z" />
<path d="M24.3344 8.66998C23.5781 8.66998 22.9629 9.28523 22.9629 10.0415C22.9629 10.7977 23.5781 11.413 24.3344 11.413C25.0906 11.413 25.7059 10.7977 25.7059 10.0415C25.7059 9.28523 25.0906 8.66998 24.3344 8.66998ZM24.3344 10.4737C24.0961 10.4737 23.9022 10.2798 23.9022 10.0415C23.9022 9.8033 24.0961 9.60936 24.3344 9.60936C24.5727 9.60936 24.7666 9.8033 24.7666 10.0415C24.7666 10.2798 24.5727 10.4737 24.3344 10.4737Z" />
<path d="M24.3344 13.2855C23.5781 13.2855 22.9629 13.9008 22.9629 14.657C22.9629 15.4132 23.5781 16.0285 24.3344 16.0285C25.0906 16.0285 25.7059 15.4132 25.7059 14.657C25.7059 13.9008 25.0906 13.2855 24.3344 13.2855ZM24.3344 15.0892C24.0961 15.0892 23.9022 14.8953 23.9022 14.657C23.9022 14.4187 24.0961 14.2248 24.3344 14.2248C24.5727 14.2248 24.7666 14.4188 24.7666 14.657C24.7666 14.8953 24.5727 15.0892 24.3344 15.0892Z" />
<path d="M28.014 12.3492C28.014 11.593 27.3987 10.9777 26.6425 10.9777C25.8862 10.9777 25.271 11.593 25.271 12.3492C25.271 13.1055 25.8862 13.7207 26.6425 13.7207C27.3987 13.7207 28.014 13.1055 28.014 12.3492ZM26.2103 12.3492C26.2103 12.1109 26.4042 11.917 26.6425 11.917C26.8808 11.917 27.0747 12.111 27.0747 12.3492C27.0747 12.5875 26.8808 12.7814 26.6425 12.7814C26.4042 12.7814 26.2103 12.5875 26.2103 12.3492Z" />
<path d="M20.6538 12.3492C20.6538 13.1055 21.2691 13.7207 22.0253 13.7207C22.7816 13.7207 23.3967 13.1055 23.3967 12.3492C23.3967 11.593 22.7815 10.9777 22.0253 10.9777C21.2691 10.9777 20.6538 11.593 20.6538 12.3492ZM22.4575 12.3492C22.4575 12.5875 22.2636 12.7814 22.0253 12.7814C21.787 12.7814 21.5931 12.5875 21.5931 12.3492C21.5931 12.111 21.787 11.917 22.0253 11.917C22.2636 11.917 22.4575 12.1109 22.4575 12.3492Z" />
<path d="M14.6131 14.1681C14.8725 14.1681 15.0827 13.9579 15.0827 13.6985C15.0827 13.4391 14.8725 13.2289 14.6131 13.2289H13.2074C12.948 13.2289 12.7378 13.4391 12.7378 13.6985C12.7378 13.9579 12.948 14.1681 13.2074 14.1681H14.6131Z" />
<path d="M18.7923 13.2289H17.3866C17.1272 13.2289 16.917 13.4391 16.917 13.6985C16.917 13.9579 17.1272 14.1681 17.3866 14.1681H18.7923C19.0517 14.1681 19.2619 13.9579 19.2619 13.6985C19.2619 13.4391 19.0517 13.2289 18.7923 13.2289Z" />
</svg>
