<svg width="24" height="24" viewBox="0 0 24 24" fill="none" xmlns="http://www.w3.org/2000/svg">
<path d="M15.1909 3C12.0818 3.08182 9.54545 5.61818 9.54545 8.72727C9.54545 11.9182 12.0818 14.4545 15.2727 14.4545C18.4636 14.4545 21 11.9182 21 8.72727C21 5.53636 18.4636 3 15.1909 3ZM15.2727 4.63636C17.5636 4.63636 19.3636 6.43636 19.3636 8.72727C19.3636 11.0182 17.5636 12.8182 15.2727 12.8182C12.9818 12.8182 11.1818 11.0182 11.1818 8.72727C11.1818 6.43636 12.9818 4.63636 15.2727 4.63636ZM14.4545 5.45455V9.54545L17.4 11.3455L18.0545 10.3636L15.6818 8.97273V5.45455H14.4545ZM5.94545 12.6545C7.09091 14.9455 9.05455 16.9091 11.3455 18.0545L13.1455 16.2545C13.3909 16.0091 13.7182 15.9273 13.9636 16.0909C14.8636 16.4182 15.8455 16.5818 16.9091 16.5818C17.3182 16.5818 17.7273 16.9909 17.7273 17.4V20.1818C17.7273 20.5909 17.3182 21 16.9091 21C9.21818 21 3 14.7818 3 7.09091C3 6.6 3.40909 6.27273 3.81818 6.27273H6.68182C7.17273 6.27273 7.5 6.6 7.5 7.09091C7.5 8.07273 7.66364 9.05455 7.99091 10.0364C8.07273 10.3636 7.99091 10.6091 7.82727 10.8545L5.94545 12.6545Z"/>
</svg>
