<svg width="32" height="33" viewBox="0 0 32 33" fill="none" xmlns="http://www.w3.org/2000/svg">
<g>
<path d="M25.5543 14.0874H24.8552C24.6744 13.3591 24.4145 12.6591 24.0829 11.9988L22.8841 6.51538C22.7357 5.83663 22.1984 5.31638 21.5152 5.18988L20.5558 5.01225L19.8911 2.29113C19.6335 1.2365 18.6954 0.5 17.6098 0.5H12.5774C11.4918 0.5 10.5537 1.2365 10.2961 2.29106L9.63137 5.01219L8.672 5.18981C7.98875 5.31631 7.4515 5.83663 7.30312 6.51531L6.106 11.9908C5.42237 13.3478 5.03662 14.8796 5.03662 16.5C5.03662 18.1204 5.42237 19.6522 6.106 21.0092L7.30312 26.4846C7.4515 27.1634 7.98881 27.6836 8.672 27.8101L9.63137 27.9877L10.2961 30.7089C10.5537 31.7635 11.4919 32.5 12.5774 32.5H17.6099C18.6954 32.5 19.6336 31.7635 19.8912 30.7089C19.9527 30.4569 19.7984 30.2027 19.5464 30.1412C19.2939 30.0796 19.0401 30.234 18.9786 30.486C18.8241 31.1187 18.2612 31.5607 17.6099 31.5607H12.5774C11.9261 31.5607 11.3632 31.1187 11.2087 30.486L9.8945 25.1059C11.4126 26.0264 13.1923 26.5569 15.0937 26.5569C16.995 26.5569 18.7747 26.0264 20.2928 25.1059L19.4243 28.6614C19.3628 28.9134 19.5171 29.1676 19.7692 29.2291C19.8066 29.2382 19.8441 29.2427 19.881 29.2427C20.0924 29.2427 20.2845 29.0989 20.3369 28.8844L20.5559 27.9878L21.5153 27.8102C22.1985 27.6837 22.7358 27.1634 22.8842 26.4847L24.0813 21.0093C24.4142 20.3485 24.6761 19.6463 24.8574 18.9126H25.5544C26.3314 18.9126 26.9634 18.2806 26.9634 17.5036V15.4965C26.9633 14.7195 26.3312 14.0874 25.5543 14.0874ZM21.3442 6.11344C21.6547 6.17094 21.8989 6.40744 21.9664 6.71594L22.658 9.87919C22.2922 9.46062 21.892 9.072 21.4611 8.71813L20.8002 6.01269L21.3442 6.11344ZM8.22087 6.71594C8.28831 6.40744 8.5325 6.17094 8.84306 6.11344L9.387 6.01269L8.72512 8.72225C8.29525 9.07487 7.89518 9.46244 7.52893 9.8805L8.22087 6.71594ZM9.38706 26.9872L8.84312 26.8866C8.53256 26.8291 8.28837 26.5926 8.22093 26.2841L7.52906 23.1195C7.89531 23.5375 8.29537 23.9251 8.72525 24.2777L9.38706 26.9872ZM21.9664 26.2841C21.8989 26.5926 21.6547 26.8291 21.3442 26.8866L20.8002 26.9873L21.462 24.2778C21.8919 23.9252 22.292 23.5376 22.6582 23.1195L21.9664 26.2841ZM15.0936 25.6176C10.0662 25.6176 5.976 21.5275 5.976 16.5C5.976 11.4725 10.0661 7.38237 15.0936 7.38237C15.3531 7.38237 15.5633 7.17206 15.5633 6.91269C15.5633 6.65331 15.3531 6.443 15.0936 6.443C13.1922 6.443 11.4126 6.9735 9.89443 7.89406L11.2086 2.51394C11.3632 1.88119 11.926 1.43925 12.5774 1.43925H17.6098C18.2612 1.43925 18.8241 1.88119 18.9786 2.51394L20.2916 7.88925C19.3145 7.29725 18.2246 6.86544 17.0547 6.63419C16.7997 6.58394 16.5531 6.74937 16.5028 7.00381C16.4525 7.25831 16.6179 7.50531 16.8725 7.55562C21.1248 8.39644 24.2112 12.1581 24.2112 16.5C24.2112 21.5274 20.1211 25.6176 15.0936 25.6176ZM26.024 17.5036C26.024 17.7626 25.8133 17.9732 25.5543 17.9732H25.0424C25.1133 17.4922 25.1506 17.0004 25.1506 16.5C25.1506 16.0009 25.1134 15.5089 25.0418 15.0267H25.5542C25.8132 15.0267 26.0239 15.2374 26.0239 15.4964V17.5036H26.024Z" />
<path d="M15.0935 8.7843C11.5976 8.7843 8.53033 11.1414 7.63464 14.5163C7.56808 14.767 7.71739 15.0242 7.96814 15.0907C8.21902 15.1575 8.47602 15.008 8.54258 14.7572C9.3292 11.7935 12.0231 9.72362 15.0935 9.72362C18.8305 9.72362 21.8706 12.7639 21.8706 16.5008C21.8706 20.2378 18.8304 23.278 15.0935 23.278C11.3565 23.278 8.31633 20.2378 8.31633 16.5008C8.31633 16.2414 8.10608 16.0311 7.84664 16.0311C7.5872 16.0311 7.37695 16.2414 7.37695 16.5008C7.37695 20.7557 10.8386 24.2173 15.0935 24.2173C19.3484 24.2173 22.81 20.7557 22.81 16.5008C22.81 12.2459 19.3483 8.7843 15.0935 8.7843Z" />
<path d="M13.4789 16.9705C13.6912 16.9705 13.8771 16.8281 13.9323 16.6231L14.1896 15.6684L15.2693 18.8689C15.3337 19.0599 15.5129 19.1884 15.7142 19.1884H15.7179C15.9207 19.1869 16.0996 19.0553 16.1616 18.8622L16.7682 16.9705H18.1531C18.4126 16.9705 18.6228 16.7602 18.6228 16.5008C18.6228 16.2414 18.4126 16.0311 18.1531 16.0311H16.4257C16.2216 16.0311 16.0407 16.163 15.9784 16.3574L15.7031 17.216L14.5844 13.9C14.5182 13.7039 14.3331 13.5742 14.1247 13.5807C13.918 13.5871 13.7397 13.7281 13.6859 13.9279L13.1191 16.0312H11.6499C11.3904 16.0312 11.1802 16.2414 11.1802 16.5009C11.1802 16.7603 11.3904 16.9706 11.6499 16.9706H13.4789V16.9705Z" />
</g>
<defs>
<clipPath >
<rect width="32" height="32"  transform="translate(0 0.5)"/>
</clipPath>
</defs>
</svg>
