<svg width="24" height="24" viewBox="0 0 24 24" fill="none" xmlns="http://www.w3.org/2000/svg">
<path d="M11.9796 20.9185C11.7409 20.9185 11.5142 20.814 11.3591 20.6327L9.72642 18.6817L7.16318 19.3348V19.3347C6.92539 19.3964 6.6723 19.3477 6.47429 19.202C6.2764 19.0563 6.15463 18.8292 6.14288 18.5837L6.01223 16.1347L3.5388 15.204C3.30251 15.1185 3.11869 14.9288 3.04081 14.6898C2.96223 14.4506 2.99831 14.1885 3.1388 13.9796L4.55106 11.9388L3.1388 9.87342C2.99831 9.66447 2.96223 9.40249 3.04081 9.16333C3.12499 8.9336 3.30785 8.75389 3.5388 8.67353L5.98777 7.78371L6.11842 5.33473H6.11829C6.13031 5.08792 6.25331 4.85984 6.45311 4.7143C6.65058 4.57026 6.90218 4.52243 7.13875 4.58365L9.70199 5.23676L11.3347 3.28576C11.4898 3.10441 11.7165 3 11.9551 3C12.1937 3 12.4205 3.10441 12.5756 3.28576L14.2083 5.23676L16.7715 4.58365H16.7714C17.0093 4.52202 17.2624 4.57067 17.4603 4.71635C17.6583 4.86203 17.78 5.08915 17.7918 5.33475L17.9225 7.78373L20.3714 8.67355C20.6364 8.72917 20.8566 8.91271 20.9592 9.16335C21.0378 9.4025 21.0016 9.66448 20.8612 9.87345L19.4081 11.9388L20.8204 14.0042C20.9609 14.2131 20.9969 14.4751 20.9184 14.7143C20.8405 14.9533 20.6566 15.143 20.4204 15.2287L17.9714 16.1185L17.8407 18.5675L17.8409 18.5673C17.829 18.8129 17.7072 19.04 17.5093 19.1857C17.3113 19.3314 17.0583 19.3802 16.8204 19.3184L14.2572 18.6653L12.6245 20.6163V20.6165C12.4671 20.8105 12.2294 20.9218 11.9796 20.9185L11.9796 20.9185ZM9.9877 16.9431C10.2305 16.9427 10.4608 17.0503 10.6163 17.2369L11.9796 18.8696L13.3428 17.2369C13.4403 17.1205 13.5684 17.0337 13.7127 16.986C13.8569 16.9384 14.0114 16.932 14.1592 16.9675L16.2571 17.5062L16.3633 15.4899C16.373 15.3306 16.4293 15.1776 16.5249 15.05C16.6207 14.9224 16.7518 14.8255 16.902 14.7715L18.8693 14.0531L17.7346 12.4204V12.4205C17.6433 12.2855 17.5947 12.1263 17.5947 11.9634C17.5947 11.8005 17.6433 11.6413 17.7346 11.5063L18.8693 9.87357L16.8775 9.10634C16.7273 9.05235 16.5962 8.95546 16.5005 8.82782C16.4047 8.70018 16.3485 8.54726 16.3388 8.38791L16.2326 6.3716L14.1347 6.91031C13.987 6.94584 13.8324 6.93941 13.6881 6.89186C13.5439 6.84416 13.4158 6.75738 13.3183 6.64094L11.9795 5.03284L10.6163 6.66554V6.6654C10.5187 6.78184 10.3907 6.86875 10.2464 6.91631C10.1022 6.96387 9.94763 6.9703 9.79989 6.93476L7.69381 6.37157L7.58762 8.38788C7.58065 8.5434 7.52926 8.69373 7.43948 8.82097C7.34983 8.9482 7.2256 9.04728 7.08158 9.10632L5.11421 9.82474L6.24892 11.4574V11.4573C6.34021 11.5923 6.389 11.7515 6.389 11.9144C6.389 12.0773 6.34021 12.2365 6.24892 12.3715L5.11421 14.0042L7.08158 14.7715C7.23177 14.8255 7.36283 14.9223 7.45861 15.05C7.55441 15.1776 7.61058 15.3306 7.62029 15.4899L7.72647 17.5062L9.82437 16.9675C9.87794 16.9538 9.93261 16.9456 9.98769 16.943L9.9877 16.9431Z"/>
<path d="M11.1633 14.3878C10.9463 14.389 10.7377 14.3039 10.5837 14.1511L8.95101 12.5184C8.74397 12.3113 8.66306 12.0094 8.73891 11.7267C8.81462 11.4438 9.03561 11.2228 9.31848 11.1471C9.60123 11.0713 9.90312 11.1522 10.1102 11.3592L11.1633 12.4204L13.849 9.72652C14.056 9.51948 14.3579 9.43858 14.6407 9.51443C14.9236 9.59027 15.1445 9.81112 15.2202 10.094C15.2961 10.3769 15.2152 10.6786 15.0081 10.8857L11.7429 14.1509V14.1511C11.5887 14.3039 11.3802 14.389 11.1633 14.3878L11.1633 14.3878Z"/>
</svg>
