<svg width="24" height="26" viewBox="0 0 24 26" fill="none" xmlns="http://www.w3.org/2000/svg">
<path d="M18.9988 18.6732C18.2712 17.8971 18.1167 16.7365 18.5131 15.7241C18.5199 15.7065 18.5267 15.691 18.5335 15.6734C18.9211 14.6641 19.8051 13.9709 20.828 13.9709C20.8785 13.9709 20.9058 13.9709 20.9058 13.9709C21.5255 13.9709 21.9598 13.5077 21.9598 12.9347C21.9598 12.3616 21.5255 11.8984 20.9883 11.8984H20.8232C19.8002 11.8984 18.9211 11.2052 18.5335 10.1949C18.5267 10.1773 18.5199 10.1617 18.5131 10.1441C18.1167 9.13175 18.2712 7.97119 18.9988 7.19506L19.1144 7.07175C19.4942 6.66659 19.4942 6.0117 19.1144 5.60654C18.7346 5.20139 18.1206 5.20139 17.7408 5.60654L17.6252 5.72985C16.8975 6.50598 15.8095 6.67074 14.8604 6.24796C14.8439 6.24071 14.8293 6.23345 14.8128 6.2262C13.8666 5.81379 13.2167 4.87083 13.2167 3.7797C13.2167 3.72582 13.2167 3.69577 13.2167 3.69577C13.2167 3.0357 12.7825 2.57251 12.2453 2.57251C11.7081 2.57251 11.2738 3.0357 11.2738 3.60872V3.64603C11.2738 4.78172 10.6327 5.8055 9.64858 6.23967L9.64275 6.24278C8.65964 6.67695 7.52693 6.43655 6.77406 5.63349L6.74977 5.60758L4.18903 2.87612L2.8154 4.34133L20.3015 22.9932L21.6751 21.528L19.1144 18.7965L18.9988 18.6732ZM12.2453 10.8622C12.2453 9.71824 13.1157 8.78979 14.1882 8.78979C15.2607 8.78979 16.1311 9.71824 16.1311 10.8622C16.1311 12.0062 15.2607 12.9347 14.1882 12.9347C13.9385 12.9347 13.7015 12.8797 13.481 12.7875L12.3822 11.6156C12.2968 11.3814 12.2453 11.1285 12.2453 10.8622ZM8.35947 13.9709C7.82225 13.9709 7.38802 13.5066 7.38802 12.9347C7.38802 12.6808 7.48419 12.457 7.62505 12.2767L5.86381 10.398C5.4286 11.3109 4.55429 11.8984 3.58479 11.8984H3.58381C2.965 11.8984 2.53076 12.3616 2.53076 12.9347C2.53076 13.5077 2.965 13.9709 3.50221 13.9709H3.56827C4.61355 13.9709 5.55683 14.6423 5.95707 15.6744L5.97747 15.7252C6.38062 16.7655 6.15816 17.9634 5.41111 18.7602L5.37614 18.7976C4.9963 19.2027 4.9963 19.8576 5.37614 20.2628C5.75598 20.6679 6.36993 20.6679 6.74977 20.2628L6.78474 20.2255C7.53179 19.4286 8.65381 19.1913 9.63012 19.6213L9.76904 19.6835C10.6803 20.0845 11.2738 21.0327 11.2738 22.0844V22.1725C11.2738 22.8336 11.7081 23.2968 12.2453 23.2968C12.7825 23.2968 13.2167 22.8326 13.2167 22.2606V22.0844C13.2167 21.0731 13.7685 20.1643 14.6185 19.7364L8.97537 13.717C8.8073 13.8683 8.59747 13.9709 8.35947 13.9709Z" fill="white"/>
</svg>
