<svg width="32" height="33" viewBox="0 0 32 33" fill="none" xmlns="http://www.w3.org/2000/svg">
<g>
<path d="M9.21558 2.2804H5.66578C4.70928 2.2804 3.93115 3.05858 3.93115 4.01508C3.93115 4.97158 4.70928 5.74965 5.66571 5.74965H9.21552C10.172 5.74965 10.9501 4.97152 10.9501 4.01508C10.9501 3.05865 10.172 2.2804 9.21558 2.2804ZM9.21558 4.81215H5.66578C5.22621 4.81215 4.86865 4.45452 4.86865 4.01502C4.86865 3.57546 5.22628 3.21783 5.66578 3.21783H9.21558C9.65515 3.21783 10.0127 3.57546 10.0127 4.01502C10.0126 4.45452 9.65508 4.81215 9.21558 4.81215Z" />
<path d="M10.5835 8.20178C9.18158 8.20184 8.04102 9.34241 8.04102 10.7443C8.04102 12.1462 9.18164 13.2868 10.5835 13.2868C11.9854 13.2868 13.126 12.1462 13.126 10.7443C13.126 9.34235 11.9854 8.20178 10.5835 8.20178ZM10.5835 12.3494C9.69845 12.3494 8.97845 11.6293 8.97845 10.7444C8.97852 9.85935 9.69852 9.13941 10.5835 9.13941C11.4684 9.13941 12.1885 9.85947 12.1885 10.7444C12.1885 11.6293 11.4685 12.3494 10.5835 12.3494Z" />
<path d="M29.3774 5.74988C29.6363 5.74988 29.8462 5.54006 29.8462 5.28113V3.63456C29.8462 1.90631 28.4401 0.50025 26.7118 0.50025H16.624C16.6207 0.50025 16.6176 0.5 16.6144 0.5H4.55267C3.2303 0.5 2.15442 1.57588 2.15442 2.89825V23.0297V25.1385C2.15442 25.3974 2.3643 25.6073 2.62317 25.6073C2.88205 25.6073 3.09192 25.3974 3.09192 25.1385V23.0297V2.89825C3.09192 2.09275 3.74723 1.4375 4.55267 1.4375C4.6798 1.4375 16.5893 1.43744 16.6197 1.43762C17.4143 1.43762 18.0751 2.095 18.0751 2.89825C18.0724 31.3831 18.0819 30.1067 18.0676 30.2477C18.0639 30.284 18.0582 30.3228 18.0515 30.3589C18.0511 30.3614 18.0507 30.3639 18.0502 30.3663C17.9486 30.9032 17.5427 31.377 16.9153 31.5286C16.667 31.5807 16.5554 31.5514 15.6469 31.5599V31.0464C15.6469 30.3744 15.1002 29.8277 14.4282 29.8277H13.751C13.4921 29.8277 13.2822 30.0375 13.2822 30.2964C13.2822 30.5554 13.4921 30.7652 13.751 30.7652H14.4282C14.5806 30.7652 14.7094 30.894 14.7094 31.0464V31.5599H6.45755V31.0464C6.45755 30.894 6.58636 30.7652 6.7388 30.7652H11.5634C11.8223 30.7652 12.0322 30.5554 12.0322 30.2964C12.0322 30.0375 11.8223 29.8277 11.5634 29.8277H6.7388C6.0668 29.8277 5.52005 30.3744 5.52005 31.0464V31.5599H4.55255C3.74705 31.5599 3.0918 30.9046 3.0918 30.0991C3.0918 29.8164 3.0918 27.5929 3.0918 27.3261C3.0918 27.0672 2.88192 26.8574 2.62305 26.8574C2.36417 26.8574 2.1543 27.0672 2.1543 27.3261C2.1543 27.5962 2.1543 29.8073 2.1543 30.0991C2.1543 31.4216 3.23017 32.4974 4.55255 32.4974C17.7648 32.4974 16.7465 32.5165 17.0738 32.4527H26.7115C28.4398 32.4527 29.8459 31.0466 29.8459 29.3184V7.46856C29.8459 7.20963 29.636 6.99981 29.3772 6.99981C29.1182 6.99981 28.9084 7.20963 28.9084 7.46856V29.3183C28.9084 30.5296 27.9229 31.5151 26.7115 31.5151H18.5505C18.7213 31.2818 18.8454 31.0188 18.9185 30.7651H26.7117C27.5096 30.7651 28.1586 30.116 28.1586 29.3183V3.63456C28.1586 2.83669 27.5095 2.18775 26.7117 2.18775H18.905C18.8198 1.91338 18.686 1.66031 18.5146 1.43775H26.7117C27.9232 1.43775 28.9086 2.42331 28.9086 3.63456V5.28113C28.9087 5.54006 29.1185 5.74988 29.3774 5.74988ZM19.0125 3.12519H26.7117C26.9927 3.12519 27.2212 3.35369 27.2212 3.63456V29.3183C27.2212 29.5991 26.9927 29.8276 26.7117 29.8276H19.0125V3.12519Z" />
</g>
<defs>
<clipPath>
<rect width="32" height="32"  transform="translate(0 0.5)"/>
</clipPath>
</defs>
</svg>
