<svg width="32" height="33" viewBox="0 0 32 33" fill="none" xmlns="http://www.w3.org/2000/svg">
<g clip-path="url(#clip0_6_17289)">
<path d="M16 3.74375C21.4686 3.74375 25.1839 5.52444 27.0428 9.03631C27.164 9.26556 27.4483 9.35306 27.6776 9.23175C27.9069 9.11037 27.9944 8.82619 27.873 8.59688C25.8386 4.75332 21.844 2.80444 16 2.80444C10.8702 2.80444 7.14913 4.31794 4.94013 7.30288C3.26131 9.57131 2.47894 12.7386 2.67744 16.4623C2.826 19.2492 3.458 21.3437 3.48481 21.4316C3.48725 21.4395 3.48988 21.4474 3.49275 21.4552L4.15438 23.2694C4.15456 23.2699 4.15469 23.2702 4.15481 23.2707L7.106 31.3629L7.10675 31.365L7.15563 31.499C5.83625 31.2644 4.72632 30.3672 4.22638 29.0817L3.22975 26.519C2.86144 25.5717 2.758 24.5417 2.93063 23.5402C2.944 23.4625 2.93763 23.3827 2.91213 23.3082C2.90294 23.2815 1.99288 20.5936 1.681 17.1341C1.49863 15.1103 1.55506 13.228 1.84888 11.5394C2.21219 9.45081 2.94175 7.65594 4.01731 6.20469C4.17181 5.99625 4.12806 5.70219 3.91963 5.54769C3.71106 5.39319 3.41694 5.437 3.26263 5.64538C2.10031 7.21363 1.31375 9.14006 0.924689 11.3711C0.616439 13.1389 0.555689 15.1018 0.744314 17.2052C1.03181 20.4117 1.80363 22.9359 1.98569 23.4984C1.81169 24.6308 1.9385 25.7902 2.35419 26.8594L3.35081 29.4221C3.70475 30.3323 4.318 31.1049 5.12406 31.6563C5.93007 32.2077 6.87231 32.4992 7.849 32.4992C8.16513 32.508 8.40688 32.1625 8.29025 31.8686L8.265 31.7994L10.8577 32.2173C10.9364 32.2306 11.0181 32.2212 11.0933 32.1949L12.9383 31.522C13.526 31.3077 13.9951 30.8774 14.2591 30.3102C14.5231 29.743 14.5504 29.1071 14.3361 28.5194L12.7086 24.0568C12.6198 23.8131 12.3501 23.6874 12.1064 23.7765C11.8628 23.8654 11.7373 24.1349 11.8261 24.3786L13.4536 28.8412C13.582 29.1932 13.5656 29.5741 13.4075 29.9137C13.2494 30.2534 12.9685 30.5111 12.6165 30.6395L11.2128 31.1514L7.4335 20.7888L8.83725 20.2769C9.564 20.0121 10.3706 20.3874 10.6356 21.1141L11.1803 22.6075C11.4157 23.1862 12.2557 22.8743 12.0627 22.2857L11.518 20.7922C11.0756 19.5791 9.72863 18.9519 8.51544 19.3944L6.67594 20.0653C6.59888 20.0928 6.52931 20.1404 6.47563 20.2019L4.76075 22.1907L4.37988 21.1463C4.33088 20.9807 3.74856 18.966 3.61413 16.3885C3.487 13.9519 3.74519 10.4942 5.69731 7.85863C7.71982 5.12825 11.1861 3.74375 16 3.74375ZM6.66438 21.4214L10.2169 31.1625L7.89638 30.7885L5.1295 23.2015L6.66438 21.4214Z"/>
<path d="M31.0997 11.5156C30.7319 9.29775 29.9756 7.37594 28.8518 5.80337C26.337 2.28431 22.0131 0.5 16.0004 0.5H15.9996C11.0081 0.5 7.16182 1.73744 4.56769 4.17794C4.12932 4.62 4.74438 5.27231 5.21125 4.86206C7.62544 2.59087 11.2551 1.43931 16.0003 1.43931C21.6909 1.43931 25.7571 3.0905 28.0857 6.347C30.4508 9.6545 30.6022 14.0755 30.3127 17.2019C29.9959 20.6221 29.0968 23.2826 29.0877 23.3091C29.0623 23.3836 29.0559 23.4633 29.0693 23.5408C29.2419 24.5423 29.1385 25.5724 28.7701 26.5196L27.7735 29.0824C27.2736 30.3679 26.1637 31.265 24.8443 31.4996L24.8931 31.3656C24.8934 31.3649 24.8936 31.3642 24.8939 31.3636L27.8451 23.2713C27.8452 23.2709 27.8454 23.2705 27.8455 23.2701L28.5071 21.4559C28.51 21.4481 28.5126 21.4402 28.5151 21.4322C28.5879 21.1936 30.2818 15.5314 28.6526 10.4606C28.5732 10.2136 28.3082 10.0777 28.0618 10.1571C27.8148 10.2364 27.6789 10.5009 27.7583 10.7479C29.2638 15.4333 27.7017 20.8699 27.6199 21.1469L27.2391 22.1913L25.5242 20.2024C25.4704 20.1408 25.4007 20.0932 25.3234 20.0657L23.4844 19.395C22.8967 19.1806 22.2607 19.2081 21.6936 19.472C21.1266 19.7361 20.6961 20.2051 20.4819 20.7927L17.6638 28.5199C17.4494 29.1076 17.4768 29.7436 17.7408 30.3106C18.0048 30.8778 18.4739 31.3081 19.0616 31.5224L20.9066 32.1953C20.9818 32.2216 21.0635 32.2311 21.1422 32.2178L23.7349 31.7999L23.7096 31.8691C23.5929 32.1631 23.8348 32.5085 24.1509 32.4996C25.1275 32.4996 26.0698 32.2082 26.8758 31.6567C27.6819 31.1054 28.2951 30.3328 28.6491 29.4226L29.6457 26.8598C30.0614 25.7907 30.1881 24.6313 30.0142 23.4989C30.1946 22.9426 30.9521 20.4688 31.2469 17.3005C31.4406 15.2189 31.3911 13.2724 31.0997 11.5156ZM18.5924 29.9144C18.4344 29.5748 18.4179 29.1939 18.5463 28.8419L21.3644 21.1148C21.4928 20.7628 21.7505 20.4819 22.0901 20.3238C22.4298 20.1658 22.8106 20.1493 23.1626 20.2776L24.5664 20.7896L20.7872 31.1522L19.3834 30.6402C19.0315 30.5118 18.7506 30.2541 18.5924 29.9144ZM21.7831 31.1632L25.3356 21.4221L26.8706 23.2022L24.1036 30.7892L21.7831 31.1632Z" />
</g>
<defs>
<clipPath id="clip0_6_17289">
<rect width="32" height="32"  transform="translate(0 0.5)"/>
</clipPath>
</defs>
</svg>
