<svg width="30" height="30" viewBox="0 0 30 30" fill="none" xmlns="http://www.w3.org/2000/svg">
<g clip-path="url(#clip0)">
<path d="M14.4918 27.492C14.4918 28.868 13.3763 29.9835 12.0003 29.9835C10.6244 29.9835 9.50893 28.868 9.50893 27.492C9.50893 26.116 10.6244 25.0006 12.0004 25.0006C13.3763 25.0006 14.4918 26.116 14.4918 27.492ZM22.0883 25.0006C20.7123 25.0006 19.5969 26.1161 19.5969 27.492C19.5969 28.868 20.7123 29.9835 22.0883 29.9835C23.4643 29.9835 24.5797 28.868 24.5797 27.492C24.5797 26.116 23.4643 25.0006 22.0883 25.0006ZM29.8219 13.3048L26.7563 22.4165C26.7563 22.4165 26.5025 23.7688 25.2095 23.7688C23.9166 23.7688 11.2724 23.7688 9.72935 23.7688C8.18634 23.7688 8.1215 22.0739 8.1215 22.0739C8.1215 22.0739 6.47662 9.87051 6.3951 9.13327C6.31359 8.39602 5.37076 7.84958 5.37076 7.84958L1.31408 5.95462C-0.9069 4.79319 0.102632 2.58332 1.31408 3.09087C6.45808 5.51745 8.84763 6.71223 9.00138 7.66805C9.15698 8.62571 9.42742 10.9319 9.42742 10.9319V10.9467C9.45891 10.9375 9.48114 10.9319 9.48114 10.9319C9.48114 10.9319 25.2558 10.9319 28.4419 10.9319C30.7314 10.9319 29.8219 13.3085 29.8219 13.3048ZM25.3874 18.3784L25.3559 18.3803H10.348L10.6574 20.8328H24.6575L25.3874 18.3784ZM26.8489 13.4326H9.7275L10.0572 16.0537C13.3415 16.0537 22.9589 16.0537 26.0746 16.0537L26.8489 13.4326Z" fill="#175CFF"/>
</g>
<circle cx="26.25" cy="3.75" r="3.75" fill="#FF5E31"/>
<defs>
<clipPath id="clip0">
<rect width="30" height="30" fill="white" transform="translate(0 1.5)"/>
</clipPath>
</defs>
</svg>
