<svg width="24" height="24" viewBox="0 0 24 24" fill="none" xmlns="http://www.w3.org/2000/svg">
<path d="M16.0291 15.9812V16.8492C16.0291 17.2455 15.7072 17.5662 15.3094 17.5662L5.15888 17.566C4.76113 17.566 4.43922 17.2453 4.43922 16.849V8.98112H15.423L17.4115 6.66041C17.1843 5.71701 16.332 5 15.3094 5H5.15888C3.96578 5 3 5.96233 3 7.1321V16.8491C3 18.0378 3.96578 19 5.15888 19H15.3094C16.4835 19 17.4683 18.0378 17.4683 16.8491V14.585L16.9569 15.1698C16.6918 15.5095 16.3699 15.7737 16.0291 15.9812V15.9812ZM9.32518 6.33968C9.68503 6.33968 9.96902 6.6416 9.96902 6.98116C9.96902 7.33968 9.68501 7.62263 9.32518 7.62263C8.96533 7.62263 8.68134 7.33967 8.68134 6.98116C8.68134 6.6416 8.98437 6.33968 9.32518 6.33968ZM7.39365 6.33968C7.7535 6.33968 8.03749 6.6416 8.03749 6.98116C8.03749 7.33968 7.75348 7.62263 7.39365 7.62263C7.03382 7.62263 6.74981 7.33967 6.74981 6.98116C6.74967 6.6416 7.03382 6.33968 7.39365 6.33968ZM5.44295 6.33968C5.80279 6.33968 6.08679 6.6416 6.08679 6.98116C6.08679 7.33968 5.80278 7.62263 5.44295 7.62263C5.08323 7.62263 4.7991 7.33967 4.7991 6.98116C4.7991 6.6416 5.08324 6.33968 5.44295 6.33968Z"/>
<path d="M12.9815 11.8493L13.6444 11.0757C13.5497 11.0379 13.436 11.0002 13.3413 11.0002H7.12982C6.73206 11.0002 6.41016 11.321 6.41016 11.7173C6.41016 12.1136 6.73208 12.4343 7.12982 12.4343H12.6028C12.6975 12.2078 12.8301 12.019 12.9816 11.8493L12.9815 11.8493Z"/>
<path d="M6.41016 14.8113C6.41016 15.2075 6.73208 15.5283 7.12982 15.5283H11.7316C11.7128 15.3773 11.7316 15.2263 11.7696 15.0754L12.0158 14.0942H7.1299C6.73227 14.0942 6.41037 14.415 6.41037 14.8113H6.41016Z"/>
<path d="M13.4901 15.8126L15.0435 15.1519C15.3467 15.0197 15.6119 14.8123 15.858 14.5857L13.7932 12.8492C13.6037 13.1135 13.4523 13.4155 13.3764 13.7363L12.9786 15.3595C12.8839 15.6803 13.1871 15.9446 13.4901 15.8125V15.8126Z"/>
<path d="M20.6904 7.6039L19.9139 6.94346C19.5352 6.62272 18.986 6.67931 18.6831 7.03782L14.5547 11.9057L16.6757 13.6793L20.804 8.8303C21.1071 8.45298 21.0503 7.90585 20.6904 7.60396L20.6904 7.6039Z"/>
</svg>
