<svg width="40" height="40" viewBox="0 0 40 40" fill="none" xmlns="http://www.w3.org/2000/svg">
<path d="M29.7272 19.3529C29.7276 18.6984 29.4227 18.0798 28.8996 17.673C29.4513 17.036 29.5752 16.1429 29.217 15.3849C28.8584 14.6265 28.0831 14.1415 27.2307 14.1422H22.3672L22.568 13.6213C22.8844 12.8052 23.0459 11.9395 23.0452 11.0666V10.989C23.0448 10.3253 22.7703 9.68993 22.2842 9.22785C21.7976 8.76577 21.1412 8.51628 20.4643 8.5361C19.0943 8.60753 18.0239 9.72308 18.0358 11.0676C18.0358 11.7043 17.1227 13.1675 16.383 14.1432H10.8979C10.5526 14.1432 10.2729 14.4173 10.2729 14.7557V27.0147C10.2729 27.3531 10.5526 27.6272 10.8979 27.6272H20.0001C20.3453 27.6272 20.6251 27.3531 20.6251 27.0147C20.6251 26.6767 20.3453 26.4022 20.0001 26.4022H17.317V14.9631C17.8464 14.2765 19.2858 12.2963 19.2858 11.068C19.2694 10.3844 19.8041 9.80886 20.4998 9.76033C20.8396 9.75008 21.1691 9.87517 21.4133 10.1069C21.6571 10.3386 21.7948 10.6575 21.7948 10.9904V11.068C21.7955 11.7925 21.6612 12.5113 21.399 13.1886L20.8779 14.5404C20.8054 14.7287 20.8315 14.9395 20.9484 15.1053C21.0649 15.2707 21.257 15.3695 21.4625 15.3698H27.2304C27.7487 15.3698 28.1689 15.7817 28.1689 16.2895C28.1689 16.7978 27.7487 17.2096 27.2304 17.2096C26.8851 17.2096 26.6054 17.4837 26.6054 17.8221C26.6054 18.1604 26.8851 18.4345 27.2304 18.4345H27.538C28.0566 18.4345 28.4772 18.8463 28.4772 19.3546C28.4772 19.8628 28.0566 20.2746 27.538 20.2746H27.2304C26.8851 20.2746 26.6054 20.5487 26.6054 20.8871C26.6054 21.2254 26.8851 21.4995 27.2304 21.4995C27.7487 21.4995 28.1689 21.9114 28.1689 22.4196C28.1689 22.9275 27.7487 23.3393 27.2304 23.3393H26.2521C25.9068 23.3393 25.6271 23.6137 25.6271 23.9517C25.6271 24.2901 25.9068 24.5642 26.2521 24.5642C26.7707 24.5642 27.191 24.976 27.191 25.4842C27.191 25.9921 26.7707 26.404 26.2521 26.404H22.1279C21.7826 26.404 21.5029 26.6784 21.5029 27.0164C21.5029 27.3548 21.7826 27.6289 22.1279 27.6289H26.2521C27.0424 27.6299 27.7713 27.2129 28.1595 26.5386C28.548 25.864 28.5348 25.0369 28.1257 24.3745C28.7535 24.099 29.2124 23.5498 29.3649 22.8922C29.5169 22.2347 29.3443 21.5453 28.8992 21.0313C29.4221 20.6249 29.7269 20.0067 29.7272 19.3529ZM11.5229 15.3685H16.067V26.4022H11.5229V15.3685ZM13.3644 22.8509C12.466 22.8509 11.7381 23.5645 11.7381 24.4446C11.7381 25.325 12.466 26.0383 13.3644 26.0383C14.2625 26.0383 14.9907 25.325 14.9907 24.4446C14.9897 23.5649 14.2621 22.8519 13.3644 22.8509ZM13.3644 24.813C13.1565 24.813 12.9877 24.6479 12.9881 24.4442C12.9881 24.2405 13.1565 24.0751 13.3647 24.0755C13.5726 24.0755 13.7411 24.2409 13.7407 24.4446C13.7404 24.6483 13.5719 24.813 13.3644 24.813ZM39.3714 18.5418C38.7963 19.4321 38.7963 20.5675 39.3714 21.4578C39.9482 22.3464 40.1383 23.424 39.8991 24.4507C39.6602 25.4771 39.0114 26.3674 38.0984 26.9224C37.186 27.4802 36.6834 28.5031 36.8072 29.5496C36.9338 30.5955 36.628 31.6471 35.958 32.4704C35.288 33.2937 34.3097 33.8201 33.2414 33.9322C32.1724 34.046 31.2667 34.7535 30.9144 35.7487C30.5653 36.7446 29.8242 37.5621 28.856 38.0191C27.8878 38.476 26.7732 38.5341 25.761 38.1807C24.7472 37.8294 23.6175 38.082 22.8596 38.8298C22.1042 39.5786 21.0743 40 19.9997 40C18.9252 40 17.8952 39.5786 17.1398 38.8298C16.3819 38.0816 15.2519 37.8291 14.2384 38.1807C13.2263 38.5341 12.112 38.4757 11.1438 38.0187C10.1759 37.5621 9.43447 36.7446 9.08535 35.7487C8.73379 34.7531 7.82769 34.0453 6.75871 33.9311C5.69043 33.819 4.71214 33.2927 4.04215 32.4694C3.37217 31.6461 3.0663 30.5944 3.19255 29.5486C3.31636 28.5018 2.81379 27.4788 1.90141 26.9214C0.988683 26.3664 0.340322 25.4764 0.101415 24.45C-0.137491 23.4237 0.0522388 22.3461 0.628753 21.4578C1.20387 20.5675 1.20387 19.4321 0.628753 18.5418C0.05189 17.6536 -0.138189 16.576 0.100718 15.5493C0.339973 14.5226 0.988334 13.6326 1.90176 13.0776C2.19507 12.8992 2.58046 12.9877 2.76217 13.2751C2.94423 13.5625 2.8539 13.9402 2.56058 14.1186C1.93106 14.5011 1.48428 15.1145 1.31966 15.822C1.1547 16.5298 1.28583 17.2725 1.68343 17.8846C2.51803 19.1765 2.51803 20.8242 1.68343 22.1157C1.28583 22.7282 1.1547 23.4709 1.31966 24.1783C1.48428 24.8858 1.93106 25.4993 2.56058 25.8821C3.88451 26.691 4.61413 28.1754 4.43417 29.6942C4.34698 30.415 4.55763 31.1399 5.0194 31.7072C5.48117 32.2746 6.15569 32.6372 6.89194 32.7144C8.44326 32.8805 9.75777 33.9076 10.268 35.3526C10.5087 36.0389 11.0193 36.6024 11.6865 36.9172C12.3537 37.232 13.1216 37.2723 13.8192 37.0286C15.2903 36.5184 16.9299 36.8851 18.0292 37.9702C18.5499 38.4863 19.2596 38.7768 20.0001 38.7768C20.7408 38.7768 21.4506 38.4863 21.971 37.9702C23.0706 36.8851 24.7098 36.5184 26.1809 37.0286C26.8785 37.2723 27.6465 37.232 28.3137 36.9172C28.9809 36.6024 29.4918 36.0389 29.7325 35.3526C30.2427 33.9076 31.5572 32.8805 33.1085 32.7144C33.8448 32.6372 34.519 32.2746 34.9807 31.7072C35.4425 31.1399 35.6535 30.415 35.5663 29.6942C35.3863 28.1754 36.116 26.691 37.4399 25.8817C38.0691 25.4989 38.5162 24.8855 38.6808 24.178C38.8458 23.4705 38.7146 22.7279 38.317 22.1154C37.4824 20.8238 37.4824 19.1762 38.317 17.8843C38.7146 17.2721 38.8458 16.5295 38.6808 15.8217C38.5162 15.1142 38.0691 14.5007 37.4399 14.1183C36.1156 13.3093 35.3856 11.8246 35.566 10.3058C35.6532 9.585 35.4421 8.8601 34.9804 8.29276C34.5186 7.72508 33.8444 7.36246 33.1082 7.28522C31.5569 7.11946 30.2424 6.09209 29.7321 4.64708C29.4915 3.9608 28.9805 3.39756 28.3133 3.08244C27.6461 2.76767 26.8781 2.72768 26.1806 2.97137C24.7095 3.48129 23.0703 3.11491 21.9706 2.02979C21.4502 1.51371 20.7405 1.2232 19.9997 1.2232C19.2593 1.2232 18.5495 1.51371 18.0288 2.02979C16.9295 3.11491 15.2899 3.48129 13.8188 2.97137C13.1213 2.72768 12.3533 2.76767 11.6861 3.08244C11.0189 3.39756 10.5083 3.9608 10.2677 4.64708C9.75777 6.09209 8.44361 7.11912 6.89299 7.28556C6.0249 7.37374 5.25064 7.85974 4.80665 8.59591C4.69784 8.79517 4.48614 8.91957 4.2556 8.91957C4.02541 8.91957 3.81371 8.79551 3.70454 8.59626C3.59573 8.39734 3.60759 8.15571 3.73524 7.96774C4.37941 6.8997 5.50245 6.19462 6.76185 6.06748C7.82943 5.95231 8.73379 5.24552 9.08535 4.25096C9.43447 3.25504 10.1759 2.43752 11.1441 1.98057C12.1123 1.52396 13.2266 1.46552 14.2391 1.81925C15.253 2.1706 16.3826 1.91803 17.1405 1.17023C17.8959 0.421405 18.9259 0 20.0004 0C21.075 0 22.1049 0.421405 22.8603 1.17023C23.6182 1.91768 24.7479 2.17025 25.7617 1.81925C26.7738 1.46586 27.8882 1.5243 28.8563 1.98091C29.8242 2.43786 30.5653 3.25538 30.9144 4.25096C31.2663 5.24689 32.1724 5.9547 33.2414 6.06885C34.3097 6.18095 35.288 6.70728 35.958 7.53061C36.628 8.35394 36.9338 9.40557 36.8072 10.4514C36.6834 11.4979 37.1863 12.5208 38.0987 13.0786C39.0118 13.6336 39.6602 14.524 39.8991 15.5503C40.1383 16.577 39.9482 17.6546 39.3714 18.5429V18.5418ZM3.06246 11.6493C3.19778 11.2641 3.24208 10.8543 3.19255 10.45C3.15209 10.1144 3.39693 9.80955 3.73977 9.7699C4.08261 9.72991 4.39336 9.97018 4.43417 10.3061C4.50427 10.8926 4.43975 11.4873 4.24514 12.0464C4.13318 12.3663 3.77779 12.5369 3.45099 12.4275C3.12454 12.3178 2.95051 11.9692 3.06246 11.6493ZM32.2405 13.4265C31.8303 12.6951 31.3528 12.0017 30.814 11.3557C30.5953 11.0936 30.6351 10.7077 30.9022 10.4938C31.1694 10.2798 31.5631 10.3184 31.7818 10.5802C32.3681 11.284 32.8878 12.0386 33.3345 12.8346C33.4444 13.0266 33.4409 13.2614 33.3251 13.4501C33.2093 13.6384 32.999 13.7519 32.7744 13.7464C32.5502 13.7413 32.3458 13.6183 32.2391 13.4245L32.2405 13.4265ZM29.5905 9.22238C29.375 9.48657 28.9819 9.52895 28.7123 9.31774C26.2448 7.36998 23.1686 6.3139 20.0001 6.3262C13.9978 6.3327 8.6738 10.1045 6.78557 15.6877C4.89733 21.2709 6.86857 27.4115 11.6788 30.93C16.4887 34.4482 23.057 34.5539 27.9823 31.1922C32.9076 27.8302 35.0836 21.7562 33.383 16.1152C33.2916 15.793 33.4807 15.4587 33.8082 15.3637C34.1353 15.269 34.4795 15.4488 34.5817 15.768C36.7186 22.8259 33.2787 30.3555 26.483 33.4947C19.6876 36.6339 11.5714 34.4421 7.37568 28.3353C3.18 22.2282 4.16108 14.0345 9.68593 9.04569C15.2104 4.05649 23.6238 3.76599 29.4932 8.36146C29.7628 8.57302 29.8064 8.95819 29.5905 9.22238Z" fill="#175CFF"/>
</svg>
