<svg width="20" height="20" viewBox="0 0 20 20" fill="none" xmlns="http://www.w3.org/2000/svg">
<path d="M14.7271 18.6212C14.568 18.6212 14.4089 18.6212 14.2498 18.6212C13.8331 18.6212 13.4165 18.6212 12.9998 18.6212C12.4165 18.6212 11.8407 18.6212 11.2573 18.6212C10.6058 18.6212 9.95428 18.6212 9.30275 18.6212C8.66637 18.6212 8.03757 18.6212 7.40119 18.6212C6.87846 18.6212 6.3633 18.6212 5.84056 18.6212C5.52237 18.6212 5.20418 18.6212 4.88599 18.6212C4.83296 18.6212 4.77992 18.6212 4.72689 18.6212C4.70416 18.6212 4.68144 18.6212 4.65872 18.6212C4.64356 18.6212 4.62841 18.6212 4.62084 18.6212C4.65114 18.6212 4.64356 18.6288 4.62084 18.6212C4.5678 18.6136 4.52235 18.5985 4.46932 18.5758C4.41629 18.5607 4.49204 18.5909 4.44659 18.5607C4.41628 18.5456 4.38598 18.5304 4.35568 18.5078C4.33295 18.4926 4.31022 18.4775 4.29507 18.4624C4.33295 18.4926 4.28749 18.4548 4.27234 18.4397C4.25718 18.4246 4.23446 18.4019 4.21931 18.3867C4.21173 18.3792 4.20415 18.3641 4.19658 18.3565C4.16627 18.3262 4.2193 18.3943 4.19658 18.3565C4.16627 18.3111 4.14355 18.2733 4.11324 18.2279C4.10567 18.2204 4.0981 18.2052 4.0981 18.1901C4.10567 18.1977 4.11325 18.2431 4.0981 18.1901C4.09052 18.1599 4.07537 18.1296 4.06779 18.1069C4.06021 18.0842 4.05264 18.054 4.05264 18.0313C4.04507 18.001 4.05264 18.0389 4.05264 18.0464C4.05264 18.0313 4.05264 18.0162 4.05264 18.0086C4.05264 17.9859 4.05264 17.9632 4.05264 17.9405V17.933C4.05264 17.9179 4.05264 17.9027 4.05264 17.8876C4.05264 17.8195 4.05264 17.7515 4.05264 17.6758C4.05264 17.4036 4.05264 17.1238 4.05264 16.8515C4.05264 16.428 4.05264 16.0045 4.05264 15.5734C4.05264 15.0365 4.05264 14.4995 4.05264 13.955C4.05264 13.3424 4.05264 12.7298 4.05264 12.1097C4.05264 11.4593 4.05264 10.8089 4.05264 10.1509C4.05264 9.50052 4.05264 8.84257 4.05264 8.19217C4.05264 7.57202 4.05264 6.95944 4.05264 6.3393C4.05264 5.79478 4.05264 5.25026 4.05264 4.71331C4.05264 4.28223 4.05264 3.85115 4.05264 3.42008C4.05264 3.14026 4.05264 2.85287 4.05264 2.57305C4.05264 2.44448 4.04506 2.30079 4.06022 2.17223C4.05264 2.22516 4.06021 2.16466 4.06779 2.14197C4.07537 2.11929 4.08295 2.08904 4.09052 2.06635C4.0981 2.04366 4.10567 2.01341 4.11324 1.99072C4.09052 2.04366 4.1284 1.96803 4.13598 1.95291C4.15113 1.93022 4.1587 1.90753 4.17385 1.88484C4.18143 1.87728 4.21931 1.82434 4.20416 1.83946C4.18901 1.86215 4.23446 1.80921 4.24204 1.80165C4.26477 1.77896 4.2875 1.75627 4.3178 1.73359C4.34053 1.7109 4.31022 1.73359 4.31022 1.74115C4.31779 1.73359 4.33295 1.72602 4.34052 1.71846C4.36325 1.70334 4.38598 1.68821 4.40871 1.68065C4.43143 1.66552 4.45416 1.65796 4.47689 1.64283C4.5072 1.62771 4.46932 1.64283 4.46932 1.64283C4.48447 1.63527 4.49962 1.62771 4.51477 1.62771C4.5678 1.61258 4.61326 1.59746 4.66629 1.58989C4.61326 1.59746 4.67387 1.58989 4.69659 1.58989C4.71175 1.58989 4.73447 1.58989 4.74962 1.58989C4.79508 1.58989 4.84054 1.58989 4.88599 1.58989C5.18903 1.58989 5.49207 1.58989 5.7951 1.58989C6.31027 1.58989 6.81785 1.58989 7.33301 1.58989C7.96181 1.58989 8.59061 1.58989 9.21941 1.58989C9.87094 1.58989 10.53 1.58989 11.1816 1.58989C11.7649 1.58989 12.3558 1.58989 12.9392 1.58989C13.3634 1.58989 13.7877 1.58989 14.2195 1.58989C14.3938 1.58989 14.568 1.58989 14.7423 1.58989C14.7498 1.58989 14.765 1.58989 14.7726 1.58989C14.7877 1.58989 14.871 1.59746 14.8407 1.59746C14.8104 1.58989 14.8483 1.59746 14.8559 1.59746C14.8711 1.59746 14.8938 1.60502 14.9089 1.61258C14.9317 1.62015 14.962 1.62771 14.9847 1.63527C14.9998 1.64283 15.0529 1.66552 15.0074 1.64283C15.0604 1.66552 15.1059 1.69577 15.1514 1.72602C15.1589 1.73359 15.1741 1.74115 15.1817 1.74871C15.1741 1.74871 15.1514 1.71846 15.1741 1.74115C15.1892 1.75627 15.212 1.7714 15.2271 1.79409C15.2498 1.81678 15.265 1.83946 15.2877 1.86215C15.2574 1.82434 15.3029 1.87728 15.3105 1.8924C15.3256 1.91509 15.3408 1.93778 15.3483 1.96047C15.3559 1.96803 15.3862 2.02853 15.3711 2.00584C15.3635 1.98316 15.3862 2.04366 15.3862 2.05878C15.3938 2.08904 15.4014 2.11929 15.4089 2.14954C15.4165 2.16466 15.4241 2.22516 15.4165 2.17979C15.4165 2.21004 15.4241 2.23273 15.4241 2.26298C15.4241 2.27054 15.4241 2.28567 15.4241 2.29323V2.30079C15.4241 2.31592 15.4241 2.33104 15.4241 2.35373C15.4241 2.5428 15.4241 2.73187 15.4241 2.92094C15.4241 3.27639 15.4241 3.63183 15.4241 3.99485C15.4241 4.48643 15.4241 4.97044 15.4241 5.46202C15.4241 6.04435 15.4241 6.63424 15.4241 7.21658C15.4241 7.85185 15.4241 8.49468 15.4241 9.12995C15.4241 9.78791 15.4241 10.4459 15.4241 11.1038C15.4241 11.7391 15.4241 12.3819 15.4241 13.0172C15.4241 13.5995 15.4241 14.1819 15.4241 14.7642C15.4241 15.2558 15.4241 15.7473 15.4241 16.2314C15.4241 16.5944 15.4241 16.9498 15.4241 17.3128C15.4241 17.5019 15.4241 17.6985 15.4241 17.8876C15.4241 17.9405 15.4241 17.9935 15.4165 18.0464C15.4165 18.0842 15.4165 18.0389 15.4165 18.0389C15.4165 18.054 15.4089 18.0616 15.4089 18.0767C15.4014 18.0994 15.3938 18.1296 15.3862 18.1523C15.3786 18.175 15.3711 18.2052 15.3635 18.2279C15.3483 18.2582 15.3635 18.2204 15.3711 18.2204C15.3635 18.2355 15.3559 18.2506 15.3483 18.2657C15.3256 18.3111 15.2953 18.3565 15.265 18.3943C15.2953 18.3565 15.2574 18.4019 15.2423 18.417C15.2271 18.4321 15.2044 18.4548 15.1892 18.4699C15.1741 18.4851 15.1286 18.5229 15.1665 18.4926C15.1438 18.5078 15.1286 18.5229 15.1059 18.538C15.0832 18.5531 15.0605 18.5683 15.0377 18.5758C15.0226 18.5834 15.015 18.5834 14.9998 18.5909C14.962 18.6136 15.0377 18.5758 14.9998 18.5909C14.9544 18.6061 14.9014 18.6212 14.8483 18.6363C14.8332 18.6363 14.8256 18.6439 14.8104 18.6439C14.818 18.6439 14.8559 18.6363 14.818 18.6439C14.7877 18.6212 14.7574 18.6212 14.7271 18.6212C14.5756 18.6212 14.4316 18.7498 14.4392 18.9086C14.4468 19.0674 14.568 19.2035 14.7271 19.196C15.2726 19.1884 15.7499 18.8481 15.9317 18.3338C15.9847 18.1901 15.9999 18.0389 15.9999 17.8876C15.9999 17.7061 15.9999 17.5246 15.9999 17.3431C15.9999 16.9876 15.9999 16.6322 15.9999 16.2767C15.9999 15.7852 15.9999 15.2936 15.9999 14.802C15.9999 14.2121 15.9999 13.6298 15.9999 13.0399C15.9999 12.3895 15.9999 11.7467 15.9999 11.0963C15.9999 10.4307 15.9999 9.76522 15.9999 9.10726C15.9999 8.46443 15.9999 7.82159 15.9999 7.1712C15.9999 6.58131 15.9999 5.99141 15.9999 5.40152C15.9999 4.90994 15.9999 4.41836 15.9999 3.93434C15.9999 3.5789 15.9999 3.22345 15.9999 2.86044C15.9999 2.67893 15.9999 2.49742 15.9999 2.31592C15.9999 2.16466 15.9847 2.02097 15.9392 1.87728C15.765 1.35545 15.2802 1.00756 14.7347 1C14.5756 1 14.4089 1 14.2498 1C13.8256 1 13.4013 1 12.9846 1C12.3937 1 11.8028 1 11.2119 1C10.5528 1 9.89367 1 9.23456 1C8.59819 1 7.96181 1 7.31786 1C6.8027 1 6.28753 1 5.77237 1C5.46933 1 5.17387 1 4.87084 1C4.81023 1 4.7572 1 4.69659 1C4.1587 1.03025 3.689 1.39326 3.5299 1.91509C3.46929 2.11172 3.47686 2.31592 3.47686 2.52011C3.47686 2.79993 3.47686 3.07219 3.47686 3.35201C3.47686 3.78309 3.47686 4.21417 3.47686 4.63768C3.47686 5.1822 3.47686 5.73428 3.47686 6.27879C3.47686 6.89894 3.47686 7.51908 3.47686 8.13923C3.47686 8.79719 3.47686 9.45515 3.47686 10.1131C3.47686 10.7711 3.47686 11.4366 3.47686 12.0945C3.47686 12.7147 3.47686 13.3348 3.47686 13.955C3.47686 14.4995 3.47686 15.044 3.47686 15.5885C3.47686 16.012 3.47686 16.4356 3.47686 16.8666C3.47686 17.1389 3.47686 17.4036 3.47686 17.6758C3.47686 17.9027 3.4693 18.1296 3.56021 18.3565C3.75718 18.8481 4.21173 19.1808 4.74962 19.1808C4.79508 19.1808 4.84054 19.1808 4.88599 19.1808C5.19661 19.1808 5.50721 19.1808 5.81783 19.1808C6.34056 19.1808 6.8633 19.1808 7.37846 19.1808C8.02242 19.1808 8.65879 19.1808 9.30275 19.1808C9.96185 19.1808 10.621 19.1808 11.2801 19.1808C11.8634 19.1808 12.4468 19.1808 13.0377 19.1808C13.4544 19.1808 13.871 19.1808 14.2953 19.1808C14.4468 19.1808 14.5983 19.1808 14.7498 19.1808C14.9014 19.1808 15.0453 19.0447 15.0377 18.8935C15.0074 18.7573 14.8862 18.6212 14.7271 18.6212Z"/>
<path d="M14.7271 18.6212C14.568 18.6212 14.4089 18.6212 14.2498 18.6212C13.8331 18.6212 13.4165 18.6212 12.9998 18.6212C12.4165 18.6212 11.8407 18.6212 11.2573 18.6212C10.6058 18.6212 9.95428 18.6212 9.30275 18.6212C8.66637 18.6212 8.03757 18.6212 7.40119 18.6212C6.87846 18.6212 6.3633 18.6212 5.84056 18.6212C5.52237 18.6212 5.20418 18.6212 4.88599 18.6212C4.83296 18.6212 4.77992 18.6212 4.72689 18.6212C4.70416 18.6212 4.68144 18.6212 4.65872 18.6212C4.64356 18.6212 4.62841 18.6212 4.62084 18.6212C4.65114 18.6212 4.64356 18.6288 4.62084 18.6212C4.5678 18.6136 4.52235 18.5985 4.46932 18.5758C4.41629 18.5607 4.49204 18.5909 4.44659 18.5607C4.41628 18.5456 4.38598 18.5304 4.35568 18.5078C4.33295 18.4926 4.31022 18.4775 4.29507 18.4624C4.33295 18.4926 4.28749 18.4548 4.27234 18.4397C4.25718 18.4246 4.23446 18.4019 4.21931 18.3867C4.21173 18.3792 4.20415 18.3641 4.19658 18.3565C4.16627 18.3262 4.2193 18.3943 4.19658 18.3565C4.16627 18.3111 4.14355 18.2733 4.11324 18.2279C4.10567 18.2204 4.0981 18.2052 4.0981 18.1901C4.10567 18.1977 4.11325 18.2431 4.0981 18.1901C4.09052 18.1599 4.07537 18.1296 4.06779 18.1069C4.06021 18.0842 4.05264 18.054 4.05264 18.0313C4.04507 18.001 4.05264 18.0389 4.05264 18.0464C4.05264 18.0313 4.05264 18.0162 4.05264 18.0086C4.05264 17.9859 4.05264 17.9632 4.05264 17.9405V17.933C4.05264 17.9179 4.05264 17.9027 4.05264 17.8876C4.05264 17.8195 4.05264 17.7515 4.05264 17.6758C4.05264 17.4036 4.05264 17.1238 4.05264 16.8515C4.05264 16.428 4.05264 16.0045 4.05264 15.5734C4.05264 15.0365 4.05264 14.4995 4.05264 13.955C4.05264 13.3424 4.05264 12.7298 4.05264 12.1097C4.05264 11.4593 4.05264 10.8089 4.05264 10.1509C4.05264 9.50052 4.05264 8.84257 4.05264 8.19217C4.05264 7.57202 4.05264 6.95944 4.05264 6.3393C4.05264 5.79478 4.05264 5.25026 4.05264 4.71331C4.05264 4.28223 4.05264 3.85115 4.05264 3.42008C4.05264 3.14026 4.05264 2.85287 4.05264 2.57305C4.05264 2.44448 4.04506 2.30079 4.06022 2.17223C4.05264 2.22516 4.06021 2.16466 4.06779 2.14197C4.07537 2.11929 4.08295 2.08904 4.09052 2.06635C4.0981 2.04366 4.10567 2.01341 4.11324 1.99072C4.09052 2.04366 4.1284 1.96803 4.13598 1.95291C4.15113 1.93022 4.1587 1.90753 4.17385 1.88484C4.18143 1.87728 4.21931 1.82434 4.20416 1.83946C4.18901 1.86215 4.23446 1.80921 4.24204 1.80165C4.26477 1.77896 4.2875 1.75627 4.3178 1.73359C4.34053 1.7109 4.31022 1.73359 4.31022 1.74115C4.31779 1.73359 4.33295 1.72602 4.34052 1.71846C4.36325 1.70334 4.38598 1.68821 4.40871 1.68065C4.43143 1.66552 4.45416 1.65796 4.47689 1.64283C4.5072 1.62771 4.46932 1.64283 4.46932 1.64283C4.48447 1.63527 4.49962 1.62771 4.51477 1.62771C4.5678 1.61258 4.61326 1.59746 4.66629 1.58989C4.61326 1.59746 4.67387 1.58989 4.69659 1.58989C4.71175 1.58989 4.73447 1.58989 4.74962 1.58989C4.79508 1.58989 4.84054 1.58989 4.88599 1.58989C5.18903 1.58989 5.49207 1.58989 5.7951 1.58989C6.31027 1.58989 6.81785 1.58989 7.33301 1.58989C7.96181 1.58989 8.59061 1.58989 9.21941 1.58989C9.87094 1.58989 10.53 1.58989 11.1816 1.58989C11.7649 1.58989 12.3558 1.58989 12.9392 1.58989C13.3634 1.58989 13.7877 1.58989 14.2195 1.58989C14.3938 1.58989 14.568 1.58989 14.7423 1.58989C14.7498 1.58989 14.765 1.58989 14.7726 1.58989C14.7877 1.58989 14.871 1.59746 14.8407 1.59746C14.8104 1.58989 14.8483 1.59746 14.8559 1.59746C14.8711 1.59746 14.8938 1.60502 14.9089 1.61258C14.9317 1.62015 14.962 1.62771 14.9847 1.63527C14.9998 1.64283 15.0529 1.66552 15.0074 1.64283C15.0604 1.66552 15.1059 1.69577 15.1514 1.72602C15.1589 1.73359 15.1741 1.74115 15.1817 1.74871C15.1741 1.74871 15.1514 1.71846 15.1741 1.74115C15.1892 1.75627 15.212 1.7714 15.2271 1.79409C15.2498 1.81678 15.265 1.83946 15.2877 1.86215C15.2574 1.82434 15.3029 1.87728 15.3105 1.8924C15.3256 1.91509 15.3408 1.93778 15.3483 1.96047C15.3559 1.96803 15.3862 2.02853 15.3711 2.00584C15.3635 1.98316 15.3862 2.04366 15.3862 2.05878C15.3938 2.08904 15.4014 2.11929 15.4089 2.14954C15.4165 2.16466 15.4241 2.22516 15.4165 2.17979C15.4165 2.21004 15.4241 2.23273 15.4241 2.26298C15.4241 2.27054 15.4241 2.28567 15.4241 2.29323V2.30079C15.4241 2.31592 15.4241 2.33104 15.4241 2.35373C15.4241 2.5428 15.4241 2.73187 15.4241 2.92094C15.4241 3.27639 15.4241 3.63183 15.4241 3.99485C15.4241 4.48643 15.4241 4.97044 15.4241 5.46202C15.4241 6.04435 15.4241 6.63424 15.4241 7.21658C15.4241 7.85185 15.4241 8.49468 15.4241 9.12995C15.4241 9.78791 15.4241 10.4459 15.4241 11.1038C15.4241 11.7391 15.4241 12.3819 15.4241 13.0172C15.4241 13.5995 15.4241 14.1819 15.4241 14.7642C15.4241 15.2558 15.4241 15.7473 15.4241 16.2314C15.4241 16.5944 15.4241 16.9498 15.4241 17.3128C15.4241 17.5019 15.4241 17.6985 15.4241 17.8876C15.4241 17.9405 15.4241 17.9935 15.4165 18.0464C15.4165 18.0842 15.4165 18.0389 15.4165 18.0389C15.4165 18.054 15.4089 18.0616 15.4089 18.0767C15.4014 18.0994 15.3938 18.1296 15.3862 18.1523C15.3786 18.175 15.3711 18.2052 15.3635 18.2279C15.3483 18.2582 15.3635 18.2204 15.3711 18.2204C15.3635 18.2355 15.3559 18.2506 15.3483 18.2657C15.3256 18.3111 15.2953 18.3565 15.265 18.3943C15.2953 18.3565 15.2574 18.4019 15.2423 18.417C15.2271 18.4321 15.2044 18.4548 15.1892 18.4699C15.1741 18.4851 15.1286 18.5229 15.1665 18.4926C15.1438 18.5078 15.1286 18.5229 15.1059 18.538C15.0832 18.5531 15.0605 18.5683 15.0377 18.5758C15.0226 18.5834 15.015 18.5834 14.9998 18.5909C14.962 18.6136 15.0377 18.5758 14.9998 18.5909C14.9544 18.6061 14.9014 18.6212 14.8483 18.6363C14.8332 18.6363 14.8256 18.6439 14.8104 18.6439C14.818 18.6439 14.8559 18.6363 14.818 18.6439C14.7877 18.6212 14.7574 18.6212 14.7271 18.6212C14.5756 18.6212 14.4316 18.7498 14.4392 18.9086C14.4468 19.0674 14.568 19.2035 14.7271 19.196C15.2726 19.1884 15.7499 18.8481 15.9317 18.3338C15.9847 18.1901 15.9999 18.0389 15.9999 17.8876C15.9999 17.7061 15.9999 17.5246 15.9999 17.3431C15.9999 16.9876 15.9999 16.6322 15.9999 16.2767C15.9999 15.7852 15.9999 15.2936 15.9999 14.802C15.9999 14.2121 15.9999 13.6298 15.9999 13.0399C15.9999 12.3895 15.9999 11.7467 15.9999 11.0963C15.9999 10.4307 15.9999 9.76522 15.9999 9.10726C15.9999 8.46443 15.9999 7.82159 15.9999 7.1712C15.9999 6.58131 15.9999 5.99141 15.9999 5.40152C15.9999 4.90994 15.9999 4.41836 15.9999 3.93434C15.9999 3.5789 15.9999 3.22345 15.9999 2.86044C15.9999 2.67893 15.9999 2.49742 15.9999 2.31592C15.9999 2.16466 15.9847 2.02097 15.9392 1.87728C15.765 1.35545 15.2802 1.00756 14.7347 1C14.5756 1 14.4089 1 14.2498 1C13.8256 1 13.4013 1 12.9846 1C12.3937 1 11.8028 1 11.2119 1C10.5528 1 9.89367 1 9.23456 1C8.59819 1 7.96181 1 7.31786 1C6.8027 1 6.28753 1 5.77237 1C5.46933 1 5.17387 1 4.87084 1C4.81023 1 4.7572 1 4.69659 1C4.1587 1.03025 3.689 1.39326 3.5299 1.91509C3.46929 2.11172 3.47686 2.31592 3.47686 2.52011C3.47686 2.79993 3.47686 3.07219 3.47686 3.35201C3.47686 3.78309 3.47686 4.21417 3.47686 4.63768C3.47686 5.1822 3.47686 5.73428 3.47686 6.27879C3.47686 6.89894 3.47686 7.51908 3.47686 8.13923C3.47686 8.79719 3.47686 9.45515 3.47686 10.1131C3.47686 10.7711 3.47686 11.4366 3.47686 12.0945C3.47686 12.7147 3.47686 13.3348 3.47686 13.955C3.47686 14.4995 3.47686 15.044 3.47686 15.5885C3.47686 16.012 3.47686 16.4356 3.47686 16.8666C3.47686 17.1389 3.47686 17.4036 3.47686 17.6758C3.47686 17.9027 3.4693 18.1296 3.56021 18.3565C3.75718 18.8481 4.21173 19.1808 4.74962 19.1808C4.79508 19.1808 4.84054 19.1808 4.88599 19.1808C5.19661 19.1808 5.50721 19.1808 5.81783 19.1808C6.34056 19.1808 6.8633 19.1808 7.37846 19.1808C8.02242 19.1808 8.65879 19.1808 9.30275 19.1808C9.96185 19.1808 10.621 19.1808 11.2801 19.1808C11.8634 19.1808 12.4468 19.1808 13.0377 19.1808C13.4544 19.1808 13.871 19.1808 14.2953 19.1808C14.4468 19.1808 14.5983 19.1808 14.7498 19.1808C14.9014 19.1808 15.0453 19.0447 15.0377 18.8935C15.0074 18.7573 14.8862 18.6212 14.7271 18.6212Z"/>
<path d="M14.7271 18.6212C14.568 18.6212 14.4089 18.6212 14.2498 18.6212C13.8331 18.6212 13.4165 18.6212 12.9998 18.6212C12.4165 18.6212 11.8407 18.6212 11.2573 18.6212C10.6058 18.6212 9.95428 18.6212 9.30275 18.6212C8.66637 18.6212 8.03757 18.6212 7.40119 18.6212C6.87846 18.6212 6.36329 18.6212 5.84056 18.6212C5.52237 18.6212 5.20418 18.6212 4.88599 18.6212C4.83296 18.6212 4.77992 18.6212 4.72689 18.6212C4.70416 18.6212 4.68144 18.6212 4.65872 18.6212C4.64356 18.6212 4.62841 18.6212 4.62084 18.6212C4.65114 18.6212 4.64356 18.6288 4.62084 18.6212C4.5678 18.6136 4.52235 18.5985 4.46932 18.5758C4.41629 18.5607 4.49204 18.5909 4.44659 18.5607C4.41628 18.5456 4.38598 18.5304 4.35568 18.5078C4.33295 18.4926 4.31022 18.4775 4.29507 18.4624C4.33295 18.4926 4.28749 18.4548 4.27234 18.4397C4.25718 18.4246 4.23446 18.4019 4.21931 18.3867C4.21173 18.3792 4.20415 18.3641 4.19658 18.3565C4.16627 18.3262 4.2193 18.3943 4.19658 18.3565C4.16627 18.3111 4.14355 18.2733 4.11324 18.2279C4.10567 18.2204 4.0981 18.2052 4.0981 18.1901C4.10567 18.1977 4.11325 18.2431 4.0981 18.1901C4.09052 18.1599 4.07537 18.1296 4.06779 18.1069C4.06021 18.0842 4.05264 18.054 4.05264 18.0313C4.04507 18.001 4.05264 18.0389 4.05264 18.0464C4.05264 18.0313 4.05264 18.0162 4.05264 18.0086C4.05264 17.9859 4.05264 17.9632 4.05264 17.9405V17.933C4.05264 17.9179 4.05264 17.9027 4.05264 17.8876C4.05264 17.8195 4.05264 17.7515 4.05264 17.6759C4.05264 17.4036 4.05264 17.1238 4.05264 16.8515C4.05264 16.428 4.05264 16.0045 4.05264 15.5734C4.05264 15.0365 4.05264 14.4995 4.05264 13.955C4.05264 13.3424 4.05264 12.7298 4.05264 12.1097C4.05264 11.4593 4.05264 10.8089 4.05264 10.1509C4.05264 9.50052 4.05264 8.84257 4.05264 8.19217C4.05264 7.57202 4.05264 6.95944 4.05264 6.3393C4.05264 5.79478 4.05264 5.25026 4.05264 4.71331C4.05264 4.28223 4.05264 3.85115 4.05264 3.42008C4.05264 3.14026 4.05264 2.85287 4.05264 2.57305C4.05264 2.44448 4.04506 2.30079 4.06022 2.17223C4.05264 2.22516 4.06021 2.16466 4.06779 2.14197C4.07537 2.11929 4.08295 2.08904 4.09052 2.06635C4.0981 2.04366 4.10567 2.01341 4.11324 1.99072C4.09052 2.04366 4.1284 1.96803 4.13598 1.95291C4.15113 1.93022 4.1587 1.90753 4.17385 1.88484C4.18143 1.87728 4.21931 1.82434 4.20416 1.83946C4.18901 1.86215 4.23446 1.80921 4.24204 1.80165C4.26477 1.77896 4.2875 1.75627 4.3178 1.73359C4.34053 1.7109 4.31022 1.73359 4.31022 1.74115C4.31779 1.73359 4.33295 1.72602 4.34052 1.71846C4.36325 1.70334 4.38598 1.68821 4.40871 1.68065C4.43143 1.66552 4.45416 1.65796 4.47689 1.64283C4.5072 1.62771 4.46932 1.64283 4.46932 1.64283C4.48447 1.63527 4.49962 1.62771 4.51477 1.62771C4.5678 1.61258 4.61326 1.59746 4.66629 1.58989C4.61326 1.59746 4.67387 1.58989 4.6966 1.58989C4.71175 1.58989 4.73447 1.58989 4.74962 1.58989C4.79508 1.58989 4.84054 1.58989 4.88599 1.58989C5.18903 1.58989 5.49207 1.58989 5.7951 1.58989C6.31027 1.58989 6.81785 1.58989 7.33301 1.58989C7.96181 1.58989 8.59061 1.58989 9.21941 1.58989C9.87094 1.58989 10.53 1.58989 11.1816 1.58989C11.7649 1.58989 12.3558 1.58989 12.9392 1.58989C13.3634 1.58989 13.7877 1.58989 14.2195 1.58989C14.3938 1.58989 14.568 1.58989 14.7423 1.58989C14.7498 1.58989 14.765 1.58989 14.7726 1.58989C14.7877 1.58989 14.871 1.59746 14.8407 1.59746C14.8104 1.58989 14.8483 1.59746 14.8559 1.59746C14.8711 1.59746 14.8938 1.60502 14.9089 1.61258C14.9317 1.62015 14.962 1.62771 14.9847 1.63527C14.9998 1.64283 15.0529 1.66552 15.0074 1.64283C15.0604 1.66552 15.1059 1.69577 15.1514 1.72602C15.1589 1.73359 15.1741 1.74115 15.1817 1.74871C15.1741 1.74871 15.1514 1.71846 15.1741 1.74115C15.1892 1.75627 15.212 1.7714 15.2271 1.79409C15.2498 1.81678 15.265 1.83946 15.2877 1.86215C15.2574 1.82434 15.3029 1.87728 15.3105 1.8924C15.3256 1.91509 15.3408 1.93778 15.3483 1.96047C15.3559 1.96803 15.3862 2.02853 15.3711 2.00584C15.3635 1.98316 15.3862 2.04366 15.3862 2.05878C15.3938 2.08904 15.4014 2.11929 15.4089 2.14954C15.4165 2.16466 15.4241 2.22516 15.4165 2.17979C15.4165 2.21004 15.4241 2.23273 15.4241 2.26298C15.4241 2.27054 15.4241 2.28567 15.4241 2.29323V2.30079C15.4241 2.31592 15.4241 2.33104 15.4241 2.35373C15.4241 2.5428 15.4241 2.73187 15.4241 2.92094C15.4241 3.27639 15.4241 3.63184 15.4241 3.99485C15.4241 4.48643 15.4241 4.97044 15.4241 5.46202C15.4241 6.04435 15.4241 6.63424 15.4241 7.21658C15.4241 7.85185 15.4241 8.49468 15.4241 9.12995C15.4241 9.78791 15.4241 10.4459 15.4241 11.1038C15.4241 11.7391 15.4241 12.3819 15.4241 13.0172C15.4241 13.5995 15.4241 14.1819 15.4241 14.7642C15.4241 15.2558 15.4241 15.7474 15.4241 16.2314C15.4241 16.5944 15.4241 16.9498 15.4241 17.3128C15.4241 17.5019 15.4241 17.6985 15.4241 17.8876C15.4241 17.9405 15.4241 17.9935 15.4165 18.0464C15.4165 18.0842 15.4165 18.0389 15.4165 18.0389C15.4165 18.054 15.4089 18.0616 15.4089 18.0767C15.4014 18.0994 15.3938 18.1296 15.3862 18.1523C15.3786 18.175 15.3711 18.2052 15.3635 18.2279C15.3483 18.2582 15.3635 18.2204 15.3711 18.2204C15.3635 18.2355 15.3559 18.2506 15.3483 18.2657C15.3256 18.3111 15.2953 18.3565 15.265 18.3943C15.2953 18.3565 15.2574 18.4019 15.2423 18.417C15.2271 18.4321 15.2044 18.4548 15.1892 18.4699C15.1741 18.4851 15.1286 18.5229 15.1665 18.4926C15.1438 18.5078 15.1286 18.5229 15.1059 18.538C15.0832 18.5531 15.0605 18.5683 15.0377 18.5758C15.0226 18.5834 15.015 18.5834 14.9998 18.5909C14.962 18.6136 15.0377 18.5758 14.9998 18.5909C14.9544 18.6061 14.9014 18.6212 14.8483 18.6363C14.8332 18.6363 14.8256 18.6439 14.8104 18.6439C14.818 18.6439 14.8559 18.6363 14.818 18.6439C14.7877 18.6212 14.7574 18.6212 14.7271 18.6212ZM14.7271 18.6212C14.5756 18.6212 14.4316 18.7498 14.4392 18.9086C14.4468 19.0674 14.568 19.2035 14.7271 19.196C15.2726 19.1884 15.7499 18.8481 15.9317 18.3338C15.9847 18.1901 15.9999 18.0389 15.9999 17.8876C15.9999 17.7061 15.9999 17.5246 15.9999 17.3431C15.9999 16.9876 15.9999 16.6322 15.9999 16.2767C15.9999 15.7852 15.9999 15.2936 15.9999 14.802C15.9999 14.2121 15.9999 13.6298 15.9999 13.0399C15.9999 12.3895 15.9999 11.7467 15.9999 11.0963C15.9999 10.4307 15.9999 9.76522 15.9999 9.10726C15.9999 8.46443 15.9999 7.82159 15.9999 7.1712C15.9999 6.5813 15.9999 5.99141 15.9999 5.40152C15.9999 4.90994 15.9999 4.41836 15.9999 3.93434C15.9999 3.5789 15.9999 3.22345 15.9999 2.86044C15.9999 2.67893 15.9999 2.49742 15.9999 2.31592C15.9999 2.16466 15.9847 2.02097 15.9392 1.87728C15.765 1.35545 15.2802 1.00756 14.7347 1C14.5756 1 14.4089 1 14.2498 1C13.8256 1 13.4013 1 12.9846 1C12.3937 1 11.8028 1 11.2119 1C10.5528 1 9.89367 1 9.23456 1C8.59818 1 7.96181 1 7.31786 1C6.8027 1 6.28753 1 5.77237 1C5.46933 1 5.17387 1 4.87084 1C4.81023 1 4.7572 1 4.6966 1C4.1587 1.03025 3.689 1.39326 3.5299 1.91509C3.46929 2.11172 3.47686 2.31592 3.47686 2.52011C3.47686 2.79993 3.47686 3.07219 3.47686 3.35201C3.47686 3.78309 3.47686 4.21417 3.47686 4.63768C3.47686 5.1822 3.47686 5.73428 3.47686 6.27879C3.47686 6.89894 3.47686 7.51908 3.47686 8.13923C3.47686 8.79719 3.47686 9.45515 3.47686 10.1131C3.47686 10.7711 3.47686 11.4366 3.47686 12.0945C3.47686 12.7147 3.47686 13.3348 3.47686 13.955C3.47686 14.4995 3.47686 15.044 3.47686 15.5885C3.47686 16.012 3.47686 16.4356 3.47686 16.8666C3.47686 17.1389 3.47686 17.4036 3.47686 17.6759C3.47686 17.9027 3.4693 18.1296 3.56021 18.3565C3.75718 18.8481 4.21173 19.1808 4.74962 19.1808C4.79508 19.1808 4.84054 19.1808 4.88599 19.1808C5.19661 19.1808 5.50721 19.1808 5.81783 19.1808C6.34056 19.1808 6.8633 19.1808 7.37846 19.1808C8.02242 19.1808 8.65879 19.1808 9.30275 19.1808C9.96185 19.1808 10.621 19.1808 11.2801 19.1808C11.8634 19.1808 12.4468 19.1808 13.0377 19.1808C13.4544 19.1808 13.871 19.1808 14.2953 19.1808C14.4468 19.1808 14.5983 19.1808 14.7498 19.1808C14.9014 19.1808 15.0453 19.0447 15.0377 18.8935C15.0074 18.7573 14.8862 18.6212 14.7271 18.6212Z"/>
<path d="M3.75692 15.3314C4.15087 15.3314 4.55239 15.3314 4.94634 15.3314C5.90091 15.3314 6.85547 15.3314 7.81004 15.3314C8.96158 15.3314 10.1055 15.3314 11.2571 15.3314C12.2495 15.3314 13.242 15.3314 14.2344 15.3314C14.7193 15.3314 15.1966 15.3465 15.6814 15.3314C15.689 15.3314 15.6966 15.3314 15.7041 15.3314C15.8557 15.3314 15.9996 15.1952 15.992 15.044C15.9845 14.8852 15.8632 14.7566 15.7041 14.7566C15.3102 14.7566 14.9087 14.7566 14.5147 14.7566C13.5602 14.7566 12.6056 14.7566 11.651 14.7566C10.4995 14.7566 9.35552 14.7566 8.20398 14.7566C7.21154 14.7566 6.2191 14.7566 5.22665 14.7566C4.7418 14.7566 4.26451 14.7415 3.77965 14.7566C3.77207 14.7566 3.7645 14.7566 3.75692 14.7566C3.60541 14.7566 3.46146 14.8927 3.46904 15.044C3.46904 15.1952 3.59025 15.3314 3.75692 15.3314Z"/>
<path d="M3.75692 15.3314C4.15087 15.3314 4.55239 15.3314 4.94634 15.3314C5.90091 15.3314 6.85547 15.3314 7.81004 15.3314C8.96158 15.3314 10.1055 15.3314 11.2571 15.3314C12.2495 15.3314 13.242 15.3314 14.2344 15.3314C14.7193 15.3314 15.1966 15.3465 15.6814 15.3314C15.689 15.3314 15.6966 15.3314 15.7041 15.3314C15.8557 15.3314 15.9996 15.1952 15.992 15.044C15.9845 14.8852 15.8632 14.7566 15.7041 14.7566C15.3102 14.7566 14.9087 14.7566 14.5147 14.7566C13.5602 14.7566 12.6056 14.7566 11.651 14.7566C10.4995 14.7566 9.35552 14.7566 8.20398 14.7566C7.21154 14.7566 6.2191 14.7566 5.22665 14.7566C4.7418 14.7566 4.26451 14.7415 3.77965 14.7566C3.77207 14.7566 3.7645 14.7566 3.75692 14.7566C3.60541 14.7566 3.46146 14.8927 3.46904 15.044C3.46904 15.1952 3.59025 15.3314 3.75692 15.3314Z"/>
<path d="M3.75692 15.3314C4.15087 15.3314 4.55239 15.3314 4.94634 15.3314C5.90091 15.3314 6.85547 15.3314 7.81004 15.3314C8.96158 15.3314 10.1055 15.3314 11.2571 15.3314C12.2495 15.3314 13.242 15.3314 14.2344 15.3314C14.7193 15.3314 15.1966 15.3465 15.6814 15.3314C15.689 15.3314 15.6966 15.3314 15.7041 15.3314C15.8557 15.3314 15.9996 15.1952 15.992 15.044C15.9845 14.8852 15.8632 14.7566 15.7041 14.7566C15.3102 14.7566 14.9087 14.7566 14.5147 14.7566C13.5602 14.7566 12.6056 14.7566 11.651 14.7566C10.4995 14.7566 9.35552 14.7566 8.20398 14.7566C7.21154 14.7566 6.2191 14.7566 5.22665 14.7566C4.7418 14.7566 4.26451 14.7415 3.77965 14.7566C3.77207 14.7566 3.7645 14.7566 3.75692 14.7566C3.60541 14.7566 3.46146 14.8927 3.46904 15.044C3.46904 15.1952 3.59025 15.3314 3.75692 15.3314Z"/>
<path d="M8.53036 17.2673C9.23492 17.2673 9.9319 17.2673 10.6365 17.2673C10.7349 17.2673 10.8334 17.2673 10.9395 17.2673C11.091 17.2673 11.235 17.1311 11.2274 16.9799C11.2198 16.8211 11.0986 16.6925 10.9395 16.6925C10.2349 16.6925 9.53796 16.6925 8.8334 16.6925C8.73491 16.6925 8.63643 16.6925 8.53036 16.6925C8.37884 16.6925 8.2349 16.8286 8.24247 16.9799C8.24247 17.1311 8.36369 17.2673 8.53036 17.2673Z"/>
<path d="M8.53036 17.2673C9.23492 17.2673 9.9319 17.2673 10.6365 17.2673C10.7349 17.2673 10.8334 17.2673 10.9395 17.2673C11.091 17.2673 11.235 17.1311 11.2274 16.9799C11.2198 16.8211 11.0986 16.6925 10.9395 16.6925C10.2349 16.6925 9.53796 16.6925 8.8334 16.6925C8.73491 16.6925 8.63643 16.6925 8.53036 16.6925C8.37884 16.6925 8.2349 16.8286 8.24247 16.9799C8.24247 17.1311 8.36369 17.2673 8.53036 17.2673Z"/>
<path d="M8.53036 17.2673C9.23492 17.2673 9.9319 17.2673 10.6365 17.2673C10.7349 17.2673 10.8334 17.2673 10.9395 17.2673C11.091 17.2673 11.235 17.1311 11.2274 16.9799C11.2198 16.8211 11.0986 16.6925 10.9395 16.6925C10.2349 16.6925 9.53796 16.6925 8.8334 16.6925C8.73491 16.6925 8.63643 16.6925 8.53036 16.6925C8.37884 16.6925 8.2349 16.8286 8.24247 16.9799C8.24247 17.1311 8.36369 17.2673 8.53036 17.2673Z"/>
</svg>
