<svg width="32" height="33" viewBox="0 0 32 33" fill="none" xmlns="http://www.w3.org/2000/svg">
<path d="M31.5102 3.50415C30.0354 3.50415 28.6355 4.06428 27.5686 5.08134L28.2445 5.79034C29.0094 5.06127 29.9809 4.61559 31.0204 4.50878V13.928C29.9809 13.8212 29.0094 13.3755 28.2445 12.6464L27.5686 13.3554C28.6355 14.3725 30.0354 14.9326 31.5102 14.9326H32V3.50415H31.5102Z" fill="white"/>
<path d="M26.2676 5.70348L16.7971 4.1636L16.7579 4.15723H3.951C3.11756 4.15723 2.415 4.72798 2.21331 5.49916C0.959562 5.70579 0 6.79679 0 8.10822V10.3286C0 11.64 0.959563 12.731 2.21338 12.9377C2.41506 13.7088 3.11762 14.2797 3.95106 14.2797H5.71431V15.8363C5.71431 16.4925 6.07188 17.0957 6.6475 17.4108C6.972 17.5884 7.17362 17.9282 7.17362 18.2975C7.17362 18.6669 6.972 19.0067 6.64744 19.1843C6.07188 19.4995 5.71431 20.1027 5.71431 20.7588V26.6225C5.71431 28.2069 7.00331 29.496 8.58781 29.496C10.1722 29.496 11.4613 28.207 11.4613 26.6225V22.6613H11.9511C12.5812 22.6613 13.0939 22.1487 13.0939 21.5185V20.451C13.0939 19.8209 12.5812 19.3082 11.9511 19.3082H11.4613V18.7429H11.9511C12.5812 18.7429 13.0939 18.2302 13.0939 17.6V17.1857C13.0939 16.5555 12.5812 16.0428 11.9511 16.0428H11.4613V14.2795H16.758L26.2676 12.7332C27.9999 12.4516 29.2572 10.9733 29.2572 9.21835C29.2572 7.46335 27.9999 5.9851 26.2676 5.70348ZM2.15512 11.9203C1.47519 11.7106 0.979625 11.0764 0.979625 10.3286V8.10822C0.979625 7.36041 1.47519 6.72623 2.15512 6.51654V11.9203ZM8.58775 28.5163C7.5435 28.5163 6.69387 27.6667 6.69387 26.6225V20.7588C6.69387 20.4608 6.85631 20.1868 7.11769 20.0437C7.75631 19.6942 8.15306 19.025 8.15306 18.2976C8.15306 17.5702 7.75631 16.9011 7.11769 16.5516C6.85619 16.4085 6.69381 16.1344 6.69381 15.8364V14.2797H10.4816V26.6225H10.4816C10.4816 27.6667 9.632 28.5163 8.58775 28.5163ZM11.951 20.2878C12.0411 20.2878 12.1143 20.361 12.1143 20.451V21.5185C12.1143 21.6085 12.0411 21.6817 11.951 21.6817H11.4612V20.2878H11.951ZM11.951 17.0225C12.0411 17.0225 12.1143 17.0957 12.1143 17.1857V17.6001C12.1143 17.6902 12.0411 17.7633 11.951 17.7633H11.4612V17.0225H11.951ZM23.8041 12.1415L16.6789 13.3H3.951C3.50087 13.3 3.13469 12.9338 3.13469 12.4837V5.9531C3.13469 5.50298 3.50087 5.13679 3.951 5.13679H16.6788L23.8041 6.29529V12.1415ZM26.1103 11.7665L24.7837 11.9822V6.4546L26.1103 6.67029C27.3661 6.87448 28.2776 7.94616 28.2776 9.21841C28.2776 10.4907 27.3661 11.5623 26.1103 11.7665Z"/>
<path d="M11.5164 7.55298H7.6633C6.74505 7.55298 5.99799 8.30004 5.99799 9.21829C5.99799 10.1365 6.74505 10.8836 7.6633 10.8836H11.5164C12.4346 10.8836 13.1817 10.1365 13.1817 9.21829C13.1817 8.30004 12.4346 7.55298 11.5164 7.55298ZM7.66336 9.90398C7.28524 9.90398 6.97767 9.59635 6.97767 9.21829C6.97767 8.84017 7.28524 8.5326 7.66336 8.5326C8.04149 8.5326 8.34905 8.84017 8.34905 9.21829C8.34905 9.59642 8.04142 9.90398 7.66336 9.90398ZM11.5164 9.90398H9.1803C9.27524 9.69467 9.32861 9.46267 9.32861 9.21829C9.32861 8.97392 9.27524 8.74185 9.1803 8.5326H11.5164C11.8945 8.5326 12.202 8.84017 12.202 9.21829C12.2021 9.59642 11.8945 9.90398 11.5164 9.90398Z"/>
</svg>
