<svg width="30" height="29" viewBox="0 0 30 29" fill="none" xmlns="http://www.w3.org/2000/svg">
<g clip-path="url(#clip0)">
<path d="M14.4918 26.492C14.4918 27.868 13.3763 28.9835 12.0003 28.9835C10.6244 28.9835 9.50893 27.868 9.50893 26.492C9.50893 25.116 10.6244 24.0006 12.0004 24.0006C13.3763 24.0006 14.4918 25.116 14.4918 26.492ZM22.0883 24.0006C20.7123 24.0006 19.5969 25.1161 19.5969 26.492C19.5969 27.868 20.7123 28.9835 22.0883 28.9835C23.4643 28.9835 24.5797 27.868 24.5797 26.492C24.5797 25.116 23.4643 24.0006 22.0883 24.0006ZM29.8219 12.3048L26.7563 21.4165C26.7563 21.4165 26.5025 22.7688 25.2095 22.7688C23.9166 22.7688 11.2724 22.7688 9.72935 22.7688C8.18634 22.7688 8.1215 21.0739 8.1215 21.0739C8.1215 21.0739 6.47662 8.87051 6.3951 8.13327C6.31359 7.39602 5.37076 6.84958 5.37076 6.84958L1.31408 4.95462C-0.9069 3.79319 0.102632 1.58332 1.31408 2.09087C6.45808 4.51745 8.84763 5.71223 9.00138 6.66805C9.15698 7.62571 9.42742 9.93191 9.42742 9.93191V9.94673C9.45891 9.93747 9.48114 9.93191 9.48114 9.93191C9.48114 9.93191 25.2558 9.93191 28.4419 9.93191C30.7314 9.93191 29.8219 12.3085 29.8219 12.3048ZM25.3874 17.3784L25.3559 17.3803H10.348L10.6574 19.8328H24.6575L25.3874 17.3784ZM26.8489 12.4326H9.7275L10.0572 15.0537C13.3415 15.0537 22.9589 15.0537 26.0746 15.0537L26.8489 12.4326Z" fill="#175CFF"/>
</g>
<defs>
<clipPath id="clip0">
<rect width="30" height="30" fill="white" transform="translate(0 0.5)"/>
</clipPath>
</defs>
</svg>
