<svg width="20" height="20" viewBox="0 0 20 20" fill="none" xmlns="http://www.w3.org/2000/svg">
<path d="M17.9125 3.77883C17.9125 3.93006 17.9125 4.07373 17.9125 4.22496C17.9125 4.61815 17.9125 5.01891 17.9125 5.41211C17.9125 5.98678 17.9125 6.5539 17.9125 7.12857C17.9125 7.80154 17.9125 8.47451 17.9125 9.14748C17.9125 9.8507 17.9125 10.5464 17.9125 11.2496C17.9125 11.9074 17.9125 12.5577 17.9125 13.2156C17.9125 13.7524 17.9125 14.2893 17.9125 14.8262C17.9125 15.174 17.9125 15.5143 17.9125 15.8621C17.9125 15.9377 17.9125 16.0133 17.9125 16.0965C17.9125 16.1041 17.9125 16.1192 17.9125 16.1267C17.9125 16.157 17.9125 16.157 17.9201 16.1267C17.9201 16.1343 17.8974 16.2175 17.905 16.1872C17.9125 16.1645 17.8822 16.2326 17.8746 16.2402C17.8974 16.1948 17.8595 16.2553 17.8443 16.2704C17.8367 16.278 17.8292 16.2855 17.814 16.2931C17.8595 16.2628 17.8216 16.2855 17.814 16.2931C17.7912 16.3006 17.7458 16.3158 17.7912 16.3082C17.7761 16.3158 17.7609 16.3158 17.7382 16.3233C17.7306 16.3233 17.6927 16.3309 17.723 16.3233C17.7609 16.3233 17.7154 16.3233 17.7079 16.3233C17.5866 16.3233 17.4653 16.3233 17.344 16.3233C17.018 16.3233 16.692 16.3233 16.3661 16.3233C15.8733 16.3233 15.3882 16.3233 14.8954 16.3233C14.289 16.3233 13.6901 16.3233 13.0836 16.3233C12.409 16.3233 11.7343 16.3233 11.052 16.3233C10.347 16.3233 9.642 16.3233 8.94457 16.3233C8.25473 16.3233 7.57247 16.3233 6.88262 16.3233C6.25342 16.3233 5.63181 16.3233 5.00261 16.3233C4.47954 16.3233 3.96405 16.3233 3.44099 16.3233C3.06953 16.3233 2.69808 16.3233 2.3342 16.3233C2.15985 16.3233 1.98549 16.3233 1.80355 16.3233C1.79597 16.3233 1.78839 16.3233 1.78081 16.3233C1.75049 16.3233 1.75049 16.3233 1.78081 16.3309C1.75807 16.3309 1.72775 16.3158 1.70501 16.3158C1.75807 16.3309 1.68984 16.3082 1.67468 16.2931C1.64436 16.278 1.67468 16.3006 1.68226 16.3006C1.6671 16.2855 1.65194 16.2704 1.63678 16.2553C1.6292 16.2477 1.62162 16.2402 1.61404 16.225C1.62162 16.2326 1.63678 16.2628 1.62162 16.2326C1.61404 16.2175 1.59129 16.1494 1.59888 16.2024C1.59129 16.1797 1.58371 16.1494 1.58371 16.1267C1.58371 16.1419 1.58371 16.1797 1.59129 16.1267C1.59129 16.0889 1.59129 16.0436 1.59129 16.0058C1.59129 15.7184 1.59129 15.4311 1.59129 15.1437C1.59129 14.6447 1.59129 14.1532 1.59129 13.6541C1.59129 13.019 1.59129 12.3914 1.59129 11.7562C1.59129 11.0605 1.59129 10.3649 1.59129 9.66923C1.59129 8.98113 1.59129 8.3006 1.59129 7.61251C1.59129 7.00759 1.59129 6.41023 1.59129 5.80531C1.59129 5.35918 1.59129 4.91305 1.59129 4.46692C1.59129 4.24764 1.59129 4.03592 1.59129 3.81663C1.59129 3.80151 1.59129 3.77883 1.59129 3.76371C1.59129 3.80908 1.59129 3.75614 1.59888 3.74102C1.59888 3.73346 1.61404 3.68809 1.59888 3.74102C1.60646 3.7259 1.61404 3.71833 1.61404 3.71077C1.62162 3.70321 1.6292 3.6881 1.63678 3.68053C1.63678 3.68053 1.60646 3.71078 1.6292 3.68809C1.63678 3.67297 1.65194 3.66541 1.6671 3.65029C1.67468 3.64272 1.71259 3.61247 1.68226 3.63516C1.65952 3.65028 1.72775 3.61248 1.74291 3.60492C1.69742 3.6276 1.75049 3.60492 1.77323 3.60492C1.8263 3.5898 1.73533 3.60492 1.80355 3.60492C1.84146 3.60492 1.87178 3.60492 1.90968 3.60492C2.14469 3.60492 2.37969 3.60492 2.60711 3.60492C3.02405 3.60492 3.44099 3.60492 3.85792 3.60492C4.41131 3.60492 4.96471 3.60492 5.5181 3.60492C6.16246 3.60492 6.8144 3.60492 7.45876 3.60492C8.15618 3.60492 8.8536 3.60492 9.55861 3.60492C10.256 3.60492 10.961 3.60492 11.6585 3.60492C12.318 3.60492 12.9775 3.60492 13.637 3.60492C14.2132 3.60492 14.7893 3.60492 15.3654 3.60492C15.8127 3.60492 16.2599 3.60492 16.7072 3.60492C16.9801 3.60492 17.2606 3.60492 17.5335 3.60492C17.5942 3.60492 17.6472 3.60492 17.7079 3.60492C17.7154 3.60492 17.723 3.60492 17.7306 3.60492C17.7382 3.60492 17.7533 3.60492 17.7458 3.60492C17.7837 3.60492 17.7382 3.60491 17.7306 3.59735C17.7458 3.59735 17.7609 3.60492 17.7837 3.60492C17.8292 3.61248 17.7685 3.58979 17.8064 3.61248C17.8216 3.62004 17.8367 3.6276 17.8519 3.63516C17.8519 3.63516 17.814 3.60491 17.8443 3.6276C17.8671 3.64272 17.8822 3.66541 17.8974 3.68053C17.9277 3.71078 17.8746 3.64273 17.8974 3.68053C17.905 3.6881 17.9125 3.70321 17.9125 3.71077C17.9353 3.75614 17.9125 3.68809 17.9201 3.73346C17.905 3.74102 17.9125 3.75614 17.9125 3.77883C17.9125 3.7637 17.9125 3.71834 17.9125 3.77883C17.9201 3.93006 18.0414 4.07373 18.2006 4.06617C18.3522 4.05861 18.4963 3.93762 18.4887 3.77883C18.4735 3.34026 18.1324 3.00756 17.6927 3C17.6396 3 17.5866 3 17.5411 3C17.2758 3 17.0104 3 16.7375 3C16.2903 3 15.8506 3 15.4033 3C14.8196 3 14.2435 3 13.6598 3C12.9927 3 12.3331 3 11.666 3C10.961 3 10.256 3 9.54345 3C8.83844 3 8.13344 3 7.42843 3C6.77649 3 6.12455 3 5.47261 3C4.91164 3 4.35067 3 3.79728 3C3.38034 3 2.97098 3 2.55404 3C2.32662 3 2.0992 3 1.87178 3C1.83388 3 1.79597 3 1.75807 3C1.32597 3.02268 1.00758 3.37051 1 3.79396C1 3.99812 1 4.20227 1 4.40643C1 4.85256 1 5.29113 1 5.73725C1 6.34217 1 6.94709 1 7.55201C1 8.24011 1 8.93576 1 9.62386C1 10.3271 1 11.0379 1 11.7411C1 12.3762 1 13.019 1 13.6541C1 14.1532 1 14.6522 1 15.1513C1 15.4386 1 15.7184 1 16.0058C1 16.0587 1 16.1116 1 16.1721C1.0379 16.588 1.37145 16.898 1.79597 16.898C1.96275 16.898 2.12194 16.898 2.28872 16.898C2.65259 16.898 3.02405 16.898 3.38792 16.898C3.91099 16.898 4.42648 16.898 4.94954 16.898C5.57874 16.898 6.21552 16.898 6.84472 16.898C7.53456 16.898 8.23199 16.898 8.92183 16.898C9.63442 16.898 10.3394 16.898 11.052 16.898C11.7343 16.898 12.4241 16.898 13.1064 16.898C13.7128 16.898 14.3269 16.898 14.9333 16.898C15.4261 16.898 15.9188 16.898 16.404 16.898C16.7299 16.898 17.0483 16.898 17.3743 16.898C17.5335 16.898 17.6927 16.9056 17.8443 16.8829C18.2309 16.83 18.4887 16.4746 18.4963 16.0965C18.4963 16.0284 18.4963 15.9528 18.4963 15.8848C18.4963 15.5521 18.4963 15.2118 18.4963 14.8791C18.4963 14.3422 18.4963 13.8054 18.4963 13.2685C18.4963 12.6106 18.4963 11.9528 18.4963 11.2949C18.4963 10.5917 18.4963 9.88095 18.4963 9.17773C18.4963 8.4972 18.4963 7.81666 18.4963 7.12857C18.4963 6.5539 18.4963 5.97922 18.4963 5.40455C18.4963 5.01135 18.4963 4.61059 18.4963 4.2174C18.4963 4.07373 18.4963 3.93006 18.4963 3.79396C18.4963 3.64273 18.3598 3.49905 18.2082 3.50662C18.0414 3.49149 17.9125 3.61247 17.9125 3.77883Z"/>
<path d="M17.9125 3.77883C17.9125 3.93006 17.9125 4.07373 17.9125 4.22496C17.9125 4.61815 17.9125 5.01891 17.9125 5.41211C17.9125 5.98678 17.9125 6.5539 17.9125 7.12857C17.9125 7.80154 17.9125 8.47451 17.9125 9.14748C17.9125 9.8507 17.9125 10.5464 17.9125 11.2496C17.9125 11.9074 17.9125 12.5577 17.9125 13.2156C17.9125 13.7524 17.9125 14.2893 17.9125 14.8262C17.9125 15.174 17.9125 15.5143 17.9125 15.8621C17.9125 15.9377 17.9125 16.0133 17.9125 16.0965C17.9125 16.1041 17.9125 16.1192 17.9125 16.1267C17.9125 16.157 17.9125 16.157 17.9201 16.1267C17.9201 16.1343 17.8974 16.2175 17.905 16.1872C17.9125 16.1645 17.8822 16.2326 17.8746 16.2402C17.8974 16.1948 17.8595 16.2553 17.8443 16.2704C17.8367 16.278 17.8292 16.2855 17.814 16.2931C17.8595 16.2628 17.8216 16.2855 17.814 16.2931C17.7912 16.3006 17.7458 16.3158 17.7912 16.3082C17.7761 16.3158 17.7609 16.3158 17.7382 16.3233C17.7306 16.3233 17.6927 16.3309 17.723 16.3233C17.7609 16.3233 17.7154 16.3233 17.7079 16.3233C17.5866 16.3233 17.4653 16.3233 17.344 16.3233C17.018 16.3233 16.692 16.3233 16.3661 16.3233C15.8733 16.3233 15.3882 16.3233 14.8954 16.3233C14.289 16.3233 13.6901 16.3233 13.0836 16.3233C12.409 16.3233 11.7343 16.3233 11.052 16.3233C10.347 16.3233 9.642 16.3233 8.94457 16.3233C8.25473 16.3233 7.57247 16.3233 6.88262 16.3233C6.25342 16.3233 5.63181 16.3233 5.00261 16.3233C4.47954 16.3233 3.96405 16.3233 3.44099 16.3233C3.06953 16.3233 2.69808 16.3233 2.3342 16.3233C2.15985 16.3233 1.98549 16.3233 1.80355 16.3233C1.79597 16.3233 1.78839 16.3233 1.78081 16.3233C1.75049 16.3233 1.75049 16.3233 1.78081 16.3309C1.75807 16.3309 1.72775 16.3158 1.70501 16.3158C1.75807 16.3309 1.68984 16.3082 1.67468 16.2931C1.64436 16.278 1.67468 16.3006 1.68226 16.3006C1.6671 16.2855 1.65194 16.2704 1.63678 16.2553C1.6292 16.2477 1.62162 16.2402 1.61404 16.225C1.62162 16.2326 1.63678 16.2628 1.62162 16.2326C1.61404 16.2175 1.59129 16.1494 1.59888 16.2024C1.59129 16.1797 1.58371 16.1494 1.58371 16.1267C1.58371 16.1419 1.58371 16.1797 1.59129 16.1267C1.59129 16.0889 1.59129 16.0436 1.59129 16.0058C1.59129 15.7184 1.59129 15.4311 1.59129 15.1437C1.59129 14.6447 1.59129 14.1532 1.59129 13.6541C1.59129 13.019 1.59129 12.3914 1.59129 11.7562C1.59129 11.0605 1.59129 10.3649 1.59129 9.66923C1.59129 8.98113 1.59129 8.3006 1.59129 7.61251C1.59129 7.00759 1.59129 6.41023 1.59129 5.80531C1.59129 5.35918 1.59129 4.91305 1.59129 4.46692C1.59129 4.24764 1.59129 4.03592 1.59129 3.81663C1.59129 3.80151 1.59129 3.77883 1.59129 3.76371C1.59129 3.80908 1.59129 3.75614 1.59888 3.74102C1.59888 3.73346 1.61404 3.68809 1.59888 3.74102C1.60646 3.7259 1.61404 3.71833 1.61404 3.71077C1.62162 3.70321 1.6292 3.6881 1.63678 3.68053C1.63678 3.68053 1.60646 3.71078 1.6292 3.68809C1.63678 3.67297 1.65194 3.66541 1.6671 3.65029C1.67468 3.64272 1.71259 3.61247 1.68226 3.63516C1.65952 3.65028 1.72775 3.61248 1.74291 3.60492C1.69742 3.6276 1.75049 3.60492 1.77323 3.60492C1.8263 3.5898 1.73533 3.60492 1.80355 3.60492C1.84146 3.60492 1.87178 3.60492 1.90968 3.60492C2.14469 3.60492 2.37969 3.60492 2.60711 3.60492C3.02405 3.60492 3.44099 3.60492 3.85792 3.60492C4.41131 3.60492 4.96471 3.60492 5.5181 3.60492C6.16246 3.60492 6.8144 3.60492 7.45876 3.60492C8.15618 3.60492 8.8536 3.60492 9.55861 3.60492C10.256 3.60492 10.961 3.60492 11.6585 3.60492C12.318 3.60492 12.9775 3.60492 13.637 3.60492C14.2132 3.60492 14.7893 3.60492 15.3654 3.60492C15.8127 3.60492 16.2599 3.60492 16.7072 3.60492C16.9801 3.60492 17.2606 3.60492 17.5335 3.60492C17.5942 3.60492 17.6472 3.60492 17.7079 3.60492C17.7154 3.60492 17.723 3.60492 17.7306 3.60492C17.7382 3.60492 17.7533 3.60492 17.7458 3.60492C17.7837 3.60492 17.7382 3.60491 17.7306 3.59735C17.7458 3.59735 17.7609 3.60492 17.7837 3.60492C17.8292 3.61248 17.7685 3.58979 17.8064 3.61248C17.8216 3.62004 17.8367 3.6276 17.8519 3.63516C17.8519 3.63516 17.814 3.60491 17.8443 3.6276C17.8671 3.64272 17.8822 3.66541 17.8974 3.68053C17.9277 3.71078 17.8746 3.64273 17.8974 3.68053C17.905 3.6881 17.9125 3.70321 17.9125 3.71077C17.9353 3.75614 17.9125 3.68809 17.9201 3.73346C17.905 3.74102 17.9125 3.75614 17.9125 3.77883C17.9125 3.7637 17.9125 3.71834 17.9125 3.77883C17.9201 3.93006 18.0414 4.07373 18.2006 4.06617C18.3522 4.05861 18.4963 3.93762 18.4887 3.77883C18.4735 3.34026 18.1324 3.00756 17.6927 3C17.6396 3 17.5866 3 17.5411 3C17.2758 3 17.0104 3 16.7375 3C16.2903 3 15.8506 3 15.4033 3C14.8196 3 14.2435 3 13.6598 3C12.9927 3 12.3331 3 11.666 3C10.961 3 10.256 3 9.54345 3C8.83844 3 8.13344 3 7.42843 3C6.77649 3 6.12455 3 5.47261 3C4.91164 3 4.35067 3 3.79728 3C3.38034 3 2.97098 3 2.55404 3C2.32662 3 2.0992 3 1.87178 3C1.83388 3 1.79597 3 1.75807 3C1.32597 3.02268 1.00758 3.37051 1 3.79396C1 3.99812 1 4.20227 1 4.40643C1 4.85256 1 5.29113 1 5.73725C1 6.34217 1 6.94709 1 7.55201C1 8.24011 1 8.93576 1 9.62386C1 10.3271 1 11.0379 1 11.7411C1 12.3762 1 13.019 1 13.6541C1 14.1532 1 14.6522 1 15.1513C1 15.4386 1 15.7184 1 16.0058C1 16.0587 1 16.1116 1 16.1721C1.0379 16.588 1.37145 16.898 1.79597 16.898C1.96275 16.898 2.12194 16.898 2.28872 16.898C2.65259 16.898 3.02405 16.898 3.38792 16.898C3.91099 16.898 4.42648 16.898 4.94954 16.898C5.57874 16.898 6.21552 16.898 6.84472 16.898C7.53456 16.898 8.23199 16.898 8.92183 16.898C9.63442 16.898 10.3394 16.898 11.052 16.898C11.7343 16.898 12.4241 16.898 13.1064 16.898C13.7128 16.898 14.3269 16.898 14.9333 16.898C15.4261 16.898 15.9188 16.898 16.404 16.898C16.7299 16.898 17.0483 16.898 17.3743 16.898C17.5335 16.898 17.6927 16.9056 17.8443 16.8829C18.2309 16.83 18.4887 16.4746 18.4963 16.0965C18.4963 16.0284 18.4963 15.9528 18.4963 15.8848C18.4963 15.5521 18.4963 15.2118 18.4963 14.8791C18.4963 14.3422 18.4963 13.8054 18.4963 13.2685C18.4963 12.6106 18.4963 11.9528 18.4963 11.2949C18.4963 10.5917 18.4963 9.88095 18.4963 9.17773C18.4963 8.4972 18.4963 7.81666 18.4963 7.12857C18.4963 6.5539 18.4963 5.97922 18.4963 5.40455C18.4963 5.01135 18.4963 4.61059 18.4963 4.2174C18.4963 4.07373 18.4963 3.93006 18.4963 3.79396C18.4963 3.64273 18.3598 3.49905 18.2082 3.50662C18.0414 3.49149 17.9125 3.61247 17.9125 3.77883Z"/>
<path d="M17.9125 3.77883C17.9125 3.93006 17.9125 4.07373 17.9125 4.22496C17.9125 4.61815 17.9125 5.01891 17.9125 5.41211C17.9125 5.98678 17.9125 6.5539 17.9125 7.12857C17.9125 7.80154 17.9125 8.47451 17.9125 9.14748C17.9125 9.8507 17.9125 10.5464 17.9125 11.2496C17.9125 11.9074 17.9125 12.5577 17.9125 13.2156C17.9125 13.7524 17.9125 14.2893 17.9125 14.8262C17.9125 15.174 17.9125 15.5143 17.9125 15.8621C17.9125 15.9377 17.9125 16.0133 17.9125 16.0965C17.9125 16.1041 17.9125 16.1192 17.9125 16.1267C17.9125 16.157 17.9125 16.157 17.9201 16.1267C17.9201 16.1343 17.8974 16.2175 17.905 16.1872C17.9125 16.1645 17.8822 16.2326 17.8746 16.2402C17.8974 16.1948 17.8595 16.2553 17.8443 16.2704C17.8367 16.278 17.8292 16.2855 17.814 16.2931C17.8595 16.2628 17.8216 16.2855 17.814 16.2931C17.7912 16.3006 17.7458 16.3158 17.7912 16.3082C17.7761 16.3158 17.7609 16.3158 17.7382 16.3233C17.7306 16.3233 17.6927 16.3309 17.723 16.3233C17.7609 16.3233 17.7154 16.3233 17.7079 16.3233C17.5866 16.3233 17.4653 16.3233 17.344 16.3233C17.018 16.3233 16.692 16.3233 16.3661 16.3233C15.8733 16.3233 15.3882 16.3233 14.8954 16.3233C14.289 16.3233 13.6901 16.3233 13.0836 16.3233C12.409 16.3233 11.7343 16.3233 11.052 16.3233C10.347 16.3233 9.642 16.3233 8.94457 16.3233C8.25473 16.3233 7.57247 16.3233 6.88262 16.3233C6.25342 16.3233 5.63181 16.3233 5.00261 16.3233C4.47954 16.3233 3.96405 16.3233 3.44099 16.3233C3.06953 16.3233 2.69808 16.3233 2.3342 16.3233C2.15985 16.3233 1.98549 16.3233 1.80355 16.3233C1.79597 16.3233 1.78839 16.3233 1.78081 16.3233C1.75049 16.3233 1.75049 16.3233 1.78081 16.3309C1.75807 16.3309 1.72775 16.3158 1.70501 16.3158C1.75807 16.3309 1.68984 16.3082 1.67468 16.2931C1.64436 16.278 1.67468 16.3006 1.68226 16.3006C1.6671 16.2855 1.65194 16.2704 1.63678 16.2553C1.6292 16.2477 1.62162 16.2402 1.61404 16.225C1.62162 16.2326 1.63678 16.2628 1.62162 16.2326C1.61404 16.2175 1.59129 16.1494 1.59888 16.2024C1.59129 16.1797 1.58371 16.1494 1.58371 16.1267C1.58371 16.1419 1.58371 16.1797 1.59129 16.1267C1.59129 16.0889 1.59129 16.0436 1.59129 16.0058C1.59129 15.7184 1.59129 15.4311 1.59129 15.1437C1.59129 14.6447 1.59129 14.1532 1.59129 13.6541C1.59129 13.019 1.59129 12.3914 1.59129 11.7562C1.59129 11.0605 1.59129 10.3649 1.59129 9.66923C1.59129 8.98113 1.59129 8.3006 1.59129 7.61251C1.59129 7.00759 1.59129 6.41023 1.59129 5.80531C1.59129 5.35918 1.59129 4.91305 1.59129 4.46692C1.59129 4.24764 1.59129 4.03592 1.59129 3.81663C1.59129 3.80151 1.59129 3.77883 1.59129 3.76371C1.59129 3.80908 1.59129 3.75614 1.59888 3.74102C1.59888 3.73346 1.61404 3.68809 1.59888 3.74102C1.60646 3.7259 1.61404 3.71833 1.61404 3.71077C1.62162 3.70321 1.6292 3.6881 1.63678 3.68053C1.63678 3.68053 1.60646 3.71078 1.6292 3.68809C1.63678 3.67297 1.65194 3.66541 1.6671 3.65029C1.67468 3.64272 1.71259 3.61247 1.68226 3.63516C1.65952 3.65028 1.72775 3.61248 1.74291 3.60492C1.69742 3.6276 1.75049 3.60492 1.77323 3.60492C1.8263 3.5898 1.73533 3.60492 1.80355 3.60492C1.84146 3.60492 1.87178 3.60492 1.90968 3.60492C2.14469 3.60492 2.37969 3.60492 2.60711 3.60492C3.02405 3.60492 3.44099 3.60492 3.85792 3.60492C4.41131 3.60492 4.96471 3.60492 5.5181 3.60492C6.16246 3.60492 6.8144 3.60492 7.45876 3.60492C8.15618 3.60492 8.8536 3.60492 9.55861 3.60492C10.256 3.60492 10.961 3.60492 11.6585 3.60492C12.318 3.60492 12.9775 3.60492 13.637 3.60492C14.2132 3.60492 14.7893 3.60492 15.3654 3.60492C15.8127 3.60492 16.2599 3.60492 16.7072 3.60492C16.9801 3.60492 17.2606 3.60492 17.5335 3.60492C17.5942 3.60492 17.6472 3.60492 17.7079 3.60492C17.7154 3.60492 17.723 3.60492 17.7306 3.60492C17.7382 3.60492 17.7533 3.60492 17.7458 3.60492C17.7837 3.60492 17.7382 3.60491 17.7306 3.59735C17.7458 3.59735 17.7609 3.60492 17.7837 3.60492C17.8292 3.61248 17.7685 3.58979 17.8064 3.61248C17.8216 3.62004 17.8367 3.6276 17.8519 3.63516C17.8519 3.63516 17.814 3.60491 17.8443 3.6276C17.8671 3.64272 17.8822 3.66541 17.8974 3.68053C17.9277 3.71078 17.8746 3.64273 17.8974 3.68053C17.905 3.6881 17.9125 3.70321 17.9125 3.71077C17.9353 3.75614 17.9125 3.68809 17.9201 3.73346C17.905 3.74102 17.9125 3.75614 17.9125 3.77883ZM17.9125 3.77883C17.9125 3.7637 17.9125 3.71834 17.9125 3.77883ZM17.9125 3.77883C17.9201 3.93006 18.0414 4.07373 18.2006 4.06617C18.3522 4.05861 18.4963 3.93762 18.4887 3.77883C18.4735 3.34026 18.1324 3.00756 17.6927 3C17.6396 3 17.5866 3 17.5411 3C17.2758 3 17.0104 3 16.7375 3C16.2903 3 15.8506 3 15.4033 3C14.8196 3 14.2435 3 13.6598 3C12.9927 3 12.3331 3 11.666 3C10.961 3 10.256 3 9.54345 3C8.83844 3 8.13344 3 7.42843 3C6.77649 3 6.12455 3 5.47261 3C4.91164 3 4.35067 3 3.79728 3C3.38034 3 2.97098 3 2.55404 3C2.32662 3 2.0992 3 1.87178 3C1.83388 3 1.79597 3 1.75807 3C1.32597 3.02268 1.00758 3.37051 1 3.79396C1 3.99812 1 4.20227 1 4.40643C1 4.85256 1 5.29113 1 5.73725C1 6.34217 1 6.94709 1 7.55201C1 8.24011 1 8.93576 1 9.62386C1 10.3271 1 11.0379 1 11.7411C1 12.3762 1 13.019 1 13.6541C1 14.1532 1 14.6522 1 15.1513C1 15.4386 1 15.7184 1 16.0058C1 16.0587 1 16.1116 1 16.1721C1.0379 16.588 1.37145 16.898 1.79597 16.898C1.96275 16.898 2.12194 16.898 2.28872 16.898C2.65259 16.898 3.02405 16.898 3.38792 16.898C3.91099 16.898 4.42648 16.898 4.94954 16.898C5.57874 16.898 6.21552 16.898 6.84472 16.898C7.53456 16.898 8.23199 16.898 8.92183 16.898C9.63442 16.898 10.3394 16.898 11.052 16.898C11.7343 16.898 12.4241 16.898 13.1064 16.898C13.7128 16.898 14.3269 16.898 14.9333 16.898C15.4261 16.898 15.9188 16.898 16.404 16.898C16.73 16.898 17.0483 16.898 17.3743 16.898C17.5335 16.898 17.6927 16.9056 17.8443 16.8829C18.2309 16.83 18.4887 16.4746 18.4963 16.0965C18.4963 16.0284 18.4963 15.9528 18.4963 15.8848C18.4963 15.5521 18.4963 15.2118 18.4963 14.8791C18.4963 14.3422 18.4963 13.8054 18.4963 13.2685C18.4963 12.6106 18.4963 11.9528 18.4963 11.2949C18.4963 10.5917 18.4963 9.88095 18.4963 9.17773C18.4963 8.4972 18.4963 7.81666 18.4963 7.12857C18.4963 6.5539 18.4963 5.97922 18.4963 5.40455C18.4963 5.01135 18.4963 4.61059 18.4963 4.2174C18.4963 4.07373 18.4963 3.93006 18.4963 3.79396C18.4963 3.64273 18.3598 3.49905 18.2082 3.50662C18.0414 3.49149 17.9125 3.61247 17.9125 3.77883Z"/>
<path d="M17.9128 5.39696C17.9128 5.69942 17.9128 6.00188 17.9128 6.30434C17.9128 7.02268 17.9128 7.74858 17.9128 8.46692C17.9128 9.34405 17.9128 10.2212 17.9128 11.1059C17.9128 11.862 17.9128 12.6182 17.9128 13.3743C17.9128 13.7373 17.8901 14.1154 17.9128 14.4783C17.9128 14.4859 17.9128 14.4859 17.9128 14.4934C18.0114 14.3951 18.1099 14.2968 18.2009 14.2061C17.6854 14.2061 17.1775 14.2061 16.662 14.2061C16.7302 14.2363 16.7984 14.2666 16.8667 14.2893C16.4801 13.9036 16.0859 13.5104 15.6992 13.1248C15.7296 13.1928 15.7599 13.2609 15.7826 13.329C15.7826 13.0643 15.7826 12.7997 15.7826 12.535C15.7826 11.8998 15.7826 11.2722 15.7826 10.6371C15.7826 9.87336 15.7826 9.10965 15.7826 8.3535C15.7826 7.69565 15.7826 7.03024 15.7826 6.37239C15.7826 6.05481 15.8054 5.72966 15.7826 5.41208C15.7826 5.40452 15.7826 5.40452 15.7826 5.39696C15.6841 5.49526 15.5855 5.59356 15.4946 5.6843C16.283 5.6843 17.0789 5.6843 17.8673 5.6843C17.981 5.6843 18.0947 5.6843 18.2009 5.6843C18.3525 5.6843 18.4965 5.54819 18.4889 5.39696C18.4814 5.23817 18.3601 5.10962 18.2009 5.10962C17.4125 5.10962 16.6165 5.10962 15.8281 5.10962C15.7144 5.10962 15.6007 5.10962 15.4946 5.10962C15.3354 5.10962 15.2065 5.24573 15.2065 5.39696C15.2065 5.88846 15.2065 6.37995 15.2065 6.87901C15.2065 7.91493 15.2065 8.95085 15.2065 9.98678C15.2065 10.8942 15.2065 11.8015 15.2065 12.7089C15.2065 12.9055 15.1989 13.1097 15.2065 13.3063C15.2065 13.3138 15.2065 13.329 15.2065 13.3365C15.2141 13.4575 15.2747 13.5256 15.3581 13.6012C15.5173 13.76 15.6689 13.9112 15.8281 14.07C16.0025 14.2439 16.1692 14.4103 16.3436 14.5842C16.3815 14.622 16.4194 14.6673 16.4649 14.7051C16.5483 14.7732 16.6317 14.7959 16.7378 14.7959C17.1851 14.7959 17.6399 14.7959 18.0872 14.7959C18.1326 14.7959 18.1705 14.7959 18.216 14.7959C18.3752 14.7959 18.5041 14.6598 18.5041 14.5086C18.5041 14.2061 18.5041 13.9036 18.5041 13.6012C18.5041 12.8828 18.5041 12.1569 18.5041 11.4386C18.5041 10.5615 18.5041 9.68432 18.5041 8.79963C18.5041 8.04348 18.5041 7.28733 18.5041 6.53118C18.5041 6.16067 18.5117 5.79772 18.5041 5.42721C18.5041 5.41965 18.5041 5.41964 18.5041 5.41208C18.5041 5.26085 18.3676 5.11719 18.216 5.12475C18.0417 5.10962 17.9128 5.23061 17.9128 5.39696Z"/>
<path d="M17.9128 5.39696C17.9128 5.69942 17.9128 6.00188 17.9128 6.30434C17.9128 7.02268 17.9128 7.74858 17.9128 8.46692C17.9128 9.34405 17.9128 10.2212 17.9128 11.1059C17.9128 11.862 17.9128 12.6182 17.9128 13.3743C17.9128 13.7373 17.8901 14.1154 17.9128 14.4783C17.9128 14.4859 17.9128 14.4859 17.9128 14.4934C18.0114 14.3951 18.1099 14.2968 18.2009 14.2061C17.6854 14.2061 17.1775 14.2061 16.662 14.2061C16.7302 14.2363 16.7984 14.2666 16.8667 14.2893C16.4801 13.9036 16.0859 13.5104 15.6992 13.1248C15.7296 13.1928 15.7599 13.2609 15.7826 13.329C15.7826 13.0643 15.7826 12.7997 15.7826 12.535C15.7826 11.8998 15.7826 11.2722 15.7826 10.6371C15.7826 9.87336 15.7826 9.10965 15.7826 8.3535C15.7826 7.69565 15.7826 7.03024 15.7826 6.37239C15.7826 6.05481 15.8054 5.72966 15.7826 5.41208C15.7826 5.40452 15.7826 5.40452 15.7826 5.39696C15.6841 5.49526 15.5855 5.59356 15.4946 5.6843C16.283 5.6843 17.0789 5.6843 17.8673 5.6843C17.981 5.6843 18.0947 5.6843 18.2009 5.6843C18.3525 5.6843 18.4965 5.54819 18.4889 5.39696C18.4814 5.23817 18.3601 5.10962 18.2009 5.10962C17.4125 5.10962 16.6165 5.10962 15.8281 5.10962C15.7144 5.10962 15.6007 5.10962 15.4946 5.10962C15.3354 5.10962 15.2065 5.24573 15.2065 5.39696C15.2065 5.88846 15.2065 6.37995 15.2065 6.87901C15.2065 7.91493 15.2065 8.95085 15.2065 9.98678C15.2065 10.8942 15.2065 11.8015 15.2065 12.7089C15.2065 12.9055 15.1989 13.1097 15.2065 13.3063C15.2065 13.3138 15.2065 13.329 15.2065 13.3365C15.2141 13.4575 15.2747 13.5256 15.3581 13.6012C15.5173 13.76 15.6689 13.9112 15.8281 14.07C16.0025 14.2439 16.1692 14.4103 16.3436 14.5842C16.3815 14.622 16.4194 14.6673 16.4649 14.7051C16.5483 14.7732 16.6317 14.7959 16.7378 14.7959C17.1851 14.7959 17.6399 14.7959 18.0872 14.7959C18.1326 14.7959 18.1705 14.7959 18.216 14.7959C18.3752 14.7959 18.5041 14.6598 18.5041 14.5086C18.5041 14.2061 18.5041 13.9036 18.5041 13.6012C18.5041 12.8828 18.5041 12.1569 18.5041 11.4386C18.5041 10.5615 18.5041 9.68432 18.5041 8.79963C18.5041 8.04348 18.5041 7.28733 18.5041 6.53118C18.5041 6.16067 18.5117 5.79772 18.5041 5.42721C18.5041 5.41965 18.5041 5.41964 18.5041 5.41208C18.5041 5.26085 18.3676 5.11719 18.216 5.12475C18.0417 5.10962 17.9128 5.23061 17.9128 5.39696Z"/>
<path d="M17.9128 5.39696C17.9128 5.69942 17.9128 6.00188 17.9128 6.30434C17.9128 7.02268 17.9128 7.74858 17.9128 8.46692C17.9128 9.34405 17.9128 10.2212 17.9128 11.1059C17.9128 11.862 17.9128 12.6182 17.9128 13.3743C17.9128 13.7373 17.8901 14.1154 17.9128 14.4783C17.9128 14.4859 17.9128 14.4859 17.9128 14.4934C18.0114 14.3951 18.1099 14.2968 18.2009 14.2061C17.6854 14.2061 17.1775 14.2061 16.662 14.2061C16.7302 14.2363 16.7984 14.2666 16.8667 14.2893C16.4801 13.9036 16.0859 13.5104 15.6992 13.1248C15.7296 13.1928 15.7599 13.2609 15.7826 13.329C15.7826 13.0643 15.7826 12.7997 15.7826 12.535C15.7826 11.8998 15.7826 11.2722 15.7826 10.6371C15.7826 9.87336 15.7826 9.10965 15.7826 8.3535C15.7826 7.69565 15.7826 7.03024 15.7826 6.37239C15.7826 6.05481 15.8054 5.72966 15.7826 5.41208C15.7826 5.40452 15.7826 5.40452 15.7826 5.39696C15.6841 5.49526 15.5855 5.59356 15.4946 5.6843C16.283 5.6843 17.0789 5.6843 17.8673 5.6843C17.981 5.6843 18.0947 5.6843 18.2009 5.6843C18.3525 5.6843 18.4965 5.54819 18.4889 5.39696C18.4814 5.23817 18.3601 5.10962 18.2009 5.10962C17.4125 5.10962 16.6165 5.10962 15.8281 5.10962C15.7144 5.10962 15.6007 5.10962 15.4946 5.10962C15.3354 5.10962 15.2065 5.24573 15.2065 5.39696C15.2065 5.88846 15.2065 6.37995 15.2065 6.87901C15.2065 7.91493 15.2065 8.95085 15.2065 9.98678C15.2065 10.8942 15.2065 11.8015 15.2065 12.7089C15.2065 12.9055 15.1989 13.1097 15.2065 13.3063C15.2065 13.3138 15.2065 13.329 15.2065 13.3365C15.2141 13.4575 15.2747 13.5256 15.3581 13.6012C15.5173 13.76 15.6689 13.9112 15.8281 14.07C16.0025 14.2439 16.1692 14.4103 16.3436 14.5842C16.3815 14.622 16.4194 14.6673 16.4649 14.7051C16.5483 14.7732 16.6317 14.7959 16.7378 14.7959C17.1851 14.7959 17.6399 14.7959 18.0872 14.7959C18.1326 14.7959 18.1705 14.7959 18.216 14.7959C18.3752 14.7959 18.5041 14.6598 18.5041 14.5086C18.5041 14.2061 18.5041 13.9036 18.5041 13.6012C18.5041 12.8828 18.5041 12.1569 18.5041 11.4386C18.5041 10.5615 18.5041 9.68432 18.5041 8.79963C18.5041 8.04348 18.5041 7.28733 18.5041 6.53118C18.5041 6.16067 18.5117 5.79772 18.5041 5.42721C18.5041 5.41965 18.5041 5.41964 18.5041 5.41208C18.5041 5.26085 18.3676 5.11719 18.216 5.12475C18.0417 5.10962 17.9128 5.23061 17.9128 5.39696Z"/>
<path d="M12.4177 14.2062C12.1221 14.2062 11.8264 14.2062 11.5308 14.2062C10.8258 14.2062 10.1132 14.2062 9.4082 14.2062C8.55158 14.2062 7.69496 14.2062 6.83834 14.2062C6.09544 14.2062 5.35253 14.2062 4.60962 14.2062C4.25333 14.2062 3.88945 14.1835 3.53316 14.2062C3.52558 14.2062 3.52558 14.2062 3.518 14.2062C3.61655 14.3045 3.7151 14.4028 3.80607 14.4935C3.80607 14.191 3.80607 13.8886 3.80607 13.5861C3.80607 12.8678 3.80607 12.1419 3.80607 11.4235C3.80607 10.5464 3.80607 9.66927 3.80607 8.78457C3.80607 8.02842 3.80607 7.27228 3.80607 6.51613C3.80607 6.15318 3.82881 5.77509 3.80607 5.41214C3.80607 5.40458 3.80607 5.40459 3.80607 5.39702C3.70752 5.49532 3.60897 5.59363 3.518 5.68436C3.81365 5.68436 4.10929 5.68436 4.40494 5.68436C5.10995 5.68436 5.82253 5.68436 6.52754 5.68436C7.38416 5.68436 8.24077 5.68436 9.09739 5.68436C9.8403 5.68436 10.5832 5.68436 11.3261 5.68436C11.6824 5.68436 12.0463 5.70705 12.4026 5.68436C12.4102 5.68436 12.4102 5.68436 12.4177 5.68436C12.3192 5.58606 12.2206 5.48776 12.1297 5.39702C12.1297 5.69948 12.1297 6.00194 12.1297 6.3044C12.1297 7.02274 12.1297 7.74864 12.1297 8.46699C12.1297 9.34412 12.1297 10.2213 12.1297 11.1059C12.1297 11.8621 12.1297 12.6182 12.1297 13.3744C12.1297 13.7449 12.1221 14.1079 12.1297 14.4784C12.1297 14.4859 12.1297 14.4859 12.1297 14.4935C12.1297 14.6447 12.2661 14.7884 12.4177 14.7808C12.5769 14.7733 12.7058 14.6523 12.7058 14.4935C12.7058 14.191 12.7058 13.8886 12.7058 13.5861C12.7058 12.8678 12.7058 12.1419 12.7058 11.4235C12.7058 10.5464 12.7058 9.66927 12.7058 8.78457C12.7058 8.02842 12.7058 7.27228 12.7058 6.51613C12.7058 6.14561 12.7134 5.78266 12.7058 5.41214C12.7058 5.40458 12.7058 5.40459 12.7058 5.39702C12.7058 5.23823 12.5694 5.10968 12.4177 5.10968C12.1221 5.10968 11.8264 5.10968 11.5308 5.10968C10.8258 5.10968 10.1132 5.10968 9.4082 5.10968C8.55158 5.10968 7.69496 5.10968 6.83834 5.10968C6.09544 5.10968 5.35253 5.10968 4.60962 5.10968C4.25333 5.10968 3.88945 5.10212 3.53316 5.10968C3.52558 5.10968 3.52558 5.10968 3.518 5.10968C3.3588 5.10968 3.22993 5.24579 3.22993 5.39702C3.22993 5.69948 3.22993 6.00194 3.22993 6.3044C3.22993 7.02274 3.22993 7.74864 3.22993 8.46699C3.22993 9.34412 3.22993 10.2213 3.22993 11.1059C3.22993 11.8621 3.22993 12.6182 3.22993 13.3744C3.22993 13.7449 3.22235 14.1079 3.22993 14.4784C3.22993 14.4859 3.22993 14.4859 3.22993 14.4935C3.22993 14.6523 3.36638 14.7808 3.518 14.7808C3.81365 14.7808 4.10929 14.7808 4.40494 14.7808C5.10995 14.7808 5.82253 14.7808 6.52754 14.7808C7.38416 14.7808 8.24077 14.7808 9.09739 14.7808C9.8403 14.7808 10.5832 14.7808 11.3261 14.7808C11.6824 14.7808 12.0463 14.7884 12.4026 14.7808C12.4102 14.7808 12.4102 14.7808 12.4177 14.7808C12.5694 14.7808 12.7134 14.6447 12.7058 14.4935C12.7058 14.3347 12.5845 14.2062 12.4177 14.2062Z"/>
<path d="M12.4177 14.2062C12.1221 14.2062 11.8264 14.2062 11.5308 14.2062C10.8258 14.2062 10.1132 14.2062 9.4082 14.2062C8.55158 14.2062 7.69496 14.2062 6.83834 14.2062C6.09544 14.2062 5.35253 14.2062 4.60962 14.2062C4.25333 14.2062 3.88945 14.1835 3.53316 14.2062C3.52558 14.2062 3.52558 14.2062 3.518 14.2062C3.61655 14.3045 3.7151 14.4028 3.80607 14.4935C3.80607 14.191 3.80607 13.8886 3.80607 13.5861C3.80607 12.8678 3.80607 12.1419 3.80607 11.4235C3.80607 10.5464 3.80607 9.66927 3.80607 8.78457C3.80607 8.02842 3.80607 7.27228 3.80607 6.51613C3.80607 6.15318 3.82881 5.77509 3.80607 5.41214C3.80607 5.40458 3.80607 5.40459 3.80607 5.39702C3.70752 5.49532 3.60897 5.59363 3.518 5.68436C3.81365 5.68436 4.10929 5.68436 4.40494 5.68436C5.10995 5.68436 5.82253 5.68436 6.52754 5.68436C7.38416 5.68436 8.24077 5.68436 9.09739 5.68436C9.8403 5.68436 10.5832 5.68436 11.3261 5.68436C11.6824 5.68436 12.0463 5.70705 12.4026 5.68436C12.4102 5.68436 12.4102 5.68436 12.4177 5.68436C12.3192 5.58606 12.2206 5.48776 12.1297 5.39702C12.1297 5.69948 12.1297 6.00194 12.1297 6.3044C12.1297 7.02274 12.1297 7.74864 12.1297 8.46699C12.1297 9.34412 12.1297 10.2213 12.1297 11.1059C12.1297 11.8621 12.1297 12.6182 12.1297 13.3744C12.1297 13.7449 12.1221 14.1079 12.1297 14.4784C12.1297 14.4859 12.1297 14.4859 12.1297 14.4935C12.1297 14.6447 12.2661 14.7884 12.4177 14.7808C12.5769 14.7733 12.7058 14.6523 12.7058 14.4935C12.7058 14.191 12.7058 13.8886 12.7058 13.5861C12.7058 12.8678 12.7058 12.1419 12.7058 11.4235C12.7058 10.5464 12.7058 9.66927 12.7058 8.78457C12.7058 8.02842 12.7058 7.27228 12.7058 6.51613C12.7058 6.14561 12.7134 5.78266 12.7058 5.41214C12.7058 5.40458 12.7058 5.40459 12.7058 5.39702C12.7058 5.23823 12.5694 5.10968 12.4177 5.10968C12.1221 5.10968 11.8264 5.10968 11.5308 5.10968C10.8258 5.10968 10.1132 5.10968 9.4082 5.10968C8.55158 5.10968 7.69496 5.10968 6.83834 5.10968C6.09544 5.10968 5.35253 5.10968 4.60962 5.10968C4.25333 5.10968 3.88945 5.10212 3.53316 5.10968C3.52558 5.10968 3.52558 5.10968 3.518 5.10968C3.3588 5.10968 3.22993 5.24579 3.22993 5.39702C3.22993 5.69948 3.22993 6.00194 3.22993 6.3044C3.22993 7.02274 3.22993 7.74864 3.22993 8.46699C3.22993 9.34412 3.22993 10.2213 3.22993 11.1059C3.22993 11.8621 3.22993 12.6182 3.22993 13.3744C3.22993 13.7449 3.22235 14.1079 3.22993 14.4784C3.22993 14.4859 3.22993 14.4859 3.22993 14.4935C3.22993 14.6523 3.36638 14.7808 3.518 14.7808C3.81365 14.7808 4.10929 14.7808 4.40494 14.7808C5.10995 14.7808 5.82253 14.7808 6.52754 14.7808C7.38416 14.7808 8.24077 14.7808 9.09739 14.7808C9.8403 14.7808 10.5832 14.7808 11.3261 14.7808C11.6824 14.7808 12.0463 14.7884 12.4026 14.7808C12.4102 14.7808 12.4102 14.7808 12.4177 14.7808C12.5694 14.7808 12.7134 14.6447 12.7058 14.4935C12.7058 14.3347 12.5845 14.2062 12.4177 14.2062Z"/>
<path d="M12.4177 14.2062C12.1221 14.2062 11.8264 14.2062 11.5308 14.2062C10.8258 14.2062 10.1132 14.2062 9.4082 14.2062C8.55158 14.2062 7.69496 14.2062 6.83834 14.2062C6.09544 14.2062 5.35253 14.2062 4.60962 14.2062C4.25333 14.2062 3.88945 14.1835 3.53316 14.2062C3.52558 14.2062 3.52558 14.2062 3.518 14.2062C3.61655 14.3045 3.7151 14.4028 3.80607 14.4935C3.80607 14.191 3.80607 13.8886 3.80607 13.5861C3.80607 12.8678 3.80607 12.1419 3.80607 11.4235C3.80607 10.5464 3.80607 9.66927 3.80607 8.78457C3.80607 8.02842 3.80607 7.27228 3.80607 6.51613C3.80607 6.15318 3.82881 5.77509 3.80607 5.41214C3.80607 5.40458 3.80607 5.40459 3.80607 5.39702C3.70752 5.49532 3.60897 5.59363 3.518 5.68436C3.81365 5.68436 4.10929 5.68436 4.40494 5.68436C5.10995 5.68436 5.82253 5.68436 6.52754 5.68436C7.38416 5.68436 8.24077 5.68436 9.09739 5.68436C9.8403 5.68436 10.5832 5.68436 11.3261 5.68436C11.6824 5.68436 12.0463 5.70705 12.4026 5.68436C12.4102 5.68436 12.4102 5.68436 12.4177 5.68436C12.3192 5.58606 12.2206 5.48776 12.1297 5.39702C12.1297 5.69948 12.1297 6.00194 12.1297 6.3044C12.1297 7.02274 12.1297 7.74864 12.1297 8.46699C12.1297 9.34412 12.1297 10.2213 12.1297 11.1059C12.1297 11.8621 12.1297 12.6182 12.1297 13.3744C12.1297 13.7449 12.1221 14.1079 12.1297 14.4784C12.1297 14.4859 12.1297 14.4859 12.1297 14.4935C12.1297 14.6447 12.2661 14.7884 12.4177 14.7808C12.5769 14.7733 12.7058 14.6523 12.7058 14.4935C12.7058 14.191 12.7058 13.8886 12.7058 13.5861C12.7058 12.8678 12.7058 12.1419 12.7058 11.4235C12.7058 10.5464 12.7058 9.66927 12.7058 8.78457C12.7058 8.02842 12.7058 7.27228 12.7058 6.51613C12.7058 6.14561 12.7134 5.78266 12.7058 5.41214C12.7058 5.40458 12.7058 5.40459 12.7058 5.39702C12.7058 5.23823 12.5694 5.10968 12.4177 5.10968C12.1221 5.10968 11.8264 5.10968 11.5308 5.10968C10.8258 5.10968 10.1132 5.10968 9.4082 5.10968C8.55158 5.10968 7.69496 5.10968 6.83834 5.10968C6.09544 5.10968 5.35253 5.10968 4.60962 5.10968C4.25333 5.10968 3.88945 5.10212 3.53316 5.10968C3.52558 5.10968 3.52558 5.10968 3.518 5.10968C3.3588 5.10968 3.22993 5.24579 3.22993 5.39702C3.22993 5.69948 3.22993 6.00194 3.22993 6.3044C3.22993 7.02274 3.22993 7.74864 3.22993 8.46699C3.22993 9.34412 3.22993 10.2213 3.22993 11.1059C3.22993 11.8621 3.22993 12.6182 3.22993 13.3744C3.22993 13.7449 3.22235 14.1079 3.22993 14.4784C3.22993 14.4859 3.22993 14.4859 3.22993 14.4935C3.22993 14.6523 3.36638 14.7808 3.518 14.7808C3.81365 14.7808 4.10929 14.7808 4.40494 14.7808C5.10995 14.7808 5.82253 14.7808 6.52754 14.7808C7.38416 14.7808 8.24077 14.7808 9.09739 14.7808C9.8403 14.7808 10.5832 14.7808 11.3261 14.7808C11.6824 14.7808 12.0463 14.7884 12.4026 14.7808C12.4102 14.7808 12.4102 14.7808 12.4177 14.7808C12.5694 14.7808 12.7134 14.6447 12.7058 14.4935C12.7058 14.3347 12.5845 14.2062 12.4177 14.2062Z"/>
<path d="M18.2023 8.7467C17.7323 8.7467 17.2623 8.7467 16.7923 8.7467C16.6406 8.7467 16.4966 8.88281 16.5042 9.03404C16.5118 9.19283 16.6331 9.32138 16.7923 9.32138C17.2623 9.32138 17.7323 9.32138 18.2023 9.32138C18.3539 9.32138 18.4979 9.18526 18.4903 9.03404C18.4903 8.87524 18.369 8.7467 18.2023 8.7467Z"/>
<path d="M18.2023 8.7467C17.7323 8.7467 17.2623 8.7467 16.7923 8.7467C16.6406 8.7467 16.4966 8.88281 16.5042 9.03404C16.5118 9.19283 16.6331 9.32138 16.7923 9.32138C17.2623 9.32138 17.7323 9.32138 18.2023 9.32138C18.3539 9.32138 18.4979 9.18526 18.4903 9.03404C18.4903 8.87524 18.369 8.7467 18.2023 8.7467Z"/>
<path d="M18.2023 8.7467C17.7323 8.7467 17.2623 8.7467 16.7923 8.7467C16.6406 8.7467 16.4966 8.88281 16.5042 9.03404C16.5118 9.19283 16.6331 9.32138 16.7923 9.32138C17.2623 9.32138 17.7323 9.32138 18.2023 9.32138C18.3539 9.32138 18.4979 9.18526 18.4903 9.03404C18.4903 8.87524 18.369 8.7467 18.2023 8.7467Z"/>
<path d="M16.7923 12.966C17.2623 12.966 17.7323 12.966 18.2023 12.966C18.3539 12.966 18.4979 12.8299 18.4903 12.6787C18.4828 12.5199 18.3615 12.3914 18.2023 12.3914C17.7323 12.3914 17.2623 12.3914 16.7923 12.3914C16.6406 12.3914 16.4966 12.5275 16.5042 12.6787C16.5118 12.8299 16.6331 12.966 16.7923 12.966Z"/>
<path d="M16.7923 12.966C17.2623 12.966 17.7323 12.966 18.2023 12.966C18.3539 12.966 18.4979 12.8299 18.4903 12.6787C18.4828 12.5199 18.3615 12.3914 18.2023 12.3914C17.7323 12.3914 17.2623 12.3914 16.7923 12.3914C16.6406 12.3914 16.4966 12.5275 16.5042 12.6787C16.5118 12.8299 16.6331 12.966 16.7923 12.966Z"/>
<path d="M16.7923 12.966C17.2623 12.966 17.7323 12.966 18.2023 12.966C18.3539 12.966 18.4979 12.8299 18.4903 12.6787C18.4828 12.5199 18.3615 12.3914 18.2023 12.3914C17.7323 12.3914 17.2623 12.3914 16.7923 12.3914C16.6406 12.3914 16.4966 12.5275 16.5042 12.6787C16.5118 12.8299 16.6331 12.966 16.7923 12.966Z"/>
<path d="M18.2023 10.5615C17.7323 10.5615 17.2623 10.5615 16.7923 10.5615C16.6406 10.5615 16.4966 10.6976 16.5042 10.8489C16.5118 11.0076 16.6331 11.1362 16.7923 11.1362C17.2623 11.1362 17.7323 11.1362 18.2023 11.1362C18.3539 11.1362 18.4979 11.0001 18.4903 10.8489C18.4903 10.6976 18.369 10.5615 18.2023 10.5615Z"/>
<path d="M18.2023 10.5615C17.7323 10.5615 17.2623 10.5615 16.7923 10.5615C16.6406 10.5615 16.4966 10.6976 16.5042 10.8489C16.5118 11.0076 16.6331 11.1362 16.7923 11.1362C17.2623 11.1362 17.7323 11.1362 18.2023 11.1362C18.3539 11.1362 18.4979 11.0001 18.4903 10.8489C18.4903 10.6976 18.369 10.5615 18.2023 10.5615Z"/>
<path d="M18.2023 10.5615C17.7323 10.5615 17.2623 10.5615 16.7923 10.5615C16.6406 10.5615 16.4966 10.6976 16.5042 10.8489C16.5118 11.0076 16.6331 11.1362 16.7923 11.1362C17.2623 11.1362 17.7323 11.1362 18.2023 11.1362C18.3539 11.1362 18.4979 11.0001 18.4903 10.8489C18.4903 10.6976 18.369 10.5615 18.2023 10.5615Z"/>
<path d="M16.7923 7.50668C17.2623 7.50668 17.7323 7.50668 18.2023 7.50668C18.3539 7.50668 18.4979 7.37057 18.4903 7.21934C18.4828 7.06055 18.3615 6.93201 18.2023 6.93201C17.7323 6.93201 17.2623 6.93201 16.7923 6.93201C16.6406 6.93201 16.4966 7.06811 16.5042 7.21934C16.5118 7.37057 16.6331 7.50668 16.7923 7.50668Z"/>
<path d="M16.7923 7.50668C17.2623 7.50668 17.7323 7.50668 18.2023 7.50668C18.3539 7.50668 18.4979 7.37057 18.4903 7.21934C18.4828 7.06055 18.3615 6.93201 18.2023 6.93201C17.7323 6.93201 17.2623 6.93201 16.7923 6.93201C16.6406 6.93201 16.4966 7.06811 16.5042 7.21934C16.5118 7.37057 16.6331 7.50668 16.7923 7.50668Z"/>
<path d="M16.7923 7.50668C17.2623 7.50668 17.7323 7.50668 18.2023 7.50668C18.3539 7.50668 18.4979 7.37057 18.4903 7.21934C18.4828 7.06055 18.3615 6.93201 18.2023 6.93201C17.7323 6.93201 17.2623 6.93201 16.7923 6.93201C16.6406 6.93201 16.4966 7.06811 16.5042 7.21934C16.5118 7.37057 16.6331 7.50668 16.7923 7.50668Z"/>
</svg>
