<svg width="24" height="24" viewBox="0 0 24 24" fill="none" xmlns="http://www.w3.org/2000/svg">
<g clip-path="url(#clip0_68_19220)">
<g clip-path="url(#clip1_68_19220)">
<path d="M13.162 17.994C13.771 17.994 14.02 17.588 14.013 17.079C13.982 15.162 14.727 14.13 16.072 15.475C17.56 16.963 17.868 17.994 19.675 17.994H22.875C23.683 17.994 24.001 17.734 24.001 17.326C24.001 16.463 22.58 14.94 21.376 13.822C19.69 12.257 19.611 12.22 21.063 10.336C22.864 7.997 25.22 5 23.136 5H19.155C18.383 5 18.327 5.435 18.052 6.083C17.057 8.43 15.166 11.47 14.448 11.005C13.697 10.52 14.041 8.599 14.098 5.744C14.113 4.99 14.109 4.473 12.957 4.205C12.328 4.06 11.716 4 11.148 4C8.875 4 7.307 4.953 8.198 5.119C9.769 5.412 9.618 8.811 9.252 10.279C8.614 12.835 6.216 8.255 5.217 5.974C4.976 5.426 4.902 5 4.042 5H0.787C0.295 5 0 5.16 0 5.516C0 6.118 2.96 12.236 5.786 15.286C8.542 18.261 11.266 17.994 13.162 17.994Z" fill="white"/>
</g>
</g>
<defs>
<clipPath id="clip0_68_19220">
<rect width="24" height="24" fill="white"/>
</clipPath>
<clipPath id="clip1_68_19220">
<rect width="24" height="24" fill="white" transform="translate(0 -1)"/>
</clipPath>
</defs>
</svg>
