<svg width="32" height="33" viewBox="0 0 32 33" fill="none" xmlns="http://www.w3.org/2000/svg">
<g clip-path="url(#clip0_312_16476)">
<path fill-rule="evenodd" clip-rule="evenodd" d="M28.9706 20.0211C29.7808 20.0211 30.4399 20.6803 30.4399 21.4906C30.4399 22.3008 29.7808 22.96 28.9707 22.96H28.9361C29.0461 23.1884 29.1079 23.4444 29.1079 23.7145V30.7562C29.1079 31.7178 28.3256 32.5 27.364 32.5H25.7417C24.7801 32.5 23.998 31.7177 23.998 30.7562V29.2654L8.00242 29.3229V30.7561C8.00242 31.7177 7.22005 32.4999 6.25849 32.4999H4.63624C3.67462 32.4999 2.89237 31.7177 2.89237 30.7561V23.7145C2.89237 23.4444 2.95418 23.1884 3.06424 22.96H3.02949C2.21924 22.96 1.56006 22.3008 1.56006 21.4905C1.56006 20.6803 2.21924 20.0211 3.02949 20.0211H7.73799C8.80348 20.0211 9.67029 20.888 9.67029 21.9534V25.1383L10.7073 25.1345C11.3472 25.1322 11.9418 24.7855 12.2591 24.2299L13.4521 22.1407C13.6897 21.7246 14.0133 21.3846 14.394 21.1354V3.84899H13.802C13.6557 4.20806 13.3034 4.46212 12.8924 4.46212H7.33655C6.79486 4.46212 6.35424 4.02149 6.35424 3.47987V1.48225C6.35424 0.940624 6.79492 0.5 7.33655 0.5H12.8924C13.3035 0.5 13.6559 0.754062 13.8022 1.11319H18.198C18.3442 0.754062 18.6967 0.5 19.1077 0.5H24.6635C25.205 0.5 25.6457 0.940624 25.6458 1.48225V3.47981C25.6458 4.02143 25.2051 4.46205 24.6634 4.46205H19.1077C18.6967 4.46205 18.3442 4.20799 18.1979 3.84893H17.606V12H16.6168V3.84893H15.3833V20.7258C15.5828 20.684 15.789 20.6615 16 20.6615C16.211 20.6615 16.4172 20.684 16.6168 20.7258V14H17.606V21.1356C17.9866 21.3847 18.3102 21.7246 18.5478 22.1408L19.7194 24.1926C20.0381 24.7506 20.6346 25.0966 21.2773 25.0966H21.2838L22.3296 25.0929V21.9535C22.3296 20.888 23.1965 20.0211 24.262 20.0211H28.9706ZM24.6565 1.48931H19.1147V3.47274H24.6565V1.48931ZM7.34367 3.47274H12.8854V1.48931H7.34367V3.47274ZM13.8747 2.10243V2.85968H18.1253V2.10243H13.8747ZM4.63618 31.5106H6.25836C6.67449 31.5106 7.01305 31.1723 7.01299 30.7561H7.01286V30.4331L6.69842 30.0821L5.81568 31.0674C5.72186 31.1723 5.58786 31.2321 5.44724 31.2321C5.30661 31.2321 5.17268 31.1723 5.0788 31.0674L4.19605 30.0821L3.88162 30.4331V30.7561C3.88162 31.1721 4.22018 31.5106 4.63618 31.5106ZM5.07887 25.46L4.19612 24.4746L3.88162 24.8257V26.1561C3.96962 26.0835 4.08043 26.0424 4.19605 26.0424C4.33668 26.0424 4.47062 26.1023 4.56449 26.2071L5.44724 27.1924L6.33011 26.207C6.42392 26.1021 6.55792 26.0423 6.69855 26.0423C6.81417 26.0423 6.92486 26.0833 7.01292 26.156V24.8256L6.69849 24.4746L5.81574 25.46C5.72193 25.5648 5.58793 25.6246 5.4473 25.6246C5.30668 25.6246 5.17274 25.5648 5.07887 25.46ZM4.63612 22.96C4.38724 22.96 4.1668 23.0817 4.02924 23.2681C4.0823 23.2491 4.13855 23.2386 4.19605 23.2386C4.33668 23.2386 4.47062 23.2984 4.56449 23.4032L5.44724 24.3886L6.33005 23.4032C6.42386 23.2984 6.55786 23.2386 6.69849 23.2386C6.75599 23.2386 6.8123 23.2491 6.8653 23.2681C6.7278 23.0817 6.50736 22.96 6.25836 22.96H4.63612ZM5.07887 28.2637L4.19612 27.2783L3.88162 27.6293V28.9598C3.96962 28.8871 4.08043 28.8461 4.19605 28.8461C4.33668 28.8461 4.47062 28.9059 4.56449 29.0108L5.4473 29.9961L6.33011 29.0108C6.42392 28.9059 6.55792 28.8461 6.69855 28.8461C6.81417 28.8461 6.92486 28.8871 7.01292 28.9598V27.6293L6.69849 27.2783L5.81574 28.2637C5.72193 28.3685 5.58793 28.4283 5.4473 28.4283C5.30668 28.4283 5.17274 28.3685 5.07887 28.2637ZM3.02949 21.9707H6.25836C7.21999 21.9707 8.0023 22.753 8.0023 23.7146V25.1443L8.68111 25.1419V21.9535C8.68111 21.4335 8.25811 21.0105 7.73811 21.0105H3.02949C2.76474 21.0105 2.54937 21.2258 2.54937 21.4906C2.54937 21.7553 2.76474 21.9707 3.02949 21.9707ZM8.00223 26.1336V28.3336L15.5053 28.3067V21.7135C15.0053 21.8423 14.5773 22.1653 14.3112 22.6313L13.1182 24.7205C12.6259 25.5825 11.7035 26.1202 10.7109 26.1238L8.00223 26.1336ZM16.4947 21.7135V28.303L23.9977 28.2762V26.0762L21.2873 26.0858H21.2773C20.2801 26.0858 19.3548 25.549 18.8603 24.683L17.6888 22.6312C17.4227 22.1652 16.9947 21.8422 16.4947 21.7135ZM26.1843 25.4599L25.3015 24.4745L24.987 24.8254V26.156C25.075 26.0833 25.1858 26.0423 25.3015 26.0423C25.4421 26.0423 25.5761 26.1021 25.6699 26.2069L26.5527 27.1923L27.4355 26.2069C27.5294 26.1021 27.6633 26.0423 27.8039 26.0423C27.9195 26.0423 28.0304 26.0833 28.1184 26.156V24.8256L27.8039 24.4745L26.9211 25.4599C26.8273 25.5647 26.6933 25.6245 26.5527 25.6245C26.4121 25.6245 26.2781 25.5647 26.1843 25.4599ZM25.7415 22.96C25.4927 22.96 25.2722 23.0817 25.1347 23.2681C25.1878 23.2491 25.244 23.2386 25.3015 23.2386C25.4421 23.2386 25.5761 23.2984 25.6699 23.4032L26.5526 24.3886L27.4354 23.4032C27.5293 23.2984 27.6633 23.2386 27.8039 23.2386C27.8615 23.2386 27.9177 23.2491 27.9708 23.2681C27.8333 23.0817 27.6127 22.96 27.3638 22.96H25.7415ZM26.1843 28.2637L25.3015 27.2783L24.987 27.6293V28.9598C25.075 28.8871 25.1858 28.8461 25.3015 28.8461C25.4421 28.8461 25.5761 28.9059 25.6699 29.0108L26.5527 29.9961L27.4355 29.0108C27.5294 28.9059 27.6633 28.8461 27.8039 28.8461C27.9195 28.8461 28.0304 28.8872 28.1184 28.9599V27.6293L27.8039 27.2783L26.9211 28.2637C26.8273 28.3685 26.6933 28.4283 26.5527 28.4283C26.4121 28.4283 26.2781 28.3685 26.1843 28.2637ZM28.1184 30.7561H28.1185V30.4331L27.8041 30.0821L26.9213 31.0674C26.8275 31.1723 26.6935 31.2321 26.5528 31.2321C26.4122 31.2321 26.2782 31.1723 26.1844 31.0674L25.3016 30.0821L24.9871 30.433V30.7561C24.9871 31.1721 25.3256 31.5106 25.7416 31.5106H27.3639C27.7799 31.5106 28.1184 31.1723 28.1184 30.7561ZM25.7416 21.9707V21.9706V21.9706H28.9706C29.2353 21.9706 29.4506 21.7553 29.4506 21.4905C29.4506 21.2257 29.2353 21.0103 28.9706 21.0103H24.262C23.742 21.0103 23.319 21.4333 23.319 21.9533V25.0892L23.9978 25.0868V23.7145C23.9978 22.753 24.7801 21.9707 25.7416 21.9707Z"/>
</g>
<defs>
<clipPath id="clip0_312_16476">
<rect width="32" height="32" transform="translate(0 0.5)"/>
</clipPath>
</defs>
</svg>
