<svg width="32" height="33" viewBox="0 0 32 33" fill="none" xmlns="http://www.w3.org/2000/svg">
<g clip-path="url(#clip0)">
<path d="M22.0757 0.5H9.92693C8.63205 0.5 7.57861 1.55344 7.57861 2.84831V8.55425C7.57861 8.81362 7.78893 9.02394 8.0483 9.02394C8.30768 9.02394 8.51799 8.81362 8.51799 8.55425V2.84831C8.51799 2.07138 9.15005 1.43931 9.92699 1.43931H11.6597L11.8614 2.13C12.0745 2.85975 12.7542 3.36937 13.5144 3.36937H18.4882C19.2484 3.36937 19.9282 2.85969 20.1413 2.12994L20.343 1.43931H22.0757C22.8527 1.43931 23.4847 2.07138 23.4847 2.84831V22.8961C23.4847 23.1554 23.695 23.3657 23.9544 23.3657C24.2139 23.3657 24.4241 23.1554 24.4241 22.8961V2.84831C24.424 1.55344 23.3706 0.5 22.0757 0.5V0.5ZM19.2396 1.86669C19.1427 2.19837 18.8337 2.43006 18.4882 2.43006H13.5144C13.1688 2.43006 12.8598 2.19837 12.763 1.86669L12.6382 1.43931H19.3644L19.2396 1.86669Z" />
<path d="M23.9534 24.3051C23.6941 24.3051 23.4838 24.5154 23.4838 24.7748V30.1516C23.4838 30.9286 22.8517 31.5606 22.0748 31.5606H9.92601C9.14907 31.5606 8.51701 30.9286 8.51701 30.1516V10.4329C8.51701 10.1735 8.30676 9.9632 8.04732 9.9632C7.78795 9.9632 7.57764 10.1735 7.57764 10.4329V30.1516C7.57764 31.4465 8.63107 32.4999 9.92595 32.4999H22.0747C23.3696 32.4999 24.423 31.4465 24.423 30.1516V24.7748C24.4231 24.5153 24.2128 24.3051 23.9534 24.3051Z" />
<path d="M18.6266 30.0231C18.886 30.0231 19.0963 29.8127 19.0963 29.5534C19.0963 29.294 18.886 29.0837 18.6266 29.0837H13.374C13.1146 29.0837 12.9043 29.294 12.9043 29.5534C12.9043 29.8127 13.1146 30.0231 13.374 30.0231H18.6266Z" />
<path d="M12.8913 24.1098C11.7617 24.1098 10.8428 23.1908 10.8428 22.0612C10.8428 20.9316 11.7618 20.0126 12.8913 20.0126C14.021 20.0126 14.9399 20.9316 14.9399 22.0612C14.9399 23.1908 14.021 24.1098 12.8913 24.1098ZM12.8913 20.9501C12.2787 20.9501 11.7803 21.4486 11.7803 22.0612C11.7803 22.6738 12.2787 23.1723 12.8913 23.1723C13.504 23.1723 14.0024 22.6738 14.0024 22.0612C14.0024 21.4486 13.504 20.9501 12.8913 20.9501Z" />
<path d="M19.5642 24.1098C18.4346 24.1098 17.5156 23.1908 17.5156 22.0612C17.5156 20.9316 18.4346 20.0126 19.5642 20.0126C20.6937 20.0126 21.6127 20.9316 21.6127 22.0612C21.6127 23.1908 20.6937 24.1098 19.5642 24.1098ZM19.5642 20.9501C18.9516 20.9501 18.4531 21.4486 18.4531 22.0612C18.4531 22.6738 18.9516 23.1723 19.5642 23.1723C20.1768 23.1723 20.6752 22.6738 20.6752 22.0612C20.6752 21.4486 20.1768 20.9501 19.5642 20.9501Z" />
<path d="M17.8856 17.3696C17.8034 17.3696 17.719 17.3673 17.6327 17.3626C17.1126 17.334 16.4892 17.2688 15.8087 17.0033C15.5675 16.9091 15.4483 16.6374 15.5424 16.3962C15.6366 16.1551 15.9083 16.0358 16.1495 16.13C16.7054 16.3469 17.2157 16.4007 17.6842 16.4265C18.6386 16.479 19.2422 16.1476 19.5802 15.8602C19.6105 15.8322 19.6127 15.7884 19.577 15.7559L18.5461 14.9059C18.5165 14.8815 18.4727 14.8858 18.4485 14.9153L18.1134 15.3213C18.0433 15.4063 17.9455 15.4638 17.8372 15.4839C17.7062 15.5082 16.5138 15.6793 15.0598 14.2253C13.6058 12.7713 13.7769 11.579 13.8012 11.4478C13.8212 11.3395 13.8788 11.2418 13.9637 11.1716L14.3698 10.8366C14.3993 10.8123 14.4035 10.7684 14.3792 10.7389L13.5292 9.70807C13.4966 9.67219 13.4534 9.675 13.4249 9.70475C13.1375 10.0428 12.806 10.6462 12.8586 11.6008C12.9111 12.5552 13.072 13.5964 14.3762 14.9085C14.4904 15.022 14.6057 15.1298 14.7191 15.2291C14.9139 15.3997 14.9335 15.6959 14.7629 15.8906C14.5924 16.0853 14.2962 16.1049 14.1015 15.9344C13.9639 15.8136 13.8201 15.6793 13.6858 15.5435C12.2453 14.0824 11.9864 12.8103 11.9226 11.6524C11.853 10.3889 12.3127 9.56569 12.7106 9.09756C12.9014 8.87306 13.1794 8.74475 13.4744 8.74475C13.4769 8.74475 13.4795 8.74481 13.482 8.74481C13.7813 8.74706 14.0622 8.88075 14.2526 9.11163L15.1026 10.1425C15.4556 10.5707 15.3946 11.2064 14.9666 11.5597L14.7228 11.7609C14.7411 12.0501 14.8839 12.7234 15.7228 13.5624C16.5616 14.4012 17.235 14.5441 17.5243 14.5624L17.7255 14.3186C18.0787 13.8905 18.7145 13.8295 19.1427 14.1826L20.1735 15.0326C20.4044 15.223 20.5381 15.5039 20.5404 15.8032C20.5426 16.101 20.414 16.3821 20.1876 16.5746C19.7514 16.9453 19.007 17.3696 17.8856 17.3696Z" />
</g>
<defs>
<clipPath id="clip0">
<rect width="32" height="32" fill="white" transform="translate(0 0.5)"/>
</clipPath>
</defs>
</svg>
