<svg width="32" height="33" viewBox="0 0 32 33" fill="none" xmlns="http://www.w3.org/2000/svg">
<path d="M31.5303 25.7291H30.3721V24.2139C30.3721 23.9545 30.1619 23.7442 29.9024 23.7442H11.4616C11.2021 23.7442 10.9919 23.9545 10.9919 24.2139C10.9919 24.4734 11.2021 24.6836 11.4616 24.6836H29.4328V25.7292H6.42781V24.6836H9.58288C9.84231 24.6836 10.0526 24.4734 10.0526 24.2139C10.0526 23.9545 9.84231 23.7442 9.58288 23.7442H5.95813C5.69869 23.7442 5.48844 23.9545 5.48844 24.2139V25.7292H3.99019V24.4085L19.4211 8.97767C19.6044 8.79423 19.6044 8.49686 19.4211 8.31342C19.2376 8.13011 18.9403 8.13011 18.7568 8.31342L3.326 23.7442H1.6035L21.2375 4.11023C21.7804 3.56736 22.6039 3.4723 23.2451 3.82511L20.086 6.98411C19.9026 7.16761 19.9026 7.46492 20.086 7.64836C20.2694 7.83173 20.5668 7.83173 20.7502 7.64836L24.2884 4.11023C24.4718 3.92673 24.4718 3.62942 24.2884 3.44598C23.2643 2.4218 21.5977 2.42167 20.5733 3.44598L0.137562 23.8818C0.050375 23.9693 0.000375 24.0902 0 24.2139V27.9742C0 29.269 1.05344 30.3225 2.34831 30.3225H17.8189C18.0784 30.3225 18.2886 30.1122 18.2886 29.8528C18.2886 29.5934 18.0784 29.3831 17.8189 29.3831H2.34831C1.57144 29.3831 0.939313 28.751 0.939313 27.9741V26.6684H31.0606V27.9741C31.0606 28.751 30.4285 29.3831 29.6516 29.3831H19.6976C19.4382 29.3831 19.2279 29.5934 19.2279 29.8528C19.2279 30.1122 19.4382 30.3225 19.6976 30.3225H29.6516C30.9465 30.3225 31.9999 29.269 31.9999 27.9742V26.1988C32 25.9394 31.7897 25.7291 31.5303 25.7291ZM3.05087 24.6835V25.7291H0.939313V24.6835H3.05087Z" />
<path d="M28.3205 28.4949C28.5799 28.4949 28.7902 28.2847 28.7902 28.0252C28.7902 27.7658 28.5799 27.5555 28.3205 27.5555H26.7212C26.4617 27.5555 26.2515 27.7658 26.2515 28.0252C26.2515 28.2847 26.4617 28.4949 26.7212 28.4949H28.3205Z" />
<path d="M24.3756 28.4949C24.6351 28.4949 24.8453 28.2847 24.8453 28.0252C24.8453 27.7658 24.6351 27.5555 24.3756 27.5555H22.7763C22.5169 27.5555 22.3066 27.7658 22.3066 28.0252C22.3066 28.2847 22.5169 28.4949 22.7763 28.4949H24.3756Z" />
</svg>
