<svg width="21" height="22" viewBox="0 0 21 22" fill="none" xmlns="http://www.w3.org/2000/svg">
<path d="M16.7649 15.46L20.9999 19.742L19.6008 21.157L15.3667 16.874C13.7913 18.1512 11.8317 18.8459 9.81258 18.843C4.9002 18.843 0.91333 14.811 0.91333 9.84302C0.91333 4.87502 4.9002 0.843018 9.81258 0.843018C14.725 0.843018 18.7118 4.87502 18.7118 9.84302C18.7147 11.885 18.0278 13.8668 16.7649 15.46ZM14.7813 14.718C16.0362 13.4129 16.7371 11.6634 16.7342 9.84302C16.7342 5.97502 13.6363 2.84302 9.81258 2.84302C5.98788 2.84302 2.89094 5.97502 2.89094 9.84302C2.89094 13.71 5.98788 16.843 9.81258 16.843C11.6126 16.8459 13.3425 16.1371 14.633 14.868L14.7813 14.718V14.718Z" fill="#175CFF"/>
</svg>
