<svg width="167" height="85" viewBox="0 0 167 85" fill="none" xmlns="http://www.w3.org/2000/svg">
<g clip-path="url(#clip0_333_216)">
<path d="M22.2732 85C12.6903 82.2478 -15.9244 45.8243 11.7589 24.6905C39.4421 3.55663 96.9871 -14.1086 142.515 16.2578C188.043 46.6241 152.258 39.9123 163.727 57.6795C175.196 75.4468 152.839 85 152.839 85H22.2732Z" fill="#EBF3FA"/>
<path d="M121.183 16.2661H89.9563C87.493 16.2661 85.4961 18.2725 85.4961 20.7476V80.1108C85.4961 82.5859 87.493 84.5923 89.9563 84.5923H121.183C123.646 84.5923 125.643 82.5859 125.643 80.1108V20.7476C125.643 18.2725 123.646 16.2661 121.183 16.2661Z" fill="#2B478B"/>
<path d="M123.655 21.5001V78.9019C123.655 80.8495 121.905 82.4423 119.768 82.4423H91.3746C89.237 82.4423 87.4883 80.8495 87.4883 78.9019V21.5001C87.4883 19.5526 89.2375 17.9597 91.3746 17.9597H119.768C121.905 17.9597 123.655 19.5526 123.655 21.5001Z" fill="#C0D8FB"/>
<path d="M119.764 17.9597L91.7222 82.4418H91.3707C89.2331 82.4418 87.4844 80.849 87.4844 78.9014V21.4996C87.4844 19.5521 89.2336 17.9592 91.3707 17.9592L119.764 17.9597Z" fill="#CBE1FD"/>
<path d="M111.778 16.6665H99.3612C98.5425 16.6665 97.8789 17.3333 97.8789 18.1559V18.6048C97.8789 19.4273 98.5425 20.0941 99.3612 20.0941H111.778C112.597 20.0941 113.261 19.4273 113.261 18.6048V18.1559C113.261 17.3333 112.597 16.6665 111.778 16.6665Z" fill="#2B478B"/>
<g clip-path="url(#clip1_333_216)">
<path d="M101.076 26.0698L97.324 33.2227L95.4021 32.5194L96.0266 34.4278L92.2648 45.814C92.2648 45.814 90.182 31.3472 101.076 26.0698Z" fill="#233862"/>
<path d="M94.8183 32.3938C94.8183 32.3938 90.6682 47.7631 90.2695 62.4286C90.2695 62.4286 93.7111 63.6338 99.1171 62.6798C104.551 61.7207 94.8183 32.3938 94.8183 32.3938Z" fill="#233862"/>
<path d="M74.6347 54.7528C75.7481 54.7317 77.3159 54.8702 77.8339 54.3008C78.4211 53.6552 79.1149 53.75 79.1149 53.75L78.975 53.0122L78.8069 52.1309C78.8069 52.1309 78.7439 52.0506 78.5154 52.0537C78.5154 52.0537 77.7089 52.0887 77.3236 51.9507C76.386 51.614 72.6549 53.8601 72.7804 54.4836C72.8266 54.7137 74.1603 54.759 74.6347 54.7528Z" fill="#E2915A"/>
<path d="M95.2862 32.0925C95.2862 32.0925 88.984 45.1729 87.0329 46.5774C85.0818 47.9818 78.2386 51.9134 78.2386 51.9134C78.2386 51.9134 78.1418 52.6094 78.3104 53.2468C78.4861 53.9099 78.833 54.0973 78.833 54.0973C78.833 54.0973 88.3589 52.0673 90.6175 50.6542C92.876 49.241 97.8623 43.6069 97.8623 43.6069L95.2862 32.0925Z" fill="#233862"/>
<path d="M93.7109 57.5879C93.7109 57.5879 94.1531 63.133 94.6732 69.7988C95.3797 78.8534 96.2297 89.9759 96.3127 92.0826C96.4583 95.7414 99.9987 94.2 102.769 93.6141C102.769 93.6141 103.66 94.044 104.365 85.2041C104.375 85.0595 104.387 84.9133 104.397 84.7676C105.053 75.7686 106.072 56.8198 106.072 56.8198L93.7109 57.5879Z" fill="#68CCFF"/>
<path d="M93.7109 57.5879C93.7109 57.5879 94.1531 63.133 94.6732 69.7988L104.363 85.2041C104.374 85.0595 104.385 84.9133 104.396 84.7676C105.051 75.7686 106.07 56.8198 106.07 56.8198L93.7109 57.5879Z" fill="#41A5FF"/>
<path d="M95.7305 58.2463C95.7305 58.2463 103.703 78.3287 108.946 87.7663C114.189 97.2039 117.476 92.2364 117.75 91.4132C117.75 91.4132 117.098 79.5874 113.588 75.1451C111.604 72.6354 109.273 65.1062 109.164 62.4698C109.055 59.8335 108.455 54.6235 108.455 54.6235L95.7305 58.2463Z" fill="#68CCFF"/>
<path d="M97.7148 28.9704C100.831 29.9583 106.22 27.2921 106.22 27.2921C106.22 27.2921 103.349 25.1257 103.498 20.6206L101.09 22.5712L99.4533 23.8959C99.4533 23.8959 99.46 24.6768 99.6388 26.0457C99.6729 26.2952 99.7117 26.5643 99.7551 26.853C99.7733 26.9653 99.7583 27.0806 99.7117 27.1845C99.6651 27.2883 99.5892 27.376 99.4933 27.4368C98.3584 28.1441 97.7148 28.9704 97.7148 28.9704Z" fill="#FFB27D"/>
<path d="M93.3676 58.0476C93.4582 58.1275 93.5744 58.172 93.695 58.1732C94.8652 58.1573 98.2771 58.8101 101.164 58.5125C103.598 58.2777 105.752 57.5534 108.065 56.5114C108.372 56.3729 109.079 55.994 109.063 55.6491C109.053 55.2712 109.015 54.7224 108.968 54.0336C108.804 51.6346 108.519 47.5083 108.797 42.7473C108.848 41.8608 108.873 40.9815 108.876 40.1161C108.901 33.6639 107.627 27.9891 105.069 26.0684C105.069 26.0684 103.284 27.0738 102.05 27.4707C100.84 27.8594 100.216 27.7796 99.5903 27.3631C99.5903 27.3631 98.3683 27.9732 97.8482 28.5472C96.639 29.8713 95.6963 31.6294 95.0712 34.153C94.5404 36.3003 94.0434 39.4319 93.8717 43.4449C93.7908 45.2622 93.2897 57.9863 93.3676 58.0476Z" fill="white"/>
<path d="M108.5 36.7301L105.07 26.0698C105.07 26.0698 96.8361 29.1896 96.4549 40.8718C96.3047 43.5339 95.6694 54.4433 96.8191 63.484C96.8191 63.484 103.234 65.9952 111.099 61.0396L108.5 36.7301Z" fill="#2B478B"/>
<path d="M99.4531 23.8973C99.4531 23.8973 99.4598 24.6782 99.6386 26.0471C101.452 25.7346 103.509 22.7899 103.509 22.7899C102.586 22.5222 101.777 22.4738 101.09 22.5721L99.4531 23.8973Z" fill="#ED975D"/>
<path d="M98.1062 23.8124C98.1062 23.8124 103.718 24.7494 104.245 21.2286C104.772 17.7077 105.851 15.458 102.29 14.711C98.7297 13.964 97.8326 15.2021 97.3715 16.3342C96.9103 17.4663 96.6603 23.4793 98.1062 23.8124Z" fill="#FFB27D"/>
<path d="M122.727 69.355L111.269 70.9952C110.551 71.096 109.821 70.9069 109.241 70.4692C108.66 70.0316 108.276 69.381 108.171 68.6595L107.464 63.6704C107.364 62.9482 107.552 62.2154 107.987 61.6322C108.423 61.049 109.071 60.6628 109.789 60.5578L121.247 58.9171C121.965 58.8163 122.695 59.0055 123.275 59.4432C123.855 59.881 124.24 60.5317 124.344 61.2533L125.052 66.2424C125.152 66.9645 124.964 67.6972 124.529 68.2804C124.093 68.8636 123.445 69.2499 122.727 69.355Z" fill="#3A69D0"/>
<path d="M108.976 63.4532L109.693 68.4983C109.76 68.9634 109.944 69.4038 110.227 69.7778C110.51 70.1519 110.883 70.4474 111.312 70.6364C111.594 70.7626 111.896 70.8392 112.204 70.8629C112.403 70.8788 112.603 70.8724 112.8 70.8438L124.238 69.2057C124.958 69.1004 125.608 68.7128 126.045 68.1275C126.483 67.5423 126.671 66.807 126.571 66.0823L125.854 61.0371C125.748 60.3129 125.363 59.6599 124.78 59.2207C124.197 58.7814 123.465 58.5916 122.744 58.6927L118.806 59.259L118.652 58.182C118.618 57.9433 118.491 57.728 118.298 57.5833C118.106 57.4386 117.865 57.3762 117.627 57.4097L117.196 57.4715L114.8 57.8149L114.207 57.8932C113.969 57.9277 113.755 58.0555 113.611 58.2484C113.467 58.4414 113.405 58.6839 113.438 58.9228L113.592 59.9993L111.31 60.3257C111.22 60.3385 111.132 60.356 111.046 60.3771H111.044C110.619 60.4837 110.225 60.6904 109.895 60.9801C109.566 61.2698 109.31 61.6341 109.148 62.0431V62.0431C108.968 62.4898 108.909 62.9761 108.976 63.4532ZM118.246 59.3346L114.156 59.9195L114.002 58.843C113.99 58.7537 114.013 58.6631 114.067 58.5911C114.121 58.519 114.201 58.4713 114.289 58.4584L115.317 58.3112L117.203 58.0409L117.712 57.9683C117.745 57.9632 117.78 57.9632 117.814 57.9683C117.885 57.98 117.951 58.0143 118.001 58.066C118.052 58.1177 118.085 58.1843 118.095 58.2561L118.246 59.3346Z" fill="#243C62"/>
<path d="M114.016 54.4995C114.016 54.4995 114.617 55.3047 114.641 55.6265C114.803 57.8077 113.811 58.1094 116.379 59.3208C116.379 59.3208 117.476 59.7409 117.494 58.8858C117.513 58.0307 116.733 58.0168 116.876 56.8193C117.04 55.4386 117.024 55.4257 116.121 54.7045L115.524 53.7124L114.016 54.4995Z" fill="#FFB27D"/>
<path d="M115.547 55.1166C114.579 55.3061 113.531 55.2294 113.531 55.2294C113.531 55.2294 110.659 46.3149 110.289 45.4994C109.919 44.6839 101.758 35.0487 101.758 35.0487L105.068 26.0708C105.068 26.0708 107.01 27.2127 109.065 30.7711C111.6 35.1671 114.388 42.2463 114.883 43.3969C116.364 46.8369 116.878 54.5498 116.878 54.5498C116.476 54.825 116.023 55.0176 115.547 55.1166V55.1166Z" fill="#2B478B"/>
<path d="M104.249 20.8913C104.249 20.8913 103.673 20.7945 103.766 19.9976C103.859 19.2007 103.858 18.1587 103.213 18.3533C102.568 18.5479 102.536 19.0663 102.271 18.7651C102.005 18.464 102.001 17.1857 100.082 17.0971C98.1623 17.0086 97.383 17.6794 96.4905 17.285C95.5979 16.8907 95.5508 15.5347 95.5508 15.5347C95.5508 15.5347 95.807 16.0191 96.1882 16.1735C96.1882 16.1735 94.6992 14.1277 96.4228 12.7243C98.1464 11.3209 99.9039 12.2398 100.901 12.3006C103.099 12.4344 104.519 12.5668 105.237 14.018C105.954 15.4693 105.659 19.4946 104.249 20.8913Z" fill="#243C62"/>
<path d="M114.966 55.4585C114.966 55.4585 114.387 56.0655 114.351 56.3177C114.234 57.128 113.964 57.4781 114.1 57.5667C114.38 57.7499 114.752 57.1497 114.929 56.6117C115.106 56.0737 114.966 55.4585 114.966 55.4585Z" fill="#FFB27D"/>
<path d="M105.07 26.0698L101.318 33.2227L99.3935 32.5194L100.019 34.4278L96.2568 45.814C96.2568 45.814 94.175 31.3472 105.07 26.0698Z" fill="#233862"/>
<path d="M97.7148 21.8159C97.7148 21.8159 97.9336 22.3961 98.4798 22.412C99.026 22.428 99.4477 21.8946 99.4477 21.8946C99.4477 21.8946 98.2615 21.6182 97.7148 21.8159Z" fill="white"/>
<path d="M76.8638 52.3464C76.8638 52.3464 75.4804 51.9974 75.0823 51.9135C74.6211 51.8151 74.1948 51.4645 74.0575 51.6298C73.8065 51.9387 74.8661 52.4756 75.2847 53.4229C75.4896 53.8862 75.9031 54.1411 76.7311 53.7992C77.1502 53.6273 77.4822 52.7583 76.8638 52.3464Z" fill="#E2915A"/>
</g>
<path d="M67.379 77.4858L79.1553 74.7444C79.8933 74.5703 80.5328 74.1098 80.9339 73.4635C81.3351 72.8172 81.4655 72.0377 81.2965 71.2951L80.114 66.1671C79.9407 65.4255 79.4824 64.7831 78.8391 64.3799C78.1959 63.9768 77.4201 63.8459 76.6811 64.0157L64.9048 66.757C64.1668 66.9312 63.5274 67.3917 63.1262 68.0379C62.725 68.6842 62.5946 69.4638 62.7636 70.2063L63.9462 75.3344C64.1194 76.0759 64.5777 76.7184 65.221 77.1215C65.8642 77.5246 66.64 77.6556 67.379 77.4858V77.4858Z" fill="#4A83FF"/>
<path d="M77.8725 65.2203C77.5613 64.883 77.1745 64.625 76.7442 64.4678C76.3139 64.3106 75.8525 64.2587 75.3983 64.3163H75.3952C75.303 64.3287 75.2113 64.3446 75.118 64.3678L72.7734 64.9145L72.5173 63.8082C72.4604 63.5624 72.3088 63.3493 72.0957 63.2157C71.8827 63.0821 71.6255 63.0389 71.3808 63.0957L70.7691 63.2378L68.3066 63.8108L67.8629 63.9137C67.6183 63.9709 67.4063 64.1233 67.2734 64.3374C67.1405 64.5514 67.0974 64.8097 67.1538 65.0556L67.41 66.1619L63.3622 67.104C62.6216 67.2789 61.98 67.741 61.5773 68.3896C61.1746 69.0381 61.0436 69.8204 61.2129 70.5656L62.4077 75.7519C62.5816 76.496 63.0415 77.1407 63.6869 77.5452C64.3323 77.9498 65.1108 78.0813 65.8524 77.911L77.6076 75.1748C77.8107 75.1283 78.008 75.0592 78.1958 74.9689C78.4873 74.8291 78.7528 74.6402 78.9808 74.4103C79.327 74.064 79.5797 73.6348 79.7152 73.1632C79.8506 72.6916 79.8643 72.1931 79.755 71.7147L78.5591 66.528C78.4482 66.0392 78.2115 65.5882 77.8725 65.2203V65.2203ZM67.7333 64.9181C67.7165 64.8443 67.7236 64.767 67.7536 64.6974C67.7835 64.6279 67.8347 64.5698 67.8998 64.5315C67.9306 64.5133 67.9639 64.4998 67.9987 64.4913L68.5213 64.3693L70.4596 63.9189L71.5161 63.6728C71.6072 63.6525 71.7027 63.6691 71.7817 63.7192C71.8606 63.7692 71.9167 63.8486 71.9378 63.94L72.194 65.0463L67.9874 66.0245L67.7333 64.9181Z" fill="#3A69D0"/>
<path d="M70.1491 58.5461C70.1491 58.5461 69.7935 59.8135 69.9154 60.2171C70.7424 62.9534 72.1729 64.7444 68.3271 64.2842C68.3271 64.2842 68.4859 64.1261 67.7502 62.7336C66.9012 61.1273 66.9155 61.1042 67.6764 59.7991L67.9387 58.3062L70.1491 58.5461Z" fill="#FFB27D"/>
<path d="M74.9864 55.2875C73.8254 55.217 72.4107 54.9117 71.8948 54.2949C71.3101 53.5958 70.7266 53.4079 70.7266 53.4079L70.9049 52.6444L71.1185 51.7322C71.1185 51.7322 71.1882 51.6513 71.4259 51.6642C71.4259 51.6642 72.3364 51.8701 72.6746 51.6086C73.0128 51.3471 73.6307 51.5057 74.0114 51.76C74.4955 52.0833 75.1488 52.0308 75.1329 52.1888C75.1329 52.1888 74.1733 52.663 74.2619 52.7428C75.1406 53.5268 77.455 53.8383 77.3049 54.4509C77.2459 54.6918 75.4808 55.3179 74.9864 55.2875Z" fill="#FFB27D"/>
<path d="M58.8064 25.4833L58.8029 26.1176C58.8029 26.1176 58.9745 28.1006 56.5443 28.3905C54.1142 28.6803 52.1211 28.6427 52.1892 27.1122C52.408 25.9281 52.8005 24.0882 52.8163 23.108C52.8216 22.7103 52.7926 22.3129 52.7297 21.9203L57.4353 21.8281L58.8223 22.0557L58.8064 25.4833Z" fill="#FFB27D"/>
<path d="M58.8271 22.0557L58.8092 25.4859C58.2779 25.7354 57.6982 25.8639 57.1117 25.8622C54.9475 25.8622 53.5482 24.2663 52.8171 23.11C52.8223 22.7124 52.7933 22.315 52.7305 21.9223L57.4381 21.8281L58.8271 22.0557Z" fill="#E2915A"/>
<path d="M52.3681 21.1589C52.9143 24.1134 56.7089 24.0166 58.3485 23.8308C58.8096 23.7793 59.1001 23.7201 59.1001 23.7201C59.6207 23.5806 59.9107 22.7569 60.0454 21.6784C60.3134 19.5434 59.9747 16.4103 59.6161 15.6087C59.076 14.4025 58.0585 13.0985 54.2362 14.0395C50.4139 14.9806 51.6666 17.3755 52.3681 21.1589Z" fill="#FFB27D"/>
<path d="M58.6223 85H68C67.3834 77.6568 67.055 70.5296 66.8803 65.2413C66.7056 59.9637 65.828 56.3181 65.828 56.3181C65.828 56.3181 53.0763 52.8052 53.0008 57.2493C52.9335 61.1814 57.2246 76.6036 58.3618 83.0883C58.4803 83.7205 58.5672 84.3586 58.6223 85V85Z" fill="#2B478B"/>
<path d="M58.4362 82.7394L66.9302 65.4205C66.756 60.2996 65.8809 56.7623 65.8809 56.7623C65.8809 56.7623 53.1659 53.3538 53.0906 57.6658C53.024 61.4811 57.3023 76.4452 58.4362 82.7394Z" fill="#233862"/>
<path d="M47.481 74.6636C47.4307 76.6459 47.5816 80.5508 47.8129 85H57.3724L61 57.5863C61 57.5863 49.5736 55.1388 47.834 56.324C46.0944 57.5092 47.6419 68.2525 47.481 74.6636Z" fill="#2B478B"/>
<path d="M59.7625 16.0729C58.7126 16.4055 56.4925 16.0662 55.5641 16.8204C54.6357 17.5746 55.52 18.8195 54.4594 19.2632H54.4553C54.3508 19.3073 54.2348 19.3161 54.1248 19.2882C54.0149 19.2604 53.9169 19.1974 53.8456 19.1088C53.552 18.7402 53.1452 18.3731 52.7737 18.525C52.4689 18.6506 52.4535 19.046 52.5878 19.4305C52.6463 19.5893 52.6665 19.7598 52.6467 19.928C52.6269 20.0961 52.5677 20.2572 52.474 20.3979C52.3895 20.5194 52.3341 20.6553 52.3587 20.7876C52.4468 21.2751 52.6877 21.9094 52.7763 22.2337L52.8009 22.574C52.8009 22.574 51.0235 20.644 50.2749 19.0177C49.7625 17.9015 49.7718 13.7305 52.2839 12.5109C52.274 12.5037 52.2658 12.4944 52.2598 12.4836C52.2055 12.3858 52.0549 12.408 52.0549 12.408C52.2711 12.3101 52.6062 12.3724 52.6062 12.3724C52.6062 12.3724 52.6123 12.3513 52.6426 12.3282C52.6866 12.0332 52.9818 11.8226 52.9818 11.8226C52.8997 11.942 52.8448 12.078 52.8209 12.2211C53.4808 11.8715 55.5118 11.0972 57.1222 11.8015C58.0108 12.1881 58.9385 12.4769 59.889 12.6628C60.1593 12.7152 60.402 12.863 60.5733 13.0795C60.7446 13.296 60.8332 13.5669 60.8231 13.8433C60.7923 14.6453 60.5146 15.7975 59.7625 16.0729Z" fill="#233862"/>
<path d="M51.6133 27.9647L53.1606 61.3278C53.1606 61.3278 66.0764 61.5399 65.708 58.6029C65.3396 55.6659 61.0527 28.9841 61.0527 28.9841L58.9847 27.4695L57.3662 28.3961L54.6224 28.1326L51.6133 27.9647Z" fill="#E9F3FE"/>
<path d="M55.8732 48.8635C55.8732 48.8635 55.2173 57.7744 53.9579 63.3689C53.9579 63.3689 46.4205 63.771 44.6328 60.8463C44.6328 60.8463 46.049 48.8089 46.049 46.3671C46.049 45.5089 45.9834 44.3424 45.8789 43.0378C45.7221 41.062 45.4787 38.7736 45.2482 36.7803C44.9274 34.0039 44.6333 31.7974 44.6333 31.7974L50.8463 26.7239L55.8732 48.8635Z" fill="#4A83FF"/>
<path d="M70.8277 59.4064C70.8277 59.4064 69.4213 60.2908 67.2068 59.9943C66.4008 61.9804 64.4994 62.6554 64.4994 62.4757C64.4994 62.4541 64.0726 58.7247 63.5685 54.3298C63.5172 53.8906 63.466 53.4453 63.4148 52.9964C63.4107 52.9578 63.4055 52.9197 63.4014 52.8811C63.3169 52.1449 63.2318 51.4005 63.1453 50.6591C62.5386 45.3663 61.956 40.2923 61.956 40.2923C60.6346 32.1629 59.5156 26.7903 59.5156 26.7903C62.3337 27.0853 64.2376 28.0943 64.998 29.4158C67.2483 33.3351 68.8781 43.1382 69.8327 50.4764C69.8327 50.4949 69.8368 50.5135 69.8399 50.5325C70.0043 51.7989 70.1473 52.9918 70.2718 54.0667C70.28 54.1341 70.2872 54.2006 70.2943 54.2659C70.6484 57.3414 70.8277 59.4064 70.8277 59.4064Z" fill="#4A83FF"/>
<path d="M57.7539 21.6467C57.7539 21.6467 57.8769 22.0277 58.834 21.8887C58.834 21.8887 59.6379 21.7718 59.5779 21.3471C59.5779 21.3471 58.7699 21.1072 57.7539 21.6467Z" fill="white"/>
<path d="M51.2501 26.6843C51.2342 26.3662 52.736 25.926 52.736 25.926C52.736 25.926 54.454 28.3194 57.2843 28.3606C57.2843 28.3606 56.4778 29.938 55.5274 30.3462C55.5264 30.3462 51.3434 28.5747 51.2501 26.6843Z" fill="#D9E9F9"/>
<path d="M57.2812 28.3044C57.2812 28.3044 58.7804 27.4112 58.7861 26.4429C58.7861 26.4429 59.7545 26.3209 60.1777 26.793C60.1777 26.793 60.5333 28.4522 60.0619 29.4185C60.0609 29.4164 57.9017 29.087 57.2812 28.3044Z" fill="#D9E9F9"/>
<path d="M61.0009 55.8712C60.9225 56.8277 60.5577 57.7245 59.9761 58.3799L59.0652 59.4131C58.8366 59.6705 58.4811 59.6412 58.2935 59.3462L57.194 57.6133C56.8989 57.15 56.7641 56.558 56.8153 55.9659C56.9327 54.6434 57.1515 52.095 57.3308 49.6363C57.4768 47.6439 57.5967 45.7088 57.6157 44.5319C57.6761 40.7737 57.1863 28.8022 57.1863 28.8022L57.9169 28.8409C57.9169 28.8409 59.6882 33.4696 60.5782 39.7853C60.798 41.34 60.963 42.9957 61.0362 44.7116C61.0388 44.7095 61.3544 51.5473 61.0009 55.8712Z" fill="#243C62"/>
<path d="M56.2651 28.1602L58.2982 27.6707C58.2982 27.6707 58.5636 27.6938 58.5544 28.0264C58.5451 28.359 57.9815 29.3314 57.7315 29.4092C57.4815 29.4869 55.784 28.8341 56.2651 28.1602Z" fill="#3A69D0"/>
<path d="M51.4846 26.5195C51.4687 26.2013 52.4847 25.5449 52.4847 25.5449C52.4847 25.5449 54.4507 27.8539 57.2815 27.8956C57.2815 27.8956 56.475 29.473 55.5246 29.8812C55.5241 29.8812 51.5778 28.4104 51.4846 26.5195Z" fill="#E9F3FE"/>
<path d="M57.2812 27.8957C57.2812 27.8957 58.7979 27.088 58.803 26.1196C58.803 26.1196 59.7181 26.5243 60.1413 26.9948C60.1413 26.9948 60.5327 28.0425 60.0614 29.0062C60.0609 29.0077 57.9017 28.6752 57.2812 27.8957Z" fill="#E9F3FE"/>
<path d="M61.0009 55.8713C60.9225 56.8278 60.5577 57.7246 59.9761 58.38L59.0652 59.4132C58.8366 59.6706 58.4811 59.6413 58.2935 59.3463L57.194 57.6134C56.8989 57.1501 56.7641 56.5581 56.8153 55.966C56.9327 54.6435 57.1515 52.0951 57.3308 49.6364C59.3803 46.8162 60.2344 42.9438 60.5787 39.7854C60.7985 41.3401 60.9635 42.9958 61.0367 44.7117C61.0388 44.7096 61.3544 51.5474 61.0009 55.8713Z" fill="#2B478B"/>
<path d="M52.4845 25.5454C52.4845 25.5454 56.5101 42.4859 55.8692 48.8665C55.8692 48.8665 54.3889 42.0473 50.8275 36.4595C50.8275 36.4595 52.1273 35.3109 52.0571 34.8872C52.0571 34.8872 51.0923 34.6 50.1562 34.7935C50.1562 34.7935 50.2587 27.4914 50.8433 26.7197C51.4279 25.948 52.4845 25.5454 52.4845 25.5454Z" fill="#3A69D0"/>
<path d="M58.8046 26.1196C58.201 26.1711 62.7939 42.6735 63.1341 47.9642C63.1341 47.9642 62.7309 38.5236 62.7703 35.8028C62.7703 35.8028 61.0985 34.9132 61.0985 34.6012C61.0985 34.2892 62.882 33.4454 62.882 33.4454C62.882 33.4454 61.7548 27.6316 61.1364 26.9907C60.518 26.3498 58.8046 26.1196 58.8046 26.1196Z" fill="#3A69D0"/>
<path d="M67.2117 60.6658C67.2117 60.6658 66.933 61.0452 67.1092 61.9971C67.2855 62.949 67.1886 63.4746 67.4335 63.3109C67.6784 63.1472 68.1852 62.0033 68.1852 62.0033L67.2117 60.6658Z" fill="#FFB27D"/>
<path d="M55.3802 51.4737C50.6941 50.771 47.56 46.3704 45.8768 43.0385C45.72 41.0626 45.4767 38.7743 45.2461 36.7809L46.3426 33.6375L55.3802 51.4737Z" fill="#3A69D0"/>
<path d="M70.2973 54.2664C69.3643 54.4837 66.5329 55.015 63.5694 54.3298C63.5181 53.8906 63.4669 53.4453 63.4157 52.9964C63.4116 52.9578 63.4064 52.9197 63.4023 52.8811C63.4994 52.4991 63.5969 52.1171 63.6949 51.7351C65.3719 52.3385 69.1199 53.66 70.2727 54.0672C70.2835 54.1341 70.2906 54.2006 70.2973 54.2664Z" fill="#3A69D0"/>
<path d="M50.8434 26.7224C50.8434 26.7224 46.7271 27.2449 44.8456 29.8813C42.9642 32.5177 47.0027 46.8753 55.3799 51.4732C59.4097 53.6869 71.0374 54.1831 71.0374 54.1831C71.0374 54.1831 71.6769 54.2475 71.93 52.9543C72.0186 52.5033 71.93 51.7347 71.93 51.7347C71.93 51.7347 58.6939 46.7482 57.5324 45.7881C56.3709 44.8279 50.8434 26.7224 50.8434 26.7224Z" fill="#4A83FF"/>
<path d="M163.871 84H7.12879C7.05766 84 7 84.2239 7 84.5C7 84.7761 7.05766 85 7.12879 85H163.871C163.942 85 164 84.7761 164 84.5C164 84.2239 163.942 84 163.871 84Z" fill="#2E3552"/>
</g>
<defs>
<clipPath id="clip0_333_216">
<rect width="167" height="85" fill="white"/>
</clipPath>
<clipPath id="clip1_333_216">
<rect width="54" height="71" fill="white" transform="translate(73 11.4399)"/>
</clipPath>
</defs>
</svg>
