<svg width="167" height="85" viewBox="0 0 167 85" fill="none" xmlns="http://www.w3.org/2000/svg">
<g clip-path="url(#clip0_333_278)">
<path d="M22.2725 85.0002C12.6897 82.248 4.31557 28.634 31.9988 7.50012C46.7281 -3.7445 63.6712 18.8263 89 16.2579C111.276 13.999 121.21 2.04854 142.514 16.258C152.839 27 163.726 35.8595 163.726 57.6798C163.726 79.5 152.839 85.0002 152.839 85.0002H22.2725Z" fill="#EBF3FA"/>
<path d="M163.871 84.0002H7.12879C7.05766 84.0002 7 84.2241 7 84.5002C7 84.7764 7.05766 85.0002 7.12879 85.0002H163.871C163.942 85.0002 164 84.7764 164 84.5002C164 84.2241 163.942 84.0002 163.871 84.0002Z" fill="#2E3552"/>
<path d="M73.67 7.06332C72.7829 7.74295 72.2974 7.65949 72.0336 7.31371C71.7639 6.96793 71.8178 6.48503 72.705 5.8054C74.3234 4.57133 75.5942 4.60114 75.5942 4.60114C75.5942 4.60114 75.3124 5.81136 73.67 7.06332Z" fill="#CAE9FB"/>
<path d="M74.5037 14.2293C73.8803 15.1533 73.4008 15.2368 73.0351 14.9924C72.6695 14.7479 72.5616 14.277 73.179 13.3529C74.3119 11.6657 75.5227 11.2842 75.5227 11.2842C75.5227 11.2842 75.6546 12.5183 74.5037 14.2293Z" fill="#CAE9FB"/>
<path d="M76.3662 32.9371L76.1564 32.9431C76.1564 32.9133 76.0186 29.6403 74.3402 25.0319C72.7877 20.7812 69.5688 14.4856 63.0352 8.64914L63.179 8.49414C69.7486 14.3664 72.9855 20.6977 74.544 24.9723C76.2284 29.6045 76.3662 32.9013 76.3662 32.9371Z" fill="#CAE9FB"/>
<path d="M69.8339 16.0535L69.642 15.9641C72.9748 9.06042 69.5282 1.59041 69.4922 1.51887L69.684 1.42944C69.72 1.50098 73.2086 9.06042 69.8339 16.0535Z" fill="#CAE9FB"/>
<path d="M66.2421 13.049C64.1021 13.3113 62.3578 12.4409 62.3398 12.4349L62.4358 12.2441C62.4597 12.2561 64.6956 13.3649 67.1712 12.6436L67.2311 12.8463C66.8954 12.9417 66.5657 13.0072 66.2421 13.049Z" fill="#CAE9FB"/>
<path d="M75.4247 28.2632C71.0429 28.305 67.2786 26.6357 64.2455 23.3031C64.1376 23.1898 64.0417 23.0765 64.0117 23.0587C64.0117 23.0587 64.0177 23.0646 64.0357 23.0646L64.0777 22.856C64.1376 22.8679 64.1796 22.9156 64.4013 23.154C67.3984 26.4389 71.1028 28.0784 75.4247 28.0426V28.2632Z" fill="#CAE9FB"/>
<path d="M69.035 26.7548L68.8252 26.7249C69.2328 23.8931 66.8951 20.0836 66.8711 20.0478L67.0509 19.9346C67.0569 19.9465 67.6563 20.9182 68.2018 22.2358C68.7053 23.4579 69.2568 25.2345 69.035 26.7548Z" fill="#CAE9FB"/>
<path d="M62.7474 7.49844C63.9823 8.36289 64.1501 8.9054 63.8983 9.2631C63.6466 9.62081 63.0711 9.65658 61.8363 8.79213C59.5825 7.21824 58.9531 5.81128 58.9531 5.81128C58.9531 5.81128 60.4637 5.90071 62.7474 7.49844Z" fill="#CAE9FB"/>
<path d="M62.8196 11.6838C64.2582 12.1369 64.5819 12.6078 64.45 13.0251C64.3181 13.4425 63.7846 13.6452 62.34 13.1921C59.7146 12.3694 58.6836 11.2188 58.6836 11.2188C58.6836 11.2188 60.1582 10.8491 62.8196 11.6838Z" fill="#CAE9FB"/>
<path d="M67.4187 19.2907C68.0481 20.2088 67.9402 20.6858 67.5805 20.9302C67.2149 21.1746 66.7354 21.1031 66.106 20.179C64.9551 18.5038 65.057 17.2458 65.057 17.2458C65.057 17.2458 66.2558 17.5857 67.4187 19.2907Z" fill="#CAE9FB"/>
<path d="M67.9848 9.44795C68.3685 10.4912 68.1527 10.9265 67.7391 11.0755C67.3255 11.2245 66.8759 11.0397 66.4923 9.99047C65.791 8.08272 66.1926 6.89038 66.1926 6.89038C66.1926 6.89038 67.2715 7.51636 67.9848 9.44795Z" fill="#CAE9FB"/>
<path d="M71.684 25.3063C71.7619 26.4151 71.4263 26.7728 70.9887 26.8027C70.5511 26.8325 70.1735 26.5225 70.0956 25.4136C69.9577 23.3866 70.683 22.3552 70.683 22.3552C70.683 22.3552 71.5461 23.2554 71.684 25.3063Z" fill="#CAE9FB"/>
<path d="M65.175 22.999C65.9902 23.7621 65.9842 24.2509 65.6845 24.5669C65.3848 24.8829 64.8993 24.9127 64.0841 24.1496C62.6035 22.7545 62.4297 21.5085 62.4297 21.5085C62.4297 21.5085 63.6705 21.586 65.175 22.999Z" fill="#CAE9FB"/>
<path d="M70.0251 0.529327C70.5526 1.93629 70.3788 2.4788 69.9652 2.63381C69.5516 2.78881 69.0661 2.49073 68.5326 1.08377C67.5735 -1.48573 67.8493 -3 67.8493 -3C67.8493 -3 69.0481 -2.07594 70.0251 0.529327Z" fill="#CAE9FB"/>
<g opacity="0.4">
<g opacity="0.4">
<path opacity="0.4" d="M76.1836 23.2792C76.1836 23.2792 83.6763 -3.5425 92.2121 -1.49763C100.742 0.55319 82.4775 15.5051 80.5893 23.3746L76.1836 23.2792Z" fill="#D5F3FB"/>
</g>
<g opacity="0.4">
<g opacity="0.4">
<path opacity="0.4" d="M78.4688 23.3149C79.1401 20.2864 80.8724 15.2905 85.3501 8.69086C88.0235 4.74421 90.4451 2.06144 90.4691 2.0376L90.577 2.13298C90.553 2.15683 88.1374 4.8396 85.47 8.77432C81.0043 15.356 79.278 20.3281 78.6126 23.3447L78.4688 23.3149Z" fill="white"/>
</g>
</g>
</g>
<g opacity="0.5">
<g opacity="0.5">
<path opacity="0.5" d="M80.6172 24.0185C80.6172 24.0185 100.854 -6.63657 110.732 -0.656981C120.61 5.32261 91.6525 16.781 86.1079 25.9024L80.6172 24.0185Z" fill="#D5F3FB"/>
</g>
<g opacity="0.5">
<g opacity="0.5">
<path opacity="0.5" d="M83.4688 24.9784C85.5308 21.4491 89.7267 15.8749 98.0047 9.38257C102.956 5.50151 107.074 3.1049 107.116 3.08105L107.212 3.24798C107.17 3.27183 103.058 5.66843 98.1185 9.53758C89.8646 16.006 85.6866 21.5564 83.6306 25.0738L83.4688 24.9784Z" fill="white"/>
</g>
</g>
</g>
<path d="M65.6986 28.4898C65.6986 28.4898 50.5933 -4.23992 40.1154 0.112125C29.6376 4.47013 56.054 19.8454 60.0881 29.5093L65.6986 28.4898Z" fill="#CAE9FB"/>
<path d="M62.5687 29.0859C59.9013 22.3611 54.7044 16.0238 50.8141 11.8864C46.5942 7.40317 42.9617 4.48194 42.9258 4.45213L43.1056 4.22559C43.1416 4.25539 46.792 7.19451 51.0239 11.6896C54.9321 15.839 60.1531 22.212 62.8385 28.9786L62.5687 29.0859Z" fill="white"/>
<path d="M87.6818 78.4429V66.6208H63.705V78.4429C63.705 81.5132 61.649 84.0052 59.1135 84.0052H58.1484V85.5314H93.2444V84.0052H92.2733C89.7378 84.0052 87.6818 81.5132 87.6818 78.4429Z" fill="#175CFF"/>
<path d="M93.0478 85.5313H58.3415C57.9159 85.5313 57.5742 85.1915 57.5742 84.7682C57.5742 84.3449 57.9159 84.0051 58.3415 84.0051H93.0478C93.4734 84.0051 93.8151 84.3449 93.8151 84.7682C93.8151 85.1855 93.4734 85.5313 93.0478 85.5313Z" fill="#0B1151"/>
<path d="M116.547 73.8762L35.4514 72.9521C33.7131 72.9342 32.3164 71.5273 32.3164 69.7984V20.5726C32.3164 18.8497 33.7071 17.4487 35.4394 17.4189L115.486 16.2027C117.23 16.1789 118.669 17.556 118.705 19.2909L119.754 70.6628C119.784 72.4394 118.333 73.8941 116.547 73.8762Z" fill="#52C4FF"/>
<path d="M113.933 64.111H37.0215C36.1584 64.111 35.457 63.4135 35.457 62.555V22.713C35.457 21.8545 36.1584 21.157 37.0215 21.157H113.933C114.796 21.157 115.497 21.8545 115.497 22.713V62.555C115.497 63.4135 114.796 64.111 113.933 64.111Z" fill="white"/>
<path d="M61.9172 38.6963V52.3009C61.9172 53.1713 61.2039 53.8808 60.3287 53.8808H40.0924C39.7147 53.8808 39.3671 53.7496 39.0973 53.529C38.7377 53.2429 38.5039 52.7957 38.5039 52.2949V38.6963C38.5039 37.8259 39.2172 37.1165 40.0924 37.1165H60.3287C61.2039 37.1165 61.9172 37.8259 61.9172 38.6963Z" fill="#3A69D0"/>
<path d="M86.6906 38.6963V52.3009C86.6906 52.8971 86.355 53.4217 85.8634 53.69C85.6357 53.8152 85.3779 53.8867 85.1022 53.8867H64.8718C64.71 53.8867 64.5601 53.8629 64.4102 53.8211C63.7569 53.6244 63.2773 53.0223 63.2773 52.3069V38.6963C63.2773 37.8259 63.9907 37.1165 64.8658 37.1165H85.1022C85.9773 37.1165 86.6906 37.8259 86.6906 38.6963Z" fill="#4A83FF"/>
<path d="M111.47 38.6963V52.3009C111.47 52.8971 111.134 53.4217 110.643 53.69C110.415 53.8152 110.157 53.8867 109.882 53.8867H89.6452C89.4834 53.8867 89.3335 53.8629 89.1837 53.8211C88.5303 53.6244 88.0508 53.0223 88.0508 52.3069V38.6963C88.0508 37.8259 88.7641 37.1165 89.6392 37.1165H109.876C110.757 37.1165 111.47 37.8259 111.47 38.6963Z" fill="#4A83FF"/>
<path d="M60.3287 55.8362H40.0924C39.2172 55.8362 38.5039 56.5456 38.5039 57.416V64.111H61.9172V57.416C61.9172 56.5456 61.2039 55.8362 60.3287 55.8362Z" fill="#4A83FF"/>
<path d="M85.104 55.8362H64.8736C63.9985 55.8362 63.2852 56.5456 63.2852 57.416V64.111H86.6985V57.416C86.6925 56.5456 85.9792 55.8362 85.104 55.8362Z" fill="#4A83FF"/>
<path d="M109.876 55.8362H89.6392C88.7641 55.8362 88.0508 56.5456 88.0508 57.416V64.111H111.464V57.416C111.47 56.5456 110.757 55.8362 109.876 55.8362Z" fill="#4A83FF"/>
<path d="M67.1613 49.8795C66.1902 48.395 64.1642 47.4829 64.0083 45.7182C63.9484 45.0624 64.1702 44.341 63.8285 43.7806C63.4509 43.1606 62.5937 43.0652 61.8744 43.1368C61.0772 43.2143 60.238 43.4587 59.7525 44.0847C59.1351 44.8776 59.2729 45.9865 59.0811 46.9701C58.6136 49.3369 56.2699 50.7916 54.1299 51.9243C53.021 52.5145 51.8521 53.1405 51.1808 54.1957C50.0359 55.9842 50.6713 58.3093 50.5754 60.4257C50.4974 62.1009 49.928 63.7583 48.945 65.1235C48.3695 65.9284 47.7701 66.7213 47.1227 67.4665C45.9718 68.79 46.4634 70.5546 48.1297 70.805C49.0648 70.9481 49.976 70.5904 50.3536 69.9764C51.5344 68.0686 55.0051 67.9076 56.2938 67.7228C57.5826 67.538 58.9373 66.9001 59.4288 65.6958C59.8903 64.5631 59.4588 63.2694 59.6446 62.0592C59.9023 60.384 61.275 59.1261 62.5578 58.0172C63.6607 57.0633 64.7696 56.1094 65.8725 55.1556C66.382 54.7144 66.9035 54.2613 67.2572 53.689C67.9645 52.5563 67.8986 51.0062 67.1613 49.8795ZM63.8765 53.8201C62.7016 55.1198 60.8434 55.239 59.3089 55.859C58.1161 56.3419 57.0851 56.9262 55.7424 56.8666C54.8732 56.8248 53.8062 56.5625 53.7823 55.5311C53.7343 53.7486 56.1739 53.4326 57.4447 53.3551C58.23 53.3074 59.0452 53.2478 59.7525 52.902C60.274 52.6457 60.7175 52.2343 61.0113 51.7335C61.2151 51.3937 61.3529 51.0003 61.6347 50.7201C61.8205 50.5352 62.0602 50.4041 62.318 50.3385C63.0613 50.1358 63.9244 50.4816 64.32 51.1433C64.8116 51.972 64.5298 53.0988 63.8765 53.8201Z" fill="#D5F3FB"/>
<path d="M40.8023 72.528C40.8023 72.528 42.6065 85.149 43.9312 85.2622C45.2499 85.3815 50.2011 85.6438 51.7057 85.2622C53.2162 84.8807 54.0494 72.3432 53.6298 72.0452C53.2162 71.7411 40.2508 71.0913 40.8023 72.528Z" fill="#CC6860"/>
<path d="M53.2409 80.1589L52.6534 79.0083C54.2778 78.1855 56.6575 76.5818 56.8733 75.5922C56.9033 75.4551 56.8793 75.3657 56.7954 75.2583C56.154 74.4595 55.0871 74.7218 54.7394 74.8112C53.9542 75.008 53.2948 75.4014 53.2888 75.4074L52.6055 74.3104C52.6414 74.2925 53.4327 73.8097 54.4277 73.5593C56.2619 73.1062 57.2749 73.7977 57.8084 74.4535C58.1381 74.8589 58.252 75.3478 58.1381 75.8664C57.9463 76.7667 57.0651 77.7384 55.4527 78.8354C54.3318 79.6044 53.2828 80.141 53.2409 80.1589Z" fill="#4A83FF"/>
<path d="M45.0125 78.6803C44.5809 76.3434 46.7568 75.4133 48.4292 75.4133C50.0956 75.4133 51.3484 76.6176 51.3484 78.2749C51.3484 79.9323 49.706 81.685 48.0396 81.685C46.3672 81.685 45.3122 80.3139 45.0125 78.6803Z" fill="#C45446"/>
<path d="M47.6749 81.2796C46.8717 81.2796 46.1524 80.9637 45.5949 80.3675C45.0914 79.825 44.7377 79.0798 44.5759 78.2153C44.42 77.3628 44.5879 76.6414 45.0734 76.0572C45.8107 75.1749 47.1054 74.8589 48.0645 74.8589C49.7968 74.8589 51.0556 76.093 51.0556 77.792C51.0556 79.5209 49.3533 81.2796 47.6749 81.2796ZM48.0705 75.0079C47.1414 75.0079 45.8946 75.312 45.1873 76.1526C44.7317 76.701 44.5759 77.3866 44.7257 78.1915C44.8816 79.0261 45.2173 79.7475 45.7088 80.2721C46.2363 80.8385 46.9196 81.1425 47.6809 81.1425C49.2873 81.1425 50.9177 79.4554 50.9177 77.804C50.9117 76.1824 49.7189 75.0079 48.0705 75.0079Z" fill="white"/>
<rect x="39" y="26" width="72" height="7" fill="#5AA3FF"/>
<path d="M132.787 15.4594C132.787 15.4594 137.701 13.2916 138.523 18.3765C138.919 20.8241 136.789 23.2816 137.314 24.5503C137.849 25.8191 139.87 28.5363 138.573 29.8051C138.573 29.8051 138.672 28.5863 137.899 27.6672C137.899 27.6672 138.929 31.0239 136.779 31.4634C134.619 31.893 131.053 29.9549 131.301 26.5483C131.528 23.1417 132.787 15.4594 132.787 15.4594Z" fill="#0B0754"/>
<path d="M129.271 16.2387C129.271 16.2387 130.331 14.7801 133.125 15.2696C135.919 15.7592 135.057 21.5833 132.669 22.5823L129.271 16.2387Z" fill="#0B0754"/>
<path d="M117.697 84.2907C117.756 84.4705 118.093 84.8301 118.965 85H121.184C121.65 84.9201 121.788 84.8202 122.571 84.9201C123.76 85.0699 124.81 85.0699 124.869 84.3207C124.889 84.0609 124.84 83.7912 124.8 83.5414C124.711 83.0719 124.334 82.7123 124.404 82.1728C124.562 80.974 126.078 77.3276 126.078 77.3276L123.472 76.8381C123.472 76.8381 122.809 81.0939 122.085 82.0329C121.441 82.8621 120.599 83.3916 119.628 83.6313C119.519 83.6613 119.41 83.6813 119.302 83.7113C118.43 83.9011 117.627 84.0809 117.697 84.2907Z" fill="#FFB27D"/>
<path d="M117.698 84.2905C117.757 84.4703 118.094 84.83 118.966 84.9998H121.185C121.651 84.9199 121.789 84.82 122.572 84.9199C123.761 85.0697 124.811 85.0697 124.87 84.3205C124.89 84.0607 124.841 83.791 124.801 83.5413C124.028 83.6212 122.879 84.0807 121.76 84.1906C120.382 84.3205 119.312 83.7311 119.312 83.7311L119.303 83.7111C118.431 83.9009 117.628 84.0807 117.698 84.2905Z" fill="#2B276A"/>
<path d="M122.534 79.8951C122.534 79.8951 123.217 80.3547 123.861 80.4645C124.822 80.6444 125.268 80.4446 125.268 80.4446C125.268 80.4446 129.905 68.7163 129.637 64.7503C129.627 64.6504 129.627 64.5505 129.627 64.4506C129.617 63.7612 129.716 62.8422 129.885 61.7932C129.944 61.4036 130.024 61.004 130.103 60.5844C130.291 59.6054 130.519 58.5565 130.767 57.4775C130.876 57.008 130.995 56.5285 131.113 56.049C132.282 51.3537 133.699 46.7383 133.699 46.7383C133.699 46.7383 125.337 43.981 124.862 46.5585C124.684 47.5475 124.079 51.5035 124.347 57.5475C124.565 62.4126 124.426 66.2088 124.01 70.6144C123.643 74.4705 123.019 77.7972 122.534 79.8951Z" fill="#2B276A"/>
<path d="M129.627 64.4505C129.617 63.7612 129.716 62.8421 129.885 61.7932C129.944 61.4036 130.023 61.004 130.103 60.5844C130.291 59.6054 130.519 58.5564 130.767 57.4775C130.876 57.008 130.994 56.5284 131.113 56.0489C130.945 54.6204 130.816 53.6313 130.816 53.6313C130.816 53.6313 127.348 58.3766 129.627 64.4505Z" fill="#1C1860"/>
<path d="M128.25 84.2906C128.31 84.4704 128.647 84.83 129.519 84.9998H131.728C132.194 84.9199 132.332 84.82 133.115 84.9199C134.304 85.0698 135.354 85.0698 135.413 84.3205C135.433 84.0608 135.384 83.7911 135.344 83.5413C135.255 83.0718 134.948 82.7121 134.948 82.1727C134.948 80.5643 135.314 77.6372 135.314 77.6372L132.857 78.5163C132.857 78.5163 133.412 81.4234 132.62 82.0228C131.787 82.6522 131.133 83.3815 130.163 83.6212C130.054 83.6512 129.945 83.6712 129.836 83.7011C128.984 83.9009 128.181 84.0808 128.25 84.2906Z" fill="#FFB27D"/>
<path d="M128.25 84.2905C128.31 84.4703 128.647 84.83 129.519 84.9998H131.728C132.194 84.9199 132.332 84.82 133.115 84.9199C134.304 85.0697 135.354 85.0697 135.413 84.3205C135.433 84.0607 135.384 83.791 135.344 83.5413C134.571 83.6212 133.422 84.0807 132.303 84.1906C130.925 84.3205 129.855 83.7311 129.855 83.7311L129.846 83.7111C128.984 83.9009 128.181 84.0807 128.25 84.2905Z" fill="#2B276A"/>
<path d="M128.665 45.809C128.665 45.809 131.389 59.4853 131.845 66.9279C132.301 74.3705 132.875 80.5343 132.875 80.5343C132.875 80.5343 133.47 80.7541 134.153 80.7141C134.876 80.6742 135.441 80.4444 135.441 80.4444C135.441 80.4444 138.136 69.2456 137.244 64.7601C136.353 60.2746 137.096 56.1487 137.522 52.4224C138.136 47.0877 135.768 44.6102 134.123 42.9219C132.449 41.2136 128.665 45.809 128.665 45.809Z" fill="#2B276A"/>
<path d="M128.069 27.9069L129.377 29.885L132.002 29.7551L133.211 26.5882C133.211 26.5882 132.834 26.5183 132.666 22.5723L129.387 23.5813C129.387 23.5813 129.565 24.6102 129.327 25.7291C129.169 26.5083 128.812 27.3475 128.069 27.9069Z" fill="#FFB27D"/>
<path d="M127.706 26.5185C127.875 26.5185 130.966 25.4795 135.374 27.2877C135.374 27.2877 133.284 39.3656 134.176 41.6633C135.077 43.971 135.414 46.009 135.414 46.009L125.655 46.1289C125.655 46.1289 125.794 38.2168 125.338 35.4196C124.902 32.6324 127.706 26.5185 127.706 26.5185Z" fill="#FFB27D"/>
<path d="M111.508 34.6403C111.537 34.3006 111.646 34.2207 111.646 34.2207C114.767 34.6803 116.828 34.6603 117.848 34.8601C118.641 35.0199 118.968 35.0399 119.106 34.8401C123.416 28.7362 126.468 26.8181 126.468 26.8181C126.468 26.8181 126.795 26.6183 128.063 26.4485C128.063 26.4485 128.241 28.7662 129.43 28.966C131.481 29.3056 133.125 27.4175 133.611 26.6583C133.611 26.6583 135.959 27.2577 136.652 28.0469C137.148 28.6163 137.088 29.9849 136.94 30.8341C136.89 31.1038 136.841 31.3236 136.791 31.4535C136.642 31.8431 136.098 34.6902 135.84 35.8191C135.83 35.8491 135.83 35.8791 135.82 35.899C135.8 35.979 135.79 36.0389 135.771 36.0988C135.761 36.1588 135.741 36.2087 135.731 36.2387C135.721 36.2587 135.721 36.2787 135.711 36.2986C135.345 37.4675 135.127 38.6563 135.255 40.1148C135.275 40.2846 135.305 40.4944 135.364 40.7242C135.691 42.4225 137.049 45.7592 137.336 47.2876C137.177 47.6373 136.801 47.907 136.355 48.1268C135.771 48.4165 135.047 48.6063 134.473 48.7362C134.027 48.8361 133.343 48.956 132.561 49.0459C132.145 49.0958 131.699 49.1358 131.243 49.1558C131.183 49.1558 131.114 49.1658 131.055 49.1658C128.112 49.3156 124.823 49.2357 124.397 47.8271C124.189 47.1478 125.011 43.0918 125.12 41.8831C125.308 39.7652 125.001 36.8581 124.863 34.6103C122.455 37.2876 119.958 38.2567 119.958 38.2567C119.364 38.2267 118.68 38.1168 117.957 37.957C117.184 37.7871 116.382 37.5574 115.609 37.3076C113.43 36.6083 111.369 35.6393 111.369 35.6393C111.369 35.6393 111.438 35.3995 111.508 34.6403Z" fill="#6D89CF"/>
<path d="M128.964 44.6303C129.519 46.5384 129.846 48.0968 131.243 49.1557C131.699 49.1258 132.145 49.0858 132.561 49.0458C133.343 48.9559 134.027 48.8461 134.473 48.7362C135.047 48.6063 135.771 48.4165 136.355 48.1268C136.801 47.907 137.177 47.6373 137.336 47.2876C137.049 45.7591 135.691 42.4125 135.364 40.7242C135.335 40.5543 135.315 40.4145 135.295 40.2846C135.176 38.7661 135.364 37.5174 135.701 36.3086C135.721 36.2486 135.741 36.1787 135.751 36.1188C135.761 36.0788 135.78 36.0089 135.8 35.919C135.81 35.899 135.81 35.869 135.82 35.8391C136.048 34.7601 136.633 31.3935 136.781 30.9539C136.831 30.8141 136.88 30.5743 136.93 30.2846L135.751 29.1458C135.751 29.1458 129.014 32.0429 127.528 36.0488C126.052 40.0349 128.162 41.893 128.964 44.6303Z" fill="#3662C1"/>
<path d="M115.608 37.2977C117.104 37.7773 118.719 38.1968 119.957 38.2568C119.957 38.2568 122.434 37.3377 124.862 34.6104C124.961 34.1509 125.109 33.3217 124.554 33.5415C123.772 33.8512 120.899 37.5875 119.809 37.6674C119.016 37.7273 116.797 37.4576 115.608 37.2977Z" fill="#3662C1"/>
<path d="M120.927 36.2387C120.927 36.2387 124.246 37.917 127.129 38.6163C127.961 38.8161 128.754 38.956 129.437 38.9859C129.437 38.9859 132.558 38.0369 134.896 34.6902C139.226 28.4964 135.936 27.5474 135.936 27.5474C135.936 27.5474 132.885 29.4654 128.575 35.5693C128.427 35.7791 128.05 35.7392 127.069 35.5394C126.019 35.3296 123.939 35.3496 121.066 34.93C121.066 34.93 121.016 35.0399 120.986 35.3795C120.917 36.1388 120.927 36.2387 120.927 36.2387Z" fill="#6D89CF"/>
<path d="M111.366 35.6292C111.366 35.6292 113.417 36.6082 115.606 37.2975C116.379 37.5473 117.192 37.7771 117.954 37.9469C118.262 36.5583 118.053 35.4794 117.836 34.85C116.825 34.6502 114.655 34.6402 111.544 34.1807L111.366 35.6292Z" fill="#E75755"/>
<path d="M112.328 34.3807C112.328 34.3807 111.536 34.2308 110.882 33.8911C110.228 33.5615 108.474 33.3417 108.098 33.6913C107.721 34.041 108.494 35.4796 110.089 35.5295C111.684 35.5695 112.15 35.8392 112.15 35.8392L112.328 34.3807Z" fill="#FDA970"/>
<path d="M109.476 29.4854L118.392 31.2336C118.779 31.3136 119.105 31.6932 119.105 32.0928V38.3066C119.105 38.6962 118.788 38.9559 118.392 38.886L109.476 37.1377C109.089 37.0578 108.762 36.6782 108.762 36.2786V30.0648C108.772 29.6652 109.089 29.4055 109.476 29.4854Z" fill="#2B478B"/>
<path d="M109.128 29.4854L118.044 31.2336C118.431 31.3136 118.758 31.6932 118.758 32.0928V38.3066C118.758 38.6962 118.441 38.9559 118.044 38.886L109.128 37.1377C108.742 37.0578 108.415 36.6782 108.415 36.2786V30.0648C108.415 29.6652 108.732 29.4055 109.128 29.4854Z" fill="#2B478B"/>
<path d="M117.896 31.7231C118.055 31.753 118.184 31.9129 118.184 32.0727C118.184 32.2326 118.055 32.3424 117.896 32.3125C117.738 32.2825 117.609 32.1227 117.609 31.9628C117.599 31.793 117.738 31.6831 117.896 31.7231Z" fill="#2B478B"/>
<path d="M116.895 34.1707C117.291 33.7911 119.163 34.0309 119.867 34.3805C120.273 34.5903 120.739 34.7302 121.046 34.8101C123.919 35.2397 126.019 35.3296 127.069 35.5394C126.743 36.2487 126.495 37.3575 127.129 38.6163C124.375 37.947 121.155 36.4684 120.867 36.3386C120.541 36.2586 119.976 36.1587 119.025 36.1288C117.321 36.0788 116.498 34.5503 116.895 34.1707Z" fill="#FFB27D"/>
<path d="M129.329 25.7291C130.687 25.6192 132.668 22.5723 132.668 22.5723L129.389 23.5813C129.389 23.5813 129.557 24.6102 129.329 25.7291Z" fill="#ED975D"/>
<path d="M128.528 23.8112C128.528 23.8112 132.451 24.6104 132.907 22.1329C133.362 19.6553 134.175 18.0969 131.688 17.4875C129.201 16.8781 128.538 17.7273 128.191 18.5165C127.834 19.2957 127.517 23.5315 128.528 23.8112Z" fill="#FFB27D"/>
<path d="M130.448 16.868C130.448 16.868 130.378 17.7072 131.666 19.1258C132.954 20.5444 132.221 22.7821 132.221 22.7821C132.221 22.7821 134.827 18.9659 133.668 17.6473C132.508 16.3286 130.448 16.868 130.448 16.868Z" fill="#0B0754"/>
<path d="M132.023 15.7692C132.023 15.7692 130.072 15.1098 128.14 17.0379C127.308 17.8671 127.436 19.4954 127.882 20.4445C127.882 20.4445 128.566 18.4165 129.814 17.977C131.062 17.5374 132.023 15.7692 132.023 15.7692Z" fill="#0B0754"/>
<path d="M129.754 22.5924C129.754 22.5924 129.645 22.8821 128.912 22.7523C128.912 22.7523 128.288 22.6424 128.347 22.3127C128.347 22.3127 128.981 22.1429 129.754 22.5924Z" fill="white"/>
</g>
<defs>
<clipPath id="clip0_333_278">
<rect width="167" height="85" fill="white"/>
</clipPath>
</defs>
</svg>
