<svg width="13" height="16" viewBox="0 0 13 16" fill="none" xmlns="http://www.w3.org/2000/svg">
<path d="M6.74937 4.81465C6.16537 4.81465 5.26137 4.15065 4.30937 4.17465C3.05337 4.19065 1.90137 4.90265 1.25337 6.03065C-0.0506256 8.29465 0.917374 11.6387 2.18937 13.4787C2.81337 14.3747 3.54937 15.3827 4.52537 15.3506C5.46137 15.3106 5.81337 14.7427 6.94937 14.7427C8.07737 14.7427 8.39737 15.3507 9.38937 15.3267C10.3974 15.3107 11.0374 14.4147 11.6534 13.5107C12.3654 12.4707 12.6614 11.4627 12.6774 11.4067C12.6534 11.3987 10.7174 10.6546 10.6934 8.41465C10.6774 6.54265 12.2214 5.64665 12.2934 5.60665C11.4134 4.31865 10.0614 4.17465 9.58937 4.14265C8.35737 4.04665 7.32537 4.81465 6.74937 4.81465ZM8.82937 2.92665C9.34937 2.30265 9.69337 1.43065 9.59737 0.56665C8.85337 0.59865 7.95737 1.06265 7.42137 1.68665C6.94137 2.23865 6.52537 3.12665 6.63737 3.97465C7.46137 4.03865 8.30937 3.55065 8.82937 2.92665Z" fill="#97A2AC"/>
</svg>
