<svg width="10" height="9" viewBox="0 0 10 9" fill="none" xmlns="http://www.w3.org/2000/svg">
<path d="M8.1282 0.829102C7.8224 0.829102 7.535 0.948251 7.3187 1.1646L3.08275 5.40745L1.95375 4.27855C1.7376 4.06235 1.4502 3.94325 1.1445 3.94325C0.83875 3.94325 0.55135 4.06235 0.33515 4.2785C0.119 4.49465 0 4.78205 0 5.08775C0 5.39345 0.119 5.68085 0.33515 5.89695L2.27365 7.83545C2.4898 8.05165 2.7772 8.17075 3.08295 8.17075C3.38855 8.17075 3.67605 8.0516 3.89245 7.83525L8.9375 2.78295C9.38365 2.33665 9.3836 1.61055 8.9375 1.16425C8.72135 0.948152 8.4339 0.829102 8.1282 0.829102Z" fill="#175CFF"/>
</svg>
