<svg width="39" height="39" viewBox="0 0 39 39" fill="none" xmlns="http://www.w3.org/2000/svg">
<path d="M32.2889 15.1333C32.1295 15.1823 31.9574 15.1656 31.8106 15.086C31.6634 15.0068 31.5537 14.8711 31.5054 14.7098L31.0838 13.3085C31.0169 13.0904 31.0702 12.8527 31.2236 12.6854C31.3771 12.5185 31.6073 12.4474 31.8267 12.4993C32.0461 12.5515 32.2209 12.7188 32.2854 12.9376L32.7066 14.3386C32.7553 14.5003 32.7385 14.6747 32.66 14.8235C32.5819 14.9727 32.4483 15.0839 32.2889 15.1333ZM23.6434 25.2181L24.3289 27.4994C24.3772 27.6606 24.3607 27.8351 24.2823 27.9843C24.2041 28.1331 24.0703 28.2446 23.9112 28.2937L19.2801 29.7238C18.9479 29.8261 18.5971 29.6357 18.4965 29.2989L17.8115 27.0177C17.7628 26.8561 17.7792 26.6816 17.8577 26.5324C17.9362 26.3836 18.0697 26.2724 18.2292 26.223L22.8596 24.7947C23.1914 24.6924 23.5422 24.8817 23.6434 25.2181ZM22.9444 27.2621L22.6265 26.1978L19.1967 27.2568L19.5166 28.3203L22.9444 27.2621ZM29.61 25.2032C29.3941 25.2682 29.2291 25.4458 29.1776 25.6682C29.1264 25.8906 29.1965 26.1239 29.3612 26.2795C29.5262 26.4348 29.7607 26.4891 29.9758 26.4209L32.7189 25.5744C33.0483 25.47 33.2333 25.1158 33.1327 24.7808C33.0321 24.4462 32.6838 24.2565 32.3527 24.3563L29.61 25.2032ZM31.8288 22.6129L29.0854 23.4598C28.8692 23.5248 28.7045 23.7024 28.653 23.9247C28.6018 24.1471 28.6719 24.3805 28.8366 24.5357C29.0017 24.6913 29.2361 24.7457 29.4512 24.6775L32.1943 23.8306C32.4102 23.7656 32.5752 23.5883 32.6264 23.3656C32.6779 23.1432 32.6078 22.9102 32.4427 22.7546C32.2777 22.599 32.0433 22.545 31.8281 22.6129H31.8288ZM37.5105 29.5732L20.8356 34.7229C20.6043 36.8677 18.9896 38.592 16.8888 38.9376C14.7881 39.2836 12.7178 38.1654 11.8292 36.2049C10.9409 34.2444 11.4521 31.9241 13.0791 30.5333L6.92511 10.0568C6.82629 9.72107 7.01341 9.36797 7.34386 9.26602C7.67395 9.16407 8.02366 9.35163 8.12633 9.68554L14.1801 29.8272C14.198 29.8193 14.2159 29.814 14.2351 29.8062C14.5666 29.6567 14.9139 29.5476 15.2706 29.4808C15.3302 29.4698 15.3898 29.4652 15.45 29.4563C15.5639 29.4393 15.6778 29.4197 15.792 29.413C15.8029 29.413 15.8138 29.4098 15.825 29.4091L15.5166 28.3828L11.0635 13.5777C11.0635 13.5731 11.0635 13.5678 11.0607 13.5632L8.3478 4.53585L2.49866 1.37576C2.30207 1.26778 2.07045 1.24469 1.85669 1.31147C1.5287 1.41271 1.29358 1.70435 1.26064 2.05034C1.22805 2.39633 1.40396 2.72811 1.70672 2.8908L6.70435 5.58909C6.85152 5.6683 6.96155 5.804 7.00991 5.96563L7.47631 7.52435C7.54359 7.74211 7.48998 7.98011 7.33685 8.14706C7.18336 8.31437 6.95314 8.38542 6.73378 8.33356C6.51442 8.28134 6.33921 8.11403 6.27509 7.89521L5.88262 6.58869L1.11381 4.01402C0.362871 3.60835 -0.0726957 2.78423 0.0100025 1.92565C0.0927006 1.06743 0.677545 0.34419 1.49156 0.0934011C2.02454 -0.0728443 2.60133 -0.015653 3.09226 0.252897L9.16987 3.5366C9.3167 3.61617 9.42673 3.75151 9.47508 3.91278L12.0853 12.5973L18.4604 10.628C18.464 10.628 18.4675 10.6248 18.4713 10.6237L22.8463 9.27277C22.8592 9.26816 22.8718 9.26283 22.8848 9.25856L29.8745 7.10164C30.2064 6.99933 30.5572 7.18902 30.6584 7.52507L31.7654 11.207C31.8639 11.5423 31.6767 11.8954 31.3466 11.9973C31.0162 12.0993 30.6668 11.9121 30.5642 11.5778L29.6401 8.50478L23.8523 10.2908L25.4414 15.5791C25.5073 15.799 25.4516 16.0377 25.295 16.2039C25.1387 16.3702 24.9056 16.438 24.6859 16.3815L22.4398 15.8018L20.8937 17.5524C20.7749 17.687 20.6053 17.7641 20.4273 17.7644C20.3818 17.7644 20.3362 17.7595 20.2921 17.7495C20.0699 17.7005 19.8915 17.5335 19.8253 17.3129L18.2365 12.0283L12.4494 13.815L16.4904 27.2621L17.1688 29.5174H17.1744C17.1982 29.5227 17.2214 29.5302 17.2463 29.5359C17.3437 29.5597 17.4404 29.5863 17.5357 29.6162C17.5813 29.6304 17.6261 29.6464 17.6713 29.662C17.7481 29.6886 17.8237 29.7174 17.8987 29.7479C17.9418 29.7654 17.9849 29.7842 18.0273 29.8012C18.1297 29.8463 18.2302 29.8954 18.3287 29.9469L18.3897 29.9799C18.4892 30.0346 18.5859 30.0936 18.6812 30.155C18.7148 30.1771 18.7478 30.2005 18.7814 30.2229C18.8561 30.2744 18.9297 30.328 19.0015 30.3838C19.0327 30.4076 19.0639 30.4318 19.0943 30.4566C19.1855 30.5291 19.2738 30.6079 19.3596 30.6889C19.367 30.6957 19.3747 30.7021 19.382 30.7088L19.3873 30.7142L34.8785 25.9279L32.2875 17.3069C32.2206 17.0888 32.2738 16.8511 32.4273 16.6838C32.5808 16.5169 32.8107 16.4455 33.03 16.4977C33.2494 16.5499 33.4246 16.7169 33.4887 16.936L36.0804 25.5566L36.2879 25.4927C37.3976 25.1506 38.5712 25.7854 38.9086 26.9104C39.2461 28.0354 38.6199 29.2247 37.5101 29.5668L37.5105 29.5732ZM23.9147 14.8686L22.6514 10.6649L19.4378 11.657L20.7017 15.8611L21.7579 14.6651C21.9134 14.4882 22.1535 14.4139 22.3802 14.4726L23.9147 14.8686ZM19.6088 34.2369C19.6116 33.8764 19.5604 33.5176 19.4567 33.1727C19.3845 32.9315 19.2867 32.6992 19.1651 32.4793C19.1294 32.4143 19.0873 32.3532 19.047 32.2906C18.9538 32.1411 18.8494 31.9994 18.7345 31.8665C18.2541 31.3134 17.6138 30.928 16.9046 30.765C16.804 30.7408 16.7017 30.722 16.5987 30.7092C16.4519 30.6886 16.304 30.6779 16.1561 30.6769C16.1204 30.6769 16.0843 30.6786 16.0485 30.6793C15.9297 30.6822 15.811 30.6911 15.6932 30.7067C15.6515 30.7124 15.6098 30.717 15.5685 30.7241C15.416 30.7483 15.2654 30.7824 15.1175 30.8268C13.4117 31.3539 12.3755 33.1038 12.7189 34.8778C13.0623 36.6521 14.6739 37.8751 16.4498 37.71C18.2257 37.5444 19.5905 36.0436 19.6091 34.2359L19.6088 34.2369ZM37.7063 27.2877C37.5704 26.8355 37.0987 26.5808 36.6526 26.7182L35.846 26.9651L20.2223 31.7919C20.2279 31.8015 20.2321 31.8122 20.2374 31.8225C20.2966 31.9276 20.3478 32.0367 20.3989 32.1461C20.4231 32.1986 20.4519 32.2487 20.4746 32.302C20.5412 32.459 20.5994 32.6192 20.6488 32.7823C20.6512 32.7897 20.6548 32.7965 20.6569 32.8039V32.81C20.708 32.9855 20.7497 33.1638 20.7809 33.3439C20.7848 33.3641 20.7918 33.384 20.7949 33.4043L37.1418 28.3562C37.5886 28.2191 37.8416 27.7406 37.7063 27.2877ZM15.3249 31.528C14.7758 31.6985 14.2926 32.0384 13.9429 32.4999C13.7424 32.7791 13.7982 33.1691 14.0683 33.3794C14.3382 33.5897 14.7243 33.5435 14.9384 33.2753C15.3319 32.751 16.0135 32.5432 16.6267 32.7603C17.2403 32.9777 17.6457 33.5705 17.6314 34.2291C17.617 34.8873 17.186 35.4617 16.5636 35.6511C16.1841 35.7687 15.7742 35.7282 15.4241 35.5388C15.074 35.3491 14.8126 35.0266 14.6977 34.6415C14.5971 34.3048 14.246 34.1151 13.9142 34.2174C13.5823 34.3197 13.3948 34.6753 13.4958 35.0117C13.706 35.7214 14.1871 36.3164 14.8319 36.6649C15.477 37.0137 16.2322 37.0873 16.9309 36.8691C18.3862 36.4194 19.2065 34.8589 18.7629 33.3833C18.3192 31.9081 16.7799 31.0765 15.3242 31.5262L15.3249 31.528Z" fill="#175CFF"/>
</svg>
