<svg width="337" height="180" viewBox="0 0 337 180" fill="none" xmlns="http://www.w3.org/2000/svg">
<g clip-path="url(#clip0_120_3816)">
<path d="M26.2247 179.547C26.2247 179.547 -9.12347 141.664 20.2475 100.649C46.3038 64.2619 76.6835 66.7453 98.9716 81.5133C108.465 87.8035 135.835 82.2828 159.13 45.2594C190.898 -5.23825 301.017 25.3895 280.939 103.083C271.222 140.679 310.509 142.046 290.491 179.628L26.2247 179.547Z" fill="#EBF3FA"/>
<path d="M312.844 129.267C310.355 120.093 294.848 122.96 294.848 122.96C294.848 122.96 284.319 139.01 281.256 139.396C278.194 139.782 287.574 123.916 287.574 123.916C281.638 123.343 266.515 130.605 266.515 130.605C266.515 130.605 267.472 149.334 264.409 148.952C261.347 148.571 264.409 132.325 264.409 132.325C258.665 134.045 253.305 140.734 253.305 140.734C246.605 151.628 260.962 159.654 260.962 159.654C260.962 159.654 261.154 166.152 257.134 173.605C257.134 173.605 256.226 174.98 255.304 177.32H256.87C256.998 176.901 257.139 176.495 257.295 176.111C257.295 176.11 257.295 176.108 257.295 176.107C257.295 176.106 257.295 176.105 257.295 176.104L257.303 176.087C257.413 175.846 257.564 175.502 257.756 175.084C258.234 174.149 258.557 173.459 258.762 172.96C260.194 170.025 262.261 166.201 263.637 165.4C263.497 165.176 263.385 164.935 263.307 164.683L263.637 165.4C266.317 171.133 279.715 172.089 287.185 170.56C294.656 169.031 291.397 166.932 287.377 163.517C283.356 160.101 274.933 161.004 272.443 159.669C269.954 158.335 273.593 156.994 278.57 157.376C283.548 157.759 286.036 162.728 294.077 163.492C302.118 164.256 308.243 149.159 308.243 149.159C302.692 150.878 292.737 147.821 292.354 145.909C291.971 143.998 306.712 144.189 309.01 143.616C311.307 143.044 315.333 138.435 312.844 129.267Z" fill="#DFEBFD"/>
<path d="M101.514 131.765C101.514 131.765 102.197 137.214 101.174 137.279C100.151 137.344 100.851 131.151 100.851 131.151C100.851 131.151 95.9823 128.436 94.0023 128.505C94.0023 128.505 96.7905 133.957 95.7818 133.768C94.7731 133.578 91.6094 128.04 91.6094 128.04C91.6094 128.04 86.5252 126.774 85.5132 129.766C84.5012 132.758 85.7401 134.36 86.49 134.603C87.2399 134.846 92.1336 135.076 91.9673 135.702C91.801 136.329 88.4369 137.139 86.6309 136.456C86.6309 136.456 88.3554 141.588 91.0357 141.498C93.716 141.408 94.6443 139.81 96.3038 139.785C97.9633 139.76 99.1405 140.277 98.2859 140.665C97.4314 141.053 94.6586 140.588 93.2557 141.637C91.8528 142.687 90.7307 143.318 93.1753 143.978C95.62 144.637 100.084 144.592 101.09 142.744L101.215 142.514C101.184 142.596 101.142 142.673 101.09 142.744C101.53 143.039 102.137 144.349 102.552 145.352C102.61 145.521 102.703 145.758 102.843 146.079C102.899 146.223 102.944 146.341 102.974 146.424C103.713 148.658 103.019 152.394 103.019 152.394L103.545 152.572C104.95 148.85 103.086 145.607 103.086 145.607C101.904 143.053 102.095 140.902 102.095 140.902C102.095 140.902 107.021 138.532 105.021 134.783C105.024 134.779 103.383 132.455 101.514 131.765Z" fill="#AFCDFB"/>
<path d="M64.6808 156.09C64.2403 149.369 75.2974 147.736 75.2974 147.736C75.2974 147.736 86.0494 156.09 88.1912 155.641C90.333 155.191 80.3948 146.709 80.3948 146.709C84.2423 144.964 96.0548 146.367 96.0548 146.367C96.0548 146.367 99.7196 159.145 101.686 158.188C103.653 157.23 97.8619 147.038 97.8619 147.038C102.109 146.875 107.242 150.132 107.242 150.132C114.24 155.9 106.459 164.574 106.459 164.574C106.459 164.574 107.824 168.971 112.235 173.052C112.235 173.052 113.16 173.766 114.316 175.124L113.266 175.482C113.084 175.23 112.896 174.992 112.703 174.766L112.695 174.757C112.567 174.619 112.384 174.427 112.16 174.188C111.623 173.67 111.248 173.281 110.997 172.994C109.361 171.355 107.096 169.264 105.989 169.037C106.033 168.855 106.053 168.667 106.048 168.479C106.029 168.658 106.009 168.843 105.989 169.037C105.51 173.497 96.7442 177.209 91.3858 177.895C86.0274 178.581 87.7265 176.425 89.6371 173.215C91.5476 170.005 97.4038 168.678 98.7649 167.211C100.126 165.743 97.3796 165.681 94.1299 167.078C90.8803 168.475 90.354 172.378 85.1376 174.732C79.9213 177.087 72.3418 168.368 72.3418 168.368C76.4602 168.25 82.432 163.917 82.2525 162.542C82.073 161.167 72.2317 164.68 70.5567 164.822C68.8818 164.964 65.1213 162.809 64.6808 156.09Z" fill="#CDE0FB"/>
<path d="M271.766 35.5295C271.766 35.5295 270.587 34.6412 270.283 33.3144C270.063 32.325 270.623 31.0927 270.67 31.0366L269.09 30.7222C269.09 30.7222 268.622 32.8109 269.421 34.2059C269.663 34.6314 270.367 35.2184 270.82 35.4382C271.115 35.581 271.45 35.6134 271.766 35.5295Z" fill="#6BB7BF"/>
<path d="M274.511 34.5708L275.942 36.2121C275.942 36.2121 271.88 37.2883 269.555 34.4202C269.564 34.4202 272.983 35.5745 274.511 34.5708Z" fill="#86D1CD"/>
<path d="M200.45 13.9701C200.45 13.9701 201.916 11.5417 204.501 13.028L205.919 11.4889C205.919 11.4889 204.439 10.5106 201.309 12.6377C199.265 14.0294 200.45 13.9701 200.45 13.9701Z" fill="#F99746"/>
<path d="M199.006 16.3523C199.006 16.3523 198.513 13.7041 202.879 11.7506C202.879 11.7506 201.313 12.6378 200.986 15.33L199.006 16.3523Z" fill="#F99746"/>
<path d="M110.023 92.7954C110.023 92.7954 107.623 91.8511 108.565 89.315L106.971 88.2805C106.971 88.2805 106.317 89.7514 108.699 92.2281C110.262 93.8496 110.023 92.7954 110.023 92.7954Z" fill="#5685D8"/>
<path d="M112.379 93.7309C112.379 93.7309 110.078 94.5708 107.666 90.9618C107.666 90.9618 108.698 92.2282 111.162 92.1138L112.379 93.7309Z" fill="#739AF0"/>
<path d="M116.94 59.5714C116.94 59.5714 118.261 58.7359 118.405 57.7267C118.405 57.7267 119.695 57.796 119.974 58.2137C119.974 58.2137 119.381 59.8847 118.683 60.1925C118.683 60.1936 117.115 60.298 116.94 59.5714Z" fill="#F1A34F"/>
<path d="M29.9786 119.942C29.9786 119.942 28.5647 119.051 28.416 117.974C28.416 117.974 27.0395 118.049 26.7422 118.494C26.7422 118.494 27.3743 120.276 28.1187 120.61C28.1187 120.61 29.7925 120.722 29.9786 119.942Z" fill="#F1A34F"/>
<path d="M188.348 41.2711C188.348 41.2711 186.373 40.0256 186.166 38.5228C186.166 38.5228 184.244 38.6327 183.829 39.2494C183.829 39.2494 184.71 41.7383 185.75 42.2055C185.75 42.2022 188.088 42.3594 188.348 41.2711Z" fill="#86D1CD"/>
<path d="M309.553 35.4834L321.825 73.8403C322.084 74.6558 322.009 75.5404 321.617 76.3011C321.225 77.0618 320.548 77.637 319.733 77.9012L252.329 99.3925C251.512 99.6508 250.626 99.5762 249.864 99.1849C249.102 98.7937 248.526 98.1175 248.261 97.3039L235.984 58.9404C235.725 58.125 235.8 57.2406 236.192 56.4801C236.584 55.7195 237.261 55.1446 238.076 54.8806L305.48 33.3881C306.299 33.1288 307.187 33.2036 307.95 33.5963C308.713 33.989 309.29 34.6675 309.553 35.4834Z" fill="#CDE0FB"/>
<path d="M270.79 84.2408L252.826 89.9692C252.459 90.0848 252.062 90.0509 251.72 89.8751C251.378 89.6992 251.12 89.3956 251.002 89.0304L250.947 88.8578C250.831 88.4919 250.865 88.0952 251.041 87.7541C251.217 87.4131 251.522 87.1554 251.887 87.0374L269.852 81.31C270.219 81.1942 270.616 81.2279 270.958 81.4038C271.3 81.5797 271.558 81.8835 271.676 82.2488L271.731 82.4203C271.847 82.7862 271.813 83.1831 271.637 83.5243C271.461 83.8654 271.156 84.123 270.79 84.2408Z" fill="#AFCDFB"/>
<path d="M294.464 76.6927L276.499 82.4201C276.132 82.5356 275.735 82.5018 275.393 82.3259C275.052 82.15 274.794 81.8464 274.675 81.4813L274.62 81.3087C274.505 80.9429 274.538 80.5463 274.715 80.2054C274.891 79.8645 275.195 79.6071 275.561 79.4893L293.525 73.7608C293.892 73.6453 294.289 73.6792 294.631 73.855C294.973 74.0309 295.231 74.3345 295.349 74.6997L295.404 74.8722C295.52 75.2382 295.486 75.6349 295.31 75.976C295.134 76.317 294.829 76.5747 294.464 76.6927Z" fill="#AFCDFB"/>
<path d="M273.082 63.7343C273.291 64.3888 273.349 64.9608 273.254 65.4504C273.2 65.7304 273.072 65.9908 272.882 66.2042C272.693 66.4176 272.449 66.5761 272.177 66.6629C271.905 66.7498 271.615 66.7618 271.337 66.6978C271.058 66.6337 270.802 66.496 270.596 66.299C270.235 65.9553 269.949 65.4562 269.74 64.8018C269.531 64.1473 269.472 63.5779 269.564 63.0935C269.619 62.8122 269.748 62.5507 269.939 62.3365C270.129 62.1224 270.374 61.9633 270.648 61.8761C270.921 61.7889 271.213 61.7767 271.493 61.8408C271.772 61.9048 272.03 62.0429 272.238 62.2404C272.591 62.5826 272.873 63.0806 273.082 63.7343ZM272.256 63.9938C272.153 63.6413 271.995 63.3073 271.787 63.0044C271.509 62.6317 271.208 62.4965 270.882 62.601C270.556 62.7054 270.379 62.9901 270.371 63.4485C270.373 63.8184 270.437 64.1853 270.558 64.5346C270.915 65.6508 271.379 66.1176 271.949 65.9352C272.279 65.8296 272.446 65.5434 272.45 65.0766C272.444 64.7077 272.378 64.3422 272.256 63.9938Z" fill="#AFCDFB"/>
<path d="M276.77 62.5579C276.979 63.2123 277.036 63.7843 276.941 64.2739C276.888 64.5546 276.76 64.8157 276.57 65.0296C276.38 65.2435 276.136 65.4023 275.864 65.4893C275.591 65.5762 275.3 65.588 275.021 65.5235C274.743 65.4589 274.486 65.3204 274.28 65.1226C273.918 64.7788 273.632 64.2798 273.423 63.6253C273.214 62.9709 273.155 62.4014 273.247 61.917C273.302 61.6357 273.431 61.3743 273.622 61.1602C273.813 60.946 274.058 60.787 274.331 60.6998C274.605 60.6126 274.897 60.6004 275.177 60.6645C275.456 60.7285 275.714 60.8665 275.922 61.0639C276.279 61.4069 276.561 61.9049 276.77 62.5579ZM275.945 62.8173C275.842 62.4646 275.683 62.1307 275.475 61.8279C275.197 61.4549 274.896 61.3204 274.571 61.4245C274.245 61.5286 274.075 61.8111 274.06 62.2721C274.062 62.6419 274.125 63.009 274.247 63.3582C274.604 64.4736 275.067 64.9404 275.638 64.7587C275.967 64.6532 276.134 64.367 276.138 63.9001C276.132 63.5312 276.067 63.1656 275.945 62.8173Z" fill="#AFCDFB"/>
<path d="M282.36 60.7807C282.569 61.4344 282.626 62.0064 282.532 62.4967C282.479 62.7774 282.35 63.0385 282.161 63.2524C281.971 63.4662 281.727 63.625 281.454 63.7119C281.181 63.7988 280.89 63.8106 280.611 63.7461C280.333 63.6816 280.076 63.5432 279.87 63.3454C279.509 63.0002 279.223 62.5008 279.014 61.847C278.805 61.1933 278.746 60.6242 278.837 60.1398C278.892 59.8585 279.021 59.5971 279.212 59.383C279.403 59.1689 279.648 59.0099 279.921 58.9227C280.195 58.8354 280.487 58.8232 280.766 58.8873C281.046 58.9513 281.304 59.0893 281.512 59.2868C281.869 59.6231 282.152 60.1211 282.36 60.7807ZM281.535 61.0401C281.431 60.6878 281.273 60.3539 281.066 60.0508C280.787 59.6781 280.486 59.544 280.16 59.6484C279.834 59.7529 279.657 60.0365 279.649 60.496C279.651 60.8659 279.715 61.2329 279.837 61.5821C280.193 62.6975 280.657 63.1644 281.227 62.9826C281.556 62.8771 281.723 62.5909 281.729 62.1241C281.723 61.7533 281.657 61.3858 281.535 61.0357V61.0401Z" fill="#AFCDFB"/>
<path d="M286.049 59.5998C286.258 60.2543 286.315 60.8263 286.22 61.3158C286.167 61.5965 286.039 61.8576 285.849 62.0716C285.659 62.2855 285.415 62.4443 285.143 62.5312C284.87 62.6182 284.579 62.63 284.3 62.5654C284.021 62.5009 283.765 62.3624 283.559 62.1645C283.197 61.8201 282.911 61.321 282.702 60.6672C282.493 60.0135 282.434 59.4441 282.526 58.9589C282.581 58.6776 282.71 58.4162 282.901 58.2021C283.092 57.9879 283.337 57.829 283.61 57.7417C283.884 57.6545 284.176 57.6423 284.455 57.7064C284.735 57.7704 284.993 57.9084 285.201 58.1058C285.557 58.4481 285.84 58.9461 286.049 59.5998ZM285.224 59.8592C285.121 59.5065 284.962 59.1725 284.754 58.8699C284.476 58.4976 284.175 58.3631 283.849 58.4664C283.524 58.5698 283.354 58.8523 283.339 59.314C283.34 59.6839 283.404 60.0509 283.526 60.4001C283.882 61.5163 284.346 61.9831 284.917 61.8006C285.245 61.6951 285.412 61.4089 285.416 60.9421C285.411 60.5731 285.346 60.2075 285.224 59.8592Z" fill="#AFCDFB"/>
<path d="M289.738 58.4235C289.947 59.078 290.004 59.65 289.909 60.1395C289.856 60.4202 289.728 60.6813 289.538 60.8953C289.348 61.1092 289.104 61.268 288.832 61.3549C288.559 61.4419 288.268 61.4537 287.989 61.3891C287.71 61.3246 287.454 61.1861 287.248 60.9882C286.886 60.6438 286.6 60.1447 286.391 59.491C286.182 58.8372 286.123 58.2678 286.215 57.7826C286.27 57.5013 286.399 57.24 286.59 57.0258C286.781 56.8117 287.026 56.6527 287.299 56.5655C287.573 56.4783 287.865 56.4661 288.144 56.5301C288.424 56.5942 288.682 56.7321 288.89 56.9296C289.247 57.2726 289.53 57.7706 289.738 58.4235ZM288.913 58.683C288.81 58.3304 288.651 57.9964 288.443 57.6936C288.165 57.3213 287.864 57.1868 287.538 57.2902C287.208 57.4001 287.034 57.6793 287.026 58.1377C287.029 58.5076 287.092 58.8745 287.214 59.2238C287.57 60.34 288.034 60.8068 288.604 60.6243C288.935 60.5188 289.102 60.2326 289.106 59.7658C289.099 59.3969 289.034 59.0314 288.913 58.683Z" fill="#AFCDFB"/>
<path d="M293.426 57.2473C293.635 57.901 293.692 58.473 293.598 58.9633C293.545 59.2441 293.417 59.5053 293.227 59.7193C293.037 59.9333 292.793 60.0922 292.52 60.1792C292.248 60.2663 291.956 60.2782 291.678 60.2137C291.399 60.1493 291.142 60.0108 290.936 59.8131C290.575 59.4679 290.289 58.9684 290.079 58.3147C289.869 57.661 289.81 57.0915 289.903 56.6064C289.958 56.3251 290.087 56.0637 290.278 55.8496C290.469 55.6354 290.714 55.4764 290.987 55.3892C291.261 55.302 291.553 55.2898 291.832 55.3538C292.112 55.4179 292.37 55.5559 292.578 55.7533C292.934 56.1 293.217 56.598 293.426 57.2473ZM292.601 57.5067C292.498 57.154 292.339 56.82 292.13 56.5173C291.853 56.1443 291.552 56.0098 291.226 56.1139C290.901 56.218 290.731 56.5005 290.715 56.9615C290.718 57.3313 290.781 57.6982 290.903 58.0476C291.259 59.1637 291.723 59.6306 292.293 59.4481C292.623 59.344 292.79 59.0578 292.795 58.5895C292.788 58.2206 292.723 57.8551 292.601 57.5067Z" fill="#AFCDFB"/>
<path d="M299.016 55.4655C299.226 56.1199 299.283 56.6919 299.188 57.1815C299.135 57.4622 299.006 57.7233 298.817 57.9372C298.627 58.1511 298.383 58.3099 298.11 58.3969C297.838 58.4838 297.547 58.4956 297.268 58.431C296.989 58.3665 296.733 58.228 296.527 58.0301C296.165 57.685 295.879 57.1855 295.67 56.5318C295.461 55.8781 295.402 55.309 295.494 54.8246C295.548 54.5433 295.678 54.2819 295.869 54.0677C296.06 53.8536 296.305 53.6946 296.578 53.6074C296.851 53.5202 297.143 53.508 297.423 53.572C297.703 53.6361 297.96 53.7741 298.168 53.9715C298.524 54.313 298.806 54.811 299.016 55.4655ZM298.192 55.7238C298.088 55.3714 297.929 55.0375 297.721 54.7344C297.444 54.3614 297.142 54.2269 296.817 54.331C296.487 54.4409 296.313 54.7201 296.305 55.1785C296.308 55.5484 296.371 55.9153 296.492 56.2647C296.849 57.3801 297.313 57.8469 297.883 57.6652C298.214 57.5596 298.381 57.2734 298.384 56.8066C298.378 56.4378 298.313 56.0723 298.192 55.7238Z" fill="#AFCDFB"/>
<path d="M302.704 54.2946C302.914 54.9483 302.971 55.5203 302.876 56.0106C302.823 56.2915 302.695 56.5529 302.505 56.767C302.316 56.9812 302.072 57.1402 301.799 57.2272C301.526 57.3141 301.235 57.3259 300.956 57.2611C300.677 57.1963 300.421 57.0575 300.215 56.8593C299.853 56.5156 299.568 56.0165 299.358 55.362C299.148 54.7076 299.089 54.1381 299.182 53.6537C299.236 53.3724 299.366 53.111 299.557 52.8969C299.748 52.6828 299.993 52.5238 300.266 52.4366C300.539 52.3493 300.831 52.3371 301.111 52.4012C301.391 52.4652 301.648 52.6032 301.856 52.8007C302.213 53.137 302.496 53.635 302.704 54.2946ZM301.88 54.554C301.777 54.2013 301.618 53.8673 301.409 53.5647C301.132 53.1916 300.83 53.0572 300.505 53.1612C300.18 53.2653 300.01 53.5478 299.994 54.0088C299.996 54.3787 300.059 54.7457 300.181 55.0949C300.538 56.2103 301.002 56.6772 301.572 56.4954C301.901 56.3899 302.068 56.1037 302.073 55.6369C302.067 55.2661 302.002 54.8987 301.88 54.5486V54.554Z" fill="#AFCDFB"/>
<path d="M306.393 53.1129C306.602 53.7674 306.66 54.3394 306.565 54.8289C306.512 55.1096 306.383 55.3707 306.194 55.5847C306.004 55.7986 305.76 55.9574 305.487 56.0443C305.215 56.1313 304.924 56.1431 304.645 56.0785C304.366 56.014 304.11 55.8755 303.903 55.6776C303.542 55.3332 303.256 54.8341 303.047 54.1804C302.838 53.5266 302.779 52.9572 302.871 52.472C302.925 52.1907 303.055 51.9293 303.246 51.7152C303.437 51.5011 303.681 51.3421 303.955 51.2549C304.228 51.1677 304.52 51.1554 304.8 51.2195C305.08 51.2836 305.337 51.4215 305.545 51.619C305.901 51.962 306.184 52.4599 306.393 53.1129ZM305.568 53.3724C305.465 53.0199 305.306 52.6859 305.098 52.383C304.821 52.0107 304.519 51.8762 304.194 51.9795C303.869 52.0829 303.699 52.3654 303.683 52.8271C303.685 53.1969 303.748 53.564 303.869 53.9132C304.228 55.0294 304.692 55.4962 305.261 55.3137C305.59 55.2082 305.757 54.922 305.761 54.4552C305.755 54.0863 305.69 53.7208 305.568 53.3724Z" fill="#AFCDFB"/>
<path d="M310.082 51.9367C310.291 52.5911 310.349 53.1631 310.254 53.6527C310.201 53.9335 310.072 54.1947 309.883 54.4087C309.693 54.6227 309.449 54.7816 309.176 54.8686C308.903 54.9556 308.612 54.9676 308.333 54.9031C308.054 54.8387 307.798 54.7002 307.591 54.5024C307.23 54.1573 306.945 53.6578 306.736 53.0041C306.526 52.3504 306.468 51.7809 306.56 51.2958C306.614 51.0145 306.744 50.7531 306.935 50.5389C307.126 50.3248 307.37 50.1658 307.644 50.0786C307.917 49.9914 308.209 49.9792 308.489 50.0432C308.769 50.1073 309.026 50.2453 309.234 50.4427C309.59 50.7857 309.873 51.2837 310.082 51.9367ZM309.256 52.1961C309.153 51.8437 308.995 51.5098 308.787 51.2067C308.51 50.8344 308.208 50.7 307.883 50.8033C307.553 50.9132 307.379 51.1924 307.371 51.6509C307.373 52.0207 307.437 52.3876 307.558 52.737C307.915 53.8531 308.379 54.32 308.949 54.1375C309.279 54.0275 309.446 53.7461 309.45 53.28C309.444 52.9107 309.378 52.5448 309.256 52.1961Z" fill="#AFCDFB"/>
<path d="M260.73 54.1199L243.149 59.7263C242.783 59.8418 242.385 59.8078 242.043 59.6317C241.702 59.4556 241.444 59.1517 241.326 58.7864C241.21 58.4206 241.244 58.024 241.42 57.6832C241.596 57.3423 241.901 57.0849 242.266 56.9671L259.847 51.3606C260.213 51.2451 260.611 51.2791 260.953 51.4552C261.294 51.6313 261.552 51.9352 261.67 52.3005C261.786 52.6663 261.753 53.063 261.576 53.404C261.4 53.7449 261.096 54.0023 260.73 54.1199Z" fill="#AFCDFB"/>
<path d="M303.431 43.7413C303.277 43.2594 302.963 42.8444 302.541 42.565C302.513 42.5464 302.481 42.5338 302.448 42.5283C302.415 42.5228 302.381 42.5244 302.348 42.5331C302.315 42.5417 302.285 42.5571 302.259 42.5784C302.233 42.5996 302.211 42.6262 302.196 42.6563L302.141 42.7662C302.115 42.817 302.108 42.8756 302.123 42.9309C302.137 42.9862 302.171 43.0344 302.218 43.0663C302.523 43.271 302.75 43.5725 302.862 43.9222C302.974 44.2718 302.965 44.6489 302.835 44.9923C302.815 45.0458 302.815 45.1047 302.835 45.1581C302.856 45.2115 302.895 45.2557 302.945 45.2825L303.055 45.3397C303.085 45.3549 303.117 45.3637 303.15 45.3657C303.184 45.3676 303.217 45.3625 303.248 45.3508C303.279 45.3391 303.307 45.321 303.331 45.2977C303.355 45.2744 303.373 45.2464 303.386 45.2154C303.569 44.7436 303.585 44.2234 303.431 43.7413Z" fill="#AFCDFB"/>
<path d="M304.571 43.3787C304.318 42.5865 303.783 41.914 303.068 41.4879C303.04 41.4717 303.009 41.4615 302.977 41.4577C302.945 41.454 302.912 41.4568 302.881 41.4661C302.85 41.4753 302.821 41.4908 302.797 41.5116C302.772 41.5324 302.752 41.558 302.737 41.5868L302.705 41.6495C302.679 41.7033 302.673 41.7651 302.691 41.8226C302.708 41.8802 302.746 41.929 302.798 41.9595C303.394 42.3188 303.839 42.8819 304.051 43.5442C304.263 44.2065 304.227 44.923 303.95 45.5608C303.925 45.6161 303.923 45.6787 303.944 45.7355C303.964 45.7923 304.006 45.8392 304.06 45.8664L304.122 45.8994C304.15 45.9152 304.182 45.9249 304.214 45.9279C304.247 45.9308 304.28 45.927 304.311 45.9167C304.342 45.9064 304.37 45.8897 304.395 45.8678C304.419 45.8459 304.438 45.8193 304.452 45.7895C304.786 45.0274 304.828 44.1698 304.571 43.3787Z" fill="#AFCDFB"/>
<path d="M305.568 43.0596C305.229 42.0002 304.505 41.106 303.539 40.5532C303.511 40.5371 303.48 40.5268 303.448 40.5231C303.416 40.5193 303.383 40.5222 303.352 40.5314C303.321 40.5407 303.292 40.5562 303.268 40.5769C303.243 40.5977 303.223 40.6233 303.208 40.6522C303.181 40.7061 303.176 40.7684 303.193 40.8263C303.211 40.8842 303.249 40.9332 303.302 40.9633C304.166 41.4583 304.813 42.2581 305.117 43.2055C305.42 44.1529 305.357 45.1792 304.94 46.0827C304.915 46.1375 304.911 46.2 304.931 46.2573C304.95 46.3146 304.99 46.3623 305.044 46.3905C305.073 46.4061 305.104 46.4157 305.137 46.4186C305.169 46.4215 305.202 46.4177 305.233 46.4073C305.264 46.397 305.293 46.3805 305.317 46.3586C305.341 46.3368 305.361 46.3103 305.374 46.2806C305.84 45.2689 305.909 44.1197 305.568 43.0596Z" fill="#AFCDFB"/>
<path d="M306.65 42.7155C306.219 41.3651 305.289 40.2291 304.05 39.5386C304.022 39.5224 303.991 39.5122 303.958 39.5086C303.926 39.5049 303.894 39.5078 303.863 39.5172C303.832 39.5266 303.803 39.5422 303.778 39.5631C303.754 39.5839 303.734 39.6096 303.719 39.6386L303.664 39.7485C303.637 39.8028 303.631 39.8657 303.649 39.9239C303.667 39.9821 303.707 40.0312 303.76 40.0607C304.865 40.6795 305.694 41.6936 306.08 42.8986C306.465 44.1035 306.378 45.4096 305.837 46.5532C305.811 46.6081 305.807 46.6709 305.826 46.7284C305.846 46.786 305.887 46.8339 305.94 46.8621L306.051 46.9182C306.079 46.934 306.111 46.9437 306.143 46.9466C306.176 46.9496 306.209 46.9458 306.24 46.9355C306.271 46.9252 306.299 46.9085 306.324 46.8866C306.348 46.8647 306.367 46.838 306.381 46.8083C306.988 45.5276 307.084 44.0643 306.65 42.7155Z" fill="#AFCDFB"/>
<path d="M261.289 68.7878H222.914V179.135H261.289V68.7878Z" fill="#FFA412"/>
<path d="M222.914 68.7878H121.531V179.135H222.914V68.7878Z" fill="#FFB93E"/>
<path d="M222.914 130.492V122.768H121.531V130.492H222.914Z" fill="#FFA412"/>
<path d="M261.29 130.492V122.768H222.914V130.492H261.29Z" fill="#FA9712"/>
<path d="M191.431 69.9708C191.431 69.9708 214.336 55.1126 229.906 59.8869L226.693 62.8814L228.141 67.914C228.141 67.914 210.827 62.2856 190.958 70.8173L191.431 69.9708Z" fill="#F99746"/>
<path d="M190.15 66.6068C190.15 66.6068 186.109 66.1187 180.085 65.2876C164.095 63.089 134.144 58.4983 128.77 54.2473C120.323 47.569 140.34 19.2081 149.004 15.2714C157.668 11.3348 190.15 66.6068 190.15 66.6068Z" fill="#F99746"/>
<path d="M253.521 31.2883C254.964 38.315 189.556 68.6646 189.556 68.6646C189.556 68.6646 190.746 65.4524 192.681 60.4198V60.4121C199.753 42.0406 216.789 -0.590452 222.387 -0.000126303C222.949 0.0581368 223.607 0.25821 224.342 0.580306C232.946 4.36301 252.19 24.8178 253.521 31.2883Z" fill="#F99746"/>
<path d="M223.795 6.83423C219.8 13.7598 193.104 59.702 192.685 60.4187C199.757 42.0471 216.793 -0.58387 222.391 0.00645596C222.391 0.00645596 223.5 -0.025424 224.346 0.586888C225.367 1.32892 225.997 3.00975 223.795 6.83423Z" fill="#ED7D2B"/>
<path d="M180.097 65.2878H180.086C164.095 63.0891 134.144 58.4985 128.77 54.2474C126.348 47.4208 132.641 46.8656 137.225 46.3852C141.809 45.9048 180.097 65.2878 180.097 65.2878Z" fill="#ED7D2B"/>
<path d="M177.951 68.7802C177.951 68.7802 181.618 60.453 188.834 59.9913C196.372 59.5098 200.652 68.7802 200.652 68.7802H177.951Z" fill="#ED7D2B"/>
<path d="M224.541 68.7878H118.458V83.9648H224.541V68.7878Z" fill="#FFC261"/>
<path d="M264.525 68.7878H224.541V83.9648H264.525V68.7878Z" fill="#FA9712"/>
<path d="M181.667 67.517C181.667 67.517 160.889 60.9465 146.869 65.2909C130.708 70.2982 131.666 90.2044 131.666 90.2044L135.466 88.6445L140.598 91.0476C140.598 91.0476 141.463 69.9684 154.639 67.0179C166.032 64.4664 181.667 67.517 181.667 67.517Z" fill="#F99746"/>
<path d="M171.008 68.7878H163.271V179.123H171.008V68.7878Z" fill="#FFA412"/>
<path d="M99.9844 35.6598L92.8813 38.0365L99.7385 58.4596L106.841 56.0829L99.9844 35.6598Z" fill="#ED7D2B"/>
<path d="M92.8813 38.0371L74.1167 44.3158L80.9738 64.7389L99.7384 58.4602L92.8813 38.0371Z" fill="#F99746"/>
<path d="M96.8225 49.7724L96.3394 48.3406L77.5383 54.6628L78.0214 56.0946L96.8225 49.7724Z" fill="#FFB93E"/>
<path d="M103.95 47.4238L103.467 45.992L96.3505 48.3851L96.8336 49.8169L103.95 47.4238Z" fill="#F69B34"/>
<path d="M87.6986 39.4234C87.6986 39.4234 92.5758 34.8921 96.9189 34.5414L96.2978 35.3439L97.018 36.153C97.018 36.153 92.1673 36.4828 87.6348 39.6158L87.6986 39.4234Z" fill="#FFB93E"/>
<path d="M86.6802 39.6641C86.6802 39.6641 85.9027 39.8246 84.7366 40.0445C81.64 40.6282 75.8114 41.633 74.5517 41.179C72.5695 40.4655 74.5153 33.9774 75.8731 32.7143C77.2309 31.4512 86.6802 39.6641 86.6802 39.6641Z" fill="#FFB93E"/>
<path d="M96.2157 29.2029C96.9194 30.4121 86.6992 40.086 86.6992 40.086C86.6992 40.086 86.7201 39.4176 86.7653 38.3666C86.9327 34.529 87.4359 25.584 88.5085 25.3465C88.6398 25.3215 88.7743 25.3167 88.9071 25.3322C90.734 25.4927 95.5671 28.0871 96.2157 29.2029Z" fill="#FFB93E"/>
<path d="M89.1941 26.5176C88.8847 28.0467 86.7979 38.2032 86.7715 38.3615C86.9389 34.5238 87.4421 25.5788 88.5147 25.3413C88.6433 25.298 88.7819 25.2931 88.9133 25.327C89.1423 25.4018 89.3637 25.6733 89.1941 26.5176Z" fill="#F69B34"/>
<path d="M84.7377 40.0432C81.6412 40.6269 75.8126 41.6317 74.5528 41.1777C73.6795 40.0641 74.8105 39.5716 75.6287 39.1989C76.4468 38.8263 84.7377 40.0432 84.7377 40.0432Z" fill="#F69B34"/>
<path d="M84.5581 40.8215C84.5581 40.8215 84.7189 39.0538 86.026 38.5217C87.3915 37.9655 88.7591 39.4155 88.7591 39.4155L84.5581 40.8215Z" fill="#F69B34"/>
<path d="M93.1807 37.9362L73.5464 44.506L74.4895 47.315L94.1238 40.7453L93.1807 37.9362Z" fill="#FFA15A"/>
<path d="M100.582 35.4596L93.1812 37.9358L94.1243 40.7449L101.525 38.2686L100.582 35.4596Z" fill="#F78639"/>
<path d="M85.1673 40.3577C85.1673 40.3577 80.9134 40.4291 78.5888 42.1012C75.9085 44.0283 77.3224 47.6538 77.3224 47.6538L77.9291 47.1294L79.0303 47.2569C79.0303 47.2569 77.8807 43.2994 80.1315 41.9396C82.0839 40.7611 85.1673 40.3577 85.1673 40.3577Z" fill="#FFBE55"/>
<path d="M83.2733 41.2532L81.8418 41.7322L88.758 62.3314L90.1895 61.8524L83.2733 41.2532Z" fill="#FFB93E"/>
<path d="M223.716 80.4945C223.716 80.4945 220.907 82.1434 222.631 85.3468C222.631 85.3468 220.171 84.8983 219.64 84.165C219.672 84.324 219.723 84.4784 219.794 84.6245C219.794 84.6245 217.533 84.1123 216.794 83.1713C216.055 82.2303 219.681 70.947 225.558 73.869C225.558 73.869 230.932 74.8649 228.827 80.821C226.721 86.777 228.711 87.3068 228.711 87.3068C228.711 87.3068 228.085 87.4322 227.819 87.3618C227.819 87.3618 227.468 87.1101 227.448 86.8748C227.448 86.8748 227.436 87.2332 227.507 87.3673C227.507 87.3673 225.305 87.0034 224.448 85.9107C223.592 84.818 223.077 81.6674 223.716 80.4945Z" fill="#233862"/>
<path d="M219.66 90.0836H219.65C219.632 90.0847 219.637 90.0836 219.66 90.0836Z" fill="#FFB27D"/>
<path d="M226.488 88.1211C226.57 88.8598 226.668 89.5216 226.708 89.8371C226.807 90.545 220.084 90.0844 219.66 90.0833C219.959 89.9536 220.871 87.0657 221.16 85.9642C221.509 84.6286 221.784 83.1852 221.784 83.1852L226.531 83.4853L226.814 83.5029C226.651 84.1024 226.522 84.7105 226.427 85.3244C226.416 85.4003 226.405 85.4783 226.395 85.5531C226.309 86.1819 226.385 87.2097 226.488 88.1211Z" fill="#FFB27D"/>
<path d="M221.13 82.7081C221.13 82.7081 220.359 80.2721 220.516 78.4032C220.626 77.0698 222.529 72.5198 227.102 74.4556C228.023 74.8406 228.847 75.4265 229.512 76.1706C230.359 77.139 231.45 79.0353 228.692 82.7158L227.89 83.9932L221.13 82.7081Z" fill="#233862"/>
<path d="M226.487 88.1214C223.166 87.1507 221.758 83.3219 221.758 83.3219C223.162 83.3625 224.992 84.3354 226.427 85.3248C226.416 85.4007 226.405 85.4787 226.395 85.5535C226.309 86.1823 226.385 87.2101 226.487 88.1214Z" fill="#ED975D"/>
<path d="M226.722 86.7758C226.722 86.7758 220.724 85.295 221.703 81.5816C222.682 77.8681 222.57 75.1726 226.438 75.9608C230.305 76.749 230.676 78.3617 230.651 79.6809C230.626 81 228.31 87.066 226.722 86.7758Z" fill="#FFB27D"/>
<path d="M229.191 76.5884C229.191 76.5884 226.399 80.514 223.719 80.4942C221.039 80.4745 220.128 79.517 220.128 79.517C220.128 79.517 222.458 78.499 223.564 75.9398C223.56 75.9398 228.504 74.1919 229.191 76.5884Z" fill="#233862"/>
<path d="M228.688 76.8358C228.688 76.8358 229.651 78.1308 229.698 79.1554C229.746 80.1799 229.363 82.162 229.948 82.2466C229.948 82.2466 231.966 79.6083 231.025 77.5691C230.029 75.4013 228.688 76.8358 228.688 76.8358Z" fill="#233862"/>
<path d="M228.876 77.0427C228.876 77.0427 226.5 81.2982 222.946 81.9226C222.946 81.9226 226.856 79.9559 227.924 77.0142C228.992 74.0724 228.876 77.0427 228.876 77.0427Z" fill="#233862"/>
<path d="M225.786 84.3948C225.786 84.3948 225.861 84.9598 226.227 85.0939C226.592 85.228 227.548 85.4699 227.645 85.4105C227.808 85.2542 227.961 85.0867 228.101 84.9092C228.101 84.9092 226.586 84.3299 225.786 84.3948Z" fill="white"/>
<path d="M223.546 141.223C223.47 141.542 223.393 141.856 223.318 142.167C222.867 144.044 222.445 145.783 222.181 147.24C221.836 149.134 221.755 150.538 222.207 151.136C224.069 153.574 222.207 172.925 222.207 172.925L220.086 175.108C220.086 175.108 216.401 156.003 215.401 153.012C214.946 151.651 214.284 145.839 213.7 139.905C213.67 139.612 213.641 139.315 213.613 139.015C213.511 137.977 213.413 136.944 213.32 135.937C212.795 130.322 212.402 125.515 212.402 125.515C212.402 125.515 216.312 122.767 219.864 122.466C221.956 122.283 223.925 122.948 224.896 125.515C226.313 129.242 224.878 135.69 223.546 141.223Z" fill="#FFB27D"/>
<path d="M223.546 141.223C220.641 139.134 216.555 135.397 215.067 129.293C214.783 126.256 217.182 123.369 219.859 122.458C221.952 122.275 223.92 122.941 224.892 125.507C226.312 129.242 224.877 135.69 223.546 141.223Z" fill="#ED975D"/>
<path d="M234.14 104.324L248.415 108.005V109.669C248.415 109.669 234.21 109.503 233.293 107.923C232.375 106.343 234.14 104.324 234.14 104.324Z" fill="#FFB27D"/>
<path d="M248.414 159.174L247.747 161.922C247.747 161.922 228.436 151.965 225.943 150.049C224.94 149.28 223.614 145.109 222.385 140.39C220.556 133.354 218.945 125.11 218.945 125.11C218.945 125.11 221.652 114.716 228.899 121.077C233.235 124.884 232.562 132.219 232.092 137.924C231.776 141.752 231.548 144.85 232.987 145.649C235.791 147.211 244.023 154.41 246.628 159.364L248.414 159.174Z" fill="#FFB27D"/>
<path d="M215.656 112.971C210.613 111.691 205.069 103.88 205.069 103.88L206.489 102.65C207.959 104.38 214.073 107.36 214.073 107.36C214.04 105.777 214.081 104.333 214.183 103.018C214.861 94.083 218.235 91.106 219.157 90.4531C219.231 90.3984 219.309 90.3485 219.39 90.3036C219.39 90.3036 219.39 90.3684 219.399 90.4904C219.412 90.7565 219.437 91.2918 219.462 92.0295C219.647 97.4974 219.87 114.043 215.656 112.971Z" fill="#FFB27D"/>
<path d="M219.65 102.248C219.388 108.624 218.433 114.934 215.654 114.528C212.24 114.032 211.359 110.857 211.178 108.497C211.109 107.623 211.126 106.745 211.227 105.874C211.227 105.874 212.904 105.866 213.176 105.617C214.464 104.429 214.081 92.7812 214.718 91.572C215.354 90.3627 219.493 89.5822 219.493 89.5822C219.493 89.5822 219.91 95.9483 219.65 102.248Z" fill="white"/>
<path d="M219.65 102.249C219.388 108.625 218.433 114.935 215.654 114.528C212.24 114.032 211.359 110.857 211.178 108.497C212.015 108.455 213.49 108.251 214.073 107.36C214.91 106.084 217.524 97.8734 217.524 97.8734C217.524 97.8734 218.552 99.7169 219.65 102.249Z" fill="#DFEBFD"/>
<path d="M241.145 104.324C242.068 105.633 241.559 108.171 239.622 110.216C238.42 111.486 236.791 112.237 234.14 111.846C232.983 111.676 229.755 109.855 229.414 107.637C229.354 107.235 229.32 106.999 229.32 106.999C229.32 106.999 227.85 108.469 227.794 108.746C227.769 108.872 227.643 109.982 227.623 110.134C227.6 110.317 227.733 110.991 227.733 110.991C227.733 110.991 220.709 114.058 214.902 110.566C214.902 110.566 213.25 96.4011 214.436 94.0442C215.026 92.8734 218.341 90.5935 219.495 89.5865C219.755 89.3589 220.018 88.6763 219.946 88.2365C219.888 87.865 220.316 87.2384 220.675 87.3571C221.369 87.577 223.334 88.5498 224.716 88.1794C225.404 87.9969 226.276 87.2021 226.943 87.3846C227.759 87.6044 226.898 89.5656 227.36 89.592C227.997 89.6228 231.434 90.3098 231.726 90.8639C231.826 91.0563 232.814 93.6704 234.054 97.1299C234.054 97.1328 234.054 97.1358 234.054 97.1387C236.378 103.619 239.79 102.402 241.145 104.324Z" fill="white"/>
<path d="M229.32 107C229.32 107 229.149 101.597 228.711 101.663C228.272 101.729 221.965 107.791 223.464 110.216C224.962 112.641 229.32 107 229.32 107Z" fill="#DFEBFD"/>
<path d="M234.14 129.157C234.14 129.157 231.707 129.907 228.125 130.402C223.689 131.014 217.489 131.235 211.951 129.157C211.951 129.157 211.495 120.93 212.806 116.643C214.118 112.355 214.732 110.301 214.732 110.301C214.732 110.301 219.989 111.62 225.328 110.596C226.087 110.454 226.835 110.262 227.568 110.019C227.568 110.019 230.861 116.999 231.767 119.99C232.672 122.981 234.14 129.157 234.14 129.157Z" fill="#1C468A"/>
<path d="M234.139 129.157C234.139 129.157 231.707 129.907 228.125 130.402C221.556 126.683 224.758 111.034 224.758 111.034C224.953 110.877 225.144 110.731 225.328 110.595C226.086 110.452 226.835 110.26 227.568 110.017C227.568 110.017 230.861 116.997 231.766 119.988C232.672 122.979 234.139 129.157 234.139 129.157Z" fill="#233862"/>
<path d="M220.315 111.847C216.421 111.847 214.81 110.509 214.699 110.417L214.447 108.586C214.485 108.615 219.71 111.746 227.797 108.746L227.625 110.134C224.513 111.287 222.338 111.847 220.315 111.847Z" fill="#B64C41"/>
<path d="M248.416 108.006C248.416 108.006 251.034 106.717 252.076 106.593C253.118 106.469 254.866 106.426 254.866 106.593C254.866 106.76 252.994 107.921 252.492 108.006C251.99 108.09 251.034 108.796 251.326 108.885C251.618 108.974 253.158 108.615 253.179 108.885C253.2 109.155 252.242 109.325 252.078 109.529C251.914 109.734 251.328 109.987 250.391 109.859C249.454 109.732 248.418 109.672 248.418 109.672L248.416 108.006Z" fill="#FFB27D"/>
<path d="M206.487 102.645L205.063 103.885C205.063 103.885 202.53 102.041 202.412 101.284V101.209C202.412 100.423 204.018 98.79 205.35 98.7296C205.477 98.727 205.603 98.7581 205.714 98.8197C206.424 99.2595 206.509 101.111 206.502 102.066C206.506 102.416 206.487 102.645 206.487 102.645Z" fill="#FFB27D"/>
<path d="M248.415 159.174L247.747 161.922C247.747 161.922 228.437 151.965 225.944 150.049C224.941 149.28 223.615 145.109 222.386 140.39C224.038 140.727 227.594 140.908 232.087 137.919C231.771 141.746 231.543 144.844 232.981 145.643C235.786 147.205 244.018 154.405 246.623 159.358L248.415 159.174Z" fill="#2B478B"/>
<path d="M252.232 160.241H252.215C252.129 160.219 251.731 160.088 251.468 159.458C251.294 159.043 251.242 158.702 251.084 158.291L250.431 157.167C249.749 156.271 249.51 156.481 249.51 156.481C249.51 156.481 249.332 156.709 249.07 157.01C248.629 157.507 247.969 158.2 247.495 158.378C247.22 158.477 246.983 158.662 246.82 158.904C246.724 159.044 246.655 159.201 246.62 159.367C246.62 159.367 248.019 159.61 247.898 160.299C247.66 161.633 247.716 161.875 247.741 161.919L247.748 161.927C247.748 161.927 250.137 163.175 250.901 163.42C252.26 163.854 252.969 164.777 253.41 165.198C253.497 165.282 253.603 165.345 253.719 165.382C253.835 165.418 253.958 165.428 254.078 165.409C254.437 165.352 254.902 165.237 255.003 165.018L252.232 160.241Z" fill="#233862"/>
<path d="M222.207 151.136C224.069 153.574 222.207 172.925 222.207 172.925L220.086 175.108C220.086 175.108 216.4 156.003 215.401 153.012C214.946 151.651 214.284 145.839 213.699 139.905C215.461 140.692 219.777 142.406 223.318 142.173C222.867 144.05 222.445 145.789 222.181 147.245C221.836 149.134 221.754 150.543 222.207 151.136Z" fill="#233862"/>
<path d="M224.338 176.074L223.194 176.693C222.778 176.839 222.435 176.882 222.014 177.043C221.375 177.287 220.925 177.768 220.904 177.854C220.581 179.164 220.123 179.081 220.123 179.081L215.527 179.124C215.307 179.014 215.678 178.089 215.858 177.915C216.292 177.487 217.592 177.702 218.067 176.359C218.334 175.604 219.652 173.257 219.652 173.257L219.662 173.249C219.706 173.226 219.951 173.177 221.279 173.452C221.965 173.594 222.249 172.204 222.249 172.204C222.414 172.246 222.57 172.321 222.706 172.424C222.944 172.593 223.123 172.834 223.215 173.112C223.379 173.588 224.053 174.274 224.536 174.722C224.83 174.994 225.054 175.178 225.054 175.178C225.054 175.178 225.255 175.42 224.338 176.074Z" fill="#233862"/>
<path d="M178.141 123.156H158.625V179.274H178.141V123.156Z" fill="#4A75CB"/>
<path d="M158.624 123.156H107.064V179.274H158.624V123.156Z" fill="#739AF0"/>
<path d="M158.625 154.536V150.608H107.065V154.536H158.625Z" fill="#AFCDFB"/>
<path d="M178.141 154.536V150.608H158.624V154.536H178.141Z" fill="#88B3FF"/>
<path d="M144.677 122.293C144.677 122.293 160.483 115.131 171.502 117.853L169.299 119.323L170.408 121.917C170.408 121.917 158.15 118.729 144.357 122.717L144.677 122.293Z" fill="#4A75CB"/>
<path d="M141.969 122.018C141.969 122.018 139.914 121.77 136.851 121.35C128.718 120.233 113.485 117.897 110.752 115.734C106.458 112.339 116.636 97.9148 121.042 95.9129C125.448 93.9111 141.969 122.018 141.969 122.018Z" fill="#72A9F7"/>
<path d="M174.196 104.058C174.931 107.631 141.666 123.068 141.666 123.068C141.666 123.068 142.272 121.435 143.256 118.876C146.853 109.532 155.517 87.853 158.363 88.1531C158.707 88.2014 159.041 88.3007 159.354 88.4477C163.733 90.3649 173.52 100.767 174.196 104.058Z" fill="#72A9F7"/>
<path d="M159.079 91.6216C157.047 95.1393 143.471 118.507 143.258 118.872C146.855 109.528 155.519 87.8487 158.366 88.1489C158.718 88.1488 159.062 88.2512 159.357 88.4435C159.879 88.8216 160.201 89.6758 159.079 91.6216Z" fill="#4A75CB"/>
<path d="M136.856 121.352C128.724 120.235 113.491 117.899 110.758 115.737C109.524 112.266 112.726 111.983 115.053 111.739C117.379 111.495 136.856 121.352 136.856 121.352Z" fill="#4A75CB"/>
<path d="M135.765 123.124C135.765 123.124 137.629 118.89 141.299 118.655C145.132 118.41 147.31 123.124 147.31 123.124H135.765Z" fill="#4A75CB"/>
<path d="M159.452 123.156H105.502V130.874H159.452V123.156Z" fill="#88B3FF"/>
<path d="M179.786 123.156H159.451V130.874H179.786V123.156Z" fill="#3969B7"/>
<path d="M137.648 122.51C137.648 122.51 127.076 119.169 119.95 121.378C111.732 123.925 112.219 134.048 112.219 134.048L114.153 133.256L116.761 134.477C116.761 134.477 117.202 123.758 123.902 122.256C129.697 120.959 137.648 122.51 137.648 122.51Z" fill="#4A75CB"/>
<path d="M132.227 123.156H128.292V179.758H132.227V123.156Z" fill="#AFCDFB"/>
<path d="M44.6314 100.114C44.6314 100.114 59.1671 110.746 62.7195 110.49C66.272 110.234 78.8641 102.478 78.8641 102.478L76.2003 99.3179C76.2003 99.3179 64.7986 103.535 62.7107 102.372C60.6228 101.209 52.4696 91.3402 49.0471 91.8668C45.6246 92.3934 42.2429 96.2882 44.6314 100.114Z" fill="#233862"/>
<path d="M36.0575 180H31.7133C31.1627 179.703 30.6782 179.025 30.5251 178.014C30.3126 176.615 28.7434 175.855 28.4042 174.716C28.0651 173.577 29.8038 171.968 29.8038 171.968L30.0956 171.59L30.3985 171.202L33.2814 171.88C33.2814 171.88 33.353 172.566 33.397 173.439C33.4278 174.069 33.4444 174.797 33.4091 175.436C33.3243 176.959 33.8364 178.601 35.192 178.897C36.194 179.112 36.1522 179.705 36.0575 180Z" fill="#233862"/>
<path d="M61.2702 180H51.3353C50.8574 179.418 51.0336 177.27 51.1052 176.569C51.1206 176.427 51.1305 176.349 51.1305 176.349C51.1305 176.349 54.5233 173.64 54.9847 175.715C54.999 175.779 55.0166 175.843 55.0353 175.906C55.6222 177.846 58.2552 178.728 59.7759 178.974C60.7692 179.129 61.1348 179.642 61.2702 180Z" fill="#233862"/>
<path d="M59.4421 124.56C59.4421 124.56 58.9268 130.976 58.3211 138.689C57.4985 149.166 56.5086 162.036 56.4106 164.474C56.241 168.708 55.5626 175.479 55.5626 175.479C55.5626 175.479 53.9516 177.088 50.7284 176.41C50.7284 176.41 47.8565 166.743 47.0361 156.513C47.0229 156.346 47.0108 156.177 46.9976 156.008C46.2345 145.596 45.0474 123.67 45.0474 123.67L59.4421 124.56Z" fill="#1C468A"/>
<path d="M59.3772 124.638C59.3772 124.638 58.8618 131.054 58.2562 138.767L46.9712 156.592C46.958 156.425 46.9458 156.256 46.9326 156.088C46.1695 145.675 44.9824 123.75 44.9824 123.75L59.3772 124.638Z" fill="#163560"/>
<path d="M57.089 125.322C57.089 125.322 47.8038 148.56 41.6976 159.48C35.5915 170.401 33.6843 173.448 33.6843 173.448C33.6843 173.448 30.1869 172.051 29.8687 171.099C29.8687 171.099 32.2032 150.016 36.2919 144.877C38.6044 141.973 41.3166 133.259 41.4433 130.21C41.5699 127.162 42.2703 121.132 42.2703 121.132L57.089 125.322Z" fill="#1C468A"/>
<path d="M50.908 92.3138C47.4426 93.8814 40.8398 91.5685 40.8398 91.5685C40.8398 91.5685 43.8604 88.6806 43.0576 83.5271L46.1134 85.4333L48.1892 86.7238C48.2632 87.5538 48.2911 88.3873 48.2729 89.2204C48.2729 89.6403 48.2564 90.1097 48.231 90.6242C49.2197 91.0186 50.1271 91.5914 50.908 92.3138Z" fill="#FFB27D"/>
<path d="M48.1892 86.7241C48.2632 87.5541 48.2912 88.3875 48.2729 89.2206C46.1333 89.1107 43.3462 86.0172 43.3462 86.0172C44.3769 85.5775 45.3052 85.4126 46.1135 85.4302L48.1892 86.7241Z" fill="#ED975D"/>
<path d="M49.2808 86.5095C49.2808 86.5095 43.4445 88.2123 42.4435 84.5714C41.4425 80.9305 40.0066 78.6989 43.6878 77.4556C47.3691 76.2123 48.478 77.4039 49.1101 78.5384C49.7422 79.6729 50.7718 85.973 49.2808 86.5095Z" fill="#FFB27D"/>
<path d="M59.7383 122.35C59.9211 124.028 60.0048 125.073 59.9652 125.115C59.8729 125.22 59.746 125.289 59.6073 125.31C58.2528 125.454 54.3987 126.677 51.018 126.739C48.1714 126.808 45.5803 126.276 42.7591 125.4C42.3847 125.283 41.5136 124.946 41.485 124.548C41.4442 124.108 41.4123 123.477 41.3749 122.679C41.2317 119.9 40.9895 115.12 40.0061 109.69C39.8255 108.678 39.6757 107.671 39.5502 106.677C38.6274 99.2692 39.3134 92.5734 42.0047 90.0098C42.236 89.7987 43.8768 90.3693 45.3887 90.8991C46.7839 91.3905 48.1086 91.3037 49.3233 90.8991L50.7009 91.8478C52.3857 93.0702 54.2764 94.7797 55.3468 97.5928C56.2597 99.986 57.156 104.391 57.9114 108.976C58.2528 111.056 58.581 113.153 58.8398 115.15L58.8486 115.222C58.8904 115.418 58.9168 115.636 58.94 115.834C58.9884 116.189 59.035 116.538 59.0798 116.88C59.3551 119.009 59.582 120.912 59.7383 122.35Z" fill="#2B478B"/>
<path d="M42.3958 84.2155C42.3958 84.2155 42.9938 84.0397 42.7934 83.2119C42.593 82.3841 42.463 81.287 43.1711 81.409C43.8792 81.531 43.9794 82.0686 44.2227 81.7201C44.4661 81.3716 44.3075 80.0184 46.3304 79.6886C48.3533 79.3588 49.2662 79.9568 50.1625 79.4281C51.0589 78.8993 50.9334 77.4636 50.9334 77.4636C50.9334 77.4636 50.7264 78.0067 50.3398 78.2177C50.3398 78.2177 51.6613 75.8718 49.6516 74.6142C47.6419 73.3566 45.8987 74.5472 44.8493 74.7384C42.5368 75.1606 41.0469 75.4805 40.4699 77.1009C39.8928 78.7212 40.722 82.9239 42.3958 84.2155Z" fill="#2B478B"/>
<path d="M59.7385 122.351C59.4533 122.402 54.4804 123.294 51.0997 121.071C47.6177 118.782 43.54 105.211 43.54 105.211C43.54 105.211 51.3585 113.896 51.5104 114.233C51.6371 114.522 57.2763 116.311 59.0745 116.872C59.3553 119.01 59.5822 120.913 59.7385 122.351Z" fill="#233862"/>
<path d="M100.269 78.7859L61.5923 79.3385L62.1458 117.949L100.822 117.396L100.269 78.7859Z" fill="#ED7D2B"/>
<path d="M92.0134 78.9036L53.3369 79.4562L53.8905 118.066L92.5669 117.514L92.0134 78.9036Z" fill="#F99746"/>
<path d="M58.3963 91.3181C58.3445 87.6739 60.8475 84.6926 64.6081 84.6398C68.3323 84.5859 70.8849 87.4595 70.9344 91.14C70.9862 94.7479 68.4843 97.7655 64.7226 97.8194C61.0006 97.8721 58.4514 94.9996 58.3963 91.3181ZM79.7319 84.7223L84.1201 84.6596L65.6454 110.689L61.2572 110.752L79.7319 84.7223ZM67.0682 91.1983C67.0428 89.4679 66.0628 87.9729 64.5883 87.9938C63.0389 88.0158 62.2494 89.4998 62.2758 91.2664C62.3011 92.9967 63.2812 94.4929 64.7557 94.472C66.2995 94.4467 67.0891 92.9253 67.0649 91.195L67.0682 91.1983ZM74.4461 104.28C74.3944 100.636 76.8974 97.6544 80.658 97.6006C84.3833 97.5478 86.9347 100.42 86.9843 104.102C87.0361 107.709 84.5342 110.727 80.7725 110.78C77.045 110.826 74.4957 107.954 74.4428 104.272L74.4461 104.28ZM83.1125 104.157C83.0872 102.427 82.1071 100.93 80.6326 100.951C79.0833 100.973 78.2937 102.457 78.3201 104.225C78.3455 105.955 79.3255 107.45 80.8011 107.429C82.3439 107.4 83.1334 105.879 83.1092 104.149L83.1125 104.157Z" fill="white"/>
<path d="M72.8109 119.295C71.5049 119.27 69.83 118.71 69.2937 118.443C68.7994 118.21 68.3386 117.912 67.9238 117.556L68.0615 116.699L68.2267 115.673C68.2267 115.673 68.328 115.658 68.4953 115.64C68.6627 115.623 68.8973 115.605 69.1627 115.599C69.2989 115.634 69.4416 115.635 69.5783 115.603C69.7151 115.57 69.8419 115.505 69.9478 115.413C70.3024 115.096 70.9565 114.882 71.452 115C71.9476 115.119 73.0102 115.008 73.0433 115.181C73.1269 115.598 71.5776 115.522 71.3915 115.784C71.3391 115.844 71.3115 115.921 71.3144 116C71.3172 116.08 71.3503 116.155 71.4069 116.211H71.4135C72.3209 117.124 75.4438 117.456 75.3194 118.182C75.2765 118.457 73.3626 119.305 72.8109 119.295Z" fill="#FFB27D"/>
<path d="M41.1595 100.011C41.1595 100.011 48.3172 116.52 51.5107 118.093C54.7041 119.666 69.2949 118.444 69.2949 118.444L69.3907 115.626C69.3907 115.626 56.8272 113.142 55.6148 111.085C54.4024 109.028 52.3652 96.398 49.1464 95.1262C45.9276 93.8543 41.0372 95.5098 41.1595 100.011Z" fill="#2B478B"/>
<path d="M294.146 144.205C293.987 144.301 293.826 144.394 293.663 144.484C293.607 144.515 293.553 144.545 293.497 144.574C293.37 144.641 293.244 144.706 293.116 144.77C290.103 146.25 286.629 146.494 283.437 145.45C280.246 144.405 277.591 142.155 276.041 139.181C274.491 136.206 274.169 132.744 275.143 129.536C276.118 126.328 278.312 123.628 281.256 122.014C281.421 121.924 281.587 121.837 281.754 121.755C281.921 121.672 282.084 121.595 282.243 121.525C283.466 120.981 284.766 120.631 286.097 120.489C289 120.181 291.922 120.87 294.381 122.441C296.841 124.011 298.691 126.371 299.627 129.132C300.564 131.892 300.531 134.889 299.534 137.628C298.537 140.368 296.636 142.687 294.142 144.203L294.146 144.205Z" fill="#FFB93E"/>
<path d="M287.543 145.073C284.691 145.077 281.935 144.041 279.793 142.161C277.651 140.281 276.27 137.685 275.909 134.86C275.548 132.036 276.231 129.177 277.831 126.82C279.431 124.463 281.838 122.769 284.6 122.058C287.361 121.346 290.288 121.664 292.831 122.954C295.374 124.243 297.359 126.414 298.413 129.06C299.466 131.706 299.517 134.645 298.554 137.325C297.592 140.006 295.683 142.243 293.185 143.619C291.457 144.57 289.516 145.07 287.543 145.073ZM287.523 122.39C285.109 122.391 282.762 123.185 280.843 124.649C278.925 126.112 277.541 128.165 276.906 130.49C276.271 132.815 276.418 135.285 277.327 137.518C278.235 139.751 279.853 141.625 281.932 142.85C284.012 144.075 286.437 144.584 288.834 144.299C291.231 144.013 293.468 142.949 295.201 141.27C296.933 139.591 298.064 137.39 298.421 135.006C298.778 132.622 298.339 130.188 297.174 128.077C296.221 126.354 294.824 124.918 293.126 123.918C291.429 122.917 289.494 122.39 287.523 122.39Z" fill="#FFA412"/>
<path d="M287.533 124.776L290.114 129.999L295.888 130.837L291.71 134.902L292.697 140.643L287.533 137.932L282.369 140.643L283.355 134.902L279.177 130.837L284.951 129.999L287.533 124.776Z" fill="#FFA412"/>
<path d="M301.846 112.986C301.757 113.04 301.666 113.096 301.575 113.144L301.48 113.194C301.408 113.233 301.338 113.269 301.265 113.304C299.633 114.104 297.759 114.262 296.015 113.748C294.272 113.234 292.785 112.084 291.85 110.528C290.915 108.971 290.6 107.121 290.967 105.343C291.334 103.565 292.356 101.99 293.832 100.929C294.069 100.759 294.316 100.603 294.572 100.463C294.664 100.411 294.758 100.362 294.853 100.316C294.948 100.27 295.037 100.227 295.129 100.186C295.82 99.8788 296.554 99.6818 297.306 99.6023C298.945 99.4287 300.594 99.8172 301.982 100.704C303.369 101.59 304.414 102.922 304.942 104.48C305.471 106.038 305.452 107.73 304.889 109.276C304.327 110.822 303.254 112.13 301.846 112.986Z" fill="#FFB93E"/>
<path d="M298.125 113.476C296.517 113.477 294.963 112.893 293.755 111.832C292.547 110.771 291.768 109.306 291.565 107.713C291.362 106.12 291.748 104.508 292.651 103.178C293.554 101.849 294.911 100.894 296.469 100.493C298.027 100.092 299.678 100.272 301.112 100.999C302.546 101.727 303.665 102.952 304.26 104.444C304.854 105.937 304.882 107.594 304.339 109.106C303.796 110.618 302.719 111.88 301.31 112.656C300.335 113.192 299.239 113.475 298.125 113.476ZM298.113 100.674C296.751 100.675 295.426 101.123 294.343 101.949C293.261 102.775 292.48 103.934 292.121 105.246C291.763 106.558 291.846 107.952 292.359 109.213C292.872 110.473 293.785 111.53 294.958 112.222C296.132 112.913 297.5 113.201 298.854 113.039C300.207 112.878 301.469 112.278 302.447 111.33C303.425 110.383 304.063 109.141 304.264 107.795C304.466 106.45 304.219 105.076 303.561 103.884C303.023 102.911 302.233 102.1 301.274 101.535C300.315 100.97 299.221 100.673 298.108 100.674H298.113Z" fill="#FFA412"/>
<path d="M298.114 102.021L299.571 104.968L302.83 105.441L300.472 107.735L301.028 110.975L298.114 109.446L295.199 110.975L295.756 107.735L293.398 105.441L296.656 104.968L298.114 102.021Z" fill="#FFA412"/>
<path d="M177.451 19.1718C177.399 19.2367 177.341 19.3005 177.288 19.3631C177.27 19.3851 177.25 19.406 177.231 19.4269C177.187 19.4742 177.143 19.5214 177.098 19.5676C176.078 20.6028 174.705 21.2182 173.252 21.2923C171.799 21.3663 170.371 20.8936 169.251 19.9674C168.13 19.0413 167.398 17.7292 167.199 16.2905C167.001 14.8517 167.35 13.3909 168.178 12.1968C168.313 12.0044 168.46 11.8208 168.619 11.6471C168.675 11.5833 168.729 11.5218 168.792 11.4613C168.854 11.4009 168.902 11.3448 168.966 11.2898C169.144 11.1203 169.334 10.9628 169.533 10.8182C169.822 10.6064 170.131 10.4224 170.454 10.2686C171.646 9.701 172.996 9.55548 174.281 9.85596C175.567 10.1564 176.712 10.885 177.527 11.9217C178.343 12.9584 178.78 14.2414 178.767 15.5594C178.755 16.8775 178.293 18.1519 177.458 19.1729L177.451 19.1718Z" fill="#CDE0FB"/>
<path d="M172.995 20.8351C171.604 20.8335 170.27 20.2857 169.28 19.3101C168.291 18.3345 167.726 17.0094 167.707 15.6212C167.688 14.2331 168.217 12.8932 169.18 11.8912C170.142 10.8892 171.461 10.3056 172.851 10.2663C174.242 10.2271 175.591 10.7355 176.609 11.6816C177.627 12.6277 178.231 13.9355 178.291 15.3226C178.351 16.7096 177.861 18.0644 176.929 19.0942C175.996 20.1241 174.695 20.7463 173.306 20.8263C173.202 20.8329 173.098 20.8351 172.995 20.8351ZM173.008 10.5808C172.91 10.5808 172.813 10.5808 172.714 10.5896C171.415 10.6671 170.198 11.2516 169.327 12.2171C168.456 13.1825 168.001 14.4513 168.059 15.7492C168.117 17.0472 168.685 18.2702 169.639 19.1539C170.593 20.0377 171.857 20.5113 173.158 20.4723C174.459 20.4334 175.692 19.8851 176.591 18.946C177.491 18.0068 177.984 16.7521 177.964 15.4529C177.945 14.1538 177.414 12.9146 176.486 12.0029C175.559 11.0913 174.31 10.5805 173.008 10.5808Z" fill="#AFCDFB"/>
<path d="M171.704 11.8815L173.592 13.7206L176.179 13.2106L175.011 15.5708L176.297 17.8705L173.686 17.4901L171.894 19.4216L171.449 16.8262L169.055 15.7203L171.39 14.4956L171.704 11.8815Z" fill="#AFCDFB"/>
<path d="M160.463 175.328C160.369 175.444 160.271 175.559 160.17 175.671L160.068 175.781C159.989 175.866 159.91 175.949 159.83 176.031C157.932 177.961 155.354 179.074 152.646 179.132C149.938 179.19 147.314 178.188 145.335 176.341C143.357 174.495 142.18 171.949 142.056 169.247C141.932 166.546 142.871 163.903 144.672 161.883C144.774 161.773 144.877 161.664 144.982 161.554C145.086 161.444 145.188 161.346 145.293 161.247C146.078 160.504 146.975 159.889 147.952 159.424C150.08 158.41 152.491 158.15 154.787 158.687C157.083 159.223 159.128 160.524 160.585 162.376C162.041 164.228 162.823 166.519 162.801 168.873C162.779 171.227 161.954 173.504 160.463 175.328Z" fill="#CDE0FB"/>
<path d="M152.501 178.296C150.008 178.297 147.616 177.318 145.84 175.572C144.064 173.826 143.048 171.453 143.01 168.965C142.973 166.477 143.918 164.074 145.641 162.276C147.363 160.478 149.726 159.429 152.217 159.355C154.708 159.281 157.129 160.189 158.955 161.882C160.782 163.575 161.867 165.918 161.978 168.404C162.088 170.889 161.215 173.319 159.546 175.167C157.876 177.015 155.546 178.133 153.058 178.28C152.872 178.296 152.686 178.296 152.501 178.296ZM152.525 159.98C152.351 159.98 152.177 159.98 152.002 159.995C149.678 160.132 147.502 161.176 145.943 162.902C144.384 164.628 143.568 166.896 143.671 169.218C143.774 171.539 144.787 173.727 146.493 175.309C148.198 176.89 150.459 177.739 152.785 177.67C155.112 177.602 157.319 176.622 158.928 174.943C160.537 173.264 161.42 171.02 161.386 168.697C161.352 166.373 160.403 164.156 158.745 162.525C157.087 160.894 154.853 159.98 152.525 159.98Z" fill="#AFCDFB"/>
<path d="M150.197 162.301L153.569 165.587L158.191 164.676L156.104 168.893L158.401 173L153.738 172.321L150.535 175.77L149.74 171.134L145.464 169.159L149.636 166.972L150.197 162.301Z" fill="#AFCDFB"/>
<path d="M4.89386 179.124H307.953C308.044 179.124 308.131 179.16 308.195 179.224C308.26 179.289 308.296 179.376 308.296 179.467V179.584C308.296 179.675 308.26 179.763 308.195 179.827C308.131 179.891 308.044 179.927 307.953 179.927H4.89497C4.80374 179.927 4.71624 179.891 4.65163 179.827C4.58703 179.763 4.55058 179.675 4.55029 179.584V179.467C4.55029 179.376 4.58649 179.289 4.65092 179.224C4.71535 179.16 4.80274 179.124 4.89386 179.124Z" fill="#2E3552"/>
<path d="M192.979 108.531C192.979 108.531 191.548 109.509 189.946 109.349C188.758 109.229 187.59 108.133 187.545 108.061L186.6 109.701C186.6 109.701 188.762 111.01 190.615 110.652C191.182 110.542 192.103 109.979 192.519 109.552C192.79 109.278 192.954 108.916 192.979 108.531Z" fill="#6BB7BF"/>
<path d="M192.941 105.113L195.316 104.131C195.316 104.131 194.985 109.06 190.911 110.566C190.91 110.566 193.488 107.192 192.941 105.113Z" fill="#86D1CD"/>
<path d="M209.606 164.027C209.606 164.027 210.644 165.2 211.664 165.177C211.664 165.177 211.8 166.46 211.431 166.801C211.431 166.801 209.686 166.482 209.264 165.845C209.259 165.845 208.911 164.315 209.606 164.027Z" fill="#F99746"/>
<path d="M193.333 147.902C193.333 147.902 192.394 146.764 192.407 145.403C192.418 144.391 193.257 143.321 193.314 143.277L191.852 142.605C191.852 142.605 190.909 144.531 191.355 146.068C191.492 146.538 192.04 147.277 192.429 147.592C192.683 147.8 193.004 147.91 193.333 147.902Z" fill="#CDE0FB"/>
<path d="M196.226 147.607L197.24 149.536C197.24 149.536 193.04 149.639 191.45 146.311C191.45 146.306 194.503 148.228 196.226 147.607Z" fill="#CDE0FB"/>
</g>
<defs>
<clipPath id="clip0_120_3816">
<rect width="337" height="180" rx="12" fill="white"/>
</clipPath>
</defs>
</svg>
