<svg width="40" height="40" viewBox="0 0 40 40" fill="none" xmlns="http://www.w3.org/2000/svg">
<path d="M20.2599 39.9519C20.1012 40.0159 19.9238 40.0159 19.7655 39.9519C13.0701 37.2239 8.38166 33.1677 5.83539 27.8942C3.81754 23.7188 3.58423 19.66 3.58423 16.9704V8.00377C3.58423 7.64174 3.87751 7.34846 4.23954 7.34846C5.78237 7.34846 6.9255 6.91658 7.63786 6.0649C8.90386 4.55023 8.48734 2.14036 8.48296 2.11622C8.45151 1.94325 8.491 1.76517 8.59193 1.62145C8.69323 1.47774 8.84755 1.38083 9.02088 1.35194C9.35585 1.29672 17.2488 0 20.0127 0C22.0386 0.0866675 24.0579 0.288892 26.0604 0.606307C26.4173 0.657869 26.6652 0.987717 26.6159 1.34463C26.5665 1.70154 26.2385 1.95167 25.8812 1.90449C23.9376 1.59805 21.9782 1.39985 20.0127 1.31062C17.7875 1.31062 11.7866 2.23727 9.84733 2.54627C9.91206 3.54496 9.84733 5.45932 8.64898 6.8983C7.78779 7.93209 6.52727 8.51536 4.89485 8.63567V16.9718C4.89485 20.7863 4.89485 32.3526 20.0127 38.6358C35.1312 32.3526 35.1301 20.7859 35.1301 16.9718V8.63531C33.4973 8.51536 32.2361 7.93209 31.376 6.89793C30.1776 5.45896 30.1133 3.54423 30.1776 2.54554C29.76 2.47898 29.1541 2.38354 28.437 2.27493C28.079 2.22081 27.8325 1.88694 27.8866 1.52893C27.9407 1.17093 28.2746 0.92482 28.6326 0.978941C30.0259 1.18958 31.0041 1.3534 31.0041 1.3534C31.1778 1.38193 31.3325 1.4792 31.4338 1.62328C31.5347 1.76699 31.5738 1.94581 31.542 2.11878C31.5376 2.14182 31.1215 4.55279 32.3878 6.06673C33.0991 6.91768 34.2426 7.34992 35.7854 7.34992C36.1471 7.34992 36.4407 7.6432 36.4407 8.00523V16.9718C36.4407 19.6615 36.2074 23.7198 34.1892 27.8956C31.6418 33.1677 26.9552 37.2254 20.2599 39.9519ZM32.6848 17.8678C32.6745 18.4536 32.6471 18.9912 32.6058 19.5082C32.5758 19.8692 32.8442 20.1855 33.2048 20.2155C33.2231 20.2155 33.2424 20.2177 33.2596 20.2177C33.6001 20.2173 33.8839 19.9558 33.912 19.6161C33.9566 19.0702 33.9841 18.5059 33.9954 17.8919C34.0016 17.5299 33.7134 17.2315 33.3518 17.2249C32.9898 17.2183 32.691 17.5068 32.6848 17.8685V17.8678ZM34.0012 10.1357C34.0012 9.84024 33.8038 9.5817 33.5189 9.50381C32.344 9.20504 31.2911 8.54718 30.5078 7.62126C29.6803 6.58856 29.1826 5.33024 29.0802 4.01048C29.0491 3.71391 28.822 3.47548 28.5269 3.4305C26.0999 3.06042 21.7654 2.43766 20.0127 2.43766C18.2596 2.43766 13.9262 3.06042 11.4984 3.43013C11.2033 3.47511 10.9762 3.71354 10.9455 4.01048C10.8424 5.33024 10.3447 6.5882 9.51712 7.62126C8.73418 8.54718 7.68174 9.20541 6.50642 9.50381C6.22155 9.5817 6.02408 9.84061 6.02408 10.1361V16.9718C6.02408 20.4993 6.02408 31.234 19.7479 37.2945C19.9165 37.3691 20.1088 37.3691 20.2774 37.2945C27.966 33.8994 32.4738 28.5871 33.6754 21.5063C33.7361 21.1498 33.4959 20.8112 33.139 20.7505C32.7824 20.6901 32.4438 20.93 32.3834 21.2869C31.2736 27.8261 27.1128 32.7673 20.0127 35.9776C7.3336 30.2419 7.3347 20.2656 7.3347 16.9718V10.6192C8.57657 10.2063 9.68058 9.45846 10.5249 8.45868C11.4154 7.36528 11.9892 6.04881 12.1833 4.65189C14.3171 4.33228 18.4161 3.74828 20.0127 3.74828C21.6089 3.74828 25.7086 4.33082 27.842 4.65043C28.0362 6.04735 28.6099 7.36418 29.5007 8.45758C30.3451 9.45737 31.4491 10.2045 32.6906 10.6173V15.6265C32.6906 15.9882 32.9843 16.2818 33.3459 16.2818C33.708 16.2818 34.0012 15.9882 34.0012 15.6265V10.1357ZM12.911 19.4998C13.114 19.4995 13.3089 19.5803 13.4523 19.7244L17.0053 23.277C17.1281 23.3999 17.2949 23.469 17.4686 23.469C17.6427 23.469 17.809 23.3999 17.9319 23.277L20.1249 21.0858C20.3809 20.8302 20.3809 20.4151 20.1249 20.1592C19.869 19.9032 19.4539 19.9032 19.1979 20.1592L17.4701 21.8874L14.3804 18.7981C13.9916 18.4075 13.4632 18.1885 12.9125 18.1899C12.0729 18.1899 11.3159 18.6957 10.9945 19.4713C10.673 20.2473 10.8508 21.1399 11.4446 21.7338L16.0007 26.291C16.8111 27.1021 18.1261 27.1021 18.9368 26.291L28.5821 16.6457C29.3929 15.8349 29.3932 14.5203 28.5821 13.7092C27.7714 12.8985 26.4568 12.8981 25.6461 13.7092L22.6032 16.7521C22.4328 16.9166 22.3644 17.1602 22.4244 17.3891C22.4847 17.6184 22.6635 17.7972 22.8924 17.8572C23.1217 17.9171 23.3653 17.8488 23.5298 17.6784L26.5727 14.6355C26.8755 14.3455 27.3531 14.3455 27.6562 14.6355C27.7996 14.7788 27.8804 14.9737 27.8804 15.1767C27.8804 15.3796 27.7996 15.5742 27.6562 15.7175L18.0098 25.364C17.7063 25.6521 17.2305 25.6521 16.927 25.364L12.3698 20.8064C12.1512 20.5874 12.0857 20.2583 12.2038 19.9723C12.3223 19.6863 12.6013 19.4998 12.911 19.4998ZM21.4981 19.7105L22.1347 19.0738C22.3907 18.8182 22.3907 18.4031 22.1347 18.1472C21.8788 17.8912 21.4637 17.8912 21.2077 18.1472L20.5711 18.7838C20.3155 19.0398 20.3155 19.4545 20.5711 19.7105C20.827 19.9664 21.2421 19.9664 21.4981 19.7105Z" fill="#175CFF"/>
</svg>
