<svg width="46" height="111" viewBox="0 0 46 111" fill="none" xmlns="http://www.w3.org/2000/svg">
<path d="M7.03027 38.7802C7.03027 45.6118 17.651 50.7864 10.8759 50.7864C7.78701 50.7864 6.09637 51.973 3.9397 50.0729C1.36606 47.8054 -0.712041 43.0891 0.231802 38.7802C1.5438 32.7907 4.83992 28.4932 15.0064 25.9405C21.7815 25.9405 7.03027 31.9486 7.03027 38.7802Z" fill="url(#paint0_linear_68_17171)"/>
<path d="M38.9697 38.7802C38.9697 45.6118 36.3994 48.9476 36.3994 51.772C36.3994 52.2435 39.9036 51.973 42.0603 50.0729C44.6339 47.8054 46.712 43.0891 45.7682 38.7802C44.4562 32.7907 41.1601 28.4932 30.9935 25.9405C24.2185 25.9405 38.9697 31.9486 38.9697 38.7802Z" fill="url(#paint1_linear_68_17171)"/>
<path d="M13.0771 28.6756C13.0393 28.9007 13.2355 29.0944 13.4582 29.0511C14.2469 28.8975 15.0715 28.7369 15.896 28.7369C17.8848 28.7369 19.7773 29.1513 21.4928 29.8989C22.2625 30.2344 22.6473 30.4021 22.9375 30.4021C23.2277 30.4021 23.6125 30.2344 24.3822 29.8989C26.0977 29.1513 27.9902 28.7369 29.979 28.7369C30.6435 28.7369 31.3081 28.8866 31.954 29.032C32.0386 29.051 32.1231 29.0701 32.2071 29.0886C32.6351 29.1833 33.0018 28.8107 32.9288 28.3758C32.8692 28.0204 33.1071 27.6808 33.4639 27.6506C34.5837 27.5558 35.7134 27.7062 36.7743 28.0947C38.0387 28.5578 39.1621 29.3432 40.0347 30.3741C40.9072 31.405 41.499 32.6462 41.7523 33.9763C41.7958 34.205 41.8291 34.4351 41.8522 34.6657C41.8856 35.0004 41.9636 35.3307 42.1135 35.6314C42.2477 35.9004 42.3996 36.2044 42.5698 36.5448C43.5245 38.4542 44.0621 40.611 44.0621 42.8938C44.0621 45.8029 43.6118 48.0107 42.6469 49.245C41.8392 50.2781 38.7977 53.3656 33.5939 51.2572C30.4619 49.9882 26.133 45.9861 24.0883 44.0528C24.0174 43.9858 24.0201 43.8736 24.0924 43.808L28.7684 39.5658C28.8101 39.528 28.868 39.5139 28.9222 39.5285C30.2822 39.8943 31.5006 40.3447 32.54 40.7965C33.7396 41.3178 34.6954 41.8386 35.3487 42.2271C35.6752 42.4213 35.9257 42.5821 36.0927 42.6931C36.1762 42.7486 36.2388 42.7917 36.2796 42.8201C36.2815 42.8214 36.2833 42.8227 36.2851 42.8239C36.2998 42.8353 36.315 42.846 36.3306 42.8561L36.3341 42.8587C36.4472 42.9306 36.5832 42.969 36.7269 42.9608C37.0938 42.9401 37.3745 42.6239 37.3539 42.2547L37.1349 38.3289C37.1143 37.9596 36.8002 37.677 36.4333 37.6978C36.0664 37.7185 35.7856 38.0347 35.8062 38.404L35.9481 40.9467C35.258 40.5416 34.2902 40.0217 33.0952 39.5023C30.575 38.407 27.0235 37.3051 22.925 37.3051C18.8265 37.3051 15.2789 38.4076 12.7627 39.5036C11.5592 40.0278 10.5868 40.5525 9.89702 40.9594L10.0386 38.4219C10.0592 38.0527 9.77844 37.7365 9.41154 37.7158C9.04464 37.695 8.73051 37.9776 8.70991 38.3469L8.49091 42.2726C8.47031 42.6419 8.75104 42.9581 9.11794 42.9788C9.28728 42.9884 9.44537 42.9334 9.56856 42.835L9.5878 42.8215C9.62846 42.7931 9.69087 42.75 9.77413 42.6945C9.94068 42.5835 10.1904 42.4226 10.5161 42.2283C11.1678 41.8397 12.1215 41.3188 13.3189 40.7973C15.717 39.7527 19.0718 38.7148 22.925 38.7148C24.2978 38.7148 25.6078 38.8464 26.8342 39.0632C26.9696 39.0871 27.017 39.257 26.9148 39.3497L18.5865 46.9052L18.5864 46.9066L18.5864 46.9081C16.5504 48.6448 14.1626 50.4716 12.2688 51.2615C7.20561 53.3735 3.87795 50.2633 3.20768 49.2559C2.38674 48.0221 1.81288 45.8029 1.81288 42.8938C1.81288 40.611 2.35035 38.4545 3.30502 36.545C3.59227 35.9705 3.81406 35.5269 3.97657 35.2056C4.11827 34.9254 4.20247 34.6203 4.24796 34.3093C4.26423 34.198 4.28291 34.087 4.304 33.9762C4.55723 32.6461 5.14906 31.405 6.02161 30.374C6.89416 29.3431 8.01758 28.5577 9.28202 28.0947C10.3634 27.6987 11.5162 27.55 12.6572 27.6563C12.9779 27.6862 13.1919 27.9914 13.1383 28.3111L13.0771 28.6756Z" fill="url(#paint2_linear_68_17171)"/>
<path d="M17.126 25.0662C17.4543 24.9001 18.2591 24.3423 18.2591 22.2726C18.2591 19.6535 15.5732 17.7329 15.5732 16.3361C15.5732 15.6377 16.0908 14.9393 16.9535 14.9393C16.9535 14.9393 16.9531 13.26 16.9531 12.4954C16.9531 11.4472 17.1426 10.2265 18.0467 9.17739C18.6713 8.49652 19.6982 7.27617 22.9922 7.27617C26.2862 7.27617 27.3151 8.49685 27.9387 9.17801C28.8466 10.2273 29.0308 11.4472 29.0317 12.4948V14.9393C29.8935 14.9393 30.4111 15.6377 30.4111 16.3361C30.4111 17.7329 27.7252 19.6535 27.7252 22.2726C27.7252 24.4 28.5098 24.8925 28.8337 25.0575C30.0185 25.6613 31.7538 26.1311 33.2609 26.5721C33.9156 27.14 35.6434 29.4281 35.6434 29.4281L27.6882 33.5828H18.2961L9.69424 28.8791C9.69424 28.8791 12.738 26.9634 13.4798 26.352C14.5479 26.0332 16.0531 25.6091 17.126 25.0662Z" fill="url(#paint3_linear_68_17171)"/>
<path d="M21.2382 7.54889C21.2129 7.50932 21.2053 7.46284 21.2243 7.41983C21.3114 7.22284 21.594 6.69428 21.6278 6.64349C21.7497 6.45994 22.1064 6.06926 22.9336 6.06933C23.7601 6.06941 24.167 6.4598 24.2892 6.64349C24.3225 6.69356 24.5761 7.198 24.6622 7.4013C24.6831 7.45059 24.6719 7.50341 24.6388 7.5454C24.6057 7.58739 24.592 7.64103 24.5932 7.69461C24.6027 8.13385 24.2509 8.50529 23.8037 8.50529H22.0607C21.6095 8.50529 21.2554 8.12714 21.2716 7.68286C21.2733 7.63581 21.2636 7.58846 21.2382 7.54889Z" fill="url(#paint4_linear_68_17171)"/>
<path d="M31.9491 5.00647C31.969 5.05735 31.9936 5.13585 31.9365 5.24223C30.8226 7.20374 28.4621 6.73013 27.5863 6.2181C26.2293 4.98202 24.828 5.33995 24.0856 5.33995C22.7073 5.33995 21.5885 6.40051 21.5885 6.40051C21.5327 6.34484 21.4781 6.28625 21.4035 6.1983C20.9077 5.55735 20.2852 4.63903 20.3566 3.27464C20.4582 1.33032 22.0382 0 23.8037 0C27.7786 0 27.7209 4.57365 31.7596 4.89903C31.8434 4.90577 31.9292 4.95559 31.9491 5.00647Z" fill="url(#paint5_linear_68_17171)"/>
<path d="M27.5863 6.2181C25.8219 5.18645 24.6946 5.91551 23.9909 6.5649C23.2507 7.24796 22.6296 7.30791 21.7627 6.5649C21.2278 6.10643 20.8885 5.42362 20.8885 4.66104C20.8885 3.28059 22.0004 2.16151 23.3719 2.16151C24.7435 2.16151 27.6788 4.79824 27.5863 6.2181Z" fill="url(#paint6_linear_68_17171)"/>
<path d="M3.84846 40.5968V49.8843C3.84846 49.8843 3.43668 49.5744 3.29536 49.3846C1.31028 46.7177 0.781924 42.5264 1.5533 38.2917C2.67141 32.1534 7.41996 27.3782 11.9278 27.6316L7.18038 30.7425L3.84846 40.5968Z" fill="url(#paint7_linear_68_17171)"/>
<path d="M42.0504 40.5874V49.8748C42.0504 49.8748 42.4622 49.565 42.6035 49.3751C44.5886 46.7082 45.1169 42.5169 44.3456 38.2822C43.2275 32.144 38.4789 27.3687 33.971 27.6221L38.7185 30.733L42.0504 40.5874Z" fill="url(#paint8_linear_68_17171)"/>
<path d="M8.58547 53.7133C8.51741 53.7153 8.46795 53.7791 8.48503 53.8454C8.70662 54.7062 9.94807 59.8054 10.1499 66.7412C10.152 66.8121 10.2216 66.8618 10.2883 66.839L14.089 65.5356C14.1537 65.5135 14.2213 65.5567 14.2254 65.6254C14.2786 66.5159 14.5185 71.7465 13.2779 77.8739C13.2618 77.9537 13.3375 78.0221 13.4141 77.9959L17.668 76.5404C17.7344 76.5176 17.8034 76.5616 17.8051 76.6321C17.8292 77.6255 17.9253 83.8544 16.751 90.2997C16.7366 90.3789 16.8122 90.445 16.8879 90.4189L21.6876 88.7644C21.7578 88.7403 21.8303 88.7947 21.8272 88.8693C21.7658 90.3667 21.43 102.366 25.9913 110.946C26.0433 111.043 26.1887 111 26.1846 110.889C25.6074 95.0488 31.5787 81.9161 32.466 80.0586C32.5067 79.9733 32.4199 79.8879 32.3311 79.9189L29.4514 80.9243C29.3723 80.9519 29.295 80.8805 29.318 80.7994C29.6652 79.5741 31.7642 72.547 36.6638 63.4546C36.7094 63.37 36.6287 63.2711 36.5384 63.3028L32.5738 64.6928C32.4915 64.7217 32.4125 64.6424 32.441 64.5595C34.2261 59.3553 36.7384 54.6984 37.2294 53.8077C37.268 53.7378 37.2172 53.6529 37.1378 53.6503C37.0044 53.6459 36.8243 53.6374 36.7028 53.622C35.3628 53.452 34.3473 53.2348 33.258 52.7333C29.3781 50.8588 25.7087 47.4256 23.4305 45.2254C23.3023 45.103 23.1797 44.9858 23.0635 44.8752C23.0238 44.8375 22.962 44.8368 22.9216 44.8738C22.7019 45.0749 22.4665 45.2927 22.216 45.5244C20.2279 47.3631 17.2715 50.1175 13.6407 52.2633C12.964 52.6633 12.5037 52.7835 11.2892 53.2517C10.528 53.4992 9.82485 53.676 8.58547 53.7133Z" fill="url(#paint9_linear_68_17171)"/>
<defs>
<linearGradient id="paint0_linear_68_17171" x1="24.1241" y1="1.52897" x2="24.5189" y2="111.006" gradientUnits="userSpaceOnUse">
<stop stop-color="#1862FF"/>
<stop offset="0.0666667" stop-color="#1863FF"/>
<stop offset="0.133333" stop-color="#1766FF"/>
<stop offset="0.2" stop-color="#166BFF"/>
<stop offset="0.266667" stop-color="#1473FF"/>
<stop offset="0.333333" stop-color="#127CFF"/>
<stop offset="0.4" stop-color="#1087FF"/>
<stop offset="0.466667" stop-color="#0D94FF"/>
<stop offset="0.533333" stop-color="#0BA0FF"/>
<stop offset="0.6" stop-color="#08ADFF"/>
<stop offset="0.666667" stop-color="#06B8FF"/>
<stop offset="0.733333" stop-color="#04C2FF"/>
<stop offset="0.8" stop-color="#02C9FF"/>
<stop offset="0.866667" stop-color="#01CEFF"/>
<stop offset="0.933333" stop-color="#00D1FF"/>
<stop offset="1" stop-color="#00D2FF"/>
</linearGradient>
<linearGradient id="paint1_linear_68_17171" x1="24.1241" y1="1.52897" x2="24.5189" y2="111.006" gradientUnits="userSpaceOnUse">
<stop stop-color="#1862FF"/>
<stop offset="0.0666667" stop-color="#1863FF"/>
<stop offset="0.133333" stop-color="#1766FF"/>
<stop offset="0.2" stop-color="#166BFF"/>
<stop offset="0.266667" stop-color="#1473FF"/>
<stop offset="0.333333" stop-color="#127CFF"/>
<stop offset="0.4" stop-color="#1087FF"/>
<stop offset="0.466667" stop-color="#0D94FF"/>
<stop offset="0.533333" stop-color="#0BA0FF"/>
<stop offset="0.6" stop-color="#08ADFF"/>
<stop offset="0.666667" stop-color="#06B8FF"/>
<stop offset="0.733333" stop-color="#04C2FF"/>
<stop offset="0.8" stop-color="#02C9FF"/>
<stop offset="0.866667" stop-color="#01CEFF"/>
<stop offset="0.933333" stop-color="#00D1FF"/>
<stop offset="1" stop-color="#00D2FF"/>
</linearGradient>
<linearGradient id="paint2_linear_68_17171" x1="24.1241" y1="1.52897" x2="24.5189" y2="111.006" gradientUnits="userSpaceOnUse">
<stop stop-color="#1862FF"/>
<stop offset="0.0666667" stop-color="#1863FF"/>
<stop offset="0.133333" stop-color="#1766FF"/>
<stop offset="0.2" stop-color="#166BFF"/>
<stop offset="0.266667" stop-color="#1473FF"/>
<stop offset="0.333333" stop-color="#127CFF"/>
<stop offset="0.4" stop-color="#1087FF"/>
<stop offset="0.466667" stop-color="#0D94FF"/>
<stop offset="0.533333" stop-color="#0BA0FF"/>
<stop offset="0.6" stop-color="#08ADFF"/>
<stop offset="0.666667" stop-color="#06B8FF"/>
<stop offset="0.733333" stop-color="#04C2FF"/>
<stop offset="0.8" stop-color="#02C9FF"/>
<stop offset="0.866667" stop-color="#01CEFF"/>
<stop offset="0.933333" stop-color="#00D1FF"/>
<stop offset="1" stop-color="#00D2FF"/>
</linearGradient>
<linearGradient id="paint3_linear_68_17171" x1="24.1241" y1="1.52897" x2="24.5189" y2="111.006" gradientUnits="userSpaceOnUse">
<stop stop-color="#1862FF"/>
<stop offset="0.0666667" stop-color="#1863FF"/>
<stop offset="0.133333" stop-color="#1766FF"/>
<stop offset="0.2" stop-color="#166BFF"/>
<stop offset="0.266667" stop-color="#1473FF"/>
<stop offset="0.333333" stop-color="#127CFF"/>
<stop offset="0.4" stop-color="#1087FF"/>
<stop offset="0.466667" stop-color="#0D94FF"/>
<stop offset="0.533333" stop-color="#0BA0FF"/>
<stop offset="0.6" stop-color="#08ADFF"/>
<stop offset="0.666667" stop-color="#06B8FF"/>
<stop offset="0.733333" stop-color="#04C2FF"/>
<stop offset="0.8" stop-color="#02C9FF"/>
<stop offset="0.866667" stop-color="#01CEFF"/>
<stop offset="0.933333" stop-color="#00D1FF"/>
<stop offset="1" stop-color="#00D2FF"/>
</linearGradient>
<linearGradient id="paint4_linear_68_17171" x1="24.1241" y1="1.52897" x2="24.5189" y2="111.006" gradientUnits="userSpaceOnUse">
<stop stop-color="#1862FF"/>
<stop offset="0.0666667" stop-color="#1863FF"/>
<stop offset="0.133333" stop-color="#1766FF"/>
<stop offset="0.2" stop-color="#166BFF"/>
<stop offset="0.266667" stop-color="#1473FF"/>
<stop offset="0.333333" stop-color="#127CFF"/>
<stop offset="0.4" stop-color="#1087FF"/>
<stop offset="0.466667" stop-color="#0D94FF"/>
<stop offset="0.533333" stop-color="#0BA0FF"/>
<stop offset="0.6" stop-color="#08ADFF"/>
<stop offset="0.666667" stop-color="#06B8FF"/>
<stop offset="0.733333" stop-color="#04C2FF"/>
<stop offset="0.8" stop-color="#02C9FF"/>
<stop offset="0.866667" stop-color="#01CEFF"/>
<stop offset="0.933333" stop-color="#00D1FF"/>
<stop offset="1" stop-color="#00D2FF"/>
</linearGradient>
<linearGradient id="paint5_linear_68_17171" x1="24.1241" y1="1.52897" x2="24.5189" y2="111.006" gradientUnits="userSpaceOnUse">
<stop stop-color="#1862FF"/>
<stop offset="0.0666667" stop-color="#1863FF"/>
<stop offset="0.133333" stop-color="#1766FF"/>
<stop offset="0.2" stop-color="#166BFF"/>
<stop offset="0.266667" stop-color="#1473FF"/>
<stop offset="0.333333" stop-color="#127CFF"/>
<stop offset="0.4" stop-color="#1087FF"/>
<stop offset="0.466667" stop-color="#0D94FF"/>
<stop offset="0.533333" stop-color="#0BA0FF"/>
<stop offset="0.6" stop-color="#08ADFF"/>
<stop offset="0.666667" stop-color="#06B8FF"/>
<stop offset="0.733333" stop-color="#04C2FF"/>
<stop offset="0.8" stop-color="#02C9FF"/>
<stop offset="0.866667" stop-color="#01CEFF"/>
<stop offset="0.933333" stop-color="#00D1FF"/>
<stop offset="1" stop-color="#00D2FF"/>
</linearGradient>
<linearGradient id="paint6_linear_68_17171" x1="24.1241" y1="1.52897" x2="24.5189" y2="111.006" gradientUnits="userSpaceOnUse">
<stop stop-color="#1862FF"/>
<stop offset="0.0666667" stop-color="#1863FF"/>
<stop offset="0.133333" stop-color="#1766FF"/>
<stop offset="0.2" stop-color="#166BFF"/>
<stop offset="0.266667" stop-color="#1473FF"/>
<stop offset="0.333333" stop-color="#127CFF"/>
<stop offset="0.4" stop-color="#1087FF"/>
<stop offset="0.466667" stop-color="#0D94FF"/>
<stop offset="0.533333" stop-color="#0BA0FF"/>
<stop offset="0.6" stop-color="#08ADFF"/>
<stop offset="0.666667" stop-color="#06B8FF"/>
<stop offset="0.733333" stop-color="#04C2FF"/>
<stop offset="0.8" stop-color="#02C9FF"/>
<stop offset="0.866667" stop-color="#01CEFF"/>
<stop offset="0.933333" stop-color="#00D1FF"/>
<stop offset="1" stop-color="#00D2FF"/>
</linearGradient>
<linearGradient id="paint7_linear_68_17171" x1="24.1241" y1="1.52897" x2="24.5189" y2="111.006" gradientUnits="userSpaceOnUse">
<stop stop-color="#1862FF"/>
<stop offset="0.0666667" stop-color="#1863FF"/>
<stop offset="0.133333" stop-color="#1766FF"/>
<stop offset="0.2" stop-color="#166BFF"/>
<stop offset="0.266667" stop-color="#1473FF"/>
<stop offset="0.333333" stop-color="#127CFF"/>
<stop offset="0.4" stop-color="#1087FF"/>
<stop offset="0.466667" stop-color="#0D94FF"/>
<stop offset="0.533333" stop-color="#0BA0FF"/>
<stop offset="0.6" stop-color="#08ADFF"/>
<stop offset="0.666667" stop-color="#06B8FF"/>
<stop offset="0.733333" stop-color="#04C2FF"/>
<stop offset="0.8" stop-color="#02C9FF"/>
<stop offset="0.866667" stop-color="#01CEFF"/>
<stop offset="0.933333" stop-color="#00D1FF"/>
<stop offset="1" stop-color="#00D2FF"/>
</linearGradient>
<linearGradient id="paint8_linear_68_17171" x1="24.1241" y1="1.52897" x2="24.5189" y2="111.006" gradientUnits="userSpaceOnUse">
<stop stop-color="#1862FF"/>
<stop offset="0.0666667" stop-color="#1863FF"/>
<stop offset="0.133333" stop-color="#1766FF"/>
<stop offset="0.2" stop-color="#166BFF"/>
<stop offset="0.266667" stop-color="#1473FF"/>
<stop offset="0.333333" stop-color="#127CFF"/>
<stop offset="0.4" stop-color="#1087FF"/>
<stop offset="0.466667" stop-color="#0D94FF"/>
<stop offset="0.533333" stop-color="#0BA0FF"/>
<stop offset="0.6" stop-color="#08ADFF"/>
<stop offset="0.666667" stop-color="#06B8FF"/>
<stop offset="0.733333" stop-color="#04C2FF"/>
<stop offset="0.8" stop-color="#02C9FF"/>
<stop offset="0.866667" stop-color="#01CEFF"/>
<stop offset="0.933333" stop-color="#00D1FF"/>
<stop offset="1" stop-color="#00D2FF"/>
</linearGradient>
<linearGradient id="paint9_linear_68_17171" x1="24.1241" y1="1.52897" x2="24.5189" y2="111.006" gradientUnits="userSpaceOnUse">
<stop stop-color="#1862FF"/>
<stop offset="0.0666667" stop-color="#1863FF"/>
<stop offset="0.133333" stop-color="#1766FF"/>
<stop offset="0.2" stop-color="#166BFF"/>
<stop offset="0.266667" stop-color="#1473FF"/>
<stop offset="0.333333" stop-color="#127CFF"/>
<stop offset="0.4" stop-color="#1087FF"/>
<stop offset="0.466667" stop-color="#0D94FF"/>
<stop offset="0.533333" stop-color="#0BA0FF"/>
<stop offset="0.6" stop-color="#08ADFF"/>
<stop offset="0.666667" stop-color="#06B8FF"/>
<stop offset="0.733333" stop-color="#04C2FF"/>
<stop offset="0.8" stop-color="#02C9FF"/>
<stop offset="0.866667" stop-color="#01CEFF"/>
<stop offset="0.933333" stop-color="#00D1FF"/>
<stop offset="1" stop-color="#00D2FF"/>
</linearGradient>
</defs>
</svg>
