<svg xmlns="http://www.w3.org/2000/svg" xmlns:xlink="http://www.w3.org/1999/xlink"><defs>
<clipPath id="clip0">
<rect width="40" height="40" fill="white"/>
</clipPath>
</defs><symbol id="icon-apple" viewBox="0 0 13 16">
<path d="M6.74937 4.81465C6.16537 4.81465 5.26137 4.15065 4.30937 4.17465C3.05337 4.19065 1.90137 4.90265 1.25337 6.03065C-0.0506256 8.29465 0.917374 11.6387 2.18937 13.4787C2.81337 14.3747 3.54937 15.3827 4.52537 15.3506C5.46137 15.3106 5.81337 14.7427 6.94937 14.7427C8.07737 14.7427 8.39737 15.3507 9.38937 15.3267C10.3974 15.3107 11.0374 14.4147 11.6534 13.5107C12.3654 12.4707 12.6614 11.4627 12.6774 11.4067C12.6534 11.3987 10.7174 10.6546 10.6934 8.41465C10.6774 6.54265 12.2214 5.64665 12.2934 5.60665C11.4134 4.31865 10.0614 4.17465 9.58937 4.14265C8.35737 4.04665 7.32537 4.81465 6.74937 4.81465ZM8.82937 2.92665C9.34937 2.30265 9.69337 1.43065 9.59737 0.56665C8.85337 0.59865 7.95737 1.06265 7.42137 1.68665C6.94137 2.23865 6.52537 3.12665 6.63737 3.97465C7.46137 4.03865 8.30937 3.55065 8.82937 2.92665Z" fill="#97A2AC"/>
</symbol><symbol id="icon-cashback" viewBox="0 0 40 40">
<g clip-path="url(#clip0)">
<path d="M30.9943 32.4732H26.4003C26.527 32.2098 26.5982 31.9147 26.5982 31.6033C26.5982 30.4937 25.6954 29.5909 24.5857 29.5909H22.2142C21.6427 29.5909 21.0827 29.4864 20.5496 29.2803L18.7354 28.5786C18.0705 28.3214 17.3718 28.191 16.6587 28.191H13.023V28.0603C13.023 27.3253 12.425 26.7273 11.69 26.7273H4.10303C3.57797 26.7273 3.15088 27.1544 3.15088 27.6794V29.9203C3.15088 30.2359 3.40659 30.4916 3.72217 30.4916C4.03775 30.4916 4.29346 30.2359 4.29346 29.9203V27.8699H11.69C11.795 27.8699 11.8804 27.9553 11.8804 28.0604V37.667C11.8804 37.772 11.795 37.8574 11.69 37.8574H4.29346V32.8636C4.29346 32.548 4.03775 32.2923 3.72217 32.2923C3.40659 32.2923 3.15088 32.548 3.15088 32.8636V38.0479C3.15088 38.5729 3.57797 39 4.10303 39H11.69C12.425 39 13.023 38.402 13.023 37.667V36.683H30.9943C32.1548 36.683 33.0991 35.7388 33.0991 34.5782C33.0991 33.4175 32.1548 32.4732 30.9943 32.4732ZM30.9943 35.5404H13.023V29.3337H16.6587C17.2303 29.3337 17.7903 29.4382 18.3233 29.6443L20.1375 30.346C20.8024 30.6031 21.5011 30.7335 22.2142 30.7335H24.5857C25.0654 30.7335 25.4556 31.1238 25.4556 31.6034C25.4556 32.0831 25.0654 32.4733 24.5857 32.4733H21.2463C20.9308 32.4733 20.6751 32.729 20.6751 33.0446C20.6751 33.3602 20.9308 33.6159 21.2463 33.6159H30.9943C31.5249 33.6159 31.9566 34.0476 31.9566 34.5782C31.9566 35.1088 31.5248 35.5404 30.9943 35.5404Z" fill="#175CFF"/>
<path d="M22.6509 11.0191C23.0589 11.0191 23.3909 11.3511 23.3909 11.7591C23.3909 12.0747 23.6466 12.3304 23.9622 12.3304C24.2778 12.3304 24.5335 12.0747 24.5335 11.7591C24.5335 10.9202 23.9818 10.2079 23.2222 9.96544V9.27197C23.2222 8.95639 22.9665 8.70068 22.6509 8.70068C22.3353 8.70068 22.0796 8.95639 22.0796 9.27197V9.96544C21.32 10.2079 20.7683 10.9202 20.7683 11.7591C20.7683 12.7972 21.6128 13.6417 22.6509 13.6417C22.665 13.6417 22.6789 13.6412 22.6926 13.6402C23.0813 13.6618 23.3909 13.985 23.3909 14.379C23.3909 14.787 23.059 15.119 22.6509 15.119C22.2428 15.119 21.9109 14.787 21.9109 14.379C21.9109 14.0634 21.6552 13.8077 21.3396 13.8077C21.024 13.8077 20.7683 14.0634 20.7683 14.379C20.7683 15.218 21.32 15.9302 22.0796 16.1727V16.8662C22.0796 17.1817 22.3353 17.4375 22.6509 17.4375C22.9665 17.4375 23.2222 17.1817 23.2222 16.8662V16.1727C23.9818 15.9302 24.5335 15.218 24.5335 14.379C24.5335 13.3409 23.689 12.4964 22.6509 12.4964C22.6368 12.4964 22.6229 12.4969 22.6092 12.4979C22.2205 12.4763 21.9109 12.1532 21.9109 11.7591C21.9109 11.3512 22.2429 11.0191 22.6509 11.0191Z" fill="#175CFF"/>
<path d="M25.9079 8.26755C26.0586 7.99043 25.9562 7.64355 25.679 7.49273C24.7555 6.99022 23.7083 6.72461 22.6508 6.72461C19.1525 6.72461 16.3064 9.5707 16.3064 13.069C16.3064 16.5672 19.1525 19.4133 22.6508 19.4133C26.149 19.4133 28.9951 16.5672 28.9951 13.069C28.9951 11.7456 28.5915 10.4773 27.8281 9.40137C27.6456 9.14406 27.289 9.0835 27.0316 9.26608C26.7742 9.44867 26.7137 9.80523 26.8963 10.0625C27.5219 10.9442 27.8526 11.9839 27.8526 13.069C27.8526 15.9373 25.5191 18.2708 22.6508 18.2708C19.7826 18.2708 17.4491 15.9373 17.4491 13.069C17.4491 10.2008 19.7826 7.86726 22.6508 7.86726C23.5182 7.86726 24.3765 8.08481 25.1331 8.49644C25.4103 8.64734 25.7571 8.54481 25.9079 8.26755Z" fill="#175CFF"/>
<path d="M10.9993 8.49987C11.0756 8.5343 11.1554 8.5506 11.234 8.5506C11.4516 8.5506 11.6597 8.42545 11.755 8.21415C13.6971 3.9112 17.9884 1.14258 22.704 1.14258C22.7307 1.14258 22.7576 1.14265 22.7842 1.14288C25.5256 1.16109 28.0954 2.06769 30.2156 3.76457C30.4618 3.96193 30.8214 3.92186 31.0186 3.67552C31.2157 3.42918 31.1758 3.06965 30.9295 2.87252C28.6067 1.01347 25.7927 0.0202617 22.7918 0.000304688C22.7622 0.000152344 22.7334 0 22.704 0C17.5403 0 12.8402 3.03225 10.7136 7.74417C10.5837 8.03171 10.7117 8.37007 10.9993 8.49987Z" fill="#175CFF"/>
<path d="M13.3042 21.0691C14.0708 21.0691 14.7506 20.6695 15.1227 20C15.4961 19.328 15.4763 18.5362 15.0696 17.8821C14.2219 16.5191 13.7563 14.9472 13.7229 13.3362C13.6734 10.9387 14.5838 8.65419 16.2865 6.90376C17.9876 5.15493 20.2431 4.18252 22.6377 4.16576C25.0479 4.1506 27.3198 5.07487 29.0306 6.77358C30.7414 8.47244 31.6837 10.7359 31.6837 13.1468C31.6837 17.9306 28.0116 21.8162 23.2737 22.1103V21.5844C23.2737 21.2402 23.08 20.9361 22.7681 20.7907C22.4562 20.6452 22.0987 20.6921 21.8349 20.9132L18.7715 23.4813C18.5551 23.6627 18.431 23.9286 18.431 24.2109C18.431 24.4932 18.5551 24.7591 18.7715 24.9406L21.8349 27.5086C21.9971 27.6447 22.1948 27.7148 22.3955 27.7148C22.5211 27.7148 22.648 27.6873 22.7681 27.6312C23.08 27.4858 23.2737 27.1816 23.2737 26.8375V26.2815C26.6063 26.1391 29.7215 24.7564 32.0708 22.3702C34.4846 19.9188 35.8264 16.6745 35.849 13.2349C35.8692 10.1713 34.8238 7.18696 32.9053 4.8315C32.7062 4.58699 32.3464 4.55005 32.1015 4.74931C31.8569 4.94858 31.8202 5.30841 32.0193 5.55308C33.7705 7.70326 34.7249 10.4287 34.7064 13.2275C34.6634 19.7613 29.5146 24.9974 22.9844 25.1478C22.5139 25.1587 22.131 25.5512 22.131 26.0227V26.2659L19.6796 24.2108L22.131 22.1558V22.3903C22.131 22.626 22.2281 22.8552 22.3975 23.0191C22.567 23.1832 22.8002 23.2728 23.0353 23.2652C25.6691 23.1801 28.1318 22.0896 29.9697 20.195C31.8118 18.2959 32.8262 15.7929 32.8262 13.1467C32.8262 10.4291 31.7641 7.87769 29.8355 5.96273C27.9072 4.04785 25.3459 3.00155 22.6296 3.02303C19.9269 3.042 17.3833 4.13727 15.4674 6.10692C13.5499 8.07833 12.5246 10.6541 12.5806 13.3597C12.6181 15.1757 13.1433 16.9482 14.0992 18.4854C14.2837 18.782 14.2929 19.1407 14.1239 19.4448C13.9563 19.7464 13.6498 19.9264 13.3041 19.9264C12.9769 19.9264 12.6788 19.7616 12.5069 19.4856C11.3234 17.5866 10.6979 15.3946 10.6979 13.1467C10.6979 12.3283 10.7806 11.5109 10.9439 10.7171C11.0074 10.408 10.8084 10.106 10.4993 10.0425C10.1905 9.97943 9.88822 10.178 9.82469 10.4871C9.64599 11.3564 9.55542 12.2512 9.55542 13.1467C9.55542 15.6085 10.2407 18.0094 11.5373 20.0899C11.9193 20.7031 12.5798 21.0691 13.3042 21.0691Z" fill="#175CFF"/>
</g>

</symbol><symbol id="icon-chart" viewBox="0 0 17 17">
<path d="M2.3623 8.31618H3.73639V14.3216H2.3623V8.31618ZM13.355 5.64713H14.7291V14.3216H13.355V5.64713ZM7.85866 1.64355H9.23275V14.3216H7.85866V1.64355Z" fill="#97A2AC"/>
</symbol><symbol id="icon-check" viewBox="0 0 40 38">
<path d="M0 8.89099V7.50887C0 7.15584 0.28699 6.86921 0.641254 6.86921C0.995518 6.86921 1.28251 7.15584 1.28251 7.50887V8.89099C1.28251 9.24438 0.995518 9.53065 0.641254 9.53065C0.28699 9.53065 0 9.24438 0 8.89099ZM4.51275 30.5406H10.03C10.3842 30.5406 10.6712 30.2539 10.6712 29.9009C10.6712 29.5475 10.3842 29.2612 10.03 29.2612H4.51275C4.15849 29.2612 3.8715 29.5475 3.8715 29.9009C3.8715 30.2539 4.15849 30.5406 4.51275 30.5406ZM4.51275 27.9387C4.86666 27.9387 5.15401 27.6525 5.15401 27.2991V24.7861C5.15401 24.4327 4.86666 24.1465 4.51275 24.1465C4.15849 24.1465 3.8715 24.4327 3.8715 24.7861V27.2991C3.8715 27.6525 4.15849 27.9387 4.51275 27.9387ZM7.91226 27.2991V24.7861C7.91226 24.4327 7.62527 24.1465 7.271 24.1465C6.9171 24.1465 6.62975 24.4327 6.62975 24.7861V27.2991C6.62975 27.6525 6.9171 27.9387 7.271 27.9387C7.62527 27.9387 7.91226 27.6525 7.91226 27.2991ZM10.6709 27.2991V24.7861C10.6709 24.4327 10.3839 24.1465 10.0296 24.1465C9.67535 24.1465 9.38836 24.4327 9.38836 24.7861V27.2991C9.38836 27.6525 9.67535 27.9387 10.0296 27.9387C10.3839 27.9387 10.6709 27.6525 10.6709 27.2991ZM39.3584 20.9592C38.8127 21.0106 38.2723 20.8154 37.8859 20.4274C37.3423 19.7806 37.5248 18.704 37.5262 18.6958C37.5584 18.5223 37.5176 18.3435 37.4132 18.2014C37.3087 18.0593 37.1501 17.9662 36.9748 17.9448L34.3418 17.6203V0.63966C34.3418 0.286634 34.0548 0 33.7005 0H0.641254C0.28699 0 0 0.286634 0 0.63966V5.07909C0 5.43247 0.28699 5.71875 0.641254 5.71875C0.995518 5.71875 1.28251 5.43247 1.28251 5.07909V1.27932H11.5687V10.7464C11.5683 10.9756 11.6914 11.1876 11.8908 11.3015C12.0901 11.4157 12.3355 11.4143 12.5338 11.2983L17.1707 8.59115L21.8073 11.2983C22.0055 11.4143 22.251 11.4157 22.4503 11.3015C22.65 11.1876 22.7727 10.9756 22.7727 10.7464V6.48798C22.7727 6.13496 22.4854 5.84832 22.1315 5.84832C21.7772 5.84832 21.4902 6.13496 21.4902 6.48798V9.63167L17.496 7.29862C17.296 7.18154 17.048 7.18154 16.8476 7.29862L12.8537 9.63167V1.27932H21.4902V4.29522C21.4902 4.6486 21.7772 4.93488 22.1315 4.93488C22.4854 4.93488 22.7727 4.6486 22.7727 4.29522V1.27932H33.0593V17.4622L31.4837 17.268C31.4318 17.2615 31.3789 17.2615 31.327 17.268L29.7188 17.4661C29.4884 17.4904 29.2887 17.6367 29.1967 17.8491C29.1051 18.0618 29.1355 18.3071 29.2762 18.4909C29.4172 18.6747 29.6465 18.7682 29.8763 18.7358L31.4057 18.5473L36.2137 19.1391C36.1936 19.8966 36.4345 20.6383 36.8957 21.2405C37.358 21.7784 38.0093 22.1197 38.7161 22.1943V26.1093C38.7161 27.8242 38.5078 30.3807 36.7075 32.769C36.4949 33.0517 36.5525 33.4526 36.836 33.6646C37.119 33.8767 37.5212 33.8192 37.7334 33.5365C39.7645 30.8426 40 28.0066 40 26.1083V21.5989C40 21.2451 39.7127 20.9589 39.3584 20.9592ZM36.3124 34.2322C36.0737 33.9716 35.6683 33.9534 35.4067 34.1908C35.2006 34.3789 34.9791 34.5649 34.7494 34.7448C34.4706 34.9625 34.4216 35.3644 34.6399 35.6429C34.8582 35.9209 35.2611 35.9698 35.5402 35.7521C35.7968 35.5525 36.0412 35.3455 36.2713 35.136C36.5329 34.8979 36.5515 34.4931 36.3124 34.2322ZM31.1645 37.9523C31.3198 38.0159 31.4934 38.0159 31.6487 37.9523C32.4395 37.6336 33.2067 37.2588 33.9439 36.8308C34.2495 36.652 34.3518 36.26 34.1729 35.9552C33.9936 35.6504 33.6007 35.5479 33.2951 35.7267C32.6864 36.0805 32.0559 36.3946 31.4068 36.6673C29.1062 35.6935 27.3245 34.3828 26.1078 32.7683C24.3054 30.3774 24.0968 27.8227 24.0968 26.1093V22.195C24.8035 22.12 25.4551 21.7791 25.9182 21.2412C26.3794 20.6394 26.6206 19.898 26.6017 19.1402L27.628 19.0142C27.9794 18.971 28.2291 18.6515 28.1858 18.3006C28.1425 17.9498 27.8223 17.7006 27.4705 17.7438L25.8441 17.9444C25.6695 17.9665 25.5117 18.0593 25.4072 18.2003C25.303 18.3417 25.2612 18.5195 25.2916 18.6926C25.2934 18.7029 25.4748 19.7802 24.9302 20.427C24.5433 20.8157 24.0019 21.0113 23.4551 20.9592C23.1012 20.9592 22.8139 21.2455 22.8139 21.5989V26.1093C22.7459 28.3482 23.2934 30.5627 24.397 32.5131H1.28251V11.4982C1.28251 11.1452 0.995518 10.8585 0.641254 10.8585C0.28699 10.8585 0 11.1452 0 11.4982V33.1528C0 33.5061 0.28699 33.7924 0.641254 33.7924H25.2909C26.6832 35.5297 28.6528 36.9311 31.1645 37.9523ZM36.4044 26.1575H36.4026L30.9978 31.549C30.6721 31.8738 30.2302 32.0558 29.7693 32.0551C29.3087 32.0541 28.8675 31.8706 28.5426 31.5447L26.407 29.4179C25.7339 28.7397 25.7357 27.6471 26.4109 26.971C27.0876 26.2971 28.1837 26.2971 28.8604 26.971L29.77 27.8784L33.9471 23.7113C34.6263 23.0474 35.7145 23.0524 36.3872 23.7224C37.06 24.3924 37.0668 25.4783 36.4023 26.1565L36.4044 26.1575ZM35.494 24.6151C35.3158 24.4409 35.0306 24.4427 34.8546 24.6187L30.2259 29.237C30.1057 29.3569 29.9425 29.4244 29.7721 29.4244C29.6022 29.4244 29.439 29.3569 29.3188 29.237L27.9557 27.8773C27.7779 27.7053 27.4948 27.7078 27.3202 27.8831C27.1456 28.058 27.1449 28.3407 27.3181 28.517L29.4555 30.6455C29.6337 30.8154 29.9142 30.8154 30.0924 30.6455L35.4958 25.2555C35.6705 25.0774 35.6705 24.7929 35.4955 24.6151H35.494Z" fill="#175CFF"/>
</symbol><symbol id="icon-delivery" viewBox="0 0 39 39">
<path d="M32.2889 15.1333C32.1295 15.1823 31.9574 15.1656 31.8106 15.086C31.6634 15.0068 31.5537 14.8711 31.5054 14.7098L31.0838 13.3085C31.0169 13.0904 31.0702 12.8527 31.2236 12.6854C31.3771 12.5185 31.6073 12.4474 31.8267 12.4993C32.0461 12.5515 32.2209 12.7188 32.2854 12.9376L32.7066 14.3386C32.7553 14.5003 32.7385 14.6747 32.66 14.8235C32.5819 14.9727 32.4483 15.0839 32.2889 15.1333ZM23.6434 25.2181L24.3289 27.4994C24.3772 27.6606 24.3607 27.8351 24.2823 27.9843C24.2041 28.1331 24.0703 28.2446 23.9112 28.2937L19.2801 29.7238C18.9479 29.8261 18.5971 29.6357 18.4965 29.2989L17.8115 27.0177C17.7628 26.8561 17.7792 26.6816 17.8577 26.5324C17.9362 26.3836 18.0697 26.2724 18.2292 26.223L22.8596 24.7947C23.1914 24.6924 23.5422 24.8817 23.6434 25.2181ZM22.9444 27.2621L22.6265 26.1978L19.1967 27.2568L19.5166 28.3203L22.9444 27.2621ZM29.61 25.2032C29.3941 25.2682 29.2291 25.4458 29.1776 25.6682C29.1264 25.8906 29.1965 26.1239 29.3612 26.2795C29.5262 26.4348 29.7607 26.4891 29.9758 26.4209L32.7189 25.5744C33.0483 25.47 33.2333 25.1158 33.1327 24.7808C33.0321 24.4462 32.6838 24.2565 32.3527 24.3563L29.61 25.2032ZM31.8288 22.6129L29.0854 23.4598C28.8692 23.5248 28.7045 23.7024 28.653 23.9247C28.6018 24.1471 28.6719 24.3805 28.8366 24.5357C29.0017 24.6913 29.2361 24.7457 29.4512 24.6775L32.1943 23.8306C32.4102 23.7656 32.5752 23.5883 32.6264 23.3656C32.6779 23.1432 32.6078 22.9102 32.4427 22.7546C32.2777 22.599 32.0433 22.545 31.8281 22.6129H31.8288ZM37.5105 29.5732L20.8356 34.7229C20.6043 36.8677 18.9896 38.592 16.8888 38.9376C14.7881 39.2836 12.7178 38.1654 11.8292 36.2049C10.9409 34.2444 11.4521 31.9241 13.0791 30.5333L6.92511 10.0568C6.82629 9.72107 7.01341 9.36797 7.34386 9.26602C7.67395 9.16407 8.02366 9.35163 8.12633 9.68554L14.1801 29.8272C14.198 29.8193 14.2159 29.814 14.2351 29.8062C14.5666 29.6567 14.9139 29.5476 15.2706 29.4808C15.3302 29.4698 15.3898 29.4652 15.45 29.4563C15.5639 29.4393 15.6778 29.4197 15.792 29.413C15.8029 29.413 15.8138 29.4098 15.825 29.4091L15.5166 28.3828L11.0635 13.5777C11.0635 13.5731 11.0635 13.5678 11.0607 13.5632L8.3478 4.53585L2.49866 1.37576C2.30207 1.26778 2.07045 1.24469 1.85669 1.31147C1.5287 1.41271 1.29358 1.70435 1.26064 2.05034C1.22805 2.39633 1.40396 2.72811 1.70672 2.8908L6.70435 5.58909C6.85152 5.6683 6.96155 5.804 7.00991 5.96563L7.47631 7.52435C7.54359 7.74211 7.48998 7.98011 7.33685 8.14706C7.18336 8.31437 6.95314 8.38542 6.73378 8.33356C6.51442 8.28134 6.33921 8.11403 6.27509 7.89521L5.88262 6.58869L1.11381 4.01402C0.362871 3.60835 -0.0726957 2.78423 0.0100025 1.92565C0.0927006 1.06743 0.677545 0.34419 1.49156 0.0934011C2.02454 -0.0728443 2.60133 -0.015653 3.09226 0.252897L9.16987 3.5366C9.3167 3.61617 9.42673 3.75151 9.47508 3.91278L12.0853 12.5973L18.4604 10.628C18.464 10.628 18.4675 10.6248 18.4713 10.6237L22.8463 9.27277C22.8592 9.26816 22.8718 9.26283 22.8848 9.25856L29.8745 7.10164C30.2064 6.99933 30.5572 7.18902 30.6584 7.52507L31.7654 11.207C31.8639 11.5423 31.6767 11.8954 31.3466 11.9973C31.0162 12.0993 30.6668 11.9121 30.5642 11.5778L29.6401 8.50478L23.8523 10.2908L25.4414 15.5791C25.5073 15.799 25.4516 16.0377 25.295 16.2039C25.1387 16.3702 24.9056 16.438 24.6859 16.3815L22.4398 15.8018L20.8937 17.5524C20.7749 17.687 20.6053 17.7641 20.4273 17.7644C20.3818 17.7644 20.3362 17.7595 20.2921 17.7495C20.0699 17.7005 19.8915 17.5335 19.8253 17.3129L18.2365 12.0283L12.4494 13.815L16.4904 27.2621L17.1688 29.5174H17.1744C17.1982 29.5227 17.2214 29.5302 17.2463 29.5359C17.3437 29.5597 17.4404 29.5863 17.5357 29.6162C17.5813 29.6304 17.6261 29.6464 17.6713 29.662C17.7481 29.6886 17.8237 29.7174 17.8987 29.7479C17.9418 29.7654 17.9849 29.7842 18.0273 29.8012C18.1297 29.8463 18.2302 29.8954 18.3287 29.9469L18.3897 29.9799C18.4892 30.0346 18.5859 30.0936 18.6812 30.155C18.7148 30.1771 18.7478 30.2005 18.7814 30.2229C18.8561 30.2744 18.9297 30.328 19.0015 30.3838C19.0327 30.4076 19.0639 30.4318 19.0943 30.4566C19.1855 30.5291 19.2738 30.6079 19.3596 30.6889C19.367 30.6957 19.3747 30.7021 19.382 30.7088L19.3873 30.7142L34.8785 25.9279L32.2875 17.3069C32.2206 17.0888 32.2738 16.8511 32.4273 16.6838C32.5808 16.5169 32.8107 16.4455 33.03 16.4977C33.2494 16.5499 33.4246 16.7169 33.4887 16.936L36.0804 25.5566L36.2879 25.4927C37.3976 25.1506 38.5712 25.7854 38.9086 26.9104C39.2461 28.0354 38.6199 29.2247 37.5101 29.5668L37.5105 29.5732ZM23.9147 14.8686L22.6514 10.6649L19.4378 11.657L20.7017 15.8611L21.7579 14.6651C21.9134 14.4882 22.1535 14.4139 22.3802 14.4726L23.9147 14.8686ZM19.6088 34.2369C19.6116 33.8764 19.5604 33.5176 19.4567 33.1727C19.3845 32.9315 19.2867 32.6992 19.1651 32.4793C19.1294 32.4143 19.0873 32.3532 19.047 32.2906C18.9538 32.1411 18.8494 31.9994 18.7345 31.8665C18.2541 31.3134 17.6138 30.928 16.9046 30.765C16.804 30.7408 16.7017 30.722 16.5987 30.7092C16.4519 30.6886 16.304 30.6779 16.1561 30.6769C16.1204 30.6769 16.0843 30.6786 16.0485 30.6793C15.9297 30.6822 15.811 30.6911 15.6932 30.7067C15.6515 30.7124 15.6098 30.717 15.5685 30.7241C15.416 30.7483 15.2654 30.7824 15.1175 30.8268C13.4117 31.3539 12.3755 33.1038 12.7189 34.8778C13.0623 36.6521 14.6739 37.8751 16.4498 37.71C18.2257 37.5444 19.5905 36.0436 19.6091 34.2359L19.6088 34.2369ZM37.7063 27.2877C37.5704 26.8355 37.0987 26.5808 36.6526 26.7182L35.846 26.9651L20.2223 31.7919C20.2279 31.8015 20.2321 31.8122 20.2374 31.8225C20.2966 31.9276 20.3478 32.0367 20.3989 32.1461C20.4231 32.1986 20.4519 32.2487 20.4746 32.302C20.5412 32.459 20.5994 32.6192 20.6488 32.7823C20.6512 32.7897 20.6548 32.7965 20.6569 32.8039V32.81C20.708 32.9855 20.7497 33.1638 20.7809 33.3439C20.7848 33.3641 20.7918 33.384 20.7949 33.4043L37.1418 28.3562C37.5886 28.2191 37.8416 27.7406 37.7063 27.2877ZM15.3249 31.528C14.7758 31.6985 14.2926 32.0384 13.9429 32.4999C13.7424 32.7791 13.7982 33.1691 14.0683 33.3794C14.3382 33.5897 14.7243 33.5435 14.9384 33.2753C15.3319 32.751 16.0135 32.5432 16.6267 32.7603C17.2403 32.9777 17.6457 33.5705 17.6314 34.2291C17.617 34.8873 17.186 35.4617 16.5636 35.6511C16.1841 35.7687 15.7742 35.7282 15.4241 35.5388C15.074 35.3491 14.8126 35.0266 14.6977 34.6415C14.5971 34.3048 14.246 34.1151 13.9142 34.2174C13.5823 34.3197 13.3948 34.6753 13.4958 35.0117C13.706 35.7214 14.1871 36.3164 14.8319 36.6649C15.477 37.0137 16.2322 37.0873 16.9309 36.8691C18.3862 36.4194 19.2065 34.8589 18.7629 33.3833C18.3192 31.9081 16.7799 31.0765 15.3242 31.5262L15.3249 31.528Z" fill="#175CFF"/>
</symbol><symbol id="icon-free" viewBox="0 0 28 39">
<path d="M8.72077 30.6828C9.00102 30.4902 9.38301 30.5631 9.57418 30.8461C9.83078 31.2265 9.925 31.3666 10.1761 31.7346C10.3063 31.9168 10.3282 32.1562 10.2337 32.3595C10.1395 32.5632 9.94315 32.6992 9.72115 32.7151C9.49881 32.7306 9.28571 32.6238 9.16375 32.4356C8.91228 32.0662 8.81773 31.9265 8.55907 31.544C8.36824 31.2611 8.44087 30.8754 8.72077 30.6828ZM13.4983 38.7375C13.6134 38.9021 13.8004 39 14.0002 39C14.1996 39 14.387 38.9021 14.5021 38.7375C14.585 38.6178 22.8758 26.7393 25.8423 21.667C27.2233 19.3992 27.9688 16.7956 28 14.1335C28 6.32782 21.7319 0 13.9998 0C6.26779 0 0 6.32782 0 14.1335C0.0308336 16.7956 0.776664 19.3992 2.15732 21.667C3.21526 23.4758 5.04027 26.3122 7.58233 30.0959C7.77281 30.3798 8.1548 30.4538 8.43573 30.2615C8.71666 30.0696 8.79032 29.6836 8.59984 29.4C6.07182 25.6364 4.25983 22.8225 3.21526 21.0358C1.94663 18.9582 1.26007 16.5721 1.22821 14.1321C1.22821 7.01089 6.94647 1.23817 14.0002 1.23817C21.0542 1.23817 26.7725 7.01089 26.7725 14.1321C26.7406 16.5721 26.0537 18.9582 24.7854 21.0358C22.2663 25.3428 15.8447 34.6456 14.0002 37.3022C13.426 36.4752 12.4095 35.0064 11.2142 33.2574C11.0216 32.9755 10.639 32.9046 10.3601 33.0993C10.0809 33.2937 10.0106 33.6797 10.2035 33.9612C12.0587 36.6758 13.4842 38.7174 13.4983 38.7375ZM17.6029 5.42859C17.9157 5.56071 18.2754 5.41199 18.4063 5.09622C18.5375 4.78045 18.3898 4.4173 18.0771 4.28484C17.4282 4.01092 16.7536 3.8034 16.064 3.66506C15.731 3.59865 15.4079 3.81689 15.3421 4.15272C15.2763 4.48855 15.4925 4.81504 15.8252 4.88144C16.435 5.00318 17.0308 5.18683 17.6043 5.42894L17.6029 5.42859ZM14.0002 3.46204C8.7797 3.46308 4.34206 7.31317 3.55614 12.5235C2.77023 17.7339 5.8714 22.7429 10.8548 24.3128C15.8385 25.883 21.2111 23.5433 23.5 18.8064C25.7889 14.0695 24.3082 8.35524 20.0148 5.35665C19.7359 5.16159 19.3536 5.2318 19.1603 5.51298C18.9671 5.79451 19.0363 6.18048 19.3152 6.37555C23.1118 9.02621 24.4219 14.0785 22.3989 18.2672C20.3755 22.4555 15.6254 24.5245 11.2186 23.1365C6.81217 21.7486 4.07004 17.3199 4.76516 12.7127C5.46029 8.10588 9.38404 4.70194 14.0002 4.7016C14.3393 4.7016 14.6141 4.42387 14.6141 4.08182C14.6141 3.73942 14.3393 3.46204 14.0002 3.46204ZM11.2334 12.1452H20.1176C20.3694 12.1448 20.5958 12.2998 20.6883 12.5363C20.7808 12.7729 20.7205 13.0423 20.5362 13.2159V15.4114C20.5369 15.794 20.4324 16.1685 20.2347 16.4947C20.4266 16.6963 20.5345 16.9643 20.5362 17.2441C20.5362 17.5551 20.3077 17.8179 20.0021 17.8584C19.6965 17.8985 19.4087 17.7041 19.3292 17.4032L18.7081 17.4741L18.2018 17.5309L11.182 18.3163C10.9178 18.3488 10.7229 18.5805 10.7335 18.8489C10.7441 19.117 10.9569 19.3324 11.2224 19.3435H18.9089C19.2481 19.3435 19.5228 19.6209 19.5228 19.9633C19.5228 20.3057 19.2481 20.5831 18.9089 20.5831H17.8489C18.0103 20.9697 17.8934 21.4176 17.5642 21.6739C17.235 21.9302 16.7759 21.9302 16.4466 21.6739C16.1174 21.4176 16.0006 20.9697 16.1619 20.5831H13.2047C13.3664 20.9697 13.2495 21.4183 12.92 21.6746C12.5907 21.9309 12.1313 21.9309 11.8021 21.6746C11.4725 21.4183 11.3557 20.9697 11.5174 20.5831H11.2183C11.2036 20.5831 11.1748 20.5831 11.1601 20.581C10.3073 20.5433 9.6081 19.8858 9.5108 19.0298C9.41316 18.1738 9.94658 17.3735 10.7685 17.1418L9.55568 9.35028H8.4926C8.45458 9.67573 8.17193 9.91541 7.8475 9.89638C7.5234 9.87771 7.26954 9.60725 7.26885 9.27937C7.26885 8.634 7.7872 8.11072 8.42648 8.11072H9.61495C10.1861 8.10795 10.6729 8.52852 10.7589 9.09849L11.2334 12.1452ZM19.2624 15.6774H11.7901L11.9926 16.9785L17.743 16.3352L18.5731 16.2425C18.8924 16.2059 19.1614 15.9856 19.2624 15.6774ZM11.4338 13.3847L11.5975 14.4378H19.3083V13.3847H11.4338Z" fill="#175CFF"/>
</symbol><symbol id="icon-garanty" viewBox="0 0 40 40">
<path d="M20.2599 39.9519C20.1012 40.0159 19.9238 40.0159 19.7655 39.9519C13.0701 37.2239 8.38166 33.1677 5.83539 27.8942C3.81754 23.7188 3.58423 19.66 3.58423 16.9704V8.00377C3.58423 7.64174 3.87751 7.34846 4.23954 7.34846C5.78237 7.34846 6.9255 6.91658 7.63786 6.0649C8.90386 4.55023 8.48734 2.14036 8.48296 2.11622C8.45151 1.94325 8.491 1.76517 8.59193 1.62145C8.69323 1.47774 8.84755 1.38083 9.02088 1.35194C9.35585 1.29672 17.2488 0 20.0127 0C22.0386 0.0866675 24.0579 0.288892 26.0604 0.606307C26.4173 0.657869 26.6652 0.987717 26.6159 1.34463C26.5665 1.70154 26.2385 1.95167 25.8812 1.90449C23.9376 1.59805 21.9782 1.39985 20.0127 1.31062C17.7875 1.31062 11.7866 2.23727 9.84733 2.54627C9.91206 3.54496 9.84733 5.45932 8.64898 6.8983C7.78779 7.93209 6.52727 8.51536 4.89485 8.63567V16.9718C4.89485 20.7863 4.89485 32.3526 20.0127 38.6358C35.1312 32.3526 35.1301 20.7859 35.1301 16.9718V8.63531C33.4973 8.51536 32.2361 7.93209 31.376 6.89793C30.1776 5.45896 30.1133 3.54423 30.1776 2.54554C29.76 2.47898 29.1541 2.38354 28.437 2.27493C28.079 2.22081 27.8325 1.88694 27.8866 1.52893C27.9407 1.17093 28.2746 0.92482 28.6326 0.978941C30.0259 1.18958 31.0041 1.3534 31.0041 1.3534C31.1778 1.38193 31.3325 1.4792 31.4338 1.62328C31.5347 1.76699 31.5738 1.94581 31.542 2.11878C31.5376 2.14182 31.1215 4.55279 32.3878 6.06673C33.0991 6.91768 34.2426 7.34992 35.7854 7.34992C36.1471 7.34992 36.4407 7.6432 36.4407 8.00523V16.9718C36.4407 19.6615 36.2074 23.7198 34.1892 27.8956C31.6418 33.1677 26.9552 37.2254 20.2599 39.9519ZM32.6848 17.8678C32.6745 18.4536 32.6471 18.9912 32.6058 19.5082C32.5758 19.8692 32.8442 20.1855 33.2048 20.2155C33.2231 20.2155 33.2424 20.2177 33.2596 20.2177C33.6001 20.2173 33.8839 19.9558 33.912 19.6161C33.9566 19.0702 33.9841 18.5059 33.9954 17.8919C34.0016 17.5299 33.7134 17.2315 33.3518 17.2249C32.9898 17.2183 32.691 17.5068 32.6848 17.8685V17.8678ZM34.0012 10.1357C34.0012 9.84024 33.8038 9.5817 33.5189 9.50381C32.344 9.20504 31.2911 8.54718 30.5078 7.62126C29.6803 6.58856 29.1826 5.33024 29.0802 4.01048C29.0491 3.71391 28.822 3.47548 28.5269 3.4305C26.0999 3.06042 21.7654 2.43766 20.0127 2.43766C18.2596 2.43766 13.9262 3.06042 11.4984 3.43013C11.2033 3.47511 10.9762 3.71354 10.9455 4.01048C10.8424 5.33024 10.3447 6.5882 9.51712 7.62126C8.73418 8.54718 7.68174 9.20541 6.50642 9.50381C6.22155 9.5817 6.02408 9.84061 6.02408 10.1361V16.9718C6.02408 20.4993 6.02408 31.234 19.7479 37.2945C19.9165 37.3691 20.1088 37.3691 20.2774 37.2945C27.966 33.8994 32.4738 28.5871 33.6754 21.5063C33.7361 21.1498 33.4959 20.8112 33.139 20.7505C32.7824 20.6901 32.4438 20.93 32.3834 21.2869C31.2736 27.8261 27.1128 32.7673 20.0127 35.9776C7.3336 30.2419 7.3347 20.2656 7.3347 16.9718V10.6192C8.57657 10.2063 9.68058 9.45846 10.5249 8.45868C11.4154 7.36528 11.9892 6.04881 12.1833 4.65189C14.3171 4.33228 18.4161 3.74828 20.0127 3.74828C21.6089 3.74828 25.7086 4.33082 27.842 4.65043C28.0362 6.04735 28.6099 7.36418 29.5007 8.45758C30.3451 9.45737 31.4491 10.2045 32.6906 10.6173V15.6265C32.6906 15.9882 32.9843 16.2818 33.3459 16.2818C33.708 16.2818 34.0012 15.9882 34.0012 15.6265V10.1357ZM12.911 19.4998C13.114 19.4995 13.3089 19.5803 13.4523 19.7244L17.0053 23.277C17.1281 23.3999 17.2949 23.469 17.4686 23.469C17.6427 23.469 17.809 23.3999 17.9319 23.277L20.1249 21.0858C20.3809 20.8302 20.3809 20.4151 20.1249 20.1592C19.869 19.9032 19.4539 19.9032 19.1979 20.1592L17.4701 21.8874L14.3804 18.7981C13.9916 18.4075 13.4632 18.1885 12.9125 18.1899C12.0729 18.1899 11.3159 18.6957 10.9945 19.4713C10.673 20.2473 10.8508 21.1399 11.4446 21.7338L16.0007 26.291C16.8111 27.1021 18.1261 27.1021 18.9368 26.291L28.5821 16.6457C29.3929 15.8349 29.3932 14.5203 28.5821 13.7092C27.7714 12.8985 26.4568 12.8981 25.6461 13.7092L22.6032 16.7521C22.4328 16.9166 22.3644 17.1602 22.4244 17.3891C22.4847 17.6184 22.6635 17.7972 22.8924 17.8572C23.1217 17.9171 23.3653 17.8488 23.5298 17.6784L26.5727 14.6355C26.8755 14.3455 27.3531 14.3455 27.6562 14.6355C27.7996 14.7788 27.8804 14.9737 27.8804 15.1767C27.8804 15.3796 27.7996 15.5742 27.6562 15.7175L18.0098 25.364C17.7063 25.6521 17.2305 25.6521 16.927 25.364L12.3698 20.8064C12.1512 20.5874 12.0857 20.2583 12.2038 19.9723C12.3223 19.6863 12.6013 19.4998 12.911 19.4998ZM21.4981 19.7105L22.1347 19.0738C22.3907 18.8182 22.3907 18.4031 22.1347 18.1472C21.8788 17.8912 21.4637 17.8912 21.2077 18.1472L20.5711 18.7838C20.3155 19.0398 20.3155 19.4545 20.5711 19.7105C20.827 19.9664 21.2421 19.9664 21.4981 19.7105Z" fill="#175CFF"/>
</symbol><symbol id="icon-heart" viewBox="0 0 23 20">
<path d="M11.5009 1.65429C14.2022 -0.627558 18.3767 -0.551821 20.9791 1.90098C23.5803 4.35486 23.67 8.2629 21.2505 10.812L11.4986 20L1.74912 10.812C-0.670431 8.2629 -0.579582 4.34837 2.02052 1.90098C4.62522 -0.548575 8.79159 -0.630804 11.5009 1.65429ZM19.3507 3.42979C17.6257 1.80469 14.8428 1.73869 13.0373 3.26425L11.5021 4.56044L9.96572 3.26533C8.1545 1.73761 5.37731 1.80469 3.64774 3.43195C1.93427 5.04407 1.84802 7.62455 3.42694 9.32971L11.4998 16.937L19.5726 9.3308C21.1527 7.62455 21.0665 5.04732 19.3507 3.42979Z" fill="#97A2AC"/>
</symbol><symbol id="icon-original" viewBox="0 0 40 40">
<path d="M29.7272 19.3529C29.7276 18.6984 29.4227 18.0798 28.8996 17.673C29.4513 17.036 29.5752 16.1429 29.217 15.3849C28.8584 14.6265 28.0831 14.1415 27.2307 14.1422H22.3672L22.568 13.6213C22.8844 12.8052 23.0459 11.9395 23.0452 11.0666V10.989C23.0448 10.3253 22.7703 9.68993 22.2842 9.22785C21.7976 8.76577 21.1412 8.51628 20.4643 8.5361C19.0943 8.60753 18.0239 9.72308 18.0358 11.0676C18.0358 11.7043 17.1227 13.1675 16.383 14.1432H10.8979C10.5526 14.1432 10.2729 14.4173 10.2729 14.7557V27.0147C10.2729 27.3531 10.5526 27.6272 10.8979 27.6272H20.0001C20.3453 27.6272 20.6251 27.3531 20.6251 27.0147C20.6251 26.6767 20.3453 26.4022 20.0001 26.4022H17.317V14.9631C17.8464 14.2765 19.2858 12.2963 19.2858 11.068C19.2694 10.3844 19.8041 9.80886 20.4998 9.76033C20.8396 9.75008 21.1691 9.87517 21.4133 10.1069C21.6571 10.3386 21.7948 10.6575 21.7948 10.9904V11.068C21.7955 11.7925 21.6612 12.5113 21.399 13.1886L20.8779 14.5404C20.8054 14.7287 20.8315 14.9395 20.9484 15.1053C21.0649 15.2707 21.257 15.3695 21.4625 15.3698H27.2304C27.7487 15.3698 28.1689 15.7817 28.1689 16.2895C28.1689 16.7978 27.7487 17.2096 27.2304 17.2096C26.8851 17.2096 26.6054 17.4837 26.6054 17.8221C26.6054 18.1604 26.8851 18.4345 27.2304 18.4345H27.538C28.0566 18.4345 28.4772 18.8463 28.4772 19.3546C28.4772 19.8628 28.0566 20.2746 27.538 20.2746H27.2304C26.8851 20.2746 26.6054 20.5487 26.6054 20.8871C26.6054 21.2254 26.8851 21.4995 27.2304 21.4995C27.7487 21.4995 28.1689 21.9114 28.1689 22.4196C28.1689 22.9275 27.7487 23.3393 27.2304 23.3393H26.2521C25.9068 23.3393 25.6271 23.6137 25.6271 23.9517C25.6271 24.2901 25.9068 24.5642 26.2521 24.5642C26.7707 24.5642 27.191 24.976 27.191 25.4842C27.191 25.9921 26.7707 26.404 26.2521 26.404H22.1279C21.7826 26.404 21.5029 26.6784 21.5029 27.0164C21.5029 27.3548 21.7826 27.6289 22.1279 27.6289H26.2521C27.0424 27.6299 27.7713 27.2129 28.1595 26.5386C28.548 25.864 28.5348 25.0369 28.1257 24.3745C28.7535 24.099 29.2124 23.5498 29.3649 22.8922C29.5169 22.2347 29.3443 21.5453 28.8992 21.0313C29.4221 20.6249 29.7269 20.0067 29.7272 19.3529ZM11.5229 15.3685H16.067V26.4022H11.5229V15.3685ZM13.3644 22.8509C12.466 22.8509 11.7381 23.5645 11.7381 24.4446C11.7381 25.325 12.466 26.0383 13.3644 26.0383C14.2625 26.0383 14.9907 25.325 14.9907 24.4446C14.9897 23.5649 14.2621 22.8519 13.3644 22.8509ZM13.3644 24.813C13.1565 24.813 12.9877 24.6479 12.9881 24.4442C12.9881 24.2405 13.1565 24.0751 13.3647 24.0755C13.5726 24.0755 13.7411 24.2409 13.7407 24.4446C13.7404 24.6483 13.5719 24.813 13.3644 24.813ZM39.3714 18.5418C38.7963 19.4321 38.7963 20.5675 39.3714 21.4578C39.9482 22.3464 40.1383 23.424 39.8991 24.4507C39.6602 25.4771 39.0114 26.3674 38.0984 26.9224C37.186 27.4802 36.6834 28.5031 36.8072 29.5496C36.9338 30.5955 36.628 31.6471 35.958 32.4704C35.288 33.2937 34.3097 33.8201 33.2414 33.9322C32.1724 34.046 31.2667 34.7535 30.9144 35.7487C30.5653 36.7446 29.8242 37.5621 28.856 38.0191C27.8878 38.476 26.7732 38.5341 25.761 38.1807C24.7472 37.8294 23.6175 38.082 22.8596 38.8298C22.1042 39.5786 21.0743 40 19.9997 40C18.9252 40 17.8952 39.5786 17.1398 38.8298C16.3819 38.0816 15.2519 37.8291 14.2384 38.1807C13.2263 38.5341 12.112 38.4757 11.1438 38.0187C10.1759 37.5621 9.43447 36.7446 9.08535 35.7487C8.73379 34.7531 7.82769 34.0453 6.75871 33.9311C5.69043 33.819 4.71214 33.2927 4.04215 32.4694C3.37217 31.6461 3.0663 30.5944 3.19255 29.5486C3.31636 28.5018 2.81379 27.4788 1.90141 26.9214C0.988683 26.3664 0.340322 25.4764 0.101415 24.45C-0.137491 23.4237 0.0522388 22.3461 0.628753 21.4578C1.20387 20.5675 1.20387 19.4321 0.628753 18.5418C0.05189 17.6536 -0.138189 16.576 0.100718 15.5493C0.339973 14.5226 0.988334 13.6326 1.90176 13.0776C2.19507 12.8992 2.58046 12.9877 2.76217 13.2751C2.94423 13.5625 2.8539 13.9402 2.56058 14.1186C1.93106 14.5011 1.48428 15.1145 1.31966 15.822C1.1547 16.5298 1.28583 17.2725 1.68343 17.8846C2.51803 19.1765 2.51803 20.8242 1.68343 22.1157C1.28583 22.7282 1.1547 23.4709 1.31966 24.1783C1.48428 24.8858 1.93106 25.4993 2.56058 25.8821C3.88451 26.691 4.61413 28.1754 4.43417 29.6942C4.34698 30.415 4.55763 31.1399 5.0194 31.7072C5.48117 32.2746 6.15569 32.6372 6.89194 32.7144C8.44326 32.8805 9.75777 33.9076 10.268 35.3526C10.5087 36.0389 11.0193 36.6024 11.6865 36.9172C12.3537 37.232 13.1216 37.2723 13.8192 37.0286C15.2903 36.5184 16.9299 36.8851 18.0292 37.9702C18.5499 38.4863 19.2596 38.7768 20.0001 38.7768C20.7408 38.7768 21.4506 38.4863 21.971 37.9702C23.0706 36.8851 24.7098 36.5184 26.1809 37.0286C26.8785 37.2723 27.6465 37.232 28.3137 36.9172C28.9809 36.6024 29.4918 36.0389 29.7325 35.3526C30.2427 33.9076 31.5572 32.8805 33.1085 32.7144C33.8448 32.6372 34.519 32.2746 34.9807 31.7072C35.4425 31.1399 35.6535 30.415 35.5663 29.6942C35.3863 28.1754 36.116 26.691 37.4399 25.8817C38.0691 25.4989 38.5162 24.8855 38.6808 24.178C38.8458 23.4705 38.7146 22.7279 38.317 22.1154C37.4824 20.8238 37.4824 19.1762 38.317 17.8843C38.7146 17.2721 38.8458 16.5295 38.6808 15.8217C38.5162 15.1142 38.0691 14.5007 37.4399 14.1183C36.1156 13.3093 35.3856 11.8246 35.566 10.3058C35.6532 9.585 35.4421 8.8601 34.9804 8.29276C34.5186 7.72508 33.8444 7.36246 33.1082 7.28522C31.5569 7.11946 30.2424 6.09209 29.7321 4.64708C29.4915 3.9608 28.9805 3.39756 28.3133 3.08244C27.6461 2.76767 26.8781 2.72768 26.1806 2.97137C24.7095 3.48129 23.0703 3.11491 21.9706 2.02979C21.4502 1.51371 20.7405 1.2232 19.9997 1.2232C19.2593 1.2232 18.5495 1.51371 18.0288 2.02979C16.9295 3.11491 15.2899 3.48129 13.8188 2.97137C13.1213 2.72768 12.3533 2.76767 11.6861 3.08244C11.0189 3.39756 10.5083 3.9608 10.2677 4.64708C9.75777 6.09209 8.44361 7.11912 6.89299 7.28556C6.0249 7.37374 5.25064 7.85974 4.80665 8.59591C4.69784 8.79517 4.48614 8.91957 4.2556 8.91957C4.02541 8.91957 3.81371 8.79551 3.70454 8.59626C3.59573 8.39734 3.60759 8.15571 3.73524 7.96774C4.37941 6.8997 5.50245 6.19462 6.76185 6.06748C7.82943 5.95231 8.73379 5.24552 9.08535 4.25096C9.43447 3.25504 10.1759 2.43752 11.1441 1.98057C12.1123 1.52396 13.2266 1.46552 14.2391 1.81925C15.253 2.1706 16.3826 1.91803 17.1405 1.17023C17.8959 0.421405 18.9259 0 20.0004 0C21.075 0 22.1049 0.421405 22.8603 1.17023C23.6182 1.91768 24.7479 2.17025 25.7617 1.81925C26.7738 1.46586 27.8882 1.5243 28.8563 1.98091C29.8242 2.43786 30.5653 3.25538 30.9144 4.25096C31.2663 5.24689 32.1724 5.9547 33.2414 6.06885C34.3097 6.18095 35.288 6.70728 35.958 7.53061C36.628 8.35394 36.9338 9.40557 36.8072 10.4514C36.6834 11.4979 37.1863 12.5208 38.0987 13.0786C39.0118 13.6336 39.6602 14.524 39.8991 15.5503C40.1383 16.577 39.9482 17.6546 39.3714 18.5429V18.5418ZM3.06246 11.6493C3.19778 11.2641 3.24208 10.8543 3.19255 10.45C3.15209 10.1144 3.39693 9.80955 3.73977 9.7699C4.08261 9.72991 4.39336 9.97018 4.43417 10.3061C4.50427 10.8926 4.43975 11.4873 4.24514 12.0464C4.13318 12.3663 3.77779 12.5369 3.45099 12.4275C3.12454 12.3178 2.95051 11.9692 3.06246 11.6493ZM32.2405 13.4265C31.8303 12.6951 31.3528 12.0017 30.814 11.3557C30.5953 11.0936 30.6351 10.7077 30.9022 10.4938C31.1694 10.2798 31.5631 10.3184 31.7818 10.5802C32.3681 11.284 32.8878 12.0386 33.3345 12.8346C33.4444 13.0266 33.4409 13.2614 33.3251 13.4501C33.2093 13.6384 32.999 13.7519 32.7744 13.7464C32.5502 13.7413 32.3458 13.6183 32.2391 13.4245L32.2405 13.4265ZM29.5905 9.22238C29.375 9.48657 28.9819 9.52895 28.7123 9.31774C26.2448 7.36998 23.1686 6.3139 20.0001 6.3262C13.9978 6.3327 8.6738 10.1045 6.78557 15.6877C4.89733 21.2709 6.86857 27.4115 11.6788 30.93C16.4887 34.4482 23.057 34.5539 27.9823 31.1922C32.9076 27.8302 35.0836 21.7562 33.383 16.1152C33.2916 15.793 33.4807 15.4587 33.8082 15.3637C34.1353 15.269 34.4795 15.4488 34.5817 15.768C36.7186 22.8259 33.2787 30.3555 26.483 33.4947C19.6876 36.6339 11.5714 34.4421 7.37568 28.3353C3.18 22.2282 4.16108 14.0345 9.68593 9.04569C15.2104 4.05649 23.6238 3.76599 29.4932 8.36146C29.7628 8.57302 29.8064 8.95819 29.5905 9.22238Z" fill="#175CFF"/>
</symbol><symbol id="icon-share-arr" viewBox="0 0 12 11">
<path d="M12 4.99992L7.33333 0.333252V2.99992C2.66667 3.66659 0.666667 6.99992 0 10.3333C1.66667 7.99992 4 6.93325 7.33333 6.93325V9.66659L12 4.99992Z" fill="#97A2AC"/>
</symbol></svg>